0
SECTION
2
HEADER
9
$ACADVER
1
AC1006
0
ENDSEC
0
SECTION
2
TABLES
0
TABLE
2
LAYER
70
1
0
LAYER
70
0
62
1
6
CONTINUOUS
2
L6D0
0
ENDTAB
0
ENDSEC
0
SECTION
2
BLOCKS
0
ENDSEC
0
SECTION
2
ENTITIES
0
POLYLINE
8
L6D0
70
1
40
0
41
0
66
1
0
VERTEX
8
L6D0
10
-246
20
8476.75
0
VERTEX
8
L6D0
10
-246
20
8551.75
0
VERTEX
8
L6D0
10
-250
20
8551.75
0
VERTEX
8
L6D0
10
-250
20
8576.75
0
VERTEX
8
L6D0
10
-88
20
8576.75
0
VERTEX
8
L6D0
10
-88
20
8551.75
0
VERTEX
8
L6D0
10
-92
20
8551.75
0
VERTEX
8
L6D0
10
-92
20
8476.75
0
VERTEX
8
L6D0
10
-94
20
8476.75
0
VERTEX
8
L6D0
10
-94
20
8551.75
0
VERTEX
8
L6D0
10
-100
20
8551.75
0
VERTEX
8
L6D0
10
-100
20
8476.75
0
VERTEX
8
L6D0
10
-102
20
8476.75
0
VERTEX
8
L6D0
10
-102
20
8551.75
0
VERTEX
8
L6D0
10
-108
20
8551.75
0
VERTEX
8
L6D0
10
-108
20
8476.75
0
VERTEX
8
L6D0
10
-110
20
8476.75
0
VERTEX
8
L6D0
10
-110
20
8551.75
0
VERTEX
8
L6D0
10
-116
20
8551.75
0
VERTEX
8
L6D0
10
-116
20
8476.75
0
VERTEX
8
L6D0
10
-118
20
8476.75
0
VERTEX
8
L6D0
10
-118
20
8551.75
0
VERTEX
8
L6D0
10
-124
20
8551.75
0
VERTEX
8
L6D0
10
-124
20
8476.75
0
VERTEX
8
L6D0
10
-126
20
8476.75
0
VERTEX
8
L6D0
10
-126
20
8551.75
0
VERTEX
8
L6D0
10
-132
20
8551.75
0
VERTEX
8
L6D0
10
-132
20
8476.75
0
VERTEX
8
L6D0
10
-134
20
8476.75
0
VERTEX
8
L6D0
10
-134
20
8551.75
0
VERTEX
8
L6D0
10
-140
20
8551.75
0
VERTEX
8
L6D0
10
-140
20
8476.75
0
VERTEX
8
L6D0
10
-142
20
8476.75
0
VERTEX
8
L6D0
10
-142
20
8551.75
0
VERTEX
8
L6D0
10
-148
20
8551.75
0
VERTEX
8
L6D0
10
-148
20
8476.75
0
VERTEX
8
L6D0
10
-150
20
8476.75
0
VERTEX
8
L6D0
10
-150
20
8551.75
0
VERTEX
8
L6D0
10
-156
20
8551.75
0
VERTEX
8
L6D0
10
-156
20
8476.75
0
VERTEX
8
L6D0
10
-158
20
8476.75
0
VERTEX
8
L6D0
10
-158
20
8551.75
0
VERTEX
8
L6D0
10
-164
20
8551.75
0
VERTEX
8
L6D0
10
-164
20
8476.75
0
VERTEX
8
L6D0
10
-166
20
8476.75
0
VERTEX
8
L6D0
10
-166
20
8551.75
0
VERTEX
8
L6D0
10
-172
20
8551.75
0
VERTEX
8
L6D0
10
-172
20
8476.75
0
VERTEX
8
L6D0
10
-174
20
8476.75
0
VERTEX
8
L6D0
10
-174
20
8551.75
0
VERTEX
8
L6D0
10
-180
20
8551.75
0
VERTEX
8
L6D0
10
-180
20
8476.75
0
VERTEX
8
L6D0
10
-182
20
8476.75
0
VERTEX
8
L6D0
10
-182
20
8551.75
0
VERTEX
8
L6D0
10
-188
20
8551.75
0
VERTEX
8
L6D0
10
-188
20
8476.75
0
VERTEX
8
L6D0
10
-190
20
8476.75
0
VERTEX
8
L6D0
10
-190
20
8551.75
0
VERTEX
8
L6D0
10
-196
20
8551.75
0
VERTEX
8
L6D0
10
-196
20
8476.75
0
VERTEX
8
L6D0
10
-198
20
8476.75
0
VERTEX
8
L6D0
10
-198
20
8551.75
0
VERTEX
8
L6D0
10
-204
20
8551.75
0
VERTEX
8
L6D0
10
-204
20
8476.75
0
VERTEX
8
L6D0
10
-206
20
8476.75
0
VERTEX
8
L6D0
10
-206
20
8551.75
0
VERTEX
8
L6D0
10
-212
20
8551.75
0
VERTEX
8
L6D0
10
-212
20
8476.75
0
VERTEX
8
L6D0
10
-214
20
8476.75
0
VERTEX
8
L6D0
10
-214
20
8551.75
0
VERTEX
8
L6D0
10
-220
20
8551.75
0
VERTEX
8
L6D0
10
-220
20
8476.75
0
VERTEX
8
L6D0
10
-222
20
8476.75
0
VERTEX
8
L6D0
10
-222
20
8551.75
0
VERTEX
8
L6D0
10
-228
20
8551.75
0
VERTEX
8
L6D0
10
-228
20
8476.75
0
VERTEX
8
L6D0
10
-230
20
8476.75
0
VERTEX
8
L6D0
10
-230
20
8551.75
0
VERTEX
8
L6D0
10
-236
20
8551.75
0
VERTEX
8
L6D0
10
-236
20
8476.75
0
VERTEX
8
L6D0
10
-238
20
8476.75
0
VERTEX
8
L6D0
10
-238
20
8551.75
0
VERTEX
8
L6D0
10
-244
20
8551.75
0
VERTEX
8
L6D0
10
-244
20
8476.75
0
SEQEND
0
POLYLINE
8
L6D0
70
1
40
0
41
0
66
1
0
VERTEX
8
L6D0
10
-502
20
7450.25
0
VERTEX
8
L6D0
10
-502
20
8450.25
0
VERTEX
8
L6D0
10
-508
20
8450.25
0
VERTEX
8
L6D0
10
-508
20
8081.446
0
VERTEX
8
L6D0
10
-510
20
8081.446
0
VERTEX
8
L6D0
10
-510
20
8450.25
0
VERTEX
8
L6D0
10
-1170
20
8450.25
0
VERTEX
8
L6D0
10
-1170
20
8475.25
0
VERTEX
8
L6D0
10
-250
20
8475.25
0
VERTEX
8
L6D0
10
-250
20
8550.25
0
VERTEX
8
L6D0
10
-248
20
8550.25
0
VERTEX
8
L6D0
10
-248
20
8475.25
0
VERTEX
8
L6D0
10
-242
20
8475.25
0
VERTEX
8
L6D0
10
-242
20
8550.25
0
VERTEX
8
L6D0
10
-240
20
8550.25
0
VERTEX
8
L6D0
10
-240
20
8475.25
0
VERTEX
8
L6D0
10
-234
20
8475.25
0
VERTEX
8
L6D0
10
-234
20
8550.25
0
VERTEX
8
L6D0
10
-232
20
8550.25
0
VERTEX
8
L6D0
10
-232
20
8475.25
0
VERTEX
8
L6D0
10
-226
20
8475.25
0
VERTEX
8
L6D0
10
-226
20
8550.25
0
VERTEX
8
L6D0
10
-224
20
8550.25
0
VERTEX
8
L6D0
10
-224
20
8475.25
0
VERTEX
8
L6D0
10
-218
20
8475.25
0
VERTEX
8
L6D0
10
-218
20
8550.25
0
VERTEX
8
L6D0
10
-216
20
8550.25
0
VERTEX
8
L6D0
10
-216
20
8475.25
0
VERTEX
8
L6D0
10
-210
20
8475.25
0
VERTEX
8
L6D0
10
-210
20
8550.25
0
VERTEX
8
L6D0
10
-208
20
8550.25
0
VERTEX
8
L6D0
10
-208
20
8475.25
0
VERTEX
8
L6D0
10
-202
20
8475.25
0
VERTEX
8
L6D0
10
-202
20
8550.25
0
VERTEX
8
L6D0
10
-200
20
8550.25
0
VERTEX
8
L6D0
10
-200
20
8475.25
0
VERTEX
8
L6D0
10
-194
20
8475.25
0
VERTEX
8
L6D0
10
-194
20
8450.25
0
VERTEX
8
L6D0
10
-196
20
8450.25
0
VERTEX
8
L6D0
10
-196
20
7450.25
0
VERTEX
8
L6D0
10
-198
20
7450.25
0
VERTEX
8
L6D0
10
-198
20
8450.25
0
VERTEX
8
L6D0
10
-204
20
8450.25
0
VERTEX
8
L6D0
10
-204
20
7450.25
0
VERTEX
8
L6D0
10
-206
20
7450.25
0
VERTEX
8
L6D0
10
-206
20
8450.25
0
VERTEX
8
L6D0
10
-212
20
8450.25
0
VERTEX
8
L6D0
10
-212
20
7450.25
0
VERTEX
8
L6D0
10
-214
20
7450.25
0
VERTEX
8
L6D0
10
-214
20
8450.25
0
VERTEX
8
L6D0
10
-220
20
8450.25
0
VERTEX
8
L6D0
10
-220
20
7450.25
0
VERTEX
8
L6D0
10
-222
20
7450.25
0
VERTEX
8
L6D0
10
-222
20
8450.25
0
VERTEX
8
L6D0
10
-228
20
8450.25
0
VERTEX
8
L6D0
10
-228
20
7450.25
0
VERTEX
8
L6D0
10
-230
20
7450.25
0
VERTEX
8
L6D0
10
-230
20
8450.25
0
VERTEX
8
L6D0
10
-236
20
8450.25
0
VERTEX
8
L6D0
10
-236
20
7450.25
0
VERTEX
8
L6D0
10
-238
20
7450.25
0
VERTEX
8
L6D0
10
-238
20
8450.25
0
VERTEX
8
L6D0
10
-244
20
8450.25
0
VERTEX
8
L6D0
10
-244
20
7450.25
0
VERTEX
8
L6D0
10
-246
20
7450.25
0
VERTEX
8
L6D0
10
-246
20
8450.25
0
VERTEX
8
L6D0
10
-252
20
8450.25
0
VERTEX
8
L6D0
10
-252
20
7450.25
0
VERTEX
8
L6D0
10
-254
20
7450.25
0
VERTEX
8
L6D0
10
-254
20
8450.25
0
VERTEX
8
L6D0
10
-260
20
8450.25
0
VERTEX
8
L6D0
10
-260
20
7450.25
0
VERTEX
8
L6D0
10
-262
20
7450.25
0
VERTEX
8
L6D0
10
-262
20
8450.25
0
VERTEX
8
L6D0
10
-268
20
8450.25
0
VERTEX
8
L6D0
10
-268
20
7450.25
0
VERTEX
8
L6D0
10
-270
20
7450.25
0
VERTEX
8
L6D0
10
-270
20
8450.25
0
VERTEX
8
L6D0
10
-276
20
8450.25
0
VERTEX
8
L6D0
10
-276
20
7450.25
0
VERTEX
8
L6D0
10
-278
20
7450.25
0
VERTEX
8
L6D0
10
-278
20
8450.25
0
VERTEX
8
L6D0
10
-284
20
8450.25
0
VERTEX
8
L6D0
10
-284
20
7450.25
0
VERTEX
8
L6D0
10
-286
20
7450.25
0
VERTEX
8
L6D0
10
-286
20
8450.25
0
VERTEX
8
L6D0
10
-292
20
8450.25
0
VERTEX
8
L6D0
10
-292
20
7450.25
0
VERTEX
8
L6D0
10
-294
20
7450.25
0
VERTEX
8
L6D0
10
-294
20
8450.25
0
VERTEX
8
L6D0
10
-300
20
8450.25
0
VERTEX
8
L6D0
10
-300
20
7450.25
0
VERTEX
8
L6D0
10
-302
20
7450.25
0
VERTEX
8
L6D0
10
-302
20
8450.25
0
VERTEX
8
L6D0
10
-308
20
8450.25
0
VERTEX
8
L6D0
10
-308
20
7450.25
0
VERTEX
8
L6D0
10
-310
20
7450.25
0
VERTEX
8
L6D0
10
-310
20
8450.25
0
VERTEX
8
L6D0
10
-316
20
8450.25
0
VERTEX
8
L6D0
10
-316
20
7450.25
0
VERTEX
8
L6D0
10
-318
20
7450.25
0
VERTEX
8
L6D0
10
-318
20
8450.25
0
VERTEX
8
L6D0
10
-324
20
8450.25
0
VERTEX
8
L6D0
10
-324
20
7450.25
0
VERTEX
8
L6D0
10
-326
20
7450.25
0
VERTEX
8
L6D0
10
-326
20
8450.25
0
VERTEX
8
L6D0
10
-332
20
8450.25
0
VERTEX
8
L6D0
10
-332
20
7450.25
0
VERTEX
8
L6D0
10
-334
20
7450.25
0
VERTEX
8
L6D0
10
-334
20
8450.25
0
VERTEX
8
L6D0
10
-340
20
8450.25
0
VERTEX
8
L6D0
10
-340
20
7450.25
0
VERTEX
8
L6D0
10
-342
20
7450.25
0
VERTEX
8
L6D0
10
-342
20
8450.25
0
VERTEX
8
L6D0
10
-348
20
8450.25
0
VERTEX
8
L6D0
10
-348
20
7450.25
0
VERTEX
8
L6D0
10
-350
20
7450.25
0
VERTEX
8
L6D0
10
-350
20
8450.25
0
VERTEX
8
L6D0
10
-356
20
8450.25
0
VERTEX
8
L6D0
10
-356
20
7450.25
0
VERTEX
8
L6D0
10
-358
20
7450.25
0
VERTEX
8
L6D0
10
-358
20
8450.25
0
VERTEX
8
L6D0
10
-364
20
8450.25
0
VERTEX
8
L6D0
10
-364
20
7450.25
0
VERTEX
8
L6D0
10
-366
20
7450.25
0
VERTEX
8
L6D0
10
-366
20
8450.25
0
VERTEX
8
L6D0
10
-372
20
8450.25
0
VERTEX
8
L6D0
10
-372
20
7450.25
0
VERTEX
8
L6D0
10
-374
20
7450.25
0
VERTEX
8
L6D0
10
-374
20
8450.25
0
VERTEX
8
L6D0
10
-380
20
8450.25
0
VERTEX
8
L6D0
10
-380
20
7450.25
0
VERTEX
8
L6D0
10
-382
20
7450.25
0
VERTEX
8
L6D0
10
-382
20
8450.25
0
VERTEX
8
L6D0
10
-388
20
8450.25
0
VERTEX
8
L6D0
10
-388
20
7450.25
0
VERTEX
8
L6D0
10
-390
20
7450.25
0
VERTEX
8
L6D0
10
-390
20
8450.25
0
VERTEX
8
L6D0
10
-396
20
8450.25
0
VERTEX
8
L6D0
10
-396
20
7450.25
0
VERTEX
8
L6D0
10
-398
20
7450.25
0
VERTEX
8
L6D0
10
-398
20
8450.25
0
VERTEX
8
L6D0
10
-404
20
8450.25
0
VERTEX
8
L6D0
10
-404
20
7450.25
0
VERTEX
8
L6D0
10
-406
20
7450.25
0
VERTEX
8
L6D0
10
-406
20
8450.25
0
VERTEX
8
L6D0
10
-412
20
8450.25
0
VERTEX
8
L6D0
10
-412
20
7450.25
0
VERTEX
8
L6D0
10
-414
20
7450.25
0
VERTEX
8
L6D0
10
-414
20
8450.25
0
VERTEX
8
L6D0
10
-420
20
8450.25
0
VERTEX
8
L6D0
10
-420
20
7450.25
0
VERTEX
8
L6D0
10
-422
20
7450.25
0
VERTEX
8
L6D0
10
-422
20
8450.25
0
VERTEX
8
L6D0
10
-428
20
8450.25
0
VERTEX
8
L6D0
10
-428
20
7450.25
0
VERTEX
8
L6D0
10
-430
20
7450.25
0
VERTEX
8
L6D0
10
-430
20
8450.25
0
VERTEX
8
L6D0
10
-436
20
8450.25
0
VERTEX
8
L6D0
10
-436
20
7450.25
0
VERTEX
8
L6D0
10
-438
20
7450.25
0
VERTEX
8
L6D0
10
-438
20
8450.25
0
VERTEX
8
L6D0
10
-444
20
8450.25
0
VERTEX
8
L6D0
10
-444
20
7450.25
0
VERTEX
8
L6D0
10
-446
20
7450.25
0
VERTEX
8
L6D0
10
-446
20
8450.25
0
VERTEX
8
L6D0
10
-452
20
8450.25
0
VERTEX
8
L6D0
10
-452
20
7450.25
0
VERTEX
8
L6D0
10
-454
20
7450.25
0
VERTEX
8
L6D0
10
-454
20
8450.25
0
VERTEX
8
L6D0
10
-460
20
8450.25
0
VERTEX
8
L6D0
10
-460
20
7450.25
0
VERTEX
8
L6D0
10
-462
20
7450.25
0
VERTEX
8
L6D0
10
-462
20
8450.25
0
VERTEX
8
L6D0
10
-468
20
8450.25
0
VERTEX
8
L6D0
10
-468
20
7450.25
0
VERTEX
8
L6D0
10
-470
20
7450.25
0
VERTEX
8
L6D0
10
-470
20
8450.25
0
VERTEX
8
L6D0
10
-476
20
8450.25
0
VERTEX
8
L6D0
10
-476
20
7450.25
0
VERTEX
8
L6D0
10
-478
20
7450.25
0
VERTEX
8
L6D0
10
-478
20
8450.25
0
VERTEX
8
L6D0
10
-484
20
8450.25
0
VERTEX
8
L6D0
10
-484
20
7450.25
0
VERTEX
8
L6D0
10
-486
20
7450.25
0
VERTEX
8
L6D0
10
-486
20
8450.25
0
VERTEX
8
L6D0
10
-492
20
8450.25
0
VERTEX
8
L6D0
10
-492
20
7450.25
0
VERTEX
8
L6D0
10
-494
20
7450.25
0
VERTEX
8
L6D0
10
-494
20
8450.25
0
VERTEX
8
L6D0
10
-500
20
8450.25
0
VERTEX
8
L6D0
10
-500
20
7450.25
0
SEQEND
0
POLYLINE
8
L6D0
70
1
40
0
41
0
66
1
0
VERTEX
8
L6D0
10
-190
20
7450.25
0
VERTEX
8
L6D0
10
-190
20
8450.25
0
VERTEX
8
L6D0
10
-194
20
8450.25
0
VERTEX
8
L6D0
10
-194
20
8550.25
0
VERTEX
8
L6D0
10
-192
20
8550.25
0
VERTEX
8
L6D0
10
-192
20
8475.25
0
VERTEX
8
L6D0
10
-186
20
8475.25
0
VERTEX
8
L6D0
10
-186
20
8550.25
0
VERTEX
8
L6D0
10
-184
20
8550.25
0
VERTEX
8
L6D0
10
-184
20
8475.25
0
VERTEX
8
L6D0
10
-178
20
8475.25
0
VERTEX
8
L6D0
10
-178
20
8550.25
0
VERTEX
8
L6D0
10
-176
20
8550.25
0
VERTEX
8
L6D0
10
-176
20
8475.25
0
VERTEX
8
L6D0
10
-170
20
8475.25
0
VERTEX
8
L6D0
10
-170
20
8550.25
0
VERTEX
8
L6D0
10
-168
20
8550.25
0
VERTEX
8
L6D0
10
-168
20
8475.25
0
VERTEX
8
L6D0
10
-162
20
8475.25
0
VERTEX
8
L6D0
10
-162
20
8550.25
0
VERTEX
8
L6D0
10
-160
20
8550.25
0
VERTEX
8
L6D0
10
-160
20
8475.25
0
VERTEX
8
L6D0
10
-154
20
8475.25
0
VERTEX
8
L6D0
10
-154
20
8550.25
0
VERTEX
8
L6D0
10
-152
20
8550.25
0
VERTEX
8
L6D0
10
-152
20
8475.25
0
VERTEX
8
L6D0
10
-146
20
8475.25
0
VERTEX
8
L6D0
10
-146
20
8550.25
0
VERTEX
8
L6D0
10
-144
20
8550.25
0
VERTEX
8
L6D0
10
-144
20
8475.25
0
VERTEX
8
L6D0
10
-138
20
8475.25
0
VERTEX
8
L6D0
10
-138
20
8550.25
0
VERTEX
8
L6D0
10
-136
20
8550.25
0
VERTEX
8
L6D0
10
-136
20
8475.25
0
VERTEX
8
L6D0
10
-130
20
8475.25
0
VERTEX
8
L6D0
10
-130
20
8550.25
0
VERTEX
8
L6D0
10
-128
20
8550.25
0
VERTEX
8
L6D0
10
-128
20
8475.25
0
VERTEX
8
L6D0
10
-122
20
8475.25
0
VERTEX
8
L6D0
10
-122
20
8550.25
0
VERTEX
8
L6D0
10
-120
20
8550.25
0
VERTEX
8
L6D0
10
-120
20
8475.25
0
VERTEX
8
L6D0
10
-114
20
8475.25
0
VERTEX
8
L6D0
10
-114
20
8550.25
0
VERTEX
8
L6D0
10
-112
20
8550.25
0
VERTEX
8
L6D0
10
-112
20
8475.25
0
VERTEX
8
L6D0
10
-106
20
8475.25
0
VERTEX
8
L6D0
10
-106
20
8550.25
0
VERTEX
8
L6D0
10
-104
20
8550.25
0
VERTEX
8
L6D0
10
-104
20
8475.25
0
VERTEX
8
L6D0
10
-98
20
8475.25
0
VERTEX
8
L6D0
10
-98
20
8550.25
0
VERTEX
8
L6D0
10
-96
20
8550.25
0
VERTEX
8
L6D0
10
-96
20
8475.25
0
VERTEX
8
L6D0
10
-90
20
8475.25
0
VERTEX
8
L6D0
10
-90
20
8550.25
0
VERTEX
8
L6D0
10
-88
20
8550.25
0
VERTEX
8
L6D0
10
-88
20
8475.25
0
VERTEX
8
L6D0
10
76
20
8475.25
0
VERTEX
8
L6D0
10
76
20
7450.25
0
VERTEX
8
L6D0
10
74
20
7450.25
0
VERTEX
8
L6D0
10
74
20
8450.25
0
VERTEX
8
L6D0
10
68
20
8450.25
0
VERTEX
8
L6D0
10
68
20
7450.25
0
VERTEX
8
L6D0
10
66
20
7450.25
0
VERTEX
8
L6D0
10
66
20
8450.25
0
VERTEX
8
L6D0
10
60
20
8450.25
0
VERTEX
8
L6D0
10
60
20
7450.25
0
VERTEX
8
L6D0
10
58
20
7450.25
0
VERTEX
8
L6D0
10
58
20
8450.25
0
VERTEX
8
L6D0
10
52
20
8450.25
0
VERTEX
8
L6D0
10
52
20
7450.25
0
VERTEX
8
L6D0
10
50
20
7450.25
0
VERTEX
8
L6D0
10
50
20
8450.25
0
VERTEX
8
L6D0
10
44
20
8450.25
0
VERTEX
8
L6D0
10
44
20
7450.25
0
VERTEX
8
L6D0
10
42
20
7450.25
0
VERTEX
8
L6D0
10
42
20
8450.25
0
VERTEX
8
L6D0
10
36
20
8450.25
0
VERTEX
8
L6D0
10
36
20
7450.25
0
VERTEX
8
L6D0
10
34
20
7450.25
0
VERTEX
8
L6D0
10
34
20
8450.25
0
VERTEX
8
L6D0
10
28
20
8450.25
0
VERTEX
8
L6D0
10
28
20
7450.25
0
VERTEX
8
L6D0
10
26
20
7450.25
0
VERTEX
8
L6D0
10
26
20
8450.25
0
VERTEX
8
L6D0
10
20
20
8450.25
0
VERTEX
8
L6D0
10
20
20
7450.25
0
VERTEX
8
L6D0
10
18
20
7450.25
0
VERTEX
8
L6D0
10
18
20
8450.25
0
VERTEX
8
L6D0
10
12
20
8450.25
0
VERTEX
8
L6D0
10
12
20
7450.25
0
VERTEX
8
L6D0
10
10
20
7450.25
0
VERTEX
8
L6D0
10
10
20
8450.25
0
VERTEX
8
L6D0
10
4
20
8450.25
0
VERTEX
8
L6D0
10
4
20
7450.25
0
VERTEX
8
L6D0
10
2
20
7450.25
0
VERTEX
8
L6D0
10
2
20
8450.25
0
VERTEX
8
L6D0
10
-4
20
8450.25
0
VERTEX
8
L6D0
10
-4
20
7450.25
0
VERTEX
8
L6D0
10
-6
20
7450.25
0
VERTEX
8
L6D0
10
-6
20
8450.25
0
VERTEX
8
L6D0
10
-12
20
8450.25
0
VERTEX
8
L6D0
10
-12
20
7450.25
0
VERTEX
8
L6D0
10
-14
20
7450.25
0
VERTEX
8
L6D0
10
-14
20
8450.25
0
VERTEX
8
L6D0
10
-20
20
8450.25
0
VERTEX
8
L6D0
10
-20
20
7450.25
0
VERTEX
8
L6D0
10
-22
20
7450.25
0
VERTEX
8
L6D0
10
-22
20
8450.25
0
VERTEX
8
L6D0
10
-28
20
8450.25
0
VERTEX
8
L6D0
10
-28
20
7450.25
0
VERTEX
8
L6D0
10
-30
20
7450.25
0
VERTEX
8
L6D0
10
-30
20
8450.25
0
VERTEX
8
L6D0
10
-36
20
8450.25
0
VERTEX
8
L6D0
10
-36
20
7450.25
0
VERTEX
8
L6D0
10
-38
20
7450.25
0
VERTEX
8
L6D0
10
-38
20
8450.25
0
VERTEX
8
L6D0
10
-44
20
8450.25
0
VERTEX
8
L6D0
10
-44
20
7450.25
0
VERTEX
8
L6D0
10
-46
20
7450.25
0
VERTEX
8
L6D0
10
-46
20
8450.25
0
VERTEX
8
L6D0
10
-52
20
8450.25
0
VERTEX
8
L6D0
10
-52
20
7450.25
0
VERTEX
8
L6D0
10
-54
20
7450.25
0
VERTEX
8
L6D0
10
-54
20
8450.25
0
VERTEX
8
L6D0
10
-60
20
8450.25
0
VERTEX
8
L6D0
10
-60
20
7450.25
0
VERTEX
8
L6D0
10
-62
20
7450.25
0
VERTEX
8
L6D0
10
-62
20
8450.25
0
VERTEX
8
L6D0
10
-68
20
8450.25
0
VERTEX
8
L6D0
10
-68
20
7450.25
0
VERTEX
8
L6D0
10
-70
20
7450.25
0
VERTEX
8
L6D0
10
-70
20
8450.25
0
VERTEX
8
L6D0
10
-76
20
8450.25
0
VERTEX
8
L6D0
10
-76
20
7450.25
0
VERTEX
8
L6D0
10
-78
20
7450.25
0
VERTEX
8
L6D0
10
-78
20
8450.25
0
VERTEX
8
L6D0
10
-84
20
8450.25
0
VERTEX
8
L6D0
10
-84
20
7450.25
0
VERTEX
8
L6D0
10
-86
20
7450.25
0
VERTEX
8
L6D0
10
-86
20
8450.25
0
VERTEX
8
L6D0
10
-92
20
8450.25
0
VERTEX
8
L6D0
10
-92
20
7450.25
0
VERTEX
8
L6D0
10
-94
20
7450.25
0
VERTEX
8
L6D0
10
-94
20
8450.25
0
VERTEX
8
L6D0
10
-100
20
8450.25
0
VERTEX
8
L6D0
10
-100
20
7450.25
0
VERTEX
8
L6D0
10
-102
20
7450.25
0
VERTEX
8
L6D0
10
-102
20
8450.25
0
VERTEX
8
L6D0
10
-108
20
8450.25
0
VERTEX
8
L6D0
10
-108
20
7450.25
0
VERTEX
8
L6D0
10
-110
20
7450.25
0
VERTEX
8
L6D0
10
-110
20
8450.25
0
VERTEX
8
L6D0
10
-116
20
8450.25
0
VERTEX
8
L6D0
10
-116
20
7450.25
0
VERTEX
8
L6D0
10
-118
20
7450.25
0
VERTEX
8
L6D0
10
-118
20
8450.25
0
VERTEX
8
L6D0
10
-124
20
8450.25
0
VERTEX
8
L6D0
10
-124
20
7450.25
0
VERTEX
8
L6D0
10
-126
20
7450.25
0
VERTEX
8
L6D0
10
-126
20
8450.25
0
VERTEX
8
L6D0
10
-132
20
8450.25
0
VERTEX
8
L6D0
10
-132
20
7450.25
0
VERTEX
8
L6D0
10
-134
20
7450.25
0
VERTEX
8
L6D0
10
-134
20
8450.25
0
VERTEX
8
L6D0
10
-140
20
8450.25
0
VERTEX
8
L6D0
10
-140
20
7450.25
0
VERTEX
8
L6D0
10
-142
20
7450.25
0
VERTEX
8
L6D0
10
-142
20
8450.25
0
VERTEX
8
L6D0
10
-148
20
8450.25
0
VERTEX
8
L6D0
10
-148
20
7450.25
0
VERTEX
8
L6D0
10
-150
20
7450.25
0
VERTEX
8
L6D0
10
-150
20
8450.25
0
VERTEX
8
L6D0
10
-156
20
8450.25
0
VERTEX
8
L6D0
10
-156
20
7450.25
0
VERTEX
8
L6D0
10
-158
20
7450.25
0
VERTEX
8
L6D0
10
-158
20
8450.25
0
VERTEX
8
L6D0
10
-164
20
8450.25
0
VERTEX
8
L6D0
10
-164
20
7450.25
0
VERTEX
8
L6D0
10
-166
20
7450.25
0
VERTEX
8
L6D0
10
-166
20
8450.25
0
VERTEX
8
L6D0
10
-172
20
8450.25
0
VERTEX
8
L6D0
10
-172
20
7450.25
0
VERTEX
8
L6D0
10
-174
20
7450.25
0
VERTEX
8
L6D0
10
-174
20
8450.25
0
VERTEX
8
L6D0
10
-180
20
8450.25
0
VERTEX
8
L6D0
10
-180
20
7450.25
0
VERTEX
8
L6D0
10
-182
20
7450.25
0
VERTEX
8
L6D0
10
-182
20
8450.25
0
VERTEX
8
L6D0
10
-188
20
8450.25
0
VERTEX
8
L6D0
10
-188
20
7450.25
0
SEQEND
0
POLYLINE
8
L6D0
70
1
40
0
41
0
66
1
0
VERTEX
8
L6D0
10
82
20
7450.25
0
VERTEX
8
L6D0
10
82
20
8450.25
0
VERTEX
8
L6D0
10
76
20
8450.25
0
VERTEX
8
L6D0
10
76
20
8475.25
0
VERTEX
8
L6D0
10
458
20
8475.25
0
VERTEX
8
L6D0
10
458
20
8450.25
0
VERTEX
8
L6D0
10
452
20
8450.25
0
VERTEX
8
L6D0
10
452
20
7450.25
0
VERTEX
8
L6D0
10
450
20
7450.25
0
VERTEX
8
L6D0
10
450
20
8450.25
0
VERTEX
8
L6D0
10
444
20
8450.25
0
VERTEX
8
L6D0
10
444
20
7450.25
0
VERTEX
8
L6D0
10
442
20
7450.25
0
VERTEX
8
L6D0
10
442
20
8450.25
0
VERTEX
8
L6D0
10
436
20
8450.25
0
VERTEX
8
L6D0
10
436
20
7450.25
0
VERTEX
8
L6D0
10
434
20
7450.25
0
VERTEX
8
L6D0
10
434
20
8450.25
0
VERTEX
8
L6D0
10
428
20
8450.25
0
VERTEX
8
L6D0
10
428
20
7450.25
0
VERTEX
8
L6D0
10
426
20
7450.25
0
VERTEX
8
L6D0
10
426
20
8450.25
0
VERTEX
8
L6D0
10
420
20
8450.25
0
VERTEX
8
L6D0
10
420
20
7450.25
0
VERTEX
8
L6D0
10
418
20
7450.25
0
VERTEX
8
L6D0
10
418
20
8450.25
0
VERTEX
8
L6D0
10
412
20
8450.25
0
VERTEX
8
L6D0
10
412
20
7450.25
0
VERTEX
8
L6D0
10
410
20
7450.25
0
VERTEX
8
L6D0
10
410
20
8450.25
0
VERTEX
8
L6D0
10
404
20
8450.25
0
VERTEX
8
L6D0
10
404
20
7450.25
0
VERTEX
8
L6D0
10
402
20
7450.25
0
VERTEX
8
L6D0
10
402
20
8450.25
0
VERTEX
8
L6D0
10
396
20
8450.25
0
VERTEX
8
L6D0
10
396
20
7450.25
0
VERTEX
8
L6D0
10
394
20
7450.25
0
VERTEX
8
L6D0
10
394
20
8450.25
0
VERTEX
8
L6D0
10
388
20
8450.25
0
VERTEX
8
L6D0
10
388
20
7450.25
0
VERTEX
8
L6D0
10
386
20
7450.25
0
VERTEX
8
L6D0
10
386
20
8450.25
0
VERTEX
8
L6D0
10
380
20
8450.25
0
VERTEX
8
L6D0
10
380
20
7450.25
0
VERTEX
8
L6D0
10
378
20
7450.25
0
VERTEX
8
L6D0
10
378
20
8450.25
0
VERTEX
8
L6D0
10
372
20
8450.25
0
VERTEX
8
L6D0
10
372
20
7450.25
0
VERTEX
8
L6D0
10
370
20
7450.25
0
VERTEX
8
L6D0
10
370
20
8450.25
0
VERTEX
8
L6D0
10
364
20
8450.25
0
VERTEX
8
L6D0
10
364
20
7450.25
0
VERTEX
8
L6D0
10
362
20
7450.25
0
VERTEX
8
L6D0
10
362
20
8450.25
0
VERTEX
8
L6D0
10
356
20
8450.25
0
VERTEX
8
L6D0
10
356
20
7450.25
0
VERTEX
8
L6D0
10
354
20
7450.25
0
VERTEX
8
L6D0
10
354
20
8450.25
0
VERTEX
8
L6D0
10
348
20
8450.25
0
VERTEX
8
L6D0
10
348
20
7450.25
0
VERTEX
8
L6D0
10
346
20
7450.25
0
VERTEX
8
L6D0
10
346
20
8450.25
0
VERTEX
8
L6D0
10
340
20
8450.25
0
VERTEX
8
L6D0
10
340
20
7450.25
0
VERTEX
8
L6D0
10
338
20
7450.25
0
VERTEX
8
L6D0
10
338
20
8450.25
0
VERTEX
8
L6D0
10
332
20
8450.25
0
VERTEX
8
L6D0
10
332
20
7450.25
0
VERTEX
8
L6D0
10
330
20
7450.25
0
VERTEX
8
L6D0
10
330
20
8450.25
0
VERTEX
8
L6D0
10
324
20
8450.25
0
VERTEX
8
L6D0
10
324
20
7450.25
0
VERTEX
8
L6D0
10
322
20
7450.25
0
VERTEX
8
L6D0
10
322
20
8450.25
0
VERTEX
8
L6D0
10
316
20
8450.25
0
VERTEX
8
L6D0
10
316
20
7450.25
0
VERTEX
8
L6D0
10
314
20
7450.25
0
VERTEX
8
L6D0
10
314
20
8450.25
0
VERTEX
8
L6D0
10
308
20
8450.25
0
VERTEX
8
L6D0
10
308
20
7450.25
0
VERTEX
8
L6D0
10
306
20
7450.25
0
VERTEX
8
L6D0
10
306
20
8450.25
0
VERTEX
8
L6D0
10
300
20
8450.25
0
VERTEX
8
L6D0
10
300
20
7450.25
0
VERTEX
8
L6D0
10
298
20
7450.25
0
VERTEX
8
L6D0
10
298
20
8450.25
0
VERTEX
8
L6D0
10
292
20
8450.25
0
VERTEX
8
L6D0
10
292
20
7450.25
0
VERTEX
8
L6D0
10
290
20
7450.25
0
VERTEX
8
L6D0
10
290
20
8450.25
0
VERTEX
8
L6D0
10
284
20
8450.25
0
VERTEX
8
L6D0
10
284
20
7450.25
0
VERTEX
8
L6D0
10
282
20
7450.25
0
VERTEX
8
L6D0
10
282
20
8450.25
0
VERTEX
8
L6D0
10
276
20
8450.25
0
VERTEX
8
L6D0
10
276
20
7450.25
0
VERTEX
8
L6D0
10
274
20
7450.25
0
VERTEX
8
L6D0
10
274
20
8450.25
0
VERTEX
8
L6D0
10
268
20
8450.25
0
VERTEX
8
L6D0
10
268
20
7450.25
0
VERTEX
8
L6D0
10
266
20
7450.25
0
VERTEX
8
L6D0
10
266
20
8450.25
0
VERTEX
8
L6D0
10
260
20
8450.25
0
VERTEX
8
L6D0
10
260
20
7450.25
0
VERTEX
8
L6D0
10
258
20
7450.25
0
VERTEX
8
L6D0
10
258
20
8450.25
0
VERTEX
8
L6D0
10
252
20
8450.25
0
VERTEX
8
L6D0
10
252
20
7450.25
0
VERTEX
8
L6D0
10
250
20
7450.25
0
VERTEX
8
L6D0
10
250
20
8450.25
0
VERTEX
8
L6D0
10
244
20
8450.25
0
VERTEX
8
L6D0
10
244
20
7450.25
0
VERTEX
8
L6D0
10
242
20
7450.25
0
VERTEX
8
L6D0
10
242
20
8450.25
0
VERTEX
8
L6D0
10
236
20
8450.25
0
VERTEX
8
L6D0
10
236
20
7450.25
0
VERTEX
8
L6D0
10
234
20
7450.25
0
VERTEX
8
L6D0
10
234
20
8450.25
0
VERTEX
8
L6D0
10
228
20
8450.25
0
VERTEX
8
L6D0
10
228
20
7450.25
0
VERTEX
8
L6D0
10
226
20
7450.25
0
VERTEX
8
L6D0
10
226
20
8450.25
0
VERTEX
8
L6D0
10
220
20
8450.25
0
VERTEX
8
L6D0
10
220
20
7450.25
0
VERTEX
8
L6D0
10
218
20
7450.25
0
VERTEX
8
L6D0
10
218
20
8450.25
0
VERTEX
8
L6D0
10
212
20
8450.25
0
VERTEX
8
L6D0
10
212
20
7450.25
0
VERTEX
8
L6D0
10
210
20
7450.25
0
VERTEX
8
L6D0
10
210
20
8450.25
0
VERTEX
8
L6D0
10
204
20
8450.25
0
VERTEX
8
L6D0
10
204
20
7450.25
0
VERTEX
8
L6D0
10
202
20
7450.25
0
VERTEX
8
L6D0
10
202
20
8450.25
0
VERTEX
8
L6D0
10
196
20
8450.25
0
VERTEX
8
L6D0
10
196
20
7450.25
0
VERTEX
8
L6D0
10
194
20
7450.25
0
VERTEX
8
L6D0
10
194
20
8450.25
0
VERTEX
8
L6D0
10
188
20
8450.25
0
VERTEX
8
L6D0
10
188
20
7450.25
0
VERTEX
8
L6D0
10
186
20
7450.25
0
VERTEX
8
L6D0
10
186
20
8450.25
0
VERTEX
8
L6D0
10
180
20
8450.25
0
VERTEX
8
L6D0
10
180
20
7450.25
0
VERTEX
8
L6D0
10
178
20
7450.25
0
VERTEX
8
L6D0
10
178
20
8450.25
0
VERTEX
8
L6D0
10
172
20
8450.25
0
VERTEX
8
L6D0
10
172
20
7450.25
0
VERTEX
8
L6D0
10
170
20
7450.25
0
VERTEX
8
L6D0
10
170
20
8450.25
0
VERTEX
8
L6D0
10
164
20
8450.25
0
VERTEX
8
L6D0
10
164
20
7450.25
0
VERTEX
8
L6D0
10
162
20
7450.25
0
VERTEX
8
L6D0
10
162
20
8450.25
0
VERTEX
8
L6D0
10
156
20
8450.25
0
VERTEX
8
L6D0
10
156
20
7450.25
0
VERTEX
8
L6D0
10
154
20
7450.25
0
VERTEX
8
L6D0
10
154
20
8450.25
0
VERTEX
8
L6D0
10
148
20
8450.25
0
VERTEX
8
L6D0
10
148
20
7450.25
0
VERTEX
8
L6D0
10
146
20
7450.25
0
VERTEX
8
L6D0
10
146
20
8450.25
0
VERTEX
8
L6D0
10
140
20
8450.25
0
VERTEX
8
L6D0
10
140
20
7450.25
0
VERTEX
8
L6D0
10
138
20
7450.25
0
VERTEX
8
L6D0
10
138
20
8450.25
0
VERTEX
8
L6D0
10
132
20
8450.25
0
VERTEX
8
L6D0
10
132
20
7450.25
0
VERTEX
8
L6D0
10
130
20
7450.25
0
VERTEX
8
L6D0
10
130
20
8450.25
0
VERTEX
8
L6D0
10
124
20
8450.25
0
VERTEX
8
L6D0
10
124
20
7450.25
0
VERTEX
8
L6D0
10
122
20
7450.25
0
VERTEX
8
L6D0
10
122
20
8450.25
0
VERTEX
8
L6D0
10
116
20
8450.25
0
VERTEX
8
L6D0
10
116
20
7450.25
0
VERTEX
8
L6D0
10
114
20
7450.25
0
VERTEX
8
L6D0
10
114
20
8450.25
0
VERTEX
8
L6D0
10
108
20
8450.25
0
VERTEX
8
L6D0
10
108
20
7450.25
0
VERTEX
8
L6D0
10
106
20
7450.25
0
VERTEX
8
L6D0
10
106
20
8450.25
0
VERTEX
8
L6D0
10
100
20
8450.25
0
VERTEX
8
L6D0
10
100
20
7450.25
0
VERTEX
8
L6D0
10
98
20
7450.25
0
VERTEX
8
L6D0
10
98
20
8450.25
0
VERTEX
8
L6D0
10
92
20
8450.25
0
VERTEX
8
L6D0
10
92
20
7450.25
0
VERTEX
8
L6D0
10
90
20
7450.25
0
VERTEX
8
L6D0
10
90
20
8450.25
0
VERTEX
8
L6D0
10
84
20
8450.25
0
VERTEX
8
L6D0
10
84
20
7450.25
0
SEQEND
0
POLYLINE
8
L6D0
70
1
40
0
41
0
66
1
0
VERTEX
8
L6D0
10
458
20
7450.25
0
VERTEX
8
L6D0
10
458
20
8475.25
0
VERTEX
8
L6D0
10
869.5
20
8475.25
0
VERTEX
8
L6D0
10
869.5
20
7950.5
0
VERTEX
8
L6D0
10
844.5
20
7950.5
0
VERTEX
8
L6D0
10
844.5
20
8450.25
0
VERTEX
8
L6D0
10
828
20
8450.25
0
VERTEX
8
L6D0
10
828
20
7450.25
0
VERTEX
8
L6D0
10
826
20
7450.25
0
VERTEX
8
L6D0
10
826
20
8450.25
0
VERTEX
8
L6D0
10
820
20
8450.25
0
VERTEX
8
L6D0
10
820
20
7450.25
0
VERTEX
8
L6D0
10
818
20
7450.25
0
VERTEX
8
L6D0
10
818
20
8450.25
0
VERTEX
8
L6D0
10
812
20
8450.25
0
VERTEX
8
L6D0
10
812
20
7450.25
0
VERTEX
8
L6D0
10
810
20
7450.25
0
VERTEX
8
L6D0
10
810
20
8450.25
0
VERTEX
8
L6D0
10
804
20
8450.25
0
VERTEX
8
L6D0
10
804
20
7450.25
0
VERTEX
8
L6D0
10
802
20
7450.25
0
VERTEX
8
L6D0
10
802
20
8450.25
0
VERTEX
8
L6D0
10
796
20
8450.25
0
VERTEX
8
L6D0
10
796
20
7450.25
0
VERTEX
8
L6D0
10
794
20
7450.25
0
VERTEX
8
L6D0
10
794
20
8450.25
0
VERTEX
8
L6D0
10
788
20
8450.25
0
VERTEX
8
L6D0
10
788
20
7450.25
0
VERTEX
8
L6D0
10
786
20
7450.25
0
VERTEX
8
L6D0
10
786
20
8450.25
0
VERTEX
8
L6D0
10
780
20
8450.25
0
VERTEX
8
L6D0
10
780
20
7450.25
0
VERTEX
8
L6D0
10
778
20
7450.25
0
VERTEX
8
L6D0
10
778
20
8450.25
0
VERTEX
8
L6D0
10
772
20
8450.25
0
VERTEX
8
L6D0
10
772
20
7450.25
0
VERTEX
8
L6D0
10
770
20
7450.25
0
VERTEX
8
L6D0
10
770
20
8450.25
0
VERTEX
8
L6D0
10
764
20
8450.25
0
VERTEX
8
L6D0
10
764
20
7450.25
0
VERTEX
8
L6D0
10
762
20
7450.25
0
VERTEX
8
L6D0
10
762
20
8450.25
0
VERTEX
8
L6D0
10
756
20
8450.25
0
VERTEX
8
L6D0
10
756
20
7450.25
0
VERTEX
8
L6D0
10
754
20
7450.25
0
VERTEX
8
L6D0
10
754
20
8450.25
0
VERTEX
8
L6D0
10
748
20
8450.25
0
VERTEX
8
L6D0
10
748
20
7450.25
0
VERTEX
8
L6D0
10
746
20
7450.25
0
VERTEX
8
L6D0
10
746
20
8450.25
0
VERTEX
8
L6D0
10
740
20
8450.25
0
VERTEX
8
L6D0
10
740
20
7450.25
0
VERTEX
8
L6D0
10
738
20
7450.25
0
VERTEX
8
L6D0
10
738
20
8450.25
0
VERTEX
8
L6D0
10
732
20
8450.25
0
VERTEX
8
L6D0
10
732
20
7450.25
0
VERTEX
8
L6D0
10
730
20
7450.25
0
VERTEX
8
L6D0
10
730
20
8450.25
0
VERTEX
8
L6D0
10
724
20
8450.25
0
VERTEX
8
L6D0
10
724
20
7450.25
0
VERTEX
8
L6D0
10
722
20
7450.25
0
VERTEX
8
L6D0
10
722
20
8450.25
0
VERTEX
8
L6D0
10
716
20
8450.25
0
VERTEX
8
L6D0
10
716
20
7450.25
0
VERTEX
8
L6D0
10
714
20
7450.25
0
VERTEX
8
L6D0
10
714
20
8450.25
0
VERTEX
8
L6D0
10
708
20
8450.25
0
VERTEX
8
L6D0
10
708
20
7450.25
0
VERTEX
8
L6D0
10
706
20
7450.25
0
VERTEX
8
L6D0
10
706
20
8450.25
0
VERTEX
8
L6D0
10
700
20
8450.25
0
VERTEX
8
L6D0
10
700
20
7450.25
0
VERTEX
8
L6D0
10
698
20
7450.25
0
VERTEX
8
L6D0
10
698
20
8450.25
0
VERTEX
8
L6D0
10
692
20
8450.25
0
VERTEX
8
L6D0
10
692
20
7450.25
0
VERTEX
8
L6D0
10
690
20
7450.25
0
VERTEX
8
L6D0
10
690
20
8450.25
0
VERTEX
8
L6D0
10
684
20
8450.25
0
VERTEX
8
L6D0
10
684
20
7450.25
0
VERTEX
8
L6D0
10
682
20
7450.25
0
VERTEX
8
L6D0
10
682
20
8450.25
0
VERTEX
8
L6D0
10
676
20
8450.25
0
VERTEX
8
L6D0
10
676
20
7450.25
0
VERTEX
8
L6D0
10
674
20
7450.25
0
VERTEX
8
L6D0
10
674
20
8450.25
0
VERTEX
8
L6D0
10
668
20
8450.25
0
VERTEX
8
L6D0
10
668
20
7450.25
0
VERTEX
8
L6D0
10
666
20
7450.25
0
VERTEX
8
L6D0
10
666
20
8450.25
0
VERTEX
8
L6D0
10
660
20
8450.25
0
VERTEX
8
L6D0
10
660
20
7450.25
0
VERTEX
8
L6D0
10
658
20
7450.25
0
VERTEX
8
L6D0
10
658
20
8450.25
0
VERTEX
8
L6D0
10
652
20
8450.25
0
VERTEX
8
L6D0
10
652
20
7450.25
0
VERTEX
8
L6D0
10
650
20
7450.25
0
VERTEX
8
L6D0
10
650
20
8450.25
0
VERTEX
8
L6D0
10
644
20
8450.25
0
VERTEX
8
L6D0
10
644
20
7450.25
0
VERTEX
8
L6D0
10
642
20
7450.25
0
VERTEX
8
L6D0
10
642
20
8450.25
0
VERTEX
8
L6D0
10
636
20
8450.25
0
VERTEX
8
L6D0
10
636
20
7450.25
0
VERTEX
8
L6D0
10
634
20
7450.25
0
VERTEX
8
L6D0
10
634
20
8450.25
0
VERTEX
8
L6D0
10
628
20
8450.25
0
VERTEX
8
L6D0
10
628
20
7450.25
0
VERTEX
8
L6D0
10
626
20
7450.25
0
VERTEX
8
L6D0
10
626
20
8450.25
0
VERTEX
8
L6D0
10
620
20
8450.25
0
VERTEX
8
L6D0
10
620
20
7450.25
0
VERTEX
8
L6D0
10
618
20
7450.25
0
VERTEX
8
L6D0
10
618
20
8450.25
0
VERTEX
8
L6D0
10
612
20
8450.25
0
VERTEX
8
L6D0
10
612
20
7450.25
0
VERTEX
8
L6D0
10
610
20
7450.25
0
VERTEX
8
L6D0
10
610
20
8450.25
0
VERTEX
8
L6D0
10
604
20
8450.25
0
VERTEX
8
L6D0
10
604
20
7450.25
0
VERTEX
8
L6D0
10
602
20
7450.25
0
VERTEX
8
L6D0
10
602
20
8450.25
0
VERTEX
8
L6D0
10
596
20
8450.25
0
VERTEX
8
L6D0
10
596
20
7450.25
0
VERTEX
8
L6D0
10
594
20
7450.25
0
VERTEX
8
L6D0
10
594
20
8450.25
0
VERTEX
8
L6D0
10
588
20
8450.25
0
VERTEX
8
L6D0
10
588
20
7450.25
0
VERTEX
8
L6D0
10
586
20
7450.25
0
VERTEX
8
L6D0
10
586
20
8450.25
0
VERTEX
8
L6D0
10
580
20
8450.25
0
VERTEX
8
L6D0
10
580
20
7450.25
0
VERTEX
8
L6D0
10
578
20
7450.25
0
VERTEX
8
L6D0
10
578
20
8450.25
0
VERTEX
8
L6D0
10
572
20
8450.25
0
VERTEX
8
L6D0
10
572
20
7450.25
0
VERTEX
8
L6D0
10
570
20
7450.25
0
VERTEX
8
L6D0
10
570
20
8450.25
0
VERTEX
8
L6D0
10
564
20
8450.25
0
VERTEX
8
L6D0
10
564
20
7450.25
0
VERTEX
8
L6D0
10
562
20
7450.25
0
VERTEX
8
L6D0
10
562
20
8450.25
0
VERTEX
8
L6D0
10
556
20
8450.25
0
VERTEX
8
L6D0
10
556
20
7450.25
0
VERTEX
8
L6D0
10
554
20
7450.25
0
VERTEX
8
L6D0
10
554
20
8450.25
0
VERTEX
8
L6D0
10
548
20
8450.25
0
VERTEX
8
L6D0
10
548
20
7450.25
0
VERTEX
8
L6D0
10
546
20
7450.25
0
VERTEX
8
L6D0
10
546
20
8450.25
0
VERTEX
8
L6D0
10
540
20
8450.25
0
VERTEX
8
L6D0
10
540
20
7450.25
0
VERTEX
8
L6D0
10
538
20
7450.25
0
VERTEX
8
L6D0
10
538
20
8450.25
0
VERTEX
8
L6D0
10
532
20
8450.25
0
VERTEX
8
L6D0
10
532
20
7450.25
0
VERTEX
8
L6D0
10
530
20
7450.25
0
VERTEX
8
L6D0
10
530
20
8450.25
0
VERTEX
8
L6D0
10
524
20
8450.25
0
VERTEX
8
L6D0
10
524
20
7450.25
0
VERTEX
8
L6D0
10
522
20
7450.25
0
VERTEX
8
L6D0
10
522
20
8450.25
0
VERTEX
8
L6D0
10
516
20
8450.25
0
VERTEX
8
L6D0
10
516
20
7450.25
0
VERTEX
8
L6D0
10
514
20
7450.25
0
VERTEX
8
L6D0
10
514
20
8450.25
0
VERTEX
8
L6D0
10
508
20
8450.25
0
VERTEX
8
L6D0
10
508
20
7450.25
0
VERTEX
8
L6D0
10
506
20
7450.25
0
VERTEX
8
L6D0
10
506
20
8450.25
0
VERTEX
8
L6D0
10
500
20
8450.25
0
VERTEX
8
L6D0
10
500
20
7450.25
0
VERTEX
8
L6D0
10
498
20
7450.25
0
VERTEX
8
L6D0
10
498
20
8450.25
0
VERTEX
8
L6D0
10
492
20
8450.25
0
VERTEX
8
L6D0
10
492
20
7450.25
0
VERTEX
8
L6D0
10
490
20
7450.25
0
VERTEX
8
L6D0
10
490
20
8450.25
0
VERTEX
8
L6D0
10
484
20
8450.25
0
VERTEX
8
L6D0
10
484
20
7450.25
0
VERTEX
8
L6D0
10
482
20
7450.25
0
VERTEX
8
L6D0
10
482
20
8450.25
0
VERTEX
8
L6D0
10
476
20
8450.25
0
VERTEX
8
L6D0
10
476
20
7450.25
0
VERTEX
8
L6D0
10
474
20
7450.25
0
VERTEX
8
L6D0
10
474
20
8450.25
0
VERTEX
8
L6D0
10
468
20
8450.25
0
VERTEX
8
L6D0
10
468
20
7450.25
0
VERTEX
8
L6D0
10
466
20
7450.25
0
VERTEX
8
L6D0
10
466
20
8450.25
0
VERTEX
8
L6D0
10
460
20
8450.25
0
VERTEX
8
L6D0
10
460
20
7450.25
0
SEQEND
0
POLYLINE
8
L6D0
70
1
40
0
41
0
66
1
0
VERTEX
8
L6D0
10
-1170
20
7423.75
0
VERTEX
8
L6D0
10
-1170
20
8448.75
0
VERTEX
8
L6D0
10
-1168
20
8448.75
0
VERTEX
8
L6D0
10
-1168
20
7448.75
0
VERTEX
8
L6D0
10
-1162
20
7448.75
0
VERTEX
8
L6D0
10
-1162
20
8448.75
0
VERTEX
8
L6D0
10
-1160
20
8448.75
0
VERTEX
8
L6D0
10
-1160
20
7448.75
0
VERTEX
8
L6D0
10
-1154
20
7448.75
0
VERTEX
8
L6D0
10
-1154
20
8448.75
0
VERTEX
8
L6D0
10
-1152
20
8448.75
0
VERTEX
8
L6D0
10
-1152
20
7448.75
0
VERTEX
8
L6D0
10
-1146
20
7448.75
0
VERTEX
8
L6D0
10
-1146
20
8448.75
0
VERTEX
8
L6D0
10
-1144
20
8448.75
0
VERTEX
8
L6D0
10
-1144
20
7448.75
0
VERTEX
8
L6D0
10
-1138
20
7448.75
0
VERTEX
8
L6D0
10
-1138
20
8448.75
0
VERTEX
8
L6D0
10
-1136
20
8448.75
0
VERTEX
8
L6D0
10
-1136
20
7448.75
0
VERTEX
8
L6D0
10
-1130
20
7448.75
0
VERTEX
8
L6D0
10
-1130
20
8448.75
0
VERTEX
8
L6D0
10
-1128
20
8448.75
0
VERTEX
8
L6D0
10
-1128
20
7448.75
0
VERTEX
8
L6D0
10
-1122
20
7448.75
0
VERTEX
8
L6D0
10
-1122
20
8448.75
0
VERTEX
8
L6D0
10
-1120
20
8448.75
0
VERTEX
8
L6D0
10
-1120
20
7448.75
0
VERTEX
8
L6D0
10
-1114
20
7448.75
0
VERTEX
8
L6D0
10
-1114
20
8448.75
0
VERTEX
8
L6D0
10
-1112
20
8448.75
0
VERTEX
8
L6D0
10
-1112
20
7448.75
0
VERTEX
8
L6D0
10
-1106
20
7448.75
0
VERTEX
8
L6D0
10
-1106
20
8448.75
0
VERTEX
8
L6D0
10
-1104
20
8448.75
0
VERTEX
8
L6D0
10
-1104
20
7448.75
0
VERTEX
8
L6D0
10
-1098
20
7448.75
0
VERTEX
8
L6D0
10
-1098
20
8448.75
0
VERTEX
8
L6D0
10
-1096
20
8448.75
0
VERTEX
8
L6D0
10
-1096
20
7448.75
0
VERTEX
8
L6D0
10
-1090
20
7448.75
0
VERTEX
8
L6D0
10
-1090
20
8448.75
0
VERTEX
8
L6D0
10
-1088
20
8448.75
0
VERTEX
8
L6D0
10
-1088
20
7448.75
0
VERTEX
8
L6D0
10
-1082
20
7448.75
0
VERTEX
8
L6D0
10
-1082
20
8448.75
0
VERTEX
8
L6D0
10
-1080
20
8448.75
0
VERTEX
8
L6D0
10
-1080
20
7448.75
0
VERTEX
8
L6D0
10
-1074
20
7448.75
0
VERTEX
8
L6D0
10
-1074
20
8448.75
0
VERTEX
8
L6D0
10
-1072
20
8448.75
0
VERTEX
8
L6D0
10
-1072
20
7448.75
0
VERTEX
8
L6D0
10
-1066
20
7448.75
0
VERTEX
8
L6D0
10
-1066
20
8448.75
0
VERTEX
8
L6D0
10
-1064
20
8448.75
0
VERTEX
8
L6D0
10
-1064
20
7448.75
0
VERTEX
8
L6D0
10
-1058
20
7448.75
0
VERTEX
8
L6D0
10
-1058
20
8448.75
0
VERTEX
8
L6D0
10
-1056
20
8448.75
0
VERTEX
8
L6D0
10
-1056
20
7448.75
0
VERTEX
8
L6D0
10
-1050
20
7448.75
0
VERTEX
8
L6D0
10
-1050
20
8448.75
0
VERTEX
8
L6D0
10
-1048
20
8448.75
0
VERTEX
8
L6D0
10
-1048
20
7448.75
0
VERTEX
8
L6D0
10
-1042
20
7448.75
0
VERTEX
8
L6D0
10
-1042
20
8448.75
0
VERTEX
8
L6D0
10
-1040
20
8448.75
0
VERTEX
8
L6D0
10
-1040
20
7448.75
0
VERTEX
8
L6D0
10
-1034
20
7448.75
0
VERTEX
8
L6D0
10
-1034
20
8448.75
0
VERTEX
8
L6D0
10
-1032
20
8448.75
0
VERTEX
8
L6D0
10
-1032
20
7448.75
0
VERTEX
8
L6D0
10
-1026
20
7448.75
0
VERTEX
8
L6D0
10
-1026
20
8448.75
0
VERTEX
8
L6D0
10
-1024
20
8448.75
0
VERTEX
8
L6D0
10
-1024
20
7448.75
0
VERTEX
8
L6D0
10
-1018
20
7448.75
0
VERTEX
8
L6D0
10
-1018
20
8448.75
0
VERTEX
8
L6D0
10
-1016
20
8448.75
0
VERTEX
8
L6D0
10
-1016
20
7448.75
0
VERTEX
8
L6D0
10
-1010
20
7448.75
0
VERTEX
8
L6D0
10
-1010
20
8448.75
0
VERTEX
8
L6D0
10
-1008
20
8448.75
0
VERTEX
8
L6D0
10
-1008
20
7448.75
0
VERTEX
8
L6D0
10
-1002
20
7448.75
0
VERTEX
8
L6D0
10
-1002
20
8448.75
0
VERTEX
8
L6D0
10
-1000
20
8448.75
0
VERTEX
8
L6D0
10
-1000
20
7448.75
0
VERTEX
8
L6D0
10
-994
20
7448.75
0
VERTEX
8
L6D0
10
-994
20
8448.75
0
VERTEX
8
L6D0
10
-992
20
8448.75
0
VERTEX
8
L6D0
10
-992
20
7448.75
0
VERTEX
8
L6D0
10
-986
20
7448.75
0
VERTEX
8
L6D0
10
-986
20
8448.75
0
VERTEX
8
L6D0
10
-984
20
8448.75
0
VERTEX
8
L6D0
10
-984
20
7448.75
0
VERTEX
8
L6D0
10
-978
20
7448.75
0
VERTEX
8
L6D0
10
-978
20
8448.75
0
VERTEX
8
L6D0
10
-976
20
8448.75
0
VERTEX
8
L6D0
10
-976
20
7448.75
0
VERTEX
8
L6D0
10
-970
20
7448.75
0
VERTEX
8
L6D0
10
-970
20
8448.75
0
VERTEX
8
L6D0
10
-968
20
8448.75
0
VERTEX
8
L6D0
10
-968
20
7448.75
0
VERTEX
8
L6D0
10
-962
20
7448.75
0
VERTEX
8
L6D0
10
-962
20
8448.75
0
VERTEX
8
L6D0
10
-960
20
8448.75
0
VERTEX
8
L6D0
10
-960
20
7448.75
0
VERTEX
8
L6D0
10
-954
20
7448.75
0
VERTEX
8
L6D0
10
-954
20
8448.75
0
VERTEX
8
L6D0
10
-952
20
8448.75
0
VERTEX
8
L6D0
10
-952
20
7448.75
0
VERTEX
8
L6D0
10
-946
20
7448.75
0
VERTEX
8
L6D0
10
-946
20
8448.75
0
VERTEX
8
L6D0
10
-944
20
8448.75
0
VERTEX
8
L6D0
10
-944
20
7448.75
0
VERTEX
8
L6D0
10
-938
20
7448.75
0
VERTEX
8
L6D0
10
-938
20
8448.75
0
VERTEX
8
L6D0
10
-936
20
8448.75
0
VERTEX
8
L6D0
10
-936
20
7448.75
0
VERTEX
8
L6D0
10
-930
20
7448.75
0
VERTEX
8
L6D0
10
-930
20
8448.75
0
VERTEX
8
L6D0
10
-928
20
8448.75
0
VERTEX
8
L6D0
10
-928
20
7448.75
0
VERTEX
8
L6D0
10
-922
20
7448.75
0
VERTEX
8
L6D0
10
-922
20
7423.75
0
SEQEND
0
POLYLINE
8
L6D0
70
1
40
0
41
0
66
1
0
VERTEX
8
L6D0
10
-922
20
7423.75
0
VERTEX
8
L6D0
10
-922
20
8448.75
0
VERTEX
8
L6D0
10
-920
20
8448.75
0
VERTEX
8
L6D0
10
-920
20
7448.75
0
VERTEX
8
L6D0
10
-914
20
7448.75
0
VERTEX
8
L6D0
10
-914
20
8448.75
0
VERTEX
8
L6D0
10
-912
20
8448.75
0
VERTEX
8
L6D0
10
-912
20
7448.75
0
VERTEX
8
L6D0
10
-906
20
7448.75
0
VERTEX
8
L6D0
10
-906
20
8448.75
0
VERTEX
8
L6D0
10
-904
20
8448.75
0
VERTEX
8
L6D0
10
-904
20
7448.75
0
VERTEX
8
L6D0
10
-898
20
7448.75
0
VERTEX
8
L6D0
10
-898
20
8448.75
0
VERTEX
8
L6D0
10
-896
20
8448.75
0
VERTEX
8
L6D0
10
-896
20
7448.75
0
VERTEX
8
L6D0
10
-890
20
7448.75
0
VERTEX
8
L6D0
10
-890
20
8448.75
0
VERTEX
8
L6D0
10
-888
20
8448.75
0
VERTEX
8
L6D0
10
-888
20
7448.75
0
VERTEX
8
L6D0
10
-882
20
7448.75
0
VERTEX
8
L6D0
10
-882
20
8448.75
0
VERTEX
8
L6D0
10
-880
20
8448.75
0
VERTEX
8
L6D0
10
-880
20
7448.75
0
VERTEX
8
L6D0
10
-874
20
7448.75
0
VERTEX
8
L6D0
10
-874
20
8448.75
0
VERTEX
8
L6D0
10
-872
20
8448.75
0
VERTEX
8
L6D0
10
-872
20
7448.75
0
VERTEX
8
L6D0
10
-866
20
7448.75
0
VERTEX
8
L6D0
10
-866
20
8448.75
0
VERTEX
8
L6D0
10
-864
20
8448.75
0
VERTEX
8
L6D0
10
-864
20
7448.75
0
VERTEX
8
L6D0
10
-858
20
7448.75
0
VERTEX
8
L6D0
10
-858
20
8448.75
0
VERTEX
8
L6D0
10
-856
20
8448.75
0
VERTEX
8
L6D0
10
-856
20
7448.75
0
VERTEX
8
L6D0
10
-850
20
7448.75
0
VERTEX
8
L6D0
10
-850
20
8448.75
0
VERTEX
8
L6D0
10
-848
20
8448.75
0
VERTEX
8
L6D0
10
-848
20
7448.75
0
VERTEX
8
L6D0
10
-842
20
7448.75
0
VERTEX
8
L6D0
10
-842
20
8448.75
0
VERTEX
8
L6D0
10
-840
20
8448.75
0
VERTEX
8
L6D0
10
-840
20
7448.75
0
VERTEX
8
L6D0
10
-834
20
7448.75
0
VERTEX
8
L6D0
10
-834
20
8448.75
0
VERTEX
8
L6D0
10
-832
20
8448.75
0
VERTEX
8
L6D0
10
-832
20
7448.75
0
VERTEX
8
L6D0
10
-826
20
7448.75
0
VERTEX
8
L6D0
10
-826
20
8448.75
0
VERTEX
8
L6D0
10
-824
20
8448.75
0
VERTEX
8
L6D0
10
-824
20
7448.75
0
VERTEX
8
L6D0
10
-818
20
7448.75
0
VERTEX
8
L6D0
10
-818
20
8448.75
0
VERTEX
8
L6D0
10
-816
20
8448.75
0
VERTEX
8
L6D0
10
-816
20
7448.75
0
VERTEX
8
L6D0
10
-810
20
7448.75
0
VERTEX
8
L6D0
10
-810
20
8448.75
0
VERTEX
8
L6D0
10
-808
20
8448.75
0
VERTEX
8
L6D0
10
-808
20
7448.75
0
VERTEX
8
L6D0
10
-802
20
7448.75
0
VERTEX
8
L6D0
10
-802
20
8448.75
0
VERTEX
8
L6D0
10
-800
20
8448.75
0
VERTEX
8
L6D0
10
-800
20
7448.75
0
VERTEX
8
L6D0
10
-794
20
7448.75
0
VERTEX
8
L6D0
10
-794
20
8448.75
0
VERTEX
8
L6D0
10
-792
20
8448.75
0
VERTEX
8
L6D0
10
-792
20
7448.75
0
VERTEX
8
L6D0
10
-786
20
7448.75
0
VERTEX
8
L6D0
10
-786
20
8448.75
0
VERTEX
8
L6D0
10
-784
20
8448.75
0
VERTEX
8
L6D0
10
-784
20
7448.75
0
VERTEX
8
L6D0
10
-778
20
7448.75
0
VERTEX
8
L6D0
10
-778
20
8448.75
0
VERTEX
8
L6D0
10
-776
20
8448.75
0
VERTEX
8
L6D0
10
-776
20
7448.75
0
VERTEX
8
L6D0
10
-770
20
7448.75
0
VERTEX
8
L6D0
10
-770
20
8448.75
0
VERTEX
8
L6D0
10
-768
20
8448.75
0
VERTEX
8
L6D0
10
-768
20
7448.75
0
VERTEX
8
L6D0
10
-762
20
7448.75
0
VERTEX
8
L6D0
10
-762
20
8448.75
0
VERTEX
8
L6D0
10
-760
20
8448.75
0
VERTEX
8
L6D0
10
-760
20
7448.75
0
VERTEX
8
L6D0
10
-754
20
7448.75
0
VERTEX
8
L6D0
10
-754
20
8448.75
0
VERTEX
8
L6D0
10
-752
20
8448.75
0
VERTEX
8
L6D0
10
-752
20
7448.75
0
VERTEX
8
L6D0
10
-746
20
7448.75
0
VERTEX
8
L6D0
10
-746
20
8448.75
0
VERTEX
8
L6D0
10
-744
20
8448.75
0
VERTEX
8
L6D0
10
-744
20
7448.75
0
VERTEX
8
L6D0
10
-738
20
7448.75
0
VERTEX
8
L6D0
10
-738
20
8448.75
0
VERTEX
8
L6D0
10
-736
20
8448.75
0
VERTEX
8
L6D0
10
-736
20
7448.75
0
VERTEX
8
L6D0
10
-730
20
7448.75
0
VERTEX
8
L6D0
10
-730
20
8448.75
0
VERTEX
8
L6D0
10
-728
20
8448.75
0
VERTEX
8
L6D0
10
-728
20
7448.75
0
VERTEX
8
L6D0
10
-722
20
7448.75
0
VERTEX
8
L6D0
10
-722
20
8448.75
0
VERTEX
8
L6D0
10
-720
20
8448.75
0
VERTEX
8
L6D0
10
-720
20
7448.75
0
VERTEX
8
L6D0
10
-714
20
7448.75
0
VERTEX
8
L6D0
10
-714
20
8448.75
0
VERTEX
8
L6D0
10
-712
20
8448.75
0
VERTEX
8
L6D0
10
-712
20
7448.75
0
VERTEX
8
L6D0
10
-706
20
7448.75
0
VERTEX
8
L6D0
10
-706
20
8448.75
0
VERTEX
8
L6D0
10
-704
20
8448.75
0
VERTEX
8
L6D0
10
-704
20
7448.75
0
VERTEX
8
L6D0
10
-698
20
7448.75
0
VERTEX
8
L6D0
10
-698
20
8448.75
0
VERTEX
8
L6D0
10
-696
20
8448.75
0
VERTEX
8
L6D0
10
-696
20
7448.75
0
VERTEX
8
L6D0
10
-690
20
7448.75
0
VERTEX
8
L6D0
10
-690
20
8448.75
0
VERTEX
8
L6D0
10
-688
20
8448.75
0
VERTEX
8
L6D0
10
-688
20
7448.75
0
VERTEX
8
L6D0
10
-682
20
7448.75
0
VERTEX
8
L6D0
10
-682
20
8448.75
0
VERTEX
8
L6D0
10
-680
20
8448.75
0
VERTEX
8
L6D0
10
-680
20
7448.75
0
VERTEX
8
L6D0
10
-674
20
7448.75
0
VERTEX
8
L6D0
10
-674
20
8448.75
0
VERTEX
8
L6D0
10
-672
20
8448.75
0
VERTEX
8
L6D0
10
-672
20
7423.75
0
SEQEND
0
POLYLINE
8
L6D0
70
1
40
0
41
0
66
1
0
VERTEX
8
L6D0
10
-672
20
7423.75
0
VERTEX
8
L6D0
10
-672
20
7448.75
0
VERTEX
8
L6D0
10
-666
20
7448.75
0
VERTEX
8
L6D0
10
-666
20
8448.75
0
VERTEX
8
L6D0
10
-664
20
8448.75
0
VERTEX
8
L6D0
10
-664
20
7448.75
0
VERTEX
8
L6D0
10
-658
20
7448.75
0
VERTEX
8
L6D0
10
-658
20
8448.75
0
VERTEX
8
L6D0
10
-656
20
8448.75
0
VERTEX
8
L6D0
10
-656
20
7448.75
0
VERTEX
8
L6D0
10
-650
20
7448.75
0
VERTEX
8
L6D0
10
-650
20
8448.75
0
VERTEX
8
L6D0
10
-648
20
8448.75
0
VERTEX
8
L6D0
10
-648
20
7448.75
0
VERTEX
8
L6D0
10
-642
20
7448.75
0
VERTEX
8
L6D0
10
-642
20
8448.75
0
VERTEX
8
L6D0
10
-640
20
8448.75
0
VERTEX
8
L6D0
10
-640
20
7448.75
0
VERTEX
8
L6D0
10
-634
20
7448.75
0
VERTEX
8
L6D0
10
-634
20
8448.75
0
VERTEX
8
L6D0
10
-632
20
8448.75
0
VERTEX
8
L6D0
10
-632
20
7448.75
0
VERTEX
8
L6D0
10
-626
20
7448.75
0
VERTEX
8
L6D0
10
-626
20
8448.75
0
VERTEX
8
L6D0
10
-624
20
8448.75
0
VERTEX
8
L6D0
10
-624
20
7448.75
0
VERTEX
8
L6D0
10
-618
20
7448.75
0
VERTEX
8
L6D0
10
-618
20
8448.75
0
VERTEX
8
L6D0
10
-616
20
8448.75
0
VERTEX
8
L6D0
10
-616
20
7448.75
0
VERTEX
8
L6D0
10
-610
20
7448.75
0
VERTEX
8
L6D0
10
-610
20
8448.75
0
VERTEX
8
L6D0
10
-608
20
8448.75
0
VERTEX
8
L6D0
10
-608
20
7448.75
0
VERTEX
8
L6D0
10
-602
20
7448.75
0
VERTEX
8
L6D0
10
-602
20
8448.75
0
VERTEX
8
L6D0
10
-600
20
8448.75
0
VERTEX
8
L6D0
10
-600
20
7448.75
0
VERTEX
8
L6D0
10
-594
20
7448.75
0
VERTEX
8
L6D0
10
-594
20
8448.75
0
VERTEX
8
L6D0
10
-592
20
8448.75
0
VERTEX
8
L6D0
10
-592
20
7448.75
0
VERTEX
8
L6D0
10
-586
20
7448.75
0
VERTEX
8
L6D0
10
-586
20
8448.75
0
VERTEX
8
L6D0
10
-584
20
8448.75
0
VERTEX
8
L6D0
10
-584
20
7448.75
0
VERTEX
8
L6D0
10
-578
20
7448.75
0
VERTEX
8
L6D0
10
-578
20
8448.75
0
VERTEX
8
L6D0
10
-576
20
8448.75
0
VERTEX
8
L6D0
10
-576
20
7448.75
0
VERTEX
8
L6D0
10
-570
20
7448.75
0
VERTEX
8
L6D0
10
-570
20
8448.75
0
VERTEX
8
L6D0
10
-568
20
8448.75
0
VERTEX
8
L6D0
10
-568
20
7448.75
0
VERTEX
8
L6D0
10
-562
20
7448.75
0
VERTEX
8
L6D0
10
-562
20
8448.75
0
VERTEX
8
L6D0
10
-560
20
8448.75
0
VERTEX
8
L6D0
10
-560
20
7448.75
0
VERTEX
8
L6D0
10
-554
20
7448.75
0
VERTEX
8
L6D0
10
-554
20
8448.75
0
VERTEX
8
L6D0
10
-552
20
8448.75
0
VERTEX
8
L6D0
10
-552
20
7448.75
0
VERTEX
8
L6D0
10
-546
20
7448.75
0
VERTEX
8
L6D0
10
-546
20
8448.75
0
VERTEX
8
L6D0
10
-544
20
8448.75
0
VERTEX
8
L6D0
10
-544
20
7448.75
0
VERTEX
8
L6D0
10
-538
20
7448.75
0
VERTEX
8
L6D0
10
-538
20
8448.75
0
VERTEX
8
L6D0
10
-536
20
8448.75
0
VERTEX
8
L6D0
10
-536
20
7448.75
0
VERTEX
8
L6D0
10
-530
20
7448.75
0
VERTEX
8
L6D0
10
-530
20
8448.75
0
VERTEX
8
L6D0
10
-528
20
8448.75
0
VERTEX
8
L6D0
10
-528
20
7448.75
0
VERTEX
8
L6D0
10
-522
20
7448.75
0
VERTEX
8
L6D0
10
-522
20
8448.75
0
VERTEX
8
L6D0
10
-520
20
8448.75
0
VERTEX
8
L6D0
10
-520
20
7448.75
0
VERTEX
8
L6D0
10
-514
20
7448.75
0
VERTEX
8
L6D0
10
-514
20
8448.75
0
VERTEX
8
L6D0
10
-512
20
8448.75
0
VERTEX
8
L6D0
10
-512
20
7448.75
0
VERTEX
8
L6D0
10
-506
20
7448.75
0
VERTEX
8
L6D0
10
-506
20
8448.75
0
VERTEX
8
L6D0
10
-504
20
8448.75
0
VERTEX
8
L6D0
10
-504
20
7448.75
0
VERTEX
8
L6D0
10
-498
20
7448.75
0
VERTEX
8
L6D0
10
-498
20
8448.75
0
VERTEX
8
L6D0
10
-496
20
8448.75
0
VERTEX
8
L6D0
10
-496
20
7448.75
0
VERTEX
8
L6D0
10
-490
20
7448.75
0
VERTEX
8
L6D0
10
-490
20
8448.75
0
VERTEX
8
L6D0
10
-488
20
8448.75
0
VERTEX
8
L6D0
10
-488
20
7448.75
0
VERTEX
8
L6D0
10
-482
20
7448.75
0
VERTEX
8
L6D0
10
-482
20
8448.75
0
VERTEX
8
L6D0
10
-480
20
8448.75
0
VERTEX
8
L6D0
10
-480
20
7448.75
0
VERTEX
8
L6D0
10
-474
20
7448.75
0
VERTEX
8
L6D0
10
-474
20
8448.75
0
VERTEX
8
L6D0
10
-472
20
8448.75
0
VERTEX
8
L6D0
10
-472
20
7448.75
0
VERTEX
8
L6D0
10
-466
20
7448.75
0
VERTEX
8
L6D0
10
-466
20
8448.75
0
VERTEX
8
L6D0
10
-464
20
8448.75
0
VERTEX
8
L6D0
10
-464
20
7448.75
0
VERTEX
8
L6D0
10
-458
20
7448.75
0
VERTEX
8
L6D0
10
-458
20
8448.75
0
VERTEX
8
L6D0
10
-456
20
8448.75
0
VERTEX
8
L6D0
10
-456
20
7448.75
0
VERTEX
8
L6D0
10
-450
20
7448.75
0
VERTEX
8
L6D0
10
-450
20
8448.75
0
VERTEX
8
L6D0
10
-448
20
8448.75
0
VERTEX
8
L6D0
10
-448
20
7448.75
0
VERTEX
8
L6D0
10
-442
20
7448.75
0
VERTEX
8
L6D0
10
-442
20
8448.75
0
VERTEX
8
L6D0
10
-440
20
8448.75
0
VERTEX
8
L6D0
10
-440
20
7448.75
0
VERTEX
8
L6D0
10
-434
20
7448.75
0
VERTEX
8
L6D0
10
-434
20
8448.75
0
VERTEX
8
L6D0
10
-432
20
8448.75
0
VERTEX
8
L6D0
10
-432
20
7448.75
0
VERTEX
8
L6D0
10
-426
20
7448.75
0
VERTEX
8
L6D0
10
-426
20
8448.75
0
VERTEX
8
L6D0
10
-424
20
8448.75
0
VERTEX
8
L6D0
10
-424
20
7448.75
0
VERTEX
8
L6D0
10
-418
20
7448.75
0
VERTEX
8
L6D0
10
-418
20
7423.75
0
SEQEND
0
POLYLINE
8
L6D0
70
1
40
0
41
0
66
1
0
VERTEX
8
L6D0
10
-418
20
7423.75
0
VERTEX
8
L6D0
10
-418
20
8448.75
0
VERTEX
8
L6D0
10
-416
20
8448.75
0
VERTEX
8
L6D0
10
-416
20
7448.75
0
VERTEX
8
L6D0
10
-410
20
7448.75
0
VERTEX
8
L6D0
10
-410
20
8448.75
0
VERTEX
8
L6D0
10
-408
20
8448.75
0
VERTEX
8
L6D0
10
-408
20
7448.75
0
VERTEX
8
L6D0
10
-402
20
7448.75
0
VERTEX
8
L6D0
10
-402
20
8448.75
0
VERTEX
8
L6D0
10
-400
20
8448.75
0
VERTEX
8
L6D0
10
-400
20
7448.75
0
VERTEX
8
L6D0
10
-394
20
7448.75
0
VERTEX
8
L6D0
10
-394
20
8448.75
0
VERTEX
8
L6D0
10
-392
20
8448.75
0
VERTEX
8
L6D0
10
-392
20
7448.75
0
VERTEX
8
L6D0
10
-386
20
7448.75
0
VERTEX
8
L6D0
10
-386
20
8448.75
0
VERTEX
8
L6D0
10
-384
20
8448.75
0
VERTEX
8
L6D0
10
-384
20
7448.75
0
VERTEX
8
L6D0
10
-378
20
7448.75
0
VERTEX
8
L6D0
10
-378
20
8448.75
0
VERTEX
8
L6D0
10
-376
20
8448.75
0
VERTEX
8
L6D0
10
-376
20
7448.75
0
VERTEX
8
L6D0
10
-370
20
7448.75
0
VERTEX
8
L6D0
10
-370
20
8448.75
0
VERTEX
8
L6D0
10
-368
20
8448.75
0
VERTEX
8
L6D0
10
-368
20
7448.75
0
VERTEX
8
L6D0
10
-362
20
7448.75
0
VERTEX
8
L6D0
10
-362
20
8448.75
0
VERTEX
8
L6D0
10
-360
20
8448.75
0
VERTEX
8
L6D0
10
-360
20
7448.75
0
VERTEX
8
L6D0
10
-354
20
7448.75
0
VERTEX
8
L6D0
10
-354
20
8448.75
0
VERTEX
8
L6D0
10
-352
20
8448.75
0
VERTEX
8
L6D0
10
-352
20
7448.75
0
VERTEX
8
L6D0
10
-346
20
7448.75
0
VERTEX
8
L6D0
10
-346
20
8448.75
0
VERTEX
8
L6D0
10
-344
20
8448.75
0
VERTEX
8
L6D0
10
-344
20
7448.75
0
VERTEX
8
L6D0
10
-338
20
7448.75
0
VERTEX
8
L6D0
10
-338
20
8448.75
0
VERTEX
8
L6D0
10
-336
20
8448.75
0
VERTEX
8
L6D0
10
-336
20
7448.75
0
VERTEX
8
L6D0
10
-330
20
7448.75
0
VERTEX
8
L6D0
10
-330
20
8448.75
0
VERTEX
8
L6D0
10
-328
20
8448.75
0
VERTEX
8
L6D0
10
-328
20
7448.75
0
VERTEX
8
L6D0
10
-322
20
7448.75
0
VERTEX
8
L6D0
10
-322
20
8448.75
0
VERTEX
8
L6D0
10
-320
20
8448.75
0
VERTEX
8
L6D0
10
-320
20
7448.75
0
VERTEX
8
L6D0
10
-314
20
7448.75
0
VERTEX
8
L6D0
10
-314
20
8448.75
0
VERTEX
8
L6D0
10
-312
20
8448.75
0
VERTEX
8
L6D0
10
-312
20
7448.75
0
VERTEX
8
L6D0
10
-306
20
7448.75
0
VERTEX
8
L6D0
10
-306
20
8448.75
0
VERTEX
8
L6D0
10
-304
20
8448.75
0
VERTEX
8
L6D0
10
-304
20
7448.75
0
VERTEX
8
L6D0
10
-298
20
7448.75
0
VERTEX
8
L6D0
10
-298
20
8448.75
0
VERTEX
8
L6D0
10
-296
20
8448.75
0
VERTEX
8
L6D0
10
-296
20
7448.75
0
VERTEX
8
L6D0
10
-290
20
7448.75
0
VERTEX
8
L6D0
10
-290
20
8448.75
0
VERTEX
8
L6D0
10
-288
20
8448.75
0
VERTEX
8
L6D0
10
-288
20
7448.75
0
VERTEX
8
L6D0
10
-282
20
7448.75
0
VERTEX
8
L6D0
10
-282
20
8448.75
0
VERTEX
8
L6D0
10
-280
20
8448.75
0
VERTEX
8
L6D0
10
-280
20
7448.75
0
VERTEX
8
L6D0
10
-274
20
7448.75
0
VERTEX
8
L6D0
10
-274
20
8448.75
0
VERTEX
8
L6D0
10
-272
20
8448.75
0
VERTEX
8
L6D0
10
-272
20
7448.75
0
VERTEX
8
L6D0
10
-266
20
7448.75
0
VERTEX
8
L6D0
10
-266
20
8448.75
0
VERTEX
8
L6D0
10
-264
20
8448.75
0
VERTEX
8
L6D0
10
-264
20
7448.75
0
VERTEX
8
L6D0
10
-258
20
7448.75
0
VERTEX
8
L6D0
10
-258
20
8448.75
0
VERTEX
8
L6D0
10
-256
20
8448.75
0
VERTEX
8
L6D0
10
-256
20
7448.75
0
VERTEX
8
L6D0
10
-250
20
7448.75
0
VERTEX
8
L6D0
10
-250
20
8448.75
0
VERTEX
8
L6D0
10
-248
20
8448.75
0
VERTEX
8
L6D0
10
-248
20
7448.75
0
VERTEX
8
L6D0
10
-242
20
7448.75
0
VERTEX
8
L6D0
10
-242
20
8448.75
0
VERTEX
8
L6D0
10
-240
20
8448.75
0
VERTEX
8
L6D0
10
-240
20
7448.75
0
VERTEX
8
L6D0
10
-234
20
7448.75
0
VERTEX
8
L6D0
10
-234
20
8448.75
0
VERTEX
8
L6D0
10
-232
20
8448.75
0
VERTEX
8
L6D0
10
-232
20
7448.75
0
VERTEX
8
L6D0
10
-226
20
7448.75
0
VERTEX
8
L6D0
10
-226
20
8448.75
0
VERTEX
8
L6D0
10
-224
20
8448.75
0
VERTEX
8
L6D0
10
-224
20
7448.75
0
VERTEX
8
L6D0
10
-218
20
7448.75
0
VERTEX
8
L6D0
10
-218
20
8448.75
0
VERTEX
8
L6D0
10
-216
20
8448.75
0
VERTEX
8
L6D0
10
-216
20
7448.75
0
VERTEX
8
L6D0
10
-210
20
7448.75
0
VERTEX
8
L6D0
10
-210
20
8448.75
0
VERTEX
8
L6D0
10
-208
20
8448.75
0
VERTEX
8
L6D0
10
-208
20
7448.75
0
VERTEX
8
L6D0
10
-202
20
7448.75
0
VERTEX
8
L6D0
10
-202
20
8448.75
0
VERTEX
8
L6D0
10
-200
20
8448.75
0
VERTEX
8
L6D0
10
-200
20
7448.75
0
VERTEX
8
L6D0
10
-194
20
7448.75
0
VERTEX
8
L6D0
10
-194
20
8448.75
0
VERTEX
8
L6D0
10
-192
20
8448.75
0
VERTEX
8
L6D0
10
-192
20
7448.75
0
VERTEX
8
L6D0
10
-186
20
7448.75
0
VERTEX
8
L6D0
10
-186
20
8448.75
0
VERTEX
8
L6D0
10
-184
20
8448.75
0
VERTEX
8
L6D0
10
-184
20
7448.75
0
VERTEX
8
L6D0
10
-178
20
7448.75
0
VERTEX
8
L6D0
10
-178
20
8448.75
0
VERTEX
8
L6D0
10
-176
20
8448.75
0
VERTEX
8
L6D0
10
-176
20
7448.75
0
VERTEX
8
L6D0
10
-170
20
7448.75
0
VERTEX
8
L6D0
10
-170
20
8448.75
0
VERTEX
8
L6D0
10
-168
20
8448.75
0
VERTEX
8
L6D0
10
-168
20
7423.75
0
SEQEND
0
POLYLINE
8
L6D0
70
1
40
0
41
0
66
1
0
VERTEX
8
L6D0
10
-168
20
7423.75
0
VERTEX
8
L6D0
10
-168
20
7448.75
0
VERTEX
8
L6D0
10
-162
20
7448.75
0
VERTEX
8
L6D0
10
-162
20
8448.75
0
VERTEX
8
L6D0
10
-160
20
8448.75
0
VERTEX
8
L6D0
10
-160
20
7448.75
0
VERTEX
8
L6D0
10
-154
20
7448.75
0
VERTEX
8
L6D0
10
-154
20
8448.75
0
VERTEX
8
L6D0
10
-152
20
8448.75
0
VERTEX
8
L6D0
10
-152
20
7448.75
0
VERTEX
8
L6D0
10
-146
20
7448.75
0
VERTEX
8
L6D0
10
-146
20
8448.75
0
VERTEX
8
L6D0
10
-144
20
8448.75
0
VERTEX
8
L6D0
10
-144
20
7448.75
0
VERTEX
8
L6D0
10
-138
20
7448.75
0
VERTEX
8
L6D0
10
-138
20
8448.75
0
VERTEX
8
L6D0
10
-136
20
8448.75
0
VERTEX
8
L6D0
10
-136
20
7448.75
0
VERTEX
8
L6D0
10
-130
20
7448.75
0
VERTEX
8
L6D0
10
-130
20
8448.75
0
VERTEX
8
L6D0
10
-128
20
8448.75
0
VERTEX
8
L6D0
10
-128
20
7448.75
0
VERTEX
8
L6D0
10
-122
20
7448.75
0
VERTEX
8
L6D0
10
-122
20
8448.75
0
VERTEX
8
L6D0
10
-120
20
8448.75
0
VERTEX
8
L6D0
10
-120
20
7448.75
0
VERTEX
8
L6D0
10
-114
20
7448.75
0
VERTEX
8
L6D0
10
-114
20
8448.75
0
VERTEX
8
L6D0
10
-112
20
8448.75
0
VERTEX
8
L6D0
10
-112
20
7448.75
0
VERTEX
8
L6D0
10
-106
20
7448.75
0
VERTEX
8
L6D0
10
-106
20
8448.75
0
VERTEX
8
L6D0
10
-104
20
8448.75
0
VERTEX
8
L6D0
10
-104
20
7448.75
0
VERTEX
8
L6D0
10
-98
20
7448.75
0
VERTEX
8
L6D0
10
-98
20
8448.75
0
VERTEX
8
L6D0
10
-96
20
8448.75
0
VERTEX
8
L6D0
10
-96
20
7448.75
0
VERTEX
8
L6D0
10
-90
20
7448.75
0
VERTEX
8
L6D0
10
-90
20
8448.75
0
VERTEX
8
L6D0
10
-88
20
8448.75
0
VERTEX
8
L6D0
10
-88
20
7448.75
0
VERTEX
8
L6D0
10
-82
20
7448.75
0
VERTEX
8
L6D0
10
-82
20
8448.75
0
VERTEX
8
L6D0
10
-80
20
8448.75
0
VERTEX
8
L6D0
10
-80
20
7448.75
0
VERTEX
8
L6D0
10
-74
20
7448.75
0
VERTEX
8
L6D0
10
-74
20
8448.75
0
VERTEX
8
L6D0
10
-72
20
8448.75
0
VERTEX
8
L6D0
10
-72
20
7448.75
0
VERTEX
8
L6D0
10
-66
20
7448.75
0
VERTEX
8
L6D0
10
-66
20
8448.75
0
VERTEX
8
L6D0
10
-64
20
8448.75
0
VERTEX
8
L6D0
10
-64
20
7448.75
0
VERTEX
8
L6D0
10
-58
20
7448.75
0
VERTEX
8
L6D0
10
-58
20
8448.75
0
VERTEX
8
L6D0
10
-56
20
8448.75
0
VERTEX
8
L6D0
10
-56
20
7448.75
0
VERTEX
8
L6D0
10
-50
20
7448.75
0
VERTEX
8
L6D0
10
-50
20
8448.75
0
VERTEX
8
L6D0
10
-48
20
8448.75
0
VERTEX
8
L6D0
10
-48
20
7448.75
0
VERTEX
8
L6D0
10
-42
20
7448.75
0
VERTEX
8
L6D0
10
-42
20
8448.75
0
VERTEX
8
L6D0
10
-40
20
8448.75
0
VERTEX
8
L6D0
10
-40
20
7448.75
0
VERTEX
8
L6D0
10
-34
20
7448.75
0
VERTEX
8
L6D0
10
-34
20
8448.75
0
VERTEX
8
L6D0
10
-32
20
8448.75
0
VERTEX
8
L6D0
10
-32
20
7448.75
0
VERTEX
8
L6D0
10
-26
20
7448.75
0
VERTEX
8
L6D0
10
-26
20
8448.75
0
VERTEX
8
L6D0
10
-24
20
8448.75
0
VERTEX
8
L6D0
10
-24
20
7448.75
0
VERTEX
8
L6D0
10
-18
20
7448.75
0
VERTEX
8
L6D0
10
-18
20
8448.75
0
VERTEX
8
L6D0
10
-16
20
8448.75
0
VERTEX
8
L6D0
10
-16
20
7448.75
0
VERTEX
8
L6D0
10
-10
20
7448.75
0
VERTEX
8
L6D0
10
-10
20
8448.75
0
VERTEX
8
L6D0
10
-8
20
8448.75
0
VERTEX
8
L6D0
10
-8
20
7448.75
0
VERTEX
8
L6D0
10
-2
20
7448.75
0
VERTEX
8
L6D0
10
-2
20
8448.75
0
VERTEX
8
L6D0
10
0
20
8448.75
0
VERTEX
8
L6D0
10
0
20
7448.75
0
VERTEX
8
L6D0
10
6
20
7448.75
0
VERTEX
8
L6D0
10
6
20
8448.75
0
VERTEX
8
L6D0
10
8
20
8448.75
0
VERTEX
8
L6D0
10
8
20
7448.75
0
VERTEX
8
L6D0
10
14
20
7448.75
0
VERTEX
8
L6D0
10
14
20
8448.75
0
VERTEX
8
L6D0
10
16
20
8448.75
0
VERTEX
8
L6D0
10
16
20
7448.75
0
VERTEX
8
L6D0
10
22
20
7448.75
0
VERTEX
8
L6D0
10
22
20
8448.75
0
VERTEX
8
L6D0
10
24
20
8448.75
0
VERTEX
8
L6D0
10
24
20
7448.75
0
VERTEX
8
L6D0
10
30
20
7448.75
0
VERTEX
8
L6D0
10
30
20
8448.75
0
VERTEX
8
L6D0
10
32
20
8448.75
0
VERTEX
8
L6D0
10
32
20
7448.75
0
VERTEX
8
L6D0
10
38
20
7448.75
0
VERTEX
8
L6D0
10
38
20
8448.75
0
VERTEX
8
L6D0
10
40
20
8448.75
0
VERTEX
8
L6D0
10
40
20
7448.75
0
VERTEX
8
L6D0
10
46
20
7448.75
0
VERTEX
8
L6D0
10
46
20
8448.75
0
VERTEX
8
L6D0
10
48
20
8448.75
0
VERTEX
8
L6D0
10
48
20
7448.75
0
VERTEX
8
L6D0
10
54
20
7448.75
0
VERTEX
8
L6D0
10
54
20
8448.75
0
VERTEX
8
L6D0
10
56
20
8448.75
0
VERTEX
8
L6D0
10
56
20
7448.75
0
VERTEX
8
L6D0
10
62
20
7448.75
0
VERTEX
8
L6D0
10
62
20
8448.75
0
VERTEX
8
L6D0
10
64
20
8448.75
0
VERTEX
8
L6D0
10
64
20
7448.75
0
VERTEX
8
L6D0
10
70
20
7448.75
0
VERTEX
8
L6D0
10
70
20
8448.75
0
VERTEX
8
L6D0
10
72
20
8448.75
0
VERTEX
8
L6D0
10
72
20
7448.75
0
VERTEX
8
L6D0
10
78
20
7448.75
0
VERTEX
8
L6D0
10
78
20
8448.75
0
VERTEX
8
L6D0
10
80
20
8448.75
0
VERTEX
8
L6D0
10
80
20
7448.75
0
VERTEX
8
L6D0
10
86
20
7448.75
0
VERTEX
8
L6D0
10
86
20
7423.75
0
SEQEND
0
POLYLINE
8
L6D0
70
1
40
0
41
0
66
1
0
VERTEX
8
L6D0
10
86
20
7423.75
0
VERTEX
8
L6D0
10
86
20
8448.75
0
VERTEX
8
L6D0
10
88
20
8448.75
0
VERTEX
8
L6D0
10
88
20
7448.75
0
VERTEX
8
L6D0
10
94
20
7448.75
0
VERTEX
8
L6D0
10
94
20
8448.75
0
VERTEX
8
L6D0
10
96
20
8448.75
0
VERTEX
8
L6D0
10
96
20
7448.75
0
VERTEX
8
L6D0
10
102
20
7448.75
0
VERTEX
8
L6D0
10
102
20
8448.75
0
VERTEX
8
L6D0
10
104
20
8448.75
0
VERTEX
8
L6D0
10
104
20
7448.75
0
VERTEX
8
L6D0
10
110
20
7448.75
0
VERTEX
8
L6D0
10
110
20
8448.75
0
VERTEX
8
L6D0
10
112
20
8448.75
0
VERTEX
8
L6D0
10
112
20
7448.75
0
VERTEX
8
L6D0
10
118
20
7448.75
0
VERTEX
8
L6D0
10
118
20
8448.75
0
VERTEX
8
L6D0
10
120
20
8448.75
0
VERTEX
8
L6D0
10
120
20
7448.75
0
VERTEX
8
L6D0
10
126
20
7448.75
0
VERTEX
8
L6D0
10
126
20
8448.75
0
VERTEX
8
L6D0
10
128
20
8448.75
0
VERTEX
8
L6D0
10
128
20
7448.75
0
VERTEX
8
L6D0
10
134
20
7448.75
0
VERTEX
8
L6D0
10
134
20
8448.75
0
VERTEX
8
L6D0
10
136
20
8448.75
0
VERTEX
8
L6D0
10
136
20
7448.75
0
VERTEX
8
L6D0
10
142
20
7448.75
0
VERTEX
8
L6D0
10
142
20
8448.75
0
VERTEX
8
L6D0
10
144
20
8448.75
0
VERTEX
8
L6D0
10
144
20
7448.75
0
VERTEX
8
L6D0
10
150
20
7448.75
0
VERTEX
8
L6D0
10
150
20
8448.75
0
VERTEX
8
L6D0
10
152
20
8448.75
0
VERTEX
8
L6D0
10
152
20
7448.75
0
VERTEX
8
L6D0
10
158
20
7448.75
0
VERTEX
8
L6D0
10
158
20
8448.75
0
VERTEX
8
L6D0
10
160
20
8448.75
0
VERTEX
8
L6D0
10
160
20
7448.75
0
VERTEX
8
L6D0
10
166
20
7448.75
0
VERTEX
8
L6D0
10
166
20
8448.75
0
VERTEX
8
L6D0
10
168
20
8448.75
0
VERTEX
8
L6D0
10
168
20
7448.75
0
VERTEX
8
L6D0
10
174
20
7448.75
0
VERTEX
8
L6D0
10
174
20
8448.75
0
VERTEX
8
L6D0
10
176
20
8448.75
0
VERTEX
8
L6D0
10
176
20
7448.75
0
VERTEX
8
L6D0
10
182
20
7448.75
0
VERTEX
8
L6D0
10
182
20
8448.75
0
VERTEX
8
L6D0
10
184
20
8448.75
0
VERTEX
8
L6D0
10
184
20
7448.75
0
VERTEX
8
L6D0
10
190
20
7448.75
0
VERTEX
8
L6D0
10
190
20
8448.75
0
VERTEX
8
L6D0
10
192
20
8448.75
0
VERTEX
8
L6D0
10
192
20
7448.75
0
VERTEX
8
L6D0
10
198
20
7448.75
0
VERTEX
8
L6D0
10
198
20
8448.75
0
VERTEX
8
L6D0
10
200
20
8448.75
0
VERTEX
8
L6D0
10
200
20
7448.75
0
VERTEX
8
L6D0
10
206
20
7448.75
0
VERTEX
8
L6D0
10
206
20
8448.75
0
VERTEX
8
L6D0
10
208
20
8448.75
0
VERTEX
8
L6D0
10
208
20
7448.75
0
VERTEX
8
L6D0
10
214
20
7448.75
0
VERTEX
8
L6D0
10
214
20
8448.75
0
VERTEX
8
L6D0
10
216
20
8448.75
0
VERTEX
8
L6D0
10
216
20
7448.75
0
VERTEX
8
L6D0
10
222
20
7448.75
0
VERTEX
8
L6D0
10
222
20
8448.75
0
VERTEX
8
L6D0
10
224
20
8448.75
0
VERTEX
8
L6D0
10
224
20
7448.75
0
VERTEX
8
L6D0
10
230
20
7448.75
0
VERTEX
8
L6D0
10
230
20
8448.75
0
VERTEX
8
L6D0
10
232
20
8448.75
0
VERTEX
8
L6D0
10
232
20
7448.75
0
VERTEX
8
L6D0
10
238
20
7448.75
0
VERTEX
8
L6D0
10
238
20
8448.75
0
VERTEX
8
L6D0
10
240
20
8448.75
0
VERTEX
8
L6D0
10
240
20
7448.75
0
VERTEX
8
L6D0
10
246
20
7448.75
0
VERTEX
8
L6D0
10
246
20
8448.75
0
VERTEX
8
L6D0
10
248
20
8448.75
0
VERTEX
8
L6D0
10
248
20
7448.75
0
VERTEX
8
L6D0
10
254
20
7448.75
0
VERTEX
8
L6D0
10
254
20
8448.75
0
VERTEX
8
L6D0
10
256
20
8448.75
0
VERTEX
8
L6D0
10
256
20
7448.75
0
VERTEX
8
L6D0
10
262
20
7448.75
0
VERTEX
8
L6D0
10
262
20
8448.75
0
VERTEX
8
L6D0
10
264
20
8448.75
0
VERTEX
8
L6D0
10
264
20
7448.75
0
VERTEX
8
L6D0
10
270
20
7448.75
0
VERTEX
8
L6D0
10
270
20
8448.75
0
VERTEX
8
L6D0
10
272
20
8448.75
0
VERTEX
8
L6D0
10
272
20
7448.75
0
VERTEX
8
L6D0
10
278
20
7448.75
0
VERTEX
8
L6D0
10
278
20
8448.75
0
VERTEX
8
L6D0
10
280
20
8448.75
0
VERTEX
8
L6D0
10
280
20
7448.75
0
VERTEX
8
L6D0
10
286
20
7448.75
0
VERTEX
8
L6D0
10
286
20
8448.75
0
VERTEX
8
L6D0
10
288
20
8448.75
0
VERTEX
8
L6D0
10
288
20
7448.75
0
VERTEX
8
L6D0
10
294
20
7448.75
0
VERTEX
8
L6D0
10
294
20
8448.75
0
VERTEX
8
L6D0
10
296
20
8448.75
0
VERTEX
8
L6D0
10
296
20
7448.75
0
VERTEX
8
L6D0
10
302
20
7448.75
0
VERTEX
8
L6D0
10
302
20
8448.75
0
VERTEX
8
L6D0
10
304
20
8448.75
0
VERTEX
8
L6D0
10
304
20
7448.75
0
VERTEX
8
L6D0
10
310
20
7448.75
0
VERTEX
8
L6D0
10
310
20
8448.75
0
VERTEX
8
L6D0
10
312
20
8448.75
0
VERTEX
8
L6D0
10
312
20
7448.75
0
VERTEX
8
L6D0
10
318
20
7448.75
0
VERTEX
8
L6D0
10
318
20
8448.75
0
VERTEX
8
L6D0
10
320
20
8448.75
0
VERTEX
8
L6D0
10
320
20
7448.75
0
VERTEX
8
L6D0
10
326
20
7448.75
0
VERTEX
8
L6D0
10
326
20
8448.75
0
VERTEX
8
L6D0
10
328
20
8448.75
0
VERTEX
8
L6D0
10
328
20
7448.75
0
VERTEX
8
L6D0
10
334
20
7448.75
0
VERTEX
8
L6D0
10
334
20
8448.75
0
VERTEX
8
L6D0
10
336
20
8448.75
0
VERTEX
8
L6D0
10
336
20
7423.75
0
SEQEND
0
POLYLINE
8
L6D0
70
1
40
0
41
0
66
1
0
VERTEX
8
L6D0
10
336
20
7423.75
0
VERTEX
8
L6D0
10
336
20
7448.75
0
VERTEX
8
L6D0
10
342
20
7448.75
0
VERTEX
8
L6D0
10
342
20
8448.75
0
VERTEX
8
L6D0
10
344
20
8448.75
0
VERTEX
8
L6D0
10
344
20
7448.75
0
VERTEX
8
L6D0
10
350
20
7448.75
0
VERTEX
8
L6D0
10
350
20
8448.75
0
VERTEX
8
L6D0
10
352
20
8448.75
0
VERTEX
8
L6D0
10
352
20
7448.75
0
VERTEX
8
L6D0
10
358
20
7448.75
0
VERTEX
8
L6D0
10
358
20
8448.75
0
VERTEX
8
L6D0
10
360
20
8448.75
0
VERTEX
8
L6D0
10
360
20
7448.75
0
VERTEX
8
L6D0
10
366
20
7448.75
0
VERTEX
8
L6D0
10
366
20
8448.75
0
VERTEX
8
L6D0
10
368
20
8448.75
0
VERTEX
8
L6D0
10
368
20
7448.75
0
VERTEX
8
L6D0
10
374
20
7448.75
0
VERTEX
8
L6D0
10
374
20
8448.75
0
VERTEX
8
L6D0
10
376
20
8448.75
0
VERTEX
8
L6D0
10
376
20
7448.75
0
VERTEX
8
L6D0
10
382
20
7448.75
0
VERTEX
8
L6D0
10
382
20
8448.75
0
VERTEX
8
L6D0
10
384
20
8448.75
0
VERTEX
8
L6D0
10
384
20
7448.75
0
VERTEX
8
L6D0
10
390
20
7448.75
0
VERTEX
8
L6D0
10
390
20
8448.75
0
VERTEX
8
L6D0
10
392
20
8448.75
0
VERTEX
8
L6D0
10
392
20
7448.75
0
VERTEX
8
L6D0
10
398
20
7448.75
0
VERTEX
8
L6D0
10
398
20
8448.75
0
VERTEX
8
L6D0
10
400
20
8448.75
0
VERTEX
8
L6D0
10
400
20
7448.75
0
VERTEX
8
L6D0
10
406
20
7448.75
0
VERTEX
8
L6D0
10
406
20
8448.75
0
VERTEX
8
L6D0
10
408
20
8448.75
0
VERTEX
8
L6D0
10
408
20
7448.75
0
VERTEX
8
L6D0
10
414
20
7448.75
0
VERTEX
8
L6D0
10
414
20
8448.75
0
VERTEX
8
L6D0
10
416
20
8448.75
0
VERTEX
8
L6D0
10
416
20
7448.75
0
VERTEX
8
L6D0
10
422
20
7448.75
0
VERTEX
8
L6D0
10
422
20
8448.75
0
VERTEX
8
L6D0
10
424
20
8448.75
0
VERTEX
8
L6D0
10
424
20
7448.75
0
VERTEX
8
L6D0
10
430
20
7448.75
0
VERTEX
8
L6D0
10
430
20
8448.75
0
VERTEX
8
L6D0
10
432
20
8448.75
0
VERTEX
8
L6D0
10
432
20
7448.75
0
VERTEX
8
L6D0
10
438
20
7448.75
0
VERTEX
8
L6D0
10
438
20
8448.75
0
VERTEX
8
L6D0
10
440
20
8448.75
0
VERTEX
8
L6D0
10
440
20
7448.75
0
VERTEX
8
L6D0
10
446
20
7448.75
0
VERTEX
8
L6D0
10
446
20
8448.75
0
VERTEX
8
L6D0
10
448
20
8448.75
0
VERTEX
8
L6D0
10
448
20
7448.75
0
VERTEX
8
L6D0
10
454
20
7448.75
0
VERTEX
8
L6D0
10
454
20
8448.75
0
VERTEX
8
L6D0
10
456
20
8448.75
0
VERTEX
8
L6D0
10
456
20
7448.75
0
VERTEX
8
L6D0
10
462
20
7448.75
0
VERTEX
8
L6D0
10
462
20
8448.75
0
VERTEX
8
L6D0
10
464
20
8448.75
0
VERTEX
8
L6D0
10
464
20
7448.75
0
VERTEX
8
L6D0
10
470
20
7448.75
0
VERTEX
8
L6D0
10
470
20
8448.75
0
VERTEX
8
L6D0
10
472
20
8448.75
0
VERTEX
8
L6D0
10
472
20
7448.75
0
VERTEX
8
L6D0
10
478
20
7448.75
0
VERTEX
8
L6D0
10
478
20
8448.75
0
VERTEX
8
L6D0
10
480
20
8448.75
0
VERTEX
8
L6D0
10
480
20
7448.75
0
VERTEX
8
L6D0
10
486
20
7448.75
0
VERTEX
8
L6D0
10
486
20
8448.75
0
VERTEX
8
L6D0
10
488
20
8448.75
0
VERTEX
8
L6D0
10
488
20
7448.75
0
VERTEX
8
L6D0
10
494
20
7448.75
0
VERTEX
8
L6D0
10
494
20
8448.75
0
VERTEX
8
L6D0
10
496
20
8448.75
0
VERTEX
8
L6D0
10
496
20
7448.75
0
VERTEX
8
L6D0
10
502
20
7448.75
0
VERTEX
8
L6D0
10
502
20
8448.75
0
VERTEX
8
L6D0
10
504
20
8448.75
0
VERTEX
8
L6D0
10
504
20
7448.75
0
VERTEX
8
L6D0
10
510
20
7448.75
0
VERTEX
8
L6D0
10
510
20
8448.75
0
VERTEX
8
L6D0
10
512
20
8448.75
0
VERTEX
8
L6D0
10
512
20
7448.75
0
VERTEX
8
L6D0
10
518
20
7448.75
0
VERTEX
8
L6D0
10
518
20
8448.75
0
VERTEX
8
L6D0
10
520
20
8448.75
0
VERTEX
8
L6D0
10
520
20
7448.75
0
VERTEX
8
L6D0
10
526
20
7448.75
0
VERTEX
8
L6D0
10
526
20
8448.75
0
VERTEX
8
L6D0
10
528
20
8448.75
0
VERTEX
8
L6D0
10
528
20
7448.75
0
VERTEX
8
L6D0
10
534
20
7448.75
0
VERTEX
8
L6D0
10
534
20
8448.75
0
VERTEX
8
L6D0
10
536
20
8448.75
0
VERTEX
8
L6D0
10
536
20
7448.75
0
VERTEX
8
L6D0
10
542
20
7448.75
0
VERTEX
8
L6D0
10
542
20
8448.75
0
VERTEX
8
L6D0
10
544
20
8448.75
0
VERTEX
8
L6D0
10
544
20
7448.75
0
VERTEX
8
L6D0
10
550
20
7448.75
0
VERTEX
8
L6D0
10
550
20
8448.75
0
VERTEX
8
L6D0
10
552
20
8448.75
0
VERTEX
8
L6D0
10
552
20
7448.75
0
VERTEX
8
L6D0
10
558
20
7448.75
0
VERTEX
8
L6D0
10
558
20
8448.75
0
VERTEX
8
L6D0
10
560
20
8448.75
0
VERTEX
8
L6D0
10
560
20
7448.75
0
VERTEX
8
L6D0
10
566
20
7448.75
0
VERTEX
8
L6D0
10
566
20
8448.75
0
VERTEX
8
L6D0
10
568
20
8448.75
0
VERTEX
8
L6D0
10
568
20
7448.75
0
VERTEX
8
L6D0
10
574
20
7448.75
0
VERTEX
8
L6D0
10
574
20
8448.75
0
VERTEX
8
L6D0
10
576
20
8448.75
0
VERTEX
8
L6D0
10
576
20
7448.75
0
VERTEX
8
L6D0
10
582
20
7448.75
0
VERTEX
8
L6D0
10
582
20
8448.75
0
VERTEX
8
L6D0
10
584
20
8448.75
0
VERTEX
8
L6D0
10
584
20
7448.75
0
VERTEX
8
L6D0
10
590
20
7448.75
0
VERTEX
8
L6D0
10
590
20
7423.75
0
SEQEND
0
POLYLINE
8
L6D0
70
1
40
0
41
0
66
1
0
VERTEX
8
L6D0
10
590
20
7423.75
0
VERTEX
8
L6D0
10
590
20
8448.75
0
VERTEX
8
L6D0
10
592
20
8448.75
0
VERTEX
8
L6D0
10
592
20
7448.75
0
VERTEX
8
L6D0
10
598
20
7448.75
0
VERTEX
8
L6D0
10
598
20
8448.75
0
VERTEX
8
L6D0
10
600
20
8448.75
0
VERTEX
8
L6D0
10
600
20
7448.75
0
VERTEX
8
L6D0
10
606
20
7448.75
0
VERTEX
8
L6D0
10
606
20
8448.75
0
VERTEX
8
L6D0
10
608
20
8448.75
0
VERTEX
8
L6D0
10
608
20
7448.75
0
VERTEX
8
L6D0
10
614
20
7448.75
0
VERTEX
8
L6D0
10
614
20
8448.75
0
VERTEX
8
L6D0
10
616
20
8448.75
0
VERTEX
8
L6D0
10
616
20
7448.75
0
VERTEX
8
L6D0
10
622
20
7448.75
0
VERTEX
8
L6D0
10
622
20
8448.75
0
VERTEX
8
L6D0
10
624
20
8448.75
0
VERTEX
8
L6D0
10
624
20
7448.75
0
VERTEX
8
L6D0
10
630
20
7448.75
0
VERTEX
8
L6D0
10
630
20
8448.75
0
VERTEX
8
L6D0
10
632
20
8448.75
0
VERTEX
8
L6D0
10
632
20
7448.75
0
VERTEX
8
L6D0
10
638
20
7448.75
0
VERTEX
8
L6D0
10
638
20
8448.75
0
VERTEX
8
L6D0
10
640
20
8448.75
0
VERTEX
8
L6D0
10
640
20
7448.75
0
VERTEX
8
L6D0
10
646
20
7448.75
0
VERTEX
8
L6D0
10
646
20
8448.75
0
VERTEX
8
L6D0
10
648
20
8448.75
0
VERTEX
8
L6D0
10
648
20
7448.75
0
VERTEX
8
L6D0
10
654
20
7448.75
0
VERTEX
8
L6D0
10
654
20
8448.75
0
VERTEX
8
L6D0
10
656
20
8448.75
0
VERTEX
8
L6D0
10
656
20
7448.75
0
VERTEX
8
L6D0
10
662
20
7448.75
0
VERTEX
8
L6D0
10
662
20
8448.75
0
VERTEX
8
L6D0
10
664
20
8448.75
0
VERTEX
8
L6D0
10
664
20
7448.75
0
VERTEX
8
L6D0
10
670
20
7448.75
0
VERTEX
8
L6D0
10
670
20
8448.75
0
VERTEX
8
L6D0
10
672
20
8448.75
0
VERTEX
8
L6D0
10
672
20
7448.75
0
VERTEX
8
L6D0
10
678
20
7448.75
0
VERTEX
8
L6D0
10
678
20
8448.75
0
VERTEX
8
L6D0
10
680
20
8448.75
0
VERTEX
8
L6D0
10
680
20
7448.75
0
VERTEX
8
L6D0
10
686
20
7448.75
0
VERTEX
8
L6D0
10
686
20
8448.75
0
VERTEX
8
L6D0
10
688
20
8448.75
0
VERTEX
8
L6D0
10
688
20
7448.75
0
VERTEX
8
L6D0
10
694
20
7448.75
0
VERTEX
8
L6D0
10
694
20
8448.75
0
VERTEX
8
L6D0
10
696
20
8448.75
0
VERTEX
8
L6D0
10
696
20
7448.75
0
VERTEX
8
L6D0
10
702
20
7448.75
0
VERTEX
8
L6D0
10
702
20
8448.75
0
VERTEX
8
L6D0
10
704
20
8448.75
0
VERTEX
8
L6D0
10
704
20
7448.75
0
VERTEX
8
L6D0
10
710
20
7448.75
0
VERTEX
8
L6D0
10
710
20
8448.75
0
VERTEX
8
L6D0
10
712
20
8448.75
0
VERTEX
8
L6D0
10
712
20
7448.75
0
VERTEX
8
L6D0
10
718
20
7448.75
0
VERTEX
8
L6D0
10
718
20
8448.75
0
VERTEX
8
L6D0
10
720
20
8448.75
0
VERTEX
8
L6D0
10
720
20
7448.75
0
VERTEX
8
L6D0
10
726
20
7448.75
0
VERTEX
8
L6D0
10
726
20
8448.75
0
VERTEX
8
L6D0
10
728
20
8448.75
0
VERTEX
8
L6D0
10
728
20
7448.75
0
VERTEX
8
L6D0
10
734
20
7448.75
0
VERTEX
8
L6D0
10
734
20
8448.75
0
VERTEX
8
L6D0
10
736
20
8448.75
0
VERTEX
8
L6D0
10
736
20
7448.75
0
VERTEX
8
L6D0
10
742
20
7448.75
0
VERTEX
8
L6D0
10
742
20
8448.75
0
VERTEX
8
L6D0
10
744
20
8448.75
0
VERTEX
8
L6D0
10
744
20
7448.75
0
VERTEX
8
L6D0
10
750
20
7448.75
0
VERTEX
8
L6D0
10
750
20
8448.75
0
VERTEX
8
L6D0
10
752
20
8448.75
0
VERTEX
8
L6D0
10
752
20
7448.75
0
VERTEX
8
L6D0
10
758
20
7448.75
0
VERTEX
8
L6D0
10
758
20
8448.75
0
VERTEX
8
L6D0
10
760
20
8448.75
0
VERTEX
8
L6D0
10
760
20
7448.75
0
VERTEX
8
L6D0
10
766
20
7448.75
0
VERTEX
8
L6D0
10
766
20
8448.75
0
VERTEX
8
L6D0
10
768
20
8448.75
0
VERTEX
8
L6D0
10
768
20
7448.75
0
VERTEX
8
L6D0
10
774
20
7448.75
0
VERTEX
8
L6D0
10
774
20
8448.75
0
VERTEX
8
L6D0
10
776
20
8448.75
0
VERTEX
8
L6D0
10
776
20
7448.75
0
VERTEX
8
L6D0
10
782
20
7448.75
0
VERTEX
8
L6D0
10
782
20
8448.75
0
VERTEX
8
L6D0
10
784
20
8448.75
0
VERTEX
8
L6D0
10
784
20
7448.75
0
VERTEX
8
L6D0
10
790
20
7448.75
0
VERTEX
8
L6D0
10
790
20
8448.75
0
VERTEX
8
L6D0
10
792
20
8448.75
0
VERTEX
8
L6D0
10
792
20
7448.75
0
VERTEX
8
L6D0
10
798
20
7448.75
0
VERTEX
8
L6D0
10
798
20
8448.75
0
VERTEX
8
L6D0
10
800
20
8448.75
0
VERTEX
8
L6D0
10
800
20
7448.75
0
VERTEX
8
L6D0
10
806
20
7448.75
0
VERTEX
8
L6D0
10
806
20
8448.75
0
VERTEX
8
L6D0
10
808
20
8448.75
0
VERTEX
8
L6D0
10
808
20
7448.75
0
VERTEX
8
L6D0
10
814
20
7448.75
0
VERTEX
8
L6D0
10
814
20
8448.75
0
VERTEX
8
L6D0
10
816
20
8448.75
0
VERTEX
8
L6D0
10
816
20
7448.75
0
VERTEX
8
L6D0
10
822
20
7448.75
0
VERTEX
8
L6D0
10
822
20
8448.75
0
VERTEX
8
L6D0
10
824
20
8448.75
0
VERTEX
8
L6D0
10
824
20
7448.75
0
VERTEX
8
L6D0
10
830
20
7448.75
0
VERTEX
8
L6D0
10
830
20
8448.75
0
VERTEX
8
L6D0
10
832
20
8448.75
0
VERTEX
8
L6D0
10
832
20
7448.75
0
VERTEX
8
L6D0
10
844.5
20
7448.75
0
VERTEX
8
L6D0
10
844.5
20
7948.5
0
VERTEX
8
L6D0
10
869.5
20
7948.5
0
VERTEX
8
L6D0
10
869.5
20
7423.75
0
SEQEND
0
ENDSEC
0
EOF
