0
SECTION
2
HEADER
9
$ACADVER
1
AC1006
0
ENDSEC
0
SECTION
2
TABLES
0
TABLE
2
LAYER
70
1
0
LAYER
70
0
62
1
6
CONTINUOUS
2
L6D0
0
ENDTAB
0
ENDSEC
0
SECTION
2
BLOCKS
0
ENDSEC
0
SECTION
2
ENTITIES
0
POLYLINE
8
L6D0
70
1
40
0
41
0
66
1
0
VERTEX
8
L6D0
10
-46
20
476.75
0
VERTEX
8
L6D0
10
-46
20
551.75
0
VERTEX
8
L6D0
10
-50
20
551.75
0
VERTEX
8
L6D0
10
-50
20
576.75
0
VERTEX
8
L6D0
10
112
20
576.75
0
VERTEX
8
L6D0
10
112
20
551.75
0
VERTEX
8
L6D0
10
108
20
551.75
0
VERTEX
8
L6D0
10
108
20
476.75
0
VERTEX
8
L6D0
10
106
20
476.75
0
VERTEX
8
L6D0
10
106
20
551.75
0
VERTEX
8
L6D0
10
100
20
551.75
0
VERTEX
8
L6D0
10
100
20
476.75
0
VERTEX
8
L6D0
10
98
20
476.75
0
VERTEX
8
L6D0
10
98
20
551.75
0
VERTEX
8
L6D0
10
92
20
551.75
0
VERTEX
8
L6D0
10
92
20
476.75
0
VERTEX
8
L6D0
10
90
20
476.75
0
VERTEX
8
L6D0
10
90
20
551.75
0
VERTEX
8
L6D0
10
84
20
551.75
0
VERTEX
8
L6D0
10
84
20
476.75
0
VERTEX
8
L6D0
10
82
20
476.75
0
VERTEX
8
L6D0
10
82
20
551.75
0
VERTEX
8
L6D0
10
76
20
551.75
0
VERTEX
8
L6D0
10
76
20
476.75
0
VERTEX
8
L6D0
10
74
20
476.75
0
VERTEX
8
L6D0
10
74
20
551.75
0
VERTEX
8
L6D0
10
68
20
551.75
0
VERTEX
8
L6D0
10
68
20
476.75
0
VERTEX
8
L6D0
10
66
20
476.75
0
VERTEX
8
L6D0
10
66
20
551.75
0
VERTEX
8
L6D0
10
60
20
551.75
0
VERTEX
8
L6D0
10
60
20
476.75
0
VERTEX
8
L6D0
10
58
20
476.75
0
VERTEX
8
L6D0
10
58
20
551.75
0
VERTEX
8
L6D0
10
52
20
551.75
0
VERTEX
8
L6D0
10
52
20
476.75
0
VERTEX
8
L6D0
10
50
20
476.75
0
VERTEX
8
L6D0
10
50
20
551.75
0
VERTEX
8
L6D0
10
44
20
551.75
0
VERTEX
8
L6D0
10
44
20
476.75
0
VERTEX
8
L6D0
10
42
20
476.75
0
VERTEX
8
L6D0
10
42
20
551.75
0
VERTEX
8
L6D0
10
36
20
551.75
0
VERTEX
8
L6D0
10
36
20
476.75
0
VERTEX
8
L6D0
10
34
20
476.75
0
VERTEX
8
L6D0
10
34
20
551.75
0
VERTEX
8
L6D0
10
28
20
551.75
0
VERTEX
8
L6D0
10
28
20
476.75
0
VERTEX
8
L6D0
10
26
20
476.75
0
VERTEX
8
L6D0
10
26
20
551.75
0
VERTEX
8
L6D0
10
20
20
551.75
0
VERTEX
8
L6D0
10
20
20
476.75
0
VERTEX
8
L6D0
10
18
20
476.75
0
VERTEX
8
L6D0
10
18
20
551.75
0
VERTEX
8
L6D0
10
12
20
551.75
0
VERTEX
8
L6D0
10
12
20
476.75
0
VERTEX
8
L6D0
10
10
20
476.75
0
VERTEX
8
L6D0
10
10
20
551.75
0
VERTEX
8
L6D0
10
4
20
551.75
0
VERTEX
8
L6D0
10
4
20
476.75
0
VERTEX
8
L6D0
10
2
20
476.75
0
VERTEX
8
L6D0
10
2
20
551.75
0
VERTEX
8
L6D0
10
-4
20
551.75
0
VERTEX
8
L6D0
10
-4
20
476.75
0
VERTEX
8
L6D0
10
-6
20
476.75
0
VERTEX
8
L6D0
10
-6
20
551.75
0
VERTEX
8
L6D0
10
-12
20
551.75
0
VERTEX
8
L6D0
10
-12
20
476.75
0
VERTEX
8
L6D0
10
-14
20
476.75
0
VERTEX
8
L6D0
10
-14
20
551.75
0
VERTEX
8
L6D0
10
-20
20
551.75
0
VERTEX
8
L6D0
10
-20
20
476.75
0
VERTEX
8
L6D0
10
-22
20
476.75
0
VERTEX
8
L6D0
10
-22
20
551.75
0
VERTEX
8
L6D0
10
-28
20
551.75
0
VERTEX
8
L6D0
10
-28
20
476.75
0
VERTEX
8
L6D0
10
-30
20
476.75
0
VERTEX
8
L6D0
10
-30
20
551.75
0
VERTEX
8
L6D0
10
-36
20
551.75
0
VERTEX
8
L6D0
10
-36
20
476.75
0
VERTEX
8
L6D0
10
-38
20
476.75
0
VERTEX
8
L6D0
10
-38
20
551.75
0
VERTEX
8
L6D0
10
-44
20
551.75
0
VERTEX
8
L6D0
10
-44
20
476.75
0
SEQEND
0
POLYLINE
8
L6D0
70
1
40
0
41
0
66
1
0
VERTEX
8
L6D0
10
-558
20
-549.75
0
VERTEX
8
L6D0
10
-558
20
450.25
0
VERTEX
8
L6D0
10
-564
20
450.25
0
VERTEX
8
L6D0
10
-564
20
267.442
0
VERTEX
8
L6D0
10
-566
20
267.442
0
VERTEX
8
L6D0
10
-566
20
450.25
0
VERTEX
8
L6D0
10
-970
20
450.25
0
VERTEX
8
L6D0
10
-970
20
475.25
0
VERTEX
8
L6D0
10
-350
20
475.25
0
VERTEX
8
L6D0
10
-350
20
450.25
0
VERTEX
8
L6D0
10
-356
20
450.25
0
VERTEX
8
L6D0
10
-356
20
-549.75
0
VERTEX
8
L6D0
10
-358
20
-549.75
0
VERTEX
8
L6D0
10
-358
20
450.25
0
VERTEX
8
L6D0
10
-364
20
450.25
0
VERTEX
8
L6D0
10
-364
20
-549.75
0
VERTEX
8
L6D0
10
-366
20
-549.75
0
VERTEX
8
L6D0
10
-366
20
450.25
0
VERTEX
8
L6D0
10
-372
20
450.25
0
VERTEX
8
L6D0
10
-372
20
-549.75
0
VERTEX
8
L6D0
10
-374
20
-549.75
0
VERTEX
8
L6D0
10
-374
20
450.25
0
VERTEX
8
L6D0
10
-380
20
450.25
0
VERTEX
8
L6D0
10
-380
20
-549.75
0
VERTEX
8
L6D0
10
-382
20
-549.75
0
VERTEX
8
L6D0
10
-382
20
450.25
0
VERTEX
8
L6D0
10
-388
20
450.25
0
VERTEX
8
L6D0
10
-388
20
-549.75
0
VERTEX
8
L6D0
10
-390
20
-549.75
0
VERTEX
8
L6D0
10
-390
20
450.25
0
VERTEX
8
L6D0
10
-396
20
450.25
0
VERTEX
8
L6D0
10
-396
20
-549.75
0
VERTEX
8
L6D0
10
-398
20
-549.75
0
VERTEX
8
L6D0
10
-398
20
450.25
0
VERTEX
8
L6D0
10
-404
20
450.25
0
VERTEX
8
L6D0
10
-404
20
-549.75
0
VERTEX
8
L6D0
10
-406
20
-549.75
0
VERTEX
8
L6D0
10
-406
20
450.25
0
VERTEX
8
L6D0
10
-412
20
450.25
0
VERTEX
8
L6D0
10
-412
20
-549.75
0
VERTEX
8
L6D0
10
-414
20
-549.75
0
VERTEX
8
L6D0
10
-414
20
450.25
0
VERTEX
8
L6D0
10
-420
20
450.25
0
VERTEX
8
L6D0
10
-420
20
-549.75
0
VERTEX
8
L6D0
10
-422
20
-549.75
0
VERTEX
8
L6D0
10
-422
20
450.25
0
VERTEX
8
L6D0
10
-428
20
450.25
0
VERTEX
8
L6D0
10
-428
20
-549.75
0
VERTEX
8
L6D0
10
-430
20
-549.75
0
VERTEX
8
L6D0
10
-430
20
450.25
0
VERTEX
8
L6D0
10
-436
20
450.25
0
VERTEX
8
L6D0
10
-436
20
-549.75
0
VERTEX
8
L6D0
10
-438
20
-549.75
0
VERTEX
8
L6D0
10
-438
20
450.25
0
VERTEX
8
L6D0
10
-444
20
450.25
0
VERTEX
8
L6D0
10
-444
20
-549.75
0
VERTEX
8
L6D0
10
-446
20
-549.75
0
VERTEX
8
L6D0
10
-446
20
450.25
0
VERTEX
8
L6D0
10
-452
20
450.25
0
VERTEX
8
L6D0
10
-452
20
-549.75
0
VERTEX
8
L6D0
10
-454
20
-549.75
0
VERTEX
8
L6D0
10
-454
20
450.25
0
VERTEX
8
L6D0
10
-460
20
450.25
0
VERTEX
8
L6D0
10
-460
20
-549.75
0
VERTEX
8
L6D0
10
-462
20
-549.75
0
VERTEX
8
L6D0
10
-462
20
450.25
0
VERTEX
8
L6D0
10
-468
20
450.25
0
VERTEX
8
L6D0
10
-468
20
-549.75
0
VERTEX
8
L6D0
10
-470
20
-549.75
0
VERTEX
8
L6D0
10
-470
20
450.25
0
VERTEX
8
L6D0
10
-476
20
450.25
0
VERTEX
8
L6D0
10
-476
20
-549.75
0
VERTEX
8
L6D0
10
-478
20
-549.75
0
VERTEX
8
L6D0
10
-478
20
450.25
0
VERTEX
8
L6D0
10
-484
20
450.25
0
VERTEX
8
L6D0
10
-484
20
-549.75
0
VERTEX
8
L6D0
10
-486
20
-549.75
0
VERTEX
8
L6D0
10
-486
20
450.25
0
VERTEX
8
L6D0
10
-492
20
450.25
0
VERTEX
8
L6D0
10
-492
20
-549.75
0
VERTEX
8
L6D0
10
-494
20
-549.75
0
VERTEX
8
L6D0
10
-494
20
450.25
0
VERTEX
8
L6D0
10
-500
20
450.25
0
VERTEX
8
L6D0
10
-500
20
-549.75
0
VERTEX
8
L6D0
10
-502
20
-549.75
0
VERTEX
8
L6D0
10
-502
20
450.25
0
VERTEX
8
L6D0
10
-508
20
450.25
0
VERTEX
8
L6D0
10
-508
20
-549.75
0
VERTEX
8
L6D0
10
-510
20
-549.75
0
VERTEX
8
L6D0
10
-510
20
450.25
0
VERTEX
8
L6D0
10
-516
20
450.25
0
VERTEX
8
L6D0
10
-516
20
-549.75
0
VERTEX
8
L6D0
10
-518
20
-549.75
0
VERTEX
8
L6D0
10
-518
20
450.25
0
VERTEX
8
L6D0
10
-524
20
450.25
0
VERTEX
8
L6D0
10
-524
20
-549.75
0
VERTEX
8
L6D0
10
-526
20
-549.75
0
VERTEX
8
L6D0
10
-526
20
450.25
0
VERTEX
8
L6D0
10
-532
20
450.25
0
VERTEX
8
L6D0
10
-532
20
-549.75
0
VERTEX
8
L6D0
10
-534
20
-549.75
0
VERTEX
8
L6D0
10
-534
20
450.25
0
VERTEX
8
L6D0
10
-540
20
450.25
0
VERTEX
8
L6D0
10
-540
20
-549.75
0
VERTEX
8
L6D0
10
-542
20
-549.75
0
VERTEX
8
L6D0
10
-542
20
450.25
0
VERTEX
8
L6D0
10
-548
20
450.25
0
VERTEX
8
L6D0
10
-548
20
-549.75
0
VERTEX
8
L6D0
10
-550
20
-549.75
0
VERTEX
8
L6D0
10
-550
20
450.25
0
VERTEX
8
L6D0
10
-556
20
450.25
0
VERTEX
8
L6D0
10
-556
20
-549.75
0
SEQEND
0
POLYLINE
8
L6D0
70
1
40
0
41
0
66
1
0
VERTEX
8
L6D0
10
-350
20
-549.75
0
VERTEX
8
L6D0
10
-350
20
475.25
0
VERTEX
8
L6D0
10
-126
20
475.25
0
VERTEX
8
L6D0
10
-126
20
450.25
0
VERTEX
8
L6D0
10
-132
20
450.25
0
VERTEX
8
L6D0
10
-132
20
-549.75
0
VERTEX
8
L6D0
10
-134
20
-549.75
0
VERTEX
8
L6D0
10
-134
20
450.25
0
VERTEX
8
L6D0
10
-140
20
450.25
0
VERTEX
8
L6D0
10
-140
20
-549.75
0
VERTEX
8
L6D0
10
-142
20
-549.75
0
VERTEX
8
L6D0
10
-142
20
450.25
0
VERTEX
8
L6D0
10
-148
20
450.25
0
VERTEX
8
L6D0
10
-148
20
-549.75
0
VERTEX
8
L6D0
10
-150
20
-549.75
0
VERTEX
8
L6D0
10
-150
20
450.25
0
VERTEX
8
L6D0
10
-156
20
450.25
0
VERTEX
8
L6D0
10
-156
20
-549.75
0
VERTEX
8
L6D0
10
-158
20
-549.75
0
VERTEX
8
L6D0
10
-158
20
450.25
0
VERTEX
8
L6D0
10
-164
20
450.25
0
VERTEX
8
L6D0
10
-164
20
-549.75
0
VERTEX
8
L6D0
10
-166
20
-549.75
0
VERTEX
8
L6D0
10
-166
20
450.25
0
VERTEX
8
L6D0
10
-172
20
450.25
0
VERTEX
8
L6D0
10
-172
20
-549.75
0
VERTEX
8
L6D0
10
-174
20
-549.75
0
VERTEX
8
L6D0
10
-174
20
450.25
0
VERTEX
8
L6D0
10
-180
20
450.25
0
VERTEX
8
L6D0
10
-180
20
-549.75
0
VERTEX
8
L6D0
10
-182
20
-549.75
0
VERTEX
8
L6D0
10
-182
20
450.25
0
VERTEX
8
L6D0
10
-188
20
450.25
0
VERTEX
8
L6D0
10
-188
20
-549.75
0
VERTEX
8
L6D0
10
-190
20
-549.75
0
VERTEX
8
L6D0
10
-190
20
450.25
0
VERTEX
8
L6D0
10
-196
20
450.25
0
VERTEX
8
L6D0
10
-196
20
-549.75
0
VERTEX
8
L6D0
10
-198
20
-549.75
0
VERTEX
8
L6D0
10
-198
20
450.25
0
VERTEX
8
L6D0
10
-204
20
450.25
0
VERTEX
8
L6D0
10
-204
20
-549.75
0
VERTEX
8
L6D0
10
-206
20
-549.75
0
VERTEX
8
L6D0
10
-206
20
450.25
0
VERTEX
8
L6D0
10
-212
20
450.25
0
VERTEX
8
L6D0
10
-212
20
-549.75
0
VERTEX
8
L6D0
10
-214
20
-549.75
0
VERTEX
8
L6D0
10
-214
20
450.25
0
VERTEX
8
L6D0
10
-220
20
450.25
0
VERTEX
8
L6D0
10
-220
20
-549.75
0
VERTEX
8
L6D0
10
-222
20
-549.75
0
VERTEX
8
L6D0
10
-222
20
450.25
0
VERTEX
8
L6D0
10
-228
20
450.25
0
VERTEX
8
L6D0
10
-228
20
-549.75
0
VERTEX
8
L6D0
10
-230
20
-549.75
0
VERTEX
8
L6D0
10
-230
20
450.25
0
VERTEX
8
L6D0
10
-236
20
450.25
0
VERTEX
8
L6D0
10
-236
20
-549.75
0
VERTEX
8
L6D0
10
-238
20
-549.75
0
VERTEX
8
L6D0
10
-238
20
450.25
0
VERTEX
8
L6D0
10
-244
20
450.25
0
VERTEX
8
L6D0
10
-244
20
-549.75
0
VERTEX
8
L6D0
10
-246
20
-549.75
0
VERTEX
8
L6D0
10
-246
20
450.25
0
VERTEX
8
L6D0
10
-252
20
450.25
0
VERTEX
8
L6D0
10
-252
20
-549.75
0
VERTEX
8
L6D0
10
-254
20
-549.75
0
VERTEX
8
L6D0
10
-254
20
450.25
0
VERTEX
8
L6D0
10
-260
20
450.25
0
VERTEX
8
L6D0
10
-260
20
-549.75
0
VERTEX
8
L6D0
10
-262
20
-549.75
0
VERTEX
8
L6D0
10
-262
20
450.25
0
VERTEX
8
L6D0
10
-268
20
450.25
0
VERTEX
8
L6D0
10
-268
20
-549.75
0
VERTEX
8
L6D0
10
-270
20
-549.75
0
VERTEX
8
L6D0
10
-270
20
450.25
0
VERTEX
8
L6D0
10
-276
20
450.25
0
VERTEX
8
L6D0
10
-276
20
-549.75
0
VERTEX
8
L6D0
10
-278
20
-549.75
0
VERTEX
8
L6D0
10
-278
20
450.25
0
VERTEX
8
L6D0
10
-284
20
450.25
0
VERTEX
8
L6D0
10
-284
20
-549.75
0
VERTEX
8
L6D0
10
-286
20
-549.75
0
VERTEX
8
L6D0
10
-286
20
450.25
0
VERTEX
8
L6D0
10
-292
20
450.25
0
VERTEX
8
L6D0
10
-292
20
-549.75
0
VERTEX
8
L6D0
10
-294
20
-549.75
0
VERTEX
8
L6D0
10
-294
20
450.25
0
VERTEX
8
L6D0
10
-300
20
450.25
0
VERTEX
8
L6D0
10
-300
20
-549.75
0
VERTEX
8
L6D0
10
-302
20
-549.75
0
VERTEX
8
L6D0
10
-302
20
450.25
0
VERTEX
8
L6D0
10
-308
20
450.25
0
VERTEX
8
L6D0
10
-308
20
-549.75
0
VERTEX
8
L6D0
10
-310
20
-549.75
0
VERTEX
8
L6D0
10
-310
20
450.25
0
VERTEX
8
L6D0
10
-316
20
450.25
0
VERTEX
8
L6D0
10
-316
20
-549.75
0
VERTEX
8
L6D0
10
-318
20
-549.75
0
VERTEX
8
L6D0
10
-318
20
450.25
0
VERTEX
8
L6D0
10
-324
20
450.25
0
VERTEX
8
L6D0
10
-324
20
-549.75
0
VERTEX
8
L6D0
10
-326
20
-549.75
0
VERTEX
8
L6D0
10
-326
20
450.25
0
VERTEX
8
L6D0
10
-332
20
450.25
0
VERTEX
8
L6D0
10
-332
20
-549.75
0
VERTEX
8
L6D0
10
-334
20
-549.75
0
VERTEX
8
L6D0
10
-334
20
450.25
0
VERTEX
8
L6D0
10
-340
20
450.25
0
VERTEX
8
L6D0
10
-340
20
-549.75
0
VERTEX
8
L6D0
10
-342
20
-549.75
0
VERTEX
8
L6D0
10
-342
20
450.25
0
VERTEX
8
L6D0
10
-348
20
450.25
0
VERTEX
8
L6D0
10
-348
20
-549.75
0
SEQEND
0
POLYLINE
8
L6D0
70
1
40
0
41
0
66
1
0
VERTEX
8
L6D0
10
-126
20
-549.75
0
VERTEX
8
L6D0
10
-126
20
475.25
0
VERTEX
8
L6D0
10
-50
20
475.25
0
VERTEX
8
L6D0
10
-50
20
550.25
0
VERTEX
8
L6D0
10
-48
20
550.25
0
VERTEX
8
L6D0
10
-48
20
475.25
0
VERTEX
8
L6D0
10
-42
20
475.25
0
VERTEX
8
L6D0
10
-42
20
550.25
0
VERTEX
8
L6D0
10
-40
20
550.25
0
VERTEX
8
L6D0
10
-40
20
475.25
0
VERTEX
8
L6D0
10
-34
20
475.25
0
VERTEX
8
L6D0
10
-34
20
550.25
0
VERTEX
8
L6D0
10
-32
20
550.25
0
VERTEX
8
L6D0
10
-32
20
475.25
0
VERTEX
8
L6D0
10
-26
20
475.25
0
VERTEX
8
L6D0
10
-26
20
550.25
0
VERTEX
8
L6D0
10
-24
20
550.25
0
VERTEX
8
L6D0
10
-24
20
475.25
0
VERTEX
8
L6D0
10
-18
20
475.25
0
VERTEX
8
L6D0
10
-18
20
550.25
0
VERTEX
8
L6D0
10
-16
20
550.25
0
VERTEX
8
L6D0
10
-16
20
475.25
0
VERTEX
8
L6D0
10
-10
20
475.25
0
VERTEX
8
L6D0
10
-10
20
550.25
0
VERTEX
8
L6D0
10
-8
20
550.25
0
VERTEX
8
L6D0
10
-8
20
475.25
0
VERTEX
8
L6D0
10
-2
20
475.25
0
VERTEX
8
L6D0
10
-2
20
550.25
0
VERTEX
8
L6D0
10
0
20
550.25
0
VERTEX
8
L6D0
10
0
20
475.25
0
VERTEX
8
L6D0
10
6
20
475.25
0
VERTEX
8
L6D0
10
6
20
550.25
0
VERTEX
8
L6D0
10
8
20
550.25
0
VERTEX
8
L6D0
10
8
20
475.25
0
VERTEX
8
L6D0
10
14
20
475.25
0
VERTEX
8
L6D0
10
14
20
550.25
0
VERTEX
8
L6D0
10
16
20
550.25
0
VERTEX
8
L6D0
10
16
20
475.25
0
VERTEX
8
L6D0
10
20
20
475.25
0
VERTEX
8
L6D0
10
20
20
-549.75
0
VERTEX
8
L6D0
10
18
20
-549.75
0
VERTEX
8
L6D0
10
18
20
450.25
0
VERTEX
8
L6D0
10
12
20
450.25
0
VERTEX
8
L6D0
10
12
20
-549.75
0
VERTEX
8
L6D0
10
10
20
-549.75
0
VERTEX
8
L6D0
10
10
20
450.25
0
VERTEX
8
L6D0
10
4
20
450.25
0
VERTEX
8
L6D0
10
4
20
-549.75
0
VERTEX
8
L6D0
10
2
20
-549.75
0
VERTEX
8
L6D0
10
2
20
450.25
0
VERTEX
8
L6D0
10
-4
20
450.25
0
VERTEX
8
L6D0
10
-4
20
-549.75
0
VERTEX
8
L6D0
10
-6
20
-549.75
0
VERTEX
8
L6D0
10
-6
20
450.25
0
VERTEX
8
L6D0
10
-12
20
450.25
0
VERTEX
8
L6D0
10
-12
20
-549.75
0
VERTEX
8
L6D0
10
-14
20
-549.75
0
VERTEX
8
L6D0
10
-14
20
450.25
0
VERTEX
8
L6D0
10
-20
20
450.25
0
VERTEX
8
L6D0
10
-20
20
-549.75
0
VERTEX
8
L6D0
10
-22
20
-549.75
0
VERTEX
8
L6D0
10
-22
20
450.25
0
VERTEX
8
L6D0
10
-28
20
450.25
0
VERTEX
8
L6D0
10
-28
20
-549.75
0
VERTEX
8
L6D0
10
-30
20
-549.75
0
VERTEX
8
L6D0
10
-30
20
450.25
0
VERTEX
8
L6D0
10
-36
20
450.25
0
VERTEX
8
L6D0
10
-36
20
-549.75
0
VERTEX
8
L6D0
10
-38
20
-549.75
0
VERTEX
8
L6D0
10
-38
20
450.25
0
VERTEX
8
L6D0
10
-44
20
450.25
0
VERTEX
8
L6D0
10
-44
20
-549.75
0
VERTEX
8
L6D0
10
-46
20
-549.75
0
VERTEX
8
L6D0
10
-46
20
450.25
0
VERTEX
8
L6D0
10
-52
20
450.25
0
VERTEX
8
L6D0
10
-52
20
-549.75
0
VERTEX
8
L6D0
10
-54
20
-549.75
0
VERTEX
8
L6D0
10
-54
20
450.25
0
VERTEX
8
L6D0
10
-60
20
450.25
0
VERTEX
8
L6D0
10
-60
20
-549.75
0
VERTEX
8
L6D0
10
-62
20
-549.75
0
VERTEX
8
L6D0
10
-62
20
450.25
0
VERTEX
8
L6D0
10
-68
20
450.25
0
VERTEX
8
L6D0
10
-68
20
-549.75
0
VERTEX
8
L6D0
10
-70
20
-549.75
0
VERTEX
8
L6D0
10
-70
20
450.25
0
VERTEX
8
L6D0
10
-76
20
450.25
0
VERTEX
8
L6D0
10
-76
20
-549.75
0
VERTEX
8
L6D0
10
-78
20
-549.75
0
VERTEX
8
L6D0
10
-78
20
450.25
0
VERTEX
8
L6D0
10
-84
20
450.25
0
VERTEX
8
L6D0
10
-84
20
-549.75
0
VERTEX
8
L6D0
10
-86
20
-549.75
0
VERTEX
8
L6D0
10
-86
20
450.25
0
VERTEX
8
L6D0
10
-92
20
450.25
0
VERTEX
8
L6D0
10
-92
20
-549.75
0
VERTEX
8
L6D0
10
-94
20
-549.75
0
VERTEX
8
L6D0
10
-94
20
450.25
0
VERTEX
8
L6D0
10
-100
20
450.25
0
VERTEX
8
L6D0
10
-100
20
-549.75
0
VERTEX
8
L6D0
10
-102
20
-549.75
0
VERTEX
8
L6D0
10
-102
20
450.25
0
VERTEX
8
L6D0
10
-108
20
450.25
0
VERTEX
8
L6D0
10
-108
20
-549.75
0
VERTEX
8
L6D0
10
-110
20
-549.75
0
VERTEX
8
L6D0
10
-110
20
450.25
0
VERTEX
8
L6D0
10
-116
20
450.25
0
VERTEX
8
L6D0
10
-116
20
-549.75
0
VERTEX
8
L6D0
10
-118
20
-549.75
0
VERTEX
8
L6D0
10
-118
20
450.25
0
VERTEX
8
L6D0
10
-124
20
450.25
0
VERTEX
8
L6D0
10
-124
20
-549.75
0
SEQEND
0
POLYLINE
8
L6D0
70
1
40
0
41
0
66
1
0
VERTEX
8
L6D0
10
26
20
-549.75
0
VERTEX
8
L6D0
10
26
20
450.25
0
VERTEX
8
L6D0
10
20
20
450.25
0
VERTEX
8
L6D0
10
20
20
475.25
0
VERTEX
8
L6D0
10
22
20
475.25
0
VERTEX
8
L6D0
10
22
20
550.25
0
VERTEX
8
L6D0
10
24
20
550.25
0
VERTEX
8
L6D0
10
24
20
475.25
0
VERTEX
8
L6D0
10
30
20
475.25
0
VERTEX
8
L6D0
10
30
20
550.25
0
VERTEX
8
L6D0
10
32
20
550.25
0
VERTEX
8
L6D0
10
32
20
475.25
0
VERTEX
8
L6D0
10
38
20
475.25
0
VERTEX
8
L6D0
10
38
20
550.25
0
VERTEX
8
L6D0
10
40
20
550.25
0
VERTEX
8
L6D0
10
40
20
475.25
0
VERTEX
8
L6D0
10
46
20
475.25
0
VERTEX
8
L6D0
10
46
20
550.25
0
VERTEX
8
L6D0
10
48
20
550.25
0
VERTEX
8
L6D0
10
48
20
475.25
0
VERTEX
8
L6D0
10
54
20
475.25
0
VERTEX
8
L6D0
10
54
20
550.25
0
VERTEX
8
L6D0
10
56
20
550.25
0
VERTEX
8
L6D0
10
56
20
475.25
0
VERTEX
8
L6D0
10
62
20
475.25
0
VERTEX
8
L6D0
10
62
20
550.25
0
VERTEX
8
L6D0
10
64
20
550.25
0
VERTEX
8
L6D0
10
64
20
475.25
0
VERTEX
8
L6D0
10
70
20
475.25
0
VERTEX
8
L6D0
10
70
20
550.25
0
VERTEX
8
L6D0
10
72
20
550.25
0
VERTEX
8
L6D0
10
72
20
475.25
0
VERTEX
8
L6D0
10
78
20
475.25
0
VERTEX
8
L6D0
10
78
20
550.25
0
VERTEX
8
L6D0
10
80
20
550.25
0
VERTEX
8
L6D0
10
80
20
475.25
0
VERTEX
8
L6D0
10
86
20
475.25
0
VERTEX
8
L6D0
10
86
20
550.25
0
VERTEX
8
L6D0
10
88
20
550.25
0
VERTEX
8
L6D0
10
88
20
475.25
0
VERTEX
8
L6D0
10
94
20
475.25
0
VERTEX
8
L6D0
10
94
20
550.25
0
VERTEX
8
L6D0
10
96
20
550.25
0
VERTEX
8
L6D0
10
96
20
475.25
0
VERTEX
8
L6D0
10
102
20
475.25
0
VERTEX
8
L6D0
10
102
20
550.25
0
VERTEX
8
L6D0
10
104
20
550.25
0
VERTEX
8
L6D0
10
104
20
475.25
0
VERTEX
8
L6D0
10
110
20
475.25
0
VERTEX
8
L6D0
10
110
20
550.25
0
VERTEX
8
L6D0
10
112
20
550.25
0
VERTEX
8
L6D0
10
112
20
475.25
0
VERTEX
8
L6D0
10
148
20
475.25
0
VERTEX
8
L6D0
10
148
20
-549.75
0
VERTEX
8
L6D0
10
146
20
-549.75
0
VERTEX
8
L6D0
10
146
20
450.25
0
VERTEX
8
L6D0
10
140
20
450.25
0
VERTEX
8
L6D0
10
140
20
-549.75
0
VERTEX
8
L6D0
10
138
20
-549.75
0
VERTEX
8
L6D0
10
138
20
450.25
0
VERTEX
8
L6D0
10
132
20
450.25
0
VERTEX
8
L6D0
10
132
20
-549.75
0
VERTEX
8
L6D0
10
130
20
-549.75
0
VERTEX
8
L6D0
10
130
20
450.25
0
VERTEX
8
L6D0
10
124
20
450.25
0
VERTEX
8
L6D0
10
124
20
-549.75
0
VERTEX
8
L6D0
10
122
20
-549.75
0
VERTEX
8
L6D0
10
122
20
450.25
0
VERTEX
8
L6D0
10
116
20
450.25
0
VERTEX
8
L6D0
10
116
20
-549.75
0
VERTEX
8
L6D0
10
114
20
-549.75
0
VERTEX
8
L6D0
10
114
20
450.25
0
VERTEX
8
L6D0
10
108
20
450.25
0
VERTEX
8
L6D0
10
108
20
-549.75
0
VERTEX
8
L6D0
10
106
20
-549.75
0
VERTEX
8
L6D0
10
106
20
450.25
0
VERTEX
8
L6D0
10
100
20
450.25
0
VERTEX
8
L6D0
10
100
20
-549.75
0
VERTEX
8
L6D0
10
98
20
-549.75
0
VERTEX
8
L6D0
10
98
20
450.25
0
VERTEX
8
L6D0
10
92
20
450.25
0
VERTEX
8
L6D0
10
92
20
-549.75
0
VERTEX
8
L6D0
10
90
20
-549.75
0
VERTEX
8
L6D0
10
90
20
450.25
0
VERTEX
8
L6D0
10
84
20
450.25
0
VERTEX
8
L6D0
10
84
20
-549.75
0
VERTEX
8
L6D0
10
82
20
-549.75
0
VERTEX
8
L6D0
10
82
20
450.25
0
VERTEX
8
L6D0
10
76
20
450.25
0
VERTEX
8
L6D0
10
76
20
-549.75
0
VERTEX
8
L6D0
10
74
20
-549.75
0
VERTEX
8
L6D0
10
74
20
450.25
0
VERTEX
8
L6D0
10
68
20
450.25
0
VERTEX
8
L6D0
10
68
20
-549.75
0
VERTEX
8
L6D0
10
66
20
-549.75
0
VERTEX
8
L6D0
10
66
20
450.25
0
VERTEX
8
L6D0
10
60
20
450.25
0
VERTEX
8
L6D0
10
60
20
-549.75
0
VERTEX
8
L6D0
10
58
20
-549.75
0
VERTEX
8
L6D0
10
58
20
450.25
0
VERTEX
8
L6D0
10
52
20
450.25
0
VERTEX
8
L6D0
10
52
20
-549.75
0
VERTEX
8
L6D0
10
50
20
-549.75
0
VERTEX
8
L6D0
10
50
20
450.25
0
VERTEX
8
L6D0
10
44
20
450.25
0
VERTEX
8
L6D0
10
44
20
-549.75
0
VERTEX
8
L6D0
10
42
20
-549.75
0
VERTEX
8
L6D0
10
42
20
450.25
0
VERTEX
8
L6D0
10
36
20
450.25
0
VERTEX
8
L6D0
10
36
20
-549.75
0
VERTEX
8
L6D0
10
34
20
-549.75
0
VERTEX
8
L6D0
10
34
20
450.25
0
VERTEX
8
L6D0
10
28
20
450.25
0
VERTEX
8
L6D0
10
28
20
-549.75
0
SEQEND
0
POLYLINE
8
L6D0
70
1
40
0
41
0
66
1
0
VERTEX
8
L6D0
10
154
20
-549.75
0
VERTEX
8
L6D0
10
154
20
450.25
0
VERTEX
8
L6D0
10
148
20
450.25
0
VERTEX
8
L6D0
10
148
20
475.25
0
VERTEX
8
L6D0
10
370
20
475.25
0
VERTEX
8
L6D0
10
370
20
450.25
0
VERTEX
8
L6D0
10
364
20
450.25
0
VERTEX
8
L6D0
10
364
20
-549.75
0
VERTEX
8
L6D0
10
362
20
-549.75
0
VERTEX
8
L6D0
10
362
20
450.25
0
VERTEX
8
L6D0
10
356
20
450.25
0
VERTEX
8
L6D0
10
356
20
-549.75
0
VERTEX
8
L6D0
10
354
20
-549.75
0
VERTEX
8
L6D0
10
354
20
450.25
0
VERTEX
8
L6D0
10
348
20
450.25
0
VERTEX
8
L6D0
10
348
20
-549.75
0
VERTEX
8
L6D0
10
346
20
-549.75
0
VERTEX
8
L6D0
10
346
20
450.25
0
VERTEX
8
L6D0
10
340
20
450.25
0
VERTEX
8
L6D0
10
340
20
-549.75
0
VERTEX
8
L6D0
10
338
20
-549.75
0
VERTEX
8
L6D0
10
338
20
450.25
0
VERTEX
8
L6D0
10
332
20
450.25
0
VERTEX
8
L6D0
10
332
20
-549.75
0
VERTEX
8
L6D0
10
330
20
-549.75
0
VERTEX
8
L6D0
10
330
20
450.25
0
VERTEX
8
L6D0
10
324
20
450.25
0
VERTEX
8
L6D0
10
324
20
-549.75
0
VERTEX
8
L6D0
10
322
20
-549.75
0
VERTEX
8
L6D0
10
322
20
450.25
0
VERTEX
8
L6D0
10
316
20
450.25
0
VERTEX
8
L6D0
10
316
20
-549.75
0
VERTEX
8
L6D0
10
314
20
-549.75
0
VERTEX
8
L6D0
10
314
20
450.25
0
VERTEX
8
L6D0
10
308
20
450.25
0
VERTEX
8
L6D0
10
308
20
-549.75
0
VERTEX
8
L6D0
10
306
20
-549.75
0
VERTEX
8
L6D0
10
306
20
450.25
0
VERTEX
8
L6D0
10
300
20
450.25
0
VERTEX
8
L6D0
10
300
20
-549.75
0
VERTEX
8
L6D0
10
298
20
-549.75
0
VERTEX
8
L6D0
10
298
20
450.25
0
VERTEX
8
L6D0
10
292
20
450.25
0
VERTEX
8
L6D0
10
292
20
-549.75
0
VERTEX
8
L6D0
10
290
20
-549.75
0
VERTEX
8
L6D0
10
290
20
450.25
0
VERTEX
8
L6D0
10
284
20
450.25
0
VERTEX
8
L6D0
10
284
20
-549.75
0
VERTEX
8
L6D0
10
282
20
-549.75
0
VERTEX
8
L6D0
10
282
20
450.25
0
VERTEX
8
L6D0
10
276
20
450.25
0
VERTEX
8
L6D0
10
276
20
-549.75
0
VERTEX
8
L6D0
10
274
20
-549.75
0
VERTEX
8
L6D0
10
274
20
450.25
0
VERTEX
8
L6D0
10
268
20
450.25
0
VERTEX
8
L6D0
10
268
20
-549.75
0
VERTEX
8
L6D0
10
266
20
-549.75
0
VERTEX
8
L6D0
10
266
20
450.25
0
VERTEX
8
L6D0
10
260
20
450.25
0
VERTEX
8
L6D0
10
260
20
-549.75
0
VERTEX
8
L6D0
10
258
20
-549.75
0
VERTEX
8
L6D0
10
258
20
450.25
0
VERTEX
8
L6D0
10
252
20
450.25
0
VERTEX
8
L6D0
10
252
20
-549.75
0
VERTEX
8
L6D0
10
250
20
-549.75
0
VERTEX
8
L6D0
10
250
20
450.25
0
VERTEX
8
L6D0
10
244
20
450.25
0
VERTEX
8
L6D0
10
244
20
-549.75
0
VERTEX
8
L6D0
10
242
20
-549.75
0
VERTEX
8
L6D0
10
242
20
450.25
0
VERTEX
8
L6D0
10
236
20
450.25
0
VERTEX
8
L6D0
10
236
20
-549.75
0
VERTEX
8
L6D0
10
234
20
-549.75
0
VERTEX
8
L6D0
10
234
20
450.25
0
VERTEX
8
L6D0
10
228
20
450.25
0
VERTEX
8
L6D0
10
228
20
-549.75
0
VERTEX
8
L6D0
10
226
20
-549.75
0
VERTEX
8
L6D0
10
226
20
450.25
0
VERTEX
8
L6D0
10
220
20
450.25
0
VERTEX
8
L6D0
10
220
20
-549.75
0
VERTEX
8
L6D0
10
218
20
-549.75
0
VERTEX
8
L6D0
10
218
20
450.25
0
VERTEX
8
L6D0
10
212
20
450.25
0
VERTEX
8
L6D0
10
212
20
-549.75
0
VERTEX
8
L6D0
10
210
20
-549.75
0
VERTEX
8
L6D0
10
210
20
450.25
0
VERTEX
8
L6D0
10
204
20
450.25
0
VERTEX
8
L6D0
10
204
20
-549.75
0
VERTEX
8
L6D0
10
202
20
-549.75
0
VERTEX
8
L6D0
10
202
20
450.25
0
VERTEX
8
L6D0
10
196
20
450.25
0
VERTEX
8
L6D0
10
196
20
-549.75
0
VERTEX
8
L6D0
10
194
20
-549.75
0
VERTEX
8
L6D0
10
194
20
450.25
0
VERTEX
8
L6D0
10
188
20
450.25
0
VERTEX
8
L6D0
10
188
20
-549.75
0
VERTEX
8
L6D0
10
186
20
-549.75
0
VERTEX
8
L6D0
10
186
20
450.25
0
VERTEX
8
L6D0
10
180
20
450.25
0
VERTEX
8
L6D0
10
180
20
-549.75
0
VERTEX
8
L6D0
10
178
20
-549.75
0
VERTEX
8
L6D0
10
178
20
450.25
0
VERTEX
8
L6D0
10
172
20
450.25
0
VERTEX
8
L6D0
10
172
20
-549.75
0
VERTEX
8
L6D0
10
170
20
-549.75
0
VERTEX
8
L6D0
10
170
20
450.25
0
VERTEX
8
L6D0
10
164
20
450.25
0
VERTEX
8
L6D0
10
164
20
-549.75
0
VERTEX
8
L6D0
10
162
20
-549.75
0
VERTEX
8
L6D0
10
162
20
450.25
0
VERTEX
8
L6D0
10
156
20
450.25
0
VERTEX
8
L6D0
10
156
20
-549.75
0
SEQEND
0
POLYLINE
8
L6D0
70
1
40
0
41
0
66
1
0
VERTEX
8
L6D0
10
370
20
-549.75
0
VERTEX
8
L6D0
10
370
20
475.25
0
VERTEX
8
L6D0
10
594
20
475.25
0
VERTEX
8
L6D0
10
594
20
450.25
0
VERTEX
8
L6D0
10
588
20
450.25
0
VERTEX
8
L6D0
10
588
20
-549.75
0
VERTEX
8
L6D0
10
586
20
-549.75
0
VERTEX
8
L6D0
10
586
20
450.25
0
VERTEX
8
L6D0
10
580
20
450.25
0
VERTEX
8
L6D0
10
580
20
-549.75
0
VERTEX
8
L6D0
10
578
20
-549.75
0
VERTEX
8
L6D0
10
578
20
450.25
0
VERTEX
8
L6D0
10
572
20
450.25
0
VERTEX
8
L6D0
10
572
20
-549.75
0
VERTEX
8
L6D0
10
570
20
-549.75
0
VERTEX
8
L6D0
10
570
20
450.25
0
VERTEX
8
L6D0
10
564
20
450.25
0
VERTEX
8
L6D0
10
564
20
-549.75
0
VERTEX
8
L6D0
10
562
20
-549.75
0
VERTEX
8
L6D0
10
562
20
450.25
0
VERTEX
8
L6D0
10
556
20
450.25
0
VERTEX
8
L6D0
10
556
20
-549.75
0
VERTEX
8
L6D0
10
554
20
-549.75
0
VERTEX
8
L6D0
10
554
20
450.25
0
VERTEX
8
L6D0
10
548
20
450.25
0
VERTEX
8
L6D0
10
548
20
-549.75
0
VERTEX
8
L6D0
10
546
20
-549.75
0
VERTEX
8
L6D0
10
546
20
450.25
0
VERTEX
8
L6D0
10
540
20
450.25
0
VERTEX
8
L6D0
10
540
20
-549.75
0
VERTEX
8
L6D0
10
538
20
-549.75
0
VERTEX
8
L6D0
10
538
20
450.25
0
VERTEX
8
L6D0
10
532
20
450.25
0
VERTEX
8
L6D0
10
532
20
-549.75
0
VERTEX
8
L6D0
10
530
20
-549.75
0
VERTEX
8
L6D0
10
530
20
450.25
0
VERTEX
8
L6D0
10
524
20
450.25
0
VERTEX
8
L6D0
10
524
20
-549.75
0
VERTEX
8
L6D0
10
522
20
-549.75
0
VERTEX
8
L6D0
10
522
20
450.25
0
VERTEX
8
L6D0
10
516
20
450.25
0
VERTEX
8
L6D0
10
516
20
-549.75
0
VERTEX
8
L6D0
10
514
20
-549.75
0
VERTEX
8
L6D0
10
514
20
450.25
0
VERTEX
8
L6D0
10
508
20
450.25
0
VERTEX
8
L6D0
10
508
20
-549.75
0
VERTEX
8
L6D0
10
506
20
-549.75
0
VERTEX
8
L6D0
10
506
20
450.25
0
VERTEX
8
L6D0
10
500
20
450.25
0
VERTEX
8
L6D0
10
500
20
-549.75
0
VERTEX
8
L6D0
10
498
20
-549.75
0
VERTEX
8
L6D0
10
498
20
450.25
0
VERTEX
8
L6D0
10
492
20
450.25
0
VERTEX
8
L6D0
10
492
20
-549.75
0
VERTEX
8
L6D0
10
490
20
-549.75
0
VERTEX
8
L6D0
10
490
20
450.25
0
VERTEX
8
L6D0
10
484
20
450.25
0
VERTEX
8
L6D0
10
484
20
-549.75
0
VERTEX
8
L6D0
10
482
20
-549.75
0
VERTEX
8
L6D0
10
482
20
450.25
0
VERTEX
8
L6D0
10
476
20
450.25
0
VERTEX
8
L6D0
10
476
20
-549.75
0
VERTEX
8
L6D0
10
474
20
-549.75
0
VERTEX
8
L6D0
10
474
20
450.25
0
VERTEX
8
L6D0
10
468
20
450.25
0
VERTEX
8
L6D0
10
468
20
-549.75
0
VERTEX
8
L6D0
10
466
20
-549.75
0
VERTEX
8
L6D0
10
466
20
450.25
0
VERTEX
8
L6D0
10
460
20
450.25
0
VERTEX
8
L6D0
10
460
20
-549.75
0
VERTEX
8
L6D0
10
458
20
-549.75
0
VERTEX
8
L6D0
10
458
20
450.25
0
VERTEX
8
L6D0
10
452
20
450.25
0
VERTEX
8
L6D0
10
452
20
-549.75
0
VERTEX
8
L6D0
10
450
20
-549.75
0
VERTEX
8
L6D0
10
450
20
450.25
0
VERTEX
8
L6D0
10
444
20
450.25
0
VERTEX
8
L6D0
10
444
20
-549.75
0
VERTEX
8
L6D0
10
442
20
-549.75
0
VERTEX
8
L6D0
10
442
20
450.25
0
VERTEX
8
L6D0
10
436
20
450.25
0
VERTEX
8
L6D0
10
436
20
-549.75
0
VERTEX
8
L6D0
10
434
20
-549.75
0
VERTEX
8
L6D0
10
434
20
450.25
0
VERTEX
8
L6D0
10
428
20
450.25
0
VERTEX
8
L6D0
10
428
20
-549.75
0
VERTEX
8
L6D0
10
426
20
-549.75
0
VERTEX
8
L6D0
10
426
20
450.25
0
VERTEX
8
L6D0
10
420
20
450.25
0
VERTEX
8
L6D0
10
420
20
-549.75
0
VERTEX
8
L6D0
10
418
20
-549.75
0
VERTEX
8
L6D0
10
418
20
450.25
0
VERTEX
8
L6D0
10
412
20
450.25
0
VERTEX
8
L6D0
10
412
20
-549.75
0
VERTEX
8
L6D0
10
410
20
-549.75
0
VERTEX
8
L6D0
10
410
20
450.25
0
VERTEX
8
L6D0
10
404
20
450.25
0
VERTEX
8
L6D0
10
404
20
-549.75
0
VERTEX
8
L6D0
10
402
20
-549.75
0
VERTEX
8
L6D0
10
402
20
450.25
0
VERTEX
8
L6D0
10
396
20
450.25
0
VERTEX
8
L6D0
10
396
20
-549.75
0
VERTEX
8
L6D0
10
394
20
-549.75
0
VERTEX
8
L6D0
10
394
20
450.25
0
VERTEX
8
L6D0
10
388
20
450.25
0
VERTEX
8
L6D0
10
388
20
-549.75
0
VERTEX
8
L6D0
10
386
20
-549.75
0
VERTEX
8
L6D0
10
386
20
450.25
0
VERTEX
8
L6D0
10
380
20
450.25
0
VERTEX
8
L6D0
10
380
20
-549.75
0
VERTEX
8
L6D0
10
378
20
-549.75
0
VERTEX
8
L6D0
10
378
20
450.25
0
VERTEX
8
L6D0
10
372
20
450.25
0
VERTEX
8
L6D0
10
372
20
-549.75
0
SEQEND
0
POLYLINE
8
L6D0
70
1
40
0
41
0
66
1
0
VERTEX
8
L6D0
10
594
20
-549.75
0
VERTEX
8
L6D0
10
594
20
475.25
0
VERTEX
8
L6D0
10
812
20
475.25
0
VERTEX
8
L6D0
10
812
20
-549.75
0
VERTEX
8
L6D0
10
810
20
-549.75
0
VERTEX
8
L6D0
10
810
20
450.25
0
VERTEX
8
L6D0
10
804
20
450.25
0
VERTEX
8
L6D0
10
804
20
-549.75
0
VERTEX
8
L6D0
10
802
20
-549.75
0
VERTEX
8
L6D0
10
802
20
450.25
0
VERTEX
8
L6D0
10
796
20
450.25
0
VERTEX
8
L6D0
10
796
20
-549.75
0
VERTEX
8
L6D0
10
794
20
-549.75
0
VERTEX
8
L6D0
10
794
20
450.25
0
VERTEX
8
L6D0
10
788
20
450.25
0
VERTEX
8
L6D0
10
788
20
-549.75
0
VERTEX
8
L6D0
10
786
20
-549.75
0
VERTEX
8
L6D0
10
786
20
450.25
0
VERTEX
8
L6D0
10
780
20
450.25
0
VERTEX
8
L6D0
10
780
20
-549.75
0
VERTEX
8
L6D0
10
778
20
-549.75
0
VERTEX
8
L6D0
10
778
20
450.25
0
VERTEX
8
L6D0
10
772
20
450.25
0
VERTEX
8
L6D0
10
772
20
-549.75
0
VERTEX
8
L6D0
10
770
20
-549.75
0
VERTEX
8
L6D0
10
770
20
450.25
0
VERTEX
8
L6D0
10
764
20
450.25
0
VERTEX
8
L6D0
10
764
20
-549.75
0
VERTEX
8
L6D0
10
762
20
-549.75
0
VERTEX
8
L6D0
10
762
20
450.25
0
VERTEX
8
L6D0
10
756
20
450.25
0
VERTEX
8
L6D0
10
756
20
-549.75
0
VERTEX
8
L6D0
10
754
20
-549.75
0
VERTEX
8
L6D0
10
754
20
450.25
0
VERTEX
8
L6D0
10
748
20
450.25
0
VERTEX
8
L6D0
10
748
20
-549.75
0
VERTEX
8
L6D0
10
746
20
-549.75
0
VERTEX
8
L6D0
10
746
20
450.25
0
VERTEX
8
L6D0
10
740
20
450.25
0
VERTEX
8
L6D0
10
740
20
-549.75
0
VERTEX
8
L6D0
10
738
20
-549.75
0
VERTEX
8
L6D0
10
738
20
450.25
0
VERTEX
8
L6D0
10
732
20
450.25
0
VERTEX
8
L6D0
10
732
20
-549.75
0
VERTEX
8
L6D0
10
730
20
-549.75
0
VERTEX
8
L6D0
10
730
20
450.25
0
VERTEX
8
L6D0
10
724
20
450.25
0
VERTEX
8
L6D0
10
724
20
-549.75
0
VERTEX
8
L6D0
10
722
20
-549.75
0
VERTEX
8
L6D0
10
722
20
450.25
0
VERTEX
8
L6D0
10
716
20
450.25
0
VERTEX
8
L6D0
10
716
20
-549.75
0
VERTEX
8
L6D0
10
714
20
-549.75
0
VERTEX
8
L6D0
10
714
20
450.25
0
VERTEX
8
L6D0
10
708
20
450.25
0
VERTEX
8
L6D0
10
708
20
-549.75
0
VERTEX
8
L6D0
10
706
20
-549.75
0
VERTEX
8
L6D0
10
706
20
450.25
0
VERTEX
8
L6D0
10
700
20
450.25
0
VERTEX
8
L6D0
10
700
20
-549.75
0
VERTEX
8
L6D0
10
698
20
-549.75
0
VERTEX
8
L6D0
10
698
20
450.25
0
VERTEX
8
L6D0
10
692
20
450.25
0
VERTEX
8
L6D0
10
692
20
-549.75
0
VERTEX
8
L6D0
10
690
20
-549.75
0
VERTEX
8
L6D0
10
690
20
450.25
0
VERTEX
8
L6D0
10
684
20
450.25
0
VERTEX
8
L6D0
10
684
20
-549.75
0
VERTEX
8
L6D0
10
682
20
-549.75
0
VERTEX
8
L6D0
10
682
20
450.25
0
VERTEX
8
L6D0
10
676
20
450.25
0
VERTEX
8
L6D0
10
676
20
-549.75
0
VERTEX
8
L6D0
10
674
20
-549.75
0
VERTEX
8
L6D0
10
674
20
450.25
0
VERTEX
8
L6D0
10
668
20
450.25
0
VERTEX
8
L6D0
10
668
20
-549.75
0
VERTEX
8
L6D0
10
666
20
-549.75
0
VERTEX
8
L6D0
10
666
20
450.25
0
VERTEX
8
L6D0
10
660
20
450.25
0
VERTEX
8
L6D0
10
660
20
-549.75
0
VERTEX
8
L6D0
10
658
20
-549.75
0
VERTEX
8
L6D0
10
658
20
450.25
0
VERTEX
8
L6D0
10
652
20
450.25
0
VERTEX
8
L6D0
10
652
20
-549.75
0
VERTEX
8
L6D0
10
650
20
-549.75
0
VERTEX
8
L6D0
10
650
20
450.25
0
VERTEX
8
L6D0
10
644
20
450.25
0
VERTEX
8
L6D0
10
644
20
-549.75
0
VERTEX
8
L6D0
10
642
20
-549.75
0
VERTEX
8
L6D0
10
642
20
450.25
0
VERTEX
8
L6D0
10
636
20
450.25
0
VERTEX
8
L6D0
10
636
20
-549.75
0
VERTEX
8
L6D0
10
634
20
-549.75
0
VERTEX
8
L6D0
10
634
20
450.25
0
VERTEX
8
L6D0
10
628
20
450.25
0
VERTEX
8
L6D0
10
628
20
-549.75
0
VERTEX
8
L6D0
10
626
20
-549.75
0
VERTEX
8
L6D0
10
626
20
450.25
0
VERTEX
8
L6D0
10
620
20
450.25
0
VERTEX
8
L6D0
10
620
20
-549.75
0
VERTEX
8
L6D0
10
618
20
-549.75
0
VERTEX
8
L6D0
10
618
20
450.25
0
VERTEX
8
L6D0
10
612
20
450.25
0
VERTEX
8
L6D0
10
612
20
-549.75
0
VERTEX
8
L6D0
10
610
20
-549.75
0
VERTEX
8
L6D0
10
610
20
450.25
0
VERTEX
8
L6D0
10
604
20
450.25
0
VERTEX
8
L6D0
10
604
20
-549.75
0
VERTEX
8
L6D0
10
602
20
-549.75
0
VERTEX
8
L6D0
10
602
20
450.25
0
VERTEX
8
L6D0
10
596
20
450.25
0
VERTEX
8
L6D0
10
596
20
-549.75
0
SEQEND
0
POLYLINE
8
L6D0
70
1
40
0
41
0
66
1
0
VERTEX
8
L6D0
10
818
20
-549.75
0
VERTEX
8
L6D0
10
818
20
450.25
0
VERTEX
8
L6D0
10
812
20
450.25
0
VERTEX
8
L6D0
10
812
20
475.25
0
VERTEX
8
L6D0
10
1069.5
20
475.25
0
VERTEX
8
L6D0
10
1069.5
20
-49.5
0
VERTEX
8
L6D0
10
1044.5
20
-49.5
0
VERTEX
8
L6D0
10
1044.5
20
450.25
0
VERTEX
8
L6D0
10
1028
20
450.25
0
VERTEX
8
L6D0
10
1028
20
-549.75
0
VERTEX
8
L6D0
10
1026
20
-549.75
0
VERTEX
8
L6D0
10
1026
20
450.25
0
VERTEX
8
L6D0
10
1020
20
450.25
0
VERTEX
8
L6D0
10
1020
20
-549.75
0
VERTEX
8
L6D0
10
1018
20
-549.75
0
VERTEX
8
L6D0
10
1018
20
450.25
0
VERTEX
8
L6D0
10
1012
20
450.25
0
VERTEX
8
L6D0
10
1012
20
-549.75
0
VERTEX
8
L6D0
10
1010
20
-549.75
0
VERTEX
8
L6D0
10
1010
20
450.25
0
VERTEX
8
L6D0
10
1004
20
450.25
0
VERTEX
8
L6D0
10
1004
20
-549.75
0
VERTEX
8
L6D0
10
1002
20
-549.75
0
VERTEX
8
L6D0
10
1002
20
450.25
0
VERTEX
8
L6D0
10
996
20
450.25
0
VERTEX
8
L6D0
10
996
20
-549.75
0
VERTEX
8
L6D0
10
994
20
-549.75
0
VERTEX
8
L6D0
10
994
20
450.25
0
VERTEX
8
L6D0
10
988
20
450.25
0
VERTEX
8
L6D0
10
988
20
-549.75
0
VERTEX
8
L6D0
10
986
20
-549.75
0
VERTEX
8
L6D0
10
986
20
450.25
0
VERTEX
8
L6D0
10
980
20
450.25
0
VERTEX
8
L6D0
10
980
20
-549.75
0
VERTEX
8
L6D0
10
978
20
-549.75
0
VERTEX
8
L6D0
10
978
20
450.25
0
VERTEX
8
L6D0
10
972
20
450.25
0
VERTEX
8
L6D0
10
972
20
-549.75
0
VERTEX
8
L6D0
10
970
20
-549.75
0
VERTEX
8
L6D0
10
970
20
450.25
0
VERTEX
8
L6D0
10
964
20
450.25
0
VERTEX
8
L6D0
10
964
20
-549.75
0
VERTEX
8
L6D0
10
962
20
-549.75
0
VERTEX
8
L6D0
10
962
20
450.25
0
VERTEX
8
L6D0
10
956
20
450.25
0
VERTEX
8
L6D0
10
956
20
-549.75
0
VERTEX
8
L6D0
10
954
20
-549.75
0
VERTEX
8
L6D0
10
954
20
450.25
0
VERTEX
8
L6D0
10
948
20
450.25
0
VERTEX
8
L6D0
10
948
20
-549.75
0
VERTEX
8
L6D0
10
946
20
-549.75
0
VERTEX
8
L6D0
10
946
20
450.25
0
VERTEX
8
L6D0
10
940
20
450.25
0
VERTEX
8
L6D0
10
940
20
-549.75
0
VERTEX
8
L6D0
10
938
20
-549.75
0
VERTEX
8
L6D0
10
938
20
450.25
0
VERTEX
8
L6D0
10
932
20
450.25
0
VERTEX
8
L6D0
10
932
20
-549.75
0
VERTEX
8
L6D0
10
930
20
-549.75
0
VERTEX
8
L6D0
10
930
20
450.25
0
VERTEX
8
L6D0
10
924
20
450.25
0
VERTEX
8
L6D0
10
924
20
-549.75
0
VERTEX
8
L6D0
10
922
20
-549.75
0
VERTEX
8
L6D0
10
922
20
450.25
0
VERTEX
8
L6D0
10
916
20
450.25
0
VERTEX
8
L6D0
10
916
20
-549.75
0
VERTEX
8
L6D0
10
914
20
-549.75
0
VERTEX
8
L6D0
10
914
20
450.25
0
VERTEX
8
L6D0
10
908
20
450.25
0
VERTEX
8
L6D0
10
908
20
-549.75
0
VERTEX
8
L6D0
10
906
20
-549.75
0
VERTEX
8
L6D0
10
906
20
450.25
0
VERTEX
8
L6D0
10
900
20
450.25
0
VERTEX
8
L6D0
10
900
20
-549.75
0
VERTEX
8
L6D0
10
898
20
-549.75
0
VERTEX
8
L6D0
10
898
20
450.25
0
VERTEX
8
L6D0
10
892
20
450.25
0
VERTEX
8
L6D0
10
892
20
-549.75
0
VERTEX
8
L6D0
10
890
20
-549.75
0
VERTEX
8
L6D0
10
890
20
450.25
0
VERTEX
8
L6D0
10
884
20
450.25
0
VERTEX
8
L6D0
10
884
20
-549.75
0
VERTEX
8
L6D0
10
882
20
-549.75
0
VERTEX
8
L6D0
10
882
20
450.25
0
VERTEX
8
L6D0
10
876
20
450.25
0
VERTEX
8
L6D0
10
876
20
-549.75
0
VERTEX
8
L6D0
10
874
20
-549.75
0
VERTEX
8
L6D0
10
874
20
450.25
0
VERTEX
8
L6D0
10
868
20
450.25
0
VERTEX
8
L6D0
10
868
20
-549.75
0
VERTEX
8
L6D0
10
866
20
-549.75
0
VERTEX
8
L6D0
10
866
20
450.25
0
VERTEX
8
L6D0
10
860
20
450.25
0
VERTEX
8
L6D0
10
860
20
-549.75
0
VERTEX
8
L6D0
10
858
20
-549.75
0
VERTEX
8
L6D0
10
858
20
450.25
0
VERTEX
8
L6D0
10
852
20
450.25
0
VERTEX
8
L6D0
10
852
20
-549.75
0
VERTEX
8
L6D0
10
850
20
-549.75
0
VERTEX
8
L6D0
10
850
20
450.25
0
VERTEX
8
L6D0
10
844
20
450.25
0
VERTEX
8
L6D0
10
844
20
-549.75
0
VERTEX
8
L6D0
10
842
20
-549.75
0
VERTEX
8
L6D0
10
842
20
450.25
0
VERTEX
8
L6D0
10
836
20
450.25
0
VERTEX
8
L6D0
10
836
20
-549.75
0
VERTEX
8
L6D0
10
834
20
-549.75
0
VERTEX
8
L6D0
10
834
20
450.25
0
VERTEX
8
L6D0
10
828
20
450.25
0
VERTEX
8
L6D0
10
828
20
-549.75
0
VERTEX
8
L6D0
10
826
20
-549.75
0
VERTEX
8
L6D0
10
826
20
450.25
0
VERTEX
8
L6D0
10
820
20
450.25
0
VERTEX
8
L6D0
10
820
20
-549.75
0
SEQEND
0
POLYLINE
8
L6D0
70
1
40
0
41
0
66
1
0
VERTEX
8
L6D0
10
-970
20
-576.25
0
VERTEX
8
L6D0
10
-970
20
448.75
0
VERTEX
8
L6D0
10
-968
20
448.75
0
VERTEX
8
L6D0
10
-968
20
-551.25
0
VERTEX
8
L6D0
10
-962
20
-551.25
0
VERTEX
8
L6D0
10
-962
20
448.75
0
VERTEX
8
L6D0
10
-960
20
448.75
0
VERTEX
8
L6D0
10
-960
20
-551.25
0
VERTEX
8
L6D0
10
-954
20
-551.25
0
VERTEX
8
L6D0
10
-954
20
448.75
0
VERTEX
8
L6D0
10
-952
20
448.75
0
VERTEX
8
L6D0
10
-952
20
-551.25
0
VERTEX
8
L6D0
10
-946
20
-551.25
0
VERTEX
8
L6D0
10
-946
20
448.75
0
VERTEX
8
L6D0
10
-944
20
448.75
0
VERTEX
8
L6D0
10
-944
20
-551.25
0
VERTEX
8
L6D0
10
-938
20
-551.25
0
VERTEX
8
L6D0
10
-938
20
448.75
0
VERTEX
8
L6D0
10
-936
20
448.75
0
VERTEX
8
L6D0
10
-936
20
-551.25
0
VERTEX
8
L6D0
10
-930
20
-551.25
0
VERTEX
8
L6D0
10
-930
20
448.75
0
VERTEX
8
L6D0
10
-928
20
448.75
0
VERTEX
8
L6D0
10
-928
20
-551.25
0
VERTEX
8
L6D0
10
-922
20
-551.25
0
VERTEX
8
L6D0
10
-922
20
448.75
0
VERTEX
8
L6D0
10
-920
20
448.75
0
VERTEX
8
L6D0
10
-920
20
-551.25
0
VERTEX
8
L6D0
10
-914
20
-551.25
0
VERTEX
8
L6D0
10
-914
20
448.75
0
VERTEX
8
L6D0
10
-912
20
448.75
0
VERTEX
8
L6D0
10
-912
20
-551.25
0
VERTEX
8
L6D0
10
-906
20
-551.25
0
VERTEX
8
L6D0
10
-906
20
448.75
0
VERTEX
8
L6D0
10
-904
20
448.75
0
VERTEX
8
L6D0
10
-904
20
-551.25
0
VERTEX
8
L6D0
10
-898
20
-551.25
0
VERTEX
8
L6D0
10
-898
20
448.75
0
VERTEX
8
L6D0
10
-896
20
448.75
0
VERTEX
8
L6D0
10
-896
20
-551.25
0
VERTEX
8
L6D0
10
-890
20
-551.25
0
VERTEX
8
L6D0
10
-890
20
448.75
0
VERTEX
8
L6D0
10
-888
20
448.75
0
VERTEX
8
L6D0
10
-888
20
-551.25
0
VERTEX
8
L6D0
10
-882
20
-551.25
0
VERTEX
8
L6D0
10
-882
20
448.75
0
VERTEX
8
L6D0
10
-880
20
448.75
0
VERTEX
8
L6D0
10
-880
20
-551.25
0
VERTEX
8
L6D0
10
-874
20
-551.25
0
VERTEX
8
L6D0
10
-874
20
448.75
0
VERTEX
8
L6D0
10
-872
20
448.75
0
VERTEX
8
L6D0
10
-872
20
-551.25
0
VERTEX
8
L6D0
10
-866
20
-551.25
0
VERTEX
8
L6D0
10
-866
20
448.75
0
VERTEX
8
L6D0
10
-864
20
448.75
0
VERTEX
8
L6D0
10
-864
20
-551.25
0
VERTEX
8
L6D0
10
-858
20
-551.25
0
VERTEX
8
L6D0
10
-858
20
448.75
0
VERTEX
8
L6D0
10
-856
20
448.75
0
VERTEX
8
L6D0
10
-856
20
-551.25
0
VERTEX
8
L6D0
10
-850
20
-551.25
0
VERTEX
8
L6D0
10
-850
20
448.75
0
VERTEX
8
L6D0
10
-848
20
448.75
0
VERTEX
8
L6D0
10
-848
20
-551.25
0
VERTEX
8
L6D0
10
-842
20
-551.25
0
VERTEX
8
L6D0
10
-842
20
448.75
0
VERTEX
8
L6D0
10
-840
20
448.75
0
VERTEX
8
L6D0
10
-840
20
-551.25
0
VERTEX
8
L6D0
10
-834
20
-551.25
0
VERTEX
8
L6D0
10
-834
20
448.75
0
VERTEX
8
L6D0
10
-832
20
448.75
0
VERTEX
8
L6D0
10
-832
20
-551.25
0
VERTEX
8
L6D0
10
-826
20
-551.25
0
VERTEX
8
L6D0
10
-826
20
448.75
0
VERTEX
8
L6D0
10
-824
20
448.75
0
VERTEX
8
L6D0
10
-824
20
-551.25
0
VERTEX
8
L6D0
10
-818
20
-551.25
0
VERTEX
8
L6D0
10
-818
20
448.75
0
VERTEX
8
L6D0
10
-816
20
448.75
0
VERTEX
8
L6D0
10
-816
20
-551.25
0
VERTEX
8
L6D0
10
-810
20
-551.25
0
VERTEX
8
L6D0
10
-810
20
448.75
0
VERTEX
8
L6D0
10
-808
20
448.75
0
VERTEX
8
L6D0
10
-808
20
-551.25
0
VERTEX
8
L6D0
10
-802
20
-551.25
0
VERTEX
8
L6D0
10
-802
20
448.75
0
VERTEX
8
L6D0
10
-800
20
448.75
0
VERTEX
8
L6D0
10
-800
20
-551.25
0
VERTEX
8
L6D0
10
-794
20
-551.25
0
VERTEX
8
L6D0
10
-794
20
448.75
0
VERTEX
8
L6D0
10
-792
20
448.75
0
VERTEX
8
L6D0
10
-792
20
-551.25
0
VERTEX
8
L6D0
10
-786
20
-551.25
0
VERTEX
8
L6D0
10
-786
20
448.75
0
VERTEX
8
L6D0
10
-784
20
448.75
0
VERTEX
8
L6D0
10
-784
20
-551.25
0
VERTEX
8
L6D0
10
-778
20
-551.25
0
VERTEX
8
L6D0
10
-778
20
448.75
0
VERTEX
8
L6D0
10
-776
20
448.75
0
VERTEX
8
L6D0
10
-776
20
-551.25
0
VERTEX
8
L6D0
10
-770
20
-551.25
0
VERTEX
8
L6D0
10
-770
20
448.75
0
VERTEX
8
L6D0
10
-768
20
448.75
0
VERTEX
8
L6D0
10
-768
20
-551.25
0
VERTEX
8
L6D0
10
-762
20
-551.25
0
VERTEX
8
L6D0
10
-762
20
448.75
0
VERTEX
8
L6D0
10
-760
20
448.75
0
VERTEX
8
L6D0
10
-760
20
-551.25
0
VERTEX
8
L6D0
10
-754
20
-551.25
0
VERTEX
8
L6D0
10
-754
20
448.75
0
VERTEX
8
L6D0
10
-752
20
448.75
0
VERTEX
8
L6D0
10
-752
20
-551.25
0
VERTEX
8
L6D0
10
-746
20
-551.25
0
VERTEX
8
L6D0
10
-746
20
448.75
0
VERTEX
8
L6D0
10
-744
20
448.75
0
VERTEX
8
L6D0
10
-744
20
-551.25
0
VERTEX
8
L6D0
10
-738
20
-551.25
0
VERTEX
8
L6D0
10
-738
20
448.75
0
VERTEX
8
L6D0
10
-736
20
448.75
0
VERTEX
8
L6D0
10
-736
20
-551.25
0
VERTEX
8
L6D0
10
-730
20
-551.25
0
VERTEX
8
L6D0
10
-730
20
448.75
0
VERTEX
8
L6D0
10
-728
20
448.75
0
VERTEX
8
L6D0
10
-728
20
-551.25
0
VERTEX
8
L6D0
10
-722
20
-551.25
0
VERTEX
8
L6D0
10
-722
20
-576.25
0
SEQEND
0
POLYLINE
8
L6D0
70
1
40
0
41
0
66
1
0
VERTEX
8
L6D0
10
-722
20
-576.25
0
VERTEX
8
L6D0
10
-722
20
448.75
0
VERTEX
8
L6D0
10
-720
20
448.75
0
VERTEX
8
L6D0
10
-720
20
-551.25
0
VERTEX
8
L6D0
10
-714
20
-551.25
0
VERTEX
8
L6D0
10
-714
20
448.75
0
VERTEX
8
L6D0
10
-712
20
448.75
0
VERTEX
8
L6D0
10
-712
20
-551.25
0
VERTEX
8
L6D0
10
-706
20
-551.25
0
VERTEX
8
L6D0
10
-706
20
448.75
0
VERTEX
8
L6D0
10
-704
20
448.75
0
VERTEX
8
L6D0
10
-704
20
-551.25
0
VERTEX
8
L6D0
10
-698
20
-551.25
0
VERTEX
8
L6D0
10
-698
20
448.75
0
VERTEX
8
L6D0
10
-696
20
448.75
0
VERTEX
8
L6D0
10
-696
20
-551.25
0
VERTEX
8
L6D0
10
-690
20
-551.25
0
VERTEX
8
L6D0
10
-690
20
448.75
0
VERTEX
8
L6D0
10
-688
20
448.75
0
VERTEX
8
L6D0
10
-688
20
-551.25
0
VERTEX
8
L6D0
10
-682
20
-551.25
0
VERTEX
8
L6D0
10
-682
20
448.75
0
VERTEX
8
L6D0
10
-680
20
448.75
0
VERTEX
8
L6D0
10
-680
20
-551.25
0
VERTEX
8
L6D0
10
-674
20
-551.25
0
VERTEX
8
L6D0
10
-674
20
448.75
0
VERTEX
8
L6D0
10
-672
20
448.75
0
VERTEX
8
L6D0
10
-672
20
-551.25
0
VERTEX
8
L6D0
10
-666
20
-551.25
0
VERTEX
8
L6D0
10
-666
20
448.75
0
VERTEX
8
L6D0
10
-664
20
448.75
0
VERTEX
8
L6D0
10
-664
20
-551.25
0
VERTEX
8
L6D0
10
-658
20
-551.25
0
VERTEX
8
L6D0
10
-658
20
448.75
0
VERTEX
8
L6D0
10
-656
20
448.75
0
VERTEX
8
L6D0
10
-656
20
-551.25
0
VERTEX
8
L6D0
10
-650
20
-551.25
0
VERTEX
8
L6D0
10
-650
20
448.75
0
VERTEX
8
L6D0
10
-648
20
448.75
0
VERTEX
8
L6D0
10
-648
20
-551.25
0
VERTEX
8
L6D0
10
-642
20
-551.25
0
VERTEX
8
L6D0
10
-642
20
448.75
0
VERTEX
8
L6D0
10
-640
20
448.75
0
VERTEX
8
L6D0
10
-640
20
-551.25
0
VERTEX
8
L6D0
10
-634
20
-551.25
0
VERTEX
8
L6D0
10
-634
20
448.75
0
VERTEX
8
L6D0
10
-632
20
448.75
0
VERTEX
8
L6D0
10
-632
20
-551.25
0
VERTEX
8
L6D0
10
-626
20
-551.25
0
VERTEX
8
L6D0
10
-626
20
448.75
0
VERTEX
8
L6D0
10
-624
20
448.75
0
VERTEX
8
L6D0
10
-624
20
-551.25
0
VERTEX
8
L6D0
10
-618
20
-551.25
0
VERTEX
8
L6D0
10
-618
20
448.75
0
VERTEX
8
L6D0
10
-616
20
448.75
0
VERTEX
8
L6D0
10
-616
20
-551.25
0
VERTEX
8
L6D0
10
-610
20
-551.25
0
VERTEX
8
L6D0
10
-610
20
448.75
0
VERTEX
8
L6D0
10
-608
20
448.75
0
VERTEX
8
L6D0
10
-608
20
-551.25
0
VERTEX
8
L6D0
10
-602
20
-551.25
0
VERTEX
8
L6D0
10
-602
20
448.75
0
VERTEX
8
L6D0
10
-600
20
448.75
0
VERTEX
8
L6D0
10
-600
20
-551.25
0
VERTEX
8
L6D0
10
-594
20
-551.25
0
VERTEX
8
L6D0
10
-594
20
448.75
0
VERTEX
8
L6D0
10
-592
20
448.75
0
VERTEX
8
L6D0
10
-592
20
-551.25
0
VERTEX
8
L6D0
10
-586
20
-551.25
0
VERTEX
8
L6D0
10
-586
20
448.75
0
VERTEX
8
L6D0
10
-584
20
448.75
0
VERTEX
8
L6D0
10
-584
20
-551.25
0
VERTEX
8
L6D0
10
-578
20
-551.25
0
VERTEX
8
L6D0
10
-578
20
448.75
0
VERTEX
8
L6D0
10
-576
20
448.75
0
VERTEX
8
L6D0
10
-576
20
-551.25
0
VERTEX
8
L6D0
10
-570
20
-551.25
0
VERTEX
8
L6D0
10
-570
20
448.75
0
VERTEX
8
L6D0
10
-568
20
448.75
0
VERTEX
8
L6D0
10
-568
20
-551.25
0
VERTEX
8
L6D0
10
-562
20
-551.25
0
VERTEX
8
L6D0
10
-562
20
448.75
0
VERTEX
8
L6D0
10
-560
20
448.75
0
VERTEX
8
L6D0
10
-560
20
-551.25
0
VERTEX
8
L6D0
10
-554
20
-551.25
0
VERTEX
8
L6D0
10
-554
20
448.75
0
VERTEX
8
L6D0
10
-552
20
448.75
0
VERTEX
8
L6D0
10
-552
20
-551.25
0
VERTEX
8
L6D0
10
-546
20
-551.25
0
VERTEX
8
L6D0
10
-546
20
448.75
0
VERTEX
8
L6D0
10
-544
20
448.75
0
VERTEX
8
L6D0
10
-544
20
-551.25
0
VERTEX
8
L6D0
10
-538
20
-551.25
0
VERTEX
8
L6D0
10
-538
20
448.75
0
VERTEX
8
L6D0
10
-536
20
448.75
0
VERTEX
8
L6D0
10
-536
20
-551.25
0
VERTEX
8
L6D0
10
-530
20
-551.25
0
VERTEX
8
L6D0
10
-530
20
448.75
0
VERTEX
8
L6D0
10
-528
20
448.75
0
VERTEX
8
L6D0
10
-528
20
-551.25
0
VERTEX
8
L6D0
10
-522
20
-551.25
0
VERTEX
8
L6D0
10
-522
20
448.75
0
VERTEX
8
L6D0
10
-520
20
448.75
0
VERTEX
8
L6D0
10
-520
20
-551.25
0
VERTEX
8
L6D0
10
-514
20
-551.25
0
VERTEX
8
L6D0
10
-514
20
448.75
0
VERTEX
8
L6D0
10
-512
20
448.75
0
VERTEX
8
L6D0
10
-512
20
-551.25
0
VERTEX
8
L6D0
10
-506
20
-551.25
0
VERTEX
8
L6D0
10
-506
20
448.75
0
VERTEX
8
L6D0
10
-504
20
448.75
0
VERTEX
8
L6D0
10
-504
20
-551.25
0
VERTEX
8
L6D0
10
-498
20
-551.25
0
VERTEX
8
L6D0
10
-498
20
448.75
0
VERTEX
8
L6D0
10
-496
20
448.75
0
VERTEX
8
L6D0
10
-496
20
-551.25
0
VERTEX
8
L6D0
10
-490
20
-551.25
0
VERTEX
8
L6D0
10
-490
20
448.75
0
VERTEX
8
L6D0
10
-488
20
448.75
0
VERTEX
8
L6D0
10
-488
20
-551.25
0
VERTEX
8
L6D0
10
-482
20
-551.25
0
VERTEX
8
L6D0
10
-482
20
448.75
0
VERTEX
8
L6D0
10
-480
20
448.75
0
VERTEX
8
L6D0
10
-480
20
-551.25
0
VERTEX
8
L6D0
10
-474
20
-551.25
0
VERTEX
8
L6D0
10
-474
20
448.75
0
VERTEX
8
L6D0
10
-472
20
448.75
0
VERTEX
8
L6D0
10
-472
20
-576.25
0
SEQEND
0
POLYLINE
8
L6D0
70
1
40
0
41
0
66
1
0
VERTEX
8
L6D0
10
-472
20
-576.25
0
VERTEX
8
L6D0
10
-472
20
-551.25
0
VERTEX
8
L6D0
10
-466
20
-551.25
0
VERTEX
8
L6D0
10
-466
20
448.75
0
VERTEX
8
L6D0
10
-464
20
448.75
0
VERTEX
8
L6D0
10
-464
20
-551.25
0
VERTEX
8
L6D0
10
-458
20
-551.25
0
VERTEX
8
L6D0
10
-458
20
448.75
0
VERTEX
8
L6D0
10
-456
20
448.75
0
VERTEX
8
L6D0
10
-456
20
-551.25
0
VERTEX
8
L6D0
10
-450
20
-551.25
0
VERTEX
8
L6D0
10
-450
20
448.75
0
VERTEX
8
L6D0
10
-448
20
448.75
0
VERTEX
8
L6D0
10
-448
20
-551.25
0
VERTEX
8
L6D0
10
-442
20
-551.25
0
VERTEX
8
L6D0
10
-442
20
448.75
0
VERTEX
8
L6D0
10
-440
20
448.75
0
VERTEX
8
L6D0
10
-440
20
-551.25
0
VERTEX
8
L6D0
10
-434
20
-551.25
0
VERTEX
8
L6D0
10
-434
20
448.75
0
VERTEX
8
L6D0
10
-432
20
448.75
0
VERTEX
8
L6D0
10
-432
20
-551.25
0
VERTEX
8
L6D0
10
-426
20
-551.25
0
VERTEX
8
L6D0
10
-426
20
448.75
0
VERTEX
8
L6D0
10
-424
20
448.75
0
VERTEX
8
L6D0
10
-424
20
-551.25
0
VERTEX
8
L6D0
10
-418
20
-551.25
0
VERTEX
8
L6D0
10
-418
20
448.75
0
VERTEX
8
L6D0
10
-416
20
448.75
0
VERTEX
8
L6D0
10
-416
20
-551.25
0
VERTEX
8
L6D0
10
-410
20
-551.25
0
VERTEX
8
L6D0
10
-410
20
448.75
0
VERTEX
8
L6D0
10
-408
20
448.75
0
VERTEX
8
L6D0
10
-408
20
-551.25
0
VERTEX
8
L6D0
10
-402
20
-551.25
0
VERTEX
8
L6D0
10
-402
20
448.75
0
VERTEX
8
L6D0
10
-400
20
448.75
0
VERTEX
8
L6D0
10
-400
20
-551.25
0
VERTEX
8
L6D0
10
-394
20
-551.25
0
VERTEX
8
L6D0
10
-394
20
448.75
0
VERTEX
8
L6D0
10
-392
20
448.75
0
VERTEX
8
L6D0
10
-392
20
-551.25
0
VERTEX
8
L6D0
10
-386
20
-551.25
0
VERTEX
8
L6D0
10
-386
20
448.75
0
VERTEX
8
L6D0
10
-384
20
448.75
0
VERTEX
8
L6D0
10
-384
20
-551.25
0
VERTEX
8
L6D0
10
-378
20
-551.25
0
VERTEX
8
L6D0
10
-378
20
448.75
0
VERTEX
8
L6D0
10
-376
20
448.75
0
VERTEX
8
L6D0
10
-376
20
-551.25
0
VERTEX
8
L6D0
10
-370
20
-551.25
0
VERTEX
8
L6D0
10
-370
20
448.75
0
VERTEX
8
L6D0
10
-368
20
448.75
0
VERTEX
8
L6D0
10
-368
20
-551.25
0
VERTEX
8
L6D0
10
-362
20
-551.25
0
VERTEX
8
L6D0
10
-362
20
448.75
0
VERTEX
8
L6D0
10
-360
20
448.75
0
VERTEX
8
L6D0
10
-360
20
-551.25
0
VERTEX
8
L6D0
10
-354
20
-551.25
0
VERTEX
8
L6D0
10
-354
20
448.75
0
VERTEX
8
L6D0
10
-352
20
448.75
0
VERTEX
8
L6D0
10
-352
20
-551.25
0
VERTEX
8
L6D0
10
-346
20
-551.25
0
VERTEX
8
L6D0
10
-346
20
448.75
0
VERTEX
8
L6D0
10
-344
20
448.75
0
VERTEX
8
L6D0
10
-344
20
-551.25
0
VERTEX
8
L6D0
10
-338
20
-551.25
0
VERTEX
8
L6D0
10
-338
20
448.75
0
VERTEX
8
L6D0
10
-336
20
448.75
0
VERTEX
8
L6D0
10
-336
20
-551.25
0
VERTEX
8
L6D0
10
-330
20
-551.25
0
VERTEX
8
L6D0
10
-330
20
448.75
0
VERTEX
8
L6D0
10
-328
20
448.75
0
VERTEX
8
L6D0
10
-328
20
-551.25
0
VERTEX
8
L6D0
10
-322
20
-551.25
0
VERTEX
8
L6D0
10
-322
20
448.75
0
VERTEX
8
L6D0
10
-320
20
448.75
0
VERTEX
8
L6D0
10
-320
20
-551.25
0
VERTEX
8
L6D0
10
-314
20
-551.25
0
VERTEX
8
L6D0
10
-314
20
448.75
0
VERTEX
8
L6D0
10
-312
20
448.75
0
VERTEX
8
L6D0
10
-312
20
-551.25
0
VERTEX
8
L6D0
10
-306
20
-551.25
0
VERTEX
8
L6D0
10
-306
20
448.75
0
VERTEX
8
L6D0
10
-304
20
448.75
0
VERTEX
8
L6D0
10
-304
20
-551.25
0
VERTEX
8
L6D0
10
-298
20
-551.25
0
VERTEX
8
L6D0
10
-298
20
448.75
0
VERTEX
8
L6D0
10
-296
20
448.75
0
VERTEX
8
L6D0
10
-296
20
-551.25
0
VERTEX
8
L6D0
10
-290
20
-551.25
0
VERTEX
8
L6D0
10
-290
20
448.75
0
VERTEX
8
L6D0
10
-288
20
448.75
0
VERTEX
8
L6D0
10
-288
20
-551.25
0
VERTEX
8
L6D0
10
-282
20
-551.25
0
VERTEX
8
L6D0
10
-282
20
448.75
0
VERTEX
8
L6D0
10
-280
20
448.75
0
VERTEX
8
L6D0
10
-280
20
-551.25
0
VERTEX
8
L6D0
10
-274
20
-551.25
0
VERTEX
8
L6D0
10
-274
20
448.75
0
VERTEX
8
L6D0
10
-272
20
448.75
0
VERTEX
8
L6D0
10
-272
20
-551.25
0
VERTEX
8
L6D0
10
-266
20
-551.25
0
VERTEX
8
L6D0
10
-266
20
448.75
0
VERTEX
8
L6D0
10
-264
20
448.75
0
VERTEX
8
L6D0
10
-264
20
-551.25
0
VERTEX
8
L6D0
10
-258
20
-551.25
0
VERTEX
8
L6D0
10
-258
20
448.75
0
VERTEX
8
L6D0
10
-256
20
448.75
0
VERTEX
8
L6D0
10
-256
20
-551.25
0
VERTEX
8
L6D0
10
-250
20
-551.25
0
VERTEX
8
L6D0
10
-250
20
448.75
0
VERTEX
8
L6D0
10
-248
20
448.75
0
VERTEX
8
L6D0
10
-248
20
-551.25
0
VERTEX
8
L6D0
10
-242
20
-551.25
0
VERTEX
8
L6D0
10
-242
20
448.75
0
VERTEX
8
L6D0
10
-240
20
448.75
0
VERTEX
8
L6D0
10
-240
20
-551.25
0
VERTEX
8
L6D0
10
-234
20
-551.25
0
VERTEX
8
L6D0
10
-234
20
448.75
0
VERTEX
8
L6D0
10
-232
20
448.75
0
VERTEX
8
L6D0
10
-232
20
-551.25
0
VERTEX
8
L6D0
10
-226
20
-551.25
0
VERTEX
8
L6D0
10
-226
20
448.75
0
VERTEX
8
L6D0
10
-224
20
448.75
0
VERTEX
8
L6D0
10
-224
20
-551.25
0
VERTEX
8
L6D0
10
-218
20
-551.25
0
VERTEX
8
L6D0
10
-218
20
-576.25
0
SEQEND
0
POLYLINE
8
L6D0
70
1
40
0
41
0
66
1
0
VERTEX
8
L6D0
10
-218
20
-576.25
0
VERTEX
8
L6D0
10
-218
20
448.75
0
VERTEX
8
L6D0
10
-216
20
448.75
0
VERTEX
8
L6D0
10
-216
20
-551.25
0
VERTEX
8
L6D0
10
-210
20
-551.25
0
VERTEX
8
L6D0
10
-210
20
448.75
0
VERTEX
8
L6D0
10
-208
20
448.75
0
VERTEX
8
L6D0
10
-208
20
-551.25
0
VERTEX
8
L6D0
10
-202
20
-551.25
0
VERTEX
8
L6D0
10
-202
20
448.75
0
VERTEX
8
L6D0
10
-200
20
448.75
0
VERTEX
8
L6D0
10
-200
20
-551.25
0
VERTEX
8
L6D0
10
-194
20
-551.25
0
VERTEX
8
L6D0
10
-194
20
448.75
0
VERTEX
8
L6D0
10
-192
20
448.75
0
VERTEX
8
L6D0
10
-192
20
-551.25
0
VERTEX
8
L6D0
10
-186
20
-551.25
0
VERTEX
8
L6D0
10
-186
20
448.75
0
VERTEX
8
L6D0
10
-184
20
448.75
0
VERTEX
8
L6D0
10
-184
20
-551.25
0
VERTEX
8
L6D0
10
-178
20
-551.25
0
VERTEX
8
L6D0
10
-178
20
448.75
0
VERTEX
8
L6D0
10
-176
20
448.75
0
VERTEX
8
L6D0
10
-176
20
-551.25
0
VERTEX
8
L6D0
10
-170
20
-551.25
0
VERTEX
8
L6D0
10
-170
20
448.75
0
VERTEX
8
L6D0
10
-168
20
448.75
0
VERTEX
8
L6D0
10
-168
20
-551.25
0
VERTEX
8
L6D0
10
-162
20
-551.25
0
VERTEX
8
L6D0
10
-162
20
448.75
0
VERTEX
8
L6D0
10
-160
20
448.75
0
VERTEX
8
L6D0
10
-160
20
-551.25
0
VERTEX
8
L6D0
10
-154
20
-551.25
0
VERTEX
8
L6D0
10
-154
20
448.75
0
VERTEX
8
L6D0
10
-152
20
448.75
0
VERTEX
8
L6D0
10
-152
20
-551.25
0
VERTEX
8
L6D0
10
-146
20
-551.25
0
VERTEX
8
L6D0
10
-146
20
448.75
0
VERTEX
8
L6D0
10
-144
20
448.75
0
VERTEX
8
L6D0
10
-144
20
-551.25
0
VERTEX
8
L6D0
10
-138
20
-551.25
0
VERTEX
8
L6D0
10
-138
20
448.75
0
VERTEX
8
L6D0
10
-136
20
448.75
0
VERTEX
8
L6D0
10
-136
20
-551.25
0
VERTEX
8
L6D0
10
-130
20
-551.25
0
VERTEX
8
L6D0
10
-130
20
448.75
0
VERTEX
8
L6D0
10
-128
20
448.75
0
VERTEX
8
L6D0
10
-128
20
-551.25
0
VERTEX
8
L6D0
10
-122
20
-551.25
0
VERTEX
8
L6D0
10
-122
20
448.75
0
VERTEX
8
L6D0
10
-120
20
448.75
0
VERTEX
8
L6D0
10
-120
20
-551.25
0
VERTEX
8
L6D0
10
-114
20
-551.25
0
VERTEX
8
L6D0
10
-114
20
448.75
0
VERTEX
8
L6D0
10
-112
20
448.75
0
VERTEX
8
L6D0
10
-112
20
-551.25
0
VERTEX
8
L6D0
10
-106
20
-551.25
0
VERTEX
8
L6D0
10
-106
20
448.75
0
VERTEX
8
L6D0
10
-104
20
448.75
0
VERTEX
8
L6D0
10
-104
20
-551.25
0
VERTEX
8
L6D0
10
-98
20
-551.25
0
VERTEX
8
L6D0
10
-98
20
448.75
0
VERTEX
8
L6D0
10
-96
20
448.75
0
VERTEX
8
L6D0
10
-96
20
-551.25
0
VERTEX
8
L6D0
10
-90
20
-551.25
0
VERTEX
8
L6D0
10
-90
20
448.75
0
VERTEX
8
L6D0
10
-88
20
448.75
0
VERTEX
8
L6D0
10
-88
20
-551.25
0
VERTEX
8
L6D0
10
-82
20
-551.25
0
VERTEX
8
L6D0
10
-82
20
448.75
0
VERTEX
8
L6D0
10
-80
20
448.75
0
VERTEX
8
L6D0
10
-80
20
-551.25
0
VERTEX
8
L6D0
10
-74
20
-551.25
0
VERTEX
8
L6D0
10
-74
20
448.75
0
VERTEX
8
L6D0
10
-72
20
448.75
0
VERTEX
8
L6D0
10
-72
20
-551.25
0
VERTEX
8
L6D0
10
-66
20
-551.25
0
VERTEX
8
L6D0
10
-66
20
448.75
0
VERTEX
8
L6D0
10
-64
20
448.75
0
VERTEX
8
L6D0
10
-64
20
-551.25
0
VERTEX
8
L6D0
10
-58
20
-551.25
0
VERTEX
8
L6D0
10
-58
20
448.75
0
VERTEX
8
L6D0
10
-56
20
448.75
0
VERTEX
8
L6D0
10
-56
20
-551.25
0
VERTEX
8
L6D0
10
-50
20
-551.25
0
VERTEX
8
L6D0
10
-50
20
448.75
0
VERTEX
8
L6D0
10
-48
20
448.75
0
VERTEX
8
L6D0
10
-48
20
-551.25
0
VERTEX
8
L6D0
10
-42
20
-551.25
0
VERTEX
8
L6D0
10
-42
20
448.75
0
VERTEX
8
L6D0
10
-40
20
448.75
0
VERTEX
8
L6D0
10
-40
20
-551.25
0
VERTEX
8
L6D0
10
-34
20
-551.25
0
VERTEX
8
L6D0
10
-34
20
448.75
0
VERTEX
8
L6D0
10
-32
20
448.75
0
VERTEX
8
L6D0
10
-32
20
-551.25
0
VERTEX
8
L6D0
10
-26
20
-551.25
0
VERTEX
8
L6D0
10
-26
20
448.75
0
VERTEX
8
L6D0
10
-24
20
448.75
0
VERTEX
8
L6D0
10
-24
20
-551.25
0
VERTEX
8
L6D0
10
-18
20
-551.25
0
VERTEX
8
L6D0
10
-18
20
448.75
0
VERTEX
8
L6D0
10
-16
20
448.75
0
VERTEX
8
L6D0
10
-16
20
-551.25
0
VERTEX
8
L6D0
10
-10
20
-551.25
0
VERTEX
8
L6D0
10
-10
20
448.75
0
VERTEX
8
L6D0
10
-8
20
448.75
0
VERTEX
8
L6D0
10
-8
20
-551.25
0
VERTEX
8
L6D0
10
-2
20
-551.25
0
VERTEX
8
L6D0
10
-2
20
448.75
0
VERTEX
8
L6D0
10
0
20
448.75
0
VERTEX
8
L6D0
10
0
20
-551.25
0
VERTEX
8
L6D0
10
6
20
-551.25
0
VERTEX
8
L6D0
10
6
20
448.75
0
VERTEX
8
L6D0
10
8
20
448.75
0
VERTEX
8
L6D0
10
8
20
-551.25
0
VERTEX
8
L6D0
10
14
20
-551.25
0
VERTEX
8
L6D0
10
14
20
448.75
0
VERTEX
8
L6D0
10
16
20
448.75
0
VERTEX
8
L6D0
10
16
20
-551.25
0
VERTEX
8
L6D0
10
22
20
-551.25
0
VERTEX
8
L6D0
10
22
20
448.75
0
VERTEX
8
L6D0
10
24
20
448.75
0
VERTEX
8
L6D0
10
24
20
-551.25
0
VERTEX
8
L6D0
10
30
20
-551.25
0
VERTEX
8
L6D0
10
30
20
448.75
0
VERTEX
8
L6D0
10
32
20
448.75
0
VERTEX
8
L6D0
10
32
20
-576.25
0
SEQEND
0
POLYLINE
8
L6D0
70
1
40
0
41
0
66
1
0
VERTEX
8
L6D0
10
32
20
-576.25
0
VERTEX
8
L6D0
10
32
20
-551.25
0
VERTEX
8
L6D0
10
38
20
-551.25
0
VERTEX
8
L6D0
10
38
20
448.75
0
VERTEX
8
L6D0
10
40
20
448.75
0
VERTEX
8
L6D0
10
40
20
-551.25
0
VERTEX
8
L6D0
10
46
20
-551.25
0
VERTEX
8
L6D0
10
46
20
448.75
0
VERTEX
8
L6D0
10
48
20
448.75
0
VERTEX
8
L6D0
10
48
20
-551.25
0
VERTEX
8
L6D0
10
54
20
-551.25
0
VERTEX
8
L6D0
10
54
20
448.75
0
VERTEX
8
L6D0
10
56
20
448.75
0
VERTEX
8
L6D0
10
56
20
-551.25
0
VERTEX
8
L6D0
10
62
20
-551.25
0
VERTEX
8
L6D0
10
62
20
448.75
0
VERTEX
8
L6D0
10
64
20
448.75
0
VERTEX
8
L6D0
10
64
20
-551.25
0
VERTEX
8
L6D0
10
70
20
-551.25
0
VERTEX
8
L6D0
10
70
20
448.75
0
VERTEX
8
L6D0
10
72
20
448.75
0
VERTEX
8
L6D0
10
72
20
-551.25
0
VERTEX
8
L6D0
10
78
20
-551.25
0
VERTEX
8
L6D0
10
78
20
448.75
0
VERTEX
8
L6D0
10
80
20
448.75
0
VERTEX
8
L6D0
10
80
20
-551.25
0
VERTEX
8
L6D0
10
86
20
-551.25
0
VERTEX
8
L6D0
10
86
20
448.75
0
VERTEX
8
L6D0
10
88
20
448.75
0
VERTEX
8
L6D0
10
88
20
-551.25
0
VERTEX
8
L6D0
10
94
20
-551.25
0
VERTEX
8
L6D0
10
94
20
448.75
0
VERTEX
8
L6D0
10
96
20
448.75
0
VERTEX
8
L6D0
10
96
20
-551.25
0
VERTEX
8
L6D0
10
102
20
-551.25
0
VERTEX
8
L6D0
10
102
20
448.75
0
VERTEX
8
L6D0
10
104
20
448.75
0
VERTEX
8
L6D0
10
104
20
-551.25
0
VERTEX
8
L6D0
10
110
20
-551.25
0
VERTEX
8
L6D0
10
110
20
448.75
0
VERTEX
8
L6D0
10
112
20
448.75
0
VERTEX
8
L6D0
10
112
20
-551.25
0
VERTEX
8
L6D0
10
118
20
-551.25
0
VERTEX
8
L6D0
10
118
20
448.75
0
VERTEX
8
L6D0
10
120
20
448.75
0
VERTEX
8
L6D0
10
120
20
-551.25
0
VERTEX
8
L6D0
10
126
20
-551.25
0
VERTEX
8
L6D0
10
126
20
448.75
0
VERTEX
8
L6D0
10
128
20
448.75
0
VERTEX
8
L6D0
10
128
20
-551.25
0
VERTEX
8
L6D0
10
134
20
-551.25
0
VERTEX
8
L6D0
10
134
20
448.75
0
VERTEX
8
L6D0
10
136
20
448.75
0
VERTEX
8
L6D0
10
136
20
-551.25
0
VERTEX
8
L6D0
10
142
20
-551.25
0
VERTEX
8
L6D0
10
142
20
448.75
0
VERTEX
8
L6D0
10
144
20
448.75
0
VERTEX
8
L6D0
10
144
20
-551.25
0
VERTEX
8
L6D0
10
150
20
-551.25
0
VERTEX
8
L6D0
10
150
20
448.75
0
VERTEX
8
L6D0
10
152
20
448.75
0
VERTEX
8
L6D0
10
152
20
-551.25
0
VERTEX
8
L6D0
10
158
20
-551.25
0
VERTEX
8
L6D0
10
158
20
448.75
0
VERTEX
8
L6D0
10
160
20
448.75
0
VERTEX
8
L6D0
10
160
20
-551.25
0
VERTEX
8
L6D0
10
166
20
-551.25
0
VERTEX
8
L6D0
10
166
20
448.75
0
VERTEX
8
L6D0
10
168
20
448.75
0
VERTEX
8
L6D0
10
168
20
-551.25
0
VERTEX
8
L6D0
10
174
20
-551.25
0
VERTEX
8
L6D0
10
174
20
448.75
0
VERTEX
8
L6D0
10
176
20
448.75
0
VERTEX
8
L6D0
10
176
20
-551.25
0
VERTEX
8
L6D0
10
182
20
-551.25
0
VERTEX
8
L6D0
10
182
20
448.75
0
VERTEX
8
L6D0
10
184
20
448.75
0
VERTEX
8
L6D0
10
184
20
-551.25
0
VERTEX
8
L6D0
10
190
20
-551.25
0
VERTEX
8
L6D0
10
190
20
448.75
0
VERTEX
8
L6D0
10
192
20
448.75
0
VERTEX
8
L6D0
10
192
20
-551.25
0
VERTEX
8
L6D0
10
198
20
-551.25
0
VERTEX
8
L6D0
10
198
20
448.75
0
VERTEX
8
L6D0
10
200
20
448.75
0
VERTEX
8
L6D0
10
200
20
-551.25
0
VERTEX
8
L6D0
10
206
20
-551.25
0
VERTEX
8
L6D0
10
206
20
448.75
0
VERTEX
8
L6D0
10
208
20
448.75
0
VERTEX
8
L6D0
10
208
20
-551.25
0
VERTEX
8
L6D0
10
214
20
-551.25
0
VERTEX
8
L6D0
10
214
20
448.75
0
VERTEX
8
L6D0
10
216
20
448.75
0
VERTEX
8
L6D0
10
216
20
-551.25
0
VERTEX
8
L6D0
10
222
20
-551.25
0
VERTEX
8
L6D0
10
222
20
448.75
0
VERTEX
8
L6D0
10
224
20
448.75
0
VERTEX
8
L6D0
10
224
20
-551.25
0
VERTEX
8
L6D0
10
230
20
-551.25
0
VERTEX
8
L6D0
10
230
20
448.75
0
VERTEX
8
L6D0
10
232
20
448.75
0
VERTEX
8
L6D0
10
232
20
-551.25
0
VERTEX
8
L6D0
10
238
20
-551.25
0
VERTEX
8
L6D0
10
238
20
448.75
0
VERTEX
8
L6D0
10
240
20
448.75
0
VERTEX
8
L6D0
10
240
20
-551.25
0
VERTEX
8
L6D0
10
246
20
-551.25
0
VERTEX
8
L6D0
10
246
20
448.75
0
VERTEX
8
L6D0
10
248
20
448.75
0
VERTEX
8
L6D0
10
248
20
-551.25
0
VERTEX
8
L6D0
10
254
20
-551.25
0
VERTEX
8
L6D0
10
254
20
448.75
0
VERTEX
8
L6D0
10
256
20
448.75
0
VERTEX
8
L6D0
10
256
20
-551.25
0
VERTEX
8
L6D0
10
262
20
-551.25
0
VERTEX
8
L6D0
10
262
20
448.75
0
VERTEX
8
L6D0
10
264
20
448.75
0
VERTEX
8
L6D0
10
264
20
-551.25
0
VERTEX
8
L6D0
10
270
20
-551.25
0
VERTEX
8
L6D0
10
270
20
448.75
0
VERTEX
8
L6D0
10
272
20
448.75
0
VERTEX
8
L6D0
10
272
20
-551.25
0
VERTEX
8
L6D0
10
278
20
-551.25
0
VERTEX
8
L6D0
10
278
20
448.75
0
VERTEX
8
L6D0
10
280
20
448.75
0
VERTEX
8
L6D0
10
280
20
-551.25
0
VERTEX
8
L6D0
10
286
20
-551.25
0
VERTEX
8
L6D0
10
286
20
-576.25
0
SEQEND
0
POLYLINE
8
L6D0
70
1
40
0
41
0
66
1
0
VERTEX
8
L6D0
10
286
20
-576.25
0
VERTEX
8
L6D0
10
286
20
448.75
0
VERTEX
8
L6D0
10
288
20
448.75
0
VERTEX
8
L6D0
10
288
20
-551.25
0
VERTEX
8
L6D0
10
294
20
-551.25
0
VERTEX
8
L6D0
10
294
20
448.75
0
VERTEX
8
L6D0
10
296
20
448.75
0
VERTEX
8
L6D0
10
296
20
-551.25
0
VERTEX
8
L6D0
10
302
20
-551.25
0
VERTEX
8
L6D0
10
302
20
448.75
0
VERTEX
8
L6D0
10
304
20
448.75
0
VERTEX
8
L6D0
10
304
20
-551.25
0
VERTEX
8
L6D0
10
310
20
-551.25
0
VERTEX
8
L6D0
10
310
20
448.75
0
VERTEX
8
L6D0
10
312
20
448.75
0
VERTEX
8
L6D0
10
312
20
-551.25
0
VERTEX
8
L6D0
10
318
20
-551.25
0
VERTEX
8
L6D0
10
318
20
448.75
0
VERTEX
8
L6D0
10
320
20
448.75
0
VERTEX
8
L6D0
10
320
20
-551.25
0
VERTEX
8
L6D0
10
326
20
-551.25
0
VERTEX
8
L6D0
10
326
20
448.75
0
VERTEX
8
L6D0
10
328
20
448.75
0
VERTEX
8
L6D0
10
328
20
-551.25
0
VERTEX
8
L6D0
10
334
20
-551.25
0
VERTEX
8
L6D0
10
334
20
448.75
0
VERTEX
8
L6D0
10
336
20
448.75
0
VERTEX
8
L6D0
10
336
20
-551.25
0
VERTEX
8
L6D0
10
342
20
-551.25
0
VERTEX
8
L6D0
10
342
20
448.75
0
VERTEX
8
L6D0
10
344
20
448.75
0
VERTEX
8
L6D0
10
344
20
-551.25
0
VERTEX
8
L6D0
10
350
20
-551.25
0
VERTEX
8
L6D0
10
350
20
448.75
0
VERTEX
8
L6D0
10
352
20
448.75
0
VERTEX
8
L6D0
10
352
20
-551.25
0
VERTEX
8
L6D0
10
358
20
-551.25
0
VERTEX
8
L6D0
10
358
20
448.75
0
VERTEX
8
L6D0
10
360
20
448.75
0
VERTEX
8
L6D0
10
360
20
-551.25
0
VERTEX
8
L6D0
10
366
20
-551.25
0
VERTEX
8
L6D0
10
366
20
448.75
0
VERTEX
8
L6D0
10
368
20
448.75
0
VERTEX
8
L6D0
10
368
20
-551.25
0
VERTEX
8
L6D0
10
374
20
-551.25
0
VERTEX
8
L6D0
10
374
20
448.75
0
VERTEX
8
L6D0
10
376
20
448.75
0
VERTEX
8
L6D0
10
376
20
-551.25
0
VERTEX
8
L6D0
10
382
20
-551.25
0
VERTEX
8
L6D0
10
382
20
448.75
0
VERTEX
8
L6D0
10
384
20
448.75
0
VERTEX
8
L6D0
10
384
20
-551.25
0
VERTEX
8
L6D0
10
390
20
-551.25
0
VERTEX
8
L6D0
10
390
20
448.75
0
VERTEX
8
L6D0
10
392
20
448.75
0
VERTEX
8
L6D0
10
392
20
-551.25
0
VERTEX
8
L6D0
10
398
20
-551.25
0
VERTEX
8
L6D0
10
398
20
448.75
0
VERTEX
8
L6D0
10
400
20
448.75
0
VERTEX
8
L6D0
10
400
20
-551.25
0
VERTEX
8
L6D0
10
406
20
-551.25
0
VERTEX
8
L6D0
10
406
20
448.75
0
VERTEX
8
L6D0
10
408
20
448.75
0
VERTEX
8
L6D0
10
408
20
-551.25
0
VERTEX
8
L6D0
10
414
20
-551.25
0
VERTEX
8
L6D0
10
414
20
448.75
0
VERTEX
8
L6D0
10
416
20
448.75
0
VERTEX
8
L6D0
10
416
20
-551.25
0
VERTEX
8
L6D0
10
422
20
-551.25
0
VERTEX
8
L6D0
10
422
20
448.75
0
VERTEX
8
L6D0
10
424
20
448.75
0
VERTEX
8
L6D0
10
424
20
-551.25
0
VERTEX
8
L6D0
10
430
20
-551.25
0
VERTEX
8
L6D0
10
430
20
448.75
0
VERTEX
8
L6D0
10
432
20
448.75
0
VERTEX
8
L6D0
10
432
20
-551.25
0
VERTEX
8
L6D0
10
438
20
-551.25
0
VERTEX
8
L6D0
10
438
20
448.75
0
VERTEX
8
L6D0
10
440
20
448.75
0
VERTEX
8
L6D0
10
440
20
-551.25
0
VERTEX
8
L6D0
10
446
20
-551.25
0
VERTEX
8
L6D0
10
446
20
448.75
0
VERTEX
8
L6D0
10
448
20
448.75
0
VERTEX
8
L6D0
10
448
20
-551.25
0
VERTEX
8
L6D0
10
454
20
-551.25
0
VERTEX
8
L6D0
10
454
20
448.75
0
VERTEX
8
L6D0
10
456
20
448.75
0
VERTEX
8
L6D0
10
456
20
-551.25
0
VERTEX
8
L6D0
10
462
20
-551.25
0
VERTEX
8
L6D0
10
462
20
448.75
0
VERTEX
8
L6D0
10
464
20
448.75
0
VERTEX
8
L6D0
10
464
20
-551.25
0
VERTEX
8
L6D0
10
470
20
-551.25
0
VERTEX
8
L6D0
10
470
20
448.75
0
VERTEX
8
L6D0
10
472
20
448.75
0
VERTEX
8
L6D0
10
472
20
-551.25
0
VERTEX
8
L6D0
10
478
20
-551.25
0
VERTEX
8
L6D0
10
478
20
448.75
0
VERTEX
8
L6D0
10
480
20
448.75
0
VERTEX
8
L6D0
10
480
20
-551.25
0
VERTEX
8
L6D0
10
486
20
-551.25
0
VERTEX
8
L6D0
10
486
20
448.75
0
VERTEX
8
L6D0
10
488
20
448.75
0
VERTEX
8
L6D0
10
488
20
-551.25
0
VERTEX
8
L6D0
10
494
20
-551.25
0
VERTEX
8
L6D0
10
494
20
448.75
0
VERTEX
8
L6D0
10
496
20
448.75
0
VERTEX
8
L6D0
10
496
20
-551.25
0
VERTEX
8
L6D0
10
502
20
-551.25
0
VERTEX
8
L6D0
10
502
20
448.75
0
VERTEX
8
L6D0
10
504
20
448.75
0
VERTEX
8
L6D0
10
504
20
-551.25
0
VERTEX
8
L6D0
10
510
20
-551.25
0
VERTEX
8
L6D0
10
510
20
448.75
0
VERTEX
8
L6D0
10
512
20
448.75
0
VERTEX
8
L6D0
10
512
20
-551.25
0
VERTEX
8
L6D0
10
518
20
-551.25
0
VERTEX
8
L6D0
10
518
20
448.75
0
VERTEX
8
L6D0
10
520
20
448.75
0
VERTEX
8
L6D0
10
520
20
-551.25
0
VERTEX
8
L6D0
10
526
20
-551.25
0
VERTEX
8
L6D0
10
526
20
448.75
0
VERTEX
8
L6D0
10
528
20
448.75
0
VERTEX
8
L6D0
10
528
20
-551.25
0
VERTEX
8
L6D0
10
534
20
-551.25
0
VERTEX
8
L6D0
10
534
20
448.75
0
VERTEX
8
L6D0
10
536
20
448.75
0
VERTEX
8
L6D0
10
536
20
-576.25
0
SEQEND
0
POLYLINE
8
L6D0
70
1
40
0
41
0
66
1
0
VERTEX
8
L6D0
10
536
20
-576.25
0
VERTEX
8
L6D0
10
536
20
-551.25
0
VERTEX
8
L6D0
10
542
20
-551.25
0
VERTEX
8
L6D0
10
542
20
448.75
0
VERTEX
8
L6D0
10
544
20
448.75
0
VERTEX
8
L6D0
10
544
20
-551.25
0
VERTEX
8
L6D0
10
550
20
-551.25
0
VERTEX
8
L6D0
10
550
20
448.75
0
VERTEX
8
L6D0
10
552
20
448.75
0
VERTEX
8
L6D0
10
552
20
-551.25
0
VERTEX
8
L6D0
10
558
20
-551.25
0
VERTEX
8
L6D0
10
558
20
448.75
0
VERTEX
8
L6D0
10
560
20
448.75
0
VERTEX
8
L6D0
10
560
20
-551.25
0
VERTEX
8
L6D0
10
566
20
-551.25
0
VERTEX
8
L6D0
10
566
20
448.75
0
VERTEX
8
L6D0
10
568
20
448.75
0
VERTEX
8
L6D0
10
568
20
-551.25
0
VERTEX
8
L6D0
10
574
20
-551.25
0
VERTEX
8
L6D0
10
574
20
448.75
0
VERTEX
8
L6D0
10
576
20
448.75
0
VERTEX
8
L6D0
10
576
20
-551.25
0
VERTEX
8
L6D0
10
582
20
-551.25
0
VERTEX
8
L6D0
10
582
20
448.75
0
VERTEX
8
L6D0
10
584
20
448.75
0
VERTEX
8
L6D0
10
584
20
-551.25
0
VERTEX
8
L6D0
10
590
20
-551.25
0
VERTEX
8
L6D0
10
590
20
448.75
0
VERTEX
8
L6D0
10
592
20
448.75
0
VERTEX
8
L6D0
10
592
20
-551.25
0
VERTEX
8
L6D0
10
598
20
-551.25
0
VERTEX
8
L6D0
10
598
20
448.75
0
VERTEX
8
L6D0
10
600
20
448.75
0
VERTEX
8
L6D0
10
600
20
-551.25
0
VERTEX
8
L6D0
10
606
20
-551.25
0
VERTEX
8
L6D0
10
606
20
448.75
0
VERTEX
8
L6D0
10
608
20
448.75
0
VERTEX
8
L6D0
10
608
20
-551.25
0
VERTEX
8
L6D0
10
614
20
-551.25
0
VERTEX
8
L6D0
10
614
20
448.75
0
VERTEX
8
L6D0
10
616
20
448.75
0
VERTEX
8
L6D0
10
616
20
-551.25
0
VERTEX
8
L6D0
10
622
20
-551.25
0
VERTEX
8
L6D0
10
622
20
448.75
0
VERTEX
8
L6D0
10
624
20
448.75
0
VERTEX
8
L6D0
10
624
20
-551.25
0
VERTEX
8
L6D0
10
630
20
-551.25
0
VERTEX
8
L6D0
10
630
20
448.75
0
VERTEX
8
L6D0
10
632
20
448.75
0
VERTEX
8
L6D0
10
632
20
-551.25
0
VERTEX
8
L6D0
10
638
20
-551.25
0
VERTEX
8
L6D0
10
638
20
448.75
0
VERTEX
8
L6D0
10
640
20
448.75
0
VERTEX
8
L6D0
10
640
20
-551.25
0
VERTEX
8
L6D0
10
646
20
-551.25
0
VERTEX
8
L6D0
10
646
20
448.75
0
VERTEX
8
L6D0
10
648
20
448.75
0
VERTEX
8
L6D0
10
648
20
-551.25
0
VERTEX
8
L6D0
10
654
20
-551.25
0
VERTEX
8
L6D0
10
654
20
448.75
0
VERTEX
8
L6D0
10
656
20
448.75
0
VERTEX
8
L6D0
10
656
20
-551.25
0
VERTEX
8
L6D0
10
662
20
-551.25
0
VERTEX
8
L6D0
10
662
20
448.75
0
VERTEX
8
L6D0
10
664
20
448.75
0
VERTEX
8
L6D0
10
664
20
-551.25
0
VERTEX
8
L6D0
10
670
20
-551.25
0
VERTEX
8
L6D0
10
670
20
448.75
0
VERTEX
8
L6D0
10
672
20
448.75
0
VERTEX
8
L6D0
10
672
20
-551.25
0
VERTEX
8
L6D0
10
678
20
-551.25
0
VERTEX
8
L6D0
10
678
20
448.75
0
VERTEX
8
L6D0
10
680
20
448.75
0
VERTEX
8
L6D0
10
680
20
-551.25
0
VERTEX
8
L6D0
10
686
20
-551.25
0
VERTEX
8
L6D0
10
686
20
448.75
0
VERTEX
8
L6D0
10
688
20
448.75
0
VERTEX
8
L6D0
10
688
20
-551.25
0
VERTEX
8
L6D0
10
694
20
-551.25
0
VERTEX
8
L6D0
10
694
20
448.75
0
VERTEX
8
L6D0
10
696
20
448.75
0
VERTEX
8
L6D0
10
696
20
-551.25
0
VERTEX
8
L6D0
10
702
20
-551.25
0
VERTEX
8
L6D0
10
702
20
448.75
0
VERTEX
8
L6D0
10
704
20
448.75
0
VERTEX
8
L6D0
10
704
20
-551.25
0
VERTEX
8
L6D0
10
710
20
-551.25
0
VERTEX
8
L6D0
10
710
20
448.75
0
VERTEX
8
L6D0
10
712
20
448.75
0
VERTEX
8
L6D0
10
712
20
-551.25
0
VERTEX
8
L6D0
10
718
20
-551.25
0
VERTEX
8
L6D0
10
718
20
448.75
0
VERTEX
8
L6D0
10
720
20
448.75
0
VERTEX
8
L6D0
10
720
20
-551.25
0
VERTEX
8
L6D0
10
726
20
-551.25
0
VERTEX
8
L6D0
10
726
20
448.75
0
VERTEX
8
L6D0
10
728
20
448.75
0
VERTEX
8
L6D0
10
728
20
-551.25
0
VERTEX
8
L6D0
10
734
20
-551.25
0
VERTEX
8
L6D0
10
734
20
448.75
0
VERTEX
8
L6D0
10
736
20
448.75
0
VERTEX
8
L6D0
10
736
20
-551.25
0
VERTEX
8
L6D0
10
742
20
-551.25
0
VERTEX
8
L6D0
10
742
20
448.75
0
VERTEX
8
L6D0
10
744
20
448.75
0
VERTEX
8
L6D0
10
744
20
-551.25
0
VERTEX
8
L6D0
10
750
20
-551.25
0
VERTEX
8
L6D0
10
750
20
448.75
0
VERTEX
8
L6D0
10
752
20
448.75
0
VERTEX
8
L6D0
10
752
20
-551.25
0
VERTEX
8
L6D0
10
758
20
-551.25
0
VERTEX
8
L6D0
10
758
20
448.75
0
VERTEX
8
L6D0
10
760
20
448.75
0
VERTEX
8
L6D0
10
760
20
-551.25
0
VERTEX
8
L6D0
10
766
20
-551.25
0
VERTEX
8
L6D0
10
766
20
448.75
0
VERTEX
8
L6D0
10
768
20
448.75
0
VERTEX
8
L6D0
10
768
20
-551.25
0
VERTEX
8
L6D0
10
774
20
-551.25
0
VERTEX
8
L6D0
10
774
20
448.75
0
VERTEX
8
L6D0
10
776
20
448.75
0
VERTEX
8
L6D0
10
776
20
-551.25
0
VERTEX
8
L6D0
10
782
20
-551.25
0
VERTEX
8
L6D0
10
782
20
448.75
0
VERTEX
8
L6D0
10
784
20
448.75
0
VERTEX
8
L6D0
10
784
20
-551.25
0
VERTEX
8
L6D0
10
790
20
-551.25
0
VERTEX
8
L6D0
10
790
20
-576.25
0
SEQEND
0
POLYLINE
8
L6D0
70
1
40
0
41
0
66
1
0
VERTEX
8
L6D0
10
790
20
-576.25
0
VERTEX
8
L6D0
10
790
20
448.75
0
VERTEX
8
L6D0
10
792
20
448.75
0
VERTEX
8
L6D0
10
792
20
-551.25
0
VERTEX
8
L6D0
10
798
20
-551.25
0
VERTEX
8
L6D0
10
798
20
448.75
0
VERTEX
8
L6D0
10
800
20
448.75
0
VERTEX
8
L6D0
10
800
20
-551.25
0
VERTEX
8
L6D0
10
806
20
-551.25
0
VERTEX
8
L6D0
10
806
20
448.75
0
VERTEX
8
L6D0
10
808
20
448.75
0
VERTEX
8
L6D0
10
808
20
-551.25
0
VERTEX
8
L6D0
10
814
20
-551.25
0
VERTEX
8
L6D0
10
814
20
448.75
0
VERTEX
8
L6D0
10
816
20
448.75
0
VERTEX
8
L6D0
10
816
20
-551.25
0
VERTEX
8
L6D0
10
822
20
-551.25
0
VERTEX
8
L6D0
10
822
20
448.75
0
VERTEX
8
L6D0
10
824
20
448.75
0
VERTEX
8
L6D0
10
824
20
-551.25
0
VERTEX
8
L6D0
10
830
20
-551.25
0
VERTEX
8
L6D0
10
830
20
448.75
0
VERTEX
8
L6D0
10
832
20
448.75
0
VERTEX
8
L6D0
10
832
20
-551.25
0
VERTEX
8
L6D0
10
838
20
-551.25
0
VERTEX
8
L6D0
10
838
20
448.75
0
VERTEX
8
L6D0
10
840
20
448.75
0
VERTEX
8
L6D0
10
840
20
-551.25
0
VERTEX
8
L6D0
10
846
20
-551.25
0
VERTEX
8
L6D0
10
846
20
448.75
0
VERTEX
8
L6D0
10
848
20
448.75
0
VERTEX
8
L6D0
10
848
20
-551.25
0
VERTEX
8
L6D0
10
854
20
-551.25
0
VERTEX
8
L6D0
10
854
20
448.75
0
VERTEX
8
L6D0
10
856
20
448.75
0
VERTEX
8
L6D0
10
856
20
-551.25
0
VERTEX
8
L6D0
10
862
20
-551.25
0
VERTEX
8
L6D0
10
862
20
448.75
0
VERTEX
8
L6D0
10
864
20
448.75
0
VERTEX
8
L6D0
10
864
20
-551.25
0
VERTEX
8
L6D0
10
870
20
-551.25
0
VERTEX
8
L6D0
10
870
20
448.75
0
VERTEX
8
L6D0
10
872
20
448.75
0
VERTEX
8
L6D0
10
872
20
-551.25
0
VERTEX
8
L6D0
10
878
20
-551.25
0
VERTEX
8
L6D0
10
878
20
448.75
0
VERTEX
8
L6D0
10
880
20
448.75
0
VERTEX
8
L6D0
10
880
20
-551.25
0
VERTEX
8
L6D0
10
886
20
-551.25
0
VERTEX
8
L6D0
10
886
20
448.75
0
VERTEX
8
L6D0
10
888
20
448.75
0
VERTEX
8
L6D0
10
888
20
-551.25
0
VERTEX
8
L6D0
10
894
20
-551.25
0
VERTEX
8
L6D0
10
894
20
448.75
0
VERTEX
8
L6D0
10
896
20
448.75
0
VERTEX
8
L6D0
10
896
20
-551.25
0
VERTEX
8
L6D0
10
902
20
-551.25
0
VERTEX
8
L6D0
10
902
20
448.75
0
VERTEX
8
L6D0
10
904
20
448.75
0
VERTEX
8
L6D0
10
904
20
-551.25
0
VERTEX
8
L6D0
10
910
20
-551.25
0
VERTEX
8
L6D0
10
910
20
448.75
0
VERTEX
8
L6D0
10
912
20
448.75
0
VERTEX
8
L6D0
10
912
20
-551.25
0
VERTEX
8
L6D0
10
918
20
-551.25
0
VERTEX
8
L6D0
10
918
20
448.75
0
VERTEX
8
L6D0
10
920
20
448.75
0
VERTEX
8
L6D0
10
920
20
-551.25
0
VERTEX
8
L6D0
10
926
20
-551.25
0
VERTEX
8
L6D0
10
926
20
448.75
0
VERTEX
8
L6D0
10
928
20
448.75
0
VERTEX
8
L6D0
10
928
20
-551.25
0
VERTEX
8
L6D0
10
934
20
-551.25
0
VERTEX
8
L6D0
10
934
20
448.75
0
VERTEX
8
L6D0
10
936
20
448.75
0
VERTEX
8
L6D0
10
936
20
-551.25
0
VERTEX
8
L6D0
10
942
20
-551.25
0
VERTEX
8
L6D0
10
942
20
448.75
0
VERTEX
8
L6D0
10
944
20
448.75
0
VERTEX
8
L6D0
10
944
20
-551.25
0
VERTEX
8
L6D0
10
950
20
-551.25
0
VERTEX
8
L6D0
10
950
20
448.75
0
VERTEX
8
L6D0
10
952
20
448.75
0
VERTEX
8
L6D0
10
952
20
-551.25
0
VERTEX
8
L6D0
10
958
20
-551.25
0
VERTEX
8
L6D0
10
958
20
448.75
0
VERTEX
8
L6D0
10
960
20
448.75
0
VERTEX
8
L6D0
10
960
20
-551.25
0
VERTEX
8
L6D0
10
966
20
-551.25
0
VERTEX
8
L6D0
10
966
20
448.75
0
VERTEX
8
L6D0
10
968
20
448.75
0
VERTEX
8
L6D0
10
968
20
-551.25
0
VERTEX
8
L6D0
10
974
20
-551.25
0
VERTEX
8
L6D0
10
974
20
448.75
0
VERTEX
8
L6D0
10
976
20
448.75
0
VERTEX
8
L6D0
10
976
20
-551.25
0
VERTEX
8
L6D0
10
982
20
-551.25
0
VERTEX
8
L6D0
10
982
20
448.75
0
VERTEX
8
L6D0
10
984
20
448.75
0
VERTEX
8
L6D0
10
984
20
-551.25
0
VERTEX
8
L6D0
10
990
20
-551.25
0
VERTEX
8
L6D0
10
990
20
448.75
0
VERTEX
8
L6D0
10
992
20
448.75
0
VERTEX
8
L6D0
10
992
20
-551.25
0
VERTEX
8
L6D0
10
998
20
-551.25
0
VERTEX
8
L6D0
10
998
20
448.75
0
VERTEX
8
L6D0
10
1000
20
448.75
0
VERTEX
8
L6D0
10
1000
20
-551.25
0
VERTEX
8
L6D0
10
1006
20
-551.25
0
VERTEX
8
L6D0
10
1006
20
448.75
0
VERTEX
8
L6D0
10
1008
20
448.75
0
VERTEX
8
L6D0
10
1008
20
-551.25
0
VERTEX
8
L6D0
10
1014
20
-551.25
0
VERTEX
8
L6D0
10
1014
20
448.75
0
VERTEX
8
L6D0
10
1016
20
448.75
0
VERTEX
8
L6D0
10
1016
20
-551.25
0
VERTEX
8
L6D0
10
1022
20
-551.25
0
VERTEX
8
L6D0
10
1022
20
448.75
0
VERTEX
8
L6D0
10
1024
20
448.75
0
VERTEX
8
L6D0
10
1024
20
-551.25
0
VERTEX
8
L6D0
10
1030
20
-551.25
0
VERTEX
8
L6D0
10
1030
20
448.75
0
VERTEX
8
L6D0
10
1032
20
448.75
0
VERTEX
8
L6D0
10
1032
20
-551.25
0
VERTEX
8
L6D0
10
1044.5
20
-551.25
0
VERTEX
8
L6D0
10
1044.5
20
-51.5
0
VERTEX
8
L6D0
10
1069.5
20
-51.5
0
VERTEX
8
L6D0
10
1069.5
20
-576.25
0
SEQEND
0
ENDSEC
0
EOF
