0
SECTION
2
HEADER
9
$ACADVER
1
AC1006
0
ENDSEC
0
SECTION
2
TABLES
0
TABLE
2
LAYER
70
1
0
LAYER
70
0
62
1
6
CONTINUOUS
2
L6D0
0
ENDTAB
0
ENDSEC
0
SECTION
2
BLOCKS
0
ENDSEC
0
SECTION
2
ENTITIES
0
POLYLINE
8
L6D0
70
1
40
0
41
0
66
1
0
VERTEX
8
L6D0
10
-146
20
4476.75
0
VERTEX
8
L6D0
10
-146
20
4551.75
0
VERTEX
8
L6D0
10
-150
20
4551.75
0
VERTEX
8
L6D0
10
-150
20
4576.75
0
VERTEX
8
L6D0
10
12
20
4576.75
0
VERTEX
8
L6D0
10
12
20
4551.75
0
VERTEX
8
L6D0
10
8
20
4551.75
0
VERTEX
8
L6D0
10
8
20
4476.75
0
VERTEX
8
L6D0
10
6
20
4476.75
0
VERTEX
8
L6D0
10
6
20
4551.75
0
VERTEX
8
L6D0
10
0
20
4551.75
0
VERTEX
8
L6D0
10
0
20
4476.75
0
VERTEX
8
L6D0
10
-2
20
4476.75
0
VERTEX
8
L6D0
10
-2
20
4551.75
0
VERTEX
8
L6D0
10
-8
20
4551.75
0
VERTEX
8
L6D0
10
-8
20
4476.75
0
VERTEX
8
L6D0
10
-10
20
4476.75
0
VERTEX
8
L6D0
10
-10
20
4551.75
0
VERTEX
8
L6D0
10
-16
20
4551.75
0
VERTEX
8
L6D0
10
-16
20
4476.75
0
VERTEX
8
L6D0
10
-18
20
4476.75
0
VERTEX
8
L6D0
10
-18
20
4551.75
0
VERTEX
8
L6D0
10
-24
20
4551.75
0
VERTEX
8
L6D0
10
-24
20
4476.75
0
VERTEX
8
L6D0
10
-26
20
4476.75
0
VERTEX
8
L6D0
10
-26
20
4551.75
0
VERTEX
8
L6D0
10
-32
20
4551.75
0
VERTEX
8
L6D0
10
-32
20
4476.75
0
VERTEX
8
L6D0
10
-34
20
4476.75
0
VERTEX
8
L6D0
10
-34
20
4551.75
0
VERTEX
8
L6D0
10
-40
20
4551.75
0
VERTEX
8
L6D0
10
-40
20
4476.75
0
VERTEX
8
L6D0
10
-42
20
4476.75
0
VERTEX
8
L6D0
10
-42
20
4551.75
0
VERTEX
8
L6D0
10
-48
20
4551.75
0
VERTEX
8
L6D0
10
-48
20
4476.75
0
VERTEX
8
L6D0
10
-50
20
4476.75
0
VERTEX
8
L6D0
10
-50
20
4551.75
0
VERTEX
8
L6D0
10
-56
20
4551.75
0
VERTEX
8
L6D0
10
-56
20
4476.75
0
VERTEX
8
L6D0
10
-58
20
4476.75
0
VERTEX
8
L6D0
10
-58
20
4551.75
0
VERTEX
8
L6D0
10
-64
20
4551.75
0
VERTEX
8
L6D0
10
-64
20
4476.75
0
VERTEX
8
L6D0
10
-66
20
4476.75
0
VERTEX
8
L6D0
10
-66
20
4551.75
0
VERTEX
8
L6D0
10
-72
20
4551.75
0
VERTEX
8
L6D0
10
-72
20
4476.75
0
VERTEX
8
L6D0
10
-74
20
4476.75
0
VERTEX
8
L6D0
10
-74
20
4551.75
0
VERTEX
8
L6D0
10
-80
20
4551.75
0
VERTEX
8
L6D0
10
-80
20
4476.75
0
VERTEX
8
L6D0
10
-82
20
4476.75
0
VERTEX
8
L6D0
10
-82
20
4551.75
0
VERTEX
8
L6D0
10
-88
20
4551.75
0
VERTEX
8
L6D0
10
-88
20
4476.75
0
VERTEX
8
L6D0
10
-90
20
4476.75
0
VERTEX
8
L6D0
10
-90
20
4551.75
0
VERTEX
8
L6D0
10
-96
20
4551.75
0
VERTEX
8
L6D0
10
-96
20
4476.75
0
VERTEX
8
L6D0
10
-98
20
4476.75
0
VERTEX
8
L6D0
10
-98
20
4551.75
0
VERTEX
8
L6D0
10
-104
20
4551.75
0
VERTEX
8
L6D0
10
-104
20
4476.75
0
VERTEX
8
L6D0
10
-106
20
4476.75
0
VERTEX
8
L6D0
10
-106
20
4551.75
0
VERTEX
8
L6D0
10
-112
20
4551.75
0
VERTEX
8
L6D0
10
-112
20
4476.75
0
VERTEX
8
L6D0
10
-114
20
4476.75
0
VERTEX
8
L6D0
10
-114
20
4551.75
0
VERTEX
8
L6D0
10
-120
20
4551.75
0
VERTEX
8
L6D0
10
-120
20
4476.75
0
VERTEX
8
L6D0
10
-122
20
4476.75
0
VERTEX
8
L6D0
10
-122
20
4551.75
0
VERTEX
8
L6D0
10
-128
20
4551.75
0
VERTEX
8
L6D0
10
-128
20
4476.75
0
VERTEX
8
L6D0
10
-130
20
4476.75
0
VERTEX
8
L6D0
10
-130
20
4551.75
0
VERTEX
8
L6D0
10
-136
20
4551.75
0
VERTEX
8
L6D0
10
-136
20
4476.75
0
VERTEX
8
L6D0
10
-138
20
4476.75
0
VERTEX
8
L6D0
10
-138
20
4551.75
0
VERTEX
8
L6D0
10
-144
20
4551.75
0
VERTEX
8
L6D0
10
-144
20
4476.75
0
SEQEND
0
POLYLINE
8
L6D0
70
1
40
0
41
0
66
1
0
VERTEX
8
L6D0
10
-522
20
3450.25
0
VERTEX
8
L6D0
10
-522
20
4450.25
0
VERTEX
8
L6D0
10
-528
20
4450.25
0
VERTEX
8
L6D0
10
-528
20
4211.139
0
VERTEX
8
L6D0
10
-530
20
4211.139
0
VERTEX
8
L6D0
10
-530
20
4450.25
0
VERTEX
8
L6D0
10
-1070
20
4450.25
0
VERTEX
8
L6D0
10
-1070
20
4475.25
0
VERTEX
8
L6D0
10
-330
20
4475.25
0
VERTEX
8
L6D0
10
-330
20
4450.25
0
VERTEX
8
L6D0
10
-336
20
4450.25
0
VERTEX
8
L6D0
10
-336
20
3450.25
0
VERTEX
8
L6D0
10
-338
20
3450.25
0
VERTEX
8
L6D0
10
-338
20
4450.25
0
VERTEX
8
L6D0
10
-344
20
4450.25
0
VERTEX
8
L6D0
10
-344
20
3450.25
0
VERTEX
8
L6D0
10
-346
20
3450.25
0
VERTEX
8
L6D0
10
-346
20
4450.25
0
VERTEX
8
L6D0
10
-352
20
4450.25
0
VERTEX
8
L6D0
10
-352
20
3450.25
0
VERTEX
8
L6D0
10
-354
20
3450.25
0
VERTEX
8
L6D0
10
-354
20
4450.25
0
VERTEX
8
L6D0
10
-360
20
4450.25
0
VERTEX
8
L6D0
10
-360
20
3450.25
0
VERTEX
8
L6D0
10
-362
20
3450.25
0
VERTEX
8
L6D0
10
-362
20
4450.25
0
VERTEX
8
L6D0
10
-368
20
4450.25
0
VERTEX
8
L6D0
10
-368
20
3450.25
0
VERTEX
8
L6D0
10
-370
20
3450.25
0
VERTEX
8
L6D0
10
-370
20
4450.25
0
VERTEX
8
L6D0
10
-376
20
4450.25
0
VERTEX
8
L6D0
10
-376
20
3450.25
0
VERTEX
8
L6D0
10
-378
20
3450.25
0
VERTEX
8
L6D0
10
-378
20
4450.25
0
VERTEX
8
L6D0
10
-384
20
4450.25
0
VERTEX
8
L6D0
10
-384
20
3450.25
0
VERTEX
8
L6D0
10
-386
20
3450.25
0
VERTEX
8
L6D0
10
-386
20
4450.25
0
VERTEX
8
L6D0
10
-392
20
4450.25
0
VERTEX
8
L6D0
10
-392
20
3450.25
0
VERTEX
8
L6D0
10
-394
20
3450.25
0
VERTEX
8
L6D0
10
-394
20
4450.25
0
VERTEX
8
L6D0
10
-400
20
4450.25
0
VERTEX
8
L6D0
10
-400
20
3450.25
0
VERTEX
8
L6D0
10
-402
20
3450.25
0
VERTEX
8
L6D0
10
-402
20
4450.25
0
VERTEX
8
L6D0
10
-408
20
4450.25
0
VERTEX
8
L6D0
10
-408
20
3450.25
0
VERTEX
8
L6D0
10
-410
20
3450.25
0
VERTEX
8
L6D0
10
-410
20
4450.25
0
VERTEX
8
L6D0
10
-416
20
4450.25
0
VERTEX
8
L6D0
10
-416
20
3450.25
0
VERTEX
8
L6D0
10
-418
20
3450.25
0
VERTEX
8
L6D0
10
-418
20
4450.25
0
VERTEX
8
L6D0
10
-424
20
4450.25
0
VERTEX
8
L6D0
10
-424
20
3450.25
0
VERTEX
8
L6D0
10
-426
20
3450.25
0
VERTEX
8
L6D0
10
-426
20
4450.25
0
VERTEX
8
L6D0
10
-432
20
4450.25
0
VERTEX
8
L6D0
10
-432
20
3450.25
0
VERTEX
8
L6D0
10
-434
20
3450.25
0
VERTEX
8
L6D0
10
-434
20
4450.25
0
VERTEX
8
L6D0
10
-440
20
4450.25
0
VERTEX
8
L6D0
10
-440
20
3450.25
0
VERTEX
8
L6D0
10
-442
20
3450.25
0
VERTEX
8
L6D0
10
-442
20
4450.25
0
VERTEX
8
L6D0
10
-448
20
4450.25
0
VERTEX
8
L6D0
10
-448
20
3450.25
0
VERTEX
8
L6D0
10
-450
20
3450.25
0
VERTEX
8
L6D0
10
-450
20
4450.25
0
VERTEX
8
L6D0
10
-456
20
4450.25
0
VERTEX
8
L6D0
10
-456
20
3450.25
0
VERTEX
8
L6D0
10
-458
20
3450.25
0
VERTEX
8
L6D0
10
-458
20
4450.25
0
VERTEX
8
L6D0
10
-464
20
4450.25
0
VERTEX
8
L6D0
10
-464
20
3450.25
0
VERTEX
8
L6D0
10
-466
20
3450.25
0
VERTEX
8
L6D0
10
-466
20
4450.25
0
VERTEX
8
L6D0
10
-472
20
4450.25
0
VERTEX
8
L6D0
10
-472
20
3450.25
0
VERTEX
8
L6D0
10
-474
20
3450.25
0
VERTEX
8
L6D0
10
-474
20
4450.25
0
VERTEX
8
L6D0
10
-480
20
4450.25
0
VERTEX
8
L6D0
10
-480
20
3450.25
0
VERTEX
8
L6D0
10
-482
20
3450.25
0
VERTEX
8
L6D0
10
-482
20
4450.25
0
VERTEX
8
L6D0
10
-488
20
4450.25
0
VERTEX
8
L6D0
10
-488
20
3450.25
0
VERTEX
8
L6D0
10
-490
20
3450.25
0
VERTEX
8
L6D0
10
-490
20
4450.25
0
VERTEX
8
L6D0
10
-496
20
4450.25
0
VERTEX
8
L6D0
10
-496
20
3450.25
0
VERTEX
8
L6D0
10
-498
20
3450.25
0
VERTEX
8
L6D0
10
-498
20
4450.25
0
VERTEX
8
L6D0
10
-504
20
4450.25
0
VERTEX
8
L6D0
10
-504
20
3450.25
0
VERTEX
8
L6D0
10
-506
20
3450.25
0
VERTEX
8
L6D0
10
-506
20
4450.25
0
VERTEX
8
L6D0
10
-512
20
4450.25
0
VERTEX
8
L6D0
10
-512
20
3450.25
0
VERTEX
8
L6D0
10
-514
20
3450.25
0
VERTEX
8
L6D0
10
-514
20
4450.25
0
VERTEX
8
L6D0
10
-520
20
4450.25
0
VERTEX
8
L6D0
10
-520
20
3450.25
0
SEQEND
0
POLYLINE
8
L6D0
70
1
40
0
41
0
66
1
0
VERTEX
8
L6D0
10
-330
20
3450.25
0
VERTEX
8
L6D0
10
-330
20
4475.25
0
VERTEX
8
L6D0
10
-150
20
4475.25
0
VERTEX
8
L6D0
10
-150
20
4550.25
0
VERTEX
8
L6D0
10
-148
20
4550.25
0
VERTEX
8
L6D0
10
-148
20
4475.25
0
VERTEX
8
L6D0
10
-142
20
4475.25
0
VERTEX
8
L6D0
10
-142
20
4550.25
0
VERTEX
8
L6D0
10
-140
20
4550.25
0
VERTEX
8
L6D0
10
-140
20
4450.25
0
VERTEX
8
L6D0
10
-144
20
4450.25
0
VERTEX
8
L6D0
10
-144
20
3450.25
0
VERTEX
8
L6D0
10
-146
20
3450.25
0
VERTEX
8
L6D0
10
-146
20
4450.25
0
VERTEX
8
L6D0
10
-152
20
4450.25
0
VERTEX
8
L6D0
10
-152
20
3450.25
0
VERTEX
8
L6D0
10
-154
20
3450.25
0
VERTEX
8
L6D0
10
-154
20
4450.25
0
VERTEX
8
L6D0
10
-160
20
4450.25
0
VERTEX
8
L6D0
10
-160
20
3450.25
0
VERTEX
8
L6D0
10
-162
20
3450.25
0
VERTEX
8
L6D0
10
-162
20
4450.25
0
VERTEX
8
L6D0
10
-168
20
4450.25
0
VERTEX
8
L6D0
10
-168
20
3450.25
0
VERTEX
8
L6D0
10
-170
20
3450.25
0
VERTEX
8
L6D0
10
-170
20
4450.25
0
VERTEX
8
L6D0
10
-176
20
4450.25
0
VERTEX
8
L6D0
10
-176
20
3450.25
0
VERTEX
8
L6D0
10
-178
20
3450.25
0
VERTEX
8
L6D0
10
-178
20
4450.25
0
VERTEX
8
L6D0
10
-184
20
4450.25
0
VERTEX
8
L6D0
10
-184
20
3450.25
0
VERTEX
8
L6D0
10
-186
20
3450.25
0
VERTEX
8
L6D0
10
-186
20
4450.25
0
VERTEX
8
L6D0
10
-192
20
4450.25
0
VERTEX
8
L6D0
10
-192
20
3450.25
0
VERTEX
8
L6D0
10
-194
20
3450.25
0
VERTEX
8
L6D0
10
-194
20
4450.25
0
VERTEX
8
L6D0
10
-200
20
4450.25
0
VERTEX
8
L6D0
10
-200
20
3450.25
0
VERTEX
8
L6D0
10
-202
20
3450.25
0
VERTEX
8
L6D0
10
-202
20
4450.25
0
VERTEX
8
L6D0
10
-208
20
4450.25
0
VERTEX
8
L6D0
10
-208
20
3450.25
0
VERTEX
8
L6D0
10
-210
20
3450.25
0
VERTEX
8
L6D0
10
-210
20
4450.25
0
VERTEX
8
L6D0
10
-216
20
4450.25
0
VERTEX
8
L6D0
10
-216
20
3450.25
0
VERTEX
8
L6D0
10
-218
20
3450.25
0
VERTEX
8
L6D0
10
-218
20
4450.25
0
VERTEX
8
L6D0
10
-224
20
4450.25
0
VERTEX
8
L6D0
10
-224
20
3450.25
0
VERTEX
8
L6D0
10
-226
20
3450.25
0
VERTEX
8
L6D0
10
-226
20
4450.25
0
VERTEX
8
L6D0
10
-232
20
4450.25
0
VERTEX
8
L6D0
10
-232
20
3450.25
0
VERTEX
8
L6D0
10
-234
20
3450.25
0
VERTEX
8
L6D0
10
-234
20
4450.25
0
VERTEX
8
L6D0
10
-240
20
4450.25
0
VERTEX
8
L6D0
10
-240
20
3450.25
0
VERTEX
8
L6D0
10
-242
20
3450.25
0
VERTEX
8
L6D0
10
-242
20
4450.25
0
VERTEX
8
L6D0
10
-248
20
4450.25
0
VERTEX
8
L6D0
10
-248
20
3450.25
0
VERTEX
8
L6D0
10
-250
20
3450.25
0
VERTEX
8
L6D0
10
-250
20
4450.25
0
VERTEX
8
L6D0
10
-256
20
4450.25
0
VERTEX
8
L6D0
10
-256
20
3450.25
0
VERTEX
8
L6D0
10
-258
20
3450.25
0
VERTEX
8
L6D0
10
-258
20
4450.25
0
VERTEX
8
L6D0
10
-264
20
4450.25
0
VERTEX
8
L6D0
10
-264
20
3450.25
0
VERTEX
8
L6D0
10
-266
20
3450.25
0
VERTEX
8
L6D0
10
-266
20
4450.25
0
VERTEX
8
L6D0
10
-272
20
4450.25
0
VERTEX
8
L6D0
10
-272
20
3450.25
0
VERTEX
8
L6D0
10
-274
20
3450.25
0
VERTEX
8
L6D0
10
-274
20
4450.25
0
VERTEX
8
L6D0
10
-280
20
4450.25
0
VERTEX
8
L6D0
10
-280
20
3450.25
0
VERTEX
8
L6D0
10
-282
20
3450.25
0
VERTEX
8
L6D0
10
-282
20
4450.25
0
VERTEX
8
L6D0
10
-288
20
4450.25
0
VERTEX
8
L6D0
10
-288
20
3450.25
0
VERTEX
8
L6D0
10
-290
20
3450.25
0
VERTEX
8
L6D0
10
-290
20
4450.25
0
VERTEX
8
L6D0
10
-296
20
4450.25
0
VERTEX
8
L6D0
10
-296
20
3450.25
0
VERTEX
8
L6D0
10
-298
20
3450.25
0
VERTEX
8
L6D0
10
-298
20
4450.25
0
VERTEX
8
L6D0
10
-304
20
4450.25
0
VERTEX
8
L6D0
10
-304
20
3450.25
0
VERTEX
8
L6D0
10
-306
20
3450.25
0
VERTEX
8
L6D0
10
-306
20
4450.25
0
VERTEX
8
L6D0
10
-312
20
4450.25
0
VERTEX
8
L6D0
10
-312
20
3450.25
0
VERTEX
8
L6D0
10
-314
20
3450.25
0
VERTEX
8
L6D0
10
-314
20
4450.25
0
VERTEX
8
L6D0
10
-320
20
4450.25
0
VERTEX
8
L6D0
10
-320
20
3450.25
0
VERTEX
8
L6D0
10
-322
20
3450.25
0
VERTEX
8
L6D0
10
-322
20
4450.25
0
VERTEX
8
L6D0
10
-328
20
4450.25
0
VERTEX
8
L6D0
10
-328
20
3450.25
0
SEQEND
0
POLYLINE
8
L6D0
70
1
40
0
41
0
66
1
0
VERTEX
8
L6D0
10
-138
20
3450.25
0
VERTEX
8
L6D0
10
-138
20
4450.25
0
VERTEX
8
L6D0
10
-140
20
4450.25
0
VERTEX
8
L6D0
10
-140
20
4475.25
0
VERTEX
8
L6D0
10
-134
20
4475.25
0
VERTEX
8
L6D0
10
-134
20
4550.25
0
VERTEX
8
L6D0
10
-132
20
4550.25
0
VERTEX
8
L6D0
10
-132
20
4475.25
0
VERTEX
8
L6D0
10
-126
20
4475.25
0
VERTEX
8
L6D0
10
-126
20
4550.25
0
VERTEX
8
L6D0
10
-124
20
4550.25
0
VERTEX
8
L6D0
10
-124
20
4475.25
0
VERTEX
8
L6D0
10
-118
20
4475.25
0
VERTEX
8
L6D0
10
-118
20
4550.25
0
VERTEX
8
L6D0
10
-116
20
4550.25
0
VERTEX
8
L6D0
10
-116
20
4475.25
0
VERTEX
8
L6D0
10
-110
20
4475.25
0
VERTEX
8
L6D0
10
-110
20
4550.25
0
VERTEX
8
L6D0
10
-108
20
4550.25
0
VERTEX
8
L6D0
10
-108
20
4475.25
0
VERTEX
8
L6D0
10
-102
20
4475.25
0
VERTEX
8
L6D0
10
-102
20
4550.25
0
VERTEX
8
L6D0
10
-100
20
4550.25
0
VERTEX
8
L6D0
10
-100
20
4475.25
0
VERTEX
8
L6D0
10
-94
20
4475.25
0
VERTEX
8
L6D0
10
-94
20
4550.25
0
VERTEX
8
L6D0
10
-92
20
4550.25
0
VERTEX
8
L6D0
10
-92
20
4475.25
0
VERTEX
8
L6D0
10
-86
20
4475.25
0
VERTEX
8
L6D0
10
-86
20
4550.25
0
VERTEX
8
L6D0
10
-84
20
4550.25
0
VERTEX
8
L6D0
10
-84
20
4475.25
0
VERTEX
8
L6D0
10
-78
20
4475.25
0
VERTEX
8
L6D0
10
-78
20
4550.25
0
VERTEX
8
L6D0
10
-76
20
4550.25
0
VERTEX
8
L6D0
10
-76
20
4475.25
0
VERTEX
8
L6D0
10
-70
20
4475.25
0
VERTEX
8
L6D0
10
-70
20
4550.25
0
VERTEX
8
L6D0
10
-68
20
4550.25
0
VERTEX
8
L6D0
10
-68
20
4475.25
0
VERTEX
8
L6D0
10
-62
20
4475.25
0
VERTEX
8
L6D0
10
-62
20
4550.25
0
VERTEX
8
L6D0
10
-60
20
4550.25
0
VERTEX
8
L6D0
10
-60
20
4475.25
0
VERTEX
8
L6D0
10
-54
20
4475.25
0
VERTEX
8
L6D0
10
-54
20
4550.25
0
VERTEX
8
L6D0
10
-52
20
4550.25
0
VERTEX
8
L6D0
10
-52
20
4475.25
0
VERTEX
8
L6D0
10
-46
20
4475.25
0
VERTEX
8
L6D0
10
-46
20
4550.25
0
VERTEX
8
L6D0
10
-44
20
4550.25
0
VERTEX
8
L6D0
10
-44
20
4475.25
0
VERTEX
8
L6D0
10
-38
20
4475.25
0
VERTEX
8
L6D0
10
-38
20
4450.25
0
VERTEX
8
L6D0
10
-40
20
4450.25
0
VERTEX
8
L6D0
10
-40
20
3450.25
0
VERTEX
8
L6D0
10
-42
20
3450.25
0
VERTEX
8
L6D0
10
-42
20
4450.25
0
VERTEX
8
L6D0
10
-48
20
4450.25
0
VERTEX
8
L6D0
10
-48
20
3450.25
0
VERTEX
8
L6D0
10
-50
20
3450.25
0
VERTEX
8
L6D0
10
-50
20
4450.25
0
VERTEX
8
L6D0
10
-56
20
4450.25
0
VERTEX
8
L6D0
10
-56
20
3450.25
0
VERTEX
8
L6D0
10
-58
20
3450.25
0
VERTEX
8
L6D0
10
-58
20
4450.25
0
VERTEX
8
L6D0
10
-64
20
4450.25
0
VERTEX
8
L6D0
10
-64
20
3450.25
0
VERTEX
8
L6D0
10
-66
20
3450.25
0
VERTEX
8
L6D0
10
-66
20
4450.25
0
VERTEX
8
L6D0
10
-72
20
4450.25
0
VERTEX
8
L6D0
10
-72
20
3450.25
0
VERTEX
8
L6D0
10
-74
20
3450.25
0
VERTEX
8
L6D0
10
-74
20
4450.25
0
VERTEX
8
L6D0
10
-80
20
4450.25
0
VERTEX
8
L6D0
10
-80
20
3450.25
0
VERTEX
8
L6D0
10
-82
20
3450.25
0
VERTEX
8
L6D0
10
-82
20
4450.25
0
VERTEX
8
L6D0
10
-88
20
4450.25
0
VERTEX
8
L6D0
10
-88
20
3450.25
0
VERTEX
8
L6D0
10
-90
20
3450.25
0
VERTEX
8
L6D0
10
-90
20
4450.25
0
VERTEX
8
L6D0
10
-96
20
4450.25
0
VERTEX
8
L6D0
10
-96
20
3450.25
0
VERTEX
8
L6D0
10
-98
20
3450.25
0
VERTEX
8
L6D0
10
-98
20
4450.25
0
VERTEX
8
L6D0
10
-104
20
4450.25
0
VERTEX
8
L6D0
10
-104
20
3450.25
0
VERTEX
8
L6D0
10
-106
20
3450.25
0
VERTEX
8
L6D0
10
-106
20
4450.25
0
VERTEX
8
L6D0
10
-112
20
4450.25
0
VERTEX
8
L6D0
10
-112
20
3450.25
0
VERTEX
8
L6D0
10
-114
20
3450.25
0
VERTEX
8
L6D0
10
-114
20
4450.25
0
VERTEX
8
L6D0
10
-120
20
4450.25
0
VERTEX
8
L6D0
10
-120
20
3450.25
0
VERTEX
8
L6D0
10
-122
20
3450.25
0
VERTEX
8
L6D0
10
-122
20
4450.25
0
VERTEX
8
L6D0
10
-128
20
4450.25
0
VERTEX
8
L6D0
10
-128
20
3450.25
0
VERTEX
8
L6D0
10
-130
20
3450.25
0
VERTEX
8
L6D0
10
-130
20
4450.25
0
VERTEX
8
L6D0
10
-136
20
4450.25
0
VERTEX
8
L6D0
10
-136
20
3450.25
0
SEQEND
0
POLYLINE
8
L6D0
70
1
40
0
41
0
66
1
0
VERTEX
8
L6D0
10
-34
20
3450.25
0
VERTEX
8
L6D0
10
-34
20
4450.25
0
VERTEX
8
L6D0
10
-38
20
4450.25
0
VERTEX
8
L6D0
10
-38
20
4550.25
0
VERTEX
8
L6D0
10
-36
20
4550.25
0
VERTEX
8
L6D0
10
-36
20
4475.25
0
VERTEX
8
L6D0
10
-30
20
4475.25
0
VERTEX
8
L6D0
10
-30
20
4550.25
0
VERTEX
8
L6D0
10
-28
20
4550.25
0
VERTEX
8
L6D0
10
-28
20
4475.25
0
VERTEX
8
L6D0
10
-22
20
4475.25
0
VERTEX
8
L6D0
10
-22
20
4550.25
0
VERTEX
8
L6D0
10
-20
20
4550.25
0
VERTEX
8
L6D0
10
-20
20
4475.25
0
VERTEX
8
L6D0
10
-14
20
4475.25
0
VERTEX
8
L6D0
10
-14
20
4550.25
0
VERTEX
8
L6D0
10
-12
20
4550.25
0
VERTEX
8
L6D0
10
-12
20
4475.25
0
VERTEX
8
L6D0
10
-6
20
4475.25
0
VERTEX
8
L6D0
10
-6
20
4550.25
0
VERTEX
8
L6D0
10
-4
20
4550.25
0
VERTEX
8
L6D0
10
-4
20
4475.25
0
VERTEX
8
L6D0
10
2
20
4475.25
0
VERTEX
8
L6D0
10
2
20
4550.25
0
VERTEX
8
L6D0
10
4
20
4550.25
0
VERTEX
8
L6D0
10
4
20
4475.25
0
VERTEX
8
L6D0
10
10
20
4475.25
0
VERTEX
8
L6D0
10
10
20
4550.25
0
VERTEX
8
L6D0
10
12
20
4550.25
0
VERTEX
8
L6D0
10
12
20
4475.25
0
VERTEX
8
L6D0
10
118
20
4475.25
0
VERTEX
8
L6D0
10
118
20
4450.25
0
VERTEX
8
L6D0
10
112
20
4450.25
0
VERTEX
8
L6D0
10
112
20
3450.25
0
VERTEX
8
L6D0
10
110
20
3450.25
0
VERTEX
8
L6D0
10
110
20
4450.25
0
VERTEX
8
L6D0
10
104
20
4450.25
0
VERTEX
8
L6D0
10
104
20
3450.25
0
VERTEX
8
L6D0
10
102
20
3450.25
0
VERTEX
8
L6D0
10
102
20
4450.25
0
VERTEX
8
L6D0
10
96
20
4450.25
0
VERTEX
8
L6D0
10
96
20
3450.25
0
VERTEX
8
L6D0
10
94
20
3450.25
0
VERTEX
8
L6D0
10
94
20
4450.25
0
VERTEX
8
L6D0
10
88
20
4450.25
0
VERTEX
8
L6D0
10
88
20
3450.25
0
VERTEX
8
L6D0
10
86
20
3450.25
0
VERTEX
8
L6D0
10
86
20
4450.25
0
VERTEX
8
L6D0
10
80
20
4450.25
0
VERTEX
8
L6D0
10
80
20
3450.25
0
VERTEX
8
L6D0
10
78
20
3450.25
0
VERTEX
8
L6D0
10
78
20
4450.25
0
VERTEX
8
L6D0
10
72
20
4450.25
0
VERTEX
8
L6D0
10
72
20
3450.25
0
VERTEX
8
L6D0
10
70
20
3450.25
0
VERTEX
8
L6D0
10
70
20
4450.25
0
VERTEX
8
L6D0
10
64
20
4450.25
0
VERTEX
8
L6D0
10
64
20
3450.25
0
VERTEX
8
L6D0
10
62
20
3450.25
0
VERTEX
8
L6D0
10
62
20
4450.25
0
VERTEX
8
L6D0
10
56
20
4450.25
0
VERTEX
8
L6D0
10
56
20
3450.25
0
VERTEX
8
L6D0
10
54
20
3450.25
0
VERTEX
8
L6D0
10
54
20
4450.25
0
VERTEX
8
L6D0
10
48
20
4450.25
0
VERTEX
8
L6D0
10
48
20
3450.25
0
VERTEX
8
L6D0
10
46
20
3450.25
0
VERTEX
8
L6D0
10
46
20
4450.25
0
VERTEX
8
L6D0
10
40
20
4450.25
0
VERTEX
8
L6D0
10
40
20
3450.25
0
VERTEX
8
L6D0
10
38
20
3450.25
0
VERTEX
8
L6D0
10
38
20
4450.25
0
VERTEX
8
L6D0
10
32
20
4450.25
0
VERTEX
8
L6D0
10
32
20
3450.25
0
VERTEX
8
L6D0
10
30
20
3450.25
0
VERTEX
8
L6D0
10
30
20
4450.25
0
VERTEX
8
L6D0
10
24
20
4450.25
0
VERTEX
8
L6D0
10
24
20
3450.25
0
VERTEX
8
L6D0
10
22
20
3450.25
0
VERTEX
8
L6D0
10
22
20
4450.25
0
VERTEX
8
L6D0
10
16
20
4450.25
0
VERTEX
8
L6D0
10
16
20
3450.25
0
VERTEX
8
L6D0
10
14
20
3450.25
0
VERTEX
8
L6D0
10
14
20
4450.25
0
VERTEX
8
L6D0
10
8
20
4450.25
0
VERTEX
8
L6D0
10
8
20
3450.25
0
VERTEX
8
L6D0
10
6
20
3450.25
0
VERTEX
8
L6D0
10
6
20
4450.25
0
VERTEX
8
L6D0
10
0
20
4450.25
0
VERTEX
8
L6D0
10
0
20
3450.25
0
VERTEX
8
L6D0
10
-2
20
3450.25
0
VERTEX
8
L6D0
10
-2
20
4450.25
0
VERTEX
8
L6D0
10
-8
20
4450.25
0
VERTEX
8
L6D0
10
-8
20
3450.25
0
VERTEX
8
L6D0
10
-10
20
3450.25
0
VERTEX
8
L6D0
10
-10
20
4450.25
0
VERTEX
8
L6D0
10
-16
20
4450.25
0
VERTEX
8
L6D0
10
-16
20
3450.25
0
VERTEX
8
L6D0
10
-18
20
3450.25
0
VERTEX
8
L6D0
10
-18
20
4450.25
0
VERTEX
8
L6D0
10
-24
20
4450.25
0
VERTEX
8
L6D0
10
-24
20
3450.25
0
VERTEX
8
L6D0
10
-26
20
3450.25
0
VERTEX
8
L6D0
10
-26
20
4450.25
0
VERTEX
8
L6D0
10
-32
20
4450.25
0
VERTEX
8
L6D0
10
-32
20
3450.25
0
SEQEND
0
POLYLINE
8
L6D0
70
1
40
0
41
0
66
1
0
VERTEX
8
L6D0
10
118
20
3450.25
0
VERTEX
8
L6D0
10
118
20
4475.25
0
VERTEX
8
L6D0
10
320
20
4475.25
0
VERTEX
8
L6D0
10
320
20
3450.25
0
VERTEX
8
L6D0
10
318
20
3450.25
0
VERTEX
8
L6D0
10
318
20
4450.25
0
VERTEX
8
L6D0
10
312
20
4450.25
0
VERTEX
8
L6D0
10
312
20
3450.25
0
VERTEX
8
L6D0
10
310
20
3450.25
0
VERTEX
8
L6D0
10
310
20
4450.25
0
VERTEX
8
L6D0
10
304
20
4450.25
0
VERTEX
8
L6D0
10
304
20
3450.25
0
VERTEX
8
L6D0
10
302
20
3450.25
0
VERTEX
8
L6D0
10
302
20
4450.25
0
VERTEX
8
L6D0
10
296
20
4450.25
0
VERTEX
8
L6D0
10
296
20
3450.25
0
VERTEX
8
L6D0
10
294
20
3450.25
0
VERTEX
8
L6D0
10
294
20
4450.25
0
VERTEX
8
L6D0
10
288
20
4450.25
0
VERTEX
8
L6D0
10
288
20
3450.25
0
VERTEX
8
L6D0
10
286
20
3450.25
0
VERTEX
8
L6D0
10
286
20
4450.25
0
VERTEX
8
L6D0
10
280
20
4450.25
0
VERTEX
8
L6D0
10
280
20
3450.25
0
VERTEX
8
L6D0
10
278
20
3450.25
0
VERTEX
8
L6D0
10
278
20
4450.25
0
VERTEX
8
L6D0
10
272
20
4450.25
0
VERTEX
8
L6D0
10
272
20
3450.25
0
VERTEX
8
L6D0
10
270
20
3450.25
0
VERTEX
8
L6D0
10
270
20
4450.25
0
VERTEX
8
L6D0
10
264
20
4450.25
0
VERTEX
8
L6D0
10
264
20
3450.25
0
VERTEX
8
L6D0
10
262
20
3450.25
0
VERTEX
8
L6D0
10
262
20
4450.25
0
VERTEX
8
L6D0
10
256
20
4450.25
0
VERTEX
8
L6D0
10
256
20
3450.25
0
VERTEX
8
L6D0
10
254
20
3450.25
0
VERTEX
8
L6D0
10
254
20
4450.25
0
VERTEX
8
L6D0
10
248
20
4450.25
0
VERTEX
8
L6D0
10
248
20
3450.25
0
VERTEX
8
L6D0
10
246
20
3450.25
0
VERTEX
8
L6D0
10
246
20
4450.25
0
VERTEX
8
L6D0
10
240
20
4450.25
0
VERTEX
8
L6D0
10
240
20
3450.25
0
VERTEX
8
L6D0
10
238
20
3450.25
0
VERTEX
8
L6D0
10
238
20
4450.25
0
VERTEX
8
L6D0
10
232
20
4450.25
0
VERTEX
8
L6D0
10
232
20
3450.25
0
VERTEX
8
L6D0
10
230
20
3450.25
0
VERTEX
8
L6D0
10
230
20
4450.25
0
VERTEX
8
L6D0
10
224
20
4450.25
0
VERTEX
8
L6D0
10
224
20
3450.25
0
VERTEX
8
L6D0
10
222
20
3450.25
0
VERTEX
8
L6D0
10
222
20
4450.25
0
VERTEX
8
L6D0
10
216
20
4450.25
0
VERTEX
8
L6D0
10
216
20
3450.25
0
VERTEX
8
L6D0
10
214
20
3450.25
0
VERTEX
8
L6D0
10
214
20
4450.25
0
VERTEX
8
L6D0
10
208
20
4450.25
0
VERTEX
8
L6D0
10
208
20
3450.25
0
VERTEX
8
L6D0
10
206
20
3450.25
0
VERTEX
8
L6D0
10
206
20
4450.25
0
VERTEX
8
L6D0
10
200
20
4450.25
0
VERTEX
8
L6D0
10
200
20
3450.25
0
VERTEX
8
L6D0
10
198
20
3450.25
0
VERTEX
8
L6D0
10
198
20
4450.25
0
VERTEX
8
L6D0
10
192
20
4450.25
0
VERTEX
8
L6D0
10
192
20
3450.25
0
VERTEX
8
L6D0
10
190
20
3450.25
0
VERTEX
8
L6D0
10
190
20
4450.25
0
VERTEX
8
L6D0
10
184
20
4450.25
0
VERTEX
8
L6D0
10
184
20
3450.25
0
VERTEX
8
L6D0
10
182
20
3450.25
0
VERTEX
8
L6D0
10
182
20
4450.25
0
VERTEX
8
L6D0
10
176
20
4450.25
0
VERTEX
8
L6D0
10
176
20
3450.25
0
VERTEX
8
L6D0
10
174
20
3450.25
0
VERTEX
8
L6D0
10
174
20
4450.25
0
VERTEX
8
L6D0
10
168
20
4450.25
0
VERTEX
8
L6D0
10
168
20
3450.25
0
VERTEX
8
L6D0
10
166
20
3450.25
0
VERTEX
8
L6D0
10
166
20
4450.25
0
VERTEX
8
L6D0
10
160
20
4450.25
0
VERTEX
8
L6D0
10
160
20
3450.25
0
VERTEX
8
L6D0
10
158
20
3450.25
0
VERTEX
8
L6D0
10
158
20
4450.25
0
VERTEX
8
L6D0
10
152
20
4450.25
0
VERTEX
8
L6D0
10
152
20
3450.25
0
VERTEX
8
L6D0
10
150
20
3450.25
0
VERTEX
8
L6D0
10
150
20
4450.25
0
VERTEX
8
L6D0
10
144
20
4450.25
0
VERTEX
8
L6D0
10
144
20
3450.25
0
VERTEX
8
L6D0
10
142
20
3450.25
0
VERTEX
8
L6D0
10
142
20
4450.25
0
VERTEX
8
L6D0
10
136
20
4450.25
0
VERTEX
8
L6D0
10
136
20
3450.25
0
VERTEX
8
L6D0
10
134
20
3450.25
0
VERTEX
8
L6D0
10
134
20
4450.25
0
VERTEX
8
L6D0
10
128
20
4450.25
0
VERTEX
8
L6D0
10
128
20
3450.25
0
VERTEX
8
L6D0
10
126
20
3450.25
0
VERTEX
8
L6D0
10
126
20
4450.25
0
VERTEX
8
L6D0
10
120
20
4450.25
0
VERTEX
8
L6D0
10
120
20
3450.25
0
SEQEND
0
POLYLINE
8
L6D0
70
1
40
0
41
0
66
1
0
VERTEX
8
L6D0
10
326
20
3450.25
0
VERTEX
8
L6D0
10
326
20
4450.25
0
VERTEX
8
L6D0
10
320
20
4450.25
0
VERTEX
8
L6D0
10
320
20
4475.25
0
VERTEX
8
L6D0
10
526
20
4475.25
0
VERTEX
8
L6D0
10
526
20
4450.25
0
VERTEX
8
L6D0
10
520
20
4450.25
0
VERTEX
8
L6D0
10
520
20
3450.25
0
VERTEX
8
L6D0
10
518
20
3450.25
0
VERTEX
8
L6D0
10
518
20
4450.25
0
VERTEX
8
L6D0
10
512
20
4450.25
0
VERTEX
8
L6D0
10
512
20
3450.25
0
VERTEX
8
L6D0
10
510
20
3450.25
0
VERTEX
8
L6D0
10
510
20
4450.25
0
VERTEX
8
L6D0
10
504
20
4450.25
0
VERTEX
8
L6D0
10
504
20
3450.25
0
VERTEX
8
L6D0
10
502
20
3450.25
0
VERTEX
8
L6D0
10
502
20
4450.25
0
VERTEX
8
L6D0
10
496
20
4450.25
0
VERTEX
8
L6D0
10
496
20
3450.25
0
VERTEX
8
L6D0
10
494
20
3450.25
0
VERTEX
8
L6D0
10
494
20
4450.25
0
VERTEX
8
L6D0
10
488
20
4450.25
0
VERTEX
8
L6D0
10
488
20
3450.25
0
VERTEX
8
L6D0
10
486
20
3450.25
0
VERTEX
8
L6D0
10
486
20
4450.25
0
VERTEX
8
L6D0
10
480
20
4450.25
0
VERTEX
8
L6D0
10
480
20
3450.25
0
VERTEX
8
L6D0
10
478
20
3450.25
0
VERTEX
8
L6D0
10
478
20
4450.25
0
VERTEX
8
L6D0
10
472
20
4450.25
0
VERTEX
8
L6D0
10
472
20
3450.25
0
VERTEX
8
L6D0
10
470
20
3450.25
0
VERTEX
8
L6D0
10
470
20
4450.25
0
VERTEX
8
L6D0
10
464
20
4450.25
0
VERTEX
8
L6D0
10
464
20
3450.25
0
VERTEX
8
L6D0
10
462
20
3450.25
0
VERTEX
8
L6D0
10
462
20
4450.25
0
VERTEX
8
L6D0
10
456
20
4450.25
0
VERTEX
8
L6D0
10
456
20
3450.25
0
VERTEX
8
L6D0
10
454
20
3450.25
0
VERTEX
8
L6D0
10
454
20
4450.25
0
VERTEX
8
L6D0
10
448
20
4450.25
0
VERTEX
8
L6D0
10
448
20
3450.25
0
VERTEX
8
L6D0
10
446
20
3450.25
0
VERTEX
8
L6D0
10
446
20
4450.25
0
VERTEX
8
L6D0
10
440
20
4450.25
0
VERTEX
8
L6D0
10
440
20
3450.25
0
VERTEX
8
L6D0
10
438
20
3450.25
0
VERTEX
8
L6D0
10
438
20
4450.25
0
VERTEX
8
L6D0
10
432
20
4450.25
0
VERTEX
8
L6D0
10
432
20
3450.25
0
VERTEX
8
L6D0
10
430
20
3450.25
0
VERTEX
8
L6D0
10
430
20
4450.25
0
VERTEX
8
L6D0
10
424
20
4450.25
0
VERTEX
8
L6D0
10
424
20
3450.25
0
VERTEX
8
L6D0
10
422
20
3450.25
0
VERTEX
8
L6D0
10
422
20
4450.25
0
VERTEX
8
L6D0
10
416
20
4450.25
0
VERTEX
8
L6D0
10
416
20
3450.25
0
VERTEX
8
L6D0
10
414
20
3450.25
0
VERTEX
8
L6D0
10
414
20
4450.25
0
VERTEX
8
L6D0
10
408
20
4450.25
0
VERTEX
8
L6D0
10
408
20
3450.25
0
VERTEX
8
L6D0
10
406
20
3450.25
0
VERTEX
8
L6D0
10
406
20
4450.25
0
VERTEX
8
L6D0
10
400
20
4450.25
0
VERTEX
8
L6D0
10
400
20
3450.25
0
VERTEX
8
L6D0
10
398
20
3450.25
0
VERTEX
8
L6D0
10
398
20
4450.25
0
VERTEX
8
L6D0
10
392
20
4450.25
0
VERTEX
8
L6D0
10
392
20
3450.25
0
VERTEX
8
L6D0
10
390
20
3450.25
0
VERTEX
8
L6D0
10
390
20
4450.25
0
VERTEX
8
L6D0
10
384
20
4450.25
0
VERTEX
8
L6D0
10
384
20
3450.25
0
VERTEX
8
L6D0
10
382
20
3450.25
0
VERTEX
8
L6D0
10
382
20
4450.25
0
VERTEX
8
L6D0
10
376
20
4450.25
0
VERTEX
8
L6D0
10
376
20
3450.25
0
VERTEX
8
L6D0
10
374
20
3450.25
0
VERTEX
8
L6D0
10
374
20
4450.25
0
VERTEX
8
L6D0
10
368
20
4450.25
0
VERTEX
8
L6D0
10
368
20
3450.25
0
VERTEX
8
L6D0
10
366
20
3450.25
0
VERTEX
8
L6D0
10
366
20
4450.25
0
VERTEX
8
L6D0
10
360
20
4450.25
0
VERTEX
8
L6D0
10
360
20
3450.25
0
VERTEX
8
L6D0
10
358
20
3450.25
0
VERTEX
8
L6D0
10
358
20
4450.25
0
VERTEX
8
L6D0
10
352
20
4450.25
0
VERTEX
8
L6D0
10
352
20
3450.25
0
VERTEX
8
L6D0
10
350
20
3450.25
0
VERTEX
8
L6D0
10
350
20
4450.25
0
VERTEX
8
L6D0
10
344
20
4450.25
0
VERTEX
8
L6D0
10
344
20
3450.25
0
VERTEX
8
L6D0
10
342
20
3450.25
0
VERTEX
8
L6D0
10
342
20
4450.25
0
VERTEX
8
L6D0
10
336
20
4450.25
0
VERTEX
8
L6D0
10
336
20
3450.25
0
VERTEX
8
L6D0
10
334
20
3450.25
0
VERTEX
8
L6D0
10
334
20
4450.25
0
VERTEX
8
L6D0
10
328
20
4450.25
0
VERTEX
8
L6D0
10
328
20
3450.25
0
SEQEND
0
POLYLINE
8
L6D0
70
1
40
0
41
0
66
1
0
VERTEX
8
L6D0
10
526
20
3450.25
0
VERTEX
8
L6D0
10
526
20
4475.25
0
VERTEX
8
L6D0
10
728
20
4475.25
0
VERTEX
8
L6D0
10
728
20
3450.25
0
VERTEX
8
L6D0
10
726
20
3450.25
0
VERTEX
8
L6D0
10
726
20
4450.25
0
VERTEX
8
L6D0
10
720
20
4450.25
0
VERTEX
8
L6D0
10
720
20
3450.25
0
VERTEX
8
L6D0
10
718
20
3450.25
0
VERTEX
8
L6D0
10
718
20
4450.25
0
VERTEX
8
L6D0
10
712
20
4450.25
0
VERTEX
8
L6D0
10
712
20
3450.25
0
VERTEX
8
L6D0
10
710
20
3450.25
0
VERTEX
8
L6D0
10
710
20
4450.25
0
VERTEX
8
L6D0
10
704
20
4450.25
0
VERTEX
8
L6D0
10
704
20
3450.25
0
VERTEX
8
L6D0
10
702
20
3450.25
0
VERTEX
8
L6D0
10
702
20
4450.25
0
VERTEX
8
L6D0
10
696
20
4450.25
0
VERTEX
8
L6D0
10
696
20
3450.25
0
VERTEX
8
L6D0
10
694
20
3450.25
0
VERTEX
8
L6D0
10
694
20
4450.25
0
VERTEX
8
L6D0
10
688
20
4450.25
0
VERTEX
8
L6D0
10
688
20
3450.25
0
VERTEX
8
L6D0
10
686
20
3450.25
0
VERTEX
8
L6D0
10
686
20
4450.25
0
VERTEX
8
L6D0
10
680
20
4450.25
0
VERTEX
8
L6D0
10
680
20
3450.25
0
VERTEX
8
L6D0
10
678
20
3450.25
0
VERTEX
8
L6D0
10
678
20
4450.25
0
VERTEX
8
L6D0
10
672
20
4450.25
0
VERTEX
8
L6D0
10
672
20
3450.25
0
VERTEX
8
L6D0
10
670
20
3450.25
0
VERTEX
8
L6D0
10
670
20
4450.25
0
VERTEX
8
L6D0
10
664
20
4450.25
0
VERTEX
8
L6D0
10
664
20
3450.25
0
VERTEX
8
L6D0
10
662
20
3450.25
0
VERTEX
8
L6D0
10
662
20
4450.25
0
VERTEX
8
L6D0
10
656
20
4450.25
0
VERTEX
8
L6D0
10
656
20
3450.25
0
VERTEX
8
L6D0
10
654
20
3450.25
0
VERTEX
8
L6D0
10
654
20
4450.25
0
VERTEX
8
L6D0
10
648
20
4450.25
0
VERTEX
8
L6D0
10
648
20
3450.25
0
VERTEX
8
L6D0
10
646
20
3450.25
0
VERTEX
8
L6D0
10
646
20
4450.25
0
VERTEX
8
L6D0
10
640
20
4450.25
0
VERTEX
8
L6D0
10
640
20
3450.25
0
VERTEX
8
L6D0
10
638
20
3450.25
0
VERTEX
8
L6D0
10
638
20
4450.25
0
VERTEX
8
L6D0
10
632
20
4450.25
0
VERTEX
8
L6D0
10
632
20
3450.25
0
VERTEX
8
L6D0
10
630
20
3450.25
0
VERTEX
8
L6D0
10
630
20
4450.25
0
VERTEX
8
L6D0
10
624
20
4450.25
0
VERTEX
8
L6D0
10
624
20
3450.25
0
VERTEX
8
L6D0
10
622
20
3450.25
0
VERTEX
8
L6D0
10
622
20
4450.25
0
VERTEX
8
L6D0
10
616
20
4450.25
0
VERTEX
8
L6D0
10
616
20
3450.25
0
VERTEX
8
L6D0
10
614
20
3450.25
0
VERTEX
8
L6D0
10
614
20
4450.25
0
VERTEX
8
L6D0
10
608
20
4450.25
0
VERTEX
8
L6D0
10
608
20
3450.25
0
VERTEX
8
L6D0
10
606
20
3450.25
0
VERTEX
8
L6D0
10
606
20
4450.25
0
VERTEX
8
L6D0
10
600
20
4450.25
0
VERTEX
8
L6D0
10
600
20
3450.25
0
VERTEX
8
L6D0
10
598
20
3450.25
0
VERTEX
8
L6D0
10
598
20
4450.25
0
VERTEX
8
L6D0
10
592
20
4450.25
0
VERTEX
8
L6D0
10
592
20
3450.25
0
VERTEX
8
L6D0
10
590
20
3450.25
0
VERTEX
8
L6D0
10
590
20
4450.25
0
VERTEX
8
L6D0
10
584
20
4450.25
0
VERTEX
8
L6D0
10
584
20
3450.25
0
VERTEX
8
L6D0
10
582
20
3450.25
0
VERTEX
8
L6D0
10
582
20
4450.25
0
VERTEX
8
L6D0
10
576
20
4450.25
0
VERTEX
8
L6D0
10
576
20
3450.25
0
VERTEX
8
L6D0
10
574
20
3450.25
0
VERTEX
8
L6D0
10
574
20
4450.25
0
VERTEX
8
L6D0
10
568
20
4450.25
0
VERTEX
8
L6D0
10
568
20
3450.25
0
VERTEX
8
L6D0
10
566
20
3450.25
0
VERTEX
8
L6D0
10
566
20
4450.25
0
VERTEX
8
L6D0
10
560
20
4450.25
0
VERTEX
8
L6D0
10
560
20
3450.25
0
VERTEX
8
L6D0
10
558
20
3450.25
0
VERTEX
8
L6D0
10
558
20
4450.25
0
VERTEX
8
L6D0
10
552
20
4450.25
0
VERTEX
8
L6D0
10
552
20
3450.25
0
VERTEX
8
L6D0
10
550
20
3450.25
0
VERTEX
8
L6D0
10
550
20
4450.25
0
VERTEX
8
L6D0
10
544
20
4450.25
0
VERTEX
8
L6D0
10
544
20
3450.25
0
VERTEX
8
L6D0
10
542
20
3450.25
0
VERTEX
8
L6D0
10
542
20
4450.25
0
VERTEX
8
L6D0
10
536
20
4450.25
0
VERTEX
8
L6D0
10
536
20
3450.25
0
VERTEX
8
L6D0
10
534
20
3450.25
0
VERTEX
8
L6D0
10
534
20
4450.25
0
VERTEX
8
L6D0
10
528
20
4450.25
0
VERTEX
8
L6D0
10
528
20
3450.25
0
SEQEND
0
POLYLINE
8
L6D0
70
1
40
0
41
0
66
1
0
VERTEX
8
L6D0
10
734
20
3450.25
0
VERTEX
8
L6D0
10
734
20
4450.25
0
VERTEX
8
L6D0
10
728
20
4450.25
0
VERTEX
8
L6D0
10
728
20
4475.25
0
VERTEX
8
L6D0
10
969.5
20
4475.25
0
VERTEX
8
L6D0
10
969.5
20
3950.5
0
VERTEX
8
L6D0
10
944.5
20
3950.5
0
VERTEX
8
L6D0
10
944.5
20
4450.25
0
VERTEX
8
L6D0
10
928
20
4450.25
0
VERTEX
8
L6D0
10
928
20
3450.25
0
VERTEX
8
L6D0
10
926
20
3450.25
0
VERTEX
8
L6D0
10
926
20
4450.25
0
VERTEX
8
L6D0
10
920
20
4450.25
0
VERTEX
8
L6D0
10
920
20
3450.25
0
VERTEX
8
L6D0
10
918
20
3450.25
0
VERTEX
8
L6D0
10
918
20
4450.25
0
VERTEX
8
L6D0
10
912
20
4450.25
0
VERTEX
8
L6D0
10
912
20
3450.25
0
VERTEX
8
L6D0
10
910
20
3450.25
0
VERTEX
8
L6D0
10
910
20
4450.25
0
VERTEX
8
L6D0
10
904
20
4450.25
0
VERTEX
8
L6D0
10
904
20
3450.25
0
VERTEX
8
L6D0
10
902
20
3450.25
0
VERTEX
8
L6D0
10
902
20
4450.25
0
VERTEX
8
L6D0
10
896
20
4450.25
0
VERTEX
8
L6D0
10
896
20
3450.25
0
VERTEX
8
L6D0
10
894
20
3450.25
0
VERTEX
8
L6D0
10
894
20
4450.25
0
VERTEX
8
L6D0
10
888
20
4450.25
0
VERTEX
8
L6D0
10
888
20
3450.25
0
VERTEX
8
L6D0
10
886
20
3450.25
0
VERTEX
8
L6D0
10
886
20
4450.25
0
VERTEX
8
L6D0
10
880
20
4450.25
0
VERTEX
8
L6D0
10
880
20
3450.25
0
VERTEX
8
L6D0
10
878
20
3450.25
0
VERTEX
8
L6D0
10
878
20
4450.25
0
VERTEX
8
L6D0
10
872
20
4450.25
0
VERTEX
8
L6D0
10
872
20
3450.25
0
VERTEX
8
L6D0
10
870
20
3450.25
0
VERTEX
8
L6D0
10
870
20
4450.25
0
VERTEX
8
L6D0
10
864
20
4450.25
0
VERTEX
8
L6D0
10
864
20
3450.25
0
VERTEX
8
L6D0
10
862
20
3450.25
0
VERTEX
8
L6D0
10
862
20
4450.25
0
VERTEX
8
L6D0
10
856
20
4450.25
0
VERTEX
8
L6D0
10
856
20
3450.25
0
VERTEX
8
L6D0
10
854
20
3450.25
0
VERTEX
8
L6D0
10
854
20
4450.25
0
VERTEX
8
L6D0
10
848
20
4450.25
0
VERTEX
8
L6D0
10
848
20
3450.25
0
VERTEX
8
L6D0
10
846
20
3450.25
0
VERTEX
8
L6D0
10
846
20
4450.25
0
VERTEX
8
L6D0
10
840
20
4450.25
0
VERTEX
8
L6D0
10
840
20
3450.25
0
VERTEX
8
L6D0
10
838
20
3450.25
0
VERTEX
8
L6D0
10
838
20
4450.25
0
VERTEX
8
L6D0
10
832
20
4450.25
0
VERTEX
8
L6D0
10
832
20
3450.25
0
VERTEX
8
L6D0
10
830
20
3450.25
0
VERTEX
8
L6D0
10
830
20
4450.25
0
VERTEX
8
L6D0
10
824
20
4450.25
0
VERTEX
8
L6D0
10
824
20
3450.25
0
VERTEX
8
L6D0
10
822
20
3450.25
0
VERTEX
8
L6D0
10
822
20
4450.25
0
VERTEX
8
L6D0
10
816
20
4450.25
0
VERTEX
8
L6D0
10
816
20
3450.25
0
VERTEX
8
L6D0
10
814
20
3450.25
0
VERTEX
8
L6D0
10
814
20
4450.25
0
VERTEX
8
L6D0
10
808
20
4450.25
0
VERTEX
8
L6D0
10
808
20
3450.25
0
VERTEX
8
L6D0
10
806
20
3450.25
0
VERTEX
8
L6D0
10
806
20
4450.25
0
VERTEX
8
L6D0
10
800
20
4450.25
0
VERTEX
8
L6D0
10
800
20
3450.25
0
VERTEX
8
L6D0
10
798
20
3450.25
0
VERTEX
8
L6D0
10
798
20
4450.25
0
VERTEX
8
L6D0
10
792
20
4450.25
0
VERTEX
8
L6D0
10
792
20
3450.25
0
VERTEX
8
L6D0
10
790
20
3450.25
0
VERTEX
8
L6D0
10
790
20
4450.25
0
VERTEX
8
L6D0
10
784
20
4450.25
0
VERTEX
8
L6D0
10
784
20
3450.25
0
VERTEX
8
L6D0
10
782
20
3450.25
0
VERTEX
8
L6D0
10
782
20
4450.25
0
VERTEX
8
L6D0
10
776
20
4450.25
0
VERTEX
8
L6D0
10
776
20
3450.25
0
VERTEX
8
L6D0
10
774
20
3450.25
0
VERTEX
8
L6D0
10
774
20
4450.25
0
VERTEX
8
L6D0
10
768
20
4450.25
0
VERTEX
8
L6D0
10
768
20
3450.25
0
VERTEX
8
L6D0
10
766
20
3450.25
0
VERTEX
8
L6D0
10
766
20
4450.25
0
VERTEX
8
L6D0
10
760
20
4450.25
0
VERTEX
8
L6D0
10
760
20
3450.25
0
VERTEX
8
L6D0
10
758
20
3450.25
0
VERTEX
8
L6D0
10
758
20
4450.25
0
VERTEX
8
L6D0
10
752
20
4450.25
0
VERTEX
8
L6D0
10
752
20
3450.25
0
VERTEX
8
L6D0
10
750
20
3450.25
0
VERTEX
8
L6D0
10
750
20
4450.25
0
VERTEX
8
L6D0
10
744
20
4450.25
0
VERTEX
8
L6D0
10
744
20
3450.25
0
VERTEX
8
L6D0
10
742
20
3450.25
0
VERTEX
8
L6D0
10
742
20
4450.25
0
VERTEX
8
L6D0
10
736
20
4450.25
0
VERTEX
8
L6D0
10
736
20
3450.25
0
SEQEND
0
POLYLINE
8
L6D0
70
1
40
0
41
0
66
1
0
VERTEX
8
L6D0
10
-1070
20
3423.75
0
VERTEX
8
L6D0
10
-1070
20
4448.75
0
VERTEX
8
L6D0
10
-1068
20
4448.75
0
VERTEX
8
L6D0
10
-1068
20
3448.75
0
VERTEX
8
L6D0
10
-1062
20
3448.75
0
VERTEX
8
L6D0
10
-1062
20
4448.75
0
VERTEX
8
L6D0
10
-1060
20
4448.75
0
VERTEX
8
L6D0
10
-1060
20
3448.75
0
VERTEX
8
L6D0
10
-1054
20
3448.75
0
VERTEX
8
L6D0
10
-1054
20
4448.75
0
VERTEX
8
L6D0
10
-1052
20
4448.75
0
VERTEX
8
L6D0
10
-1052
20
3448.75
0
VERTEX
8
L6D0
10
-1046
20
3448.75
0
VERTEX
8
L6D0
10
-1046
20
4448.75
0
VERTEX
8
L6D0
10
-1044
20
4448.75
0
VERTEX
8
L6D0
10
-1044
20
3448.75
0
VERTEX
8
L6D0
10
-1038
20
3448.75
0
VERTEX
8
L6D0
10
-1038
20
4448.75
0
VERTEX
8
L6D0
10
-1036
20
4448.75
0
VERTEX
8
L6D0
10
-1036
20
3448.75
0
VERTEX
8
L6D0
10
-1030
20
3448.75
0
VERTEX
8
L6D0
10
-1030
20
4448.75
0
VERTEX
8
L6D0
10
-1028
20
4448.75
0
VERTEX
8
L6D0
10
-1028
20
3448.75
0
VERTEX
8
L6D0
10
-1022
20
3448.75
0
VERTEX
8
L6D0
10
-1022
20
4448.75
0
VERTEX
8
L6D0
10
-1020
20
4448.75
0
VERTEX
8
L6D0
10
-1020
20
3448.75
0
VERTEX
8
L6D0
10
-1014
20
3448.75
0
VERTEX
8
L6D0
10
-1014
20
4448.75
0
VERTEX
8
L6D0
10
-1012
20
4448.75
0
VERTEX
8
L6D0
10
-1012
20
3448.75
0
VERTEX
8
L6D0
10
-1006
20
3448.75
0
VERTEX
8
L6D0
10
-1006
20
4448.75
0
VERTEX
8
L6D0
10
-1004
20
4448.75
0
VERTEX
8
L6D0
10
-1004
20
3448.75
0
VERTEX
8
L6D0
10
-998
20
3448.75
0
VERTEX
8
L6D0
10
-998
20
4448.75
0
VERTEX
8
L6D0
10
-996
20
4448.75
0
VERTEX
8
L6D0
10
-996
20
3448.75
0
VERTEX
8
L6D0
10
-990
20
3448.75
0
VERTEX
8
L6D0
10
-990
20
4448.75
0
VERTEX
8
L6D0
10
-988
20
4448.75
0
VERTEX
8
L6D0
10
-988
20
3448.75
0
VERTEX
8
L6D0
10
-982
20
3448.75
0
VERTEX
8
L6D0
10
-982
20
4448.75
0
VERTEX
8
L6D0
10
-980
20
4448.75
0
VERTEX
8
L6D0
10
-980
20
3448.75
0
VERTEX
8
L6D0
10
-974
20
3448.75
0
VERTEX
8
L6D0
10
-974
20
4448.75
0
VERTEX
8
L6D0
10
-972
20
4448.75
0
VERTEX
8
L6D0
10
-972
20
3448.75
0
VERTEX
8
L6D0
10
-966
20
3448.75
0
VERTEX
8
L6D0
10
-966
20
4448.75
0
VERTEX
8
L6D0
10
-964
20
4448.75
0
VERTEX
8
L6D0
10
-964
20
3448.75
0
VERTEX
8
L6D0
10
-958
20
3448.75
0
VERTEX
8
L6D0
10
-958
20
4448.75
0
VERTEX
8
L6D0
10
-956
20
4448.75
0
VERTEX
8
L6D0
10
-956
20
3448.75
0
VERTEX
8
L6D0
10
-950
20
3448.75
0
VERTEX
8
L6D0
10
-950
20
4448.75
0
VERTEX
8
L6D0
10
-948
20
4448.75
0
VERTEX
8
L6D0
10
-948
20
3448.75
0
VERTEX
8
L6D0
10
-942
20
3448.75
0
VERTEX
8
L6D0
10
-942
20
4448.75
0
VERTEX
8
L6D0
10
-940
20
4448.75
0
VERTEX
8
L6D0
10
-940
20
3448.75
0
VERTEX
8
L6D0
10
-934
20
3448.75
0
VERTEX
8
L6D0
10
-934
20
4448.75
0
VERTEX
8
L6D0
10
-932
20
4448.75
0
VERTEX
8
L6D0
10
-932
20
3448.75
0
VERTEX
8
L6D0
10
-926
20
3448.75
0
VERTEX
8
L6D0
10
-926
20
4448.75
0
VERTEX
8
L6D0
10
-924
20
4448.75
0
VERTEX
8
L6D0
10
-924
20
3448.75
0
VERTEX
8
L6D0
10
-918
20
3448.75
0
VERTEX
8
L6D0
10
-918
20
4448.75
0
VERTEX
8
L6D0
10
-916
20
4448.75
0
VERTEX
8
L6D0
10
-916
20
3448.75
0
VERTEX
8
L6D0
10
-910
20
3448.75
0
VERTEX
8
L6D0
10
-910
20
4448.75
0
VERTEX
8
L6D0
10
-908
20
4448.75
0
VERTEX
8
L6D0
10
-908
20
3448.75
0
VERTEX
8
L6D0
10
-902
20
3448.75
0
VERTEX
8
L6D0
10
-902
20
4448.75
0
VERTEX
8
L6D0
10
-900
20
4448.75
0
VERTEX
8
L6D0
10
-900
20
3448.75
0
VERTEX
8
L6D0
10
-894
20
3448.75
0
VERTEX
8
L6D0
10
-894
20
4448.75
0
VERTEX
8
L6D0
10
-892
20
4448.75
0
VERTEX
8
L6D0
10
-892
20
3448.75
0
VERTEX
8
L6D0
10
-886
20
3448.75
0
VERTEX
8
L6D0
10
-886
20
4448.75
0
VERTEX
8
L6D0
10
-884
20
4448.75
0
VERTEX
8
L6D0
10
-884
20
3448.75
0
VERTEX
8
L6D0
10
-878
20
3448.75
0
VERTEX
8
L6D0
10
-878
20
4448.75
0
VERTEX
8
L6D0
10
-876
20
4448.75
0
VERTEX
8
L6D0
10
-876
20
3448.75
0
VERTEX
8
L6D0
10
-870
20
3448.75
0
VERTEX
8
L6D0
10
-870
20
4448.75
0
VERTEX
8
L6D0
10
-868
20
4448.75
0
VERTEX
8
L6D0
10
-868
20
3448.75
0
VERTEX
8
L6D0
10
-862
20
3448.75
0
VERTEX
8
L6D0
10
-862
20
4448.75
0
VERTEX
8
L6D0
10
-860
20
4448.75
0
VERTEX
8
L6D0
10
-860
20
3448.75
0
VERTEX
8
L6D0
10
-854
20
3448.75
0
VERTEX
8
L6D0
10
-854
20
4448.75
0
VERTEX
8
L6D0
10
-852
20
4448.75
0
VERTEX
8
L6D0
10
-852
20
3448.75
0
VERTEX
8
L6D0
10
-846
20
3448.75
0
VERTEX
8
L6D0
10
-846
20
4448.75
0
VERTEX
8
L6D0
10
-844
20
4448.75
0
VERTEX
8
L6D0
10
-844
20
3448.75
0
VERTEX
8
L6D0
10
-838
20
3448.75
0
VERTEX
8
L6D0
10
-838
20
4448.75
0
VERTEX
8
L6D0
10
-836
20
4448.75
0
VERTEX
8
L6D0
10
-836
20
3448.75
0
VERTEX
8
L6D0
10
-830
20
3448.75
0
VERTEX
8
L6D0
10
-830
20
4448.75
0
VERTEX
8
L6D0
10
-828
20
4448.75
0
VERTEX
8
L6D0
10
-828
20
3448.75
0
VERTEX
8
L6D0
10
-822
20
3448.75
0
VERTEX
8
L6D0
10
-822
20
3423.75
0
SEQEND
0
POLYLINE
8
L6D0
70
1
40
0
41
0
66
1
0
VERTEX
8
L6D0
10
-822
20
3423.75
0
VERTEX
8
L6D0
10
-822
20
4448.75
0
VERTEX
8
L6D0
10
-820
20
4448.75
0
VERTEX
8
L6D0
10
-820
20
3448.75
0
VERTEX
8
L6D0
10
-814
20
3448.75
0
VERTEX
8
L6D0
10
-814
20
4448.75
0
VERTEX
8
L6D0
10
-812
20
4448.75
0
VERTEX
8
L6D0
10
-812
20
3448.75
0
VERTEX
8
L6D0
10
-806
20
3448.75
0
VERTEX
8
L6D0
10
-806
20
4448.75
0
VERTEX
8
L6D0
10
-804
20
4448.75
0
VERTEX
8
L6D0
10
-804
20
3448.75
0
VERTEX
8
L6D0
10
-798
20
3448.75
0
VERTEX
8
L6D0
10
-798
20
4448.75
0
VERTEX
8
L6D0
10
-796
20
4448.75
0
VERTEX
8
L6D0
10
-796
20
3448.75
0
VERTEX
8
L6D0
10
-790
20
3448.75
0
VERTEX
8
L6D0
10
-790
20
4448.75
0
VERTEX
8
L6D0
10
-788
20
4448.75
0
VERTEX
8
L6D0
10
-788
20
3448.75
0
VERTEX
8
L6D0
10
-782
20
3448.75
0
VERTEX
8
L6D0
10
-782
20
4448.75
0
VERTEX
8
L6D0
10
-780
20
4448.75
0
VERTEX
8
L6D0
10
-780
20
3448.75
0
VERTEX
8
L6D0
10
-774
20
3448.75
0
VERTEX
8
L6D0
10
-774
20
4448.75
0
VERTEX
8
L6D0
10
-772
20
4448.75
0
VERTEX
8
L6D0
10
-772
20
3448.75
0
VERTEX
8
L6D0
10
-766
20
3448.75
0
VERTEX
8
L6D0
10
-766
20
4448.75
0
VERTEX
8
L6D0
10
-764
20
4448.75
0
VERTEX
8
L6D0
10
-764
20
3448.75
0
VERTEX
8
L6D0
10
-758
20
3448.75
0
VERTEX
8
L6D0
10
-758
20
4448.75
0
VERTEX
8
L6D0
10
-756
20
4448.75
0
VERTEX
8
L6D0
10
-756
20
3448.75
0
VERTEX
8
L6D0
10
-750
20
3448.75
0
VERTEX
8
L6D0
10
-750
20
4448.75
0
VERTEX
8
L6D0
10
-748
20
4448.75
0
VERTEX
8
L6D0
10
-748
20
3448.75
0
VERTEX
8
L6D0
10
-742
20
3448.75
0
VERTEX
8
L6D0
10
-742
20
4448.75
0
VERTEX
8
L6D0
10
-740
20
4448.75
0
VERTEX
8
L6D0
10
-740
20
3448.75
0
VERTEX
8
L6D0
10
-734
20
3448.75
0
VERTEX
8
L6D0
10
-734
20
4448.75
0
VERTEX
8
L6D0
10
-732
20
4448.75
0
VERTEX
8
L6D0
10
-732
20
3448.75
0
VERTEX
8
L6D0
10
-726
20
3448.75
0
VERTEX
8
L6D0
10
-726
20
4448.75
0
VERTEX
8
L6D0
10
-724
20
4448.75
0
VERTEX
8
L6D0
10
-724
20
3448.75
0
VERTEX
8
L6D0
10
-718
20
3448.75
0
VERTEX
8
L6D0
10
-718
20
4448.75
0
VERTEX
8
L6D0
10
-716
20
4448.75
0
VERTEX
8
L6D0
10
-716
20
3448.75
0
VERTEX
8
L6D0
10
-710
20
3448.75
0
VERTEX
8
L6D0
10
-710
20
4448.75
0
VERTEX
8
L6D0
10
-708
20
4448.75
0
VERTEX
8
L6D0
10
-708
20
3448.75
0
VERTEX
8
L6D0
10
-702
20
3448.75
0
VERTEX
8
L6D0
10
-702
20
4448.75
0
VERTEX
8
L6D0
10
-700
20
4448.75
0
VERTEX
8
L6D0
10
-700
20
3448.75
0
VERTEX
8
L6D0
10
-694
20
3448.75
0
VERTEX
8
L6D0
10
-694
20
4448.75
0
VERTEX
8
L6D0
10
-692
20
4448.75
0
VERTEX
8
L6D0
10
-692
20
3448.75
0
VERTEX
8
L6D0
10
-686
20
3448.75
0
VERTEX
8
L6D0
10
-686
20
4448.75
0
VERTEX
8
L6D0
10
-684
20
4448.75
0
VERTEX
8
L6D0
10
-684
20
3448.75
0
VERTEX
8
L6D0
10
-678
20
3448.75
0
VERTEX
8
L6D0
10
-678
20
4448.75
0
VERTEX
8
L6D0
10
-676
20
4448.75
0
VERTEX
8
L6D0
10
-676
20
3448.75
0
VERTEX
8
L6D0
10
-670
20
3448.75
0
VERTEX
8
L6D0
10
-670
20
4448.75
0
VERTEX
8
L6D0
10
-668
20
4448.75
0
VERTEX
8
L6D0
10
-668
20
3448.75
0
VERTEX
8
L6D0
10
-662
20
3448.75
0
VERTEX
8
L6D0
10
-662
20
4448.75
0
VERTEX
8
L6D0
10
-660
20
4448.75
0
VERTEX
8
L6D0
10
-660
20
3448.75
0
VERTEX
8
L6D0
10
-654
20
3448.75
0
VERTEX
8
L6D0
10
-654
20
4448.75
0
VERTEX
8
L6D0
10
-652
20
4448.75
0
VERTEX
8
L6D0
10
-652
20
3448.75
0
VERTEX
8
L6D0
10
-646
20
3448.75
0
VERTEX
8
L6D0
10
-646
20
4448.75
0
VERTEX
8
L6D0
10
-644
20
4448.75
0
VERTEX
8
L6D0
10
-644
20
3448.75
0
VERTEX
8
L6D0
10
-638
20
3448.75
0
VERTEX
8
L6D0
10
-638
20
4448.75
0
VERTEX
8
L6D0
10
-636
20
4448.75
0
VERTEX
8
L6D0
10
-636
20
3448.75
0
VERTEX
8
L6D0
10
-630
20
3448.75
0
VERTEX
8
L6D0
10
-630
20
4448.75
0
VERTEX
8
L6D0
10
-628
20
4448.75
0
VERTEX
8
L6D0
10
-628
20
3448.75
0
VERTEX
8
L6D0
10
-622
20
3448.75
0
VERTEX
8
L6D0
10
-622
20
4448.75
0
VERTEX
8
L6D0
10
-620
20
4448.75
0
VERTEX
8
L6D0
10
-620
20
3448.75
0
VERTEX
8
L6D0
10
-614
20
3448.75
0
VERTEX
8
L6D0
10
-614
20
4448.75
0
VERTEX
8
L6D0
10
-612
20
4448.75
0
VERTEX
8
L6D0
10
-612
20
3448.75
0
VERTEX
8
L6D0
10
-606
20
3448.75
0
VERTEX
8
L6D0
10
-606
20
4448.75
0
VERTEX
8
L6D0
10
-604
20
4448.75
0
VERTEX
8
L6D0
10
-604
20
3448.75
0
VERTEX
8
L6D0
10
-598
20
3448.75
0
VERTEX
8
L6D0
10
-598
20
4448.75
0
VERTEX
8
L6D0
10
-596
20
4448.75
0
VERTEX
8
L6D0
10
-596
20
3448.75
0
VERTEX
8
L6D0
10
-590
20
3448.75
0
VERTEX
8
L6D0
10
-590
20
4448.75
0
VERTEX
8
L6D0
10
-588
20
4448.75
0
VERTEX
8
L6D0
10
-588
20
3448.75
0
VERTEX
8
L6D0
10
-582
20
3448.75
0
VERTEX
8
L6D0
10
-582
20
4448.75
0
VERTEX
8
L6D0
10
-580
20
4448.75
0
VERTEX
8
L6D0
10
-580
20
3448.75
0
VERTEX
8
L6D0
10
-574
20
3448.75
0
VERTEX
8
L6D0
10
-574
20
4448.75
0
VERTEX
8
L6D0
10
-572
20
4448.75
0
VERTEX
8
L6D0
10
-572
20
3423.75
0
SEQEND
0
POLYLINE
8
L6D0
70
1
40
0
41
0
66
1
0
VERTEX
8
L6D0
10
-572
20
3423.75
0
VERTEX
8
L6D0
10
-572
20
3448.75
0
VERTEX
8
L6D0
10
-566
20
3448.75
0
VERTEX
8
L6D0
10
-566
20
4448.75
0
VERTEX
8
L6D0
10
-564
20
4448.75
0
VERTEX
8
L6D0
10
-564
20
3448.75
0
VERTEX
8
L6D0
10
-558
20
3448.75
0
VERTEX
8
L6D0
10
-558
20
4448.75
0
VERTEX
8
L6D0
10
-556
20
4448.75
0
VERTEX
8
L6D0
10
-556
20
3448.75
0
VERTEX
8
L6D0
10
-550
20
3448.75
0
VERTEX
8
L6D0
10
-550
20
4448.75
0
VERTEX
8
L6D0
10
-548
20
4448.75
0
VERTEX
8
L6D0
10
-548
20
3448.75
0
VERTEX
8
L6D0
10
-542
20
3448.75
0
VERTEX
8
L6D0
10
-542
20
4448.75
0
VERTEX
8
L6D0
10
-540
20
4448.75
0
VERTEX
8
L6D0
10
-540
20
3448.75
0
VERTEX
8
L6D0
10
-534
20
3448.75
0
VERTEX
8
L6D0
10
-534
20
4448.75
0
VERTEX
8
L6D0
10
-532
20
4448.75
0
VERTEX
8
L6D0
10
-532
20
3448.75
0
VERTEX
8
L6D0
10
-526
20
3448.75
0
VERTEX
8
L6D0
10
-526
20
4448.75
0
VERTEX
8
L6D0
10
-524
20
4448.75
0
VERTEX
8
L6D0
10
-524
20
3448.75
0
VERTEX
8
L6D0
10
-518
20
3448.75
0
VERTEX
8
L6D0
10
-518
20
4448.75
0
VERTEX
8
L6D0
10
-516
20
4448.75
0
VERTEX
8
L6D0
10
-516
20
3448.75
0
VERTEX
8
L6D0
10
-510
20
3448.75
0
VERTEX
8
L6D0
10
-510
20
4448.75
0
VERTEX
8
L6D0
10
-508
20
4448.75
0
VERTEX
8
L6D0
10
-508
20
3448.75
0
VERTEX
8
L6D0
10
-502
20
3448.75
0
VERTEX
8
L6D0
10
-502
20
4448.75
0
VERTEX
8
L6D0
10
-500
20
4448.75
0
VERTEX
8
L6D0
10
-500
20
3448.75
0
VERTEX
8
L6D0
10
-494
20
3448.75
0
VERTEX
8
L6D0
10
-494
20
4448.75
0
VERTEX
8
L6D0
10
-492
20
4448.75
0
VERTEX
8
L6D0
10
-492
20
3448.75
0
VERTEX
8
L6D0
10
-486
20
3448.75
0
VERTEX
8
L6D0
10
-486
20
4448.75
0
VERTEX
8
L6D0
10
-484
20
4448.75
0
VERTEX
8
L6D0
10
-484
20
3448.75
0
VERTEX
8
L6D0
10
-478
20
3448.75
0
VERTEX
8
L6D0
10
-478
20
4448.75
0
VERTEX
8
L6D0
10
-476
20
4448.75
0
VERTEX
8
L6D0
10
-476
20
3448.75
0
VERTEX
8
L6D0
10
-470
20
3448.75
0
VERTEX
8
L6D0
10
-470
20
4448.75
0
VERTEX
8
L6D0
10
-468
20
4448.75
0
VERTEX
8
L6D0
10
-468
20
3448.75
0
VERTEX
8
L6D0
10
-462
20
3448.75
0
VERTEX
8
L6D0
10
-462
20
4448.75
0
VERTEX
8
L6D0
10
-460
20
4448.75
0
VERTEX
8
L6D0
10
-460
20
3448.75
0
VERTEX
8
L6D0
10
-454
20
3448.75
0
VERTEX
8
L6D0
10
-454
20
4448.75
0
VERTEX
8
L6D0
10
-452
20
4448.75
0
VERTEX
8
L6D0
10
-452
20
3448.75
0
VERTEX
8
L6D0
10
-446
20
3448.75
0
VERTEX
8
L6D0
10
-446
20
4448.75
0
VERTEX
8
L6D0
10
-444
20
4448.75
0
VERTEX
8
L6D0
10
-444
20
3448.75
0
VERTEX
8
L6D0
10
-438
20
3448.75
0
VERTEX
8
L6D0
10
-438
20
4448.75
0
VERTEX
8
L6D0
10
-436
20
4448.75
0
VERTEX
8
L6D0
10
-436
20
3448.75
0
VERTEX
8
L6D0
10
-430
20
3448.75
0
VERTEX
8
L6D0
10
-430
20
4448.75
0
VERTEX
8
L6D0
10
-428
20
4448.75
0
VERTEX
8
L6D0
10
-428
20
3448.75
0
VERTEX
8
L6D0
10
-422
20
3448.75
0
VERTEX
8
L6D0
10
-422
20
4448.75
0
VERTEX
8
L6D0
10
-420
20
4448.75
0
VERTEX
8
L6D0
10
-420
20
3448.75
0
VERTEX
8
L6D0
10
-414
20
3448.75
0
VERTEX
8
L6D0
10
-414
20
4448.75
0
VERTEX
8
L6D0
10
-412
20
4448.75
0
VERTEX
8
L6D0
10
-412
20
3448.75
0
VERTEX
8
L6D0
10
-406
20
3448.75
0
VERTEX
8
L6D0
10
-406
20
4448.75
0
VERTEX
8
L6D0
10
-404
20
4448.75
0
VERTEX
8
L6D0
10
-404
20
3448.75
0
VERTEX
8
L6D0
10
-398
20
3448.75
0
VERTEX
8
L6D0
10
-398
20
4448.75
0
VERTEX
8
L6D0
10
-396
20
4448.75
0
VERTEX
8
L6D0
10
-396
20
3448.75
0
VERTEX
8
L6D0
10
-390
20
3448.75
0
VERTEX
8
L6D0
10
-390
20
4448.75
0
VERTEX
8
L6D0
10
-388
20
4448.75
0
VERTEX
8
L6D0
10
-388
20
3448.75
0
VERTEX
8
L6D0
10
-382
20
3448.75
0
VERTEX
8
L6D0
10
-382
20
4448.75
0
VERTEX
8
L6D0
10
-380
20
4448.75
0
VERTEX
8
L6D0
10
-380
20
3448.75
0
VERTEX
8
L6D0
10
-374
20
3448.75
0
VERTEX
8
L6D0
10
-374
20
4448.75
0
VERTEX
8
L6D0
10
-372
20
4448.75
0
VERTEX
8
L6D0
10
-372
20
3448.75
0
VERTEX
8
L6D0
10
-366
20
3448.75
0
VERTEX
8
L6D0
10
-366
20
4448.75
0
VERTEX
8
L6D0
10
-364
20
4448.75
0
VERTEX
8
L6D0
10
-364
20
3448.75
0
VERTEX
8
L6D0
10
-358
20
3448.75
0
VERTEX
8
L6D0
10
-358
20
4448.75
0
VERTEX
8
L6D0
10
-356
20
4448.75
0
VERTEX
8
L6D0
10
-356
20
3448.75
0
VERTEX
8
L6D0
10
-350
20
3448.75
0
VERTEX
8
L6D0
10
-350
20
4448.75
0
VERTEX
8
L6D0
10
-348
20
4448.75
0
VERTEX
8
L6D0
10
-348
20
3448.75
0
VERTEX
8
L6D0
10
-342
20
3448.75
0
VERTEX
8
L6D0
10
-342
20
4448.75
0
VERTEX
8
L6D0
10
-340
20
4448.75
0
VERTEX
8
L6D0
10
-340
20
3448.75
0
VERTEX
8
L6D0
10
-334
20
3448.75
0
VERTEX
8
L6D0
10
-334
20
4448.75
0
VERTEX
8
L6D0
10
-332
20
4448.75
0
VERTEX
8
L6D0
10
-332
20
3448.75
0
VERTEX
8
L6D0
10
-326
20
3448.75
0
VERTEX
8
L6D0
10
-326
20
4448.75
0
VERTEX
8
L6D0
10
-324
20
4448.75
0
VERTEX
8
L6D0
10
-324
20
3448.75
0
VERTEX
8
L6D0
10
-318
20
3448.75
0
VERTEX
8
L6D0
10
-318
20
3423.75
0
SEQEND
0
POLYLINE
8
L6D0
70
1
40
0
41
0
66
1
0
VERTEX
8
L6D0
10
-318
20
3423.75
0
VERTEX
8
L6D0
10
-318
20
4448.75
0
VERTEX
8
L6D0
10
-316
20
4448.75
0
VERTEX
8
L6D0
10
-316
20
3448.75
0
VERTEX
8
L6D0
10
-310
20
3448.75
0
VERTEX
8
L6D0
10
-310
20
4448.75
0
VERTEX
8
L6D0
10
-308
20
4448.75
0
VERTEX
8
L6D0
10
-308
20
3448.75
0
VERTEX
8
L6D0
10
-302
20
3448.75
0
VERTEX
8
L6D0
10
-302
20
4448.75
0
VERTEX
8
L6D0
10
-300
20
4448.75
0
VERTEX
8
L6D0
10
-300
20
3448.75
0
VERTEX
8
L6D0
10
-294
20
3448.75
0
VERTEX
8
L6D0
10
-294
20
4448.75
0
VERTEX
8
L6D0
10
-292
20
4448.75
0
VERTEX
8
L6D0
10
-292
20
3448.75
0
VERTEX
8
L6D0
10
-286
20
3448.75
0
VERTEX
8
L6D0
10
-286
20
4448.75
0
VERTEX
8
L6D0
10
-284
20
4448.75
0
VERTEX
8
L6D0
10
-284
20
3448.75
0
VERTEX
8
L6D0
10
-278
20
3448.75
0
VERTEX
8
L6D0
10
-278
20
4448.75
0
VERTEX
8
L6D0
10
-276
20
4448.75
0
VERTEX
8
L6D0
10
-276
20
3448.75
0
VERTEX
8
L6D0
10
-270
20
3448.75
0
VERTEX
8
L6D0
10
-270
20
4448.75
0
VERTEX
8
L6D0
10
-268
20
4448.75
0
VERTEX
8
L6D0
10
-268
20
3448.75
0
VERTEX
8
L6D0
10
-262
20
3448.75
0
VERTEX
8
L6D0
10
-262
20
4448.75
0
VERTEX
8
L6D0
10
-260
20
4448.75
0
VERTEX
8
L6D0
10
-260
20
3448.75
0
VERTEX
8
L6D0
10
-254
20
3448.75
0
VERTEX
8
L6D0
10
-254
20
4448.75
0
VERTEX
8
L6D0
10
-252
20
4448.75
0
VERTEX
8
L6D0
10
-252
20
3448.75
0
VERTEX
8
L6D0
10
-246
20
3448.75
0
VERTEX
8
L6D0
10
-246
20
4448.75
0
VERTEX
8
L6D0
10
-244
20
4448.75
0
VERTEX
8
L6D0
10
-244
20
3448.75
0
VERTEX
8
L6D0
10
-238
20
3448.75
0
VERTEX
8
L6D0
10
-238
20
4448.75
0
VERTEX
8
L6D0
10
-236
20
4448.75
0
VERTEX
8
L6D0
10
-236
20
3448.75
0
VERTEX
8
L6D0
10
-230
20
3448.75
0
VERTEX
8
L6D0
10
-230
20
4448.75
0
VERTEX
8
L6D0
10
-228
20
4448.75
0
VERTEX
8
L6D0
10
-228
20
3448.75
0
VERTEX
8
L6D0
10
-222
20
3448.75
0
VERTEX
8
L6D0
10
-222
20
4448.75
0
VERTEX
8
L6D0
10
-220
20
4448.75
0
VERTEX
8
L6D0
10
-220
20
3448.75
0
VERTEX
8
L6D0
10
-214
20
3448.75
0
VERTEX
8
L6D0
10
-214
20
4448.75
0
VERTEX
8
L6D0
10
-212
20
4448.75
0
VERTEX
8
L6D0
10
-212
20
3448.75
0
VERTEX
8
L6D0
10
-206
20
3448.75
0
VERTEX
8
L6D0
10
-206
20
4448.75
0
VERTEX
8
L6D0
10
-204
20
4448.75
0
VERTEX
8
L6D0
10
-204
20
3448.75
0
VERTEX
8
L6D0
10
-198
20
3448.75
0
VERTEX
8
L6D0
10
-198
20
4448.75
0
VERTEX
8
L6D0
10
-196
20
4448.75
0
VERTEX
8
L6D0
10
-196
20
3448.75
0
VERTEX
8
L6D0
10
-190
20
3448.75
0
VERTEX
8
L6D0
10
-190
20
4448.75
0
VERTEX
8
L6D0
10
-188
20
4448.75
0
VERTEX
8
L6D0
10
-188
20
3448.75
0
VERTEX
8
L6D0
10
-182
20
3448.75
0
VERTEX
8
L6D0
10
-182
20
4448.75
0
VERTEX
8
L6D0
10
-180
20
4448.75
0
VERTEX
8
L6D0
10
-180
20
3448.75
0
VERTEX
8
L6D0
10
-174
20
3448.75
0
VERTEX
8
L6D0
10
-174
20
4448.75
0
VERTEX
8
L6D0
10
-172
20
4448.75
0
VERTEX
8
L6D0
10
-172
20
3448.75
0
VERTEX
8
L6D0
10
-166
20
3448.75
0
VERTEX
8
L6D0
10
-166
20
4448.75
0
VERTEX
8
L6D0
10
-164
20
4448.75
0
VERTEX
8
L6D0
10
-164
20
3448.75
0
VERTEX
8
L6D0
10
-158
20
3448.75
0
VERTEX
8
L6D0
10
-158
20
4448.75
0
VERTEX
8
L6D0
10
-156
20
4448.75
0
VERTEX
8
L6D0
10
-156
20
3448.75
0
VERTEX
8
L6D0
10
-150
20
3448.75
0
VERTEX
8
L6D0
10
-150
20
4448.75
0
VERTEX
8
L6D0
10
-148
20
4448.75
0
VERTEX
8
L6D0
10
-148
20
3448.75
0
VERTEX
8
L6D0
10
-142
20
3448.75
0
VERTEX
8
L6D0
10
-142
20
4448.75
0
VERTEX
8
L6D0
10
-140
20
4448.75
0
VERTEX
8
L6D0
10
-140
20
3448.75
0
VERTEX
8
L6D0
10
-134
20
3448.75
0
VERTEX
8
L6D0
10
-134
20
4448.75
0
VERTEX
8
L6D0
10
-132
20
4448.75
0
VERTEX
8
L6D0
10
-132
20
3448.75
0
VERTEX
8
L6D0
10
-126
20
3448.75
0
VERTEX
8
L6D0
10
-126
20
4448.75
0
VERTEX
8
L6D0
10
-124
20
4448.75
0
VERTEX
8
L6D0
10
-124
20
3448.75
0
VERTEX
8
L6D0
10
-118
20
3448.75
0
VERTEX
8
L6D0
10
-118
20
4448.75
0
VERTEX
8
L6D0
10
-116
20
4448.75
0
VERTEX
8
L6D0
10
-116
20
3448.75
0
VERTEX
8
L6D0
10
-110
20
3448.75
0
VERTEX
8
L6D0
10
-110
20
4448.75
0
VERTEX
8
L6D0
10
-108
20
4448.75
0
VERTEX
8
L6D0
10
-108
20
3448.75
0
VERTEX
8
L6D0
10
-102
20
3448.75
0
VERTEX
8
L6D0
10
-102
20
4448.75
0
VERTEX
8
L6D0
10
-100
20
4448.75
0
VERTEX
8
L6D0
10
-100
20
3448.75
0
VERTEX
8
L6D0
10
-94
20
3448.75
0
VERTEX
8
L6D0
10
-94
20
4448.75
0
VERTEX
8
L6D0
10
-92
20
4448.75
0
VERTEX
8
L6D0
10
-92
20
3448.75
0
VERTEX
8
L6D0
10
-86
20
3448.75
0
VERTEX
8
L6D0
10
-86
20
4448.75
0
VERTEX
8
L6D0
10
-84
20
4448.75
0
VERTEX
8
L6D0
10
-84
20
3448.75
0
VERTEX
8
L6D0
10
-78
20
3448.75
0
VERTEX
8
L6D0
10
-78
20
4448.75
0
VERTEX
8
L6D0
10
-76
20
4448.75
0
VERTEX
8
L6D0
10
-76
20
3448.75
0
VERTEX
8
L6D0
10
-70
20
3448.75
0
VERTEX
8
L6D0
10
-70
20
4448.75
0
VERTEX
8
L6D0
10
-68
20
4448.75
0
VERTEX
8
L6D0
10
-68
20
3423.75
0
SEQEND
0
POLYLINE
8
L6D0
70
1
40
0
41
0
66
1
0
VERTEX
8
L6D0
10
-68
20
3423.75
0
VERTEX
8
L6D0
10
-68
20
3448.75
0
VERTEX
8
L6D0
10
-62
20
3448.75
0
VERTEX
8
L6D0
10
-62
20
4448.75
0
VERTEX
8
L6D0
10
-60
20
4448.75
0
VERTEX
8
L6D0
10
-60
20
3448.75
0
VERTEX
8
L6D0
10
-54
20
3448.75
0
VERTEX
8
L6D0
10
-54
20
4448.75
0
VERTEX
8
L6D0
10
-52
20
4448.75
0
VERTEX
8
L6D0
10
-52
20
3448.75
0
VERTEX
8
L6D0
10
-46
20
3448.75
0
VERTEX
8
L6D0
10
-46
20
4448.75
0
VERTEX
8
L6D0
10
-44
20
4448.75
0
VERTEX
8
L6D0
10
-44
20
3448.75
0
VERTEX
8
L6D0
10
-38
20
3448.75
0
VERTEX
8
L6D0
10
-38
20
4448.75
0
VERTEX
8
L6D0
10
-36
20
4448.75
0
VERTEX
8
L6D0
10
-36
20
3448.75
0
VERTEX
8
L6D0
10
-30
20
3448.75
0
VERTEX
8
L6D0
10
-30
20
4448.75
0
VERTEX
8
L6D0
10
-28
20
4448.75
0
VERTEX
8
L6D0
10
-28
20
3448.75
0
VERTEX
8
L6D0
10
-22
20
3448.75
0
VERTEX
8
L6D0
10
-22
20
4448.75
0
VERTEX
8
L6D0
10
-20
20
4448.75
0
VERTEX
8
L6D0
10
-20
20
3448.75
0
VERTEX
8
L6D0
10
-14
20
3448.75
0
VERTEX
8
L6D0
10
-14
20
4448.75
0
VERTEX
8
L6D0
10
-12
20
4448.75
0
VERTEX
8
L6D0
10
-12
20
3448.75
0
VERTEX
8
L6D0
10
-6
20
3448.75
0
VERTEX
8
L6D0
10
-6
20
4448.75
0
VERTEX
8
L6D0
10
-4
20
4448.75
0
VERTEX
8
L6D0
10
-4
20
3448.75
0
VERTEX
8
L6D0
10
2
20
3448.75
0
VERTEX
8
L6D0
10
2
20
4448.75
0
VERTEX
8
L6D0
10
4
20
4448.75
0
VERTEX
8
L6D0
10
4
20
3448.75
0
VERTEX
8
L6D0
10
10
20
3448.75
0
VERTEX
8
L6D0
10
10
20
4448.75
0
VERTEX
8
L6D0
10
12
20
4448.75
0
VERTEX
8
L6D0
10
12
20
3448.75
0
VERTEX
8
L6D0
10
18
20
3448.75
0
VERTEX
8
L6D0
10
18
20
4448.75
0
VERTEX
8
L6D0
10
20
20
4448.75
0
VERTEX
8
L6D0
10
20
20
3448.75
0
VERTEX
8
L6D0
10
26
20
3448.75
0
VERTEX
8
L6D0
10
26
20
4448.75
0
VERTEX
8
L6D0
10
28
20
4448.75
0
VERTEX
8
L6D0
10
28
20
3448.75
0
VERTEX
8
L6D0
10
34
20
3448.75
0
VERTEX
8
L6D0
10
34
20
4448.75
0
VERTEX
8
L6D0
10
36
20
4448.75
0
VERTEX
8
L6D0
10
36
20
3448.75
0
VERTEX
8
L6D0
10
42
20
3448.75
0
VERTEX
8
L6D0
10
42
20
4448.75
0
VERTEX
8
L6D0
10
44
20
4448.75
0
VERTEX
8
L6D0
10
44
20
3448.75
0
VERTEX
8
L6D0
10
50
20
3448.75
0
VERTEX
8
L6D0
10
50
20
4448.75
0
VERTEX
8
L6D0
10
52
20
4448.75
0
VERTEX
8
L6D0
10
52
20
3448.75
0
VERTEX
8
L6D0
10
58
20
3448.75
0
VERTEX
8
L6D0
10
58
20
4448.75
0
VERTEX
8
L6D0
10
60
20
4448.75
0
VERTEX
8
L6D0
10
60
20
3448.75
0
VERTEX
8
L6D0
10
66
20
3448.75
0
VERTEX
8
L6D0
10
66
20
4448.75
0
VERTEX
8
L6D0
10
68
20
4448.75
0
VERTEX
8
L6D0
10
68
20
3448.75
0
VERTEX
8
L6D0
10
74
20
3448.75
0
VERTEX
8
L6D0
10
74
20
4448.75
0
VERTEX
8
L6D0
10
76
20
4448.75
0
VERTEX
8
L6D0
10
76
20
3448.75
0
VERTEX
8
L6D0
10
82
20
3448.75
0
VERTEX
8
L6D0
10
82
20
4448.75
0
VERTEX
8
L6D0
10
84
20
4448.75
0
VERTEX
8
L6D0
10
84
20
3448.75
0
VERTEX
8
L6D0
10
90
20
3448.75
0
VERTEX
8
L6D0
10
90
20
4448.75
0
VERTEX
8
L6D0
10
92
20
4448.75
0
VERTEX
8
L6D0
10
92
20
3448.75
0
VERTEX
8
L6D0
10
98
20
3448.75
0
VERTEX
8
L6D0
10
98
20
4448.75
0
VERTEX
8
L6D0
10
100
20
4448.75
0
VERTEX
8
L6D0
10
100
20
3448.75
0
VERTEX
8
L6D0
10
106
20
3448.75
0
VERTEX
8
L6D0
10
106
20
4448.75
0
VERTEX
8
L6D0
10
108
20
4448.75
0
VERTEX
8
L6D0
10
108
20
3448.75
0
VERTEX
8
L6D0
10
114
20
3448.75
0
VERTEX
8
L6D0
10
114
20
4448.75
0
VERTEX
8
L6D0
10
116
20
4448.75
0
VERTEX
8
L6D0
10
116
20
3448.75
0
VERTEX
8
L6D0
10
122
20
3448.75
0
VERTEX
8
L6D0
10
122
20
4448.75
0
VERTEX
8
L6D0
10
124
20
4448.75
0
VERTEX
8
L6D0
10
124
20
3448.75
0
VERTEX
8
L6D0
10
130
20
3448.75
0
VERTEX
8
L6D0
10
130
20
4448.75
0
VERTEX
8
L6D0
10
132
20
4448.75
0
VERTEX
8
L6D0
10
132
20
3448.75
0
VERTEX
8
L6D0
10
138
20
3448.75
0
VERTEX
8
L6D0
10
138
20
4448.75
0
VERTEX
8
L6D0
10
140
20
4448.75
0
VERTEX
8
L6D0
10
140
20
3448.75
0
VERTEX
8
L6D0
10
146
20
3448.75
0
VERTEX
8
L6D0
10
146
20
4448.75
0
VERTEX
8
L6D0
10
148
20
4448.75
0
VERTEX
8
L6D0
10
148
20
3448.75
0
VERTEX
8
L6D0
10
154
20
3448.75
0
VERTEX
8
L6D0
10
154
20
4448.75
0
VERTEX
8
L6D0
10
156
20
4448.75
0
VERTEX
8
L6D0
10
156
20
3448.75
0
VERTEX
8
L6D0
10
162
20
3448.75
0
VERTEX
8
L6D0
10
162
20
4448.75
0
VERTEX
8
L6D0
10
164
20
4448.75
0
VERTEX
8
L6D0
10
164
20
3448.75
0
VERTEX
8
L6D0
10
170
20
3448.75
0
VERTEX
8
L6D0
10
170
20
4448.75
0
VERTEX
8
L6D0
10
172
20
4448.75
0
VERTEX
8
L6D0
10
172
20
3448.75
0
VERTEX
8
L6D0
10
178
20
3448.75
0
VERTEX
8
L6D0
10
178
20
4448.75
0
VERTEX
8
L6D0
10
180
20
4448.75
0
VERTEX
8
L6D0
10
180
20
3448.75
0
VERTEX
8
L6D0
10
186
20
3448.75
0
VERTEX
8
L6D0
10
186
20
3423.75
0
SEQEND
0
POLYLINE
8
L6D0
70
1
40
0
41
0
66
1
0
VERTEX
8
L6D0
10
186
20
3423.75
0
VERTEX
8
L6D0
10
186
20
4448.75
0
VERTEX
8
L6D0
10
188
20
4448.75
0
VERTEX
8
L6D0
10
188
20
3448.75
0
VERTEX
8
L6D0
10
194
20
3448.75
0
VERTEX
8
L6D0
10
194
20
4448.75
0
VERTEX
8
L6D0
10
196
20
4448.75
0
VERTEX
8
L6D0
10
196
20
3448.75
0
VERTEX
8
L6D0
10
202
20
3448.75
0
VERTEX
8
L6D0
10
202
20
4448.75
0
VERTEX
8
L6D0
10
204
20
4448.75
0
VERTEX
8
L6D0
10
204
20
3448.75
0
VERTEX
8
L6D0
10
210
20
3448.75
0
VERTEX
8
L6D0
10
210
20
4448.75
0
VERTEX
8
L6D0
10
212
20
4448.75
0
VERTEX
8
L6D0
10
212
20
3448.75
0
VERTEX
8
L6D0
10
218
20
3448.75
0
VERTEX
8
L6D0
10
218
20
4448.75
0
VERTEX
8
L6D0
10
220
20
4448.75
0
VERTEX
8
L6D0
10
220
20
3448.75
0
VERTEX
8
L6D0
10
226
20
3448.75
0
VERTEX
8
L6D0
10
226
20
4448.75
0
VERTEX
8
L6D0
10
228
20
4448.75
0
VERTEX
8
L6D0
10
228
20
3448.75
0
VERTEX
8
L6D0
10
234
20
3448.75
0
VERTEX
8
L6D0
10
234
20
4448.75
0
VERTEX
8
L6D0
10
236
20
4448.75
0
VERTEX
8
L6D0
10
236
20
3448.75
0
VERTEX
8
L6D0
10
242
20
3448.75
0
VERTEX
8
L6D0
10
242
20
4448.75
0
VERTEX
8
L6D0
10
244
20
4448.75
0
VERTEX
8
L6D0
10
244
20
3448.75
0
VERTEX
8
L6D0
10
250
20
3448.75
0
VERTEX
8
L6D0
10
250
20
4448.75
0
VERTEX
8
L6D0
10
252
20
4448.75
0
VERTEX
8
L6D0
10
252
20
3448.75
0
VERTEX
8
L6D0
10
258
20
3448.75
0
VERTEX
8
L6D0
10
258
20
4448.75
0
VERTEX
8
L6D0
10
260
20
4448.75
0
VERTEX
8
L6D0
10
260
20
3448.75
0
VERTEX
8
L6D0
10
266
20
3448.75
0
VERTEX
8
L6D0
10
266
20
4448.75
0
VERTEX
8
L6D0
10
268
20
4448.75
0
VERTEX
8
L6D0
10
268
20
3448.75
0
VERTEX
8
L6D0
10
274
20
3448.75
0
VERTEX
8
L6D0
10
274
20
4448.75
0
VERTEX
8
L6D0
10
276
20
4448.75
0
VERTEX
8
L6D0
10
276
20
3448.75
0
VERTEX
8
L6D0
10
282
20
3448.75
0
VERTEX
8
L6D0
10
282
20
4448.75
0
VERTEX
8
L6D0
10
284
20
4448.75
0
VERTEX
8
L6D0
10
284
20
3448.75
0
VERTEX
8
L6D0
10
290
20
3448.75
0
VERTEX
8
L6D0
10
290
20
4448.75
0
VERTEX
8
L6D0
10
292
20
4448.75
0
VERTEX
8
L6D0
10
292
20
3448.75
0
VERTEX
8
L6D0
10
298
20
3448.75
0
VERTEX
8
L6D0
10
298
20
4448.75
0
VERTEX
8
L6D0
10
300
20
4448.75
0
VERTEX
8
L6D0
10
300
20
3448.75
0
VERTEX
8
L6D0
10
306
20
3448.75
0
VERTEX
8
L6D0
10
306
20
4448.75
0
VERTEX
8
L6D0
10
308
20
4448.75
0
VERTEX
8
L6D0
10
308
20
3448.75
0
VERTEX
8
L6D0
10
314
20
3448.75
0
VERTEX
8
L6D0
10
314
20
4448.75
0
VERTEX
8
L6D0
10
316
20
4448.75
0
VERTEX
8
L6D0
10
316
20
3448.75
0
VERTEX
8
L6D0
10
322
20
3448.75
0
VERTEX
8
L6D0
10
322
20
4448.75
0
VERTEX
8
L6D0
10
324
20
4448.75
0
VERTEX
8
L6D0
10
324
20
3448.75
0
VERTEX
8
L6D0
10
330
20
3448.75
0
VERTEX
8
L6D0
10
330
20
4448.75
0
VERTEX
8
L6D0
10
332
20
4448.75
0
VERTEX
8
L6D0
10
332
20
3448.75
0
VERTEX
8
L6D0
10
338
20
3448.75
0
VERTEX
8
L6D0
10
338
20
4448.75
0
VERTEX
8
L6D0
10
340
20
4448.75
0
VERTEX
8
L6D0
10
340
20
3448.75
0
VERTEX
8
L6D0
10
346
20
3448.75
0
VERTEX
8
L6D0
10
346
20
4448.75
0
VERTEX
8
L6D0
10
348
20
4448.75
0
VERTEX
8
L6D0
10
348
20
3448.75
0
VERTEX
8
L6D0
10
354
20
3448.75
0
VERTEX
8
L6D0
10
354
20
4448.75
0
VERTEX
8
L6D0
10
356
20
4448.75
0
VERTEX
8
L6D0
10
356
20
3448.75
0
VERTEX
8
L6D0
10
362
20
3448.75
0
VERTEX
8
L6D0
10
362
20
4448.75
0
VERTEX
8
L6D0
10
364
20
4448.75
0
VERTEX
8
L6D0
10
364
20
3448.75
0
VERTEX
8
L6D0
10
370
20
3448.75
0
VERTEX
8
L6D0
10
370
20
4448.75
0
VERTEX
8
L6D0
10
372
20
4448.75
0
VERTEX
8
L6D0
10
372
20
3448.75
0
VERTEX
8
L6D0
10
378
20
3448.75
0
VERTEX
8
L6D0
10
378
20
4448.75
0
VERTEX
8
L6D0
10
380
20
4448.75
0
VERTEX
8
L6D0
10
380
20
3448.75
0
VERTEX
8
L6D0
10
386
20
3448.75
0
VERTEX
8
L6D0
10
386
20
4448.75
0
VERTEX
8
L6D0
10
388
20
4448.75
0
VERTEX
8
L6D0
10
388
20
3448.75
0
VERTEX
8
L6D0
10
394
20
3448.75
0
VERTEX
8
L6D0
10
394
20
4448.75
0
VERTEX
8
L6D0
10
396
20
4448.75
0
VERTEX
8
L6D0
10
396
20
3448.75
0
VERTEX
8
L6D0
10
402
20
3448.75
0
VERTEX
8
L6D0
10
402
20
4448.75
0
VERTEX
8
L6D0
10
404
20
4448.75
0
VERTEX
8
L6D0
10
404
20
3448.75
0
VERTEX
8
L6D0
10
410
20
3448.75
0
VERTEX
8
L6D0
10
410
20
4448.75
0
VERTEX
8
L6D0
10
412
20
4448.75
0
VERTEX
8
L6D0
10
412
20
3448.75
0
VERTEX
8
L6D0
10
418
20
3448.75
0
VERTEX
8
L6D0
10
418
20
4448.75
0
VERTEX
8
L6D0
10
420
20
4448.75
0
VERTEX
8
L6D0
10
420
20
3448.75
0
VERTEX
8
L6D0
10
426
20
3448.75
0
VERTEX
8
L6D0
10
426
20
4448.75
0
VERTEX
8
L6D0
10
428
20
4448.75
0
VERTEX
8
L6D0
10
428
20
3448.75
0
VERTEX
8
L6D0
10
434
20
3448.75
0
VERTEX
8
L6D0
10
434
20
4448.75
0
VERTEX
8
L6D0
10
436
20
4448.75
0
VERTEX
8
L6D0
10
436
20
3423.75
0
SEQEND
0
POLYLINE
8
L6D0
70
1
40
0
41
0
66
1
0
VERTEX
8
L6D0
10
436
20
3423.75
0
VERTEX
8
L6D0
10
436
20
3448.75
0
VERTEX
8
L6D0
10
442
20
3448.75
0
VERTEX
8
L6D0
10
442
20
4448.75
0
VERTEX
8
L6D0
10
444
20
4448.75
0
VERTEX
8
L6D0
10
444
20
3448.75
0
VERTEX
8
L6D0
10
450
20
3448.75
0
VERTEX
8
L6D0
10
450
20
4448.75
0
VERTEX
8
L6D0
10
452
20
4448.75
0
VERTEX
8
L6D0
10
452
20
3448.75
0
VERTEX
8
L6D0
10
458
20
3448.75
0
VERTEX
8
L6D0
10
458
20
4448.75
0
VERTEX
8
L6D0
10
460
20
4448.75
0
VERTEX
8
L6D0
10
460
20
3448.75
0
VERTEX
8
L6D0
10
466
20
3448.75
0
VERTEX
8
L6D0
10
466
20
4448.75
0
VERTEX
8
L6D0
10
468
20
4448.75
0
VERTEX
8
L6D0
10
468
20
3448.75
0
VERTEX
8
L6D0
10
474
20
3448.75
0
VERTEX
8
L6D0
10
474
20
4448.75
0
VERTEX
8
L6D0
10
476
20
4448.75
0
VERTEX
8
L6D0
10
476
20
3448.75
0
VERTEX
8
L6D0
10
482
20
3448.75
0
VERTEX
8
L6D0
10
482
20
4448.75
0
VERTEX
8
L6D0
10
484
20
4448.75
0
VERTEX
8
L6D0
10
484
20
3448.75
0
VERTEX
8
L6D0
10
490
20
3448.75
0
VERTEX
8
L6D0
10
490
20
4448.75
0
VERTEX
8
L6D0
10
492
20
4448.75
0
VERTEX
8
L6D0
10
492
20
3448.75
0
VERTEX
8
L6D0
10
498
20
3448.75
0
VERTEX
8
L6D0
10
498
20
4448.75
0
VERTEX
8
L6D0
10
500
20
4448.75
0
VERTEX
8
L6D0
10
500
20
3448.75
0
VERTEX
8
L6D0
10
506
20
3448.75
0
VERTEX
8
L6D0
10
506
20
4448.75
0
VERTEX
8
L6D0
10
508
20
4448.75
0
VERTEX
8
L6D0
10
508
20
3448.75
0
VERTEX
8
L6D0
10
514
20
3448.75
0
VERTEX
8
L6D0
10
514
20
4448.75
0
VERTEX
8
L6D0
10
516
20
4448.75
0
VERTEX
8
L6D0
10
516
20
3448.75
0
VERTEX
8
L6D0
10
522
20
3448.75
0
VERTEX
8
L6D0
10
522
20
4448.75
0
VERTEX
8
L6D0
10
524
20
4448.75
0
VERTEX
8
L6D0
10
524
20
3448.75
0
VERTEX
8
L6D0
10
530
20
3448.75
0
VERTEX
8
L6D0
10
530
20
4448.75
0
VERTEX
8
L6D0
10
532
20
4448.75
0
VERTEX
8
L6D0
10
532
20
3448.75
0
VERTEX
8
L6D0
10
538
20
3448.75
0
VERTEX
8
L6D0
10
538
20
4448.75
0
VERTEX
8
L6D0
10
540
20
4448.75
0
VERTEX
8
L6D0
10
540
20
3448.75
0
VERTEX
8
L6D0
10
546
20
3448.75
0
VERTEX
8
L6D0
10
546
20
4448.75
0
VERTEX
8
L6D0
10
548
20
4448.75
0
VERTEX
8
L6D0
10
548
20
3448.75
0
VERTEX
8
L6D0
10
554
20
3448.75
0
VERTEX
8
L6D0
10
554
20
4448.75
0
VERTEX
8
L6D0
10
556
20
4448.75
0
VERTEX
8
L6D0
10
556
20
3448.75
0
VERTEX
8
L6D0
10
562
20
3448.75
0
VERTEX
8
L6D0
10
562
20
4448.75
0
VERTEX
8
L6D0
10
564
20
4448.75
0
VERTEX
8
L6D0
10
564
20
3448.75
0
VERTEX
8
L6D0
10
570
20
3448.75
0
VERTEX
8
L6D0
10
570
20
4448.75
0
VERTEX
8
L6D0
10
572
20
4448.75
0
VERTEX
8
L6D0
10
572
20
3448.75
0
VERTEX
8
L6D0
10
578
20
3448.75
0
VERTEX
8
L6D0
10
578
20
4448.75
0
VERTEX
8
L6D0
10
580
20
4448.75
0
VERTEX
8
L6D0
10
580
20
3448.75
0
VERTEX
8
L6D0
10
586
20
3448.75
0
VERTEX
8
L6D0
10
586
20
4448.75
0
VERTEX
8
L6D0
10
588
20
4448.75
0
VERTEX
8
L6D0
10
588
20
3448.75
0
VERTEX
8
L6D0
10
594
20
3448.75
0
VERTEX
8
L6D0
10
594
20
4448.75
0
VERTEX
8
L6D0
10
596
20
4448.75
0
VERTEX
8
L6D0
10
596
20
3448.75
0
VERTEX
8
L6D0
10
602
20
3448.75
0
VERTEX
8
L6D0
10
602
20
4448.75
0
VERTEX
8
L6D0
10
604
20
4448.75
0
VERTEX
8
L6D0
10
604
20
3448.75
0
VERTEX
8
L6D0
10
610
20
3448.75
0
VERTEX
8
L6D0
10
610
20
4448.75
0
VERTEX
8
L6D0
10
612
20
4448.75
0
VERTEX
8
L6D0
10
612
20
3448.75
0
VERTEX
8
L6D0
10
618
20
3448.75
0
VERTEX
8
L6D0
10
618
20
4448.75
0
VERTEX
8
L6D0
10
620
20
4448.75
0
VERTEX
8
L6D0
10
620
20
3448.75
0
VERTEX
8
L6D0
10
626
20
3448.75
0
VERTEX
8
L6D0
10
626
20
4448.75
0
VERTEX
8
L6D0
10
628
20
4448.75
0
VERTEX
8
L6D0
10
628
20
3448.75
0
VERTEX
8
L6D0
10
634
20
3448.75
0
VERTEX
8
L6D0
10
634
20
4448.75
0
VERTEX
8
L6D0
10
636
20
4448.75
0
VERTEX
8
L6D0
10
636
20
3448.75
0
VERTEX
8
L6D0
10
642
20
3448.75
0
VERTEX
8
L6D0
10
642
20
4448.75
0
VERTEX
8
L6D0
10
644
20
4448.75
0
VERTEX
8
L6D0
10
644
20
3448.75
0
VERTEX
8
L6D0
10
650
20
3448.75
0
VERTEX
8
L6D0
10
650
20
4448.75
0
VERTEX
8
L6D0
10
652
20
4448.75
0
VERTEX
8
L6D0
10
652
20
3448.75
0
VERTEX
8
L6D0
10
658
20
3448.75
0
VERTEX
8
L6D0
10
658
20
4448.75
0
VERTEX
8
L6D0
10
660
20
4448.75
0
VERTEX
8
L6D0
10
660
20
3448.75
0
VERTEX
8
L6D0
10
666
20
3448.75
0
VERTEX
8
L6D0
10
666
20
4448.75
0
VERTEX
8
L6D0
10
668
20
4448.75
0
VERTEX
8
L6D0
10
668
20
3448.75
0
VERTEX
8
L6D0
10
674
20
3448.75
0
VERTEX
8
L6D0
10
674
20
4448.75
0
VERTEX
8
L6D0
10
676
20
4448.75
0
VERTEX
8
L6D0
10
676
20
3448.75
0
VERTEX
8
L6D0
10
682
20
3448.75
0
VERTEX
8
L6D0
10
682
20
4448.75
0
VERTEX
8
L6D0
10
684
20
4448.75
0
VERTEX
8
L6D0
10
684
20
3448.75
0
VERTEX
8
L6D0
10
690
20
3448.75
0
VERTEX
8
L6D0
10
690
20
3423.75
0
SEQEND
0
POLYLINE
8
L6D0
70
1
40
0
41
0
66
1
0
VERTEX
8
L6D0
10
690
20
3423.75
0
VERTEX
8
L6D0
10
690
20
4448.75
0
VERTEX
8
L6D0
10
692
20
4448.75
0
VERTEX
8
L6D0
10
692
20
3448.75
0
VERTEX
8
L6D0
10
698
20
3448.75
0
VERTEX
8
L6D0
10
698
20
4448.75
0
VERTEX
8
L6D0
10
700
20
4448.75
0
VERTEX
8
L6D0
10
700
20
3448.75
0
VERTEX
8
L6D0
10
706
20
3448.75
0
VERTEX
8
L6D0
10
706
20
4448.75
0
VERTEX
8
L6D0
10
708
20
4448.75
0
VERTEX
8
L6D0
10
708
20
3448.75
0
VERTEX
8
L6D0
10
714
20
3448.75
0
VERTEX
8
L6D0
10
714
20
4448.75
0
VERTEX
8
L6D0
10
716
20
4448.75
0
VERTEX
8
L6D0
10
716
20
3448.75
0
VERTEX
8
L6D0
10
722
20
3448.75
0
VERTEX
8
L6D0
10
722
20
4448.75
0
VERTEX
8
L6D0
10
724
20
4448.75
0
VERTEX
8
L6D0
10
724
20
3448.75
0
VERTEX
8
L6D0
10
730
20
3448.75
0
VERTEX
8
L6D0
10
730
20
4448.75
0
VERTEX
8
L6D0
10
732
20
4448.75
0
VERTEX
8
L6D0
10
732
20
3448.75
0
VERTEX
8
L6D0
10
738
20
3448.75
0
VERTEX
8
L6D0
10
738
20
4448.75
0
VERTEX
8
L6D0
10
740
20
4448.75
0
VERTEX
8
L6D0
10
740
20
3448.75
0
VERTEX
8
L6D0
10
746
20
3448.75
0
VERTEX
8
L6D0
10
746
20
4448.75
0
VERTEX
8
L6D0
10
748
20
4448.75
0
VERTEX
8
L6D0
10
748
20
3448.75
0
VERTEX
8
L6D0
10
754
20
3448.75
0
VERTEX
8
L6D0
10
754
20
4448.75
0
VERTEX
8
L6D0
10
756
20
4448.75
0
VERTEX
8
L6D0
10
756
20
3448.75
0
VERTEX
8
L6D0
10
762
20
3448.75
0
VERTEX
8
L6D0
10
762
20
4448.75
0
VERTEX
8
L6D0
10
764
20
4448.75
0
VERTEX
8
L6D0
10
764
20
3448.75
0
VERTEX
8
L6D0
10
770
20
3448.75
0
VERTEX
8
L6D0
10
770
20
4448.75
0
VERTEX
8
L6D0
10
772
20
4448.75
0
VERTEX
8
L6D0
10
772
20
3448.75
0
VERTEX
8
L6D0
10
778
20
3448.75
0
VERTEX
8
L6D0
10
778
20
4448.75
0
VERTEX
8
L6D0
10
780
20
4448.75
0
VERTEX
8
L6D0
10
780
20
3448.75
0
VERTEX
8
L6D0
10
786
20
3448.75
0
VERTEX
8
L6D0
10
786
20
4448.75
0
VERTEX
8
L6D0
10
788
20
4448.75
0
VERTEX
8
L6D0
10
788
20
3448.75
0
VERTEX
8
L6D0
10
794
20
3448.75
0
VERTEX
8
L6D0
10
794
20
4448.75
0
VERTEX
8
L6D0
10
796
20
4448.75
0
VERTEX
8
L6D0
10
796
20
3448.75
0
VERTEX
8
L6D0
10
802
20
3448.75
0
VERTEX
8
L6D0
10
802
20
4448.75
0
VERTEX
8
L6D0
10
804
20
4448.75
0
VERTEX
8
L6D0
10
804
20
3448.75
0
VERTEX
8
L6D0
10
810
20
3448.75
0
VERTEX
8
L6D0
10
810
20
4448.75
0
VERTEX
8
L6D0
10
812
20
4448.75
0
VERTEX
8
L6D0
10
812
20
3448.75
0
VERTEX
8
L6D0
10
818
20
3448.75
0
VERTEX
8
L6D0
10
818
20
4448.75
0
VERTEX
8
L6D0
10
820
20
4448.75
0
VERTEX
8
L6D0
10
820
20
3448.75
0
VERTEX
8
L6D0
10
826
20
3448.75
0
VERTEX
8
L6D0
10
826
20
4448.75
0
VERTEX
8
L6D0
10
828
20
4448.75
0
VERTEX
8
L6D0
10
828
20
3448.75
0
VERTEX
8
L6D0
10
834
20
3448.75
0
VERTEX
8
L6D0
10
834
20
4448.75
0
VERTEX
8
L6D0
10
836
20
4448.75
0
VERTEX
8
L6D0
10
836
20
3448.75
0
VERTEX
8
L6D0
10
842
20
3448.75
0
VERTEX
8
L6D0
10
842
20
4448.75
0
VERTEX
8
L6D0
10
844
20
4448.75
0
VERTEX
8
L6D0
10
844
20
3448.75
0
VERTEX
8
L6D0
10
850
20
3448.75
0
VERTEX
8
L6D0
10
850
20
4448.75
0
VERTEX
8
L6D0
10
852
20
4448.75
0
VERTEX
8
L6D0
10
852
20
3448.75
0
VERTEX
8
L6D0
10
858
20
3448.75
0
VERTEX
8
L6D0
10
858
20
4448.75
0
VERTEX
8
L6D0
10
860
20
4448.75
0
VERTEX
8
L6D0
10
860
20
3448.75
0
VERTEX
8
L6D0
10
866
20
3448.75
0
VERTEX
8
L6D0
10
866
20
4448.75
0
VERTEX
8
L6D0
10
868
20
4448.75
0
VERTEX
8
L6D0
10
868
20
3448.75
0
VERTEX
8
L6D0
10
874
20
3448.75
0
VERTEX
8
L6D0
10
874
20
4448.75
0
VERTEX
8
L6D0
10
876
20
4448.75
0
VERTEX
8
L6D0
10
876
20
3448.75
0
VERTEX
8
L6D0
10
882
20
3448.75
0
VERTEX
8
L6D0
10
882
20
4448.75
0
VERTEX
8
L6D0
10
884
20
4448.75
0
VERTEX
8
L6D0
10
884
20
3448.75
0
VERTEX
8
L6D0
10
890
20
3448.75
0
VERTEX
8
L6D0
10
890
20
4448.75
0
VERTEX
8
L6D0
10
892
20
4448.75
0
VERTEX
8
L6D0
10
892
20
3448.75
0
VERTEX
8
L6D0
10
898
20
3448.75
0
VERTEX
8
L6D0
10
898
20
4448.75
0
VERTEX
8
L6D0
10
900
20
4448.75
0
VERTEX
8
L6D0
10
900
20
3448.75
0
VERTEX
8
L6D0
10
906
20
3448.75
0
VERTEX
8
L6D0
10
906
20
4448.75
0
VERTEX
8
L6D0
10
908
20
4448.75
0
VERTEX
8
L6D0
10
908
20
3448.75
0
VERTEX
8
L6D0
10
914
20
3448.75
0
VERTEX
8
L6D0
10
914
20
4448.75
0
VERTEX
8
L6D0
10
916
20
4448.75
0
VERTEX
8
L6D0
10
916
20
3448.75
0
VERTEX
8
L6D0
10
922
20
3448.75
0
VERTEX
8
L6D0
10
922
20
4448.75
0
VERTEX
8
L6D0
10
924
20
4448.75
0
VERTEX
8
L6D0
10
924
20
3448.75
0
VERTEX
8
L6D0
10
930
20
3448.75
0
VERTEX
8
L6D0
10
930
20
4448.75
0
VERTEX
8
L6D0
10
932
20
4448.75
0
VERTEX
8
L6D0
10
932
20
3448.75
0
VERTEX
8
L6D0
10
944.5
20
3448.75
0
VERTEX
8
L6D0
10
944.5
20
3948.5
0
VERTEX
8
L6D0
10
969.5
20
3948.5
0
VERTEX
8
L6D0
10
969.5
20
3423.75
0
SEQEND
0
ENDSEC
0
EOF
