0
SECTION
2
HEADER
9
$ACADVER
1
AC1006
0
ENDSEC
0
SECTION
2
TABLES
0
TABLE
2
LAYER
70
1
0
LAYER
70
0
62
1
6
CONTINUOUS
2
L3D0
0
ENDTAB
0
ENDSEC
0
SECTION
2
BLOCKS
0
ENDSEC
0
SECTION
2
ENTITIES
0
POLYLINE
8
L3D0
70
0
40
1
41
1
66
1
0
VERTEX
8
L3D0
10
4770.5
20
8010.5
0
VERTEX
8
L3D0
10
5071
20
8010.5
0
VERTEX
8
L3D0
10
5071
20
8012.5
0
VERTEX
8
L3D0
10
4771
20
8012.5
0
VERTEX
8
L3D0
10
4771
20
8014.5
0
VERTEX
8
L3D0
10
5071
20
8014.5
0
VERTEX
8
L3D0
10
5071
20
8016.5
0
VERTEX
8
L3D0
10
4771
20
8016.5
0
VERTEX
8
L3D0
10
4771
20
8018.5
0
VERTEX
8
L3D0
10
5071
20
8018.5
0
VERTEX
8
L3D0
10
5071
20
8020.5
0
VERTEX
8
L3D0
10
4771
20
8020.5
0
VERTEX
8
L3D0
10
4771
20
8022.5
0
VERTEX
8
L3D0
10
5071
20
8022.5
0
VERTEX
8
L3D0
10
5071
20
8024.5
0
VERTEX
8
L3D0
10
4771
20
8024.5
0
VERTEX
8
L3D0
10
4771
20
8026.5
0
VERTEX
8
L3D0
10
5071
20
8026.5
0
VERTEX
8
L3D0
10
5071
20
8028.5
0
VERTEX
8
L3D0
10
4771
20
8028.5
0
VERTEX
8
L3D0
10
4771
20
8030.5
0
VERTEX
8
L3D0
10
5071
20
8030.5
0
VERTEX
8
L3D0
10
5071
20
8032.5
0
VERTEX
8
L3D0
10
4771
20
8032.5
0
VERTEX
8
L3D0
10
4771
20
8034.5
0
VERTEX
8
L3D0
10
5071
20
8034.5
0
VERTEX
8
L3D0
10
5071
20
8036.5
0
VERTEX
8
L3D0
10
4771
20
8036.5
0
VERTEX
8
L3D0
10
4771
20
8038.5
0
VERTEX
8
L3D0
10
5071
20
8038.5
0
VERTEX
8
L3D0
10
5071
20
8040.5
0
VERTEX
8
L3D0
10
4771
20
8040.5
0
VERTEX
8
L3D0
10
4771
20
8042.5
0
VERTEX
8
L3D0
10
5071
20
8042.5
0
VERTEX
8
L3D0
10
5071
20
8044.5
0
VERTEX
8
L3D0
10
4771
20
8044.5
0
VERTEX
8
L3D0
10
4771
20
8046.5
0
VERTEX
8
L3D0
10
5071
20
8046.5
0
VERTEX
8
L3D0
10
5071
20
8048.5
0
VERTEX
8
L3D0
10
4771
20
8048.5
0
VERTEX
8
L3D0
10
4771
20
8050.5
0
VERTEX
8
L3D0
10
5071
20
8050.5
0
VERTEX
8
L3D0
10
5071
20
8052.5
0
VERTEX
8
L3D0
10
4771
20
8052.5
0
VERTEX
8
L3D0
10
4771
20
8054.5
0
VERTEX
8
L3D0
10
5071
20
8054.5
0
VERTEX
8
L3D0
10
5071
20
8056.5
0
VERTEX
8
L3D0
10
4771
20
8056.5
0
VERTEX
8
L3D0
10
4771
20
8058.5
0
VERTEX
8
L3D0
10
5071
20
8058.5
0
VERTEX
8
L3D0
10
5071
20
8060.5
0
VERTEX
8
L3D0
10
4771
20
8060.5
0
VERTEX
8
L3D0
10
4771
20
8062.5
0
VERTEX
8
L3D0
10
5071
20
8062.5
0
VERTEX
8
L3D0
10
5071
20
8064.5
0
VERTEX
8
L3D0
10
4770.5
20
8064.5
0
SEQEND
0
POLYLINE
8
L3D0
70
0
40
1
41
1
66
1
0
VERTEX
8
L3D0
10
4770.5
20
7989.5
0
VERTEX
8
L3D0
10
5071
20
7989.5
0
VERTEX
8
L3D0
10
5071
20
7987.5
0
VERTEX
8
L3D0
10
4771
20
7987.5
0
VERTEX
8
L3D0
10
4771
20
7985.5
0
VERTEX
8
L3D0
10
5071
20
7985.5
0
VERTEX
8
L3D0
10
5071
20
7983.5
0
VERTEX
8
L3D0
10
4771
20
7983.5
0
VERTEX
8
L3D0
10
4771
20
7981.5
0
VERTEX
8
L3D0
10
5071
20
7981.5
0
VERTEX
8
L3D0
10
5071
20
7979.5
0
VERTEX
8
L3D0
10
4771
20
7979.5
0
VERTEX
8
L3D0
10
4771
20
7977.5
0
VERTEX
8
L3D0
10
5071
20
7977.5
0
VERTEX
8
L3D0
10
5071
20
7975.5
0
VERTEX
8
L3D0
10
4771
20
7975.5
0
VERTEX
8
L3D0
10
4771
20
7973.5
0
VERTEX
8
L3D0
10
5071
20
7973.5
0
VERTEX
8
L3D0
10
5071
20
7971.5
0
VERTEX
8
L3D0
10
4771
20
7971.5
0
VERTEX
8
L3D0
10
4771
20
7969.5
0
VERTEX
8
L3D0
10
5071
20
7969.5
0
VERTEX
8
L3D0
10
5071
20
7967.5
0
VERTEX
8
L3D0
10
4771
20
7967.5
0
VERTEX
8
L3D0
10
4771
20
7965.5
0
VERTEX
8
L3D0
10
5071
20
7965.5
0
VERTEX
8
L3D0
10
5071
20
7963.5
0
VERTEX
8
L3D0
10
4771
20
7963.5
0
VERTEX
8
L3D0
10
4771
20
7961.5
0
VERTEX
8
L3D0
10
5071
20
7961.5
0
VERTEX
8
L3D0
10
5071
20
7959.5
0
VERTEX
8
L3D0
10
4771
20
7959.5
0
VERTEX
8
L3D0
10
4771
20
7957.5
0
VERTEX
8
L3D0
10
5071
20
7957.5
0
VERTEX
8
L3D0
10
5071
20
7955.5
0
VERTEX
8
L3D0
10
4771
20
7955.5
0
VERTEX
8
L3D0
10
4771
20
7953.5
0
VERTEX
8
L3D0
10
5071
20
7953.5
0
VERTEX
8
L3D0
10
5071
20
7951.5
0
VERTEX
8
L3D0
10
4771
20
7951.5
0
VERTEX
8
L3D0
10
4771
20
7949.5
0
VERTEX
8
L3D0
10
5071
20
7949.5
0
VERTEX
8
L3D0
10
5071
20
7947.5
0
VERTEX
8
L3D0
10
4771
20
7947.5
0
VERTEX
8
L3D0
10
4771
20
7945.5
0
VERTEX
8
L3D0
10
5071
20
7945.5
0
VERTEX
8
L3D0
10
5071
20
7943.5
0
VERTEX
8
L3D0
10
4771
20
7943.5
0
VERTEX
8
L3D0
10
4771
20
7941.5
0
VERTEX
8
L3D0
10
5071
20
7941.5
0
VERTEX
8
L3D0
10
5071
20
7939.5
0
VERTEX
8
L3D0
10
4771
20
7939.5
0
VERTEX
8
L3D0
10
4771
20
7937.5
0
VERTEX
8
L3D0
10
5071
20
7937.5
0
VERTEX
8
L3D0
10
5071
20
7935.5
0
VERTEX
8
L3D0
10
4770.5
20
7935.5
0
SEQEND
0
POLYLINE
8
L3D0
70
0
40
1
41
1
66
1
0
VERTEX
8
L3D0
10
4771
20
8011
0
VERTEX
8
L3D0
10
4771
20
7989
0
SEQEND
0
POLYLINE
8
L3D0
70
0
40
1
41
1
66
1
0
VERTEX
8
L3D0
10
4771.5
20
8064.5
0
VERTEX
8
L3D0
10
4764.5
20
8064.5
0
SEQEND
0
POLYLINE
8
L3D0
70
0
40
1
41
1
66
1
0
VERTEX
8
L3D0
10
4771.5
20
7935.5
0
VERTEX
8
L3D0
10
4764.5
20
7935.5
0
SEQEND
0
POLYLINE
8
L3D0
70
1
40
0
41
0
66
1
0
VERTEX
8
L3D0
10
4764.5
20
8014.5
0
VERTEX
8
L3D0
10
4764.5
20
8064.5
0
VERTEX
8
L3D0
10
4767.5
20
8064.5
0
VERTEX
8
L3D0
10
4767.5
20
8014.5
0
SEQEND
0
POLYLINE
8
L3D0
70
1
40
0
41
0
66
1
0
VERTEX
8
L3D0
10
4764.5
20
7935.5
0
VERTEX
8
L3D0
10
4764.5
20
7985.5
0
VERTEX
8
L3D0
10
4767.5
20
7985.5
0
VERTEX
8
L3D0
10
4767.5
20
7935.5
0
SEQEND
0
ENDSEC
0
EOF
