0
SECTION
2
HEADER
9
$ACADVER
1
AC1006
0
ENDSEC
0
SECTION
2
TABLES
0
TABLE
2
LAYER
70
1
0
LAYER
70
0
62
1
6
CONTINUOUS
2
L3D0
0
ENDTAB
0
ENDSEC
0
SECTION
2
BLOCKS
0
ENDSEC
0
SECTION
2
ENTITIES
0
POLYLINE
8
L3D0
70
1
40
0
41
0
66
1
0
VERTEX
8
L3D0
10
1370.226
20
-197.065
0
VERTEX
8
L3D0
10
1370.226
20
-196.065
0
VERTEX
8
L3D0
10
1676.226
20
-196.065
0
VERTEX
8
L3D0
10
1676.226
20
-195.065
0
VERTEX
8
L3D0
10
1370.226
20
-195.065
0
VERTEX
8
L3D0
10
1370.226
20
-192.065
0
VERTEX
8
L3D0
10
1676.226
20
-192.065
0
VERTEX
8
L3D0
10
1676.226
20
-191.065
0
VERTEX
8
L3D0
10
1370.226
20
-191.065
0
VERTEX
8
L3D0
10
1370.226
20
-188.065
0
VERTEX
8
L3D0
10
1396.226
20
-188.065
0
VERTEX
8
L3D0
10
1396.226
20
-187.065
0
VERTEX
8
L3D0
10
1370.226
20
-187.065
0
VERTEX
8
L3D0
10
1370.226
20
-184.065
0
VERTEX
8
L3D0
10
1396.226
20
-184.065
0
VERTEX
8
L3D0
10
1396.226
20
-183.065
0
VERTEX
8
L3D0
10
1370.226
20
-183.065
0
VERTEX
8
L3D0
10
1370.226
20
-180.065
0
VERTEX
8
L3D0
10
1396.226
20
-180.065
0
VERTEX
8
L3D0
10
1396.226
20
-179.065
0
VERTEX
8
L3D0
10
1370.226
20
-179.065
0
VERTEX
8
L3D0
10
1370.226
20
-176.065
0
VERTEX
8
L3D0
10
1411.226
20
-176.065
0
VERTEX
8
L3D0
10
1411.226
20
-188.065
0
VERTEX
8
L3D0
10
1436.226
20
-188.065
0
VERTEX
8
L3D0
10
1436.226
20
-187.065
0
VERTEX
8
L3D0
10
1412.226
20
-187.065
0
VERTEX
8
L3D0
10
1412.226
20
-184.065
0
VERTEX
8
L3D0
10
1436.226
20
-184.065
0
VERTEX
8
L3D0
10
1436.226
20
-183.065
0
VERTEX
8
L3D0
10
1412.226
20
-183.065
0
VERTEX
8
L3D0
10
1412.226
20
-180.065
0
VERTEX
8
L3D0
10
1436.226
20
-180.065
0
VERTEX
8
L3D0
10
1436.226
20
-179.065
0
VERTEX
8
L3D0
10
1412.226
20
-179.065
0
VERTEX
8
L3D0
10
1412.226
20
-176.065
0
VERTEX
8
L3D0
10
1451.226
20
-176.065
0
VERTEX
8
L3D0
10
1451.226
20
-188.065
0
VERTEX
8
L3D0
10
1476.226
20
-188.065
0
VERTEX
8
L3D0
10
1476.226
20
-187.065
0
VERTEX
8
L3D0
10
1452.226
20
-187.065
0
VERTEX
8
L3D0
10
1452.226
20
-184.065
0
VERTEX
8
L3D0
10
1476.226
20
-184.065
0
VERTEX
8
L3D0
10
1476.226
20
-183.065
0
VERTEX
8
L3D0
10
1452.226
20
-183.065
0
VERTEX
8
L3D0
10
1452.226
20
-180.065
0
VERTEX
8
L3D0
10
1476.226
20
-180.065
0
VERTEX
8
L3D0
10
1476.226
20
-179.065
0
VERTEX
8
L3D0
10
1452.226
20
-179.065
0
VERTEX
8
L3D0
10
1452.226
20
-176.065
0
VERTEX
8
L3D0
10
1491.226
20
-176.065
0
VERTEX
8
L3D0
10
1491.226
20
-188.065
0
VERTEX
8
L3D0
10
1516.226
20
-188.065
0
VERTEX
8
L3D0
10
1516.226
20
-187.065
0
VERTEX
8
L3D0
10
1492.226
20
-187.065
0
VERTEX
8
L3D0
10
1492.226
20
-184.065
0
VERTEX
8
L3D0
10
1516.226
20
-184.065
0
VERTEX
8
L3D0
10
1516.226
20
-183.065
0
VERTEX
8
L3D0
10
1492.226
20
-183.065
0
VERTEX
8
L3D0
10
1492.226
20
-180.065
0
VERTEX
8
L3D0
10
1516.226
20
-180.065
0
VERTEX
8
L3D0
10
1516.226
20
-179.065
0
VERTEX
8
L3D0
10
1492.226
20
-179.065
0
VERTEX
8
L3D0
10
1492.226
20
-176.065
0
VERTEX
8
L3D0
10
1531.226
20
-176.065
0
VERTEX
8
L3D0
10
1531.226
20
-188.065
0
VERTEX
8
L3D0
10
1556.226
20
-188.065
0
VERTEX
8
L3D0
10
1556.226
20
-187.065
0
VERTEX
8
L3D0
10
1532.226
20
-187.065
0
VERTEX
8
L3D0
10
1532.226
20
-184.065
0
VERTEX
8
L3D0
10
1556.226
20
-184.065
0
VERTEX
8
L3D0
10
1556.226
20
-183.065
0
VERTEX
8
L3D0
10
1532.226
20
-183.065
0
VERTEX
8
L3D0
10
1532.226
20
-180.065
0
VERTEX
8
L3D0
10
1556.226
20
-180.065
0
VERTEX
8
L3D0
10
1556.226
20
-179.065
0
VERTEX
8
L3D0
10
1532.226
20
-179.065
0
VERTEX
8
L3D0
10
1532.226
20
-176.065
0
VERTEX
8
L3D0
10
1571.226
20
-176.065
0
VERTEX
8
L3D0
10
1571.226
20
-188.065
0
VERTEX
8
L3D0
10
1596.226
20
-188.065
0
VERTEX
8
L3D0
10
1596.226
20
-187.065
0
VERTEX
8
L3D0
10
1572.226
20
-187.065
0
VERTEX
8
L3D0
10
1572.226
20
-184.065
0
VERTEX
8
L3D0
10
1596.226
20
-184.065
0
VERTEX
8
L3D0
10
1596.226
20
-183.065
0
VERTEX
8
L3D0
10
1572.226
20
-183.065
0
VERTEX
8
L3D0
10
1572.226
20
-180.065
0
VERTEX
8
L3D0
10
1596.226
20
-180.065
0
VERTEX
8
L3D0
10
1596.226
20
-179.065
0
VERTEX
8
L3D0
10
1572.226
20
-179.065
0
VERTEX
8
L3D0
10
1572.226
20
-176.065
0
VERTEX
8
L3D0
10
1611.226
20
-176.065
0
VERTEX
8
L3D0
10
1611.226
20
-188.065
0
VERTEX
8
L3D0
10
1636.226
20
-188.065
0
VERTEX
8
L3D0
10
1636.226
20
-187.065
0
VERTEX
8
L3D0
10
1612.226
20
-187.065
0
VERTEX
8
L3D0
10
1612.226
20
-184.065
0
VERTEX
8
L3D0
10
1636.226
20
-184.065
0
VERTEX
8
L3D0
10
1636.226
20
-183.065
0
VERTEX
8
L3D0
10
1612.226
20
-183.065
0
VERTEX
8
L3D0
10
1612.226
20
-180.065
0
VERTEX
8
L3D0
10
1636.226
20
-180.065
0
VERTEX
8
L3D0
10
1636.226
20
-179.065
0
VERTEX
8
L3D0
10
1612.226
20
-179.065
0
VERTEX
8
L3D0
10
1612.226
20
-176.065
0
VERTEX
8
L3D0
10
1651.226
20
-176.065
0
VERTEX
8
L3D0
10
1651.226
20
-188.065
0
VERTEX
8
L3D0
10
1676.226
20
-188.065
0
VERTEX
8
L3D0
10
1676.226
20
-187.065
0
VERTEX
8
L3D0
10
1652.226
20
-187.065
0
VERTEX
8
L3D0
10
1652.226
20
-184.065
0
VERTEX
8
L3D0
10
1676.226
20
-184.065
0
VERTEX
8
L3D0
10
1676.226
20
-183.065
0
VERTEX
8
L3D0
10
1652.226
20
-183.065
0
VERTEX
8
L3D0
10
1652.226
20
-180.065
0
VERTEX
8
L3D0
10
1676.226
20
-180.065
0
VERTEX
8
L3D0
10
1676.226
20
-179.065
0
VERTEX
8
L3D0
10
1652.226
20
-179.065
0
VERTEX
8
L3D0
10
1652.226
20
-176.065
0
VERTEX
8
L3D0
10
1676.226
20
-176.065
0
VERTEX
8
L3D0
10
1676.226
20
-175.065
0
VERTEX
8
L3D0
10
1370.226
20
-175.065
0
VERTEX
8
L3D0
10
1370.226
20
-172.065
0
VERTEX
8
L3D0
10
1676.226
20
-172.065
0
VERTEX
8
L3D0
10
1676.226
20
-171.065
0
VERTEX
8
L3D0
10
1370.226
20
-171.065
0
VERTEX
8
L3D0
10
1370.226
20
-168.065
0
VERTEX
8
L3D0
10
1376.226
20
-168.065
0
VERTEX
8
L3D0
10
1376.226
20
-167.065
0
VERTEX
8
L3D0
10
1370.226
20
-167.065
0
VERTEX
8
L3D0
10
1370.226
20
-164.065
0
VERTEX
8
L3D0
10
1376.226
20
-164.065
0
VERTEX
8
L3D0
10
1376.226
20
-163.065
0
VERTEX
8
L3D0
10
1370.226
20
-163.065
0
VERTEX
8
L3D0
10
1370.226
20
-160.065
0
VERTEX
8
L3D0
10
1376.226
20
-160.065
0
VERTEX
8
L3D0
10
1376.226
20
-159.065
0
VERTEX
8
L3D0
10
1370.226
20
-159.065
0
VERTEX
8
L3D0
10
1370.226
20
-156.065
0
VERTEX
8
L3D0
10
1391.226
20
-156.065
0
VERTEX
8
L3D0
10
1391.226
20
-168.065
0
VERTEX
8
L3D0
10
1416.226
20
-168.065
0
VERTEX
8
L3D0
10
1416.226
20
-167.065
0
VERTEX
8
L3D0
10
1392.226
20
-167.065
0
VERTEX
8
L3D0
10
1392.226
20
-164.065
0
VERTEX
8
L3D0
10
1416.226
20
-164.065
0
VERTEX
8
L3D0
10
1416.226
20
-163.065
0
VERTEX
8
L3D0
10
1392.226
20
-163.065
0
VERTEX
8
L3D0
10
1392.226
20
-160.065
0
VERTEX
8
L3D0
10
1416.226
20
-160.065
0
VERTEX
8
L3D0
10
1416.226
20
-159.065
0
VERTEX
8
L3D0
10
1392.226
20
-159.065
0
VERTEX
8
L3D0
10
1392.226
20
-156.065
0
VERTEX
8
L3D0
10
1431.226
20
-156.065
0
VERTEX
8
L3D0
10
1431.226
20
-168.065
0
VERTEX
8
L3D0
10
1456.226
20
-168.065
0
VERTEX
8
L3D0
10
1456.226
20
-167.065
0
VERTEX
8
L3D0
10
1432.226
20
-167.065
0
VERTEX
8
L3D0
10
1432.226
20
-164.065
0
VERTEX
8
L3D0
10
1456.226
20
-164.065
0
VERTEX
8
L3D0
10
1456.226
20
-163.065
0
VERTEX
8
L3D0
10
1432.226
20
-163.065
0
VERTEX
8
L3D0
10
1432.226
20
-160.065
0
VERTEX
8
L3D0
10
1456.226
20
-160.065
0
VERTEX
8
L3D0
10
1456.226
20
-159.065
0
VERTEX
8
L3D0
10
1432.226
20
-159.065
0
VERTEX
8
L3D0
10
1432.226
20
-156.065
0
VERTEX
8
L3D0
10
1471.226
20
-156.065
0
VERTEX
8
L3D0
10
1471.226
20
-168.065
0
VERTEX
8
L3D0
10
1496.226
20
-168.065
0
VERTEX
8
L3D0
10
1496.226
20
-167.065
0
VERTEX
8
L3D0
10
1472.226
20
-167.065
0
VERTEX
8
L3D0
10
1472.226
20
-164.065
0
VERTEX
8
L3D0
10
1496.226
20
-164.065
0
VERTEX
8
L3D0
10
1496.226
20
-163.065
0
VERTEX
8
L3D0
10
1472.226
20
-163.065
0
VERTEX
8
L3D0
10
1472.226
20
-160.065
0
VERTEX
8
L3D0
10
1496.226
20
-160.065
0
VERTEX
8
L3D0
10
1496.226
20
-159.065
0
VERTEX
8
L3D0
10
1472.226
20
-159.065
0
VERTEX
8
L3D0
10
1472.226
20
-156.065
0
VERTEX
8
L3D0
10
1511.226
20
-156.065
0
VERTEX
8
L3D0
10
1511.226
20
-168.065
0
VERTEX
8
L3D0
10
1536.226
20
-168.065
0
VERTEX
8
L3D0
10
1536.226
20
-167.065
0
VERTEX
8
L3D0
10
1512.226
20
-167.065
0
VERTEX
8
L3D0
10
1512.226
20
-164.065
0
VERTEX
8
L3D0
10
1536.226
20
-164.065
0
VERTEX
8
L3D0
10
1536.226
20
-163.065
0
VERTEX
8
L3D0
10
1512.226
20
-163.065
0
VERTEX
8
L3D0
10
1512.226
20
-160.065
0
VERTEX
8
L3D0
10
1536.226
20
-160.065
0
VERTEX
8
L3D0
10
1536.226
20
-159.065
0
VERTEX
8
L3D0
10
1512.226
20
-159.065
0
VERTEX
8
L3D0
10
1512.226
20
-156.065
0
VERTEX
8
L3D0
10
1551.226
20
-156.065
0
VERTEX
8
L3D0
10
1551.226
20
-168.065
0
VERTEX
8
L3D0
10
1576.226
20
-168.065
0
VERTEX
8
L3D0
10
1576.226
20
-167.065
0
VERTEX
8
L3D0
10
1552.226
20
-167.065
0
VERTEX
8
L3D0
10
1552.226
20
-164.065
0
VERTEX
8
L3D0
10
1576.226
20
-164.065
0
VERTEX
8
L3D0
10
1576.226
20
-163.065
0
VERTEX
8
L3D0
10
1552.226
20
-163.065
0
VERTEX
8
L3D0
10
1552.226
20
-160.065
0
VERTEX
8
L3D0
10
1576.226
20
-160.065
0
VERTEX
8
L3D0
10
1576.226
20
-159.065
0
VERTEX
8
L3D0
10
1552.226
20
-159.065
0
VERTEX
8
L3D0
10
1552.226
20
-156.065
0
VERTEX
8
L3D0
10
1591.226
20
-156.065
0
VERTEX
8
L3D0
10
1591.226
20
-168.065
0
VERTEX
8
L3D0
10
1616.226
20
-168.065
0
VERTEX
8
L3D0
10
1616.226
20
-167.065
0
VERTEX
8
L3D0
10
1592.226
20
-167.065
0
VERTEX
8
L3D0
10
1592.226
20
-164.065
0
VERTEX
8
L3D0
10
1616.226
20
-164.065
0
VERTEX
8
L3D0
10
1616.226
20
-163.065
0
VERTEX
8
L3D0
10
1592.226
20
-163.065
0
VERTEX
8
L3D0
10
1592.226
20
-160.065
0
VERTEX
8
L3D0
10
1616.226
20
-160.065
0
VERTEX
8
L3D0
10
1616.226
20
-159.065
0
VERTEX
8
L3D0
10
1592.226
20
-159.065
0
VERTEX
8
L3D0
10
1592.226
20
-156.065
0
VERTEX
8
L3D0
10
1631.226
20
-156.065
0
VERTEX
8
L3D0
10
1631.226
20
-168.065
0
VERTEX
8
L3D0
10
1656.226
20
-168.065
0
VERTEX
8
L3D0
10
1656.226
20
-167.065
0
VERTEX
8
L3D0
10
1632.226
20
-167.065
0
VERTEX
8
L3D0
10
1632.226
20
-164.065
0
VERTEX
8
L3D0
10
1656.226
20
-164.065
0
VERTEX
8
L3D0
10
1656.226
20
-163.065
0
VERTEX
8
L3D0
10
1632.226
20
-163.065
0
VERTEX
8
L3D0
10
1632.226
20
-160.065
0
VERTEX
8
L3D0
10
1656.226
20
-160.065
0
VERTEX
8
L3D0
10
1656.226
20
-159.065
0
VERTEX
8
L3D0
10
1632.226
20
-159.065
0
VERTEX
8
L3D0
10
1632.226
20
-156.065
0
VERTEX
8
L3D0
10
1671.226
20
-156.065
0
VERTEX
8
L3D0
10
1671.226
20
-168.065
0
VERTEX
8
L3D0
10
1676.226
20
-168.065
0
VERTEX
8
L3D0
10
1676.226
20
-167.065
0
VERTEX
8
L3D0
10
1672.226
20
-167.065
0
VERTEX
8
L3D0
10
1672.226
20
-164.065
0
VERTEX
8
L3D0
10
1676.226
20
-164.065
0
VERTEX
8
L3D0
10
1676.226
20
-163.065
0
VERTEX
8
L3D0
10
1672.226
20
-163.065
0
VERTEX
8
L3D0
10
1672.226
20
-160.065
0
VERTEX
8
L3D0
10
1676.226
20
-160.065
0
VERTEX
8
L3D0
10
1676.226
20
-159.065
0
VERTEX
8
L3D0
10
1672.226
20
-159.065
0
VERTEX
8
L3D0
10
1672.226
20
-156.065
0
VERTEX
8
L3D0
10
1676.226
20
-156.065
0
VERTEX
8
L3D0
10
1676.226
20
-155.065
0
VERTEX
8
L3D0
10
1370.226
20
-155.065
0
VERTEX
8
L3D0
10
1370.226
20
-152.065
0
VERTEX
8
L3D0
10
1676.226
20
-152.065
0
VERTEX
8
L3D0
10
1676.226
20
-151.065
0
VERTEX
8
L3D0
10
1370.226
20
-151.065
0
VERTEX
8
L3D0
10
1370.226
20
-148.065
0
VERTEX
8
L3D0
10
1396.226
20
-148.065
0
VERTEX
8
L3D0
10
1396.226
20
-147.065
0
VERTEX
8
L3D0
10
1370.226
20
-147.065
0
VERTEX
8
L3D0
10
1370.226
20
-144.065
0
VERTEX
8
L3D0
10
1396.226
20
-144.065
0
VERTEX
8
L3D0
10
1396.226
20
-143.065
0
VERTEX
8
L3D0
10
1370.226
20
-143.065
0
VERTEX
8
L3D0
10
1370.226
20
-140.065
0
VERTEX
8
L3D0
10
1396.226
20
-140.065
0
VERTEX
8
L3D0
10
1396.226
20
-139.065
0
VERTEX
8
L3D0
10
1370.226
20
-139.065
0
VERTEX
8
L3D0
10
1370.226
20
-136.065
0
VERTEX
8
L3D0
10
1411.226
20
-136.065
0
VERTEX
8
L3D0
10
1411.226
20
-148.065
0
VERTEX
8
L3D0
10
1436.226
20
-148.065
0
VERTEX
8
L3D0
10
1436.226
20
-147.065
0
VERTEX
8
L3D0
10
1412.226
20
-147.065
0
VERTEX
8
L3D0
10
1412.226
20
-144.065
0
VERTEX
8
L3D0
10
1436.226
20
-144.065
0
VERTEX
8
L3D0
10
1436.226
20
-143.065
0
VERTEX
8
L3D0
10
1412.226
20
-143.065
0
VERTEX
8
L3D0
10
1412.226
20
-140.065
0
VERTEX
8
L3D0
10
1436.226
20
-140.065
0
VERTEX
8
L3D0
10
1436.226
20
-139.065
0
VERTEX
8
L3D0
10
1412.226
20
-139.065
0
VERTEX
8
L3D0
10
1412.226
20
-136.065
0
VERTEX
8
L3D0
10
1451.226
20
-136.065
0
VERTEX
8
L3D0
10
1451.226
20
-148.065
0
VERTEX
8
L3D0
10
1476.226
20
-148.065
0
VERTEX
8
L3D0
10
1476.226
20
-147.065
0
VERTEX
8
L3D0
10
1452.226
20
-147.065
0
VERTEX
8
L3D0
10
1452.226
20
-144.065
0
VERTEX
8
L3D0
10
1476.226
20
-144.065
0
VERTEX
8
L3D0
10
1476.226
20
-143.065
0
VERTEX
8
L3D0
10
1452.226
20
-143.065
0
VERTEX
8
L3D0
10
1452.226
20
-140.065
0
VERTEX
8
L3D0
10
1476.226
20
-140.065
0
VERTEX
8
L3D0
10
1476.226
20
-139.065
0
VERTEX
8
L3D0
10
1452.226
20
-139.065
0
VERTEX
8
L3D0
10
1452.226
20
-136.065
0
VERTEX
8
L3D0
10
1491.226
20
-136.065
0
VERTEX
8
L3D0
10
1491.226
20
-148.065
0
VERTEX
8
L3D0
10
1516.226
20
-148.065
0
VERTEX
8
L3D0
10
1516.226
20
-147.065
0
VERTEX
8
L3D0
10
1492.226
20
-147.065
0
VERTEX
8
L3D0
10
1492.226
20
-144.065
0
VERTEX
8
L3D0
10
1516.226
20
-144.065
0
VERTEX
8
L3D0
10
1516.226
20
-143.065
0
VERTEX
8
L3D0
10
1492.226
20
-143.065
0
VERTEX
8
L3D0
10
1492.226
20
-140.065
0
VERTEX
8
L3D0
10
1516.226
20
-140.065
0
VERTEX
8
L3D0
10
1516.226
20
-139.065
0
VERTEX
8
L3D0
10
1492.226
20
-139.065
0
VERTEX
8
L3D0
10
1492.226
20
-136.065
0
VERTEX
8
L3D0
10
1531.226
20
-136.065
0
VERTEX
8
L3D0
10
1531.226
20
-148.065
0
VERTEX
8
L3D0
10
1556.226
20
-148.065
0
VERTEX
8
L3D0
10
1556.226
20
-147.065
0
VERTEX
8
L3D0
10
1532.226
20
-147.065
0
VERTEX
8
L3D0
10
1532.226
20
-144.065
0
VERTEX
8
L3D0
10
1556.226
20
-144.065
0
VERTEX
8
L3D0
10
1556.226
20
-143.065
0
VERTEX
8
L3D0
10
1532.226
20
-143.065
0
VERTEX
8
L3D0
10
1532.226
20
-140.065
0
VERTEX
8
L3D0
10
1556.226
20
-140.065
0
VERTEX
8
L3D0
10
1556.226
20
-139.065
0
VERTEX
8
L3D0
10
1532.226
20
-139.065
0
VERTEX
8
L3D0
10
1532.226
20
-136.065
0
VERTEX
8
L3D0
10
1571.226
20
-136.065
0
VERTEX
8
L3D0
10
1571.226
20
-148.065
0
VERTEX
8
L3D0
10
1596.226
20
-148.065
0
VERTEX
8
L3D0
10
1596.226
20
-147.065
0
VERTEX
8
L3D0
10
1572.226
20
-147.065
0
VERTEX
8
L3D0
10
1572.226
20
-144.065
0
VERTEX
8
L3D0
10
1596.226
20
-144.065
0
VERTEX
8
L3D0
10
1596.226
20
-143.065
0
VERTEX
8
L3D0
10
1572.226
20
-143.065
0
VERTEX
8
L3D0
10
1572.226
20
-140.065
0
VERTEX
8
L3D0
10
1596.226
20
-140.065
0
VERTEX
8
L3D0
10
1596.226
20
-139.065
0
VERTEX
8
L3D0
10
1572.226
20
-139.065
0
VERTEX
8
L3D0
10
1572.226
20
-136.065
0
VERTEX
8
L3D0
10
1611.226
20
-136.065
0
VERTEX
8
L3D0
10
1611.226
20
-148.065
0
VERTEX
8
L3D0
10
1636.226
20
-148.065
0
VERTEX
8
L3D0
10
1636.226
20
-147.065
0
VERTEX
8
L3D0
10
1612.226
20
-147.065
0
VERTEX
8
L3D0
10
1612.226
20
-144.065
0
VERTEX
8
L3D0
10
1636.226
20
-144.065
0
VERTEX
8
L3D0
10
1636.226
20
-143.065
0
VERTEX
8
L3D0
10
1612.226
20
-143.065
0
VERTEX
8
L3D0
10
1612.226
20
-140.065
0
VERTEX
8
L3D0
10
1636.226
20
-140.065
0
VERTEX
8
L3D0
10
1636.226
20
-139.065
0
VERTEX
8
L3D0
10
1612.226
20
-139.065
0
VERTEX
8
L3D0
10
1612.226
20
-136.065
0
VERTEX
8
L3D0
10
1651.226
20
-136.065
0
VERTEX
8
L3D0
10
1651.226
20
-148.065
0
VERTEX
8
L3D0
10
1676.226
20
-148.065
0
VERTEX
8
L3D0
10
1676.226
20
-147.065
0
VERTEX
8
L3D0
10
1652.226
20
-147.065
0
VERTEX
8
L3D0
10
1652.226
20
-144.065
0
VERTEX
8
L3D0
10
1676.226
20
-144.065
0
VERTEX
8
L3D0
10
1676.226
20
-143.065
0
VERTEX
8
L3D0
10
1652.226
20
-143.065
0
VERTEX
8
L3D0
10
1652.226
20
-140.065
0
VERTEX
8
L3D0
10
1676.226
20
-140.065
0
VERTEX
8
L3D0
10
1676.226
20
-139.065
0
VERTEX
8
L3D0
10
1652.226
20
-139.065
0
VERTEX
8
L3D0
10
1652.226
20
-136.065
0
VERTEX
8
L3D0
10
1676.226
20
-136.065
0
VERTEX
8
L3D0
10
1676.226
20
-135.065
0
VERTEX
8
L3D0
10
1370.226
20
-135.065
0
VERTEX
8
L3D0
10
1370.226
20
-132.065
0
VERTEX
8
L3D0
10
1676.226
20
-132.065
0
VERTEX
8
L3D0
10
1676.226
20
-131.065
0
VERTEX
8
L3D0
10
1370.226
20
-131.065
0
VERTEX
8
L3D0
10
1370.226
20
-128.065
0
VERTEX
8
L3D0
10
1376.226
20
-128.065
0
VERTEX
8
L3D0
10
1376.226
20
-127.065
0
VERTEX
8
L3D0
10
1370.226
20
-127.065
0
VERTEX
8
L3D0
10
1370.226
20
-124.065
0
VERTEX
8
L3D0
10
1376.226
20
-124.065
0
VERTEX
8
L3D0
10
1376.226
20
-123.065
0
VERTEX
8
L3D0
10
1370.226
20
-123.065
0
VERTEX
8
L3D0
10
1370.226
20
-120.065
0
VERTEX
8
L3D0
10
1376.226
20
-120.065
0
VERTEX
8
L3D0
10
1376.226
20
-119.065
0
VERTEX
8
L3D0
10
1370.226
20
-119.065
0
VERTEX
8
L3D0
10
1370.226
20
-116.065
0
VERTEX
8
L3D0
10
1391.226
20
-116.065
0
VERTEX
8
L3D0
10
1391.226
20
-128.065
0
VERTEX
8
L3D0
10
1416.226
20
-128.065
0
VERTEX
8
L3D0
10
1416.226
20
-127.065
0
VERTEX
8
L3D0
10
1392.226
20
-127.065
0
VERTEX
8
L3D0
10
1392.226
20
-124.065
0
VERTEX
8
L3D0
10
1416.226
20
-124.065
0
VERTEX
8
L3D0
10
1416.226
20
-123.065
0
VERTEX
8
L3D0
10
1392.226
20
-123.065
0
VERTEX
8
L3D0
10
1392.226
20
-120.065
0
VERTEX
8
L3D0
10
1416.226
20
-120.065
0
VERTEX
8
L3D0
10
1416.226
20
-119.065
0
VERTEX
8
L3D0
10
1392.226
20
-119.065
0
VERTEX
8
L3D0
10
1392.226
20
-116.065
0
VERTEX
8
L3D0
10
1431.226
20
-116.065
0
VERTEX
8
L3D0
10
1431.226
20
-128.065
0
VERTEX
8
L3D0
10
1456.226
20
-128.065
0
VERTEX
8
L3D0
10
1456.226
20
-127.065
0
VERTEX
8
L3D0
10
1432.226
20
-127.065
0
VERTEX
8
L3D0
10
1432.226
20
-124.065
0
VERTEX
8
L3D0
10
1456.226
20
-124.065
0
VERTEX
8
L3D0
10
1456.226
20
-123.065
0
VERTEX
8
L3D0
10
1432.226
20
-123.065
0
VERTEX
8
L3D0
10
1432.226
20
-120.065
0
VERTEX
8
L3D0
10
1456.226
20
-120.065
0
VERTEX
8
L3D0
10
1456.226
20
-119.065
0
VERTEX
8
L3D0
10
1432.226
20
-119.065
0
VERTEX
8
L3D0
10
1432.226
20
-116.065
0
VERTEX
8
L3D0
10
1471.226
20
-116.065
0
VERTEX
8
L3D0
10
1471.226
20
-128.065
0
VERTEX
8
L3D0
10
1496.226
20
-128.065
0
VERTEX
8
L3D0
10
1496.226
20
-127.065
0
VERTEX
8
L3D0
10
1472.226
20
-127.065
0
VERTEX
8
L3D0
10
1472.226
20
-124.065
0
VERTEX
8
L3D0
10
1496.226
20
-124.065
0
VERTEX
8
L3D0
10
1496.226
20
-123.065
0
VERTEX
8
L3D0
10
1472.226
20
-123.065
0
VERTEX
8
L3D0
10
1472.226
20
-120.065
0
VERTEX
8
L3D0
10
1496.226
20
-120.065
0
VERTEX
8
L3D0
10
1496.226
20
-119.065
0
VERTEX
8
L3D0
10
1472.226
20
-119.065
0
VERTEX
8
L3D0
10
1472.226
20
-116.065
0
VERTEX
8
L3D0
10
1511.226
20
-116.065
0
VERTEX
8
L3D0
10
1511.226
20
-128.065
0
VERTEX
8
L3D0
10
1536.226
20
-128.065
0
VERTEX
8
L3D0
10
1536.226
20
-127.065
0
VERTEX
8
L3D0
10
1512.226
20
-127.065
0
VERTEX
8
L3D0
10
1512.226
20
-124.065
0
VERTEX
8
L3D0
10
1536.226
20
-124.065
0
VERTEX
8
L3D0
10
1536.226
20
-123.065
0
VERTEX
8
L3D0
10
1512.226
20
-123.065
0
VERTEX
8
L3D0
10
1512.226
20
-120.065
0
VERTEX
8
L3D0
10
1536.226
20
-120.065
0
VERTEX
8
L3D0
10
1536.226
20
-119.065
0
VERTEX
8
L3D0
10
1512.226
20
-119.065
0
VERTEX
8
L3D0
10
1512.226
20
-116.065
0
VERTEX
8
L3D0
10
1551.226
20
-116.065
0
VERTEX
8
L3D0
10
1551.226
20
-128.065
0
VERTEX
8
L3D0
10
1576.226
20
-128.065
0
VERTEX
8
L3D0
10
1576.226
20
-127.065
0
VERTEX
8
L3D0
10
1552.226
20
-127.065
0
VERTEX
8
L3D0
10
1552.226
20
-124.065
0
VERTEX
8
L3D0
10
1576.226
20
-124.065
0
VERTEX
8
L3D0
10
1576.226
20
-123.065
0
VERTEX
8
L3D0
10
1552.226
20
-123.065
0
VERTEX
8
L3D0
10
1552.226
20
-120.065
0
VERTEX
8
L3D0
10
1576.226
20
-120.065
0
VERTEX
8
L3D0
10
1576.226
20
-119.065
0
VERTEX
8
L3D0
10
1552.226
20
-119.065
0
VERTEX
8
L3D0
10
1552.226
20
-116.065
0
VERTEX
8
L3D0
10
1591.226
20
-116.065
0
VERTEX
8
L3D0
10
1591.226
20
-128.065
0
VERTEX
8
L3D0
10
1616.226
20
-128.065
0
VERTEX
8
L3D0
10
1616.226
20
-127.065
0
VERTEX
8
L3D0
10
1592.226
20
-127.065
0
VERTEX
8
L3D0
10
1592.226
20
-124.065
0
VERTEX
8
L3D0
10
1616.226
20
-124.065
0
VERTEX
8
L3D0
10
1616.226
20
-123.065
0
VERTEX
8
L3D0
10
1592.226
20
-123.065
0
VERTEX
8
L3D0
10
1592.226
20
-120.065
0
VERTEX
8
L3D0
10
1616.226
20
-120.065
0
VERTEX
8
L3D0
10
1616.226
20
-119.065
0
VERTEX
8
L3D0
10
1592.226
20
-119.065
0
VERTEX
8
L3D0
10
1592.226
20
-116.065
0
VERTEX
8
L3D0
10
1631.226
20
-116.065
0
VERTEX
8
L3D0
10
1631.226
20
-128.065
0
VERTEX
8
L3D0
10
1656.226
20
-128.065
0
VERTEX
8
L3D0
10
1656.226
20
-127.065
0
VERTEX
8
L3D0
10
1632.226
20
-127.065
0
VERTEX
8
L3D0
10
1632.226
20
-124.065
0
VERTEX
8
L3D0
10
1656.226
20
-124.065
0
VERTEX
8
L3D0
10
1656.226
20
-123.065
0
VERTEX
8
L3D0
10
1632.226
20
-123.065
0
VERTEX
8
L3D0
10
1632.226
20
-120.065
0
VERTEX
8
L3D0
10
1656.226
20
-120.065
0
VERTEX
8
L3D0
10
1656.226
20
-119.065
0
VERTEX
8
L3D0
10
1632.226
20
-119.065
0
VERTEX
8
L3D0
10
1632.226
20
-116.065
0
VERTEX
8
L3D0
10
1671.226
20
-116.065
0
VERTEX
8
L3D0
10
1671.226
20
-128.065
0
VERTEX
8
L3D0
10
1676.226
20
-128.065
0
VERTEX
8
L3D0
10
1676.226
20
-127.065
0
VERTEX
8
L3D0
10
1672.226
20
-127.065
0
VERTEX
8
L3D0
10
1672.226
20
-124.065
0
VERTEX
8
L3D0
10
1676.226
20
-124.065
0
VERTEX
8
L3D0
10
1676.226
20
-123.065
0
VERTEX
8
L3D0
10
1672.226
20
-123.065
0
VERTEX
8
L3D0
10
1672.226
20
-120.065
0
VERTEX
8
L3D0
10
1676.226
20
-120.065
0
VERTEX
8
L3D0
10
1676.226
20
-119.065
0
VERTEX
8
L3D0
10
1672.226
20
-119.065
0
VERTEX
8
L3D0
10
1672.226
20
-116.065
0
VERTEX
8
L3D0
10
1676.226
20
-116.065
0
VERTEX
8
L3D0
10
1676.226
20
-115.065
0
VERTEX
8
L3D0
10
1370.226
20
-115.065
0
VERTEX
8
L3D0
10
1370.226
20
-112.065
0
VERTEX
8
L3D0
10
1676.226
20
-112.065
0
VERTEX
8
L3D0
10
1676.226
20
-111.065
0
VERTEX
8
L3D0
10
1370.226
20
-111.065
0
VERTEX
8
L3D0
10
1370.226
20
-108.065
0
VERTEX
8
L3D0
10
1396.226
20
-108.065
0
VERTEX
8
L3D0
10
1396.226
20
-107.065
0
VERTEX
8
L3D0
10
1370.226
20
-107.065
0
VERTEX
8
L3D0
10
1370.226
20
-104.065
0
VERTEX
8
L3D0
10
1396.226
20
-104.065
0
VERTEX
8
L3D0
10
1396.226
20
-103.065
0
VERTEX
8
L3D0
10
1370.226
20
-103.065
0
VERTEX
8
L3D0
10
1370.226
20
-100.065
0
VERTEX
8
L3D0
10
1396.226
20
-100.065
0
VERTEX
8
L3D0
10
1396.226
20
-99.065
0
VERTEX
8
L3D0
10
1370.226
20
-99.065
0
VERTEX
8
L3D0
10
1370.226
20
-96.065
0
VERTEX
8
L3D0
10
1411.226
20
-96.065
0
VERTEX
8
L3D0
10
1411.226
20
-108.065
0
VERTEX
8
L3D0
10
1436.226
20
-108.065
0
VERTEX
8
L3D0
10
1436.226
20
-107.065
0
VERTEX
8
L3D0
10
1412.226
20
-107.065
0
VERTEX
8
L3D0
10
1412.226
20
-104.065
0
VERTEX
8
L3D0
10
1436.226
20
-104.065
0
VERTEX
8
L3D0
10
1436.226
20
-103.065
0
VERTEX
8
L3D0
10
1412.226
20
-103.065
0
VERTEX
8
L3D0
10
1412.226
20
-100.065
0
VERTEX
8
L3D0
10
1436.226
20
-100.065
0
VERTEX
8
L3D0
10
1436.226
20
-99.065
0
VERTEX
8
L3D0
10
1412.226
20
-99.065
0
VERTEX
8
L3D0
10
1412.226
20
-96.065
0
VERTEX
8
L3D0
10
1451.226
20
-96.065
0
VERTEX
8
L3D0
10
1451.226
20
-108.065
0
VERTEX
8
L3D0
10
1476.226
20
-108.065
0
VERTEX
8
L3D0
10
1476.226
20
-107.065
0
VERTEX
8
L3D0
10
1452.226
20
-107.065
0
VERTEX
8
L3D0
10
1452.226
20
-104.065
0
VERTEX
8
L3D0
10
1476.226
20
-104.065
0
VERTEX
8
L3D0
10
1476.226
20
-103.065
0
VERTEX
8
L3D0
10
1452.226
20
-103.065
0
VERTEX
8
L3D0
10
1452.226
20
-100.065
0
VERTEX
8
L3D0
10
1476.226
20
-100.065
0
VERTEX
8
L3D0
10
1476.226
20
-99.065
0
VERTEX
8
L3D0
10
1452.226
20
-99.065
0
VERTEX
8
L3D0
10
1452.226
20
-96.065
0
VERTEX
8
L3D0
10
1491.226
20
-96.065
0
VERTEX
8
L3D0
10
1491.226
20
-108.065
0
VERTEX
8
L3D0
10
1516.226
20
-108.065
0
VERTEX
8
L3D0
10
1516.226
20
-107.065
0
VERTEX
8
L3D0
10
1492.226
20
-107.065
0
VERTEX
8
L3D0
10
1492.226
20
-104.065
0
VERTEX
8
L3D0
10
1516.226
20
-104.065
0
VERTEX
8
L3D0
10
1516.226
20
-103.065
0
VERTEX
8
L3D0
10
1492.226
20
-103.065
0
VERTEX
8
L3D0
10
1492.226
20
-100.065
0
VERTEX
8
L3D0
10
1516.226
20
-100.065
0
VERTEX
8
L3D0
10
1516.226
20
-99.065
0
VERTEX
8
L3D0
10
1492.226
20
-99.065
0
VERTEX
8
L3D0
10
1492.226
20
-96.065
0
VERTEX
8
L3D0
10
1531.226
20
-96.065
0
VERTEX
8
L3D0
10
1531.226
20
-108.065
0
VERTEX
8
L3D0
10
1556.226
20
-108.065
0
VERTEX
8
L3D0
10
1556.226
20
-107.065
0
VERTEX
8
L3D0
10
1532.226
20
-107.065
0
VERTEX
8
L3D0
10
1532.226
20
-104.065
0
VERTEX
8
L3D0
10
1556.226
20
-104.065
0
VERTEX
8
L3D0
10
1556.226
20
-103.065
0
VERTEX
8
L3D0
10
1532.226
20
-103.065
0
VERTEX
8
L3D0
10
1532.226
20
-100.065
0
VERTEX
8
L3D0
10
1556.226
20
-100.065
0
VERTEX
8
L3D0
10
1556.226
20
-99.065
0
VERTEX
8
L3D0
10
1532.226
20
-99.065
0
VERTEX
8
L3D0
10
1532.226
20
-96.065
0
VERTEX
8
L3D0
10
1571.226
20
-96.065
0
VERTEX
8
L3D0
10
1571.226
20
-108.065
0
VERTEX
8
L3D0
10
1596.226
20
-108.065
0
VERTEX
8
L3D0
10
1596.226
20
-107.065
0
VERTEX
8
L3D0
10
1572.226
20
-107.065
0
VERTEX
8
L3D0
10
1572.226
20
-104.065
0
VERTEX
8
L3D0
10
1596.226
20
-104.065
0
VERTEX
8
L3D0
10
1596.226
20
-103.065
0
VERTEX
8
L3D0
10
1572.226
20
-103.065
0
VERTEX
8
L3D0
10
1572.226
20
-100.065
0
VERTEX
8
L3D0
10
1596.226
20
-100.065
0
VERTEX
8
L3D0
10
1596.226
20
-99.065
0
VERTEX
8
L3D0
10
1572.226
20
-99.065
0
VERTEX
8
L3D0
10
1572.226
20
-96.065
0
VERTEX
8
L3D0
10
1611.226
20
-96.065
0
VERTEX
8
L3D0
10
1611.226
20
-108.065
0
VERTEX
8
L3D0
10
1636.226
20
-108.065
0
VERTEX
8
L3D0
10
1636.226
20
-107.065
0
VERTEX
8
L3D0
10
1612.226
20
-107.065
0
VERTEX
8
L3D0
10
1612.226
20
-104.065
0
VERTEX
8
L3D0
10
1636.226
20
-104.065
0
VERTEX
8
L3D0
10
1636.226
20
-103.065
0
VERTEX
8
L3D0
10
1612.226
20
-103.065
0
VERTEX
8
L3D0
10
1612.226
20
-100.065
0
VERTEX
8
L3D0
10
1636.226
20
-100.065
0
VERTEX
8
L3D0
10
1636.226
20
-99.065
0
VERTEX
8
L3D0
10
1612.226
20
-99.065
0
VERTEX
8
L3D0
10
1612.226
20
-96.065
0
VERTEX
8
L3D0
10
1651.226
20
-96.065
0
VERTEX
8
L3D0
10
1651.226
20
-108.065
0
VERTEX
8
L3D0
10
1676.226
20
-108.065
0
VERTEX
8
L3D0
10
1676.226
20
-107.065
0
VERTEX
8
L3D0
10
1652.226
20
-107.065
0
VERTEX
8
L3D0
10
1652.226
20
-104.065
0
VERTEX
8
L3D0
10
1676.226
20
-104.065
0
VERTEX
8
L3D0
10
1676.226
20
-103.065
0
VERTEX
8
L3D0
10
1652.226
20
-103.065
0
VERTEX
8
L3D0
10
1652.226
20
-100.065
0
VERTEX
8
L3D0
10
1676.226
20
-100.065
0
VERTEX
8
L3D0
10
1676.226
20
-99.065
0
VERTEX
8
L3D0
10
1652.226
20
-99.065
0
VERTEX
8
L3D0
10
1652.226
20
-96.065
0
VERTEX
8
L3D0
10
1676.226
20
-96.065
0
VERTEX
8
L3D0
10
1676.226
20
-95.065
0
VERTEX
8
L3D0
10
1370.226
20
-95.065
0
VERTEX
8
L3D0
10
1370.226
20
-92.065
0
VERTEX
8
L3D0
10
1676.226
20
-92.065
0
VERTEX
8
L3D0
10
1676.226
20
-91.065
0
VERTEX
8
L3D0
10
1370.226
20
-91.065
0
VERTEX
8
L3D0
10
1370.226
20
-88.065
0
VERTEX
8
L3D0
10
1376.226
20
-88.065
0
VERTEX
8
L3D0
10
1376.226
20
-87.065
0
VERTEX
8
L3D0
10
1370.226
20
-87.065
0
VERTEX
8
L3D0
10
1370.226
20
-84.065
0
VERTEX
8
L3D0
10
1376.226
20
-84.065
0
VERTEX
8
L3D0
10
1376.226
20
-83.065
0
VERTEX
8
L3D0
10
1370.226
20
-83.065
0
VERTEX
8
L3D0
10
1370.226
20
-80.065
0
VERTEX
8
L3D0
10
1376.226
20
-80.065
0
VERTEX
8
L3D0
10
1376.226
20
-79.065
0
VERTEX
8
L3D0
10
1370.226
20
-79.065
0
VERTEX
8
L3D0
10
1370.226
20
-76.065
0
VERTEX
8
L3D0
10
1391.226
20
-76.065
0
VERTEX
8
L3D0
10
1391.226
20
-88.065
0
VERTEX
8
L3D0
10
1416.226
20
-88.065
0
VERTEX
8
L3D0
10
1416.226
20
-87.065
0
VERTEX
8
L3D0
10
1392.226
20
-87.065
0
VERTEX
8
L3D0
10
1392.226
20
-84.065
0
VERTEX
8
L3D0
10
1416.226
20
-84.065
0
VERTEX
8
L3D0
10
1416.226
20
-83.065
0
VERTEX
8
L3D0
10
1392.226
20
-83.065
0
VERTEX
8
L3D0
10
1392.226
20
-80.065
0
VERTEX
8
L3D0
10
1416.226
20
-80.065
0
VERTEX
8
L3D0
10
1416.226
20
-79.065
0
VERTEX
8
L3D0
10
1392.226
20
-79.065
0
VERTEX
8
L3D0
10
1392.226
20
-76.065
0
VERTEX
8
L3D0
10
1431.226
20
-76.065
0
VERTEX
8
L3D0
10
1431.226
20
-88.065
0
VERTEX
8
L3D0
10
1456.226
20
-88.065
0
VERTEX
8
L3D0
10
1456.226
20
-87.065
0
VERTEX
8
L3D0
10
1432.226
20
-87.065
0
VERTEX
8
L3D0
10
1432.226
20
-84.065
0
VERTEX
8
L3D0
10
1456.226
20
-84.065
0
VERTEX
8
L3D0
10
1456.226
20
-83.065
0
VERTEX
8
L3D0
10
1432.226
20
-83.065
0
VERTEX
8
L3D0
10
1432.226
20
-80.065
0
VERTEX
8
L3D0
10
1456.226
20
-80.065
0
VERTEX
8
L3D0
10
1456.226
20
-79.065
0
VERTEX
8
L3D0
10
1432.226
20
-79.065
0
VERTEX
8
L3D0
10
1432.226
20
-76.065
0
VERTEX
8
L3D0
10
1471.226
20
-76.065
0
VERTEX
8
L3D0
10
1471.226
20
-88.065
0
VERTEX
8
L3D0
10
1496.226
20
-88.065
0
VERTEX
8
L3D0
10
1496.226
20
-87.065
0
VERTEX
8
L3D0
10
1472.226
20
-87.065
0
VERTEX
8
L3D0
10
1472.226
20
-84.065
0
VERTEX
8
L3D0
10
1496.226
20
-84.065
0
VERTEX
8
L3D0
10
1496.226
20
-83.065
0
VERTEX
8
L3D0
10
1472.226
20
-83.065
0
VERTEX
8
L3D0
10
1472.226
20
-80.065
0
VERTEX
8
L3D0
10
1496.226
20
-80.065
0
VERTEX
8
L3D0
10
1496.226
20
-79.065
0
VERTEX
8
L3D0
10
1472.226
20
-79.065
0
VERTEX
8
L3D0
10
1472.226
20
-76.065
0
VERTEX
8
L3D0
10
1511.226
20
-76.065
0
VERTEX
8
L3D0
10
1511.226
20
-88.065
0
VERTEX
8
L3D0
10
1536.226
20
-88.065
0
VERTEX
8
L3D0
10
1536.226
20
-87.065
0
VERTEX
8
L3D0
10
1512.226
20
-87.065
0
VERTEX
8
L3D0
10
1512.226
20
-84.065
0
VERTEX
8
L3D0
10
1536.226
20
-84.065
0
VERTEX
8
L3D0
10
1536.226
20
-83.065
0
VERTEX
8
L3D0
10
1512.226
20
-83.065
0
VERTEX
8
L3D0
10
1512.226
20
-80.065
0
VERTEX
8
L3D0
10
1536.226
20
-80.065
0
VERTEX
8
L3D0
10
1536.226
20
-79.065
0
VERTEX
8
L3D0
10
1512.226
20
-79.065
0
VERTEX
8
L3D0
10
1512.226
20
-76.065
0
VERTEX
8
L3D0
10
1551.226
20
-76.065
0
VERTEX
8
L3D0
10
1551.226
20
-88.065
0
VERTEX
8
L3D0
10
1576.226
20
-88.065
0
VERTEX
8
L3D0
10
1576.226
20
-87.065
0
VERTEX
8
L3D0
10
1552.226
20
-87.065
0
VERTEX
8
L3D0
10
1552.226
20
-84.065
0
VERTEX
8
L3D0
10
1576.226
20
-84.065
0
VERTEX
8
L3D0
10
1576.226
20
-83.065
0
VERTEX
8
L3D0
10
1552.226
20
-83.065
0
VERTEX
8
L3D0
10
1552.226
20
-80.065
0
VERTEX
8
L3D0
10
1576.226
20
-80.065
0
VERTEX
8
L3D0
10
1576.226
20
-79.065
0
VERTEX
8
L3D0
10
1552.226
20
-79.065
0
VERTEX
8
L3D0
10
1552.226
20
-76.065
0
VERTEX
8
L3D0
10
1591.226
20
-76.065
0
VERTEX
8
L3D0
10
1591.226
20
-88.065
0
VERTEX
8
L3D0
10
1616.226
20
-88.065
0
VERTEX
8
L3D0
10
1616.226
20
-87.065
0
VERTEX
8
L3D0
10
1592.226
20
-87.065
0
VERTEX
8
L3D0
10
1592.226
20
-84.065
0
VERTEX
8
L3D0
10
1616.226
20
-84.065
0
VERTEX
8
L3D0
10
1616.226
20
-83.065
0
VERTEX
8
L3D0
10
1592.226
20
-83.065
0
VERTEX
8
L3D0
10
1592.226
20
-80.065
0
VERTEX
8
L3D0
10
1616.226
20
-80.065
0
VERTEX
8
L3D0
10
1616.226
20
-79.065
0
VERTEX
8
L3D0
10
1592.226
20
-79.065
0
VERTEX
8
L3D0
10
1592.226
20
-76.065
0
VERTEX
8
L3D0
10
1631.226
20
-76.065
0
VERTEX
8
L3D0
10
1631.226
20
-88.065
0
VERTEX
8
L3D0
10
1656.226
20
-88.065
0
VERTEX
8
L3D0
10
1656.226
20
-87.065
0
VERTEX
8
L3D0
10
1632.226
20
-87.065
0
VERTEX
8
L3D0
10
1632.226
20
-84.065
0
VERTEX
8
L3D0
10
1656.226
20
-84.065
0
VERTEX
8
L3D0
10
1656.226
20
-83.065
0
VERTEX
8
L3D0
10
1632.226
20
-83.065
0
VERTEX
8
L3D0
10
1632.226
20
-80.065
0
VERTEX
8
L3D0
10
1656.226
20
-80.065
0
VERTEX
8
L3D0
10
1656.226
20
-79.065
0
VERTEX
8
L3D0
10
1632.226
20
-79.065
0
VERTEX
8
L3D0
10
1632.226
20
-76.065
0
VERTEX
8
L3D0
10
1671.226
20
-76.065
0
VERTEX
8
L3D0
10
1671.226
20
-88.065
0
VERTEX
8
L3D0
10
1676.226
20
-88.065
0
VERTEX
8
L3D0
10
1676.226
20
-87.065
0
VERTEX
8
L3D0
10
1672.226
20
-87.065
0
VERTEX
8
L3D0
10
1672.226
20
-84.065
0
VERTEX
8
L3D0
10
1676.226
20
-84.065
0
VERTEX
8
L3D0
10
1676.226
20
-83.065
0
VERTEX
8
L3D0
10
1672.226
20
-83.065
0
VERTEX
8
L3D0
10
1672.226
20
-80.065
0
VERTEX
8
L3D0
10
1676.226
20
-80.065
0
VERTEX
8
L3D0
10
1676.226
20
-79.065
0
VERTEX
8
L3D0
10
1672.226
20
-79.065
0
VERTEX
8
L3D0
10
1672.226
20
-76.065
0
VERTEX
8
L3D0
10
1676.226
20
-76.065
0
VERTEX
8
L3D0
10
1676.226
20
-75.065
0
VERTEX
8
L3D0
10
1370.226
20
-75.065
0
VERTEX
8
L3D0
10
1370.226
20
-72.065
0
VERTEX
8
L3D0
10
1676.226
20
-72.065
0
VERTEX
8
L3D0
10
1676.226
20
-71.065
0
VERTEX
8
L3D0
10
1370.226
20
-71.065
0
VERTEX
8
L3D0
10
1370.226
20
-70.065
0
VERTEX
8
L3D0
10
1677.226
20
-70.065
0
VERTEX
8
L3D0
10
1677.226
20
-73.065
0
VERTEX
8
L3D0
10
1371.226
20
-73.065
0
VERTEX
8
L3D0
10
1371.226
20
-74.065
0
VERTEX
8
L3D0
10
1677.226
20
-74.065
0
VERTEX
8
L3D0
10
1677.226
20
-77.065
0
VERTEX
8
L3D0
10
1673.226
20
-77.065
0
VERTEX
8
L3D0
10
1673.226
20
-78.065
0
VERTEX
8
L3D0
10
1677.226
20
-78.065
0
VERTEX
8
L3D0
10
1677.226
20
-81.065
0
VERTEX
8
L3D0
10
1673.226
20
-81.065
0
VERTEX
8
L3D0
10
1673.226
20
-82.065
0
VERTEX
8
L3D0
10
1677.226
20
-82.065
0
VERTEX
8
L3D0
10
1677.226
20
-85.065
0
VERTEX
8
L3D0
10
1673.226
20
-85.065
0
VERTEX
8
L3D0
10
1673.226
20
-86.065
0
VERTEX
8
L3D0
10
1677.226
20
-86.065
0
VERTEX
8
L3D0
10
1677.226
20
-89.065
0
VERTEX
8
L3D0
10
1670.226
20
-89.065
0
VERTEX
8
L3D0
10
1670.226
20
-77.065
0
VERTEX
8
L3D0
10
1633.226
20
-77.065
0
VERTEX
8
L3D0
10
1633.226
20
-78.065
0
VERTEX
8
L3D0
10
1657.226
20
-78.065
0
VERTEX
8
L3D0
10
1657.226
20
-81.065
0
VERTEX
8
L3D0
10
1633.226
20
-81.065
0
VERTEX
8
L3D0
10
1633.226
20
-82.065
0
VERTEX
8
L3D0
10
1657.226
20
-82.065
0
VERTEX
8
L3D0
10
1657.226
20
-85.065
0
VERTEX
8
L3D0
10
1633.226
20
-85.065
0
VERTEX
8
L3D0
10
1633.226
20
-86.065
0
VERTEX
8
L3D0
10
1657.226
20
-86.065
0
VERTEX
8
L3D0
10
1657.226
20
-89.065
0
VERTEX
8
L3D0
10
1630.226
20
-89.065
0
VERTEX
8
L3D0
10
1630.226
20
-77.065
0
VERTEX
8
L3D0
10
1593.226
20
-77.065
0
VERTEX
8
L3D0
10
1593.226
20
-78.065
0
VERTEX
8
L3D0
10
1617.226
20
-78.065
0
VERTEX
8
L3D0
10
1617.226
20
-81.065
0
VERTEX
8
L3D0
10
1593.226
20
-81.065
0
VERTEX
8
L3D0
10
1593.226
20
-82.065
0
VERTEX
8
L3D0
10
1617.226
20
-82.065
0
VERTEX
8
L3D0
10
1617.226
20
-85.065
0
VERTEX
8
L3D0
10
1593.226
20
-85.065
0
VERTEX
8
L3D0
10
1593.226
20
-86.065
0
VERTEX
8
L3D0
10
1617.226
20
-86.065
0
VERTEX
8
L3D0
10
1617.226
20
-89.065
0
VERTEX
8
L3D0
10
1590.226
20
-89.065
0
VERTEX
8
L3D0
10
1590.226
20
-77.065
0
VERTEX
8
L3D0
10
1553.226
20
-77.065
0
VERTEX
8
L3D0
10
1553.226
20
-78.065
0
VERTEX
8
L3D0
10
1577.226
20
-78.065
0
VERTEX
8
L3D0
10
1577.226
20
-81.065
0
VERTEX
8
L3D0
10
1553.226
20
-81.065
0
VERTEX
8
L3D0
10
1553.226
20
-82.065
0
VERTEX
8
L3D0
10
1577.226
20
-82.065
0
VERTEX
8
L3D0
10
1577.226
20
-85.065
0
VERTEX
8
L3D0
10
1553.226
20
-85.065
0
VERTEX
8
L3D0
10
1553.226
20
-86.065
0
VERTEX
8
L3D0
10
1577.226
20
-86.065
0
VERTEX
8
L3D0
10
1577.226
20
-89.065
0
VERTEX
8
L3D0
10
1550.226
20
-89.065
0
VERTEX
8
L3D0
10
1550.226
20
-77.065
0
VERTEX
8
L3D0
10
1513.226
20
-77.065
0
VERTEX
8
L3D0
10
1513.226
20
-78.065
0
VERTEX
8
L3D0
10
1537.226
20
-78.065
0
VERTEX
8
L3D0
10
1537.226
20
-81.065
0
VERTEX
8
L3D0
10
1513.226
20
-81.065
0
VERTEX
8
L3D0
10
1513.226
20
-82.065
0
VERTEX
8
L3D0
10
1537.226
20
-82.065
0
VERTEX
8
L3D0
10
1537.226
20
-85.065
0
VERTEX
8
L3D0
10
1513.226
20
-85.065
0
VERTEX
8
L3D0
10
1513.226
20
-86.065
0
VERTEX
8
L3D0
10
1537.226
20
-86.065
0
VERTEX
8
L3D0
10
1537.226
20
-89.065
0
VERTEX
8
L3D0
10
1510.226
20
-89.065
0
VERTEX
8
L3D0
10
1510.226
20
-77.065
0
VERTEX
8
L3D0
10
1473.226
20
-77.065
0
VERTEX
8
L3D0
10
1473.226
20
-78.065
0
VERTEX
8
L3D0
10
1497.226
20
-78.065
0
VERTEX
8
L3D0
10
1497.226
20
-81.065
0
VERTEX
8
L3D0
10
1473.226
20
-81.065
0
VERTEX
8
L3D0
10
1473.226
20
-82.065
0
VERTEX
8
L3D0
10
1497.226
20
-82.065
0
VERTEX
8
L3D0
10
1497.226
20
-85.065
0
VERTEX
8
L3D0
10
1473.226
20
-85.065
0
VERTEX
8
L3D0
10
1473.226
20
-86.065
0
VERTEX
8
L3D0
10
1497.226
20
-86.065
0
VERTEX
8
L3D0
10
1497.226
20
-89.065
0
VERTEX
8
L3D0
10
1470.226
20
-89.065
0
VERTEX
8
L3D0
10
1470.226
20
-77.065
0
VERTEX
8
L3D0
10
1433.226
20
-77.065
0
VERTEX
8
L3D0
10
1433.226
20
-78.065
0
VERTEX
8
L3D0
10
1457.226
20
-78.065
0
VERTEX
8
L3D0
10
1457.226
20
-81.065
0
VERTEX
8
L3D0
10
1433.226
20
-81.065
0
VERTEX
8
L3D0
10
1433.226
20
-82.065
0
VERTEX
8
L3D0
10
1457.226
20
-82.065
0
VERTEX
8
L3D0
10
1457.226
20
-85.065
0
VERTEX
8
L3D0
10
1433.226
20
-85.065
0
VERTEX
8
L3D0
10
1433.226
20
-86.065
0
VERTEX
8
L3D0
10
1457.226
20
-86.065
0
VERTEX
8
L3D0
10
1457.226
20
-89.065
0
VERTEX
8
L3D0
10
1430.226
20
-89.065
0
VERTEX
8
L3D0
10
1430.226
20
-77.065
0
VERTEX
8
L3D0
10
1393.226
20
-77.065
0
VERTEX
8
L3D0
10
1393.226
20
-78.065
0
VERTEX
8
L3D0
10
1417.226
20
-78.065
0
VERTEX
8
L3D0
10
1417.226
20
-81.065
0
VERTEX
8
L3D0
10
1393.226
20
-81.065
0
VERTEX
8
L3D0
10
1393.226
20
-82.065
0
VERTEX
8
L3D0
10
1417.226
20
-82.065
0
VERTEX
8
L3D0
10
1417.226
20
-85.065
0
VERTEX
8
L3D0
10
1393.226
20
-85.065
0
VERTEX
8
L3D0
10
1393.226
20
-86.065
0
VERTEX
8
L3D0
10
1417.226
20
-86.065
0
VERTEX
8
L3D0
10
1417.226
20
-89.065
0
VERTEX
8
L3D0
10
1390.226
20
-89.065
0
VERTEX
8
L3D0
10
1390.226
20
-77.065
0
VERTEX
8
L3D0
10
1371.226
20
-77.065
0
VERTEX
8
L3D0
10
1371.226
20
-78.065
0
VERTEX
8
L3D0
10
1377.226
20
-78.065
0
VERTEX
8
L3D0
10
1377.226
20
-81.065
0
VERTEX
8
L3D0
10
1371.226
20
-81.065
0
VERTEX
8
L3D0
10
1371.226
20
-82.065
0
VERTEX
8
L3D0
10
1377.226
20
-82.065
0
VERTEX
8
L3D0
10
1377.226
20
-85.065
0
VERTEX
8
L3D0
10
1371.226
20
-85.065
0
VERTEX
8
L3D0
10
1371.226
20
-86.065
0
VERTEX
8
L3D0
10
1377.226
20
-86.065
0
VERTEX
8
L3D0
10
1377.226
20
-89.065
0
VERTEX
8
L3D0
10
1371.226
20
-89.065
0
VERTEX
8
L3D0
10
1371.226
20
-90.065
0
VERTEX
8
L3D0
10
1677.226
20
-90.065
0
VERTEX
8
L3D0
10
1677.226
20
-93.065
0
VERTEX
8
L3D0
10
1371.226
20
-93.065
0
VERTEX
8
L3D0
10
1371.226
20
-94.065
0
VERTEX
8
L3D0
10
1677.226
20
-94.065
0
VERTEX
8
L3D0
10
1677.226
20
-97.065
0
VERTEX
8
L3D0
10
1653.226
20
-97.065
0
VERTEX
8
L3D0
10
1653.226
20
-98.065
0
VERTEX
8
L3D0
10
1677.226
20
-98.065
0
VERTEX
8
L3D0
10
1677.226
20
-101.065
0
VERTEX
8
L3D0
10
1653.226
20
-101.065
0
VERTEX
8
L3D0
10
1653.226
20
-102.065
0
VERTEX
8
L3D0
10
1677.226
20
-102.065
0
VERTEX
8
L3D0
10
1677.226
20
-105.065
0
VERTEX
8
L3D0
10
1653.226
20
-105.065
0
VERTEX
8
L3D0
10
1653.226
20
-106.065
0
VERTEX
8
L3D0
10
1677.226
20
-106.065
0
VERTEX
8
L3D0
10
1677.226
20
-109.065
0
VERTEX
8
L3D0
10
1650.226
20
-109.065
0
VERTEX
8
L3D0
10
1650.226
20
-97.065
0
VERTEX
8
L3D0
10
1613.226
20
-97.065
0
VERTEX
8
L3D0
10
1613.226
20
-98.065
0
VERTEX
8
L3D0
10
1637.226
20
-98.065
0
VERTEX
8
L3D0
10
1637.226
20
-101.065
0
VERTEX
8
L3D0
10
1613.226
20
-101.065
0
VERTEX
8
L3D0
10
1613.226
20
-102.065
0
VERTEX
8
L3D0
10
1637.226
20
-102.065
0
VERTEX
8
L3D0
10
1637.226
20
-105.065
0
VERTEX
8
L3D0
10
1613.226
20
-105.065
0
VERTEX
8
L3D0
10
1613.226
20
-106.065
0
VERTEX
8
L3D0
10
1637.226
20
-106.065
0
VERTEX
8
L3D0
10
1637.226
20
-109.065
0
VERTEX
8
L3D0
10
1610.226
20
-109.065
0
VERTEX
8
L3D0
10
1610.226
20
-97.065
0
VERTEX
8
L3D0
10
1573.226
20
-97.065
0
VERTEX
8
L3D0
10
1573.226
20
-98.065
0
VERTEX
8
L3D0
10
1597.226
20
-98.065
0
VERTEX
8
L3D0
10
1597.226
20
-101.065
0
VERTEX
8
L3D0
10
1573.226
20
-101.065
0
VERTEX
8
L3D0
10
1573.226
20
-102.065
0
VERTEX
8
L3D0
10
1597.226
20
-102.065
0
VERTEX
8
L3D0
10
1597.226
20
-105.065
0
VERTEX
8
L3D0
10
1573.226
20
-105.065
0
VERTEX
8
L3D0
10
1573.226
20
-106.065
0
VERTEX
8
L3D0
10
1597.226
20
-106.065
0
VERTEX
8
L3D0
10
1597.226
20
-109.065
0
VERTEX
8
L3D0
10
1570.226
20
-109.065
0
VERTEX
8
L3D0
10
1570.226
20
-97.065
0
VERTEX
8
L3D0
10
1533.226
20
-97.065
0
VERTEX
8
L3D0
10
1533.226
20
-98.065
0
VERTEX
8
L3D0
10
1557.226
20
-98.065
0
VERTEX
8
L3D0
10
1557.226
20
-101.065
0
VERTEX
8
L3D0
10
1533.226
20
-101.065
0
VERTEX
8
L3D0
10
1533.226
20
-102.065
0
VERTEX
8
L3D0
10
1557.226
20
-102.065
0
VERTEX
8
L3D0
10
1557.226
20
-105.065
0
VERTEX
8
L3D0
10
1533.226
20
-105.065
0
VERTEX
8
L3D0
10
1533.226
20
-106.065
0
VERTEX
8
L3D0
10
1557.226
20
-106.065
0
VERTEX
8
L3D0
10
1557.226
20
-109.065
0
VERTEX
8
L3D0
10
1530.226
20
-109.065
0
VERTEX
8
L3D0
10
1530.226
20
-97.065
0
VERTEX
8
L3D0
10
1493.226
20
-97.065
0
VERTEX
8
L3D0
10
1493.226
20
-98.065
0
VERTEX
8
L3D0
10
1517.226
20
-98.065
0
VERTEX
8
L3D0
10
1517.226
20
-101.065
0
VERTEX
8
L3D0
10
1493.226
20
-101.065
0
VERTEX
8
L3D0
10
1493.226
20
-102.065
0
VERTEX
8
L3D0
10
1517.226
20
-102.065
0
VERTEX
8
L3D0
10
1517.226
20
-105.065
0
VERTEX
8
L3D0
10
1493.226
20
-105.065
0
VERTEX
8
L3D0
10
1493.226
20
-106.065
0
VERTEX
8
L3D0
10
1517.226
20
-106.065
0
VERTEX
8
L3D0
10
1517.226
20
-109.065
0
VERTEX
8
L3D0
10
1490.226
20
-109.065
0
VERTEX
8
L3D0
10
1490.226
20
-97.065
0
VERTEX
8
L3D0
10
1453.226
20
-97.065
0
VERTEX
8
L3D0
10
1453.226
20
-98.065
0
VERTEX
8
L3D0
10
1477.226
20
-98.065
0
VERTEX
8
L3D0
10
1477.226
20
-101.065
0
VERTEX
8
L3D0
10
1453.226
20
-101.065
0
VERTEX
8
L3D0
10
1453.226
20
-102.065
0
VERTEX
8
L3D0
10
1477.226
20
-102.065
0
VERTEX
8
L3D0
10
1477.226
20
-105.065
0
VERTEX
8
L3D0
10
1453.226
20
-105.065
0
VERTEX
8
L3D0
10
1453.226
20
-106.065
0
VERTEX
8
L3D0
10
1477.226
20
-106.065
0
VERTEX
8
L3D0
10
1477.226
20
-109.065
0
VERTEX
8
L3D0
10
1450.226
20
-109.065
0
VERTEX
8
L3D0
10
1450.226
20
-97.065
0
VERTEX
8
L3D0
10
1413.226
20
-97.065
0
VERTEX
8
L3D0
10
1413.226
20
-98.065
0
VERTEX
8
L3D0
10
1437.226
20
-98.065
0
VERTEX
8
L3D0
10
1437.226
20
-101.065
0
VERTEX
8
L3D0
10
1413.226
20
-101.065
0
VERTEX
8
L3D0
10
1413.226
20
-102.065
0
VERTEX
8
L3D0
10
1437.226
20
-102.065
0
VERTEX
8
L3D0
10
1437.226
20
-105.065
0
VERTEX
8
L3D0
10
1413.226
20
-105.065
0
VERTEX
8
L3D0
10
1413.226
20
-106.065
0
VERTEX
8
L3D0
10
1437.226
20
-106.065
0
VERTEX
8
L3D0
10
1437.226
20
-109.065
0
VERTEX
8
L3D0
10
1410.226
20
-109.065
0
VERTEX
8
L3D0
10
1410.226
20
-97.065
0
VERTEX
8
L3D0
10
1371.226
20
-97.065
0
VERTEX
8
L3D0
10
1371.226
20
-98.065
0
VERTEX
8
L3D0
10
1397.226
20
-98.065
0
VERTEX
8
L3D0
10
1397.226
20
-101.065
0
VERTEX
8
L3D0
10
1371.226
20
-101.065
0
VERTEX
8
L3D0
10
1371.226
20
-102.065
0
VERTEX
8
L3D0
10
1397.226
20
-102.065
0
VERTEX
8
L3D0
10
1397.226
20
-105.065
0
VERTEX
8
L3D0
10
1371.226
20
-105.065
0
VERTEX
8
L3D0
10
1371.226
20
-106.065
0
VERTEX
8
L3D0
10
1397.226
20
-106.065
0
VERTEX
8
L3D0
10
1397.226
20
-109.065
0
VERTEX
8
L3D0
10
1371.226
20
-109.065
0
VERTEX
8
L3D0
10
1371.226
20
-110.065
0
VERTEX
8
L3D0
10
1677.226
20
-110.065
0
VERTEX
8
L3D0
10
1677.226
20
-113.065
0
VERTEX
8
L3D0
10
1371.226
20
-113.065
0
VERTEX
8
L3D0
10
1371.226
20
-114.065
0
VERTEX
8
L3D0
10
1677.226
20
-114.065
0
VERTEX
8
L3D0
10
1677.226
20
-117.065
0
VERTEX
8
L3D0
10
1673.226
20
-117.065
0
VERTEX
8
L3D0
10
1673.226
20
-118.065
0
VERTEX
8
L3D0
10
1677.226
20
-118.065
0
VERTEX
8
L3D0
10
1677.226
20
-121.065
0
VERTEX
8
L3D0
10
1673.226
20
-121.065
0
VERTEX
8
L3D0
10
1673.226
20
-122.065
0
VERTEX
8
L3D0
10
1677.226
20
-122.065
0
VERTEX
8
L3D0
10
1677.226
20
-125.065
0
VERTEX
8
L3D0
10
1673.226
20
-125.065
0
VERTEX
8
L3D0
10
1673.226
20
-126.065
0
VERTEX
8
L3D0
10
1677.226
20
-126.065
0
VERTEX
8
L3D0
10
1677.226
20
-129.065
0
VERTEX
8
L3D0
10
1670.226
20
-129.065
0
VERTEX
8
L3D0
10
1670.226
20
-117.065
0
VERTEX
8
L3D0
10
1633.226
20
-117.065
0
VERTEX
8
L3D0
10
1633.226
20
-118.065
0
VERTEX
8
L3D0
10
1657.226
20
-118.065
0
VERTEX
8
L3D0
10
1657.226
20
-121.065
0
VERTEX
8
L3D0
10
1633.226
20
-121.065
0
VERTEX
8
L3D0
10
1633.226
20
-122.065
0
VERTEX
8
L3D0
10
1657.226
20
-122.065
0
VERTEX
8
L3D0
10
1657.226
20
-125.065
0
VERTEX
8
L3D0
10
1633.226
20
-125.065
0
VERTEX
8
L3D0
10
1633.226
20
-126.065
0
VERTEX
8
L3D0
10
1657.226
20
-126.065
0
VERTEX
8
L3D0
10
1657.226
20
-129.065
0
VERTEX
8
L3D0
10
1630.226
20
-129.065
0
VERTEX
8
L3D0
10
1630.226
20
-117.065
0
VERTEX
8
L3D0
10
1593.226
20
-117.065
0
VERTEX
8
L3D0
10
1593.226
20
-118.065
0
VERTEX
8
L3D0
10
1617.226
20
-118.065
0
VERTEX
8
L3D0
10
1617.226
20
-121.065
0
VERTEX
8
L3D0
10
1593.226
20
-121.065
0
VERTEX
8
L3D0
10
1593.226
20
-122.065
0
VERTEX
8
L3D0
10
1617.226
20
-122.065
0
VERTEX
8
L3D0
10
1617.226
20
-125.065
0
VERTEX
8
L3D0
10
1593.226
20
-125.065
0
VERTEX
8
L3D0
10
1593.226
20
-126.065
0
VERTEX
8
L3D0
10
1617.226
20
-126.065
0
VERTEX
8
L3D0
10
1617.226
20
-129.065
0
VERTEX
8
L3D0
10
1590.226
20
-129.065
0
VERTEX
8
L3D0
10
1590.226
20
-117.065
0
VERTEX
8
L3D0
10
1553.226
20
-117.065
0
VERTEX
8
L3D0
10
1553.226
20
-118.065
0
VERTEX
8
L3D0
10
1577.226
20
-118.065
0
VERTEX
8
L3D0
10
1577.226
20
-121.065
0
VERTEX
8
L3D0
10
1553.226
20
-121.065
0
VERTEX
8
L3D0
10
1553.226
20
-122.065
0
VERTEX
8
L3D0
10
1577.226
20
-122.065
0
VERTEX
8
L3D0
10
1577.226
20
-125.065
0
VERTEX
8
L3D0
10
1553.226
20
-125.065
0
VERTEX
8
L3D0
10
1553.226
20
-126.065
0
VERTEX
8
L3D0
10
1577.226
20
-126.065
0
VERTEX
8
L3D0
10
1577.226
20
-129.065
0
VERTEX
8
L3D0
10
1550.226
20
-129.065
0
VERTEX
8
L3D0
10
1550.226
20
-117.065
0
VERTEX
8
L3D0
10
1513.226
20
-117.065
0
VERTEX
8
L3D0
10
1513.226
20
-118.065
0
VERTEX
8
L3D0
10
1537.226
20
-118.065
0
VERTEX
8
L3D0
10
1537.226
20
-121.065
0
VERTEX
8
L3D0
10
1513.226
20
-121.065
0
VERTEX
8
L3D0
10
1513.226
20
-122.065
0
VERTEX
8
L3D0
10
1537.226
20
-122.065
0
VERTEX
8
L3D0
10
1537.226
20
-125.065
0
VERTEX
8
L3D0
10
1513.226
20
-125.065
0
VERTEX
8
L3D0
10
1513.226
20
-126.065
0
VERTEX
8
L3D0
10
1537.226
20
-126.065
0
VERTEX
8
L3D0
10
1537.226
20
-129.065
0
VERTEX
8
L3D0
10
1510.226
20
-129.065
0
VERTEX
8
L3D0
10
1510.226
20
-117.065
0
VERTEX
8
L3D0
10
1473.226
20
-117.065
0
VERTEX
8
L3D0
10
1473.226
20
-118.065
0
VERTEX
8
L3D0
10
1497.226
20
-118.065
0
VERTEX
8
L3D0
10
1497.226
20
-121.065
0
VERTEX
8
L3D0
10
1473.226
20
-121.065
0
VERTEX
8
L3D0
10
1473.226
20
-122.065
0
VERTEX
8
L3D0
10
1497.226
20
-122.065
0
VERTEX
8
L3D0
10
1497.226
20
-125.065
0
VERTEX
8
L3D0
10
1473.226
20
-125.065
0
VERTEX
8
L3D0
10
1473.226
20
-126.065
0
VERTEX
8
L3D0
10
1497.226
20
-126.065
0
VERTEX
8
L3D0
10
1497.226
20
-129.065
0
VERTEX
8
L3D0
10
1470.226
20
-129.065
0
VERTEX
8
L3D0
10
1470.226
20
-117.065
0
VERTEX
8
L3D0
10
1433.226
20
-117.065
0
VERTEX
8
L3D0
10
1433.226
20
-118.065
0
VERTEX
8
L3D0
10
1457.226
20
-118.065
0
VERTEX
8
L3D0
10
1457.226
20
-121.065
0
VERTEX
8
L3D0
10
1433.226
20
-121.065
0
VERTEX
8
L3D0
10
1433.226
20
-122.065
0
VERTEX
8
L3D0
10
1457.226
20
-122.065
0
VERTEX
8
L3D0
10
1457.226
20
-125.065
0
VERTEX
8
L3D0
10
1433.226
20
-125.065
0
VERTEX
8
L3D0
10
1433.226
20
-126.065
0
VERTEX
8
L3D0
10
1457.226
20
-126.065
0
VERTEX
8
L3D0
10
1457.226
20
-129.065
0
VERTEX
8
L3D0
10
1430.226
20
-129.065
0
VERTEX
8
L3D0
10
1430.226
20
-117.065
0
VERTEX
8
L3D0
10
1393.226
20
-117.065
0
VERTEX
8
L3D0
10
1393.226
20
-118.065
0
VERTEX
8
L3D0
10
1417.226
20
-118.065
0
VERTEX
8
L3D0
10
1417.226
20
-121.065
0
VERTEX
8
L3D0
10
1393.226
20
-121.065
0
VERTEX
8
L3D0
10
1393.226
20
-122.065
0
VERTEX
8
L3D0
10
1417.226
20
-122.065
0
VERTEX
8
L3D0
10
1417.226
20
-125.065
0
VERTEX
8
L3D0
10
1393.226
20
-125.065
0
VERTEX
8
L3D0
10
1393.226
20
-126.065
0
VERTEX
8
L3D0
10
1417.226
20
-126.065
0
VERTEX
8
L3D0
10
1417.226
20
-129.065
0
VERTEX
8
L3D0
10
1390.226
20
-129.065
0
VERTEX
8
L3D0
10
1390.226
20
-117.065
0
VERTEX
8
L3D0
10
1371.226
20
-117.065
0
VERTEX
8
L3D0
10
1371.226
20
-118.065
0
VERTEX
8
L3D0
10
1377.226
20
-118.065
0
VERTEX
8
L3D0
10
1377.226
20
-121.065
0
VERTEX
8
L3D0
10
1371.226
20
-121.065
0
VERTEX
8
L3D0
10
1371.226
20
-122.065
0
VERTEX
8
L3D0
10
1377.226
20
-122.065
0
VERTEX
8
L3D0
10
1377.226
20
-125.065
0
VERTEX
8
L3D0
10
1371.226
20
-125.065
0
VERTEX
8
L3D0
10
1371.226
20
-126.065
0
VERTEX
8
L3D0
10
1377.226
20
-126.065
0
VERTEX
8
L3D0
10
1377.226
20
-129.065
0
VERTEX
8
L3D0
10
1371.226
20
-129.065
0
VERTEX
8
L3D0
10
1371.226
20
-130.065
0
VERTEX
8
L3D0
10
1677.226
20
-130.065
0
VERTEX
8
L3D0
10
1677.226
20
-133.065
0
VERTEX
8
L3D0
10
1371.226
20
-133.065
0
VERTEX
8
L3D0
10
1371.226
20
-134.065
0
VERTEX
8
L3D0
10
1677.226
20
-134.065
0
VERTEX
8
L3D0
10
1677.226
20
-137.065
0
VERTEX
8
L3D0
10
1653.226
20
-137.065
0
VERTEX
8
L3D0
10
1653.226
20
-138.065
0
VERTEX
8
L3D0
10
1677.226
20
-138.065
0
VERTEX
8
L3D0
10
1677.226
20
-141.065
0
VERTEX
8
L3D0
10
1653.226
20
-141.065
0
VERTEX
8
L3D0
10
1653.226
20
-142.065
0
VERTEX
8
L3D0
10
1677.226
20
-142.065
0
VERTEX
8
L3D0
10
1677.226
20
-145.065
0
VERTEX
8
L3D0
10
1653.226
20
-145.065
0
VERTEX
8
L3D0
10
1653.226
20
-146.065
0
VERTEX
8
L3D0
10
1677.226
20
-146.065
0
VERTEX
8
L3D0
10
1677.226
20
-149.065
0
VERTEX
8
L3D0
10
1650.226
20
-149.065
0
VERTEX
8
L3D0
10
1650.226
20
-137.065
0
VERTEX
8
L3D0
10
1613.226
20
-137.065
0
VERTEX
8
L3D0
10
1613.226
20
-138.065
0
VERTEX
8
L3D0
10
1637.226
20
-138.065
0
VERTEX
8
L3D0
10
1637.226
20
-141.065
0
VERTEX
8
L3D0
10
1613.226
20
-141.065
0
VERTEX
8
L3D0
10
1613.226
20
-142.065
0
VERTEX
8
L3D0
10
1637.226
20
-142.065
0
VERTEX
8
L3D0
10
1637.226
20
-145.065
0
VERTEX
8
L3D0
10
1613.226
20
-145.065
0
VERTEX
8
L3D0
10
1613.226
20
-146.065
0
VERTEX
8
L3D0
10
1637.226
20
-146.065
0
VERTEX
8
L3D0
10
1637.226
20
-149.065
0
VERTEX
8
L3D0
10
1610.226
20
-149.065
0
VERTEX
8
L3D0
10
1610.226
20
-137.065
0
VERTEX
8
L3D0
10
1573.226
20
-137.065
0
VERTEX
8
L3D0
10
1573.226
20
-138.065
0
VERTEX
8
L3D0
10
1597.226
20
-138.065
0
VERTEX
8
L3D0
10
1597.226
20
-141.065
0
VERTEX
8
L3D0
10
1573.226
20
-141.065
0
VERTEX
8
L3D0
10
1573.226
20
-142.065
0
VERTEX
8
L3D0
10
1597.226
20
-142.065
0
VERTEX
8
L3D0
10
1597.226
20
-145.065
0
VERTEX
8
L3D0
10
1573.226
20
-145.065
0
VERTEX
8
L3D0
10
1573.226
20
-146.065
0
VERTEX
8
L3D0
10
1597.226
20
-146.065
0
VERTEX
8
L3D0
10
1597.226
20
-149.065
0
VERTEX
8
L3D0
10
1570.226
20
-149.065
0
VERTEX
8
L3D0
10
1570.226
20
-137.065
0
VERTEX
8
L3D0
10
1533.226
20
-137.065
0
VERTEX
8
L3D0
10
1533.226
20
-138.065
0
VERTEX
8
L3D0
10
1557.226
20
-138.065
0
VERTEX
8
L3D0
10
1557.226
20
-141.065
0
VERTEX
8
L3D0
10
1533.226
20
-141.065
0
VERTEX
8
L3D0
10
1533.226
20
-142.065
0
VERTEX
8
L3D0
10
1557.226
20
-142.065
0
VERTEX
8
L3D0
10
1557.226
20
-145.065
0
VERTEX
8
L3D0
10
1533.226
20
-145.065
0
VERTEX
8
L3D0
10
1533.226
20
-146.065
0
VERTEX
8
L3D0
10
1557.226
20
-146.065
0
VERTEX
8
L3D0
10
1557.226
20
-149.065
0
VERTEX
8
L3D0
10
1530.226
20
-149.065
0
VERTEX
8
L3D0
10
1530.226
20
-137.065
0
VERTEX
8
L3D0
10
1493.226
20
-137.065
0
VERTEX
8
L3D0
10
1493.226
20
-138.065
0
VERTEX
8
L3D0
10
1517.226
20
-138.065
0
VERTEX
8
L3D0
10
1517.226
20
-141.065
0
VERTEX
8
L3D0
10
1493.226
20
-141.065
0
VERTEX
8
L3D0
10
1493.226
20
-142.065
0
VERTEX
8
L3D0
10
1517.226
20
-142.065
0
VERTEX
8
L3D0
10
1517.226
20
-145.065
0
VERTEX
8
L3D0
10
1493.226
20
-145.065
0
VERTEX
8
L3D0
10
1493.226
20
-146.065
0
VERTEX
8
L3D0
10
1517.226
20
-146.065
0
VERTEX
8
L3D0
10
1517.226
20
-149.065
0
VERTEX
8
L3D0
10
1490.226
20
-149.065
0
VERTEX
8
L3D0
10
1490.226
20
-137.065
0
VERTEX
8
L3D0
10
1453.226
20
-137.065
0
VERTEX
8
L3D0
10
1453.226
20
-138.065
0
VERTEX
8
L3D0
10
1477.226
20
-138.065
0
VERTEX
8
L3D0
10
1477.226
20
-141.065
0
VERTEX
8
L3D0
10
1453.226
20
-141.065
0
VERTEX
8
L3D0
10
1453.226
20
-142.065
0
VERTEX
8
L3D0
10
1477.226
20
-142.065
0
VERTEX
8
L3D0
10
1477.226
20
-145.065
0
VERTEX
8
L3D0
10
1453.226
20
-145.065
0
VERTEX
8
L3D0
10
1453.226
20
-146.065
0
VERTEX
8
L3D0
10
1477.226
20
-146.065
0
VERTEX
8
L3D0
10
1477.226
20
-149.065
0
VERTEX
8
L3D0
10
1450.226
20
-149.065
0
VERTEX
8
L3D0
10
1450.226
20
-137.065
0
VERTEX
8
L3D0
10
1413.226
20
-137.065
0
VERTEX
8
L3D0
10
1413.226
20
-138.065
0
VERTEX
8
L3D0
10
1437.226
20
-138.065
0
VERTEX
8
L3D0
10
1437.226
20
-141.065
0
VERTEX
8
L3D0
10
1413.226
20
-141.065
0
VERTEX
8
L3D0
10
1413.226
20
-142.065
0
VERTEX
8
L3D0
10
1437.226
20
-142.065
0
VERTEX
8
L3D0
10
1437.226
20
-145.065
0
VERTEX
8
L3D0
10
1413.226
20
-145.065
0
VERTEX
8
L3D0
10
1413.226
20
-146.065
0
VERTEX
8
L3D0
10
1437.226
20
-146.065
0
VERTEX
8
L3D0
10
1437.226
20
-149.065
0
VERTEX
8
L3D0
10
1410.226
20
-149.065
0
VERTEX
8
L3D0
10
1410.226
20
-137.065
0
VERTEX
8
L3D0
10
1371.226
20
-137.065
0
VERTEX
8
L3D0
10
1371.226
20
-138.065
0
VERTEX
8
L3D0
10
1397.226
20
-138.065
0
VERTEX
8
L3D0
10
1397.226
20
-141.065
0
VERTEX
8
L3D0
10
1371.226
20
-141.065
0
VERTEX
8
L3D0
10
1371.226
20
-142.065
0
VERTEX
8
L3D0
10
1397.226
20
-142.065
0
VERTEX
8
L3D0
10
1397.226
20
-145.065
0
VERTEX
8
L3D0
10
1371.226
20
-145.065
0
VERTEX
8
L3D0
10
1371.226
20
-146.065
0
VERTEX
8
L3D0
10
1397.226
20
-146.065
0
VERTEX
8
L3D0
10
1397.226
20
-149.065
0
VERTEX
8
L3D0
10
1371.226
20
-149.065
0
VERTEX
8
L3D0
10
1371.226
20
-150.065
0
VERTEX
8
L3D0
10
1677.226
20
-150.065
0
VERTEX
8
L3D0
10
1677.226
20
-153.065
0
VERTEX
8
L3D0
10
1371.226
20
-153.065
0
VERTEX
8
L3D0
10
1371.226
20
-154.065
0
VERTEX
8
L3D0
10
1677.226
20
-154.065
0
VERTEX
8
L3D0
10
1677.226
20
-157.065
0
VERTEX
8
L3D0
10
1673.226
20
-157.065
0
VERTEX
8
L3D0
10
1673.226
20
-158.065
0
VERTEX
8
L3D0
10
1677.226
20
-158.065
0
VERTEX
8
L3D0
10
1677.226
20
-161.065
0
VERTEX
8
L3D0
10
1673.226
20
-161.065
0
VERTEX
8
L3D0
10
1673.226
20
-162.065
0
VERTEX
8
L3D0
10
1677.226
20
-162.065
0
VERTEX
8
L3D0
10
1677.226
20
-165.065
0
VERTEX
8
L3D0
10
1673.226
20
-165.065
0
VERTEX
8
L3D0
10
1673.226
20
-166.065
0
VERTEX
8
L3D0
10
1677.226
20
-166.065
0
VERTEX
8
L3D0
10
1677.226
20
-169.065
0
VERTEX
8
L3D0
10
1670.226
20
-169.065
0
VERTEX
8
L3D0
10
1670.226
20
-157.065
0
VERTEX
8
L3D0
10
1633.226
20
-157.065
0
VERTEX
8
L3D0
10
1633.226
20
-158.065
0
VERTEX
8
L3D0
10
1657.226
20
-158.065
0
VERTEX
8
L3D0
10
1657.226
20
-161.065
0
VERTEX
8
L3D0
10
1633.226
20
-161.065
0
VERTEX
8
L3D0
10
1633.226
20
-162.065
0
VERTEX
8
L3D0
10
1657.226
20
-162.065
0
VERTEX
8
L3D0
10
1657.226
20
-165.065
0
VERTEX
8
L3D0
10
1633.226
20
-165.065
0
VERTEX
8
L3D0
10
1633.226
20
-166.065
0
VERTEX
8
L3D0
10
1657.226
20
-166.065
0
VERTEX
8
L3D0
10
1657.226
20
-169.065
0
VERTEX
8
L3D0
10
1630.226
20
-169.065
0
VERTEX
8
L3D0
10
1630.226
20
-157.065
0
VERTEX
8
L3D0
10
1593.226
20
-157.065
0
VERTEX
8
L3D0
10
1593.226
20
-158.065
0
VERTEX
8
L3D0
10
1617.226
20
-158.065
0
VERTEX
8
L3D0
10
1617.226
20
-161.065
0
VERTEX
8
L3D0
10
1593.226
20
-161.065
0
VERTEX
8
L3D0
10
1593.226
20
-162.065
0
VERTEX
8
L3D0
10
1617.226
20
-162.065
0
VERTEX
8
L3D0
10
1617.226
20
-165.065
0
VERTEX
8
L3D0
10
1593.226
20
-165.065
0
VERTEX
8
L3D0
10
1593.226
20
-166.065
0
VERTEX
8
L3D0
10
1617.226
20
-166.065
0
VERTEX
8
L3D0
10
1617.226
20
-169.065
0
VERTEX
8
L3D0
10
1590.226
20
-169.065
0
VERTEX
8
L3D0
10
1590.226
20
-157.065
0
VERTEX
8
L3D0
10
1553.226
20
-157.065
0
VERTEX
8
L3D0
10
1553.226
20
-158.065
0
VERTEX
8
L3D0
10
1577.226
20
-158.065
0
VERTEX
8
L3D0
10
1577.226
20
-161.065
0
VERTEX
8
L3D0
10
1553.226
20
-161.065
0
VERTEX
8
L3D0
10
1553.226
20
-162.065
0
VERTEX
8
L3D0
10
1577.226
20
-162.065
0
VERTEX
8
L3D0
10
1577.226
20
-165.065
0
VERTEX
8
L3D0
10
1553.226
20
-165.065
0
VERTEX
8
L3D0
10
1553.226
20
-166.065
0
VERTEX
8
L3D0
10
1577.226
20
-166.065
0
VERTEX
8
L3D0
10
1577.226
20
-169.065
0
VERTEX
8
L3D0
10
1550.226
20
-169.065
0
VERTEX
8
L3D0
10
1550.226
20
-157.065
0
VERTEX
8
L3D0
10
1513.226
20
-157.065
0
VERTEX
8
L3D0
10
1513.226
20
-158.065
0
VERTEX
8
L3D0
10
1537.226
20
-158.065
0
VERTEX
8
L3D0
10
1537.226
20
-161.065
0
VERTEX
8
L3D0
10
1513.226
20
-161.065
0
VERTEX
8
L3D0
10
1513.226
20
-162.065
0
VERTEX
8
L3D0
10
1537.226
20
-162.065
0
VERTEX
8
L3D0
10
1537.226
20
-165.065
0
VERTEX
8
L3D0
10
1513.226
20
-165.065
0
VERTEX
8
L3D0
10
1513.226
20
-166.065
0
VERTEX
8
L3D0
10
1537.226
20
-166.065
0
VERTEX
8
L3D0
10
1537.226
20
-169.065
0
VERTEX
8
L3D0
10
1510.226
20
-169.065
0
VERTEX
8
L3D0
10
1510.226
20
-157.065
0
VERTEX
8
L3D0
10
1473.226
20
-157.065
0
VERTEX
8
L3D0
10
1473.226
20
-158.065
0
VERTEX
8
L3D0
10
1497.226
20
-158.065
0
VERTEX
8
L3D0
10
1497.226
20
-161.065
0
VERTEX
8
L3D0
10
1473.226
20
-161.065
0
VERTEX
8
L3D0
10
1473.226
20
-162.065
0
VERTEX
8
L3D0
10
1497.226
20
-162.065
0
VERTEX
8
L3D0
10
1497.226
20
-165.065
0
VERTEX
8
L3D0
10
1473.226
20
-165.065
0
VERTEX
8
L3D0
10
1473.226
20
-166.065
0
VERTEX
8
L3D0
10
1497.226
20
-166.065
0
VERTEX
8
L3D0
10
1497.226
20
-169.065
0
VERTEX
8
L3D0
10
1470.226
20
-169.065
0
VERTEX
8
L3D0
10
1470.226
20
-157.065
0
VERTEX
8
L3D0
10
1433.226
20
-157.065
0
VERTEX
8
L3D0
10
1433.226
20
-158.065
0
VERTEX
8
L3D0
10
1457.226
20
-158.065
0
VERTEX
8
L3D0
10
1457.226
20
-161.065
0
VERTEX
8
L3D0
10
1433.226
20
-161.065
0
VERTEX
8
L3D0
10
1433.226
20
-162.065
0
VERTEX
8
L3D0
10
1457.226
20
-162.065
0
VERTEX
8
L3D0
10
1457.226
20
-165.065
0
VERTEX
8
L3D0
10
1433.226
20
-165.065
0
VERTEX
8
L3D0
10
1433.226
20
-166.065
0
VERTEX
8
L3D0
10
1457.226
20
-166.065
0
VERTEX
8
L3D0
10
1457.226
20
-169.065
0
VERTEX
8
L3D0
10
1430.226
20
-169.065
0
VERTEX
8
L3D0
10
1430.226
20
-157.065
0
VERTEX
8
L3D0
10
1393.226
20
-157.065
0
VERTEX
8
L3D0
10
1393.226
20
-158.065
0
VERTEX
8
L3D0
10
1417.226
20
-158.065
0
VERTEX
8
L3D0
10
1417.226
20
-161.065
0
VERTEX
8
L3D0
10
1393.226
20
-161.065
0
VERTEX
8
L3D0
10
1393.226
20
-162.065
0
VERTEX
8
L3D0
10
1417.226
20
-162.065
0
VERTEX
8
L3D0
10
1417.226
20
-165.065
0
VERTEX
8
L3D0
10
1393.226
20
-165.065
0
VERTEX
8
L3D0
10
1393.226
20
-166.065
0
VERTEX
8
L3D0
10
1417.226
20
-166.065
0
VERTEX
8
L3D0
10
1417.226
20
-169.065
0
VERTEX
8
L3D0
10
1390.226
20
-169.065
0
VERTEX
8
L3D0
10
1390.226
20
-157.065
0
VERTEX
8
L3D0
10
1371.226
20
-157.065
0
VERTEX
8
L3D0
10
1371.226
20
-158.065
0
VERTEX
8
L3D0
10
1377.226
20
-158.065
0
VERTEX
8
L3D0
10
1377.226
20
-161.065
0
VERTEX
8
L3D0
10
1371.226
20
-161.065
0
VERTEX
8
L3D0
10
1371.226
20
-162.065
0
VERTEX
8
L3D0
10
1377.226
20
-162.065
0
VERTEX
8
L3D0
10
1377.226
20
-165.065
0
VERTEX
8
L3D0
10
1371.226
20
-165.065
0
VERTEX
8
L3D0
10
1371.226
20
-166.065
0
VERTEX
8
L3D0
10
1377.226
20
-166.065
0
VERTEX
8
L3D0
10
1377.226
20
-169.065
0
VERTEX
8
L3D0
10
1371.226
20
-169.065
0
VERTEX
8
L3D0
10
1371.226
20
-170.065
0
VERTEX
8
L3D0
10
1677.226
20
-170.065
0
VERTEX
8
L3D0
10
1677.226
20
-173.065
0
VERTEX
8
L3D0
10
1371.226
20
-173.065
0
VERTEX
8
L3D0
10
1371.226
20
-174.065
0
VERTEX
8
L3D0
10
1677.226
20
-174.065
0
VERTEX
8
L3D0
10
1677.226
20
-177.065
0
VERTEX
8
L3D0
10
1653.226
20
-177.065
0
VERTEX
8
L3D0
10
1653.226
20
-178.065
0
VERTEX
8
L3D0
10
1677.226
20
-178.065
0
VERTEX
8
L3D0
10
1677.226
20
-181.065
0
VERTEX
8
L3D0
10
1653.226
20
-181.065
0
VERTEX
8
L3D0
10
1653.226
20
-182.065
0
VERTEX
8
L3D0
10
1677.226
20
-182.065
0
VERTEX
8
L3D0
10
1677.226
20
-185.065
0
VERTEX
8
L3D0
10
1653.226
20
-185.065
0
VERTEX
8
L3D0
10
1653.226
20
-186.065
0
VERTEX
8
L3D0
10
1677.226
20
-186.065
0
VERTEX
8
L3D0
10
1677.226
20
-189.065
0
VERTEX
8
L3D0
10
1650.226
20
-189.065
0
VERTEX
8
L3D0
10
1650.226
20
-177.065
0
VERTEX
8
L3D0
10
1613.226
20
-177.065
0
VERTEX
8
L3D0
10
1613.226
20
-178.065
0
VERTEX
8
L3D0
10
1637.226
20
-178.065
0
VERTEX
8
L3D0
10
1637.226
20
-181.065
0
VERTEX
8
L3D0
10
1613.226
20
-181.065
0
VERTEX
8
L3D0
10
1613.226
20
-182.065
0
VERTEX
8
L3D0
10
1637.226
20
-182.065
0
VERTEX
8
L3D0
10
1637.226
20
-185.065
0
VERTEX
8
L3D0
10
1613.226
20
-185.065
0
VERTEX
8
L3D0
10
1613.226
20
-186.065
0
VERTEX
8
L3D0
10
1637.226
20
-186.065
0
VERTEX
8
L3D0
10
1637.226
20
-189.065
0
VERTEX
8
L3D0
10
1610.226
20
-189.065
0
VERTEX
8
L3D0
10
1610.226
20
-177.065
0
VERTEX
8
L3D0
10
1573.226
20
-177.065
0
VERTEX
8
L3D0
10
1573.226
20
-178.065
0
VERTEX
8
L3D0
10
1597.226
20
-178.065
0
VERTEX
8
L3D0
10
1597.226
20
-181.065
0
VERTEX
8
L3D0
10
1573.226
20
-181.065
0
VERTEX
8
L3D0
10
1573.226
20
-182.065
0
VERTEX
8
L3D0
10
1597.226
20
-182.065
0
VERTEX
8
L3D0
10
1597.226
20
-185.065
0
VERTEX
8
L3D0
10
1573.226
20
-185.065
0
VERTEX
8
L3D0
10
1573.226
20
-186.065
0
VERTEX
8
L3D0
10
1597.226
20
-186.065
0
VERTEX
8
L3D0
10
1597.226
20
-189.065
0
VERTEX
8
L3D0
10
1570.226
20
-189.065
0
VERTEX
8
L3D0
10
1570.226
20
-177.065
0
VERTEX
8
L3D0
10
1533.226
20
-177.065
0
VERTEX
8
L3D0
10
1533.226
20
-178.065
0
VERTEX
8
L3D0
10
1557.226
20
-178.065
0
VERTEX
8
L3D0
10
1557.226
20
-181.065
0
VERTEX
8
L3D0
10
1533.226
20
-181.065
0
VERTEX
8
L3D0
10
1533.226
20
-182.065
0
VERTEX
8
L3D0
10
1557.226
20
-182.065
0
VERTEX
8
L3D0
10
1557.226
20
-185.065
0
VERTEX
8
L3D0
10
1533.226
20
-185.065
0
VERTEX
8
L3D0
10
1533.226
20
-186.065
0
VERTEX
8
L3D0
10
1557.226
20
-186.065
0
VERTEX
8
L3D0
10
1557.226
20
-189.065
0
VERTEX
8
L3D0
10
1530.226
20
-189.065
0
VERTEX
8
L3D0
10
1530.226
20
-177.065
0
VERTEX
8
L3D0
10
1493.226
20
-177.065
0
VERTEX
8
L3D0
10
1493.226
20
-178.065
0
VERTEX
8
L3D0
10
1517.226
20
-178.065
0
VERTEX
8
L3D0
10
1517.226
20
-181.065
0
VERTEX
8
L3D0
10
1493.226
20
-181.065
0
VERTEX
8
L3D0
10
1493.226
20
-182.065
0
VERTEX
8
L3D0
10
1517.226
20
-182.065
0
VERTEX
8
L3D0
10
1517.226
20
-185.065
0
VERTEX
8
L3D0
10
1493.226
20
-185.065
0
VERTEX
8
L3D0
10
1493.226
20
-186.065
0
VERTEX
8
L3D0
10
1517.226
20
-186.065
0
VERTEX
8
L3D0
10
1517.226
20
-189.065
0
VERTEX
8
L3D0
10
1490.226
20
-189.065
0
VERTEX
8
L3D0
10
1490.226
20
-177.065
0
VERTEX
8
L3D0
10
1453.226
20
-177.065
0
VERTEX
8
L3D0
10
1453.226
20
-178.065
0
VERTEX
8
L3D0
10
1477.226
20
-178.065
0
VERTEX
8
L3D0
10
1477.226
20
-181.065
0
VERTEX
8
L3D0
10
1453.226
20
-181.065
0
VERTEX
8
L3D0
10
1453.226
20
-182.065
0
VERTEX
8
L3D0
10
1477.226
20
-182.065
0
VERTEX
8
L3D0
10
1477.226
20
-185.065
0
VERTEX
8
L3D0
10
1453.226
20
-185.065
0
VERTEX
8
L3D0
10
1453.226
20
-186.065
0
VERTEX
8
L3D0
10
1477.226
20
-186.065
0
VERTEX
8
L3D0
10
1477.226
20
-189.065
0
VERTEX
8
L3D0
10
1450.226
20
-189.065
0
VERTEX
8
L3D0
10
1450.226
20
-177.065
0
VERTEX
8
L3D0
10
1413.226
20
-177.065
0
VERTEX
8
L3D0
10
1413.226
20
-178.065
0
VERTEX
8
L3D0
10
1437.226
20
-178.065
0
VERTEX
8
L3D0
10
1437.226
20
-181.065
0
VERTEX
8
L3D0
10
1413.226
20
-181.065
0
VERTEX
8
L3D0
10
1413.226
20
-182.065
0
VERTEX
8
L3D0
10
1437.226
20
-182.065
0
VERTEX
8
L3D0
10
1437.226
20
-185.065
0
VERTEX
8
L3D0
10
1413.226
20
-185.065
0
VERTEX
8
L3D0
10
1413.226
20
-186.065
0
VERTEX
8
L3D0
10
1437.226
20
-186.065
0
VERTEX
8
L3D0
10
1437.226
20
-189.065
0
VERTEX
8
L3D0
10
1410.226
20
-189.065
0
VERTEX
8
L3D0
10
1410.226
20
-177.065
0
VERTEX
8
L3D0
10
1371.226
20
-177.065
0
VERTEX
8
L3D0
10
1371.226
20
-178.065
0
VERTEX
8
L3D0
10
1397.226
20
-178.065
0
VERTEX
8
L3D0
10
1397.226
20
-181.065
0
VERTEX
8
L3D0
10
1371.226
20
-181.065
0
VERTEX
8
L3D0
10
1371.226
20
-182.065
0
VERTEX
8
L3D0
10
1397.226
20
-182.065
0
VERTEX
8
L3D0
10
1397.226
20
-185.065
0
VERTEX
8
L3D0
10
1371.226
20
-185.065
0
VERTEX
8
L3D0
10
1371.226
20
-186.065
0
VERTEX
8
L3D0
10
1397.226
20
-186.065
0
VERTEX
8
L3D0
10
1397.226
20
-189.065
0
VERTEX
8
L3D0
10
1371.226
20
-189.065
0
VERTEX
8
L3D0
10
1371.226
20
-190.065
0
VERTEX
8
L3D0
10
1677.226
20
-190.065
0
VERTEX
8
L3D0
10
1677.226
20
-193.065
0
VERTEX
8
L3D0
10
1371.226
20
-193.065
0
VERTEX
8
L3D0
10
1371.226
20
-194.065
0
VERTEX
8
L3D0
10
1677.226
20
-194.065
0
VERTEX
8
L3D0
10
1677.226
20
-197.065
0
SEQEND
0
POLYLINE
8
L3D0
70
1
40
0
41
0
66
1
0
VERTEX
8
L3D0
10
1358.226
20
-197.065
0
VERTEX
8
L3D0
10
1358.226
20
-196.065
0
VERTEX
8
L3D0
10
1372.226
20
-196.065
0
VERTEX
8
L3D0
10
1372.226
20
-197.065
0
SEQEND
0
POLYLINE
8
L3D0
70
1
40
0
41
0
66
1
0
VERTEX
8
L3D0
10
1358.226
20
-71.065
0
VERTEX
8
L3D0
10
1358.226
20
-70.065
0
VERTEX
8
L3D0
10
1372.226
20
-70.065
0
VERTEX
8
L3D0
10
1372.226
20
-71.065
0
SEQEND
0
POLYLINE
8
L3D0
70
1
40
0
41
0
66
1
0
VERTEX
8
L3D0
10
1358.226
20
-119.065
0
VERTEX
8
L3D0
10
1358.226
20
-70.565
0
VERTEX
8
L3D0
10
1361.226
20
-70.565
0
VERTEX
8
L3D0
10
1361.226
20
-119.065
0
SEQEND
0
POLYLINE
8
L3D0
70
1
40
0
41
0
66
1
0
VERTEX
8
L3D0
10
1358.226
20
-196.565
0
VERTEX
8
L3D0
10
1358.226
20
-148.065
0
VERTEX
8
L3D0
10
1361.226
20
-148.065
0
VERTEX
8
L3D0
10
1361.226
20
-196.565
0
SEQEND
0
ENDSEC
0
EOF
