0
SECTION
2
HEADER
9
$ACADVER
1
AC1006
0
ENDSEC
0
SECTION
2
TABLES
0
TABLE
2
LAYER
70
2
0
LAYER
70
0
62
1
6
CONTINUOUS
2
L8D0
0
LAYER
70
0
62
2
6
CONTINUOUS
2
L6D0
0
ENDTAB
0
ENDSEC
0
SECTION
2
BLOCKS
0
ENDSEC
0
SECTION
2
ENTITIES
0
POLYLINE
8
L8D0
70
1
40
0
41
0
66
1
0
VERTEX
8
L8D0
10
-2701
20
606.5
0
VERTEX
8
L8D0
10
-2701
20
630.5
0
VERTEX
8
L8D0
10
-2671
20
619.5
0
VERTEX
8
L8D0
10
-2671
20
617.5
0
SEQEND
0
POLYLINE
8
L8D0
70
0
40
20
41
20
66
1
0
VERTEX
8
L8D0
10
-2999.965
20
-777.816
0
VERTEX
8
L8D0
10
-2999.965
20
-614.397
0
SEQEND
0
POLYLINE
8
L8D0
70
0
40
2
41
2
66
1
0
VERTEX
8
L8D0
10
-4760
20
-13.5
0
VERTEX
8
L8D0
10
-4760
20
-2
0
VERTEX
8
L8D0
10
-3985.5
20
-2
0
SEQEND
0
POLYLINE
8
L8D0
70
0
40
2
41
2
66
1
0
VERTEX
8
L8D0
10
-4760
20
13.5
0
VERTEX
8
L8D0
10
-4760
20
2
0
VERTEX
8
L8D0
10
-3985.5
20
2
0
SEQEND
0
POLYLINE
8
L8D0
70
1
40
0
41
0
66
1
0
VERTEX
8
L8D0
10
-3200
20
606.5
0
VERTEX
8
L8D0
10
-3200
20
630.5
0
VERTEX
8
L8D0
10
-2701
20
630.5
0
VERTEX
8
L8D0
10
-2701
20
606.5
0
SEQEND
0
POLYLINE
8
L8D0
70
1
40
0
41
0
66
1
0
VERTEX
8
L8D0
10
-4762.5
20
12.5
0
VERTEX
8
L8D0
10
-4762.5
20
63.5
0
VERTEX
8
L8D0
10
-4757.5
20
63.5
0
VERTEX
8
L8D0
10
-4757.5
20
12.5
0
SEQEND
0
POLYLINE
8
L8D0
70
1
40
0
41
0
66
1
0
VERTEX
8
L8D0
10
-4762.5
20
-63.5
0
VERTEX
8
L8D0
10
-4762.5
20
-12.5
0
VERTEX
8
L8D0
10
-4757.5
20
-12.5
0
VERTEX
8
L8D0
10
-4757.5
20
-63.5
0
SEQEND
0
POLYLINE
8
L6D0
70
1
40
0
41
0
66
1
0
VERTEX
8
L6D0
10
-3270
20
-602.749
0
VERTEX
8
L6D0
10
-3270
20
-525.749
0
VERTEX
8
L6D0
10
-4010.498
20
-525.749
0
VERTEX
8
L6D0
10
-4010.498
20
-0.999
0
VERTEX
8
L6D0
10
-3985.498
20
-0.999
0
VERTEX
8
L6D0
10
-3985.498
20
-500.749
0
VERTEX
8
L6D0
10
-3972.998
20
-500.749
0
VERTEX
8
L6D0
10
-3972.998
20
497.751
0
VERTEX
8
L6D0
10
-3968.998
20
497.751
0
VERTEX
8
L6D0
10
-3968.998
20
-500.749
0
VERTEX
8
L6D0
10
-3956.998
20
-500.749
0
VERTEX
8
L6D0
10
-3956.998
20
497.751
0
VERTEX
8
L6D0
10
-3952.998
20
497.751
0
VERTEX
8
L6D0
10
-3952.998
20
-500.749
0
VERTEX
8
L6D0
10
-3940.998
20
-500.749
0
VERTEX
8
L6D0
10
-3940.998
20
497.751
0
VERTEX
8
L6D0
10
-3936.998
20
497.751
0
VERTEX
8
L6D0
10
-3936.998
20
-500.749
0
VERTEX
8
L6D0
10
-3924.998
20
-500.749
0
VERTEX
8
L6D0
10
-3924.998
20
497.751
0
VERTEX
8
L6D0
10
-3920.998
20
497.751
0
VERTEX
8
L6D0
10
-3920.998
20
-500.749
0
VERTEX
8
L6D0
10
-3908.998
20
-500.749
0
VERTEX
8
L6D0
10
-3908.998
20
497.751
0
VERTEX
8
L6D0
10
-3904.998
20
497.751
0
VERTEX
8
L6D0
10
-3904.998
20
-500.749
0
VERTEX
8
L6D0
10
-3892.998
20
-500.749
0
VERTEX
8
L6D0
10
-3892.998
20
497.751
0
VERTEX
8
L6D0
10
-3888.998
20
497.751
0
VERTEX
8
L6D0
10
-3888.998
20
-500.749
0
VERTEX
8
L6D0
10
-3876.998
20
-500.749
0
VERTEX
8
L6D0
10
-3876.998
20
497.751
0
VERTEX
8
L6D0
10
-3872.998
20
497.751
0
VERTEX
8
L6D0
10
-3872.998
20
-500.749
0
VERTEX
8
L6D0
10
-3860.998
20
-500.749
0
VERTEX
8
L6D0
10
-3860.998
20
497.751
0
VERTEX
8
L6D0
10
-3856.998
20
497.751
0
VERTEX
8
L6D0
10
-3856.998
20
-500.749
0
VERTEX
8
L6D0
10
-3844.998
20
-500.749
0
VERTEX
8
L6D0
10
-3844.998
20
497.751
0
VERTEX
8
L6D0
10
-3840.998
20
497.751
0
VERTEX
8
L6D0
10
-3840.998
20
-500.749
0
VERTEX
8
L6D0
10
-3828.998
20
-500.749
0
VERTEX
8
L6D0
10
-3828.998
20
497.751
0
VERTEX
8
L6D0
10
-3824.998
20
497.751
0
VERTEX
8
L6D0
10
-3824.998
20
-500.749
0
VERTEX
8
L6D0
10
-3812.998
20
-500.749
0
VERTEX
8
L6D0
10
-3812.998
20
497.751
0
VERTEX
8
L6D0
10
-3808.998
20
497.751
0
VERTEX
8
L6D0
10
-3808.998
20
-500.749
0
VERTEX
8
L6D0
10
-3796.998
20
-500.749
0
VERTEX
8
L6D0
10
-3796.998
20
497.751
0
VERTEX
8
L6D0
10
-3792.998
20
497.751
0
VERTEX
8
L6D0
10
-3792.998
20
-500.749
0
VERTEX
8
L6D0
10
-3780.998
20
-500.749
0
VERTEX
8
L6D0
10
-3780.998
20
497.751
0
VERTEX
8
L6D0
10
-3776.998
20
497.751
0
VERTEX
8
L6D0
10
-3776.998
20
-500.749
0
VERTEX
8
L6D0
10
-3764.998
20
-500.749
0
VERTEX
8
L6D0
10
-3764.998
20
497.751
0
VERTEX
8
L6D0
10
-3760.998
20
497.751
0
VERTEX
8
L6D0
10
-3760.998
20
-500.749
0
VERTEX
8
L6D0
10
-3748.998
20
-500.749
0
VERTEX
8
L6D0
10
-3748.998
20
497.751
0
VERTEX
8
L6D0
10
-3744.998
20
497.751
0
VERTEX
8
L6D0
10
-3744.998
20
-500.749
0
VERTEX
8
L6D0
10
-3732.998
20
-500.749
0
VERTEX
8
L6D0
10
-3732.998
20
497.751
0
VERTEX
8
L6D0
10
-3728.998
20
497.751
0
VERTEX
8
L6D0
10
-3728.998
20
-500.749
0
VERTEX
8
L6D0
10
-3716.998
20
-500.749
0
VERTEX
8
L6D0
10
-3716.998
20
497.751
0
VERTEX
8
L6D0
10
-3712.998
20
497.751
0
VERTEX
8
L6D0
10
-3712.998
20
-500.749
0
VERTEX
8
L6D0
10
-3700.998
20
-500.749
0
VERTEX
8
L6D0
10
-3700.998
20
497.751
0
VERTEX
8
L6D0
10
-3696.998
20
497.751
0
VERTEX
8
L6D0
10
-3696.998
20
-500.749
0
VERTEX
8
L6D0
10
-3684.998
20
-500.749
0
VERTEX
8
L6D0
10
-3684.998
20
497.751
0
VERTEX
8
L6D0
10
-3680.998
20
497.751
0
VERTEX
8
L6D0
10
-3680.998
20
-500.749
0
VERTEX
8
L6D0
10
-3668.998
20
-500.749
0
VERTEX
8
L6D0
10
-3668.998
20
497.751
0
VERTEX
8
L6D0
10
-3664.998
20
497.751
0
VERTEX
8
L6D0
10
-3664.998
20
-500.749
0
VERTEX
8
L6D0
10
-3652.998
20
-500.749
0
VERTEX
8
L6D0
10
-3652.998
20
497.751
0
VERTEX
8
L6D0
10
-3648.998
20
497.751
0
VERTEX
8
L6D0
10
-3648.998
20
-500.749
0
VERTEX
8
L6D0
10
-3636.998
20
-500.749
0
VERTEX
8
L6D0
10
-3636.998
20
497.751
0
VERTEX
8
L6D0
10
-3632.998
20
497.751
0
VERTEX
8
L6D0
10
-3632.998
20
-500.749
0
VERTEX
8
L6D0
10
-3620.998
20
-500.749
0
VERTEX
8
L6D0
10
-3620.998
20
497.751
0
VERTEX
8
L6D0
10
-3616.998
20
497.751
0
VERTEX
8
L6D0
10
-3616.998
20
-500.749
0
VERTEX
8
L6D0
10
-3604.998
20
-500.749
0
VERTEX
8
L6D0
10
-3604.998
20
497.751
0
VERTEX
8
L6D0
10
-3600.998
20
497.751
0
VERTEX
8
L6D0
10
-3600.998
20
-500.749
0
VERTEX
8
L6D0
10
-3588.998
20
-500.749
0
VERTEX
8
L6D0
10
-3588.998
20
497.751
0
VERTEX
8
L6D0
10
-3584.998
20
497.751
0
VERTEX
8
L6D0
10
-3584.998
20
-500.749
0
VERTEX
8
L6D0
10
-3572.998
20
-500.749
0
VERTEX
8
L6D0
10
-3572.998
20
497.751
0
VERTEX
8
L6D0
10
-3568.998
20
497.751
0
VERTEX
8
L6D0
10
-3568.998
20
-500.749
0
VERTEX
8
L6D0
10
-3556.998
20
-500.749
0
VERTEX
8
L6D0
10
-3556.998
20
497.751
0
VERTEX
8
L6D0
10
-3552.998
20
497.751
0
VERTEX
8
L6D0
10
-3552.998
20
-500.749
0
VERTEX
8
L6D0
10
-3540.998
20
-500.749
0
VERTEX
8
L6D0
10
-3540.998
20
497.751
0
VERTEX
8
L6D0
10
-3536.998
20
497.751
0
VERTEX
8
L6D0
10
-3536.998
20
-500.749
0
VERTEX
8
L6D0
10
-3524.998
20
-500.749
0
VERTEX
8
L6D0
10
-3524.998
20
497.751
0
VERTEX
8
L6D0
10
-3520.998
20
497.751
0
VERTEX
8
L6D0
10
-3520.998
20
-500.749
0
VERTEX
8
L6D0
10
-3508.998
20
-500.749
0
VERTEX
8
L6D0
10
-3508.998
20
497.751
0
VERTEX
8
L6D0
10
-3504.998
20
497.751
0
VERTEX
8
L6D0
10
-3504.998
20
-500.749
0
VERTEX
8
L6D0
10
-3492.998
20
-500.749
0
VERTEX
8
L6D0
10
-3492.998
20
497.751
0
VERTEX
8
L6D0
10
-3488.998
20
497.751
0
VERTEX
8
L6D0
10
-3488.998
20
-500.749
0
VERTEX
8
L6D0
10
-3476.998
20
-500.749
0
VERTEX
8
L6D0
10
-3476.998
20
497.751
0
VERTEX
8
L6D0
10
-3472.998
20
497.751
0
VERTEX
8
L6D0
10
-3472.998
20
-500.749
0
VERTEX
8
L6D0
10
-3460.998
20
-500.749
0
VERTEX
8
L6D0
10
-3460.998
20
497.751
0
VERTEX
8
L6D0
10
-3456.998
20
497.751
0
VERTEX
8
L6D0
10
-3456.998
20
-500.749
0
VERTEX
8
L6D0
10
-3444.998
20
-500.749
0
VERTEX
8
L6D0
10
-3444.998
20
497.751
0
VERTEX
8
L6D0
10
-3440.998
20
497.751
0
VERTEX
8
L6D0
10
-3440.998
20
-500.749
0
VERTEX
8
L6D0
10
-3428.998
20
-500.749
0
VERTEX
8
L6D0
10
-3428.998
20
497.751
0
VERTEX
8
L6D0
10
-3424.998
20
497.751
0
VERTEX
8
L6D0
10
-3424.998
20
-500.749
0
VERTEX
8
L6D0
10
-3412.998
20
-500.749
0
VERTEX
8
L6D0
10
-3412.998
20
497.751
0
VERTEX
8
L6D0
10
-3408.998
20
497.751
0
VERTEX
8
L6D0
10
-3408.998
20
-500.749
0
VERTEX
8
L6D0
10
-3396.998
20
-500.749
0
VERTEX
8
L6D0
10
-3396.998
20
497.751
0
VERTEX
8
L6D0
10
-3392.998
20
497.751
0
VERTEX
8
L6D0
10
-3392.998
20
-500.749
0
VERTEX
8
L6D0
10
-3380.998
20
-500.749
0
VERTEX
8
L6D0
10
-3380.998
20
497.751
0
VERTEX
8
L6D0
10
-3376.998
20
497.751
0
VERTEX
8
L6D0
10
-3376.998
20
-500.749
0
VERTEX
8
L6D0
10
-3364.998
20
-500.749
0
VERTEX
8
L6D0
10
-3364.998
20
497.751
0
VERTEX
8
L6D0
10
-3360.998
20
497.751
0
VERTEX
8
L6D0
10
-3360.998
20
-500.749
0
VERTEX
8
L6D0
10
-3348.998
20
-500.749
0
VERTEX
8
L6D0
10
-3348.998
20
497.751
0
VERTEX
8
L6D0
10
-3344.998
20
497.751
0
VERTEX
8
L6D0
10
-3344.998
20
-500.749
0
VERTEX
8
L6D0
10
-3332.998
20
-500.749
0
VERTEX
8
L6D0
10
-3332.998
20
497.751
0
VERTEX
8
L6D0
10
-3328.998
20
497.751
0
VERTEX
8
L6D0
10
-3328.998
20
-500.749
0
VERTEX
8
L6D0
10
-3316.998
20
-500.749
0
VERTEX
8
L6D0
10
-3316.998
20
497.751
0
VERTEX
8
L6D0
10
-3312.998
20
497.751
0
VERTEX
8
L6D0
10
-3312.998
20
-500.749
0
VERTEX
8
L6D0
10
-3300.998
20
-500.749
0
VERTEX
8
L6D0
10
-3300.998
20
497.751
0
VERTEX
8
L6D0
10
-3296.998
20
497.751
0
VERTEX
8
L6D0
10
-3296.998
20
-500.749
0
VERTEX
8
L6D0
10
-3284.998
20
-500.749
0
VERTEX
8
L6D0
10
-3284.998
20
497.751
0
VERTEX
8
L6D0
10
-3280.998
20
497.751
0
VERTEX
8
L6D0
10
-3280.998
20
-500.749
0
VERTEX
8
L6D0
10
-3268.998
20
-500.749
0
VERTEX
8
L6D0
10
-3268.998
20
497.751
0
VERTEX
8
L6D0
10
-3264.998
20
497.751
0
VERTEX
8
L6D0
10
-3264.998
20
-500.749
0
VERTEX
8
L6D0
10
-3252.998
20
-500.749
0
VERTEX
8
L6D0
10
-3252.998
20
497.751
0
VERTEX
8
L6D0
10
-3248.998
20
497.751
0
VERTEX
8
L6D0
10
-3248.998
20
-500.749
0
VERTEX
8
L6D0
10
-3236.998
20
-500.749
0
VERTEX
8
L6D0
10
-3236.998
20
497.751
0
VERTEX
8
L6D0
10
-3232.998
20
497.751
0
VERTEX
8
L6D0
10
-3232.998
20
-500.749
0
VERTEX
8
L6D0
10
-3220.998
20
-500.749
0
VERTEX
8
L6D0
10
-3220.998
20
497.751
0
VERTEX
8
L6D0
10
-3216.998
20
497.751
0
VERTEX
8
L6D0
10
-3216.998
20
-500.749
0
VERTEX
8
L6D0
10
-3204.998
20
-500.749
0
VERTEX
8
L6D0
10
-3204.998
20
497.751
0
VERTEX
8
L6D0
10
-3200.998
20
497.751
0
VERTEX
8
L6D0
10
-3200.998
20
-500.749
0
VERTEX
8
L6D0
10
-3188.998
20
-500.749
0
VERTEX
8
L6D0
10
-3188.998
20
497.751
0
VERTEX
8
L6D0
10
-3184.998
20
497.751
0
VERTEX
8
L6D0
10
-3184.998
20
-500.749
0
VERTEX
8
L6D0
10
-3172.998
20
-500.749
0
VERTEX
8
L6D0
10
-3172.998
20
497.751
0
VERTEX
8
L6D0
10
-3168.998
20
497.751
0
VERTEX
8
L6D0
10
-3168.998
20
-500.749
0
VERTEX
8
L6D0
10
-3156.998
20
-500.749
0
VERTEX
8
L6D0
10
-3156.998
20
497.751
0
VERTEX
8
L6D0
10
-3152.998
20
497.751
0
VERTEX
8
L6D0
10
-3152.998
20
-500.749
0
VERTEX
8
L6D0
10
-3140.998
20
-500.749
0
VERTEX
8
L6D0
10
-3140.998
20
497.751
0
VERTEX
8
L6D0
10
-3136.998
20
497.751
0
VERTEX
8
L6D0
10
-3136.998
20
-500.749
0
VERTEX
8
L6D0
10
-3124.998
20
-500.749
0
VERTEX
8
L6D0
10
-3124.998
20
497.751
0
VERTEX
8
L6D0
10
-3120.998
20
497.751
0
VERTEX
8
L6D0
10
-3120.998
20
-500.749
0
VERTEX
8
L6D0
10
-3108.998
20
-500.749
0
VERTEX
8
L6D0
10
-3108.998
20
497.751
0
VERTEX
8
L6D0
10
-3104.998
20
497.751
0
VERTEX
8
L6D0
10
-3104.998
20
-500.749
0
VERTEX
8
L6D0
10
-3092.998
20
-500.749
0
VERTEX
8
L6D0
10
-3092.998
20
497.751
0
VERTEX
8
L6D0
10
-3088.998
20
497.751
0
VERTEX
8
L6D0
10
-3088.998
20
-500.749
0
VERTEX
8
L6D0
10
-3076.998
20
-500.749
0
VERTEX
8
L6D0
10
-3076.998
20
497.751
0
VERTEX
8
L6D0
10
-3072.998
20
497.751
0
VERTEX
8
L6D0
10
-3072.998
20
-500.749
0
VERTEX
8
L6D0
10
-3060.998
20
-500.749
0
VERTEX
8
L6D0
10
-3060.998
20
497.751
0
VERTEX
8
L6D0
10
-3056.998
20
497.751
0
VERTEX
8
L6D0
10
-3056.998
20
-500.749
0
VERTEX
8
L6D0
10
-3044.998
20
-500.749
0
VERTEX
8
L6D0
10
-3044.998
20
497.751
0
VERTEX
8
L6D0
10
-3040.998
20
497.751
0
VERTEX
8
L6D0
10
-3040.998
20
-500.749
0
VERTEX
8
L6D0
10
-3028.998
20
-500.749
0
VERTEX
8
L6D0
10
-3028.998
20
497.751
0
VERTEX
8
L6D0
10
-3024.998
20
497.751
0
VERTEX
8
L6D0
10
-3024.998
20
-500.749
0
VERTEX
8
L6D0
10
-3012.998
20
-500.749
0
VERTEX
8
L6D0
10
-3012.998
20
497.751
0
VERTEX
8
L6D0
10
-3008.998
20
497.751
0
VERTEX
8
L6D0
10
-3008.998
20
-500.749
0
VERTEX
8
L6D0
10
-2996.998
20
-500.749
0
VERTEX
8
L6D0
10
-2996.998
20
497.751
0
VERTEX
8
L6D0
10
-2992.998
20
497.751
0
VERTEX
8
L6D0
10
-2992.998
20
-500.749
0
VERTEX
8
L6D0
10
-2980.998
20
-500.749
0
VERTEX
8
L6D0
10
-2980.998
20
497.751
0
VERTEX
8
L6D0
10
-2976.998
20
497.751
0
VERTEX
8
L6D0
10
-2976.998
20
-500.749
0
VERTEX
8
L6D0
10
-2964.998
20
-500.749
0
VERTEX
8
L6D0
10
-2964.998
20
497.751
0
VERTEX
8
L6D0
10
-2960.998
20
497.751
0
VERTEX
8
L6D0
10
-2960.998
20
-500.749
0
VERTEX
8
L6D0
10
-2948.998
20
-500.749
0
VERTEX
8
L6D0
10
-2948.998
20
497.751
0
VERTEX
8
L6D0
10
-2944.998
20
497.751
0
VERTEX
8
L6D0
10
-2944.998
20
-500.749
0
VERTEX
8
L6D0
10
-2932.998
20
-500.749
0
VERTEX
8
L6D0
10
-2932.998
20
497.751
0
VERTEX
8
L6D0
10
-2928.998
20
497.751
0
VERTEX
8
L6D0
10
-2928.998
20
-500.749
0
VERTEX
8
L6D0
10
-2916.998
20
-500.749
0
VERTEX
8
L6D0
10
-2916.998
20
497.751
0
VERTEX
8
L6D0
10
-2912.998
20
497.751
0
VERTEX
8
L6D0
10
-2912.998
20
-500.749
0
VERTEX
8
L6D0
10
-2900.998
20
-500.749
0
VERTEX
8
L6D0
10
-2900.998
20
497.751
0
VERTEX
8
L6D0
10
-2896.998
20
497.751
0
VERTEX
8
L6D0
10
-2896.998
20
-500.749
0
VERTEX
8
L6D0
10
-2884.998
20
-500.749
0
VERTEX
8
L6D0
10
-2884.998
20
497.751
0
VERTEX
8
L6D0
10
-2880.998
20
497.751
0
VERTEX
8
L6D0
10
-2880.998
20
-500.749
0
VERTEX
8
L6D0
10
-2868.998
20
-500.749
0
VERTEX
8
L6D0
10
-2868.998
20
497.751
0
VERTEX
8
L6D0
10
-2864.998
20
497.751
0
VERTEX
8
L6D0
10
-2864.998
20
-500.749
0
VERTEX
8
L6D0
10
-2852.998
20
-500.749
0
VERTEX
8
L6D0
10
-2852.998
20
497.751
0
VERTEX
8
L6D0
10
-2848.998
20
497.751
0
VERTEX
8
L6D0
10
-2848.998
20
-500.749
0
VERTEX
8
L6D0
10
-2836.998
20
-500.749
0
VERTEX
8
L6D0
10
-2836.998
20
497.751
0
VERTEX
8
L6D0
10
-2832.998
20
497.751
0
VERTEX
8
L6D0
10
-2832.998
20
-500.749
0
VERTEX
8
L6D0
10
-2820.998
20
-500.749
0
VERTEX
8
L6D0
10
-2820.998
20
497.751
0
VERTEX
8
L6D0
10
-2816.998
20
497.751
0
VERTEX
8
L6D0
10
-2816.998
20
-500.749
0
VERTEX
8
L6D0
10
-2804.998
20
-500.749
0
VERTEX
8
L6D0
10
-2804.998
20
497.751
0
VERTEX
8
L6D0
10
-2800.998
20
497.751
0
VERTEX
8
L6D0
10
-2800.998
20
-500.749
0
VERTEX
8
L6D0
10
-2788.998
20
-500.749
0
VERTEX
8
L6D0
10
-2788.998
20
497.751
0
VERTEX
8
L6D0
10
-2784.998
20
497.751
0
VERTEX
8
L6D0
10
-2784.998
20
-500.749
0
VERTEX
8
L6D0
10
-2772.998
20
-500.749
0
VERTEX
8
L6D0
10
-2772.998
20
497.751
0
VERTEX
8
L6D0
10
-2768.998
20
497.751
0
VERTEX
8
L6D0
10
-2768.998
20
-500.749
0
VERTEX
8
L6D0
10
-2756.998
20
-500.749
0
VERTEX
8
L6D0
10
-2756.998
20
497.751
0
VERTEX
8
L6D0
10
-2752.998
20
497.751
0
VERTEX
8
L6D0
10
-2752.998
20
-500.749
0
VERTEX
8
L6D0
10
-2740.998
20
-500.749
0
VERTEX
8
L6D0
10
-2740.998
20
497.751
0
VERTEX
8
L6D0
10
-2736.998
20
497.751
0
VERTEX
8
L6D0
10
-2736.998
20
-500.749
0
VERTEX
8
L6D0
10
-2724.998
20
-500.749
0
VERTEX
8
L6D0
10
-2724.998
20
497.751
0
VERTEX
8
L6D0
10
-2720.998
20
497.751
0
VERTEX
8
L6D0
10
-2720.998
20
-500.749
0
VERTEX
8
L6D0
10
-2708.998
20
-500.749
0
VERTEX
8
L6D0
10
-2708.998
20
497.751
0
VERTEX
8
L6D0
10
-2704.998
20
497.751
0
VERTEX
8
L6D0
10
-2704.998
20
-500.749
0
VERTEX
8
L6D0
10
-2692.998
20
-500.749
0
VERTEX
8
L6D0
10
-2692.998
20
497.751
0
VERTEX
8
L6D0
10
-2688.998
20
497.751
0
VERTEX
8
L6D0
10
-2688.998
20
-500.749
0
VERTEX
8
L6D0
10
-2676.998
20
-500.749
0
VERTEX
8
L6D0
10
-2676.998
20
497.751
0
VERTEX
8
L6D0
10
-2672.998
20
497.751
0
VERTEX
8
L6D0
10
-2672.998
20
-500.749
0
VERTEX
8
L6D0
10
-2660.998
20
-500.749
0
VERTEX
8
L6D0
10
-2660.998
20
497.751
0
VERTEX
8
L6D0
10
-2656.998
20
497.751
0
VERTEX
8
L6D0
10
-2656.998
20
-500.749
0
VERTEX
8
L6D0
10
-2644.998
20
-500.749
0
VERTEX
8
L6D0
10
-2644.998
20
497.751
0
VERTEX
8
L6D0
10
-2640.998
20
497.751
0
VERTEX
8
L6D0
10
-2640.998
20
-500.749
0
VERTEX
8
L6D0
10
-2628.998
20
-500.749
0
VERTEX
8
L6D0
10
-2628.998
20
497.751
0
VERTEX
8
L6D0
10
-2624.998
20
497.751
0
VERTEX
8
L6D0
10
-2624.998
20
-500.749
0
VERTEX
8
L6D0
10
-2612.998
20
-500.749
0
VERTEX
8
L6D0
10
-2612.998
20
497.751
0
VERTEX
8
L6D0
10
-2608.998
20
497.751
0
VERTEX
8
L6D0
10
-2608.998
20
-500.749
0
VERTEX
8
L6D0
10
-2596.998
20
-500.749
0
VERTEX
8
L6D0
10
-2596.998
20
497.751
0
VERTEX
8
L6D0
10
-2592.998
20
497.751
0
VERTEX
8
L6D0
10
-2592.998
20
-500.749
0
VERTEX
8
L6D0
10
-2580.998
20
-500.749
0
VERTEX
8
L6D0
10
-2580.998
20
497.751
0
VERTEX
8
L6D0
10
-2576.998
20
497.751
0
VERTEX
8
L6D0
10
-2576.998
20
-500.749
0
VERTEX
8
L6D0
10
-2564.998
20
-500.749
0
VERTEX
8
L6D0
10
-2564.998
20
497.751
0
VERTEX
8
L6D0
10
-2560.998
20
497.751
0
VERTEX
8
L6D0
10
-2560.998
20
-500.749
0
VERTEX
8
L6D0
10
-2548.998
20
-500.749
0
VERTEX
8
L6D0
10
-2548.998
20
497.751
0
VERTEX
8
L6D0
10
-2544.998
20
497.751
0
VERTEX
8
L6D0
10
-2544.998
20
-500.749
0
VERTEX
8
L6D0
10
-2532.998
20
-500.749
0
VERTEX
8
L6D0
10
-2532.998
20
497.751
0
VERTEX
8
L6D0
10
-2528.998
20
497.751
0
VERTEX
8
L6D0
10
-2528.998
20
-500.749
0
VERTEX
8
L6D0
10
-2516.998
20
-500.749
0
VERTEX
8
L6D0
10
-2516.998
20
497.751
0
VERTEX
8
L6D0
10
-2512.998
20
497.751
0
VERTEX
8
L6D0
10
-2512.998
20
-500.749
0
VERTEX
8
L6D0
10
-2500.998
20
-500.749
0
VERTEX
8
L6D0
10
-2500.998
20
497.751
0
VERTEX
8
L6D0
10
-2496.998
20
497.751
0
VERTEX
8
L6D0
10
-2496.998
20
-500.749
0
VERTEX
8
L6D0
10
-2484.998
20
-500.749
0
VERTEX
8
L6D0
10
-2484.998
20
497.751
0
VERTEX
8
L6D0
10
-2480.998
20
497.751
0
VERTEX
8
L6D0
10
-2480.998
20
-500.749
0
VERTEX
8
L6D0
10
-2468.998
20
-500.749
0
VERTEX
8
L6D0
10
-2468.998
20
497.751
0
VERTEX
8
L6D0
10
-2464.998
20
497.751
0
VERTEX
8
L6D0
10
-2464.998
20
-500.749
0
VERTEX
8
L6D0
10
-2452.998
20
-500.749
0
VERTEX
8
L6D0
10
-2452.998
20
497.751
0
VERTEX
8
L6D0
10
-2448.998
20
497.751
0
VERTEX
8
L6D0
10
-2448.998
20
-500.749
0
VERTEX
8
L6D0
10
-2436.998
20
-500.749
0
VERTEX
8
L6D0
10
-2436.998
20
497.751
0
VERTEX
8
L6D0
10
-2432.998
20
497.751
0
VERTEX
8
L6D0
10
-2432.998
20
-500.749
0
VERTEX
8
L6D0
10
-2420.998
20
-500.749
0
VERTEX
8
L6D0
10
-2420.998
20
497.751
0
VERTEX
8
L6D0
10
-2416.998
20
497.751
0
VERTEX
8
L6D0
10
-2416.998
20
-500.749
0
VERTEX
8
L6D0
10
-2404.998
20
-500.749
0
VERTEX
8
L6D0
10
-2404.998
20
497.751
0
VERTEX
8
L6D0
10
-2400.998
20
497.751
0
VERTEX
8
L6D0
10
-2400.998
20
-500.749
0
VERTEX
8
L6D0
10
-2388.998
20
-500.749
0
VERTEX
8
L6D0
10
-2388.998
20
497.751
0
VERTEX
8
L6D0
10
-2384.998
20
497.751
0
VERTEX
8
L6D0
10
-2384.998
20
-500.749
0
VERTEX
8
L6D0
10
-2372.998
20
-500.749
0
VERTEX
8
L6D0
10
-2372.998
20
497.751
0
VERTEX
8
L6D0
10
-2368.998
20
497.751
0
VERTEX
8
L6D0
10
-2368.998
20
-500.749
0
VERTEX
8
L6D0
10
-2360.998
20
-500.749
0
VERTEX
8
L6D0
10
-2360.998
20
497.751
0
VERTEX
8
L6D0
10
-2356.998
20
497.751
0
VERTEX
8
L6D0
10
-2356.998
20
-500.749
0
VERTEX
8
L6D0
10
-2344.998
20
-500.749
0
VERTEX
8
L6D0
10
-2344.998
20
497.751
0
VERTEX
8
L6D0
10
-2340.998
20
497.751
0
VERTEX
8
L6D0
10
-2340.998
20
-500.749
0
VERTEX
8
L6D0
10
-2328.998
20
-500.749
0
VERTEX
8
L6D0
10
-2328.998
20
497.751
0
VERTEX
8
L6D0
10
-2324.998
20
497.751
0
VERTEX
8
L6D0
10
-2324.998
20
-500.749
0
VERTEX
8
L6D0
10
-2312.998
20
-500.749
0
VERTEX
8
L6D0
10
-2312.998
20
497.751
0
VERTEX
8
L6D0
10
-2308.998
20
497.751
0
VERTEX
8
L6D0
10
-2308.998
20
-500.749
0
VERTEX
8
L6D0
10
-2296.998
20
-500.749
0
VERTEX
8
L6D0
10
-2296.998
20
497.751
0
VERTEX
8
L6D0
10
-2292.998
20
497.751
0
VERTEX
8
L6D0
10
-2292.998
20
-500.749
0
VERTEX
8
L6D0
10
-2280.998
20
-500.749
0
VERTEX
8
L6D0
10
-2280.998
20
497.751
0
VERTEX
8
L6D0
10
-2276.998
20
497.751
0
VERTEX
8
L6D0
10
-2276.998
20
-500.749
0
VERTEX
8
L6D0
10
-2264.998
20
-500.749
0
VERTEX
8
L6D0
10
-2264.998
20
497.751
0
VERTEX
8
L6D0
10
-2260.998
20
497.751
0
VERTEX
8
L6D0
10
-2260.998
20
-500.749
0
VERTEX
8
L6D0
10
-2248.998
20
-500.749
0
VERTEX
8
L6D0
10
-2248.998
20
497.751
0
VERTEX
8
L6D0
10
-2244.998
20
497.751
0
VERTEX
8
L6D0
10
-2244.998
20
-500.749
0
VERTEX
8
L6D0
10
-2232.998
20
-500.749
0
VERTEX
8
L6D0
10
-2232.998
20
497.751
0
VERTEX
8
L6D0
10
-2228.998
20
497.751
0
VERTEX
8
L6D0
10
-2228.998
20
-500.749
0
VERTEX
8
L6D0
10
-2216.998
20
-500.749
0
VERTEX
8
L6D0
10
-2216.998
20
497.751
0
VERTEX
8
L6D0
10
-2212.998
20
497.751
0
VERTEX
8
L6D0
10
-2212.998
20
-500.749
0
VERTEX
8
L6D0
10
-2200.998
20
-500.749
0
VERTEX
8
L6D0
10
-2200.998
20
497.751
0
VERTEX
8
L6D0
10
-2196.998
20
497.751
0
VERTEX
8
L6D0
10
-2196.998
20
-500.749
0
VERTEX
8
L6D0
10
-2184.998
20
-500.749
0
VERTEX
8
L6D0
10
-2184.998
20
497.751
0
VERTEX
8
L6D0
10
-2180.998
20
497.751
0
VERTEX
8
L6D0
10
-2180.998
20
-500.749
0
VERTEX
8
L6D0
10
-2168.998
20
-500.749
0
VERTEX
8
L6D0
10
-2168.998
20
497.751
0
VERTEX
8
L6D0
10
-2164.998
20
497.751
0
VERTEX
8
L6D0
10
-2164.998
20
-500.749
0
VERTEX
8
L6D0
10
-2152.998
20
-500.749
0
VERTEX
8
L6D0
10
-2152.998
20
497.751
0
VERTEX
8
L6D0
10
-2148.998
20
497.751
0
VERTEX
8
L6D0
10
-2148.998
20
-500.749
0
VERTEX
8
L6D0
10
-2136.998
20
-500.749
0
VERTEX
8
L6D0
10
-2136.998
20
497.751
0
VERTEX
8
L6D0
10
-2132.998
20
497.751
0
VERTEX
8
L6D0
10
-2132.998
20
-500.749
0
VERTEX
8
L6D0
10
-2120.998
20
-500.749
0
VERTEX
8
L6D0
10
-2120.998
20
497.751
0
VERTEX
8
L6D0
10
-2116.998
20
497.751
0
VERTEX
8
L6D0
10
-2116.998
20
-500.749
0
VERTEX
8
L6D0
10
-2104.998
20
-500.749
0
VERTEX
8
L6D0
10
-2104.998
20
497.751
0
VERTEX
8
L6D0
10
-2100.998
20
497.751
0
VERTEX
8
L6D0
10
-2100.998
20
-500.749
0
VERTEX
8
L6D0
10
-2088.998
20
-500.749
0
VERTEX
8
L6D0
10
-2088.998
20
497.751
0
VERTEX
8
L6D0
10
-2084.998
20
497.751
0
VERTEX
8
L6D0
10
-2084.998
20
-500.749
0
VERTEX
8
L6D0
10
-2072.998
20
-500.749
0
VERTEX
8
L6D0
10
-2072.998
20
497.751
0
VERTEX
8
L6D0
10
-2068.998
20
497.751
0
VERTEX
8
L6D0
10
-2068.998
20
-500.749
0
VERTEX
8
L6D0
10
-2056.998
20
-500.749
0
VERTEX
8
L6D0
10
-2056.998
20
497.751
0
VERTEX
8
L6D0
10
-2052.998
20
497.751
0
VERTEX
8
L6D0
10
-2052.998
20
-500.749
0
VERTEX
8
L6D0
10
-2040.998
20
-500.749
0
VERTEX
8
L6D0
10
-2040.998
20
497.751
0
VERTEX
8
L6D0
10
-2036.998
20
497.751
0
VERTEX
8
L6D0
10
-2036.998
20
-500.749
0
VERTEX
8
L6D0
10
-2024.998
20
-500.749
0
VERTEX
8
L6D0
10
-2024.998
20
497.751
0
VERTEX
8
L6D0
10
-2020.998
20
497.751
0
VERTEX
8
L6D0
10
-2020.998
20
-500.749
0
VERTEX
8
L6D0
10
-2008.998
20
-500.749
0
VERTEX
8
L6D0
10
-2008.998
20
497.751
0
VERTEX
8
L6D0
10
-2004.998
20
497.751
0
VERTEX
8
L6D0
10
-2004.998
20
-500.749
0
VERTEX
8
L6D0
10
-1992.998
20
-500.749
0
VERTEX
8
L6D0
10
-1992.998
20
497.751
0
VERTEX
8
L6D0
10
-1988.998
20
497.751
0
VERTEX
8
L6D0
10
-1988.998
20
-525.749
0
VERTEX
8
L6D0
10
-2738
20
-525.749
0
VERTEX
8
L6D0
10
-2738
20
-602.749
0
VERTEX
8
L6D0
10
-2742
20
-602.749
0
VERTEX
8
L6D0
10
-2742
20
-525.749
0
VERTEX
8
L6D0
10
-2754
20
-525.749
0
VERTEX
8
L6D0
10
-2754
20
-602.749
0
VERTEX
8
L6D0
10
-2758
20
-602.749
0
VERTEX
8
L6D0
10
-2758
20
-525.749
0
VERTEX
8
L6D0
10
-2770
20
-525.749
0
VERTEX
8
L6D0
10
-2770
20
-602.749
0
VERTEX
8
L6D0
10
-2774
20
-602.749
0
VERTEX
8
L6D0
10
-2774
20
-525.749
0
VERTEX
8
L6D0
10
-2786
20
-525.749
0
VERTEX
8
L6D0
10
-2786
20
-602.749
0
VERTEX
8
L6D0
10
-2790
20
-602.749
0
VERTEX
8
L6D0
10
-2790
20
-525.749
0
VERTEX
8
L6D0
10
-2802
20
-525.749
0
VERTEX
8
L6D0
10
-2802
20
-602.749
0
VERTEX
8
L6D0
10
-2806
20
-602.749
0
VERTEX
8
L6D0
10
-2806
20
-525.749
0
VERTEX
8
L6D0
10
-2818
20
-525.749
0
VERTEX
8
L6D0
10
-2818
20
-602.749
0
VERTEX
8
L6D0
10
-2822
20
-602.749
0
VERTEX
8
L6D0
10
-2822
20
-525.749
0
VERTEX
8
L6D0
10
-2834
20
-525.749
0
VERTEX
8
L6D0
10
-2834
20
-602.749
0
VERTEX
8
L6D0
10
-2838
20
-602.749
0
VERTEX
8
L6D0
10
-2838
20
-525.749
0
VERTEX
8
L6D0
10
-2850
20
-525.749
0
VERTEX
8
L6D0
10
-2850
20
-602.749
0
VERTEX
8
L6D0
10
-2854
20
-602.749
0
VERTEX
8
L6D0
10
-2854
20
-525.749
0
VERTEX
8
L6D0
10
-2866
20
-525.749
0
VERTEX
8
L6D0
10
-2866
20
-602.749
0
VERTEX
8
L6D0
10
-2870
20
-602.749
0
VERTEX
8
L6D0
10
-2870
20
-525.749
0
VERTEX
8
L6D0
10
-2882
20
-525.749
0
VERTEX
8
L6D0
10
-2882
20
-602.749
0
VERTEX
8
L6D0
10
-2886
20
-602.749
0
VERTEX
8
L6D0
10
-2886
20
-525.749
0
VERTEX
8
L6D0
10
-2898
20
-525.749
0
VERTEX
8
L6D0
10
-2898
20
-602.749
0
VERTEX
8
L6D0
10
-2902
20
-602.749
0
VERTEX
8
L6D0
10
-2902
20
-525.749
0
VERTEX
8
L6D0
10
-2914
20
-525.749
0
VERTEX
8
L6D0
10
-2914
20
-602.749
0
VERTEX
8
L6D0
10
-2918
20
-602.749
0
VERTEX
8
L6D0
10
-2918
20
-525.749
0
VERTEX
8
L6D0
10
-2930
20
-525.749
0
VERTEX
8
L6D0
10
-2930
20
-602.749
0
VERTEX
8
L6D0
10
-2934
20
-602.749
0
VERTEX
8
L6D0
10
-2934
20
-525.749
0
VERTEX
8
L6D0
10
-2946
20
-525.749
0
VERTEX
8
L6D0
10
-2946
20
-602.749
0
VERTEX
8
L6D0
10
-2950
20
-602.749
0
VERTEX
8
L6D0
10
-2950
20
-525.749
0
VERTEX
8
L6D0
10
-2962
20
-525.749
0
VERTEX
8
L6D0
10
-2962
20
-602.749
0
VERTEX
8
L6D0
10
-2966
20
-602.749
0
VERTEX
8
L6D0
10
-2966
20
-525.749
0
VERTEX
8
L6D0
10
-2978
20
-525.749
0
VERTEX
8
L6D0
10
-2978
20
-602.749
0
VERTEX
8
L6D0
10
-2982
20
-602.749
0
VERTEX
8
L6D0
10
-2982
20
-525.749
0
VERTEX
8
L6D0
10
-2994
20
-525.749
0
VERTEX
8
L6D0
10
-2994
20
-602.749
0
VERTEX
8
L6D0
10
-2998
20
-602.749
0
VERTEX
8
L6D0
10
-2998
20
-525.749
0
VERTEX
8
L6D0
10
-3010
20
-525.749
0
VERTEX
8
L6D0
10
-3010
20
-602.749
0
VERTEX
8
L6D0
10
-3014
20
-602.749
0
VERTEX
8
L6D0
10
-3014
20
-525.749
0
VERTEX
8
L6D0
10
-3026
20
-525.749
0
VERTEX
8
L6D0
10
-3026
20
-602.749
0
VERTEX
8
L6D0
10
-3030
20
-602.749
0
VERTEX
8
L6D0
10
-3030
20
-525.749
0
VERTEX
8
L6D0
10
-3042
20
-525.749
0
VERTEX
8
L6D0
10
-3042
20
-602.749
0
VERTEX
8
L6D0
10
-3046
20
-602.749
0
VERTEX
8
L6D0
10
-3046
20
-525.749
0
VERTEX
8
L6D0
10
-3058
20
-525.749
0
VERTEX
8
L6D0
10
-3058
20
-602.749
0
VERTEX
8
L6D0
10
-3062
20
-602.749
0
VERTEX
8
L6D0
10
-3062
20
-525.749
0
VERTEX
8
L6D0
10
-3074
20
-525.749
0
VERTEX
8
L6D0
10
-3074
20
-602.749
0
VERTEX
8
L6D0
10
-3078
20
-602.749
0
VERTEX
8
L6D0
10
-3078
20
-525.749
0
VERTEX
8
L6D0
10
-3090
20
-525.749
0
VERTEX
8
L6D0
10
-3090
20
-602.749
0
VERTEX
8
L6D0
10
-3094
20
-602.749
0
VERTEX
8
L6D0
10
-3094
20
-525.749
0
VERTEX
8
L6D0
10
-3106
20
-525.749
0
VERTEX
8
L6D0
10
-3106
20
-602.749
0
VERTEX
8
L6D0
10
-3110
20
-602.749
0
VERTEX
8
L6D0
10
-3110
20
-525.749
0
VERTEX
8
L6D0
10
-3122
20
-525.749
0
VERTEX
8
L6D0
10
-3122
20
-602.749
0
VERTEX
8
L6D0
10
-3126
20
-602.749
0
VERTEX
8
L6D0
10
-3126
20
-525.749
0
VERTEX
8
L6D0
10
-3138
20
-525.749
0
VERTEX
8
L6D0
10
-3138
20
-602.749
0
VERTEX
8
L6D0
10
-3142
20
-602.749
0
VERTEX
8
L6D0
10
-3142
20
-525.749
0
VERTEX
8
L6D0
10
-3154
20
-525.749
0
VERTEX
8
L6D0
10
-3154
20
-602.749
0
VERTEX
8
L6D0
10
-3158
20
-602.749
0
VERTEX
8
L6D0
10
-3158
20
-525.749
0
VERTEX
8
L6D0
10
-3170
20
-525.749
0
VERTEX
8
L6D0
10
-3170
20
-602.749
0
VERTEX
8
L6D0
10
-3174
20
-602.749
0
VERTEX
8
L6D0
10
-3174
20
-525.749
0
VERTEX
8
L6D0
10
-3186
20
-525.749
0
VERTEX
8
L6D0
10
-3186
20
-602.749
0
VERTEX
8
L6D0
10
-3190
20
-602.749
0
VERTEX
8
L6D0
10
-3190
20
-525.749
0
VERTEX
8
L6D0
10
-3202
20
-525.749
0
VERTEX
8
L6D0
10
-3202
20
-602.749
0
VERTEX
8
L6D0
10
-3206
20
-602.749
0
VERTEX
8
L6D0
10
-3206
20
-525.749
0
VERTEX
8
L6D0
10
-3218
20
-525.749
0
VERTEX
8
L6D0
10
-3218
20
-602.749
0
VERTEX
8
L6D0
10
-3222
20
-602.749
0
VERTEX
8
L6D0
10
-3222
20
-525.749
0
VERTEX
8
L6D0
10
-3234
20
-525.749
0
VERTEX
8
L6D0
10
-3234
20
-602.749
0
VERTEX
8
L6D0
10
-3238
20
-602.749
0
VERTEX
8
L6D0
10
-3238
20
-525.749
0
VERTEX
8
L6D0
10
-3250
20
-525.749
0
VERTEX
8
L6D0
10
-3250
20
-602.749
0
VERTEX
8
L6D0
10
-3254
20
-602.749
0
VERTEX
8
L6D0
10
-3254
20
-525.749
0
VERTEX
8
L6D0
10
-3266
20
-525.749
0
VERTEX
8
L6D0
10
-3266
20
-602.749
0
SEQEND
0
POLYLINE
8
L6D0
70
1
40
0
41
0
66
1
0
VERTEX
8
L6D0
10
-3964.998
20
-497.749
0
VERTEX
8
L6D0
10
-3964.998
20
500.751
0
VERTEX
8
L6D0
10
-3985.498
20
500.751
0
VERTEX
8
L6D0
10
-3985.498
20
1.001
0
VERTEX
8
L6D0
10
-4010.498
20
1.001
0
VERTEX
8
L6D0
10
-4010.498
20
525.751
0
VERTEX
8
L6D0
10
-3278
20
525.751
0
VERTEX
8
L6D0
10
-3278
20
602.751
0
VERTEX
8
L6D0
10
-3274
20
602.751
0
VERTEX
8
L6D0
10
-3274
20
525.751
0
VERTEX
8
L6D0
10
-3262
20
525.751
0
VERTEX
8
L6D0
10
-3262
20
602.751
0
VERTEX
8
L6D0
10
-3258
20
602.751
0
VERTEX
8
L6D0
10
-3258
20
525.751
0
VERTEX
8
L6D0
10
-3246
20
525.751
0
VERTEX
8
L6D0
10
-3246
20
602.751
0
VERTEX
8
L6D0
10
-3242
20
602.751
0
VERTEX
8
L6D0
10
-3242
20
525.751
0
VERTEX
8
L6D0
10
-3230
20
525.751
0
VERTEX
8
L6D0
10
-3230
20
602.751
0
VERTEX
8
L6D0
10
-3226
20
602.751
0
VERTEX
8
L6D0
10
-3226
20
525.751
0
VERTEX
8
L6D0
10
-3214
20
525.751
0
VERTEX
8
L6D0
10
-3214
20
602.751
0
VERTEX
8
L6D0
10
-3210
20
602.751
0
VERTEX
8
L6D0
10
-3210
20
525.751
0
VERTEX
8
L6D0
10
-3198
20
525.751
0
VERTEX
8
L6D0
10
-3198
20
602.751
0
VERTEX
8
L6D0
10
-3194
20
602.751
0
VERTEX
8
L6D0
10
-3194
20
525.751
0
VERTEX
8
L6D0
10
-3182
20
525.751
0
VERTEX
8
L6D0
10
-3182
20
602.751
0
VERTEX
8
L6D0
10
-3178
20
602.751
0
VERTEX
8
L6D0
10
-3178
20
525.751
0
VERTEX
8
L6D0
10
-3166
20
525.751
0
VERTEX
8
L6D0
10
-3166
20
602.751
0
VERTEX
8
L6D0
10
-3162
20
602.751
0
VERTEX
8
L6D0
10
-3162
20
525.751
0
VERTEX
8
L6D0
10
-3150
20
525.751
0
VERTEX
8
L6D0
10
-3150
20
602.751
0
VERTEX
8
L6D0
10
-3146
20
602.751
0
VERTEX
8
L6D0
10
-3146
20
525.751
0
VERTEX
8
L6D0
10
-3134
20
525.751
0
VERTEX
8
L6D0
10
-3134
20
602.751
0
VERTEX
8
L6D0
10
-3130
20
602.751
0
VERTEX
8
L6D0
10
-3130
20
525.751
0
VERTEX
8
L6D0
10
-3118
20
525.751
0
VERTEX
8
L6D0
10
-3118
20
602.751
0
VERTEX
8
L6D0
10
-3114
20
602.751
0
VERTEX
8
L6D0
10
-3114
20
525.751
0
VERTEX
8
L6D0
10
-3102
20
525.751
0
VERTEX
8
L6D0
10
-3102
20
602.751
0
VERTEX
8
L6D0
10
-3098
20
602.751
0
VERTEX
8
L6D0
10
-3098
20
525.751
0
VERTEX
8
L6D0
10
-3086
20
525.751
0
VERTEX
8
L6D0
10
-3086
20
602.751
0
VERTEX
8
L6D0
10
-3082
20
602.751
0
VERTEX
8
L6D0
10
-3082
20
525.751
0
VERTEX
8
L6D0
10
-3070
20
525.751
0
VERTEX
8
L6D0
10
-3070
20
602.751
0
VERTEX
8
L6D0
10
-3066
20
602.751
0
VERTEX
8
L6D0
10
-3066
20
525.751
0
VERTEX
8
L6D0
10
-3054
20
525.751
0
VERTEX
8
L6D0
10
-3054
20
602.751
0
VERTEX
8
L6D0
10
-3050
20
602.751
0
VERTEX
8
L6D0
10
-3050
20
525.751
0
VERTEX
8
L6D0
10
-3038
20
525.751
0
VERTEX
8
L6D0
10
-3038
20
602.751
0
VERTEX
8
L6D0
10
-3034
20
602.751
0
VERTEX
8
L6D0
10
-3034
20
525.751
0
VERTEX
8
L6D0
10
-3022
20
525.751
0
VERTEX
8
L6D0
10
-3022
20
602.751
0
VERTEX
8
L6D0
10
-3018
20
602.751
0
VERTEX
8
L6D0
10
-3018
20
525.751
0
VERTEX
8
L6D0
10
-3006
20
525.751
0
VERTEX
8
L6D0
10
-3006
20
602.751
0
VERTEX
8
L6D0
10
-3002
20
602.751
0
VERTEX
8
L6D0
10
-3002
20
525.751
0
VERTEX
8
L6D0
10
-2990
20
525.751
0
VERTEX
8
L6D0
10
-2990
20
602.751
0
VERTEX
8
L6D0
10
-2986
20
602.751
0
VERTEX
8
L6D0
10
-2986
20
525.751
0
VERTEX
8
L6D0
10
-2974
20
525.751
0
VERTEX
8
L6D0
10
-2974
20
602.751
0
VERTEX
8
L6D0
10
-2970
20
602.751
0
VERTEX
8
L6D0
10
-2970
20
525.751
0
VERTEX
8
L6D0
10
-2958
20
525.751
0
VERTEX
8
L6D0
10
-2958
20
602.751
0
VERTEX
8
L6D0
10
-2954
20
602.751
0
VERTEX
8
L6D0
10
-2954
20
525.751
0
VERTEX
8
L6D0
10
-2942
20
525.751
0
VERTEX
8
L6D0
10
-2942
20
602.751
0
VERTEX
8
L6D0
10
-2938
20
602.751
0
VERTEX
8
L6D0
10
-2938
20
525.751
0
VERTEX
8
L6D0
10
-2926
20
525.751
0
VERTEX
8
L6D0
10
-2926
20
602.751
0
VERTEX
8
L6D0
10
-2922
20
602.751
0
VERTEX
8
L6D0
10
-2922
20
525.751
0
VERTEX
8
L6D0
10
-2910
20
525.751
0
VERTEX
8
L6D0
10
-2910
20
602.751
0
VERTEX
8
L6D0
10
-2906
20
602.751
0
VERTEX
8
L6D0
10
-2906
20
525.751
0
VERTEX
8
L6D0
10
-2894
20
525.751
0
VERTEX
8
L6D0
10
-2894
20
602.751
0
VERTEX
8
L6D0
10
-2890
20
602.751
0
VERTEX
8
L6D0
10
-2890
20
525.751
0
VERTEX
8
L6D0
10
-2878
20
525.751
0
VERTEX
8
L6D0
10
-2878
20
602.751
0
VERTEX
8
L6D0
10
-2874
20
602.751
0
VERTEX
8
L6D0
10
-2874
20
525.751
0
VERTEX
8
L6D0
10
-2862
20
525.751
0
VERTEX
8
L6D0
10
-2862
20
602.751
0
VERTEX
8
L6D0
10
-2858
20
602.751
0
VERTEX
8
L6D0
10
-2858
20
525.751
0
VERTEX
8
L6D0
10
-2846
20
525.751
0
VERTEX
8
L6D0
10
-2846
20
602.751
0
VERTEX
8
L6D0
10
-2842
20
602.751
0
VERTEX
8
L6D0
10
-2842
20
525.751
0
VERTEX
8
L6D0
10
-2830
20
525.751
0
VERTEX
8
L6D0
10
-2830
20
602.751
0
VERTEX
8
L6D0
10
-2826
20
602.751
0
VERTEX
8
L6D0
10
-2826
20
525.751
0
VERTEX
8
L6D0
10
-2814
20
525.751
0
VERTEX
8
L6D0
10
-2814
20
602.751
0
VERTEX
8
L6D0
10
-2810
20
602.751
0
VERTEX
8
L6D0
10
-2810
20
525.751
0
VERTEX
8
L6D0
10
-2798
20
525.751
0
VERTEX
8
L6D0
10
-2798
20
602.751
0
VERTEX
8
L6D0
10
-2794
20
602.751
0
VERTEX
8
L6D0
10
-2794
20
525.751
0
VERTEX
8
L6D0
10
-2782
20
525.751
0
VERTEX
8
L6D0
10
-2782
20
602.751
0
VERTEX
8
L6D0
10
-2778
20
602.751
0
VERTEX
8
L6D0
10
-2778
20
525.751
0
VERTEX
8
L6D0
10
-2766
20
525.751
0
VERTEX
8
L6D0
10
-2766
20
602.751
0
VERTEX
8
L6D0
10
-2762
20
602.751
0
VERTEX
8
L6D0
10
-2762
20
525.751
0
VERTEX
8
L6D0
10
-2750
20
525.751
0
VERTEX
8
L6D0
10
-2750
20
602.751
0
VERTEX
8
L6D0
10
-2746
20
602.751
0
VERTEX
8
L6D0
10
-2746
20
525.751
0
VERTEX
8
L6D0
10
-2734
20
525.751
0
VERTEX
8
L6D0
10
-2734
20
602.751
0
VERTEX
8
L6D0
10
-2730
20
602.751
0
VERTEX
8
L6D0
10
-2730
20
525.751
0
VERTEX
8
L6D0
10
-1988.998
20
525.751
0
VERTEX
8
L6D0
10
-1988.998
20
500.751
0
VERTEX
8
L6D0
10
-2376.998
20
500.751
0
VERTEX
8
L6D0
10
-2376.998
20
-497.749
0
VERTEX
8
L6D0
10
-2380.998
20
-497.749
0
VERTEX
8
L6D0
10
-2380.998
20
500.751
0
VERTEX
8
L6D0
10
-2392.998
20
500.751
0
VERTEX
8
L6D0
10
-2392.998
20
-497.749
0
VERTEX
8
L6D0
10
-2396.998
20
-497.749
0
VERTEX
8
L6D0
10
-2396.998
20
500.751
0
VERTEX
8
L6D0
10
-2408.998
20
500.751
0
VERTEX
8
L6D0
10
-2408.998
20
-497.749
0
VERTEX
8
L6D0
10
-2412.998
20
-497.749
0
VERTEX
8
L6D0
10
-2412.998
20
500.751
0
VERTEX
8
L6D0
10
-2424.998
20
500.751
0
VERTEX
8
L6D0
10
-2424.998
20
-497.749
0
VERTEX
8
L6D0
10
-2428.998
20
-497.749
0
VERTEX
8
L6D0
10
-2428.998
20
500.751
0
VERTEX
8
L6D0
10
-2440.998
20
500.751
0
VERTEX
8
L6D0
10
-2440.998
20
-497.749
0
VERTEX
8
L6D0
10
-2444.998
20
-497.749
0
VERTEX
8
L6D0
10
-2444.998
20
500.751
0
VERTEX
8
L6D0
10
-2456.998
20
500.751
0
VERTEX
8
L6D0
10
-2456.998
20
-497.749
0
VERTEX
8
L6D0
10
-2460.998
20
-497.749
0
VERTEX
8
L6D0
10
-2460.998
20
500.751
0
VERTEX
8
L6D0
10
-2472.998
20
500.751
0
VERTEX
8
L6D0
10
-2472.998
20
-497.749
0
VERTEX
8
L6D0
10
-2476.998
20
-497.749
0
VERTEX
8
L6D0
10
-2476.998
20
500.751
0
VERTEX
8
L6D0
10
-2488.998
20
500.751
0
VERTEX
8
L6D0
10
-2488.998
20
-497.749
0
VERTEX
8
L6D0
10
-2492.998
20
-497.749
0
VERTEX
8
L6D0
10
-2492.998
20
500.751
0
VERTEX
8
L6D0
10
-2504.998
20
500.751
0
VERTEX
8
L6D0
10
-2504.998
20
-497.749
0
VERTEX
8
L6D0
10
-2508.998
20
-497.749
0
VERTEX
8
L6D0
10
-2508.998
20
500.751
0
VERTEX
8
L6D0
10
-2520.998
20
500.751
0
VERTEX
8
L6D0
10
-2520.998
20
-497.749
0
VERTEX
8
L6D0
10
-2524.998
20
-497.749
0
VERTEX
8
L6D0
10
-2524.998
20
500.751
0
VERTEX
8
L6D0
10
-2536.998
20
500.751
0
VERTEX
8
L6D0
10
-2536.998
20
-497.749
0
VERTEX
8
L6D0
10
-2540.998
20
-497.749
0
VERTEX
8
L6D0
10
-2540.998
20
500.751
0
VERTEX
8
L6D0
10
-2552.998
20
500.751
0
VERTEX
8
L6D0
10
-2552.998
20
-497.749
0
VERTEX
8
L6D0
10
-2556.998
20
-497.749
0
VERTEX
8
L6D0
10
-2556.998
20
500.751
0
VERTEX
8
L6D0
10
-2568.998
20
500.751
0
VERTEX
8
L6D0
10
-2568.998
20
-497.749
0
VERTEX
8
L6D0
10
-2572.998
20
-497.749
0
VERTEX
8
L6D0
10
-2572.998
20
500.751
0
VERTEX
8
L6D0
10
-2584.998
20
500.751
0
VERTEX
8
L6D0
10
-2584.998
20
-497.749
0
VERTEX
8
L6D0
10
-2588.998
20
-497.749
0
VERTEX
8
L6D0
10
-2588.998
20
500.751
0
VERTEX
8
L6D0
10
-2600.998
20
500.751
0
VERTEX
8
L6D0
10
-2600.998
20
-497.749
0
VERTEX
8
L6D0
10
-2604.998
20
-497.749
0
VERTEX
8
L6D0
10
-2604.998
20
500.751
0
VERTEX
8
L6D0
10
-2616.998
20
500.751
0
VERTEX
8
L6D0
10
-2616.998
20
-497.749
0
VERTEX
8
L6D0
10
-2620.998
20
-497.749
0
VERTEX
8
L6D0
10
-2620.998
20
500.751
0
VERTEX
8
L6D0
10
-2632.998
20
500.751
0
VERTEX
8
L6D0
10
-2632.998
20
-497.749
0
VERTEX
8
L6D0
10
-2636.998
20
-497.749
0
VERTEX
8
L6D0
10
-2636.998
20
500.751
0
VERTEX
8
L6D0
10
-2648.998
20
500.751
0
VERTEX
8
L6D0
10
-2648.998
20
-497.749
0
VERTEX
8
L6D0
10
-2652.998
20
-497.749
0
VERTEX
8
L6D0
10
-2652.998
20
500.751
0
VERTEX
8
L6D0
10
-2664.998
20
500.751
0
VERTEX
8
L6D0
10
-2664.998
20
-497.749
0
VERTEX
8
L6D0
10
-2668.998
20
-497.749
0
VERTEX
8
L6D0
10
-2668.998
20
500.751
0
VERTEX
8
L6D0
10
-2680.998
20
500.751
0
VERTEX
8
L6D0
10
-2680.998
20
-497.749
0
VERTEX
8
L6D0
10
-2684.998
20
-497.749
0
VERTEX
8
L6D0
10
-2684.998
20
500.751
0
VERTEX
8
L6D0
10
-2696.998
20
500.751
0
VERTEX
8
L6D0
10
-2696.998
20
-497.749
0
VERTEX
8
L6D0
10
-2700.998
20
-497.749
0
VERTEX
8
L6D0
10
-2700.998
20
500.751
0
VERTEX
8
L6D0
10
-2712.998
20
500.751
0
VERTEX
8
L6D0
10
-2712.998
20
-497.749
0
VERTEX
8
L6D0
10
-2716.998
20
-497.749
0
VERTEX
8
L6D0
10
-2716.998
20
500.751
0
VERTEX
8
L6D0
10
-2728.998
20
500.751
0
VERTEX
8
L6D0
10
-2728.998
20
-497.749
0
VERTEX
8
L6D0
10
-2732.998
20
-497.749
0
VERTEX
8
L6D0
10
-2732.998
20
500.751
0
VERTEX
8
L6D0
10
-2744.998
20
500.751
0
VERTEX
8
L6D0
10
-2744.998
20
-497.749
0
VERTEX
8
L6D0
10
-2748.998
20
-497.749
0
VERTEX
8
L6D0
10
-2748.998
20
500.751
0
VERTEX
8
L6D0
10
-2760.998
20
500.751
0
VERTEX
8
L6D0
10
-2760.998
20
-497.749
0
VERTEX
8
L6D0
10
-2764.998
20
-497.749
0
VERTEX
8
L6D0
10
-2764.998
20
500.751
0
VERTEX
8
L6D0
10
-2776.998
20
500.751
0
VERTEX
8
L6D0
10
-2776.998
20
-497.749
0
VERTEX
8
L6D0
10
-2780.998
20
-497.749
0
VERTEX
8
L6D0
10
-2780.998
20
500.751
0
VERTEX
8
L6D0
10
-2792.998
20
500.751
0
VERTEX
8
L6D0
10
-2792.998
20
-497.749
0
VERTEX
8
L6D0
10
-2796.998
20
-497.749
0
VERTEX
8
L6D0
10
-2796.998
20
500.751
0
VERTEX
8
L6D0
10
-2808.998
20
500.751
0
VERTEX
8
L6D0
10
-2808.998
20
-497.749
0
VERTEX
8
L6D0
10
-2812.998
20
-497.749
0
VERTEX
8
L6D0
10
-2812.998
20
500.751
0
VERTEX
8
L6D0
10
-2824.998
20
500.751
0
VERTEX
8
L6D0
10
-2824.998
20
-497.749
0
VERTEX
8
L6D0
10
-2828.998
20
-497.749
0
VERTEX
8
L6D0
10
-2828.998
20
500.751
0
VERTEX
8
L6D0
10
-2840.998
20
500.751
0
VERTEX
8
L6D0
10
-2840.998
20
-497.749
0
VERTEX
8
L6D0
10
-2844.998
20
-497.749
0
VERTEX
8
L6D0
10
-2844.998
20
500.751
0
VERTEX
8
L6D0
10
-2856.998
20
500.751
0
VERTEX
8
L6D0
10
-2856.998
20
-497.749
0
VERTEX
8
L6D0
10
-2860.998
20
-497.749
0
VERTEX
8
L6D0
10
-2860.998
20
500.751
0
VERTEX
8
L6D0
10
-2872.998
20
500.751
0
VERTEX
8
L6D0
10
-2872.998
20
-497.749
0
VERTEX
8
L6D0
10
-2876.998
20
-497.749
0
VERTEX
8
L6D0
10
-2876.998
20
500.751
0
VERTEX
8
L6D0
10
-2888.998
20
500.751
0
VERTEX
8
L6D0
10
-2888.998
20
-497.749
0
VERTEX
8
L6D0
10
-2892.998
20
-497.749
0
VERTEX
8
L6D0
10
-2892.998
20
500.751
0
VERTEX
8
L6D0
10
-2904.998
20
500.751
0
VERTEX
8
L6D0
10
-2904.998
20
-497.749
0
VERTEX
8
L6D0
10
-2908.998
20
-497.749
0
VERTEX
8
L6D0
10
-2908.998
20
500.751
0
VERTEX
8
L6D0
10
-2920.998
20
500.751
0
VERTEX
8
L6D0
10
-2920.998
20
-497.749
0
VERTEX
8
L6D0
10
-2924.998
20
-497.749
0
VERTEX
8
L6D0
10
-2924.998
20
500.751
0
VERTEX
8
L6D0
10
-2936.998
20
500.751
0
VERTEX
8
L6D0
10
-2936.998
20
-497.749
0
VERTEX
8
L6D0
10
-2940.998
20
-497.749
0
VERTEX
8
L6D0
10
-2940.998
20
500.751
0
VERTEX
8
L6D0
10
-2952.998
20
500.751
0
VERTEX
8
L6D0
10
-2952.998
20
-497.749
0
VERTEX
8
L6D0
10
-2956.998
20
-497.749
0
VERTEX
8
L6D0
10
-2956.998
20
500.751
0
VERTEX
8
L6D0
10
-2968.998
20
500.751
0
VERTEX
8
L6D0
10
-2968.998
20
-497.749
0
VERTEX
8
L6D0
10
-2972.998
20
-497.749
0
VERTEX
8
L6D0
10
-2972.998
20
500.751
0
VERTEX
8
L6D0
10
-2984.998
20
500.751
0
VERTEX
8
L6D0
10
-2984.998
20
-497.749
0
VERTEX
8
L6D0
10
-2988.998
20
-497.749
0
VERTEX
8
L6D0
10
-2988.998
20
500.751
0
VERTEX
8
L6D0
10
-3000.998
20
500.751
0
VERTEX
8
L6D0
10
-3000.998
20
-497.749
0
VERTEX
8
L6D0
10
-3004.998
20
-497.749
0
VERTEX
8
L6D0
10
-3004.998
20
500.751
0
VERTEX
8
L6D0
10
-3016.998
20
500.751
0
VERTEX
8
L6D0
10
-3016.998
20
-497.749
0
VERTEX
8
L6D0
10
-3020.998
20
-497.749
0
VERTEX
8
L6D0
10
-3020.998
20
500.751
0
VERTEX
8
L6D0
10
-3032.998
20
500.751
0
VERTEX
8
L6D0
10
-3032.998
20
-497.749
0
VERTEX
8
L6D0
10
-3036.998
20
-497.749
0
VERTEX
8
L6D0
10
-3036.998
20
500.751
0
VERTEX
8
L6D0
10
-3048.998
20
500.751
0
VERTEX
8
L6D0
10
-3048.998
20
-497.749
0
VERTEX
8
L6D0
10
-3052.998
20
-497.749
0
VERTEX
8
L6D0
10
-3052.998
20
500.751
0
VERTEX
8
L6D0
10
-3064.998
20
500.751
0
VERTEX
8
L6D0
10
-3064.998
20
-497.749
0
VERTEX
8
L6D0
10
-3068.998
20
-497.749
0
VERTEX
8
L6D0
10
-3068.998
20
500.751
0
VERTEX
8
L6D0
10
-3080.998
20
500.751
0
VERTEX
8
L6D0
10
-3080.998
20
-497.749
0
VERTEX
8
L6D0
10
-3084.998
20
-497.749
0
VERTEX
8
L6D0
10
-3084.998
20
500.751
0
VERTEX
8
L6D0
10
-3096.998
20
500.751
0
VERTEX
8
L6D0
10
-3096.998
20
-497.749
0
VERTEX
8
L6D0
10
-3100.998
20
-497.749
0
VERTEX
8
L6D0
10
-3100.998
20
500.751
0
VERTEX
8
L6D0
10
-3112.998
20
500.751
0
VERTEX
8
L6D0
10
-3112.998
20
-497.749
0
VERTEX
8
L6D0
10
-3116.998
20
-497.749
0
VERTEX
8
L6D0
10
-3116.998
20
500.751
0
VERTEX
8
L6D0
10
-3128.998
20
500.751
0
VERTEX
8
L6D0
10
-3128.998
20
-497.749
0
VERTEX
8
L6D0
10
-3132.998
20
-497.749
0
VERTEX
8
L6D0
10
-3132.998
20
500.751
0
VERTEX
8
L6D0
10
-3144.998
20
500.751
0
VERTEX
8
L6D0
10
-3144.998
20
-497.749
0
VERTEX
8
L6D0
10
-3148.998
20
-497.749
0
VERTEX
8
L6D0
10
-3148.998
20
500.751
0
VERTEX
8
L6D0
10
-3160.998
20
500.751
0
VERTEX
8
L6D0
10
-3160.998
20
-497.749
0
VERTEX
8
L6D0
10
-3164.998
20
-497.749
0
VERTEX
8
L6D0
10
-3164.998
20
500.751
0
VERTEX
8
L6D0
10
-3176.998
20
500.751
0
VERTEX
8
L6D0
10
-3176.998
20
-497.749
0
VERTEX
8
L6D0
10
-3180.998
20
-497.749
0
VERTEX
8
L6D0
10
-3180.998
20
500.751
0
VERTEX
8
L6D0
10
-3192.998
20
500.751
0
VERTEX
8
L6D0
10
-3192.998
20
-497.749
0
VERTEX
8
L6D0
10
-3196.998
20
-497.749
0
VERTEX
8
L6D0
10
-3196.998
20
500.751
0
VERTEX
8
L6D0
10
-3208.998
20
500.751
0
VERTEX
8
L6D0
10
-3208.998
20
-497.749
0
VERTEX
8
L6D0
10
-3212.998
20
-497.749
0
VERTEX
8
L6D0
10
-3212.998
20
500.751
0
VERTEX
8
L6D0
10
-3224.998
20
500.751
0
VERTEX
8
L6D0
10
-3224.998
20
-497.749
0
VERTEX
8
L6D0
10
-3228.998
20
-497.749
0
VERTEX
8
L6D0
10
-3228.998
20
500.751
0
VERTEX
8
L6D0
10
-3240.998
20
500.751
0
VERTEX
8
L6D0
10
-3240.998
20
-497.749
0
VERTEX
8
L6D0
10
-3244.998
20
-497.749
0
VERTEX
8
L6D0
10
-3244.998
20
500.751
0
VERTEX
8
L6D0
10
-3256.998
20
500.751
0
VERTEX
8
L6D0
10
-3256.998
20
-497.749
0
VERTEX
8
L6D0
10
-3260.998
20
-497.749
0
VERTEX
8
L6D0
10
-3260.998
20
500.751
0
VERTEX
8
L6D0
10
-3272.998
20
500.751
0
VERTEX
8
L6D0
10
-3272.998
20
-497.749
0
VERTEX
8
L6D0
10
-3276.998
20
-497.749
0
VERTEX
8
L6D0
10
-3276.998
20
500.751
0
VERTEX
8
L6D0
10
-3288.998
20
500.751
0
VERTEX
8
L6D0
10
-3288.998
20
-497.749
0
VERTEX
8
L6D0
10
-3292.998
20
-497.749
0
VERTEX
8
L6D0
10
-3292.998
20
500.751
0
VERTEX
8
L6D0
10
-3304.998
20
500.751
0
VERTEX
8
L6D0
10
-3304.998
20
-497.749
0
VERTEX
8
L6D0
10
-3308.998
20
-497.749
0
VERTEX
8
L6D0
10
-3308.998
20
500.751
0
VERTEX
8
L6D0
10
-3320.998
20
500.751
0
VERTEX
8
L6D0
10
-3320.998
20
-497.749
0
VERTEX
8
L6D0
10
-3324.998
20
-497.749
0
VERTEX
8
L6D0
10
-3324.998
20
500.751
0
VERTEX
8
L6D0
10
-3336.998
20
500.751
0
VERTEX
8
L6D0
10
-3336.998
20
-497.749
0
VERTEX
8
L6D0
10
-3340.998
20
-497.749
0
VERTEX
8
L6D0
10
-3340.998
20
500.751
0
VERTEX
8
L6D0
10
-3352.998
20
500.751
0
VERTEX
8
L6D0
10
-3352.998
20
-497.749
0
VERTEX
8
L6D0
10
-3356.998
20
-497.749
0
VERTEX
8
L6D0
10
-3356.998
20
500.751
0
VERTEX
8
L6D0
10
-3368.998
20
500.751
0
VERTEX
8
L6D0
10
-3368.998
20
-497.749
0
VERTEX
8
L6D0
10
-3372.998
20
-497.749
0
VERTEX
8
L6D0
10
-3372.998
20
500.751
0
VERTEX
8
L6D0
10
-3384.998
20
500.751
0
VERTEX
8
L6D0
10
-3384.998
20
-497.749
0
VERTEX
8
L6D0
10
-3388.998
20
-497.749
0
VERTEX
8
L6D0
10
-3388.998
20
500.751
0
VERTEX
8
L6D0
10
-3400.998
20
500.751
0
VERTEX
8
L6D0
10
-3400.998
20
-497.749
0
VERTEX
8
L6D0
10
-3404.998
20
-497.749
0
VERTEX
8
L6D0
10
-3404.998
20
500.751
0
VERTEX
8
L6D0
10
-3416.998
20
500.751
0
VERTEX
8
L6D0
10
-3416.998
20
-497.749
0
VERTEX
8
L6D0
10
-3420.998
20
-497.749
0
VERTEX
8
L6D0
10
-3420.998
20
500.751
0
VERTEX
8
L6D0
10
-3432.998
20
500.751
0
VERTEX
8
L6D0
10
-3432.998
20
-497.749
0
VERTEX
8
L6D0
10
-3436.998
20
-497.749
0
VERTEX
8
L6D0
10
-3436.998
20
500.751
0
VERTEX
8
L6D0
10
-3448.998
20
500.751
0
VERTEX
8
L6D0
10
-3448.998
20
-497.749
0
VERTEX
8
L6D0
10
-3452.998
20
-497.749
0
VERTEX
8
L6D0
10
-3452.998
20
500.751
0
VERTEX
8
L6D0
10
-3464.998
20
500.751
0
VERTEX
8
L6D0
10
-3464.998
20
-497.749
0
VERTEX
8
L6D0
10
-3468.998
20
-497.749
0
VERTEX
8
L6D0
10
-3468.998
20
500.751
0
VERTEX
8
L6D0
10
-3480.998
20
500.751
0
VERTEX
8
L6D0
10
-3480.998
20
-497.749
0
VERTEX
8
L6D0
10
-3484.998
20
-497.749
0
VERTEX
8
L6D0
10
-3484.998
20
500.751
0
VERTEX
8
L6D0
10
-3496.998
20
500.751
0
VERTEX
8
L6D0
10
-3496.998
20
-497.749
0
VERTEX
8
L6D0
10
-3500.998
20
-497.749
0
VERTEX
8
L6D0
10
-3500.998
20
500.751
0
VERTEX
8
L6D0
10
-3512.998
20
500.751
0
VERTEX
8
L6D0
10
-3512.998
20
-497.749
0
VERTEX
8
L6D0
10
-3516.998
20
-497.749
0
VERTEX
8
L6D0
10
-3516.998
20
500.751
0
VERTEX
8
L6D0
10
-3528.998
20
500.751
0
VERTEX
8
L6D0
10
-3528.998
20
-497.749
0
VERTEX
8
L6D0
10
-3532.998
20
-497.749
0
VERTEX
8
L6D0
10
-3532.998
20
500.751
0
VERTEX
8
L6D0
10
-3544.998
20
500.751
0
VERTEX
8
L6D0
10
-3544.998
20
-497.749
0
VERTEX
8
L6D0
10
-3548.998
20
-497.749
0
VERTEX
8
L6D0
10
-3548.998
20
500.751
0
VERTEX
8
L6D0
10
-3560.998
20
500.751
0
VERTEX
8
L6D0
10
-3560.998
20
-497.749
0
VERTEX
8
L6D0
10
-3564.998
20
-497.749
0
VERTEX
8
L6D0
10
-3564.998
20
500.751
0
VERTEX
8
L6D0
10
-3576.998
20
500.751
0
VERTEX
8
L6D0
10
-3576.998
20
-497.749
0
VERTEX
8
L6D0
10
-3580.998
20
-497.749
0
VERTEX
8
L6D0
10
-3580.998
20
500.751
0
VERTEX
8
L6D0
10
-3592.998
20
500.751
0
VERTEX
8
L6D0
10
-3592.998
20
-497.749
0
VERTEX
8
L6D0
10
-3596.998
20
-497.749
0
VERTEX
8
L6D0
10
-3596.998
20
500.751
0
VERTEX
8
L6D0
10
-3608.998
20
500.751
0
VERTEX
8
L6D0
10
-3608.998
20
-497.749
0
VERTEX
8
L6D0
10
-3612.998
20
-497.749
0
VERTEX
8
L6D0
10
-3612.998
20
500.751
0
VERTEX
8
L6D0
10
-3624.998
20
500.751
0
VERTEX
8
L6D0
10
-3624.998
20
-497.749
0
VERTEX
8
L6D0
10
-3628.998
20
-497.749
0
VERTEX
8
L6D0
10
-3628.998
20
500.751
0
VERTEX
8
L6D0
10
-3640.998
20
500.751
0
VERTEX
8
L6D0
10
-3640.998
20
-497.749
0
VERTEX
8
L6D0
10
-3644.998
20
-497.749
0
VERTEX
8
L6D0
10
-3644.998
20
500.751
0
VERTEX
8
L6D0
10
-3656.998
20
500.751
0
VERTEX
8
L6D0
10
-3656.998
20
-497.749
0
VERTEX
8
L6D0
10
-3660.998
20
-497.749
0
VERTEX
8
L6D0
10
-3660.998
20
500.751
0
VERTEX
8
L6D0
10
-3672.998
20
500.751
0
VERTEX
8
L6D0
10
-3672.998
20
-497.749
0
VERTEX
8
L6D0
10
-3676.998
20
-497.749
0
VERTEX
8
L6D0
10
-3676.998
20
500.751
0
VERTEX
8
L6D0
10
-3688.998
20
500.751
0
VERTEX
8
L6D0
10
-3688.998
20
-497.749
0
VERTEX
8
L6D0
10
-3692.998
20
-497.749
0
VERTEX
8
L6D0
10
-3692.998
20
500.751
0
VERTEX
8
L6D0
10
-3704.998
20
500.751
0
VERTEX
8
L6D0
10
-3704.998
20
-497.749
0
VERTEX
8
L6D0
10
-3708.998
20
-497.749
0
VERTEX
8
L6D0
10
-3708.998
20
500.751
0
VERTEX
8
L6D0
10
-3720.998
20
500.751
0
VERTEX
8
L6D0
10
-3720.998
20
-497.749
0
VERTEX
8
L6D0
10
-3724.998
20
-497.749
0
VERTEX
8
L6D0
10
-3724.998
20
500.751
0
VERTEX
8
L6D0
10
-3736.998
20
500.751
0
VERTEX
8
L6D0
10
-3736.998
20
-497.749
0
VERTEX
8
L6D0
10
-3740.998
20
-497.749
0
VERTEX
8
L6D0
10
-3740.998
20
500.751
0
VERTEX
8
L6D0
10
-3752.998
20
500.751
0
VERTEX
8
L6D0
10
-3752.998
20
-497.749
0
VERTEX
8
L6D0
10
-3756.998
20
-497.749
0
VERTEX
8
L6D0
10
-3756.998
20
500.751
0
VERTEX
8
L6D0
10
-3768.998
20
500.751
0
VERTEX
8
L6D0
10
-3768.998
20
-497.749
0
VERTEX
8
L6D0
10
-3772.998
20
-497.749
0
VERTEX
8
L6D0
10
-3772.998
20
500.751
0
VERTEX
8
L6D0
10
-3784.998
20
500.751
0
VERTEX
8
L6D0
10
-3784.998
20
-497.749
0
VERTEX
8
L6D0
10
-3788.998
20
-497.749
0
VERTEX
8
L6D0
10
-3788.998
20
500.751
0
VERTEX
8
L6D0
10
-3800.998
20
500.751
0
VERTEX
8
L6D0
10
-3800.998
20
-497.749
0
VERTEX
8
L6D0
10
-3804.998
20
-497.749
0
VERTEX
8
L6D0
10
-3804.998
20
500.751
0
VERTEX
8
L6D0
10
-3816.998
20
500.751
0
VERTEX
8
L6D0
10
-3816.998
20
-497.749
0
VERTEX
8
L6D0
10
-3820.998
20
-497.749
0
VERTEX
8
L6D0
10
-3820.998
20
500.751
0
VERTEX
8
L6D0
10
-3832.998
20
500.751
0
VERTEX
8
L6D0
10
-3832.998
20
-497.749
0
VERTEX
8
L6D0
10
-3836.998
20
-497.749
0
VERTEX
8
L6D0
10
-3836.998
20
500.751
0
VERTEX
8
L6D0
10
-3848.998
20
500.751
0
VERTEX
8
L6D0
10
-3848.998
20
-497.749
0
VERTEX
8
L6D0
10
-3852.998
20
-497.749
0
VERTEX
8
L6D0
10
-3852.998
20
500.751
0
VERTEX
8
L6D0
10
-3864.998
20
500.751
0
VERTEX
8
L6D0
10
-3864.998
20
-497.749
0
VERTEX
8
L6D0
10
-3868.998
20
-497.749
0
VERTEX
8
L6D0
10
-3868.998
20
500.751
0
VERTEX
8
L6D0
10
-3880.998
20
500.751
0
VERTEX
8
L6D0
10
-3880.998
20
-497.749
0
VERTEX
8
L6D0
10
-3884.998
20
-497.749
0
VERTEX
8
L6D0
10
-3884.998
20
500.751
0
VERTEX
8
L6D0
10
-3896.998
20
500.751
0
VERTEX
8
L6D0
10
-3896.998
20
-497.749
0
VERTEX
8
L6D0
10
-3900.998
20
-497.749
0
VERTEX
8
L6D0
10
-3900.998
20
500.751
0
VERTEX
8
L6D0
10
-3912.998
20
500.751
0
VERTEX
8
L6D0
10
-3912.998
20
-497.749
0
VERTEX
8
L6D0
10
-3916.998
20
-497.749
0
VERTEX
8
L6D0
10
-3916.998
20
500.751
0
VERTEX
8
L6D0
10
-3928.998
20
500.751
0
VERTEX
8
L6D0
10
-3928.998
20
-497.749
0
VERTEX
8
L6D0
10
-3932.998
20
-497.749
0
VERTEX
8
L6D0
10
-3932.998
20
500.751
0
VERTEX
8
L6D0
10
-3944.998
20
500.751
0
VERTEX
8
L6D0
10
-3944.998
20
-497.749
0
VERTEX
8
L6D0
10
-3948.998
20
-497.749
0
VERTEX
8
L6D0
10
-3948.998
20
500.751
0
VERTEX
8
L6D0
10
-3960.998
20
500.751
0
VERTEX
8
L6D0
10
-3960.998
20
-497.749
0
SEQEND
0
POLYLINE
8
L6D0
70
1
40
0
41
0
66
1
0
VERTEX
8
L6D0
10
-3270
20
528.751
0
VERTEX
8
L6D0
10
-3270
20
605.751
0
VERTEX
8
L6D0
10
-3278
20
605.751
0
VERTEX
8
L6D0
10
-3278
20
630.751
0
VERTEX
8
L6D0
10
-2730
20
630.751
0
VERTEX
8
L6D0
10
-2730
20
605.751
0
VERTEX
8
L6D0
10
-2738
20
605.751
0
VERTEX
8
L6D0
10
-2738
20
528.751
0
VERTEX
8
L6D0
10
-2742
20
528.751
0
VERTEX
8
L6D0
10
-2742
20
605.751
0
VERTEX
8
L6D0
10
-2754
20
605.751
0
VERTEX
8
L6D0
10
-2754
20
528.751
0
VERTEX
8
L6D0
10
-2758
20
528.751
0
VERTEX
8
L6D0
10
-2758
20
605.751
0
VERTEX
8
L6D0
10
-2770
20
605.751
0
VERTEX
8
L6D0
10
-2770
20
528.751
0
VERTEX
8
L6D0
10
-2774
20
528.751
0
VERTEX
8
L6D0
10
-2774
20
605.751
0
VERTEX
8
L6D0
10
-2786
20
605.751
0
VERTEX
8
L6D0
10
-2786
20
528.751
0
VERTEX
8
L6D0
10
-2790
20
528.751
0
VERTEX
8
L6D0
10
-2790
20
605.751
0
VERTEX
8
L6D0
10
-2802
20
605.751
0
VERTEX
8
L6D0
10
-2802
20
528.751
0
VERTEX
8
L6D0
10
-2806
20
528.751
0
VERTEX
8
L6D0
10
-2806
20
605.751
0
VERTEX
8
L6D0
10
-2818
20
605.751
0
VERTEX
8
L6D0
10
-2818
20
528.751
0
VERTEX
8
L6D0
10
-2822
20
528.751
0
VERTEX
8
L6D0
10
-2822
20
605.751
0
VERTEX
8
L6D0
10
-2834
20
605.751
0
VERTEX
8
L6D0
10
-2834
20
528.751
0
VERTEX
8
L6D0
10
-2838
20
528.751
0
VERTEX
8
L6D0
10
-2838
20
605.751
0
VERTEX
8
L6D0
10
-2850
20
605.751
0
VERTEX
8
L6D0
10
-2850
20
528.751
0
VERTEX
8
L6D0
10
-2854
20
528.751
0
VERTEX
8
L6D0
10
-2854
20
605.751
0
VERTEX
8
L6D0
10
-2866
20
605.751
0
VERTEX
8
L6D0
10
-2866
20
528.751
0
VERTEX
8
L6D0
10
-2870
20
528.751
0
VERTEX
8
L6D0
10
-2870
20
605.751
0
VERTEX
8
L6D0
10
-2882
20
605.751
0
VERTEX
8
L6D0
10
-2882
20
528.751
0
VERTEX
8
L6D0
10
-2886
20
528.751
0
VERTEX
8
L6D0
10
-2886
20
605.751
0
VERTEX
8
L6D0
10
-2898
20
605.751
0
VERTEX
8
L6D0
10
-2898
20
528.751
0
VERTEX
8
L6D0
10
-2902
20
528.751
0
VERTEX
8
L6D0
10
-2902
20
605.751
0
VERTEX
8
L6D0
10
-2914
20
605.751
0
VERTEX
8
L6D0
10
-2914
20
528.751
0
VERTEX
8
L6D0
10
-2918
20
528.751
0
VERTEX
8
L6D0
10
-2918
20
605.751
0
VERTEX
8
L6D0
10
-2930
20
605.751
0
VERTEX
8
L6D0
10
-2930
20
528.751
0
VERTEX
8
L6D0
10
-2934
20
528.751
0
VERTEX
8
L6D0
10
-2934
20
605.751
0
VERTEX
8
L6D0
10
-2946
20
605.751
0
VERTEX
8
L6D0
10
-2946
20
528.751
0
VERTEX
8
L6D0
10
-2950
20
528.751
0
VERTEX
8
L6D0
10
-2950
20
605.751
0
VERTEX
8
L6D0
10
-2962
20
605.751
0
VERTEX
8
L6D0
10
-2962
20
528.751
0
VERTEX
8
L6D0
10
-2966
20
528.751
0
VERTEX
8
L6D0
10
-2966
20
605.751
0
VERTEX
8
L6D0
10
-2978
20
605.751
0
VERTEX
8
L6D0
10
-2978
20
528.751
0
VERTEX
8
L6D0
10
-2982
20
528.751
0
VERTEX
8
L6D0
10
-2982
20
605.751
0
VERTEX
8
L6D0
10
-2994
20
605.751
0
VERTEX
8
L6D0
10
-2994
20
528.751
0
VERTEX
8
L6D0
10
-2998
20
528.751
0
VERTEX
8
L6D0
10
-2998
20
605.751
0
VERTEX
8
L6D0
10
-3010
20
605.751
0
VERTEX
8
L6D0
10
-3010
20
528.751
0
VERTEX
8
L6D0
10
-3014
20
528.751
0
VERTEX
8
L6D0
10
-3014
20
605.751
0
VERTEX
8
L6D0
10
-3026
20
605.751
0
VERTEX
8
L6D0
10
-3026
20
528.751
0
VERTEX
8
L6D0
10
-3030
20
528.751
0
VERTEX
8
L6D0
10
-3030
20
605.751
0
VERTEX
8
L6D0
10
-3042
20
605.751
0
VERTEX
8
L6D0
10
-3042
20
528.751
0
VERTEX
8
L6D0
10
-3046
20
528.751
0
VERTEX
8
L6D0
10
-3046
20
605.751
0
VERTEX
8
L6D0
10
-3058
20
605.751
0
VERTEX
8
L6D0
10
-3058
20
528.751
0
VERTEX
8
L6D0
10
-3062
20
528.751
0
VERTEX
8
L6D0
10
-3062
20
605.751
0
VERTEX
8
L6D0
10
-3074
20
605.751
0
VERTEX
8
L6D0
10
-3074
20
528.751
0
VERTEX
8
L6D0
10
-3078
20
528.751
0
VERTEX
8
L6D0
10
-3078
20
605.751
0
VERTEX
8
L6D0
10
-3090
20
605.751
0
VERTEX
8
L6D0
10
-3090
20
528.751
0
VERTEX
8
L6D0
10
-3094
20
528.751
0
VERTEX
8
L6D0
10
-3094
20
605.751
0
VERTEX
8
L6D0
10
-3106
20
605.751
0
VERTEX
8
L6D0
10
-3106
20
528.751
0
VERTEX
8
L6D0
10
-3110
20
528.751
0
VERTEX
8
L6D0
10
-3110
20
605.751
0
VERTEX
8
L6D0
10
-3122
20
605.751
0
VERTEX
8
L6D0
10
-3122
20
528.751
0
VERTEX
8
L6D0
10
-3126
20
528.751
0
VERTEX
8
L6D0
10
-3126
20
605.751
0
VERTEX
8
L6D0
10
-3138
20
605.751
0
VERTEX
8
L6D0
10
-3138
20
528.751
0
VERTEX
8
L6D0
10
-3142
20
528.751
0
VERTEX
8
L6D0
10
-3142
20
605.751
0
VERTEX
8
L6D0
10
-3154
20
605.751
0
VERTEX
8
L6D0
10
-3154
20
528.751
0
VERTEX
8
L6D0
10
-3158
20
528.751
0
VERTEX
8
L6D0
10
-3158
20
605.751
0
VERTEX
8
L6D0
10
-3170
20
605.751
0
VERTEX
8
L6D0
10
-3170
20
528.751
0
VERTEX
8
L6D0
10
-3174
20
528.751
0
VERTEX
8
L6D0
10
-3174
20
605.751
0
VERTEX
8
L6D0
10
-3186
20
605.751
0
VERTEX
8
L6D0
10
-3186
20
528.751
0
VERTEX
8
L6D0
10
-3190
20
528.751
0
VERTEX
8
L6D0
10
-3190
20
605.751
0
VERTEX
8
L6D0
10
-3202
20
605.751
0
VERTEX
8
L6D0
10
-3202
20
528.751
0
VERTEX
8
L6D0
10
-3206
20
528.751
0
VERTEX
8
L6D0
10
-3206
20
605.751
0
VERTEX
8
L6D0
10
-3218
20
605.751
0
VERTEX
8
L6D0
10
-3218
20
528.751
0
VERTEX
8
L6D0
10
-3222
20
528.751
0
VERTEX
8
L6D0
10
-3222
20
605.751
0
VERTEX
8
L6D0
10
-3234
20
605.751
0
VERTEX
8
L6D0
10
-3234
20
528.751
0
VERTEX
8
L6D0
10
-3238
20
528.751
0
VERTEX
8
L6D0
10
-3238
20
605.751
0
VERTEX
8
L6D0
10
-3250
20
605.751
0
VERTEX
8
L6D0
10
-3250
20
528.751
0
VERTEX
8
L6D0
10
-3254
20
528.751
0
VERTEX
8
L6D0
10
-3254
20
605.751
0
VERTEX
8
L6D0
10
-3266
20
605.751
0
VERTEX
8
L6D0
10
-3266
20
528.751
0
SEQEND
0
POLYLINE
8
L6D0
70
1
40
0
41
0
66
1
0
VERTEX
8
L6D0
10
-3278
20
-630.749
0
VERTEX
8
L6D0
10
-3278
20
-528.749
0
VERTEX
8
L6D0
10
-3274
20
-528.749
0
VERTEX
8
L6D0
10
-3274
20
-605.749
0
VERTEX
8
L6D0
10
-3262
20
-605.749
0
VERTEX
8
L6D0
10
-3262
20
-528.749
0
VERTEX
8
L6D0
10
-3258
20
-528.749
0
VERTEX
8
L6D0
10
-3258
20
-605.749
0
VERTEX
8
L6D0
10
-3246
20
-605.749
0
VERTEX
8
L6D0
10
-3246
20
-528.749
0
VERTEX
8
L6D0
10
-3242
20
-528.749
0
VERTEX
8
L6D0
10
-3242
20
-605.749
0
VERTEX
8
L6D0
10
-3230
20
-605.749
0
VERTEX
8
L6D0
10
-3230
20
-528.749
0
VERTEX
8
L6D0
10
-3226
20
-528.749
0
VERTEX
8
L6D0
10
-3226
20
-605.749
0
VERTEX
8
L6D0
10
-3214
20
-605.749
0
VERTEX
8
L6D0
10
-3214
20
-528.749
0
VERTEX
8
L6D0
10
-3210
20
-528.749
0
VERTEX
8
L6D0
10
-3210
20
-605.749
0
VERTEX
8
L6D0
10
-3198
20
-605.749
0
VERTEX
8
L6D0
10
-3198
20
-528.749
0
VERTEX
8
L6D0
10
-3194
20
-528.749
0
VERTEX
8
L6D0
10
-3194
20
-605.749
0
VERTEX
8
L6D0
10
-3182
20
-605.749
0
VERTEX
8
L6D0
10
-3182
20
-528.749
0
VERTEX
8
L6D0
10
-3178
20
-528.749
0
VERTEX
8
L6D0
10
-3178
20
-605.749
0
VERTEX
8
L6D0
10
-3166
20
-605.749
0
VERTEX
8
L6D0
10
-3166
20
-528.749
0
VERTEX
8
L6D0
10
-3162
20
-528.749
0
VERTEX
8
L6D0
10
-3162
20
-605.749
0
VERTEX
8
L6D0
10
-3150
20
-605.749
0
VERTEX
8
L6D0
10
-3150
20
-528.749
0
VERTEX
8
L6D0
10
-3146
20
-528.749
0
VERTEX
8
L6D0
10
-3146
20
-605.749
0
VERTEX
8
L6D0
10
-3134
20
-605.749
0
VERTEX
8
L6D0
10
-3134
20
-528.749
0
VERTEX
8
L6D0
10
-3130
20
-528.749
0
VERTEX
8
L6D0
10
-3130
20
-605.749
0
VERTEX
8
L6D0
10
-3118
20
-605.749
0
VERTEX
8
L6D0
10
-3118
20
-528.749
0
VERTEX
8
L6D0
10
-3114
20
-528.749
0
VERTEX
8
L6D0
10
-3114
20
-605.749
0
VERTEX
8
L6D0
10
-3102
20
-605.749
0
VERTEX
8
L6D0
10
-3102
20
-528.749
0
VERTEX
8
L6D0
10
-3098
20
-528.749
0
VERTEX
8
L6D0
10
-3098
20
-605.749
0
VERTEX
8
L6D0
10
-3086
20
-605.749
0
VERTEX
8
L6D0
10
-3086
20
-528.749
0
VERTEX
8
L6D0
10
-3082
20
-528.749
0
VERTEX
8
L6D0
10
-3082
20
-605.749
0
VERTEX
8
L6D0
10
-3070
20
-605.749
0
VERTEX
8
L6D0
10
-3070
20
-528.749
0
VERTEX
8
L6D0
10
-3066
20
-528.749
0
VERTEX
8
L6D0
10
-3066
20
-605.749
0
VERTEX
8
L6D0
10
-3054
20
-605.749
0
VERTEX
8
L6D0
10
-3054
20
-528.749
0
VERTEX
8
L6D0
10
-3050
20
-528.749
0
VERTEX
8
L6D0
10
-3050
20
-605.749
0
VERTEX
8
L6D0
10
-3038
20
-605.749
0
VERTEX
8
L6D0
10
-3038
20
-528.749
0
VERTEX
8
L6D0
10
-3034
20
-528.749
0
VERTEX
8
L6D0
10
-3034
20
-605.749
0
VERTEX
8
L6D0
10
-3022
20
-605.749
0
VERTEX
8
L6D0
10
-3022
20
-528.749
0
VERTEX
8
L6D0
10
-3018
20
-528.749
0
VERTEX
8
L6D0
10
-3018
20
-605.749
0
VERTEX
8
L6D0
10
-3006
20
-605.749
0
VERTEX
8
L6D0
10
-3006
20
-528.749
0
VERTEX
8
L6D0
10
-3002
20
-528.749
0
VERTEX
8
L6D0
10
-3002
20
-605.749
0
VERTEX
8
L6D0
10
-2990
20
-605.749
0
VERTEX
8
L6D0
10
-2990
20
-528.749
0
VERTEX
8
L6D0
10
-2986
20
-528.749
0
VERTEX
8
L6D0
10
-2986
20
-605.749
0
VERTEX
8
L6D0
10
-2974
20
-605.749
0
VERTEX
8
L6D0
10
-2974
20
-528.749
0
VERTEX
8
L6D0
10
-2970
20
-528.749
0
VERTEX
8
L6D0
10
-2970
20
-605.749
0
VERTEX
8
L6D0
10
-2958
20
-605.749
0
VERTEX
8
L6D0
10
-2958
20
-528.749
0
VERTEX
8
L6D0
10
-2954
20
-528.749
0
VERTEX
8
L6D0
10
-2954
20
-605.749
0
VERTEX
8
L6D0
10
-2942
20
-605.749
0
VERTEX
8
L6D0
10
-2942
20
-528.749
0
VERTEX
8
L6D0
10
-2938
20
-528.749
0
VERTEX
8
L6D0
10
-2938
20
-605.749
0
VERTEX
8
L6D0
10
-2926
20
-605.749
0
VERTEX
8
L6D0
10
-2926
20
-528.749
0
VERTEX
8
L6D0
10
-2922
20
-528.749
0
VERTEX
8
L6D0
10
-2922
20
-605.749
0
VERTEX
8
L6D0
10
-2910
20
-605.749
0
VERTEX
8
L6D0
10
-2910
20
-528.749
0
VERTEX
8
L6D0
10
-2906
20
-528.749
0
VERTEX
8
L6D0
10
-2906
20
-605.749
0
VERTEX
8
L6D0
10
-2894
20
-605.749
0
VERTEX
8
L6D0
10
-2894
20
-528.749
0
VERTEX
8
L6D0
10
-2890
20
-528.749
0
VERTEX
8
L6D0
10
-2890
20
-605.749
0
VERTEX
8
L6D0
10
-2878
20
-605.749
0
VERTEX
8
L6D0
10
-2878
20
-528.749
0
VERTEX
8
L6D0
10
-2874
20
-528.749
0
VERTEX
8
L6D0
10
-2874
20
-605.749
0
VERTEX
8
L6D0
10
-2862
20
-605.749
0
VERTEX
8
L6D0
10
-2862
20
-528.749
0
VERTEX
8
L6D0
10
-2858
20
-528.749
0
VERTEX
8
L6D0
10
-2858
20
-605.749
0
VERTEX
8
L6D0
10
-2846
20
-605.749
0
VERTEX
8
L6D0
10
-2846
20
-528.749
0
VERTEX
8
L6D0
10
-2842
20
-528.749
0
VERTEX
8
L6D0
10
-2842
20
-605.749
0
VERTEX
8
L6D0
10
-2830
20
-605.749
0
VERTEX
8
L6D0
10
-2830
20
-528.749
0
VERTEX
8
L6D0
10
-2826
20
-528.749
0
VERTEX
8
L6D0
10
-2826
20
-605.749
0
VERTEX
8
L6D0
10
-2814
20
-605.749
0
VERTEX
8
L6D0
10
-2814
20
-528.749
0
VERTEX
8
L6D0
10
-2810
20
-528.749
0
VERTEX
8
L6D0
10
-2810
20
-605.749
0
VERTEX
8
L6D0
10
-2798
20
-605.749
0
VERTEX
8
L6D0
10
-2798
20
-528.749
0
VERTEX
8
L6D0
10
-2794
20
-528.749
0
VERTEX
8
L6D0
10
-2794
20
-605.749
0
VERTEX
8
L6D0
10
-2782
20
-605.749
0
VERTEX
8
L6D0
10
-2782
20
-528.749
0
VERTEX
8
L6D0
10
-2778
20
-528.749
0
VERTEX
8
L6D0
10
-2778
20
-605.749
0
VERTEX
8
L6D0
10
-2766
20
-605.749
0
VERTEX
8
L6D0
10
-2766
20
-528.749
0
VERTEX
8
L6D0
10
-2762
20
-528.749
0
VERTEX
8
L6D0
10
-2762
20
-605.749
0
VERTEX
8
L6D0
10
-2750
20
-605.749
0
VERTEX
8
L6D0
10
-2750
20
-528.749
0
VERTEX
8
L6D0
10
-2746
20
-528.749
0
VERTEX
8
L6D0
10
-2746
20
-605.749
0
VERTEX
8
L6D0
10
-2734
20
-605.749
0
VERTEX
8
L6D0
10
-2734
20
-528.749
0
VERTEX
8
L6D0
10
-2730
20
-528.749
0
VERTEX
8
L6D0
10
-2730
20
-630.749
0
SEQEND
0
ENDSEC
0
EOF
