0
SECTION
2
HEADER
9
$ACADVER
1
AC1006
0
ENDSEC
0
SECTION
2
TABLES
0
TABLE
2
LAYER
70
2
0
LAYER
70
0
62
1
6
CONTINUOUS
2
L8D0
0
LAYER
70
0
62
2
6
CONTINUOUS
2
L6D0
0
ENDTAB
0
ENDSEC
0
SECTION
2
BLOCKS
0
ENDSEC
0
SECTION
2
ENTITIES
0
POLYLINE
8
L8D0
70
1
40
0
41
0
66
1
0
VERTEX
8
L8D0
10
2766
20
8603
0
VERTEX
8
L8D0
10
2736
20
8614
0
VERTEX
8
L8D0
10
2736
20
8616
0
VERTEX
8
L8D0
10
2766
20
8627
0
SEQEND
0
POLYLINE
8
L8D0
70
0
40
20
41
20
66
1
0
VERTEX
8
L8D0
10
3000.035
20
7225.184
0
VERTEX
8
L8D0
10
3000.035
20
7388.603
0
SEQEND
0
POLYLINE
8
L8D0
70
0
40
2
41
2
66
1
0
VERTEX
8
L8D0
10
4760
20
7986.5
0
VERTEX
8
L8D0
10
4760
20
7998
0
VERTEX
8
L8D0
10
3994.5
20
7998
0
SEQEND
0
POLYLINE
8
L8D0
70
0
40
2
41
2
66
1
0
VERTEX
8
L8D0
10
4760
20
8013.5
0
VERTEX
8
L8D0
10
4760
20
8002
0
VERTEX
8
L8D0
10
3994.5
20
8002
0
SEQEND
0
POLYLINE
8
L8D0
70
1
40
0
41
0
66
1
0
VERTEX
8
L8D0
10
4757.5
20
8012.5
0
VERTEX
8
L8D0
10
4757.5
20
8063.5
0
VERTEX
8
L8D0
10
4762.5
20
8063.5
0
VERTEX
8
L8D0
10
4762.5
20
8012.5
0
SEQEND
0
POLYLINE
8
L8D0
70
1
40
0
41
0
66
1
0
VERTEX
8
L8D0
10
4757.5
20
7936.5
0
VERTEX
8
L8D0
10
4757.5
20
7987.5
0
VERTEX
8
L8D0
10
4762.5
20
7987.5
0
VERTEX
8
L8D0
10
4762.5
20
7936.5
0
SEQEND
0
POLYLINE
8
L8D0
70
1
40
0
41
0
66
1
0
VERTEX
8
L8D0
10
2766
20
8603
0
VERTEX
8
L8D0
10
2766
20
8627
0
VERTEX
8
L8D0
10
3138
20
8627
0
VERTEX
8
L8D0
10
3138
20
8603
0
SEQEND
0
POLYLINE
8
L6D0
70
1
40
0
41
0
66
1
0
VERTEX
8
L6D0
10
2824
20
7399.251
0
VERTEX
8
L6D0
10
2824
20
7474.251
0
VERTEX
8
L6D0
10
1980
20
7474.251
0
VERTEX
8
L6D0
10
1980
20
8499.251
0
VERTEX
8
L6D0
10
1982
20
8499.251
0
VERTEX
8
L6D0
10
1982
20
7499.251
0
VERTEX
8
L6D0
10
1988
20
7499.251
0
VERTEX
8
L6D0
10
1988
20
8499.251
0
VERTEX
8
L6D0
10
1990
20
8499.251
0
VERTEX
8
L6D0
10
1990
20
7499.251
0
VERTEX
8
L6D0
10
1996
20
7499.251
0
VERTEX
8
L6D0
10
1996
20
8499.251
0
VERTEX
8
L6D0
10
1998
20
8499.251
0
VERTEX
8
L6D0
10
1998
20
7499.251
0
VERTEX
8
L6D0
10
2004
20
7499.251
0
VERTEX
8
L6D0
10
2004
20
8499.251
0
VERTEX
8
L6D0
10
2006
20
8499.251
0
VERTEX
8
L6D0
10
2006
20
7499.251
0
VERTEX
8
L6D0
10
2012
20
7499.251
0
VERTEX
8
L6D0
10
2012
20
8499.251
0
VERTEX
8
L6D0
10
2014
20
8499.251
0
VERTEX
8
L6D0
10
2014
20
7499.251
0
VERTEX
8
L6D0
10
2020
20
7499.251
0
VERTEX
8
L6D0
10
2020
20
8499.251
0
VERTEX
8
L6D0
10
2022
20
8499.251
0
VERTEX
8
L6D0
10
2022
20
7499.251
0
VERTEX
8
L6D0
10
2028
20
7499.251
0
VERTEX
8
L6D0
10
2028
20
8499.251
0
VERTEX
8
L6D0
10
2030
20
8499.251
0
VERTEX
8
L6D0
10
2030
20
7499.251
0
VERTEX
8
L6D0
10
2036
20
7499.251
0
VERTEX
8
L6D0
10
2036
20
8499.251
0
VERTEX
8
L6D0
10
2038
20
8499.251
0
VERTEX
8
L6D0
10
2038
20
7499.251
0
VERTEX
8
L6D0
10
2044
20
7499.251
0
VERTEX
8
L6D0
10
2044
20
8499.251
0
VERTEX
8
L6D0
10
2046
20
8499.251
0
VERTEX
8
L6D0
10
2046
20
7499.251
0
VERTEX
8
L6D0
10
2052
20
7499.251
0
VERTEX
8
L6D0
10
2052
20
8499.251
0
VERTEX
8
L6D0
10
2054
20
8499.251
0
VERTEX
8
L6D0
10
2054
20
7499.251
0
VERTEX
8
L6D0
10
2060
20
7499.251
0
VERTEX
8
L6D0
10
2060
20
8499.251
0
VERTEX
8
L6D0
10
2062
20
8499.251
0
VERTEX
8
L6D0
10
2062
20
7499.251
0
VERTEX
8
L6D0
10
2068
20
7499.251
0
VERTEX
8
L6D0
10
2068
20
8499.251
0
VERTEX
8
L6D0
10
2070
20
8499.251
0
VERTEX
8
L6D0
10
2070
20
7499.251
0
VERTEX
8
L6D0
10
2076
20
7499.251
0
VERTEX
8
L6D0
10
2076
20
8499.251
0
VERTEX
8
L6D0
10
2078
20
8499.251
0
VERTEX
8
L6D0
10
2078
20
7499.251
0
VERTEX
8
L6D0
10
2084
20
7499.251
0
VERTEX
8
L6D0
10
2084
20
8499.251
0
VERTEX
8
L6D0
10
2086
20
8499.251
0
VERTEX
8
L6D0
10
2086
20
7499.251
0
VERTEX
8
L6D0
10
2092
20
7499.251
0
VERTEX
8
L6D0
10
2092
20
8499.251
0
VERTEX
8
L6D0
10
2094
20
8499.251
0
VERTEX
8
L6D0
10
2094
20
7499.251
0
VERTEX
8
L6D0
10
2100
20
7499.251
0
VERTEX
8
L6D0
10
2100
20
8499.251
0
VERTEX
8
L6D0
10
2102
20
8499.251
0
VERTEX
8
L6D0
10
2102
20
7499.251
0
VERTEX
8
L6D0
10
2108
20
7499.251
0
VERTEX
8
L6D0
10
2108
20
8499.251
0
VERTEX
8
L6D0
10
2110
20
8499.251
0
VERTEX
8
L6D0
10
2110
20
7499.251
0
VERTEX
8
L6D0
10
2116
20
7499.251
0
VERTEX
8
L6D0
10
2116
20
8499.251
0
VERTEX
8
L6D0
10
2118
20
8499.251
0
VERTEX
8
L6D0
10
2118
20
7499.251
0
VERTEX
8
L6D0
10
2124
20
7499.251
0
VERTEX
8
L6D0
10
2124
20
8499.251
0
VERTEX
8
L6D0
10
2126
20
8499.251
0
VERTEX
8
L6D0
10
2126
20
7499.251
0
VERTEX
8
L6D0
10
2132
20
7499.251
0
VERTEX
8
L6D0
10
2132
20
8499.251
0
VERTEX
8
L6D0
10
2134
20
8499.251
0
VERTEX
8
L6D0
10
2134
20
7499.251
0
VERTEX
8
L6D0
10
2140
20
7499.251
0
VERTEX
8
L6D0
10
2140
20
8499.251
0
VERTEX
8
L6D0
10
2142
20
8499.251
0
VERTEX
8
L6D0
10
2142
20
7499.251
0
VERTEX
8
L6D0
10
2148
20
7499.251
0
VERTEX
8
L6D0
10
2148
20
8499.251
0
VERTEX
8
L6D0
10
2150
20
8499.251
0
VERTEX
8
L6D0
10
2150
20
7499.251
0
VERTEX
8
L6D0
10
2156
20
7499.251
0
VERTEX
8
L6D0
10
2156
20
8499.251
0
VERTEX
8
L6D0
10
2158
20
8499.251
0
VERTEX
8
L6D0
10
2158
20
7499.251
0
VERTEX
8
L6D0
10
2164
20
7499.251
0
VERTEX
8
L6D0
10
2164
20
8499.251
0
VERTEX
8
L6D0
10
2166
20
8499.251
0
VERTEX
8
L6D0
10
2166
20
7499.251
0
VERTEX
8
L6D0
10
2172
20
7499.251
0
VERTEX
8
L6D0
10
2172
20
8499.251
0
VERTEX
8
L6D0
10
2174
20
8499.251
0
VERTEX
8
L6D0
10
2174
20
7499.251
0
VERTEX
8
L6D0
10
2180
20
7499.251
0
VERTEX
8
L6D0
10
2180
20
8499.251
0
VERTEX
8
L6D0
10
2182
20
8499.251
0
VERTEX
8
L6D0
10
2182
20
7499.251
0
VERTEX
8
L6D0
10
2188
20
7499.251
0
VERTEX
8
L6D0
10
2188
20
8499.251
0
VERTEX
8
L6D0
10
2190
20
8499.251
0
VERTEX
8
L6D0
10
2190
20
7499.251
0
VERTEX
8
L6D0
10
2196
20
7499.251
0
VERTEX
8
L6D0
10
2196
20
8499.251
0
VERTEX
8
L6D0
10
2198
20
8499.251
0
VERTEX
8
L6D0
10
2198
20
7499.251
0
VERTEX
8
L6D0
10
2204
20
7499.251
0
VERTEX
8
L6D0
10
2204
20
8499.251
0
VERTEX
8
L6D0
10
2206
20
8499.251
0
VERTEX
8
L6D0
10
2206
20
7499.251
0
VERTEX
8
L6D0
10
2212
20
7499.251
0
VERTEX
8
L6D0
10
2212
20
8499.251
0
VERTEX
8
L6D0
10
2214
20
8499.251
0
VERTEX
8
L6D0
10
2214
20
7499.251
0
VERTEX
8
L6D0
10
2220
20
7499.251
0
VERTEX
8
L6D0
10
2220
20
8499.251
0
VERTEX
8
L6D0
10
2222
20
8499.251
0
VERTEX
8
L6D0
10
2222
20
7499.251
0
VERTEX
8
L6D0
10
2228
20
7499.251
0
VERTEX
8
L6D0
10
2228
20
8499.251
0
VERTEX
8
L6D0
10
2230
20
8499.251
0
VERTEX
8
L6D0
10
2230
20
7499.251
0
VERTEX
8
L6D0
10
2236
20
7499.251
0
VERTEX
8
L6D0
10
2236
20
8499.251
0
VERTEX
8
L6D0
10
2238
20
8499.251
0
VERTEX
8
L6D0
10
2238
20
7499.251
0
VERTEX
8
L6D0
10
2244
20
7499.251
0
VERTEX
8
L6D0
10
2244
20
8499.251
0
VERTEX
8
L6D0
10
2246
20
8499.251
0
VERTEX
8
L6D0
10
2246
20
7499.251
0
VERTEX
8
L6D0
10
2252
20
7499.251
0
VERTEX
8
L6D0
10
2252
20
8499.251
0
VERTEX
8
L6D0
10
2254
20
8499.251
0
VERTEX
8
L6D0
10
2254
20
7499.251
0
VERTEX
8
L6D0
10
2260
20
7499.251
0
VERTEX
8
L6D0
10
2260
20
8499.251
0
VERTEX
8
L6D0
10
2262
20
8499.251
0
VERTEX
8
L6D0
10
2262
20
7499.251
0
VERTEX
8
L6D0
10
2268
20
7499.251
0
VERTEX
8
L6D0
10
2268
20
8499.251
0
VERTEX
8
L6D0
10
2270
20
8499.251
0
VERTEX
8
L6D0
10
2270
20
7499.251
0
VERTEX
8
L6D0
10
2276
20
7499.251
0
VERTEX
8
L6D0
10
2276
20
8499.251
0
VERTEX
8
L6D0
10
2278
20
8499.251
0
VERTEX
8
L6D0
10
2278
20
7499.251
0
VERTEX
8
L6D0
10
2284
20
7499.251
0
VERTEX
8
L6D0
10
2284
20
8499.251
0
VERTEX
8
L6D0
10
2286
20
8499.251
0
VERTEX
8
L6D0
10
2286
20
7499.251
0
VERTEX
8
L6D0
10
2292
20
7499.251
0
VERTEX
8
L6D0
10
2292
20
8499.251
0
VERTEX
8
L6D0
10
2294
20
8499.251
0
VERTEX
8
L6D0
10
2294
20
7499.251
0
VERTEX
8
L6D0
10
2300
20
7499.251
0
VERTEX
8
L6D0
10
2300
20
8499.251
0
VERTEX
8
L6D0
10
2302
20
8499.251
0
VERTEX
8
L6D0
10
2302
20
7499.251
0
VERTEX
8
L6D0
10
2308
20
7499.251
0
VERTEX
8
L6D0
10
2308
20
8499.251
0
VERTEX
8
L6D0
10
2310
20
8499.251
0
VERTEX
8
L6D0
10
2310
20
7499.251
0
VERTEX
8
L6D0
10
2316
20
7499.251
0
VERTEX
8
L6D0
10
2316
20
8499.251
0
VERTEX
8
L6D0
10
2318
20
8499.251
0
VERTEX
8
L6D0
10
2318
20
7499.251
0
VERTEX
8
L6D0
10
2324
20
7499.251
0
VERTEX
8
L6D0
10
2324
20
8499.251
0
VERTEX
8
L6D0
10
2326
20
8499.251
0
VERTEX
8
L6D0
10
2326
20
7499.251
0
VERTEX
8
L6D0
10
2332
20
7499.251
0
VERTEX
8
L6D0
10
2332
20
8499.251
0
VERTEX
8
L6D0
10
2334
20
8499.251
0
VERTEX
8
L6D0
10
2334
20
7499.251
0
VERTEX
8
L6D0
10
2340
20
7499.251
0
VERTEX
8
L6D0
10
2340
20
8499.251
0
VERTEX
8
L6D0
10
2342
20
8499.251
0
VERTEX
8
L6D0
10
2342
20
7499.251
0
VERTEX
8
L6D0
10
2348
20
7499.251
0
VERTEX
8
L6D0
10
2348
20
8499.251
0
VERTEX
8
L6D0
10
2350
20
8499.251
0
VERTEX
8
L6D0
10
2350
20
7499.251
0
VERTEX
8
L6D0
10
2356
20
7499.251
0
VERTEX
8
L6D0
10
2356
20
8499.251
0
VERTEX
8
L6D0
10
2358
20
8499.251
0
VERTEX
8
L6D0
10
2358
20
7499.251
0
VERTEX
8
L6D0
10
2364
20
7499.251
0
VERTEX
8
L6D0
10
2364
20
8499.251
0
VERTEX
8
L6D0
10
2366
20
8499.251
0
VERTEX
8
L6D0
10
2366
20
7499.251
0
VERTEX
8
L6D0
10
2372
20
7499.251
0
VERTEX
8
L6D0
10
2372
20
8499.251
0
VERTEX
8
L6D0
10
2374
20
8499.251
0
VERTEX
8
L6D0
10
2374
20
7499.251
0
VERTEX
8
L6D0
10
2380
20
7499.251
0
VERTEX
8
L6D0
10
2380
20
8499.251
0
VERTEX
8
L6D0
10
2382
20
8499.251
0
VERTEX
8
L6D0
10
2382
20
7499.251
0
VERTEX
8
L6D0
10
2388
20
7499.251
0
VERTEX
8
L6D0
10
2388
20
8499.251
0
VERTEX
8
L6D0
10
2390
20
8499.251
0
VERTEX
8
L6D0
10
2390
20
7499.251
0
VERTEX
8
L6D0
10
2396
20
7499.251
0
VERTEX
8
L6D0
10
2396
20
8499.251
0
VERTEX
8
L6D0
10
2398
20
8499.251
0
VERTEX
8
L6D0
10
2398
20
7499.251
0
VERTEX
8
L6D0
10
2404
20
7499.251
0
VERTEX
8
L6D0
10
2404
20
8499.251
0
VERTEX
8
L6D0
10
2406
20
8499.251
0
VERTEX
8
L6D0
10
2406
20
7499.251
0
VERTEX
8
L6D0
10
2412
20
7499.251
0
VERTEX
8
L6D0
10
2412
20
8499.251
0
VERTEX
8
L6D0
10
2414
20
8499.251
0
VERTEX
8
L6D0
10
2414
20
7499.251
0
VERTEX
8
L6D0
10
2420
20
7499.251
0
VERTEX
8
L6D0
10
2420
20
8499.251
0
VERTEX
8
L6D0
10
2422
20
8499.251
0
VERTEX
8
L6D0
10
2422
20
7499.251
0
VERTEX
8
L6D0
10
2428
20
7499.251
0
VERTEX
8
L6D0
10
2428
20
8499.251
0
VERTEX
8
L6D0
10
2430
20
8499.251
0
VERTEX
8
L6D0
10
2430
20
7499.251
0
VERTEX
8
L6D0
10
2436
20
7499.251
0
VERTEX
8
L6D0
10
2436
20
8499.251
0
VERTEX
8
L6D0
10
2438
20
8499.251
0
VERTEX
8
L6D0
10
2438
20
7499.251
0
VERTEX
8
L6D0
10
2444
20
7499.251
0
VERTEX
8
L6D0
10
2444
20
8499.251
0
VERTEX
8
L6D0
10
2446
20
8499.251
0
VERTEX
8
L6D0
10
2446
20
7499.251
0
VERTEX
8
L6D0
10
2452
20
7499.251
0
VERTEX
8
L6D0
10
2452
20
8499.251
0
VERTEX
8
L6D0
10
2454
20
8499.251
0
VERTEX
8
L6D0
10
2454
20
7499.251
0
VERTEX
8
L6D0
10
2460
20
7499.251
0
VERTEX
8
L6D0
10
2460
20
8499.251
0
VERTEX
8
L6D0
10
2462
20
8499.251
0
VERTEX
8
L6D0
10
2462
20
7499.251
0
VERTEX
8
L6D0
10
2468
20
7499.251
0
VERTEX
8
L6D0
10
2468
20
8499.251
0
VERTEX
8
L6D0
10
2470
20
8499.251
0
VERTEX
8
L6D0
10
2470
20
7499.251
0
VERTEX
8
L6D0
10
2476
20
7499.251
0
VERTEX
8
L6D0
10
2476
20
8499.251
0
VERTEX
8
L6D0
10
2478
20
8499.251
0
VERTEX
8
L6D0
10
2478
20
7499.251
0
VERTEX
8
L6D0
10
2484
20
7499.251
0
VERTEX
8
L6D0
10
2484
20
8499.251
0
VERTEX
8
L6D0
10
2486
20
8499.251
0
VERTEX
8
L6D0
10
2486
20
7499.251
0
VERTEX
8
L6D0
10
2492
20
7499.251
0
VERTEX
8
L6D0
10
2492
20
8499.251
0
VERTEX
8
L6D0
10
2494
20
8499.251
0
VERTEX
8
L6D0
10
2494
20
7499.251
0
VERTEX
8
L6D0
10
2500
20
7499.251
0
VERTEX
8
L6D0
10
2500
20
8499.251
0
VERTEX
8
L6D0
10
2502
20
8499.251
0
VERTEX
8
L6D0
10
2502
20
7499.251
0
VERTEX
8
L6D0
10
2508
20
7499.251
0
VERTEX
8
L6D0
10
2508
20
8499.251
0
VERTEX
8
L6D0
10
2510
20
8499.251
0
VERTEX
8
L6D0
10
2510
20
7499.251
0
VERTEX
8
L6D0
10
2516
20
7499.251
0
VERTEX
8
L6D0
10
2516
20
8499.251
0
VERTEX
8
L6D0
10
2518
20
8499.251
0
VERTEX
8
L6D0
10
2518
20
7499.251
0
VERTEX
8
L6D0
10
2524
20
7499.251
0
VERTEX
8
L6D0
10
2524
20
8499.251
0
VERTEX
8
L6D0
10
2526
20
8499.251
0
VERTEX
8
L6D0
10
2526
20
7499.251
0
VERTEX
8
L6D0
10
2532
20
7499.251
0
VERTEX
8
L6D0
10
2532
20
8499.251
0
VERTEX
8
L6D0
10
2534
20
8499.251
0
VERTEX
8
L6D0
10
2534
20
7499.251
0
VERTEX
8
L6D0
10
2540
20
7499.251
0
VERTEX
8
L6D0
10
2540
20
8499.251
0
VERTEX
8
L6D0
10
2542
20
8499.251
0
VERTEX
8
L6D0
10
2542
20
7499.251
0
VERTEX
8
L6D0
10
2548
20
7499.251
0
VERTEX
8
L6D0
10
2548
20
8499.251
0
VERTEX
8
L6D0
10
2550
20
8499.251
0
VERTEX
8
L6D0
10
2550
20
7499.251
0
VERTEX
8
L6D0
10
2556
20
7499.251
0
VERTEX
8
L6D0
10
2556
20
8499.251
0
VERTEX
8
L6D0
10
2558
20
8499.251
0
VERTEX
8
L6D0
10
2558
20
7499.251
0
VERTEX
8
L6D0
10
2564
20
7499.251
0
VERTEX
8
L6D0
10
2564
20
8499.251
0
VERTEX
8
L6D0
10
2566
20
8499.251
0
VERTEX
8
L6D0
10
2566
20
7499.251
0
VERTEX
8
L6D0
10
2572
20
7499.251
0
VERTEX
8
L6D0
10
2572
20
8499.251
0
VERTEX
8
L6D0
10
2574
20
8499.251
0
VERTEX
8
L6D0
10
2574
20
7499.251
0
VERTEX
8
L6D0
10
2580
20
7499.251
0
VERTEX
8
L6D0
10
2580
20
8499.251
0
VERTEX
8
L6D0
10
2582
20
8499.251
0
VERTEX
8
L6D0
10
2582
20
7499.251
0
VERTEX
8
L6D0
10
2588
20
7499.251
0
VERTEX
8
L6D0
10
2588
20
8499.251
0
VERTEX
8
L6D0
10
2590
20
8499.251
0
VERTEX
8
L6D0
10
2590
20
7499.251
0
VERTEX
8
L6D0
10
2596
20
7499.251
0
VERTEX
8
L6D0
10
2596
20
8499.251
0
VERTEX
8
L6D0
10
2598
20
8499.251
0
VERTEX
8
L6D0
10
2598
20
7499.251
0
VERTEX
8
L6D0
10
2604
20
7499.251
0
VERTEX
8
L6D0
10
2604
20
8499.251
0
VERTEX
8
L6D0
10
2606
20
8499.251
0
VERTEX
8
L6D0
10
2606
20
7499.251
0
VERTEX
8
L6D0
10
2612
20
7499.251
0
VERTEX
8
L6D0
10
2612
20
8499.251
0
VERTEX
8
L6D0
10
2614
20
8499.251
0
VERTEX
8
L6D0
10
2614
20
7499.251
0
VERTEX
8
L6D0
10
2620
20
7499.251
0
VERTEX
8
L6D0
10
2620
20
8499.251
0
VERTEX
8
L6D0
10
2622
20
8499.251
0
VERTEX
8
L6D0
10
2622
20
7499.251
0
VERTEX
8
L6D0
10
2628
20
7499.251
0
VERTEX
8
L6D0
10
2628
20
8499.251
0
VERTEX
8
L6D0
10
2630
20
8499.251
0
VERTEX
8
L6D0
10
2630
20
7499.251
0
VERTEX
8
L6D0
10
2636
20
7499.251
0
VERTEX
8
L6D0
10
2636
20
8499.251
0
VERTEX
8
L6D0
10
2638
20
8499.251
0
VERTEX
8
L6D0
10
2638
20
7499.251
0
VERTEX
8
L6D0
10
2644
20
7499.251
0
VERTEX
8
L6D0
10
2644
20
8499.251
0
VERTEX
8
L6D0
10
2646
20
8499.251
0
VERTEX
8
L6D0
10
2646
20
7499.251
0
VERTEX
8
L6D0
10
2652
20
7499.251
0
VERTEX
8
L6D0
10
2652
20
8499.251
0
VERTEX
8
L6D0
10
2654
20
8499.251
0
VERTEX
8
L6D0
10
2654
20
7499.251
0
VERTEX
8
L6D0
10
2660
20
7499.251
0
VERTEX
8
L6D0
10
2660
20
8499.251
0
VERTEX
8
L6D0
10
2662
20
8499.251
0
VERTEX
8
L6D0
10
2662
20
7499.251
0
VERTEX
8
L6D0
10
2668
20
7499.251
0
VERTEX
8
L6D0
10
2668
20
8499.251
0
VERTEX
8
L6D0
10
2670
20
8499.251
0
VERTEX
8
L6D0
10
2670
20
7499.251
0
VERTEX
8
L6D0
10
2676
20
7499.251
0
VERTEX
8
L6D0
10
2676
20
8499.251
0
VERTEX
8
L6D0
10
2678
20
8499.251
0
VERTEX
8
L6D0
10
2678
20
7499.251
0
VERTEX
8
L6D0
10
2684
20
7499.251
0
VERTEX
8
L6D0
10
2684
20
8499.251
0
VERTEX
8
L6D0
10
2686
20
8499.251
0
VERTEX
8
L6D0
10
2686
20
7499.251
0
VERTEX
8
L6D0
10
2692
20
7499.251
0
VERTEX
8
L6D0
10
2692
20
8499.251
0
VERTEX
8
L6D0
10
2694
20
8499.251
0
VERTEX
8
L6D0
10
2694
20
7499.251
0
VERTEX
8
L6D0
10
2700
20
7499.251
0
VERTEX
8
L6D0
10
2700
20
8499.251
0
VERTEX
8
L6D0
10
2702
20
8499.251
0
VERTEX
8
L6D0
10
2702
20
7499.251
0
VERTEX
8
L6D0
10
2708
20
7499.251
0
VERTEX
8
L6D0
10
2708
20
8499.251
0
VERTEX
8
L6D0
10
2710
20
8499.251
0
VERTEX
8
L6D0
10
2710
20
7499.251
0
VERTEX
8
L6D0
10
2716
20
7499.251
0
VERTEX
8
L6D0
10
2716
20
8499.251
0
VERTEX
8
L6D0
10
2718
20
8499.251
0
VERTEX
8
L6D0
10
2718
20
7499.251
0
VERTEX
8
L6D0
10
2724
20
7499.251
0
VERTEX
8
L6D0
10
2724
20
8499.251
0
VERTEX
8
L6D0
10
2726
20
8499.251
0
VERTEX
8
L6D0
10
2726
20
7499.251
0
VERTEX
8
L6D0
10
2732
20
7499.251
0
VERTEX
8
L6D0
10
2732
20
8499.251
0
VERTEX
8
L6D0
10
2734
20
8499.251
0
VERTEX
8
L6D0
10
2734
20
7499.251
0
VERTEX
8
L6D0
10
2740
20
7499.251
0
VERTEX
8
L6D0
10
2740
20
8499.251
0
VERTEX
8
L6D0
10
2742
20
8499.251
0
VERTEX
8
L6D0
10
2742
20
7499.251
0
VERTEX
8
L6D0
10
2748
20
7499.251
0
VERTEX
8
L6D0
10
2748
20
8499.251
0
VERTEX
8
L6D0
10
2750
20
8499.251
0
VERTEX
8
L6D0
10
2750
20
7499.251
0
VERTEX
8
L6D0
10
2756
20
7499.251
0
VERTEX
8
L6D0
10
2756
20
8499.251
0
VERTEX
8
L6D0
10
2758
20
8499.251
0
VERTEX
8
L6D0
10
2758
20
7499.251
0
VERTEX
8
L6D0
10
2764
20
7499.251
0
VERTEX
8
L6D0
10
2764
20
8499.251
0
VERTEX
8
L6D0
10
2766
20
8499.251
0
VERTEX
8
L6D0
10
2766
20
7499.251
0
VERTEX
8
L6D0
10
2772
20
7499.251
0
VERTEX
8
L6D0
10
2772
20
8499.251
0
VERTEX
8
L6D0
10
2774
20
8499.251
0
VERTEX
8
L6D0
10
2774
20
7499.251
0
VERTEX
8
L6D0
10
2780
20
7499.251
0
VERTEX
8
L6D0
10
2780
20
8499.251
0
VERTEX
8
L6D0
10
2782
20
8499.251
0
VERTEX
8
L6D0
10
2782
20
7499.251
0
VERTEX
8
L6D0
10
2788
20
7499.251
0
VERTEX
8
L6D0
10
2788
20
8499.251
0
VERTEX
8
L6D0
10
2790
20
8499.251
0
VERTEX
8
L6D0
10
2790
20
7499.251
0
VERTEX
8
L6D0
10
2796
20
7499.251
0
VERTEX
8
L6D0
10
2796
20
8499.251
0
VERTEX
8
L6D0
10
2798
20
8499.251
0
VERTEX
8
L6D0
10
2798
20
7499.251
0
VERTEX
8
L6D0
10
2804
20
7499.251
0
VERTEX
8
L6D0
10
2804
20
8499.251
0
VERTEX
8
L6D0
10
2806
20
8499.251
0
VERTEX
8
L6D0
10
2806
20
7499.251
0
VERTEX
8
L6D0
10
2812
20
7499.251
0
VERTEX
8
L6D0
10
2812
20
8499.251
0
VERTEX
8
L6D0
10
2814
20
8499.251
0
VERTEX
8
L6D0
10
2814
20
7499.251
0
VERTEX
8
L6D0
10
2820
20
7499.251
0
VERTEX
8
L6D0
10
2820
20
8499.251
0
VERTEX
8
L6D0
10
2822
20
8499.251
0
VERTEX
8
L6D0
10
2822
20
7499.251
0
VERTEX
8
L6D0
10
2828
20
7499.251
0
VERTEX
8
L6D0
10
2828
20
8499.251
0
VERTEX
8
L6D0
10
2830
20
8499.251
0
VERTEX
8
L6D0
10
2830
20
7499.251
0
VERTEX
8
L6D0
10
2836
20
7499.251
0
VERTEX
8
L6D0
10
2836
20
8499.251
0
VERTEX
8
L6D0
10
2838
20
8499.251
0
VERTEX
8
L6D0
10
2838
20
7499.251
0
VERTEX
8
L6D0
10
2844
20
7499.251
0
VERTEX
8
L6D0
10
2844
20
8499.251
0
VERTEX
8
L6D0
10
2846
20
8499.251
0
VERTEX
8
L6D0
10
2846
20
7499.251
0
VERTEX
8
L6D0
10
2852
20
7499.251
0
VERTEX
8
L6D0
10
2852
20
8499.251
0
VERTEX
8
L6D0
10
2854
20
8499.251
0
VERTEX
8
L6D0
10
2854
20
7499.251
0
VERTEX
8
L6D0
10
2860
20
7499.251
0
VERTEX
8
L6D0
10
2860
20
8499.251
0
VERTEX
8
L6D0
10
2862
20
8499.251
0
VERTEX
8
L6D0
10
2862
20
7499.251
0
VERTEX
8
L6D0
10
2868
20
7499.251
0
VERTEX
8
L6D0
10
2868
20
8499.251
0
VERTEX
8
L6D0
10
2870
20
8499.251
0
VERTEX
8
L6D0
10
2870
20
7499.251
0
VERTEX
8
L6D0
10
2876
20
7499.251
0
VERTEX
8
L6D0
10
2876
20
8499.251
0
VERTEX
8
L6D0
10
2878
20
8499.251
0
VERTEX
8
L6D0
10
2878
20
7499.251
0
VERTEX
8
L6D0
10
2884
20
7499.251
0
VERTEX
8
L6D0
10
2884
20
8499.251
0
VERTEX
8
L6D0
10
2886
20
8499.251
0
VERTEX
8
L6D0
10
2886
20
7499.251
0
VERTEX
8
L6D0
10
2892
20
7499.251
0
VERTEX
8
L6D0
10
2892
20
8499.251
0
VERTEX
8
L6D0
10
2894
20
8499.251
0
VERTEX
8
L6D0
10
2894
20
7499.251
0
VERTEX
8
L6D0
10
2900
20
7499.251
0
VERTEX
8
L6D0
10
2900
20
8499.251
0
VERTEX
8
L6D0
10
2902
20
8499.251
0
VERTEX
8
L6D0
10
2902
20
7499.251
0
VERTEX
8
L6D0
10
2908
20
7499.251
0
VERTEX
8
L6D0
10
2908
20
8499.251
0
VERTEX
8
L6D0
10
2910
20
8499.251
0
VERTEX
8
L6D0
10
2910
20
7499.251
0
VERTEX
8
L6D0
10
2916
20
7499.251
0
VERTEX
8
L6D0
10
2916
20
8499.251
0
VERTEX
8
L6D0
10
2918
20
8499.251
0
VERTEX
8
L6D0
10
2918
20
7499.251
0
VERTEX
8
L6D0
10
2924
20
7499.251
0
VERTEX
8
L6D0
10
2924
20
8499.251
0
VERTEX
8
L6D0
10
2926
20
8499.251
0
VERTEX
8
L6D0
10
2926
20
7499.251
0
VERTEX
8
L6D0
10
2932
20
7499.251
0
VERTEX
8
L6D0
10
2932
20
8499.251
0
VERTEX
8
L6D0
10
2934
20
8499.251
0
VERTEX
8
L6D0
10
2934
20
7499.251
0
VERTEX
8
L6D0
10
2940
20
7499.251
0
VERTEX
8
L6D0
10
2940
20
8499.251
0
VERTEX
8
L6D0
10
2942
20
8499.251
0
VERTEX
8
L6D0
10
2942
20
7499.251
0
VERTEX
8
L6D0
10
2948
20
7499.251
0
VERTEX
8
L6D0
10
2948
20
8499.251
0
VERTEX
8
L6D0
10
2950
20
8499.251
0
VERTEX
8
L6D0
10
2950
20
7499.251
0
VERTEX
8
L6D0
10
2956
20
7499.251
0
VERTEX
8
L6D0
10
2956
20
8499.251
0
VERTEX
8
L6D0
10
2958
20
8499.251
0
VERTEX
8
L6D0
10
2958
20
7499.251
0
VERTEX
8
L6D0
10
2964
20
7499.251
0
VERTEX
8
L6D0
10
2964
20
8499.251
0
VERTEX
8
L6D0
10
2966
20
8499.251
0
VERTEX
8
L6D0
10
2966
20
7499.251
0
VERTEX
8
L6D0
10
2972
20
7499.251
0
VERTEX
8
L6D0
10
2972
20
8499.251
0
VERTEX
8
L6D0
10
2974
20
8499.251
0
VERTEX
8
L6D0
10
2974
20
7499.251
0
VERTEX
8
L6D0
10
2980
20
7499.251
0
VERTEX
8
L6D0
10
2980
20
8499.251
0
VERTEX
8
L6D0
10
2982
20
8499.251
0
VERTEX
8
L6D0
10
2982
20
7499.251
0
VERTEX
8
L6D0
10
2988
20
7499.251
0
VERTEX
8
L6D0
10
2988
20
8499.251
0
VERTEX
8
L6D0
10
2990
20
8499.251
0
VERTEX
8
L6D0
10
2990
20
7499.251
0
VERTEX
8
L6D0
10
2996
20
7499.251
0
VERTEX
8
L6D0
10
2996
20
8499.251
0
VERTEX
8
L6D0
10
2998
20
8499.251
0
VERTEX
8
L6D0
10
2998
20
7499.251
0
VERTEX
8
L6D0
10
3004
20
7499.251
0
VERTEX
8
L6D0
10
3004
20
8499.251
0
VERTEX
8
L6D0
10
3006
20
8499.251
0
VERTEX
8
L6D0
10
3006
20
7499.251
0
VERTEX
8
L6D0
10
3012
20
7499.251
0
VERTEX
8
L6D0
10
3012
20
8499.251
0
VERTEX
8
L6D0
10
3014
20
8499.251
0
VERTEX
8
L6D0
10
3014
20
7499.251
0
VERTEX
8
L6D0
10
3020
20
7499.251
0
VERTEX
8
L6D0
10
3020
20
8499.251
0
VERTEX
8
L6D0
10
3022
20
8499.251
0
VERTEX
8
L6D0
10
3022
20
7499.251
0
VERTEX
8
L6D0
10
3028
20
7499.251
0
VERTEX
8
L6D0
10
3028
20
8499.251
0
VERTEX
8
L6D0
10
3030
20
8499.251
0
VERTEX
8
L6D0
10
3030
20
7499.251
0
VERTEX
8
L6D0
10
3036
20
7499.251
0
VERTEX
8
L6D0
10
3036
20
8499.251
0
VERTEX
8
L6D0
10
3038
20
8499.251
0
VERTEX
8
L6D0
10
3038
20
7499.251
0
VERTEX
8
L6D0
10
3044
20
7499.251
0
VERTEX
8
L6D0
10
3044
20
8499.251
0
VERTEX
8
L6D0
10
3046
20
8499.251
0
VERTEX
8
L6D0
10
3046
20
7499.251
0
VERTEX
8
L6D0
10
3052
20
7499.251
0
VERTEX
8
L6D0
10
3052
20
8499.251
0
VERTEX
8
L6D0
10
3054
20
8499.251
0
VERTEX
8
L6D0
10
3054
20
7499.251
0
VERTEX
8
L6D0
10
3060
20
7499.251
0
VERTEX
8
L6D0
10
3060
20
8499.251
0
VERTEX
8
L6D0
10
3062
20
8499.251
0
VERTEX
8
L6D0
10
3062
20
7499.251
0
VERTEX
8
L6D0
10
3068
20
7499.251
0
VERTEX
8
L6D0
10
3068
20
8499.251
0
VERTEX
8
L6D0
10
3070
20
8499.251
0
VERTEX
8
L6D0
10
3070
20
7499.251
0
VERTEX
8
L6D0
10
3076
20
7499.251
0
VERTEX
8
L6D0
10
3076
20
8499.251
0
VERTEX
8
L6D0
10
3078
20
8499.251
0
VERTEX
8
L6D0
10
3078
20
7499.251
0
VERTEX
8
L6D0
10
3084
20
7499.251
0
VERTEX
8
L6D0
10
3084
20
8499.251
0
VERTEX
8
L6D0
10
3086
20
8499.251
0
VERTEX
8
L6D0
10
3086
20
7499.251
0
VERTEX
8
L6D0
10
3092
20
7499.251
0
VERTEX
8
L6D0
10
3092
20
8499.251
0
VERTEX
8
L6D0
10
3094
20
8499.251
0
VERTEX
8
L6D0
10
3094
20
7499.251
0
VERTEX
8
L6D0
10
3100
20
7499.251
0
VERTEX
8
L6D0
10
3100
20
8499.251
0
VERTEX
8
L6D0
10
3102
20
8499.251
0
VERTEX
8
L6D0
10
3102
20
7499.251
0
VERTEX
8
L6D0
10
3108
20
7499.251
0
VERTEX
8
L6D0
10
3108
20
8499.251
0
VERTEX
8
L6D0
10
3110
20
8499.251
0
VERTEX
8
L6D0
10
3110
20
7499.251
0
VERTEX
8
L6D0
10
3116
20
7499.251
0
VERTEX
8
L6D0
10
3116
20
8499.251
0
VERTEX
8
L6D0
10
3118
20
8499.251
0
VERTEX
8
L6D0
10
3118
20
7499.251
0
VERTEX
8
L6D0
10
3124
20
7499.251
0
VERTEX
8
L6D0
10
3124
20
8499.251
0
VERTEX
8
L6D0
10
3126
20
8499.251
0
VERTEX
8
L6D0
10
3126
20
7499.251
0
VERTEX
8
L6D0
10
3132
20
7499.251
0
VERTEX
8
L6D0
10
3132
20
8499.251
0
VERTEX
8
L6D0
10
3134
20
8499.251
0
VERTEX
8
L6D0
10
3134
20
7499.251
0
VERTEX
8
L6D0
10
3140
20
7499.251
0
VERTEX
8
L6D0
10
3140
20
8499.251
0
VERTEX
8
L6D0
10
3142
20
8499.251
0
VERTEX
8
L6D0
10
3142
20
7499.251
0
VERTEX
8
L6D0
10
3148
20
7499.251
0
VERTEX
8
L6D0
10
3148
20
8499.251
0
VERTEX
8
L6D0
10
3150
20
8499.251
0
VERTEX
8
L6D0
10
3150
20
7499.251
0
VERTEX
8
L6D0
10
3156
20
7499.251
0
VERTEX
8
L6D0
10
3156
20
8499.251
0
VERTEX
8
L6D0
10
3158
20
8499.251
0
VERTEX
8
L6D0
10
3158
20
7499.251
0
VERTEX
8
L6D0
10
3164
20
7499.251
0
VERTEX
8
L6D0
10
3164
20
8499.251
0
VERTEX
8
L6D0
10
3166
20
8499.251
0
VERTEX
8
L6D0
10
3166
20
7499.251
0
VERTEX
8
L6D0
10
3172
20
7499.251
0
VERTEX
8
L6D0
10
3172
20
8499.251
0
VERTEX
8
L6D0
10
3174
20
8499.251
0
VERTEX
8
L6D0
10
3174
20
7499.251
0
VERTEX
8
L6D0
10
3180
20
7499.251
0
VERTEX
8
L6D0
10
3180
20
8499.251
0
VERTEX
8
L6D0
10
3182
20
8499.251
0
VERTEX
8
L6D0
10
3182
20
7499.251
0
VERTEX
8
L6D0
10
3188
20
7499.251
0
VERTEX
8
L6D0
10
3188
20
8499.251
0
VERTEX
8
L6D0
10
3190
20
8499.251
0
VERTEX
8
L6D0
10
3190
20
7499.251
0
VERTEX
8
L6D0
10
3196
20
7499.251
0
VERTEX
8
L6D0
10
3196
20
8499.251
0
VERTEX
8
L6D0
10
3198
20
8499.251
0
VERTEX
8
L6D0
10
3198
20
7499.251
0
VERTEX
8
L6D0
10
3204
20
7499.251
0
VERTEX
8
L6D0
10
3204
20
8499.251
0
VERTEX
8
L6D0
10
3206
20
8499.251
0
VERTEX
8
L6D0
10
3206
20
7499.251
0
VERTEX
8
L6D0
10
3212
20
7499.251
0
VERTEX
8
L6D0
10
3212
20
8499.251
0
VERTEX
8
L6D0
10
3214
20
8499.251
0
VERTEX
8
L6D0
10
3214
20
7499.251
0
VERTEX
8
L6D0
10
3220
20
7499.251
0
VERTEX
8
L6D0
10
3220
20
8499.251
0
VERTEX
8
L6D0
10
3222
20
8499.251
0
VERTEX
8
L6D0
10
3222
20
7499.251
0
VERTEX
8
L6D0
10
3228
20
7499.251
0
VERTEX
8
L6D0
10
3228
20
8499.251
0
VERTEX
8
L6D0
10
3230
20
8499.251
0
VERTEX
8
L6D0
10
3230
20
7499.251
0
VERTEX
8
L6D0
10
3236
20
7499.251
0
VERTEX
8
L6D0
10
3236
20
8499.251
0
VERTEX
8
L6D0
10
3238
20
8499.251
0
VERTEX
8
L6D0
10
3238
20
7499.251
0
VERTEX
8
L6D0
10
3244
20
7499.251
0
VERTEX
8
L6D0
10
3244
20
8499.251
0
VERTEX
8
L6D0
10
3246
20
8499.251
0
VERTEX
8
L6D0
10
3246
20
7499.251
0
VERTEX
8
L6D0
10
3252
20
7499.251
0
VERTEX
8
L6D0
10
3252
20
8499.251
0
VERTEX
8
L6D0
10
3254
20
8499.251
0
VERTEX
8
L6D0
10
3254
20
7499.251
0
VERTEX
8
L6D0
10
3260
20
7499.251
0
VERTEX
8
L6D0
10
3260
20
8499.251
0
VERTEX
8
L6D0
10
3262
20
8499.251
0
VERTEX
8
L6D0
10
3262
20
7499.251
0
VERTEX
8
L6D0
10
3268
20
7499.251
0
VERTEX
8
L6D0
10
3268
20
8499.251
0
VERTEX
8
L6D0
10
3270
20
8499.251
0
VERTEX
8
L6D0
10
3270
20
7499.251
0
VERTEX
8
L6D0
10
3276
20
7499.251
0
VERTEX
8
L6D0
10
3276
20
8499.251
0
VERTEX
8
L6D0
10
3278
20
8499.251
0
VERTEX
8
L6D0
10
3278
20
7499.251
0
VERTEX
8
L6D0
10
3284
20
7499.251
0
VERTEX
8
L6D0
10
3284
20
8499.251
0
VERTEX
8
L6D0
10
3286
20
8499.251
0
VERTEX
8
L6D0
10
3286
20
7499.251
0
VERTEX
8
L6D0
10
3292
20
7499.251
0
VERTEX
8
L6D0
10
3292
20
8499.251
0
VERTEX
8
L6D0
10
3294
20
8499.251
0
VERTEX
8
L6D0
10
3294
20
7499.251
0
VERTEX
8
L6D0
10
3300
20
7499.251
0
VERTEX
8
L6D0
10
3300
20
8499.251
0
VERTEX
8
L6D0
10
3302
20
8499.251
0
VERTEX
8
L6D0
10
3302
20
7499.251
0
VERTEX
8
L6D0
10
3308
20
7499.251
0
VERTEX
8
L6D0
10
3308
20
8499.251
0
VERTEX
8
L6D0
10
3310
20
8499.251
0
VERTEX
8
L6D0
10
3310
20
7499.251
0
VERTEX
8
L6D0
10
3316
20
7499.251
0
VERTEX
8
L6D0
10
3316
20
8499.251
0
VERTEX
8
L6D0
10
3318
20
8499.251
0
VERTEX
8
L6D0
10
3318
20
7499.251
0
VERTEX
8
L6D0
10
3324
20
7499.251
0
VERTEX
8
L6D0
10
3324
20
8499.251
0
VERTEX
8
L6D0
10
3326
20
8499.251
0
VERTEX
8
L6D0
10
3326
20
7499.251
0
VERTEX
8
L6D0
10
3332
20
7499.251
0
VERTEX
8
L6D0
10
3332
20
8499.251
0
VERTEX
8
L6D0
10
3334
20
8499.251
0
VERTEX
8
L6D0
10
3334
20
7499.251
0
VERTEX
8
L6D0
10
3340
20
7499.251
0
VERTEX
8
L6D0
10
3340
20
8499.251
0
VERTEX
8
L6D0
10
3342
20
8499.251
0
VERTEX
8
L6D0
10
3342
20
7499.251
0
VERTEX
8
L6D0
10
3348
20
7499.251
0
VERTEX
8
L6D0
10
3348
20
8499.251
0
VERTEX
8
L6D0
10
3350
20
8499.251
0
VERTEX
8
L6D0
10
3350
20
7499.251
0
VERTEX
8
L6D0
10
3356
20
7499.251
0
VERTEX
8
L6D0
10
3356
20
8499.251
0
VERTEX
8
L6D0
10
3358
20
8499.251
0
VERTEX
8
L6D0
10
3358
20
7499.251
0
VERTEX
8
L6D0
10
3364
20
7499.251
0
VERTEX
8
L6D0
10
3364
20
8499.251
0
VERTEX
8
L6D0
10
3366
20
8499.251
0
VERTEX
8
L6D0
10
3366
20
7499.251
0
VERTEX
8
L6D0
10
3372
20
7499.251
0
VERTEX
8
L6D0
10
3372
20
8499.251
0
VERTEX
8
L6D0
10
3374
20
8499.251
0
VERTEX
8
L6D0
10
3374
20
7499.251
0
VERTEX
8
L6D0
10
3380
20
7499.251
0
VERTEX
8
L6D0
10
3380
20
8499.251
0
VERTEX
8
L6D0
10
3382
20
8499.251
0
VERTEX
8
L6D0
10
3382
20
7499.251
0
VERTEX
8
L6D0
10
3388
20
7499.251
0
VERTEX
8
L6D0
10
3388
20
8499.251
0
VERTEX
8
L6D0
10
3390
20
8499.251
0
VERTEX
8
L6D0
10
3390
20
7499.251
0
VERTEX
8
L6D0
10
3396
20
7499.251
0
VERTEX
8
L6D0
10
3396
20
8499.251
0
VERTEX
8
L6D0
10
3398
20
8499.251
0
VERTEX
8
L6D0
10
3398
20
7499.251
0
VERTEX
8
L6D0
10
3404
20
7499.251
0
VERTEX
8
L6D0
10
3404
20
8499.251
0
VERTEX
8
L6D0
10
3406
20
8499.251
0
VERTEX
8
L6D0
10
3406
20
7499.251
0
VERTEX
8
L6D0
10
3412
20
7499.251
0
VERTEX
8
L6D0
10
3412
20
8499.251
0
VERTEX
8
L6D0
10
3414
20
8499.251
0
VERTEX
8
L6D0
10
3414
20
7499.251
0
VERTEX
8
L6D0
10
3420
20
7499.251
0
VERTEX
8
L6D0
10
3420
20
8499.251
0
VERTEX
8
L6D0
10
3422
20
8499.251
0
VERTEX
8
L6D0
10
3422
20
7499.251
0
VERTEX
8
L6D0
10
3428
20
7499.251
0
VERTEX
8
L6D0
10
3428
20
8499.251
0
VERTEX
8
L6D0
10
3430
20
8499.251
0
VERTEX
8
L6D0
10
3430
20
7499.251
0
VERTEX
8
L6D0
10
3436
20
7499.251
0
VERTEX
8
L6D0
10
3436
20
8499.251
0
VERTEX
8
L6D0
10
3438
20
8499.251
0
VERTEX
8
L6D0
10
3438
20
7499.251
0
VERTEX
8
L6D0
10
3444
20
7499.251
0
VERTEX
8
L6D0
10
3444
20
8499.251
0
VERTEX
8
L6D0
10
3446
20
8499.251
0
VERTEX
8
L6D0
10
3446
20
7499.251
0
VERTEX
8
L6D0
10
3452
20
7499.251
0
VERTEX
8
L6D0
10
3452
20
8499.251
0
VERTEX
8
L6D0
10
3454
20
8499.251
0
VERTEX
8
L6D0
10
3454
20
7499.251
0
VERTEX
8
L6D0
10
3460
20
7499.251
0
VERTEX
8
L6D0
10
3460
20
8499.251
0
VERTEX
8
L6D0
10
3462
20
8499.251
0
VERTEX
8
L6D0
10
3462
20
7499.251
0
VERTEX
8
L6D0
10
3468
20
7499.251
0
VERTEX
8
L6D0
10
3468
20
8499.251
0
VERTEX
8
L6D0
10
3470
20
8499.251
0
VERTEX
8
L6D0
10
3470
20
7499.251
0
VERTEX
8
L6D0
10
3476
20
7499.251
0
VERTEX
8
L6D0
10
3476
20
8499.251
0
VERTEX
8
L6D0
10
3478
20
8499.251
0
VERTEX
8
L6D0
10
3478
20
7499.251
0
VERTEX
8
L6D0
10
3484
20
7499.251
0
VERTEX
8
L6D0
10
3484
20
8499.251
0
VERTEX
8
L6D0
10
3486
20
8499.251
0
VERTEX
8
L6D0
10
3486
20
7499.251
0
VERTEX
8
L6D0
10
3492
20
7499.251
0
VERTEX
8
L6D0
10
3492
20
8499.251
0
VERTEX
8
L6D0
10
3494
20
8499.251
0
VERTEX
8
L6D0
10
3494
20
7499.251
0
VERTEX
8
L6D0
10
3500
20
7499.251
0
VERTEX
8
L6D0
10
3500
20
8499.251
0
VERTEX
8
L6D0
10
3502
20
8499.251
0
VERTEX
8
L6D0
10
3502
20
7499.251
0
VERTEX
8
L6D0
10
3508
20
7499.251
0
VERTEX
8
L6D0
10
3508
20
8499.251
0
VERTEX
8
L6D0
10
3510
20
8499.251
0
VERTEX
8
L6D0
10
3510
20
7499.251
0
VERTEX
8
L6D0
10
3516
20
7499.251
0
VERTEX
8
L6D0
10
3516
20
8499.251
0
VERTEX
8
L6D0
10
3518
20
8499.251
0
VERTEX
8
L6D0
10
3518
20
7499.251
0
VERTEX
8
L6D0
10
3524
20
7499.251
0
VERTEX
8
L6D0
10
3524
20
8499.251
0
VERTEX
8
L6D0
10
3526
20
8499.251
0
VERTEX
8
L6D0
10
3526
20
7499.251
0
VERTEX
8
L6D0
10
3532
20
7499.251
0
VERTEX
8
L6D0
10
3532
20
8499.251
0
VERTEX
8
L6D0
10
3534
20
8499.251
0
VERTEX
8
L6D0
10
3534
20
7499.251
0
VERTEX
8
L6D0
10
3540
20
7499.251
0
VERTEX
8
L6D0
10
3540
20
8499.251
0
VERTEX
8
L6D0
10
3542
20
8499.251
0
VERTEX
8
L6D0
10
3542
20
7499.251
0
VERTEX
8
L6D0
10
3548
20
7499.251
0
VERTEX
8
L6D0
10
3548
20
8499.251
0
VERTEX
8
L6D0
10
3550
20
8499.251
0
VERTEX
8
L6D0
10
3550
20
7499.251
0
VERTEX
8
L6D0
10
3556
20
7499.251
0
VERTEX
8
L6D0
10
3556
20
8499.251
0
VERTEX
8
L6D0
10
3558
20
8499.251
0
VERTEX
8
L6D0
10
3558
20
7499.251
0
VERTEX
8
L6D0
10
3564
20
7499.251
0
VERTEX
8
L6D0
10
3564
20
8499.251
0
VERTEX
8
L6D0
10
3566
20
8499.251
0
VERTEX
8
L6D0
10
3566
20
7499.251
0
VERTEX
8
L6D0
10
3572
20
7499.251
0
VERTEX
8
L6D0
10
3572
20
8499.251
0
VERTEX
8
L6D0
10
3574
20
8499.251
0
VERTEX
8
L6D0
10
3574
20
7499.251
0
VERTEX
8
L6D0
10
3580
20
7499.251
0
VERTEX
8
L6D0
10
3580
20
8499.251
0
VERTEX
8
L6D0
10
3582
20
8499.251
0
VERTEX
8
L6D0
10
3582
20
7499.251
0
VERTEX
8
L6D0
10
3588
20
7499.251
0
VERTEX
8
L6D0
10
3588
20
8499.251
0
VERTEX
8
L6D0
10
3590
20
8499.251
0
VERTEX
8
L6D0
10
3590
20
7499.251
0
VERTEX
8
L6D0
10
3596
20
7499.251
0
VERTEX
8
L6D0
10
3596
20
8499.251
0
VERTEX
8
L6D0
10
3598
20
8499.251
0
VERTEX
8
L6D0
10
3598
20
7499.251
0
VERTEX
8
L6D0
10
3604
20
7499.251
0
VERTEX
8
L6D0
10
3604
20
8499.251
0
VERTEX
8
L6D0
10
3606
20
8499.251
0
VERTEX
8
L6D0
10
3606
20
7499.251
0
VERTEX
8
L6D0
10
3612
20
7499.251
0
VERTEX
8
L6D0
10
3612
20
8499.251
0
VERTEX
8
L6D0
10
3614
20
8499.251
0
VERTEX
8
L6D0
10
3614
20
7499.251
0
VERTEX
8
L6D0
10
3620
20
7499.251
0
VERTEX
8
L6D0
10
3620
20
8499.251
0
VERTEX
8
L6D0
10
3622
20
8499.251
0
VERTEX
8
L6D0
10
3622
20
7499.251
0
VERTEX
8
L6D0
10
3628
20
7499.251
0
VERTEX
8
L6D0
10
3628
20
8499.251
0
VERTEX
8
L6D0
10
3630
20
8499.251
0
VERTEX
8
L6D0
10
3630
20
7499.251
0
VERTEX
8
L6D0
10
3636
20
7499.251
0
VERTEX
8
L6D0
10
3636
20
8499.251
0
VERTEX
8
L6D0
10
3638
20
8499.251
0
VERTEX
8
L6D0
10
3638
20
7499.251
0
VERTEX
8
L6D0
10
3644
20
7499.251
0
VERTEX
8
L6D0
10
3644
20
8499.251
0
VERTEX
8
L6D0
10
3646
20
8499.251
0
VERTEX
8
L6D0
10
3646
20
7499.251
0
VERTEX
8
L6D0
10
3652
20
7499.251
0
VERTEX
8
L6D0
10
3652
20
8499.251
0
VERTEX
8
L6D0
10
3654
20
8499.251
0
VERTEX
8
L6D0
10
3654
20
7499.251
0
VERTEX
8
L6D0
10
3660
20
7499.251
0
VERTEX
8
L6D0
10
3660
20
8499.251
0
VERTEX
8
L6D0
10
3662
20
8499.251
0
VERTEX
8
L6D0
10
3662
20
7499.251
0
VERTEX
8
L6D0
10
3668
20
7499.251
0
VERTEX
8
L6D0
10
3668
20
8499.251
0
VERTEX
8
L6D0
10
3670
20
8499.251
0
VERTEX
8
L6D0
10
3670
20
7499.251
0
VERTEX
8
L6D0
10
3676
20
7499.251
0
VERTEX
8
L6D0
10
3676
20
8499.251
0
VERTEX
8
L6D0
10
3678
20
8499.251
0
VERTEX
8
L6D0
10
3678
20
7499.251
0
VERTEX
8
L6D0
10
3684
20
7499.251
0
VERTEX
8
L6D0
10
3684
20
8499.251
0
VERTEX
8
L6D0
10
3686
20
8499.251
0
VERTEX
8
L6D0
10
3686
20
7499.251
0
VERTEX
8
L6D0
10
3692
20
7499.251
0
VERTEX
8
L6D0
10
3692
20
8499.251
0
VERTEX
8
L6D0
10
3694
20
8499.251
0
VERTEX
8
L6D0
10
3694
20
7499.251
0
VERTEX
8
L6D0
10
3700
20
7499.251
0
VERTEX
8
L6D0
10
3700
20
8499.251
0
VERTEX
8
L6D0
10
3702
20
8499.251
0
VERTEX
8
L6D0
10
3702
20
7499.251
0
VERTEX
8
L6D0
10
3708
20
7499.251
0
VERTEX
8
L6D0
10
3708
20
8499.251
0
VERTEX
8
L6D0
10
3710
20
8499.251
0
VERTEX
8
L6D0
10
3710
20
7499.251
0
VERTEX
8
L6D0
10
3716
20
7499.251
0
VERTEX
8
L6D0
10
3716
20
8499.251
0
VERTEX
8
L6D0
10
3718
20
8499.251
0
VERTEX
8
L6D0
10
3718
20
7499.251
0
VERTEX
8
L6D0
10
3724
20
7499.251
0
VERTEX
8
L6D0
10
3724
20
8499.251
0
VERTEX
8
L6D0
10
3726
20
8499.251
0
VERTEX
8
L6D0
10
3726
20
7499.251
0
VERTEX
8
L6D0
10
3732
20
7499.251
0
VERTEX
8
L6D0
10
3732
20
8499.251
0
VERTEX
8
L6D0
10
3734
20
8499.251
0
VERTEX
8
L6D0
10
3734
20
7499.251
0
VERTEX
8
L6D0
10
3740
20
7499.251
0
VERTEX
8
L6D0
10
3740
20
8499.251
0
VERTEX
8
L6D0
10
3742
20
8499.251
0
VERTEX
8
L6D0
10
3742
20
7499.251
0
VERTEX
8
L6D0
10
3748
20
7499.251
0
VERTEX
8
L6D0
10
3748
20
8499.251
0
VERTEX
8
L6D0
10
3750
20
8499.251
0
VERTEX
8
L6D0
10
3750
20
7499.251
0
VERTEX
8
L6D0
10
3756
20
7499.251
0
VERTEX
8
L6D0
10
3756
20
8499.251
0
VERTEX
8
L6D0
10
3758
20
8499.251
0
VERTEX
8
L6D0
10
3758
20
7499.251
0
VERTEX
8
L6D0
10
3764
20
7499.251
0
VERTEX
8
L6D0
10
3764
20
8499.251
0
VERTEX
8
L6D0
10
3766
20
8499.251
0
VERTEX
8
L6D0
10
3766
20
7499.251
0
VERTEX
8
L6D0
10
3772
20
7499.251
0
VERTEX
8
L6D0
10
3772
20
8499.251
0
VERTEX
8
L6D0
10
3774
20
8499.251
0
VERTEX
8
L6D0
10
3774
20
7499.251
0
VERTEX
8
L6D0
10
3780
20
7499.251
0
VERTEX
8
L6D0
10
3780
20
8499.251
0
VERTEX
8
L6D0
10
3782
20
8499.251
0
VERTEX
8
L6D0
10
3782
20
7499.251
0
VERTEX
8
L6D0
10
3788
20
7499.251
0
VERTEX
8
L6D0
10
3788
20
8499.251
0
VERTEX
8
L6D0
10
3790
20
8499.251
0
VERTEX
8
L6D0
10
3790
20
7499.251
0
VERTEX
8
L6D0
10
3796
20
7499.251
0
VERTEX
8
L6D0
10
3796
20
8499.251
0
VERTEX
8
L6D0
10
3798
20
8499.251
0
VERTEX
8
L6D0
10
3798
20
7499.251
0
VERTEX
8
L6D0
10
3804
20
7499.251
0
VERTEX
8
L6D0
10
3804
20
8499.251
0
VERTEX
8
L6D0
10
3806
20
8499.251
0
VERTEX
8
L6D0
10
3806
20
7499.251
0
VERTEX
8
L6D0
10
3812
20
7499.251
0
VERTEX
8
L6D0
10
3812
20
8499.251
0
VERTEX
8
L6D0
10
3814
20
8499.251
0
VERTEX
8
L6D0
10
3814
20
7499.251
0
VERTEX
8
L6D0
10
3820
20
7499.251
0
VERTEX
8
L6D0
10
3820
20
8499.251
0
VERTEX
8
L6D0
10
3822
20
8499.251
0
VERTEX
8
L6D0
10
3822
20
7499.251
0
VERTEX
8
L6D0
10
3828
20
7499.251
0
VERTEX
8
L6D0
10
3828
20
8499.251
0
VERTEX
8
L6D0
10
3830
20
8499.251
0
VERTEX
8
L6D0
10
3830
20
7499.251
0
VERTEX
8
L6D0
10
3836
20
7499.251
0
VERTEX
8
L6D0
10
3836
20
8499.251
0
VERTEX
8
L6D0
10
3838
20
8499.251
0
VERTEX
8
L6D0
10
3838
20
7499.251
0
VERTEX
8
L6D0
10
3844
20
7499.251
0
VERTEX
8
L6D0
10
3844
20
8499.251
0
VERTEX
8
L6D0
10
3846
20
8499.251
0
VERTEX
8
L6D0
10
3846
20
7499.251
0
VERTEX
8
L6D0
10
3852
20
7499.251
0
VERTEX
8
L6D0
10
3852
20
8499.251
0
VERTEX
8
L6D0
10
3854
20
8499.251
0
VERTEX
8
L6D0
10
3854
20
7499.251
0
VERTEX
8
L6D0
10
3860
20
7499.251
0
VERTEX
8
L6D0
10
3860
20
8499.251
0
VERTEX
8
L6D0
10
3862
20
8499.251
0
VERTEX
8
L6D0
10
3862
20
7499.251
0
VERTEX
8
L6D0
10
3868
20
7499.251
0
VERTEX
8
L6D0
10
3868
20
8499.251
0
VERTEX
8
L6D0
10
3870
20
8499.251
0
VERTEX
8
L6D0
10
3870
20
7499.251
0
VERTEX
8
L6D0
10
3876
20
7499.251
0
VERTEX
8
L6D0
10
3876
20
8499.251
0
VERTEX
8
L6D0
10
3878
20
8499.251
0
VERTEX
8
L6D0
10
3878
20
7499.251
0
VERTEX
8
L6D0
10
3884
20
7499.251
0
VERTEX
8
L6D0
10
3884
20
8499.251
0
VERTEX
8
L6D0
10
3886
20
8499.251
0
VERTEX
8
L6D0
10
3886
20
7499.251
0
VERTEX
8
L6D0
10
3892
20
7499.251
0
VERTEX
8
L6D0
10
3892
20
8499.251
0
VERTEX
8
L6D0
10
3894
20
8499.251
0
VERTEX
8
L6D0
10
3894
20
7499.251
0
VERTEX
8
L6D0
10
3900
20
7499.251
0
VERTEX
8
L6D0
10
3900
20
8499.251
0
VERTEX
8
L6D0
10
3902
20
8499.251
0
VERTEX
8
L6D0
10
3902
20
7499.251
0
VERTEX
8
L6D0
10
3908
20
7499.251
0
VERTEX
8
L6D0
10
3908
20
8499.251
0
VERTEX
8
L6D0
10
3910
20
8499.251
0
VERTEX
8
L6D0
10
3910
20
7499.251
0
VERTEX
8
L6D0
10
3916
20
7499.251
0
VERTEX
8
L6D0
10
3916
20
8499.251
0
VERTEX
8
L6D0
10
3918
20
8499.251
0
VERTEX
8
L6D0
10
3918
20
7499.251
0
VERTEX
8
L6D0
10
3924
20
7499.251
0
VERTEX
8
L6D0
10
3924
20
8499.251
0
VERTEX
8
L6D0
10
3926
20
8499.251
0
VERTEX
8
L6D0
10
3926
20
7499.251
0
VERTEX
8
L6D0
10
3932
20
7499.251
0
VERTEX
8
L6D0
10
3932
20
8499.251
0
VERTEX
8
L6D0
10
3934
20
8499.251
0
VERTEX
8
L6D0
10
3934
20
7499.251
0
VERTEX
8
L6D0
10
3940
20
7499.251
0
VERTEX
8
L6D0
10
3940
20
8499.251
0
VERTEX
8
L6D0
10
3942
20
8499.251
0
VERTEX
8
L6D0
10
3942
20
7499.251
0
VERTEX
8
L6D0
10
3948
20
7499.251
0
VERTEX
8
L6D0
10
3948
20
8499.251
0
VERTEX
8
L6D0
10
3950
20
8499.251
0
VERTEX
8
L6D0
10
3950
20
7499.251
0
VERTEX
8
L6D0
10
3956
20
7499.251
0
VERTEX
8
L6D0
10
3956
20
8499.251
0
VERTEX
8
L6D0
10
3958
20
8499.251
0
VERTEX
8
L6D0
10
3958
20
7499.251
0
VERTEX
8
L6D0
10
3964
20
7499.251
0
VERTEX
8
L6D0
10
3964
20
8499.251
0
VERTEX
8
L6D0
10
3966
20
8499.251
0
VERTEX
8
L6D0
10
3966
20
7499.251
0
VERTEX
8
L6D0
10
3972
20
7499.251
0
VERTEX
8
L6D0
10
3972
20
8499.251
0
VERTEX
8
L6D0
10
3974
20
8499.251
0
VERTEX
8
L6D0
10
3974
20
7499.251
0
VERTEX
8
L6D0
10
3980
20
7499.251
0
VERTEX
8
L6D0
10
3980
20
8499.251
0
VERTEX
8
L6D0
10
3982
20
8499.251
0
VERTEX
8
L6D0
10
3982
20
7499.251
0
VERTEX
8
L6D0
10
3994.5
20
7499.251
0
VERTEX
8
L6D0
10
3994.5
20
7999.001
0
VERTEX
8
L6D0
10
4019.5
20
7999.001
0
VERTEX
8
L6D0
10
4019.5
20
7474.251
0
VERTEX
8
L6D0
10
3138
20
7474.251
0
VERTEX
8
L6D0
10
3138
20
7399.251
0
VERTEX
8
L6D0
10
3136
20
7399.251
0
VERTEX
8
L6D0
10
3136
20
7474.251
0
VERTEX
8
L6D0
10
3130
20
7474.251
0
VERTEX
8
L6D0
10
3130
20
7399.251
0
VERTEX
8
L6D0
10
3128
20
7399.251
0
VERTEX
8
L6D0
10
3128
20
7474.251
0
VERTEX
8
L6D0
10
3122
20
7474.251
0
VERTEX
8
L6D0
10
3122
20
7399.251
0
VERTEX
8
L6D0
10
3120
20
7399.251
0
VERTEX
8
L6D0
10
3120
20
7474.251
0
VERTEX
8
L6D0
10
3114
20
7474.251
0
VERTEX
8
L6D0
10
3114
20
7399.251
0
VERTEX
8
L6D0
10
3112
20
7399.251
0
VERTEX
8
L6D0
10
3112
20
7474.251
0
VERTEX
8
L6D0
10
3106
20
7474.251
0
VERTEX
8
L6D0
10
3106
20
7399.251
0
VERTEX
8
L6D0
10
3104
20
7399.251
0
VERTEX
8
L6D0
10
3104
20
7474.251
0
VERTEX
8
L6D0
10
3098
20
7474.251
0
VERTEX
8
L6D0
10
3098
20
7399.251
0
VERTEX
8
L6D0
10
3096
20
7399.251
0
VERTEX
8
L6D0
10
3096
20
7474.251
0
VERTEX
8
L6D0
10
3090
20
7474.251
0
VERTEX
8
L6D0
10
3090
20
7399.251
0
VERTEX
8
L6D0
10
3088
20
7399.251
0
VERTEX
8
L6D0
10
3088
20
7474.251
0
VERTEX
8
L6D0
10
3082
20
7474.251
0
VERTEX
8
L6D0
10
3082
20
7399.251
0
VERTEX
8
L6D0
10
3080
20
7399.251
0
VERTEX
8
L6D0
10
3080
20
7474.251
0
VERTEX
8
L6D0
10
3074
20
7474.251
0
VERTEX
8
L6D0
10
3074
20
7399.251
0
VERTEX
8
L6D0
10
3072
20
7399.251
0
VERTEX
8
L6D0
10
3072
20
7474.251
0
VERTEX
8
L6D0
10
3066
20
7474.251
0
VERTEX
8
L6D0
10
3066
20
7399.251
0
VERTEX
8
L6D0
10
3064
20
7399.251
0
VERTEX
8
L6D0
10
3064
20
7474.251
0
VERTEX
8
L6D0
10
3058
20
7474.251
0
VERTEX
8
L6D0
10
3058
20
7399.251
0
VERTEX
8
L6D0
10
3056
20
7399.251
0
VERTEX
8
L6D0
10
3056
20
7474.251
0
VERTEX
8
L6D0
10
3050
20
7474.251
0
VERTEX
8
L6D0
10
3050
20
7399.251
0
VERTEX
8
L6D0
10
3048
20
7399.251
0
VERTEX
8
L6D0
10
3048
20
7474.251
0
VERTEX
8
L6D0
10
3042
20
7474.251
0
VERTEX
8
L6D0
10
3042
20
7399.251
0
VERTEX
8
L6D0
10
3040
20
7399.251
0
VERTEX
8
L6D0
10
3040
20
7474.251
0
VERTEX
8
L6D0
10
3034
20
7474.251
0
VERTEX
8
L6D0
10
3034
20
7399.251
0
VERTEX
8
L6D0
10
3032
20
7399.251
0
VERTEX
8
L6D0
10
3032
20
7474.251
0
VERTEX
8
L6D0
10
3026
20
7474.251
0
VERTEX
8
L6D0
10
3026
20
7399.251
0
VERTEX
8
L6D0
10
3024
20
7399.251
0
VERTEX
8
L6D0
10
3024
20
7474.251
0
VERTEX
8
L6D0
10
3018
20
7474.251
0
VERTEX
8
L6D0
10
3018
20
7399.251
0
VERTEX
8
L6D0
10
3016
20
7399.251
0
VERTEX
8
L6D0
10
3016
20
7474.251
0
VERTEX
8
L6D0
10
3010
20
7474.251
0
VERTEX
8
L6D0
10
3010
20
7399.251
0
VERTEX
8
L6D0
10
3008
20
7399.251
0
VERTEX
8
L6D0
10
3008
20
7474.251
0
VERTEX
8
L6D0
10
3002
20
7474.251
0
VERTEX
8
L6D0
10
3002
20
7399.251
0
VERTEX
8
L6D0
10
3000
20
7399.251
0
VERTEX
8
L6D0
10
3000
20
7474.251
0
VERTEX
8
L6D0
10
2994
20
7474.251
0
VERTEX
8
L6D0
10
2994
20
7399.251
0
VERTEX
8
L6D0
10
2992
20
7399.251
0
VERTEX
8
L6D0
10
2992
20
7474.251
0
VERTEX
8
L6D0
10
2986
20
7474.251
0
VERTEX
8
L6D0
10
2986
20
7399.251
0
VERTEX
8
L6D0
10
2984
20
7399.251
0
VERTEX
8
L6D0
10
2984
20
7474.251
0
VERTEX
8
L6D0
10
2978
20
7474.251
0
VERTEX
8
L6D0
10
2978
20
7399.251
0
VERTEX
8
L6D0
10
2976
20
7399.251
0
VERTEX
8
L6D0
10
2976
20
7474.251
0
VERTEX
8
L6D0
10
2970
20
7474.251
0
VERTEX
8
L6D0
10
2970
20
7399.251
0
VERTEX
8
L6D0
10
2968
20
7399.251
0
VERTEX
8
L6D0
10
2968
20
7474.251
0
VERTEX
8
L6D0
10
2962
20
7474.251
0
VERTEX
8
L6D0
10
2962
20
7399.251
0
VERTEX
8
L6D0
10
2960
20
7399.251
0
VERTEX
8
L6D0
10
2960
20
7474.251
0
VERTEX
8
L6D0
10
2954
20
7474.251
0
VERTEX
8
L6D0
10
2954
20
7399.251
0
VERTEX
8
L6D0
10
2952
20
7399.251
0
VERTEX
8
L6D0
10
2952
20
7474.251
0
VERTEX
8
L6D0
10
2946
20
7474.251
0
VERTEX
8
L6D0
10
2946
20
7399.251
0
VERTEX
8
L6D0
10
2944
20
7399.251
0
VERTEX
8
L6D0
10
2944
20
7474.251
0
VERTEX
8
L6D0
10
2938
20
7474.251
0
VERTEX
8
L6D0
10
2938
20
7399.251
0
VERTEX
8
L6D0
10
2936
20
7399.251
0
VERTEX
8
L6D0
10
2936
20
7474.251
0
VERTEX
8
L6D0
10
2930
20
7474.251
0
VERTEX
8
L6D0
10
2930
20
7399.251
0
VERTEX
8
L6D0
10
2928
20
7399.251
0
VERTEX
8
L6D0
10
2928
20
7474.251
0
VERTEX
8
L6D0
10
2922
20
7474.251
0
VERTEX
8
L6D0
10
2922
20
7399.251
0
VERTEX
8
L6D0
10
2920
20
7399.251
0
VERTEX
8
L6D0
10
2920
20
7474.251
0
VERTEX
8
L6D0
10
2914
20
7474.251
0
VERTEX
8
L6D0
10
2914
20
7399.251
0
VERTEX
8
L6D0
10
2912
20
7399.251
0
VERTEX
8
L6D0
10
2912
20
7474.251
0
VERTEX
8
L6D0
10
2906
20
7474.251
0
VERTEX
8
L6D0
10
2906
20
7399.251
0
VERTEX
8
L6D0
10
2904
20
7399.251
0
VERTEX
8
L6D0
10
2904
20
7474.251
0
VERTEX
8
L6D0
10
2898
20
7474.251
0
VERTEX
8
L6D0
10
2898
20
7399.251
0
VERTEX
8
L6D0
10
2896
20
7399.251
0
VERTEX
8
L6D0
10
2896
20
7474.251
0
VERTEX
8
L6D0
10
2890
20
7474.251
0
VERTEX
8
L6D0
10
2890
20
7399.251
0
VERTEX
8
L6D0
10
2888
20
7399.251
0
VERTEX
8
L6D0
10
2888
20
7474.251
0
VERTEX
8
L6D0
10
2882
20
7474.251
0
VERTEX
8
L6D0
10
2882
20
7399.251
0
VERTEX
8
L6D0
10
2880
20
7399.251
0
VERTEX
8
L6D0
10
2880
20
7474.251
0
VERTEX
8
L6D0
10
2874
20
7474.251
0
VERTEX
8
L6D0
10
2874
20
7399.251
0
VERTEX
8
L6D0
10
2872
20
7399.251
0
VERTEX
8
L6D0
10
2872
20
7474.251
0
VERTEX
8
L6D0
10
2866
20
7474.251
0
VERTEX
8
L6D0
10
2866
20
7399.251
0
VERTEX
8
L6D0
10
2864
20
7399.251
0
VERTEX
8
L6D0
10
2864
20
7474.251
0
VERTEX
8
L6D0
10
2858
20
7474.251
0
VERTEX
8
L6D0
10
2858
20
7399.251
0
VERTEX
8
L6D0
10
2856
20
7399.251
0
VERTEX
8
L6D0
10
2856
20
7474.251
0
VERTEX
8
L6D0
10
2850
20
7474.251
0
VERTEX
8
L6D0
10
2850
20
7399.251
0
VERTEX
8
L6D0
10
2848
20
7399.251
0
VERTEX
8
L6D0
10
2848
20
7474.251
0
VERTEX
8
L6D0
10
2842
20
7474.251
0
VERTEX
8
L6D0
10
2842
20
7399.251
0
VERTEX
8
L6D0
10
2840
20
7399.251
0
VERTEX
8
L6D0
10
2840
20
7474.251
0
VERTEX
8
L6D0
10
2834
20
7474.251
0
VERTEX
8
L6D0
10
2834
20
7399.251
0
VERTEX
8
L6D0
10
2832
20
7399.251
0
VERTEX
8
L6D0
10
2832
20
7474.251
0
VERTEX
8
L6D0
10
2826
20
7474.251
0
VERTEX
8
L6D0
10
2826
20
7399.251
0
SEQEND
0
POLYLINE
8
L6D0
70
1
40
0
41
0
66
1
0
VERTEX
8
L6D0
10
2648
20
7500.751
0
VERTEX
8
L6D0
10
2648
20
8500.751
0
VERTEX
8
L6D0
10
2642
20
8500.751
0
VERTEX
8
L6D0
10
2642
20
8131.947
0
VERTEX
8
L6D0
10
2640
20
8131.947
0
VERTEX
8
L6D0
10
2640
20
8500.751
0
VERTEX
8
L6D0
10
1980
20
8500.751
0
VERTEX
8
L6D0
10
1980
20
8525.751
0
VERTEX
8
L6D0
10
2824
20
8525.751
0
VERTEX
8
L6D0
10
2824
20
8600.751
0
VERTEX
8
L6D0
10
2826
20
8600.751
0
VERTEX
8
L6D0
10
2826
20
8525.751
0
VERTEX
8
L6D0
10
2832
20
8525.751
0
VERTEX
8
L6D0
10
2832
20
8600.751
0
VERTEX
8
L6D0
10
2834
20
8600.751
0
VERTEX
8
L6D0
10
2834
20
8525.751
0
VERTEX
8
L6D0
10
2840
20
8525.751
0
VERTEX
8
L6D0
10
2840
20
8600.751
0
VERTEX
8
L6D0
10
2842
20
8600.751
0
VERTEX
8
L6D0
10
2842
20
8525.751
0
VERTEX
8
L6D0
10
2848
20
8525.751
0
VERTEX
8
L6D0
10
2848
20
8600.751
0
VERTEX
8
L6D0
10
2850
20
8600.751
0
VERTEX
8
L6D0
10
2850
20
8525.751
0
VERTEX
8
L6D0
10
2856
20
8525.751
0
VERTEX
8
L6D0
10
2856
20
8600.751
0
VERTEX
8
L6D0
10
2858
20
8600.751
0
VERTEX
8
L6D0
10
2858
20
8525.751
0
VERTEX
8
L6D0
10
2864
20
8525.751
0
VERTEX
8
L6D0
10
2864
20
8600.751
0
VERTEX
8
L6D0
10
2866
20
8600.751
0
VERTEX
8
L6D0
10
2866
20
8525.751
0
VERTEX
8
L6D0
10
2872
20
8525.751
0
VERTEX
8
L6D0
10
2872
20
8600.751
0
VERTEX
8
L6D0
10
2874
20
8600.751
0
VERTEX
8
L6D0
10
2874
20
8525.751
0
VERTEX
8
L6D0
10
2880
20
8525.751
0
VERTEX
8
L6D0
10
2880
20
8600.751
0
VERTEX
8
L6D0
10
2882
20
8600.751
0
VERTEX
8
L6D0
10
2882
20
8525.751
0
VERTEX
8
L6D0
10
2888
20
8525.751
0
VERTEX
8
L6D0
10
2888
20
8600.751
0
VERTEX
8
L6D0
10
2890
20
8600.751
0
VERTEX
8
L6D0
10
2890
20
8525.751
0
VERTEX
8
L6D0
10
2896
20
8525.751
0
VERTEX
8
L6D0
10
2896
20
8600.751
0
VERTEX
8
L6D0
10
2898
20
8600.751
0
VERTEX
8
L6D0
10
2898
20
8525.751
0
VERTEX
8
L6D0
10
2904
20
8525.751
0
VERTEX
8
L6D0
10
2904
20
8600.751
0
VERTEX
8
L6D0
10
2906
20
8600.751
0
VERTEX
8
L6D0
10
2906
20
8525.751
0
VERTEX
8
L6D0
10
2912
20
8525.751
0
VERTEX
8
L6D0
10
2912
20
8600.751
0
VERTEX
8
L6D0
10
2914
20
8600.751
0
VERTEX
8
L6D0
10
2914
20
8525.751
0
VERTEX
8
L6D0
10
2920
20
8525.751
0
VERTEX
8
L6D0
10
2920
20
8600.751
0
VERTEX
8
L6D0
10
2922
20
8600.751
0
VERTEX
8
L6D0
10
2922
20
8525.751
0
VERTEX
8
L6D0
10
2928
20
8525.751
0
VERTEX
8
L6D0
10
2928
20
8600.751
0
VERTEX
8
L6D0
10
2930
20
8600.751
0
VERTEX
8
L6D0
10
2930
20
8525.751
0
VERTEX
8
L6D0
10
2936
20
8525.751
0
VERTEX
8
L6D0
10
2936
20
8600.751
0
VERTEX
8
L6D0
10
2938
20
8600.751
0
VERTEX
8
L6D0
10
2938
20
8525.751
0
VERTEX
8
L6D0
10
2944
20
8525.751
0
VERTEX
8
L6D0
10
2944
20
8600.751
0
VERTEX
8
L6D0
10
2946
20
8600.751
0
VERTEX
8
L6D0
10
2946
20
8525.751
0
VERTEX
8
L6D0
10
2952
20
8525.751
0
VERTEX
8
L6D0
10
2952
20
8600.751
0
VERTEX
8
L6D0
10
2954
20
8600.751
0
VERTEX
8
L6D0
10
2954
20
8525.751
0
VERTEX
8
L6D0
10
2960
20
8525.751
0
VERTEX
8
L6D0
10
2960
20
8600.751
0
VERTEX
8
L6D0
10
2962
20
8600.751
0
VERTEX
8
L6D0
10
2962
20
8525.751
0
VERTEX
8
L6D0
10
2968
20
8525.751
0
VERTEX
8
L6D0
10
2968
20
8600.751
0
VERTEX
8
L6D0
10
2970
20
8600.751
0
VERTEX
8
L6D0
10
2970
20
8525.751
0
VERTEX
8
L6D0
10
2976
20
8525.751
0
VERTEX
8
L6D0
10
2976
20
8600.751
0
VERTEX
8
L6D0
10
2978
20
8600.751
0
VERTEX
8
L6D0
10
2978
20
8525.751
0
VERTEX
8
L6D0
10
2984
20
8525.751
0
VERTEX
8
L6D0
10
2984
20
8600.751
0
VERTEX
8
L6D0
10
2986
20
8600.751
0
VERTEX
8
L6D0
10
2986
20
8525.751
0
VERTEX
8
L6D0
10
2992
20
8525.751
0
VERTEX
8
L6D0
10
2992
20
8600.751
0
VERTEX
8
L6D0
10
2994
20
8600.751
0
VERTEX
8
L6D0
10
2994
20
8525.751
0
VERTEX
8
L6D0
10
3000
20
8525.751
0
VERTEX
8
L6D0
10
3000
20
8600.751
0
VERTEX
8
L6D0
10
3002
20
8600.751
0
VERTEX
8
L6D0
10
3002
20
8525.751
0
VERTEX
8
L6D0
10
3008
20
8525.751
0
VERTEX
8
L6D0
10
3008
20
8600.751
0
VERTEX
8
L6D0
10
3010
20
8600.751
0
VERTEX
8
L6D0
10
3010
20
8525.751
0
VERTEX
8
L6D0
10
3016
20
8525.751
0
VERTEX
8
L6D0
10
3016
20
8600.751
0
VERTEX
8
L6D0
10
3018
20
8600.751
0
VERTEX
8
L6D0
10
3018
20
8525.751
0
VERTEX
8
L6D0
10
3024
20
8525.751
0
VERTEX
8
L6D0
10
3024
20
8600.751
0
VERTEX
8
L6D0
10
3026
20
8600.751
0
VERTEX
8
L6D0
10
3026
20
8525.751
0
VERTEX
8
L6D0
10
3032
20
8525.751
0
VERTEX
8
L6D0
10
3032
20
8600.751
0
VERTEX
8
L6D0
10
3034
20
8600.751
0
VERTEX
8
L6D0
10
3034
20
8525.751
0
VERTEX
8
L6D0
10
3040
20
8525.751
0
VERTEX
8
L6D0
10
3040
20
8600.751
0
VERTEX
8
L6D0
10
3042
20
8600.751
0
VERTEX
8
L6D0
10
3042
20
8525.751
0
VERTEX
8
L6D0
10
3048
20
8525.751
0
VERTEX
8
L6D0
10
3048
20
8600.751
0
VERTEX
8
L6D0
10
3050
20
8600.751
0
VERTEX
8
L6D0
10
3050
20
8525.751
0
VERTEX
8
L6D0
10
3056
20
8525.751
0
VERTEX
8
L6D0
10
3056
20
8600.751
0
VERTEX
8
L6D0
10
3058
20
8600.751
0
VERTEX
8
L6D0
10
3058
20
8525.751
0
VERTEX
8
L6D0
10
3064
20
8525.751
0
VERTEX
8
L6D0
10
3064
20
8600.751
0
VERTEX
8
L6D0
10
3066
20
8600.751
0
VERTEX
8
L6D0
10
3066
20
8525.751
0
VERTEX
8
L6D0
10
3072
20
8525.751
0
VERTEX
8
L6D0
10
3072
20
8600.751
0
VERTEX
8
L6D0
10
3074
20
8600.751
0
VERTEX
8
L6D0
10
3074
20
8525.751
0
VERTEX
8
L6D0
10
3080
20
8525.751
0
VERTEX
8
L6D0
10
3080
20
8600.751
0
VERTEX
8
L6D0
10
3082
20
8600.751
0
VERTEX
8
L6D0
10
3082
20
8525.751
0
VERTEX
8
L6D0
10
3088
20
8525.751
0
VERTEX
8
L6D0
10
3088
20
8600.751
0
VERTEX
8
L6D0
10
3090
20
8600.751
0
VERTEX
8
L6D0
10
3090
20
8525.751
0
VERTEX
8
L6D0
10
3096
20
8525.751
0
VERTEX
8
L6D0
10
3096
20
8600.751
0
VERTEX
8
L6D0
10
3098
20
8600.751
0
VERTEX
8
L6D0
10
3098
20
8525.751
0
VERTEX
8
L6D0
10
3104
20
8525.751
0
VERTEX
8
L6D0
10
3104
20
8600.751
0
VERTEX
8
L6D0
10
3106
20
8600.751
0
VERTEX
8
L6D0
10
3106
20
8525.751
0
VERTEX
8
L6D0
10
3112
20
8525.751
0
VERTEX
8
L6D0
10
3112
20
8600.751
0
VERTEX
8
L6D0
10
3114
20
8600.751
0
VERTEX
8
L6D0
10
3114
20
8525.751
0
VERTEX
8
L6D0
10
3120
20
8525.751
0
VERTEX
8
L6D0
10
3120
20
8600.751
0
VERTEX
8
L6D0
10
3122
20
8600.751
0
VERTEX
8
L6D0
10
3122
20
8525.751
0
VERTEX
8
L6D0
10
3128
20
8525.751
0
VERTEX
8
L6D0
10
3128
20
8600.751
0
VERTEX
8
L6D0
10
3130
20
8600.751
0
VERTEX
8
L6D0
10
3130
20
8525.751
0
VERTEX
8
L6D0
10
3136
20
8525.751
0
VERTEX
8
L6D0
10
3136
20
8600.751
0
VERTEX
8
L6D0
10
3138
20
8600.751
0
VERTEX
8
L6D0
10
3138
20
8525.751
0
VERTEX
8
L6D0
10
4019.5
20
8525.751
0
VERTEX
8
L6D0
10
4019.5
20
8001.001
0
VERTEX
8
L6D0
10
3994.5
20
8001.001
0
VERTEX
8
L6D0
10
3994.5
20
8500.751
0
VERTEX
8
L6D0
10
3978
20
8500.751
0
VERTEX
8
L6D0
10
3978
20
7500.751
0
VERTEX
8
L6D0
10
3976
20
7500.751
0
VERTEX
8
L6D0
10
3976
20
8500.751
0
VERTEX
8
L6D0
10
3970
20
8500.751
0
VERTEX
8
L6D0
10
3970
20
7500.751
0
VERTEX
8
L6D0
10
3968
20
7500.751
0
VERTEX
8
L6D0
10
3968
20
8500.751
0
VERTEX
8
L6D0
10
3962
20
8500.751
0
VERTEX
8
L6D0
10
3962
20
7500.751
0
VERTEX
8
L6D0
10
3960
20
7500.751
0
VERTEX
8
L6D0
10
3960
20
8500.751
0
VERTEX
8
L6D0
10
3954
20
8500.751
0
VERTEX
8
L6D0
10
3954
20
7500.751
0
VERTEX
8
L6D0
10
3952
20
7500.751
0
VERTEX
8
L6D0
10
3952
20
8500.751
0
VERTEX
8
L6D0
10
3946
20
8500.751
0
VERTEX
8
L6D0
10
3946
20
7500.751
0
VERTEX
8
L6D0
10
3944
20
7500.751
0
VERTEX
8
L6D0
10
3944
20
8500.751
0
VERTEX
8
L6D0
10
3938
20
8500.751
0
VERTEX
8
L6D0
10
3938
20
7500.751
0
VERTEX
8
L6D0
10
3936
20
7500.751
0
VERTEX
8
L6D0
10
3936
20
8500.751
0
VERTEX
8
L6D0
10
3930
20
8500.751
0
VERTEX
8
L6D0
10
3930
20
7500.751
0
VERTEX
8
L6D0
10
3928
20
7500.751
0
VERTEX
8
L6D0
10
3928
20
8500.751
0
VERTEX
8
L6D0
10
3922
20
8500.751
0
VERTEX
8
L6D0
10
3922
20
7500.751
0
VERTEX
8
L6D0
10
3920
20
7500.751
0
VERTEX
8
L6D0
10
3920
20
8500.751
0
VERTEX
8
L6D0
10
3914
20
8500.751
0
VERTEX
8
L6D0
10
3914
20
7500.751
0
VERTEX
8
L6D0
10
3912
20
7500.751
0
VERTEX
8
L6D0
10
3912
20
8500.751
0
VERTEX
8
L6D0
10
3906
20
8500.751
0
VERTEX
8
L6D0
10
3906
20
7500.751
0
VERTEX
8
L6D0
10
3904
20
7500.751
0
VERTEX
8
L6D0
10
3904
20
8500.751
0
VERTEX
8
L6D0
10
3898
20
8500.751
0
VERTEX
8
L6D0
10
3898
20
7500.751
0
VERTEX
8
L6D0
10
3896
20
7500.751
0
VERTEX
8
L6D0
10
3896
20
8500.751
0
VERTEX
8
L6D0
10
3890
20
8500.751
0
VERTEX
8
L6D0
10
3890
20
7500.751
0
VERTEX
8
L6D0
10
3888
20
7500.751
0
VERTEX
8
L6D0
10
3888
20
8500.751
0
VERTEX
8
L6D0
10
3882
20
8500.751
0
VERTEX
8
L6D0
10
3882
20
7500.751
0
VERTEX
8
L6D0
10
3880
20
7500.751
0
VERTEX
8
L6D0
10
3880
20
8500.751
0
VERTEX
8
L6D0
10
3874
20
8500.751
0
VERTEX
8
L6D0
10
3874
20
7500.751
0
VERTEX
8
L6D0
10
3872
20
7500.751
0
VERTEX
8
L6D0
10
3872
20
8500.751
0
VERTEX
8
L6D0
10
3866
20
8500.751
0
VERTEX
8
L6D0
10
3866
20
7500.751
0
VERTEX
8
L6D0
10
3864
20
7500.751
0
VERTEX
8
L6D0
10
3864
20
8500.751
0
VERTEX
8
L6D0
10
3858
20
8500.751
0
VERTEX
8
L6D0
10
3858
20
7500.751
0
VERTEX
8
L6D0
10
3856
20
7500.751
0
VERTEX
8
L6D0
10
3856
20
8500.751
0
VERTEX
8
L6D0
10
3850
20
8500.751
0
VERTEX
8
L6D0
10
3850
20
7500.751
0
VERTEX
8
L6D0
10
3848
20
7500.751
0
VERTEX
8
L6D0
10
3848
20
8500.751
0
VERTEX
8
L6D0
10
3842
20
8500.751
0
VERTEX
8
L6D0
10
3842
20
7500.751
0
VERTEX
8
L6D0
10
3840
20
7500.751
0
VERTEX
8
L6D0
10
3840
20
8500.751
0
VERTEX
8
L6D0
10
3834
20
8500.751
0
VERTEX
8
L6D0
10
3834
20
7500.751
0
VERTEX
8
L6D0
10
3832
20
7500.751
0
VERTEX
8
L6D0
10
3832
20
8500.751
0
VERTEX
8
L6D0
10
3826
20
8500.751
0
VERTEX
8
L6D0
10
3826
20
7500.751
0
VERTEX
8
L6D0
10
3824
20
7500.751
0
VERTEX
8
L6D0
10
3824
20
8500.751
0
VERTEX
8
L6D0
10
3818
20
8500.751
0
VERTEX
8
L6D0
10
3818
20
7500.751
0
VERTEX
8
L6D0
10
3816
20
7500.751
0
VERTEX
8
L6D0
10
3816
20
8500.751
0
VERTEX
8
L6D0
10
3810
20
8500.751
0
VERTEX
8
L6D0
10
3810
20
7500.751
0
VERTEX
8
L6D0
10
3808
20
7500.751
0
VERTEX
8
L6D0
10
3808
20
8500.751
0
VERTEX
8
L6D0
10
3802
20
8500.751
0
VERTEX
8
L6D0
10
3802
20
7500.751
0
VERTEX
8
L6D0
10
3800
20
7500.751
0
VERTEX
8
L6D0
10
3800
20
8500.751
0
VERTEX
8
L6D0
10
3794
20
8500.751
0
VERTEX
8
L6D0
10
3794
20
7500.751
0
VERTEX
8
L6D0
10
3792
20
7500.751
0
VERTEX
8
L6D0
10
3792
20
8500.751
0
VERTEX
8
L6D0
10
3786
20
8500.751
0
VERTEX
8
L6D0
10
3786
20
7500.751
0
VERTEX
8
L6D0
10
3784
20
7500.751
0
VERTEX
8
L6D0
10
3784
20
8500.751
0
VERTEX
8
L6D0
10
3778
20
8500.751
0
VERTEX
8
L6D0
10
3778
20
7500.751
0
VERTEX
8
L6D0
10
3776
20
7500.751
0
VERTEX
8
L6D0
10
3776
20
8500.751
0
VERTEX
8
L6D0
10
3770
20
8500.751
0
VERTEX
8
L6D0
10
3770
20
7500.751
0
VERTEX
8
L6D0
10
3768
20
7500.751
0
VERTEX
8
L6D0
10
3768
20
8500.751
0
VERTEX
8
L6D0
10
3762
20
8500.751
0
VERTEX
8
L6D0
10
3762
20
7500.751
0
VERTEX
8
L6D0
10
3760
20
7500.751
0
VERTEX
8
L6D0
10
3760
20
8500.751
0
VERTEX
8
L6D0
10
3754
20
8500.751
0
VERTEX
8
L6D0
10
3754
20
7500.751
0
VERTEX
8
L6D0
10
3752
20
7500.751
0
VERTEX
8
L6D0
10
3752
20
8500.751
0
VERTEX
8
L6D0
10
3746
20
8500.751
0
VERTEX
8
L6D0
10
3746
20
7500.751
0
VERTEX
8
L6D0
10
3744
20
7500.751
0
VERTEX
8
L6D0
10
3744
20
8500.751
0
VERTEX
8
L6D0
10
3738
20
8500.751
0
VERTEX
8
L6D0
10
3738
20
7500.751
0
VERTEX
8
L6D0
10
3736
20
7500.751
0
VERTEX
8
L6D0
10
3736
20
8500.751
0
VERTEX
8
L6D0
10
3730
20
8500.751
0
VERTEX
8
L6D0
10
3730
20
7500.751
0
VERTEX
8
L6D0
10
3728
20
7500.751
0
VERTEX
8
L6D0
10
3728
20
8500.751
0
VERTEX
8
L6D0
10
3722
20
8500.751
0
VERTEX
8
L6D0
10
3722
20
7500.751
0
VERTEX
8
L6D0
10
3720
20
7500.751
0
VERTEX
8
L6D0
10
3720
20
8500.751
0
VERTEX
8
L6D0
10
3714
20
8500.751
0
VERTEX
8
L6D0
10
3714
20
7500.751
0
VERTEX
8
L6D0
10
3712
20
7500.751
0
VERTEX
8
L6D0
10
3712
20
8500.751
0
VERTEX
8
L6D0
10
3706
20
8500.751
0
VERTEX
8
L6D0
10
3706
20
7500.751
0
VERTEX
8
L6D0
10
3704
20
7500.751
0
VERTEX
8
L6D0
10
3704
20
8500.751
0
VERTEX
8
L6D0
10
3698
20
8500.751
0
VERTEX
8
L6D0
10
3698
20
7500.751
0
VERTEX
8
L6D0
10
3696
20
7500.751
0
VERTEX
8
L6D0
10
3696
20
8500.751
0
VERTEX
8
L6D0
10
3690
20
8500.751
0
VERTEX
8
L6D0
10
3690
20
7500.751
0
VERTEX
8
L6D0
10
3688
20
7500.751
0
VERTEX
8
L6D0
10
3688
20
8500.751
0
VERTEX
8
L6D0
10
3682
20
8500.751
0
VERTEX
8
L6D0
10
3682
20
7500.751
0
VERTEX
8
L6D0
10
3680
20
7500.751
0
VERTEX
8
L6D0
10
3680
20
8500.751
0
VERTEX
8
L6D0
10
3674
20
8500.751
0
VERTEX
8
L6D0
10
3674
20
7500.751
0
VERTEX
8
L6D0
10
3672
20
7500.751
0
VERTEX
8
L6D0
10
3672
20
8500.751
0
VERTEX
8
L6D0
10
3666
20
8500.751
0
VERTEX
8
L6D0
10
3666
20
7500.751
0
VERTEX
8
L6D0
10
3664
20
7500.751
0
VERTEX
8
L6D0
10
3664
20
8500.751
0
VERTEX
8
L6D0
10
3658
20
8500.751
0
VERTEX
8
L6D0
10
3658
20
7500.751
0
VERTEX
8
L6D0
10
3656
20
7500.751
0
VERTEX
8
L6D0
10
3656
20
8500.751
0
VERTEX
8
L6D0
10
3650
20
8500.751
0
VERTEX
8
L6D0
10
3650
20
7500.751
0
VERTEX
8
L6D0
10
3648
20
7500.751
0
VERTEX
8
L6D0
10
3648
20
8500.751
0
VERTEX
8
L6D0
10
3642
20
8500.751
0
VERTEX
8
L6D0
10
3642
20
7500.751
0
VERTEX
8
L6D0
10
3640
20
7500.751
0
VERTEX
8
L6D0
10
3640
20
8500.751
0
VERTEX
8
L6D0
10
3634
20
8500.751
0
VERTEX
8
L6D0
10
3634
20
7500.751
0
VERTEX
8
L6D0
10
3632
20
7500.751
0
VERTEX
8
L6D0
10
3632
20
8500.751
0
VERTEX
8
L6D0
10
3626
20
8500.751
0
VERTEX
8
L6D0
10
3626
20
7500.751
0
VERTEX
8
L6D0
10
3624
20
7500.751
0
VERTEX
8
L6D0
10
3624
20
8500.751
0
VERTEX
8
L6D0
10
3618
20
8500.751
0
VERTEX
8
L6D0
10
3618
20
7500.751
0
VERTEX
8
L6D0
10
3616
20
7500.751
0
VERTEX
8
L6D0
10
3616
20
8500.751
0
VERTEX
8
L6D0
10
3610
20
8500.751
0
VERTEX
8
L6D0
10
3610
20
7500.751
0
VERTEX
8
L6D0
10
3608
20
7500.751
0
VERTEX
8
L6D0
10
3608
20
8500.751
0
VERTEX
8
L6D0
10
3602
20
8500.751
0
VERTEX
8
L6D0
10
3602
20
7500.751
0
VERTEX
8
L6D0
10
3600
20
7500.751
0
VERTEX
8
L6D0
10
3600
20
8500.751
0
VERTEX
8
L6D0
10
3594
20
8500.751
0
VERTEX
8
L6D0
10
3594
20
7500.751
0
VERTEX
8
L6D0
10
3592
20
7500.751
0
VERTEX
8
L6D0
10
3592
20
8500.751
0
VERTEX
8
L6D0
10
3586
20
8500.751
0
VERTEX
8
L6D0
10
3586
20
7500.751
0
VERTEX
8
L6D0
10
3584
20
7500.751
0
VERTEX
8
L6D0
10
3584
20
8500.751
0
VERTEX
8
L6D0
10
3578
20
8500.751
0
VERTEX
8
L6D0
10
3578
20
7500.751
0
VERTEX
8
L6D0
10
3576
20
7500.751
0
VERTEX
8
L6D0
10
3576
20
8500.751
0
VERTEX
8
L6D0
10
3570
20
8500.751
0
VERTEX
8
L6D0
10
3570
20
7500.751
0
VERTEX
8
L6D0
10
3568
20
7500.751
0
VERTEX
8
L6D0
10
3568
20
8500.751
0
VERTEX
8
L6D0
10
3562
20
8500.751
0
VERTEX
8
L6D0
10
3562
20
7500.751
0
VERTEX
8
L6D0
10
3560
20
7500.751
0
VERTEX
8
L6D0
10
3560
20
8500.751
0
VERTEX
8
L6D0
10
3554
20
8500.751
0
VERTEX
8
L6D0
10
3554
20
7500.751
0
VERTEX
8
L6D0
10
3552
20
7500.751
0
VERTEX
8
L6D0
10
3552
20
8500.751
0
VERTEX
8
L6D0
10
3546
20
8500.751
0
VERTEX
8
L6D0
10
3546
20
7500.751
0
VERTEX
8
L6D0
10
3544
20
7500.751
0
VERTEX
8
L6D0
10
3544
20
8500.751
0
VERTEX
8
L6D0
10
3538
20
8500.751
0
VERTEX
8
L6D0
10
3538
20
7500.751
0
VERTEX
8
L6D0
10
3536
20
7500.751
0
VERTEX
8
L6D0
10
3536
20
8500.751
0
VERTEX
8
L6D0
10
3530
20
8500.751
0
VERTEX
8
L6D0
10
3530
20
7500.751
0
VERTEX
8
L6D0
10
3528
20
7500.751
0
VERTEX
8
L6D0
10
3528
20
8500.751
0
VERTEX
8
L6D0
10
3522
20
8500.751
0
VERTEX
8
L6D0
10
3522
20
7500.751
0
VERTEX
8
L6D0
10
3520
20
7500.751
0
VERTEX
8
L6D0
10
3520
20
8500.751
0
VERTEX
8
L6D0
10
3514
20
8500.751
0
VERTEX
8
L6D0
10
3514
20
7500.751
0
VERTEX
8
L6D0
10
3512
20
7500.751
0
VERTEX
8
L6D0
10
3512
20
8500.751
0
VERTEX
8
L6D0
10
3506
20
8500.751
0
VERTEX
8
L6D0
10
3506
20
7500.751
0
VERTEX
8
L6D0
10
3504
20
7500.751
0
VERTEX
8
L6D0
10
3504
20
8500.751
0
VERTEX
8
L6D0
10
3498
20
8500.751
0
VERTEX
8
L6D0
10
3498
20
7500.751
0
VERTEX
8
L6D0
10
3496
20
7500.751
0
VERTEX
8
L6D0
10
3496
20
8500.751
0
VERTEX
8
L6D0
10
3490
20
8500.751
0
VERTEX
8
L6D0
10
3490
20
7500.751
0
VERTEX
8
L6D0
10
3488
20
7500.751
0
VERTEX
8
L6D0
10
3488
20
8500.751
0
VERTEX
8
L6D0
10
3482
20
8500.751
0
VERTEX
8
L6D0
10
3482
20
7500.751
0
VERTEX
8
L6D0
10
3480
20
7500.751
0
VERTEX
8
L6D0
10
3480
20
8500.751
0
VERTEX
8
L6D0
10
3474
20
8500.751
0
VERTEX
8
L6D0
10
3474
20
7500.751
0
VERTEX
8
L6D0
10
3472
20
7500.751
0
VERTEX
8
L6D0
10
3472
20
8500.751
0
VERTEX
8
L6D0
10
3466
20
8500.751
0
VERTEX
8
L6D0
10
3466
20
7500.751
0
VERTEX
8
L6D0
10
3464
20
7500.751
0
VERTEX
8
L6D0
10
3464
20
8500.751
0
VERTEX
8
L6D0
10
3458
20
8500.751
0
VERTEX
8
L6D0
10
3458
20
7500.751
0
VERTEX
8
L6D0
10
3456
20
7500.751
0
VERTEX
8
L6D0
10
3456
20
8500.751
0
VERTEX
8
L6D0
10
3450
20
8500.751
0
VERTEX
8
L6D0
10
3450
20
7500.751
0
VERTEX
8
L6D0
10
3448
20
7500.751
0
VERTEX
8
L6D0
10
3448
20
8500.751
0
VERTEX
8
L6D0
10
3442
20
8500.751
0
VERTEX
8
L6D0
10
3442
20
7500.751
0
VERTEX
8
L6D0
10
3440
20
7500.751
0
VERTEX
8
L6D0
10
3440
20
8500.751
0
VERTEX
8
L6D0
10
3434
20
8500.751
0
VERTEX
8
L6D0
10
3434
20
7500.751
0
VERTEX
8
L6D0
10
3432
20
7500.751
0
VERTEX
8
L6D0
10
3432
20
8500.751
0
VERTEX
8
L6D0
10
3426
20
8500.751
0
VERTEX
8
L6D0
10
3426
20
7500.751
0
VERTEX
8
L6D0
10
3424
20
7500.751
0
VERTEX
8
L6D0
10
3424
20
8500.751
0
VERTEX
8
L6D0
10
3418
20
8500.751
0
VERTEX
8
L6D0
10
3418
20
7500.751
0
VERTEX
8
L6D0
10
3416
20
7500.751
0
VERTEX
8
L6D0
10
3416
20
8500.751
0
VERTEX
8
L6D0
10
3410
20
8500.751
0
VERTEX
8
L6D0
10
3410
20
7500.751
0
VERTEX
8
L6D0
10
3408
20
7500.751
0
VERTEX
8
L6D0
10
3408
20
8500.751
0
VERTEX
8
L6D0
10
3402
20
8500.751
0
VERTEX
8
L6D0
10
3402
20
7500.751
0
VERTEX
8
L6D0
10
3400
20
7500.751
0
VERTEX
8
L6D0
10
3400
20
8500.751
0
VERTEX
8
L6D0
10
3394
20
8500.751
0
VERTEX
8
L6D0
10
3394
20
7500.751
0
VERTEX
8
L6D0
10
3392
20
7500.751
0
VERTEX
8
L6D0
10
3392
20
8500.751
0
VERTEX
8
L6D0
10
3386
20
8500.751
0
VERTEX
8
L6D0
10
3386
20
7500.751
0
VERTEX
8
L6D0
10
3384
20
7500.751
0
VERTEX
8
L6D0
10
3384
20
8500.751
0
VERTEX
8
L6D0
10
3378
20
8500.751
0
VERTEX
8
L6D0
10
3378
20
7500.751
0
VERTEX
8
L6D0
10
3376
20
7500.751
0
VERTEX
8
L6D0
10
3376
20
8500.751
0
VERTEX
8
L6D0
10
3370
20
8500.751
0
VERTEX
8
L6D0
10
3370
20
7500.751
0
VERTEX
8
L6D0
10
3368
20
7500.751
0
VERTEX
8
L6D0
10
3368
20
8500.751
0
VERTEX
8
L6D0
10
3362
20
8500.751
0
VERTEX
8
L6D0
10
3362
20
7500.751
0
VERTEX
8
L6D0
10
3360
20
7500.751
0
VERTEX
8
L6D0
10
3360
20
8500.751
0
VERTEX
8
L6D0
10
3354
20
8500.751
0
VERTEX
8
L6D0
10
3354
20
7500.751
0
VERTEX
8
L6D0
10
3352
20
7500.751
0
VERTEX
8
L6D0
10
3352
20
8500.751
0
VERTEX
8
L6D0
10
3346
20
8500.751
0
VERTEX
8
L6D0
10
3346
20
7500.751
0
VERTEX
8
L6D0
10
3344
20
7500.751
0
VERTEX
8
L6D0
10
3344
20
8500.751
0
VERTEX
8
L6D0
10
3338
20
8500.751
0
VERTEX
8
L6D0
10
3338
20
7500.751
0
VERTEX
8
L6D0
10
3336
20
7500.751
0
VERTEX
8
L6D0
10
3336
20
8500.751
0
VERTEX
8
L6D0
10
3330
20
8500.751
0
VERTEX
8
L6D0
10
3330
20
7500.751
0
VERTEX
8
L6D0
10
3328
20
7500.751
0
VERTEX
8
L6D0
10
3328
20
8500.751
0
VERTEX
8
L6D0
10
3322
20
8500.751
0
VERTEX
8
L6D0
10
3322
20
7500.751
0
VERTEX
8
L6D0
10
3320
20
7500.751
0
VERTEX
8
L6D0
10
3320
20
8500.751
0
VERTEX
8
L6D0
10
3314
20
8500.751
0
VERTEX
8
L6D0
10
3314
20
7500.751
0
VERTEX
8
L6D0
10
3312
20
7500.751
0
VERTEX
8
L6D0
10
3312
20
8500.751
0
VERTEX
8
L6D0
10
3306
20
8500.751
0
VERTEX
8
L6D0
10
3306
20
7500.751
0
VERTEX
8
L6D0
10
3304
20
7500.751
0
VERTEX
8
L6D0
10
3304
20
8500.751
0
VERTEX
8
L6D0
10
3298
20
8500.751
0
VERTEX
8
L6D0
10
3298
20
7500.751
0
VERTEX
8
L6D0
10
3296
20
7500.751
0
VERTEX
8
L6D0
10
3296
20
8500.751
0
VERTEX
8
L6D0
10
3290
20
8500.751
0
VERTEX
8
L6D0
10
3290
20
7500.751
0
VERTEX
8
L6D0
10
3288
20
7500.751
0
VERTEX
8
L6D0
10
3288
20
8500.751
0
VERTEX
8
L6D0
10
3282
20
8500.751
0
VERTEX
8
L6D0
10
3282
20
7500.751
0
VERTEX
8
L6D0
10
3280
20
7500.751
0
VERTEX
8
L6D0
10
3280
20
8500.751
0
VERTEX
8
L6D0
10
3274
20
8500.751
0
VERTEX
8
L6D0
10
3274
20
7500.751
0
VERTEX
8
L6D0
10
3272
20
7500.751
0
VERTEX
8
L6D0
10
3272
20
8500.751
0
VERTEX
8
L6D0
10
3266
20
8500.751
0
VERTEX
8
L6D0
10
3266
20
7500.751
0
VERTEX
8
L6D0
10
3264
20
7500.751
0
VERTEX
8
L6D0
10
3264
20
8500.751
0
VERTEX
8
L6D0
10
3258
20
8500.751
0
VERTEX
8
L6D0
10
3258
20
7500.751
0
VERTEX
8
L6D0
10
3256
20
7500.751
0
VERTEX
8
L6D0
10
3256
20
8500.751
0
VERTEX
8
L6D0
10
3250
20
8500.751
0
VERTEX
8
L6D0
10
3250
20
7500.751
0
VERTEX
8
L6D0
10
3248
20
7500.751
0
VERTEX
8
L6D0
10
3248
20
8500.751
0
VERTEX
8
L6D0
10
3242
20
8500.751
0
VERTEX
8
L6D0
10
3242
20
7500.751
0
VERTEX
8
L6D0
10
3240
20
7500.751
0
VERTEX
8
L6D0
10
3240
20
8500.751
0
VERTEX
8
L6D0
10
3234
20
8500.751
0
VERTEX
8
L6D0
10
3234
20
7500.751
0
VERTEX
8
L6D0
10
3232
20
7500.751
0
VERTEX
8
L6D0
10
3232
20
8500.751
0
VERTEX
8
L6D0
10
3226
20
8500.751
0
VERTEX
8
L6D0
10
3226
20
7500.751
0
VERTEX
8
L6D0
10
3224
20
7500.751
0
VERTEX
8
L6D0
10
3224
20
8500.751
0
VERTEX
8
L6D0
10
3218
20
8500.751
0
VERTEX
8
L6D0
10
3218
20
7500.751
0
VERTEX
8
L6D0
10
3216
20
7500.751
0
VERTEX
8
L6D0
10
3216
20
8500.751
0
VERTEX
8
L6D0
10
3210
20
8500.751
0
VERTEX
8
L6D0
10
3210
20
7500.751
0
VERTEX
8
L6D0
10
3208
20
7500.751
0
VERTEX
8
L6D0
10
3208
20
8500.751
0
VERTEX
8
L6D0
10
3202
20
8500.751
0
VERTEX
8
L6D0
10
3202
20
7500.751
0
VERTEX
8
L6D0
10
3200
20
7500.751
0
VERTEX
8
L6D0
10
3200
20
8500.751
0
VERTEX
8
L6D0
10
3194
20
8500.751
0
VERTEX
8
L6D0
10
3194
20
7500.751
0
VERTEX
8
L6D0
10
3192
20
7500.751
0
VERTEX
8
L6D0
10
3192
20
8500.751
0
VERTEX
8
L6D0
10
3186
20
8500.751
0
VERTEX
8
L6D0
10
3186
20
7500.751
0
VERTEX
8
L6D0
10
3184
20
7500.751
0
VERTEX
8
L6D0
10
3184
20
8500.751
0
VERTEX
8
L6D0
10
3178
20
8500.751
0
VERTEX
8
L6D0
10
3178
20
7500.751
0
VERTEX
8
L6D0
10
3176
20
7500.751
0
VERTEX
8
L6D0
10
3176
20
8500.751
0
VERTEX
8
L6D0
10
3170
20
8500.751
0
VERTEX
8
L6D0
10
3170
20
7500.751
0
VERTEX
8
L6D0
10
3168
20
7500.751
0
VERTEX
8
L6D0
10
3168
20
8500.751
0
VERTEX
8
L6D0
10
3162
20
8500.751
0
VERTEX
8
L6D0
10
3162
20
7500.751
0
VERTEX
8
L6D0
10
3160
20
7500.751
0
VERTEX
8
L6D0
10
3160
20
8500.751
0
VERTEX
8
L6D0
10
3154
20
8500.751
0
VERTEX
8
L6D0
10
3154
20
7500.751
0
VERTEX
8
L6D0
10
3152
20
7500.751
0
VERTEX
8
L6D0
10
3152
20
8500.751
0
VERTEX
8
L6D0
10
3146
20
8500.751
0
VERTEX
8
L6D0
10
3146
20
7500.751
0
VERTEX
8
L6D0
10
3144
20
7500.751
0
VERTEX
8
L6D0
10
3144
20
8500.751
0
VERTEX
8
L6D0
10
3138
20
8500.751
0
VERTEX
8
L6D0
10
3138
20
7500.751
0
VERTEX
8
L6D0
10
3136
20
7500.751
0
VERTEX
8
L6D0
10
3136
20
8500.751
0
VERTEX
8
L6D0
10
3130
20
8500.751
0
VERTEX
8
L6D0
10
3130
20
7500.751
0
VERTEX
8
L6D0
10
3128
20
7500.751
0
VERTEX
8
L6D0
10
3128
20
8500.751
0
VERTEX
8
L6D0
10
3122
20
8500.751
0
VERTEX
8
L6D0
10
3122
20
7500.751
0
VERTEX
8
L6D0
10
3120
20
7500.751
0
VERTEX
8
L6D0
10
3120
20
8500.751
0
VERTEX
8
L6D0
10
3114
20
8500.751
0
VERTEX
8
L6D0
10
3114
20
7500.751
0
VERTEX
8
L6D0
10
3112
20
7500.751
0
VERTEX
8
L6D0
10
3112
20
8500.751
0
VERTEX
8
L6D0
10
3106
20
8500.751
0
VERTEX
8
L6D0
10
3106
20
7500.751
0
VERTEX
8
L6D0
10
3104
20
7500.751
0
VERTEX
8
L6D0
10
3104
20
8500.751
0
VERTEX
8
L6D0
10
3098
20
8500.751
0
VERTEX
8
L6D0
10
3098
20
7500.751
0
VERTEX
8
L6D0
10
3096
20
7500.751
0
VERTEX
8
L6D0
10
3096
20
8500.751
0
VERTEX
8
L6D0
10
3090
20
8500.751
0
VERTEX
8
L6D0
10
3090
20
7500.751
0
VERTEX
8
L6D0
10
3088
20
7500.751
0
VERTEX
8
L6D0
10
3088
20
8500.751
0
VERTEX
8
L6D0
10
3082
20
8500.751
0
VERTEX
8
L6D0
10
3082
20
7500.751
0
VERTEX
8
L6D0
10
3080
20
7500.751
0
VERTEX
8
L6D0
10
3080
20
8500.751
0
VERTEX
8
L6D0
10
3074
20
8500.751
0
VERTEX
8
L6D0
10
3074
20
7500.751
0
VERTEX
8
L6D0
10
3072
20
7500.751
0
VERTEX
8
L6D0
10
3072
20
8500.751
0
VERTEX
8
L6D0
10
3066
20
8500.751
0
VERTEX
8
L6D0
10
3066
20
7500.751
0
VERTEX
8
L6D0
10
3064
20
7500.751
0
VERTEX
8
L6D0
10
3064
20
8500.751
0
VERTEX
8
L6D0
10
3058
20
8500.751
0
VERTEX
8
L6D0
10
3058
20
7500.751
0
VERTEX
8
L6D0
10
3056
20
7500.751
0
VERTEX
8
L6D0
10
3056
20
8500.751
0
VERTEX
8
L6D0
10
3050
20
8500.751
0
VERTEX
8
L6D0
10
3050
20
7500.751
0
VERTEX
8
L6D0
10
3048
20
7500.751
0
VERTEX
8
L6D0
10
3048
20
8500.751
0
VERTEX
8
L6D0
10
3042
20
8500.751
0
VERTEX
8
L6D0
10
3042
20
7500.751
0
VERTEX
8
L6D0
10
3040
20
7500.751
0
VERTEX
8
L6D0
10
3040
20
8500.751
0
VERTEX
8
L6D0
10
3034
20
8500.751
0
VERTEX
8
L6D0
10
3034
20
7500.751
0
VERTEX
8
L6D0
10
3032
20
7500.751
0
VERTEX
8
L6D0
10
3032
20
8500.751
0
VERTEX
8
L6D0
10
3026
20
8500.751
0
VERTEX
8
L6D0
10
3026
20
7500.751
0
VERTEX
8
L6D0
10
3024
20
7500.751
0
VERTEX
8
L6D0
10
3024
20
8500.751
0
VERTEX
8
L6D0
10
3018
20
8500.751
0
VERTEX
8
L6D0
10
3018
20
7500.751
0
VERTEX
8
L6D0
10
3016
20
7500.751
0
VERTEX
8
L6D0
10
3016
20
8500.751
0
VERTEX
8
L6D0
10
3010
20
8500.751
0
VERTEX
8
L6D0
10
3010
20
7500.751
0
VERTEX
8
L6D0
10
3008
20
7500.751
0
VERTEX
8
L6D0
10
3008
20
8500.751
0
VERTEX
8
L6D0
10
3002
20
8500.751
0
VERTEX
8
L6D0
10
3002
20
7500.751
0
VERTEX
8
L6D0
10
3000
20
7500.751
0
VERTEX
8
L6D0
10
3000
20
8500.751
0
VERTEX
8
L6D0
10
2994
20
8500.751
0
VERTEX
8
L6D0
10
2994
20
7500.751
0
VERTEX
8
L6D0
10
2992
20
7500.751
0
VERTEX
8
L6D0
10
2992
20
8500.751
0
VERTEX
8
L6D0
10
2986
20
8500.751
0
VERTEX
8
L6D0
10
2986
20
7500.751
0
VERTEX
8
L6D0
10
2984
20
7500.751
0
VERTEX
8
L6D0
10
2984
20
8500.751
0
VERTEX
8
L6D0
10
2978
20
8500.751
0
VERTEX
8
L6D0
10
2978
20
7500.751
0
VERTEX
8
L6D0
10
2976
20
7500.751
0
VERTEX
8
L6D0
10
2976
20
8500.751
0
VERTEX
8
L6D0
10
2970
20
8500.751
0
VERTEX
8
L6D0
10
2970
20
7500.751
0
VERTEX
8
L6D0
10
2968
20
7500.751
0
VERTEX
8
L6D0
10
2968
20
8500.751
0
VERTEX
8
L6D0
10
2962
20
8500.751
0
VERTEX
8
L6D0
10
2962
20
7500.751
0
VERTEX
8
L6D0
10
2960
20
7500.751
0
VERTEX
8
L6D0
10
2960
20
8500.751
0
VERTEX
8
L6D0
10
2954
20
8500.751
0
VERTEX
8
L6D0
10
2954
20
7500.751
0
VERTEX
8
L6D0
10
2952
20
7500.751
0
VERTEX
8
L6D0
10
2952
20
8500.751
0
VERTEX
8
L6D0
10
2946
20
8500.751
0
VERTEX
8
L6D0
10
2946
20
7500.751
0
VERTEX
8
L6D0
10
2944
20
7500.751
0
VERTEX
8
L6D0
10
2944
20
8500.751
0
VERTEX
8
L6D0
10
2938
20
8500.751
0
VERTEX
8
L6D0
10
2938
20
7500.751
0
VERTEX
8
L6D0
10
2936
20
7500.751
0
VERTEX
8
L6D0
10
2936
20
8500.751
0
VERTEX
8
L6D0
10
2930
20
8500.751
0
VERTEX
8
L6D0
10
2930
20
7500.751
0
VERTEX
8
L6D0
10
2928
20
7500.751
0
VERTEX
8
L6D0
10
2928
20
8500.751
0
VERTEX
8
L6D0
10
2922
20
8500.751
0
VERTEX
8
L6D0
10
2922
20
7500.751
0
VERTEX
8
L6D0
10
2920
20
7500.751
0
VERTEX
8
L6D0
10
2920
20
8500.751
0
VERTEX
8
L6D0
10
2914
20
8500.751
0
VERTEX
8
L6D0
10
2914
20
7500.751
0
VERTEX
8
L6D0
10
2912
20
7500.751
0
VERTEX
8
L6D0
10
2912
20
8500.751
0
VERTEX
8
L6D0
10
2906
20
8500.751
0
VERTEX
8
L6D0
10
2906
20
7500.751
0
VERTEX
8
L6D0
10
2904
20
7500.751
0
VERTEX
8
L6D0
10
2904
20
8500.751
0
VERTEX
8
L6D0
10
2898
20
8500.751
0
VERTEX
8
L6D0
10
2898
20
7500.751
0
VERTEX
8
L6D0
10
2896
20
7500.751
0
VERTEX
8
L6D0
10
2896
20
8500.751
0
VERTEX
8
L6D0
10
2890
20
8500.751
0
VERTEX
8
L6D0
10
2890
20
7500.751
0
VERTEX
8
L6D0
10
2888
20
7500.751
0
VERTEX
8
L6D0
10
2888
20
8500.751
0
VERTEX
8
L6D0
10
2882
20
8500.751
0
VERTEX
8
L6D0
10
2882
20
7500.751
0
VERTEX
8
L6D0
10
2880
20
7500.751
0
VERTEX
8
L6D0
10
2880
20
8500.751
0
VERTEX
8
L6D0
10
2874
20
8500.751
0
VERTEX
8
L6D0
10
2874
20
7500.751
0
VERTEX
8
L6D0
10
2872
20
7500.751
0
VERTEX
8
L6D0
10
2872
20
8500.751
0
VERTEX
8
L6D0
10
2866
20
8500.751
0
VERTEX
8
L6D0
10
2866
20
7500.751
0
VERTEX
8
L6D0
10
2864
20
7500.751
0
VERTEX
8
L6D0
10
2864
20
8500.751
0
VERTEX
8
L6D0
10
2858
20
8500.751
0
VERTEX
8
L6D0
10
2858
20
7500.751
0
VERTEX
8
L6D0
10
2856
20
7500.751
0
VERTEX
8
L6D0
10
2856
20
8500.751
0
VERTEX
8
L6D0
10
2850
20
8500.751
0
VERTEX
8
L6D0
10
2850
20
7500.751
0
VERTEX
8
L6D0
10
2848
20
7500.751
0
VERTEX
8
L6D0
10
2848
20
8500.751
0
VERTEX
8
L6D0
10
2842
20
8500.751
0
VERTEX
8
L6D0
10
2842
20
7500.751
0
VERTEX
8
L6D0
10
2840
20
7500.751
0
VERTEX
8
L6D0
10
2840
20
8500.751
0
VERTEX
8
L6D0
10
2834
20
8500.751
0
VERTEX
8
L6D0
10
2834
20
7500.751
0
VERTEX
8
L6D0
10
2832
20
7500.751
0
VERTEX
8
L6D0
10
2832
20
8500.751
0
VERTEX
8
L6D0
10
2826
20
8500.751
0
VERTEX
8
L6D0
10
2826
20
7500.751
0
VERTEX
8
L6D0
10
2824
20
7500.751
0
VERTEX
8
L6D0
10
2824
20
8500.751
0
VERTEX
8
L6D0
10
2818
20
8500.751
0
VERTEX
8
L6D0
10
2818
20
7500.751
0
VERTEX
8
L6D0
10
2816
20
7500.751
0
VERTEX
8
L6D0
10
2816
20
8500.751
0
VERTEX
8
L6D0
10
2810
20
8500.751
0
VERTEX
8
L6D0
10
2810
20
7500.751
0
VERTEX
8
L6D0
10
2808
20
7500.751
0
VERTEX
8
L6D0
10
2808
20
8500.751
0
VERTEX
8
L6D0
10
2802
20
8500.751
0
VERTEX
8
L6D0
10
2802
20
7500.751
0
VERTEX
8
L6D0
10
2800
20
7500.751
0
VERTEX
8
L6D0
10
2800
20
8500.751
0
VERTEX
8
L6D0
10
2794
20
8500.751
0
VERTEX
8
L6D0
10
2794
20
7500.751
0
VERTEX
8
L6D0
10
2792
20
7500.751
0
VERTEX
8
L6D0
10
2792
20
8500.751
0
VERTEX
8
L6D0
10
2786
20
8500.751
0
VERTEX
8
L6D0
10
2786
20
7500.751
0
VERTEX
8
L6D0
10
2784
20
7500.751
0
VERTEX
8
L6D0
10
2784
20
8500.751
0
VERTEX
8
L6D0
10
2778
20
8500.751
0
VERTEX
8
L6D0
10
2778
20
7500.751
0
VERTEX
8
L6D0
10
2776
20
7500.751
0
VERTEX
8
L6D0
10
2776
20
8500.751
0
VERTEX
8
L6D0
10
2770
20
8500.751
0
VERTEX
8
L6D0
10
2770
20
7500.751
0
VERTEX
8
L6D0
10
2768
20
7500.751
0
VERTEX
8
L6D0
10
2768
20
8500.751
0
VERTEX
8
L6D0
10
2762
20
8500.751
0
VERTEX
8
L6D0
10
2762
20
7500.751
0
VERTEX
8
L6D0
10
2760
20
7500.751
0
VERTEX
8
L6D0
10
2760
20
8500.751
0
VERTEX
8
L6D0
10
2754
20
8500.751
0
VERTEX
8
L6D0
10
2754
20
7500.751
0
VERTEX
8
L6D0
10
2752
20
7500.751
0
VERTEX
8
L6D0
10
2752
20
8500.751
0
VERTEX
8
L6D0
10
2746
20
8500.751
0
VERTEX
8
L6D0
10
2746
20
7500.751
0
VERTEX
8
L6D0
10
2744
20
7500.751
0
VERTEX
8
L6D0
10
2744
20
8500.751
0
VERTEX
8
L6D0
10
2738
20
8500.751
0
VERTEX
8
L6D0
10
2738
20
7500.751
0
VERTEX
8
L6D0
10
2736
20
7500.751
0
VERTEX
8
L6D0
10
2736
20
8500.751
0
VERTEX
8
L6D0
10
2730
20
8500.751
0
VERTEX
8
L6D0
10
2730
20
7500.751
0
VERTEX
8
L6D0
10
2728
20
7500.751
0
VERTEX
8
L6D0
10
2728
20
8500.751
0
VERTEX
8
L6D0
10
2722
20
8500.751
0
VERTEX
8
L6D0
10
2722
20
7500.751
0
VERTEX
8
L6D0
10
2720
20
7500.751
0
VERTEX
8
L6D0
10
2720
20
8500.751
0
VERTEX
8
L6D0
10
2714
20
8500.751
0
VERTEX
8
L6D0
10
2714
20
7500.751
0
VERTEX
8
L6D0
10
2712
20
7500.751
0
VERTEX
8
L6D0
10
2712
20
8500.751
0
VERTEX
8
L6D0
10
2706
20
8500.751
0
VERTEX
8
L6D0
10
2706
20
7500.751
0
VERTEX
8
L6D0
10
2704
20
7500.751
0
VERTEX
8
L6D0
10
2704
20
8500.751
0
VERTEX
8
L6D0
10
2698
20
8500.751
0
VERTEX
8
L6D0
10
2698
20
7500.751
0
VERTEX
8
L6D0
10
2696
20
7500.751
0
VERTEX
8
L6D0
10
2696
20
8500.751
0
VERTEX
8
L6D0
10
2690
20
8500.751
0
VERTEX
8
L6D0
10
2690
20
7500.751
0
VERTEX
8
L6D0
10
2688
20
7500.751
0
VERTEX
8
L6D0
10
2688
20
8500.751
0
VERTEX
8
L6D0
10
2682
20
8500.751
0
VERTEX
8
L6D0
10
2682
20
7500.751
0
VERTEX
8
L6D0
10
2680
20
7500.751
0
VERTEX
8
L6D0
10
2680
20
8500.751
0
VERTEX
8
L6D0
10
2674
20
8500.751
0
VERTEX
8
L6D0
10
2674
20
7500.751
0
VERTEX
8
L6D0
10
2672
20
7500.751
0
VERTEX
8
L6D0
10
2672
20
8500.751
0
VERTEX
8
L6D0
10
2666
20
8500.751
0
VERTEX
8
L6D0
10
2666
20
7500.751
0
VERTEX
8
L6D0
10
2664
20
7500.751
0
VERTEX
8
L6D0
10
2664
20
8500.751
0
VERTEX
8
L6D0
10
2658
20
8500.751
0
VERTEX
8
L6D0
10
2658
20
7500.751
0
VERTEX
8
L6D0
10
2656
20
7500.751
0
VERTEX
8
L6D0
10
2656
20
8500.751
0
VERTEX
8
L6D0
10
2650
20
8500.751
0
VERTEX
8
L6D0
10
2650
20
7500.751
0
SEQEND
0
POLYLINE
8
L6D0
70
1
40
0
41
0
66
1
0
VERTEX
8
L6D0
10
2824
20
7372.751
0
VERTEX
8
L6D0
10
2824
20
7397.751
0
VERTEX
8
L6D0
10
2828
20
7397.751
0
VERTEX
8
L6D0
10
2828
20
7472.751
0
VERTEX
8
L6D0
10
2830
20
7472.751
0
VERTEX
8
L6D0
10
2830
20
7397.751
0
VERTEX
8
L6D0
10
2836
20
7397.751
0
VERTEX
8
L6D0
10
2836
20
7472.751
0
VERTEX
8
L6D0
10
2838
20
7472.751
0
VERTEX
8
L6D0
10
2838
20
7397.751
0
VERTEX
8
L6D0
10
2844
20
7397.751
0
VERTEX
8
L6D0
10
2844
20
7472.751
0
VERTEX
8
L6D0
10
2846
20
7472.751
0
VERTEX
8
L6D0
10
2846
20
7397.751
0
VERTEX
8
L6D0
10
2852
20
7397.751
0
VERTEX
8
L6D0
10
2852
20
7472.751
0
VERTEX
8
L6D0
10
2854
20
7472.751
0
VERTEX
8
L6D0
10
2854
20
7397.751
0
VERTEX
8
L6D0
10
2860
20
7397.751
0
VERTEX
8
L6D0
10
2860
20
7472.751
0
VERTEX
8
L6D0
10
2862
20
7472.751
0
VERTEX
8
L6D0
10
2862
20
7397.751
0
VERTEX
8
L6D0
10
2868
20
7397.751
0
VERTEX
8
L6D0
10
2868
20
7472.751
0
VERTEX
8
L6D0
10
2870
20
7472.751
0
VERTEX
8
L6D0
10
2870
20
7397.751
0
VERTEX
8
L6D0
10
2876
20
7397.751
0
VERTEX
8
L6D0
10
2876
20
7472.751
0
VERTEX
8
L6D0
10
2878
20
7472.751
0
VERTEX
8
L6D0
10
2878
20
7397.751
0
VERTEX
8
L6D0
10
2884
20
7397.751
0
VERTEX
8
L6D0
10
2884
20
7472.751
0
VERTEX
8
L6D0
10
2886
20
7472.751
0
VERTEX
8
L6D0
10
2886
20
7397.751
0
VERTEX
8
L6D0
10
2892
20
7397.751
0
VERTEX
8
L6D0
10
2892
20
7472.751
0
VERTEX
8
L6D0
10
2894
20
7472.751
0
VERTEX
8
L6D0
10
2894
20
7397.751
0
VERTEX
8
L6D0
10
2900
20
7397.751
0
VERTEX
8
L6D0
10
2900
20
7472.751
0
VERTEX
8
L6D0
10
2902
20
7472.751
0
VERTEX
8
L6D0
10
2902
20
7397.751
0
VERTEX
8
L6D0
10
2908
20
7397.751
0
VERTEX
8
L6D0
10
2908
20
7472.751
0
VERTEX
8
L6D0
10
2910
20
7472.751
0
VERTEX
8
L6D0
10
2910
20
7397.751
0
VERTEX
8
L6D0
10
2916
20
7397.751
0
VERTEX
8
L6D0
10
2916
20
7472.751
0
VERTEX
8
L6D0
10
2918
20
7472.751
0
VERTEX
8
L6D0
10
2918
20
7397.751
0
VERTEX
8
L6D0
10
2924
20
7397.751
0
VERTEX
8
L6D0
10
2924
20
7472.751
0
VERTEX
8
L6D0
10
2926
20
7472.751
0
VERTEX
8
L6D0
10
2926
20
7397.751
0
VERTEX
8
L6D0
10
2932
20
7397.751
0
VERTEX
8
L6D0
10
2932
20
7472.751
0
VERTEX
8
L6D0
10
2934
20
7472.751
0
VERTEX
8
L6D0
10
2934
20
7397.751
0
VERTEX
8
L6D0
10
2940
20
7397.751
0
VERTEX
8
L6D0
10
2940
20
7472.751
0
VERTEX
8
L6D0
10
2942
20
7472.751
0
VERTEX
8
L6D0
10
2942
20
7397.751
0
VERTEX
8
L6D0
10
2948
20
7397.751
0
VERTEX
8
L6D0
10
2948
20
7472.751
0
VERTEX
8
L6D0
10
2950
20
7472.751
0
VERTEX
8
L6D0
10
2950
20
7397.751
0
VERTEX
8
L6D0
10
2956
20
7397.751
0
VERTEX
8
L6D0
10
2956
20
7472.751
0
VERTEX
8
L6D0
10
2958
20
7472.751
0
VERTEX
8
L6D0
10
2958
20
7397.751
0
VERTEX
8
L6D0
10
2964
20
7397.751
0
VERTEX
8
L6D0
10
2964
20
7472.751
0
VERTEX
8
L6D0
10
2966
20
7472.751
0
VERTEX
8
L6D0
10
2966
20
7397.751
0
VERTEX
8
L6D0
10
2972
20
7397.751
0
VERTEX
8
L6D0
10
2972
20
7472.751
0
VERTEX
8
L6D0
10
2974
20
7472.751
0
VERTEX
8
L6D0
10
2974
20
7397.751
0
VERTEX
8
L6D0
10
2980
20
7397.751
0
VERTEX
8
L6D0
10
2980
20
7472.751
0
VERTEX
8
L6D0
10
2982
20
7472.751
0
VERTEX
8
L6D0
10
2982
20
7397.751
0
VERTEX
8
L6D0
10
2988
20
7397.751
0
VERTEX
8
L6D0
10
2988
20
7472.751
0
VERTEX
8
L6D0
10
2990
20
7472.751
0
VERTEX
8
L6D0
10
2990
20
7397.751
0
VERTEX
8
L6D0
10
2996
20
7397.751
0
VERTEX
8
L6D0
10
2996
20
7472.751
0
VERTEX
8
L6D0
10
2998
20
7472.751
0
VERTEX
8
L6D0
10
2998
20
7397.751
0
VERTEX
8
L6D0
10
3004
20
7397.751
0
VERTEX
8
L6D0
10
3004
20
7472.751
0
VERTEX
8
L6D0
10
3006
20
7472.751
0
VERTEX
8
L6D0
10
3006
20
7397.751
0
VERTEX
8
L6D0
10
3012
20
7397.751
0
VERTEX
8
L6D0
10
3012
20
7472.751
0
VERTEX
8
L6D0
10
3014
20
7472.751
0
VERTEX
8
L6D0
10
3014
20
7397.751
0
VERTEX
8
L6D0
10
3020
20
7397.751
0
VERTEX
8
L6D0
10
3020
20
7472.751
0
VERTEX
8
L6D0
10
3022
20
7472.751
0
VERTEX
8
L6D0
10
3022
20
7397.751
0
VERTEX
8
L6D0
10
3028
20
7397.751
0
VERTEX
8
L6D0
10
3028
20
7472.751
0
VERTEX
8
L6D0
10
3030
20
7472.751
0
VERTEX
8
L6D0
10
3030
20
7397.751
0
VERTEX
8
L6D0
10
3036
20
7397.751
0
VERTEX
8
L6D0
10
3036
20
7472.751
0
VERTEX
8
L6D0
10
3038
20
7472.751
0
VERTEX
8
L6D0
10
3038
20
7397.751
0
VERTEX
8
L6D0
10
3044
20
7397.751
0
VERTEX
8
L6D0
10
3044
20
7472.751
0
VERTEX
8
L6D0
10
3046
20
7472.751
0
VERTEX
8
L6D0
10
3046
20
7397.751
0
VERTEX
8
L6D0
10
3052
20
7397.751
0
VERTEX
8
L6D0
10
3052
20
7472.751
0
VERTEX
8
L6D0
10
3054
20
7472.751
0
VERTEX
8
L6D0
10
3054
20
7397.751
0
VERTEX
8
L6D0
10
3060
20
7397.751
0
VERTEX
8
L6D0
10
3060
20
7472.751
0
VERTEX
8
L6D0
10
3062
20
7472.751
0
VERTEX
8
L6D0
10
3062
20
7397.751
0
VERTEX
8
L6D0
10
3068
20
7397.751
0
VERTEX
8
L6D0
10
3068
20
7472.751
0
VERTEX
8
L6D0
10
3070
20
7472.751
0
VERTEX
8
L6D0
10
3070
20
7397.751
0
VERTEX
8
L6D0
10
3076
20
7397.751
0
VERTEX
8
L6D0
10
3076
20
7472.751
0
VERTEX
8
L6D0
10
3078
20
7472.751
0
VERTEX
8
L6D0
10
3078
20
7397.751
0
VERTEX
8
L6D0
10
3084
20
7397.751
0
VERTEX
8
L6D0
10
3084
20
7472.751
0
VERTEX
8
L6D0
10
3086
20
7472.751
0
VERTEX
8
L6D0
10
3086
20
7397.751
0
VERTEX
8
L6D0
10
3092
20
7397.751
0
VERTEX
8
L6D0
10
3092
20
7472.751
0
VERTEX
8
L6D0
10
3094
20
7472.751
0
VERTEX
8
L6D0
10
3094
20
7397.751
0
VERTEX
8
L6D0
10
3100
20
7397.751
0
VERTEX
8
L6D0
10
3100
20
7472.751
0
VERTEX
8
L6D0
10
3102
20
7472.751
0
VERTEX
8
L6D0
10
3102
20
7397.751
0
VERTEX
8
L6D0
10
3108
20
7397.751
0
VERTEX
8
L6D0
10
3108
20
7472.751
0
VERTEX
8
L6D0
10
3110
20
7472.751
0
VERTEX
8
L6D0
10
3110
20
7397.751
0
VERTEX
8
L6D0
10
3116
20
7397.751
0
VERTEX
8
L6D0
10
3116
20
7472.751
0
VERTEX
8
L6D0
10
3118
20
7472.751
0
VERTEX
8
L6D0
10
3118
20
7397.751
0
VERTEX
8
L6D0
10
3124
20
7397.751
0
VERTEX
8
L6D0
10
3124
20
7472.751
0
VERTEX
8
L6D0
10
3126
20
7472.751
0
VERTEX
8
L6D0
10
3126
20
7397.751
0
VERTEX
8
L6D0
10
3132
20
7397.751
0
VERTEX
8
L6D0
10
3132
20
7472.751
0
VERTEX
8
L6D0
10
3134
20
7472.751
0
VERTEX
8
L6D0
10
3134
20
7397.751
0
VERTEX
8
L6D0
10
3138
20
7397.751
0
VERTEX
8
L6D0
10
3138
20
7372.751
0
SEQEND
0
POLYLINE
8
L6D0
70
1
40
0
41
0
66
1
0
VERTEX
8
L6D0
10
2828
20
8527.251
0
VERTEX
8
L6D0
10
2828
20
8602.251
0
VERTEX
8
L6D0
10
2824
20
8602.251
0
VERTEX
8
L6D0
10
2824
20
8627.251
0
VERTEX
8
L6D0
10
3138
20
8627.251
0
VERTEX
8
L6D0
10
3138
20
8602.251
0
VERTEX
8
L6D0
10
3134
20
8602.251
0
VERTEX
8
L6D0
10
3134
20
8527.251
0
VERTEX
8
L6D0
10
3132
20
8527.251
0
VERTEX
8
L6D0
10
3132
20
8602.251
0
VERTEX
8
L6D0
10
3126
20
8602.251
0
VERTEX
8
L6D0
10
3126
20
8527.251
0
VERTEX
8
L6D0
10
3124
20
8527.251
0
VERTEX
8
L6D0
10
3124
20
8602.251
0
VERTEX
8
L6D0
10
3118
20
8602.251
0
VERTEX
8
L6D0
10
3118
20
8527.251
0
VERTEX
8
L6D0
10
3116
20
8527.251
0
VERTEX
8
L6D0
10
3116
20
8602.251
0
VERTEX
8
L6D0
10
3110
20
8602.251
0
VERTEX
8
L6D0
10
3110
20
8527.251
0
VERTEX
8
L6D0
10
3108
20
8527.251
0
VERTEX
8
L6D0
10
3108
20
8602.251
0
VERTEX
8
L6D0
10
3102
20
8602.251
0
VERTEX
8
L6D0
10
3102
20
8527.251
0
VERTEX
8
L6D0
10
3100
20
8527.251
0
VERTEX
8
L6D0
10
3100
20
8602.251
0
VERTEX
8
L6D0
10
3094
20
8602.251
0
VERTEX
8
L6D0
10
3094
20
8527.251
0
VERTEX
8
L6D0
10
3092
20
8527.251
0
VERTEX
8
L6D0
10
3092
20
8602.251
0
VERTEX
8
L6D0
10
3086
20
8602.251
0
VERTEX
8
L6D0
10
3086
20
8527.251
0
VERTEX
8
L6D0
10
3084
20
8527.251
0
VERTEX
8
L6D0
10
3084
20
8602.251
0
VERTEX
8
L6D0
10
3078
20
8602.251
0
VERTEX
8
L6D0
10
3078
20
8527.251
0
VERTEX
8
L6D0
10
3076
20
8527.251
0
VERTEX
8
L6D0
10
3076
20
8602.251
0
VERTEX
8
L6D0
10
3070
20
8602.251
0
VERTEX
8
L6D0
10
3070
20
8527.251
0
VERTEX
8
L6D0
10
3068
20
8527.251
0
VERTEX
8
L6D0
10
3068
20
8602.251
0
VERTEX
8
L6D0
10
3062
20
8602.251
0
VERTEX
8
L6D0
10
3062
20
8527.251
0
VERTEX
8
L6D0
10
3060
20
8527.251
0
VERTEX
8
L6D0
10
3060
20
8602.251
0
VERTEX
8
L6D0
10
3054
20
8602.251
0
VERTEX
8
L6D0
10
3054
20
8527.251
0
VERTEX
8
L6D0
10
3052
20
8527.251
0
VERTEX
8
L6D0
10
3052
20
8602.251
0
VERTEX
8
L6D0
10
3046
20
8602.251
0
VERTEX
8
L6D0
10
3046
20
8527.251
0
VERTEX
8
L6D0
10
3044
20
8527.251
0
VERTEX
8
L6D0
10
3044
20
8602.251
0
VERTEX
8
L6D0
10
3038
20
8602.251
0
VERTEX
8
L6D0
10
3038
20
8527.251
0
VERTEX
8
L6D0
10
3036
20
8527.251
0
VERTEX
8
L6D0
10
3036
20
8602.251
0
VERTEX
8
L6D0
10
3030
20
8602.251
0
VERTEX
8
L6D0
10
3030
20
8527.251
0
VERTEX
8
L6D0
10
3028
20
8527.251
0
VERTEX
8
L6D0
10
3028
20
8602.251
0
VERTEX
8
L6D0
10
3022
20
8602.251
0
VERTEX
8
L6D0
10
3022
20
8527.251
0
VERTEX
8
L6D0
10
3020
20
8527.251
0
VERTEX
8
L6D0
10
3020
20
8602.251
0
VERTEX
8
L6D0
10
3014
20
8602.251
0
VERTEX
8
L6D0
10
3014
20
8527.251
0
VERTEX
8
L6D0
10
3012
20
8527.251
0
VERTEX
8
L6D0
10
3012
20
8602.251
0
VERTEX
8
L6D0
10
3006
20
8602.251
0
VERTEX
8
L6D0
10
3006
20
8527.251
0
VERTEX
8
L6D0
10
3004
20
8527.251
0
VERTEX
8
L6D0
10
3004
20
8602.251
0
VERTEX
8
L6D0
10
2998
20
8602.251
0
VERTEX
8
L6D0
10
2998
20
8527.251
0
VERTEX
8
L6D0
10
2996
20
8527.251
0
VERTEX
8
L6D0
10
2996
20
8602.251
0
VERTEX
8
L6D0
10
2990
20
8602.251
0
VERTEX
8
L6D0
10
2990
20
8527.251
0
VERTEX
8
L6D0
10
2988
20
8527.251
0
VERTEX
8
L6D0
10
2988
20
8602.251
0
VERTEX
8
L6D0
10
2982
20
8602.251
0
VERTEX
8
L6D0
10
2982
20
8527.251
0
VERTEX
8
L6D0
10
2980
20
8527.251
0
VERTEX
8
L6D0
10
2980
20
8602.251
0
VERTEX
8
L6D0
10
2974
20
8602.251
0
VERTEX
8
L6D0
10
2974
20
8527.251
0
VERTEX
8
L6D0
10
2972
20
8527.251
0
VERTEX
8
L6D0
10
2972
20
8602.251
0
VERTEX
8
L6D0
10
2966
20
8602.251
0
VERTEX
8
L6D0
10
2966
20
8527.251
0
VERTEX
8
L6D0
10
2964
20
8527.251
0
VERTEX
8
L6D0
10
2964
20
8602.251
0
VERTEX
8
L6D0
10
2958
20
8602.251
0
VERTEX
8
L6D0
10
2958
20
8527.251
0
VERTEX
8
L6D0
10
2956
20
8527.251
0
VERTEX
8
L6D0
10
2956
20
8602.251
0
VERTEX
8
L6D0
10
2950
20
8602.251
0
VERTEX
8
L6D0
10
2950
20
8527.251
0
VERTEX
8
L6D0
10
2948
20
8527.251
0
VERTEX
8
L6D0
10
2948
20
8602.251
0
VERTEX
8
L6D0
10
2942
20
8602.251
0
VERTEX
8
L6D0
10
2942
20
8527.251
0
VERTEX
8
L6D0
10
2940
20
8527.251
0
VERTEX
8
L6D0
10
2940
20
8602.251
0
VERTEX
8
L6D0
10
2934
20
8602.251
0
VERTEX
8
L6D0
10
2934
20
8527.251
0
VERTEX
8
L6D0
10
2932
20
8527.251
0
VERTEX
8
L6D0
10
2932
20
8602.251
0
VERTEX
8
L6D0
10
2926
20
8602.251
0
VERTEX
8
L6D0
10
2926
20
8527.251
0
VERTEX
8
L6D0
10
2924
20
8527.251
0
VERTEX
8
L6D0
10
2924
20
8602.251
0
VERTEX
8
L6D0
10
2918
20
8602.251
0
VERTEX
8
L6D0
10
2918
20
8527.251
0
VERTEX
8
L6D0
10
2916
20
8527.251
0
VERTEX
8
L6D0
10
2916
20
8602.251
0
VERTEX
8
L6D0
10
2910
20
8602.251
0
VERTEX
8
L6D0
10
2910
20
8527.251
0
VERTEX
8
L6D0
10
2908
20
8527.251
0
VERTEX
8
L6D0
10
2908
20
8602.251
0
VERTEX
8
L6D0
10
2902
20
8602.251
0
VERTEX
8
L6D0
10
2902
20
8527.251
0
VERTEX
8
L6D0
10
2900
20
8527.251
0
VERTEX
8
L6D0
10
2900
20
8602.251
0
VERTEX
8
L6D0
10
2894
20
8602.251
0
VERTEX
8
L6D0
10
2894
20
8527.251
0
VERTEX
8
L6D0
10
2892
20
8527.251
0
VERTEX
8
L6D0
10
2892
20
8602.251
0
VERTEX
8
L6D0
10
2886
20
8602.251
0
VERTEX
8
L6D0
10
2886
20
8527.251
0
VERTEX
8
L6D0
10
2884
20
8527.251
0
VERTEX
8
L6D0
10
2884
20
8602.251
0
VERTEX
8
L6D0
10
2878
20
8602.251
0
VERTEX
8
L6D0
10
2878
20
8527.251
0
VERTEX
8
L6D0
10
2876
20
8527.251
0
VERTEX
8
L6D0
10
2876
20
8602.251
0
VERTEX
8
L6D0
10
2870
20
8602.251
0
VERTEX
8
L6D0
10
2870
20
8527.251
0
VERTEX
8
L6D0
10
2868
20
8527.251
0
VERTEX
8
L6D0
10
2868
20
8602.251
0
VERTEX
8
L6D0
10
2862
20
8602.251
0
VERTEX
8
L6D0
10
2862
20
8527.251
0
VERTEX
8
L6D0
10
2860
20
8527.251
0
VERTEX
8
L6D0
10
2860
20
8602.251
0
VERTEX
8
L6D0
10
2854
20
8602.251
0
VERTEX
8
L6D0
10
2854
20
8527.251
0
VERTEX
8
L6D0
10
2852
20
8527.251
0
VERTEX
8
L6D0
10
2852
20
8602.251
0
VERTEX
8
L6D0
10
2846
20
8602.251
0
VERTEX
8
L6D0
10
2846
20
8527.251
0
VERTEX
8
L6D0
10
2844
20
8527.251
0
VERTEX
8
L6D0
10
2844
20
8602.251
0
VERTEX
8
L6D0
10
2838
20
8602.251
0
VERTEX
8
L6D0
10
2838
20
8527.251
0
VERTEX
8
L6D0
10
2836
20
8527.251
0
VERTEX
8
L6D0
10
2836
20
8602.251
0
VERTEX
8
L6D0
10
2830
20
8602.251
0
VERTEX
8
L6D0
10
2830
20
8527.251
0
SEQEND
0
POLYLINE
8
L6D0
70
1
40
0
41
0
66
1
0
VERTEX
8
L6D0
10
1879
20
7253.5
0
VERTEX
8
L6D0
10
1879
20
8746.5
0
VERTEX
8
L6D0
10
4121
20
8746.5
0
VERTEX
8
L6D0
10
4121
20
7253.5
0
SEQEND
0
ENDSEC
0
EOF
