0
SECTION
2
HEADER
9
$ACADVER
1
AC1006
0
ENDSEC
0
SECTION
2
TABLES
0
TABLE
2
LAYER
70
1
0
LAYER
70
0
62
1
6
CONTINUOUS
2
L6D0
0
ENDTAB
0
ENDSEC
0
SECTION
2
BLOCKS
0
ENDSEC
0
SECTION
2
ENTITIES
0
POLYLINE
8
L6D0
70
1
40
0
41
0
66
1
0
VERTEX
8
L6D0
10
-228.002
20
-600.749
0
VERTEX
8
L6D0
10
-228.002
20
-525.749
0
VERTEX
8
L6D0
10
-1020.002
20
-525.749
0
VERTEX
8
L6D0
10
-1020.002
20
499.251
0
VERTEX
8
L6D0
10
-1018.002
20
499.251
0
VERTEX
8
L6D0
10
-1018.002
20
-500.749
0
VERTEX
8
L6D0
10
-1012.002
20
-500.749
0
VERTEX
8
L6D0
10
-1012.002
20
499.251
0
VERTEX
8
L6D0
10
-1010.002
20
499.251
0
VERTEX
8
L6D0
10
-1010.002
20
-500.749
0
VERTEX
8
L6D0
10
-1004.002
20
-500.749
0
VERTEX
8
L6D0
10
-1004.002
20
499.251
0
VERTEX
8
L6D0
10
-1002.002
20
499.251
0
VERTEX
8
L6D0
10
-1002.002
20
-500.749
0
VERTEX
8
L6D0
10
-996.002
20
-500.749
0
VERTEX
8
L6D0
10
-996.002
20
499.251
0
VERTEX
8
L6D0
10
-994.002
20
499.251
0
VERTEX
8
L6D0
10
-994.002
20
-500.749
0
VERTEX
8
L6D0
10
-988.002
20
-500.749
0
VERTEX
8
L6D0
10
-988.002
20
499.251
0
VERTEX
8
L6D0
10
-986.002
20
499.251
0
VERTEX
8
L6D0
10
-986.002
20
-500.749
0
VERTEX
8
L6D0
10
-980.002
20
-500.749
0
VERTEX
8
L6D0
10
-980.002
20
499.251
0
VERTEX
8
L6D0
10
-978.002
20
499.251
0
VERTEX
8
L6D0
10
-978.002
20
-500.749
0
VERTEX
8
L6D0
10
-972.002
20
-500.749
0
VERTEX
8
L6D0
10
-972.002
20
499.251
0
VERTEX
8
L6D0
10
-970.002
20
499.251
0
VERTEX
8
L6D0
10
-970.002
20
-500.749
0
VERTEX
8
L6D0
10
-964.002
20
-500.749
0
VERTEX
8
L6D0
10
-964.002
20
499.251
0
VERTEX
8
L6D0
10
-962.002
20
499.251
0
VERTEX
8
L6D0
10
-962.002
20
-500.749
0
VERTEX
8
L6D0
10
-956.002
20
-500.749
0
VERTEX
8
L6D0
10
-956.002
20
499.251
0
VERTEX
8
L6D0
10
-954.002
20
499.251
0
VERTEX
8
L6D0
10
-954.002
20
-500.749
0
VERTEX
8
L6D0
10
-948.002
20
-500.749
0
VERTEX
8
L6D0
10
-948.002
20
499.251
0
VERTEX
8
L6D0
10
-946.002
20
499.251
0
VERTEX
8
L6D0
10
-946.002
20
-500.749
0
VERTEX
8
L6D0
10
-940.002
20
-500.749
0
VERTEX
8
L6D0
10
-940.002
20
499.251
0
VERTEX
8
L6D0
10
-938.002
20
499.251
0
VERTEX
8
L6D0
10
-938.002
20
-500.749
0
VERTEX
8
L6D0
10
-932.002
20
-500.749
0
VERTEX
8
L6D0
10
-932.002
20
499.251
0
VERTEX
8
L6D0
10
-930.002
20
499.251
0
VERTEX
8
L6D0
10
-930.002
20
-500.749
0
VERTEX
8
L6D0
10
-924.002
20
-500.749
0
VERTEX
8
L6D0
10
-924.002
20
499.251
0
VERTEX
8
L6D0
10
-922.002
20
499.251
0
VERTEX
8
L6D0
10
-922.002
20
-500.749
0
VERTEX
8
L6D0
10
-916.002
20
-500.749
0
VERTEX
8
L6D0
10
-916.002
20
499.251
0
VERTEX
8
L6D0
10
-914.002
20
499.251
0
VERTEX
8
L6D0
10
-914.002
20
-500.749
0
VERTEX
8
L6D0
10
-908.002
20
-500.749
0
VERTEX
8
L6D0
10
-908.002
20
499.251
0
VERTEX
8
L6D0
10
-906.002
20
499.251
0
VERTEX
8
L6D0
10
-906.002
20
-500.749
0
VERTEX
8
L6D0
10
-900.002
20
-500.749
0
VERTEX
8
L6D0
10
-900.002
20
499.251
0
VERTEX
8
L6D0
10
-898.002
20
499.251
0
VERTEX
8
L6D0
10
-898.002
20
-500.749
0
VERTEX
8
L6D0
10
-892.002
20
-500.749
0
VERTEX
8
L6D0
10
-892.002
20
499.251
0
VERTEX
8
L6D0
10
-890.002
20
499.251
0
VERTEX
8
L6D0
10
-890.002
20
-500.749
0
VERTEX
8
L6D0
10
-884.002
20
-500.749
0
VERTEX
8
L6D0
10
-884.002
20
499.251
0
VERTEX
8
L6D0
10
-882.002
20
499.251
0
VERTEX
8
L6D0
10
-882.002
20
-500.749
0
VERTEX
8
L6D0
10
-876.002
20
-500.749
0
VERTEX
8
L6D0
10
-876.002
20
499.251
0
VERTEX
8
L6D0
10
-874.002
20
499.251
0
VERTEX
8
L6D0
10
-874.002
20
-500.749
0
VERTEX
8
L6D0
10
-868.002
20
-500.749
0
VERTEX
8
L6D0
10
-868.002
20
499.251
0
VERTEX
8
L6D0
10
-866.002
20
499.251
0
VERTEX
8
L6D0
10
-866.002
20
-500.749
0
VERTEX
8
L6D0
10
-860.002
20
-500.749
0
VERTEX
8
L6D0
10
-860.002
20
499.251
0
VERTEX
8
L6D0
10
-858.002
20
499.251
0
VERTEX
8
L6D0
10
-858.002
20
-500.749
0
VERTEX
8
L6D0
10
-852.002
20
-500.749
0
VERTEX
8
L6D0
10
-852.002
20
499.251
0
VERTEX
8
L6D0
10
-850.002
20
499.251
0
VERTEX
8
L6D0
10
-850.002
20
-500.749
0
VERTEX
8
L6D0
10
-844.002
20
-500.749
0
VERTEX
8
L6D0
10
-844.002
20
499.251
0
VERTEX
8
L6D0
10
-842.002
20
499.251
0
VERTEX
8
L6D0
10
-842.002
20
-500.749
0
VERTEX
8
L6D0
10
-836.002
20
-500.749
0
VERTEX
8
L6D0
10
-836.002
20
499.251
0
VERTEX
8
L6D0
10
-834.002
20
499.251
0
VERTEX
8
L6D0
10
-834.002
20
-500.749
0
VERTEX
8
L6D0
10
-828.002
20
-500.749
0
VERTEX
8
L6D0
10
-828.002
20
499.251
0
VERTEX
8
L6D0
10
-826.002
20
499.251
0
VERTEX
8
L6D0
10
-826.002
20
-500.749
0
VERTEX
8
L6D0
10
-820.002
20
-500.749
0
VERTEX
8
L6D0
10
-820.002
20
499.251
0
VERTEX
8
L6D0
10
-818.002
20
499.251
0
VERTEX
8
L6D0
10
-818.002
20
-500.749
0
VERTEX
8
L6D0
10
-812.002
20
-500.749
0
VERTEX
8
L6D0
10
-812.002
20
499.251
0
VERTEX
8
L6D0
10
-810.002
20
499.251
0
VERTEX
8
L6D0
10
-810.002
20
-500.749
0
VERTEX
8
L6D0
10
-804.002
20
-500.749
0
VERTEX
8
L6D0
10
-804.002
20
499.251
0
VERTEX
8
L6D0
10
-802.002
20
499.251
0
VERTEX
8
L6D0
10
-802.002
20
-500.749
0
VERTEX
8
L6D0
10
-796.002
20
-500.749
0
VERTEX
8
L6D0
10
-796.002
20
499.251
0
VERTEX
8
L6D0
10
-794.002
20
499.251
0
VERTEX
8
L6D0
10
-794.002
20
-500.749
0
VERTEX
8
L6D0
10
-788.002
20
-500.749
0
VERTEX
8
L6D0
10
-788.002
20
499.251
0
VERTEX
8
L6D0
10
-786.002
20
499.251
0
VERTEX
8
L6D0
10
-786.002
20
-500.749
0
VERTEX
8
L6D0
10
-780.002
20
-500.749
0
VERTEX
8
L6D0
10
-780.002
20
499.251
0
VERTEX
8
L6D0
10
-778.002
20
499.251
0
VERTEX
8
L6D0
10
-778.002
20
-500.749
0
VERTEX
8
L6D0
10
-772.002
20
-500.749
0
VERTEX
8
L6D0
10
-772.002
20
499.251
0
VERTEX
8
L6D0
10
-770.002
20
499.251
0
VERTEX
8
L6D0
10
-770.002
20
-500.749
0
VERTEX
8
L6D0
10
-764.002
20
-500.749
0
VERTEX
8
L6D0
10
-764.002
20
499.251
0
VERTEX
8
L6D0
10
-762.002
20
499.251
0
VERTEX
8
L6D0
10
-762.002
20
-500.749
0
VERTEX
8
L6D0
10
-756.002
20
-500.749
0
VERTEX
8
L6D0
10
-756.002
20
499.251
0
VERTEX
8
L6D0
10
-754.002
20
499.251
0
VERTEX
8
L6D0
10
-754.002
20
-500.749
0
VERTEX
8
L6D0
10
-748.002
20
-500.749
0
VERTEX
8
L6D0
10
-748.002
20
499.251
0
VERTEX
8
L6D0
10
-746.002
20
499.251
0
VERTEX
8
L6D0
10
-746.002
20
-500.749
0
VERTEX
8
L6D0
10
-740.002
20
-500.749
0
VERTEX
8
L6D0
10
-740.002
20
499.251
0
VERTEX
8
L6D0
10
-738.002
20
499.251
0
VERTEX
8
L6D0
10
-738.002
20
-500.749
0
VERTEX
8
L6D0
10
-732.002
20
-500.749
0
VERTEX
8
L6D0
10
-732.002
20
499.251
0
VERTEX
8
L6D0
10
-730.002
20
499.251
0
VERTEX
8
L6D0
10
-730.002
20
-500.749
0
VERTEX
8
L6D0
10
-724.002
20
-500.749
0
VERTEX
8
L6D0
10
-724.002
20
499.251
0
VERTEX
8
L6D0
10
-722.002
20
499.251
0
VERTEX
8
L6D0
10
-722.002
20
-500.749
0
VERTEX
8
L6D0
10
-716.002
20
-500.749
0
VERTEX
8
L6D0
10
-716.002
20
499.251
0
VERTEX
8
L6D0
10
-714.002
20
499.251
0
VERTEX
8
L6D0
10
-714.002
20
-500.749
0
VERTEX
8
L6D0
10
-708.002
20
-500.749
0
VERTEX
8
L6D0
10
-708.002
20
499.251
0
VERTEX
8
L6D0
10
-706.002
20
499.251
0
VERTEX
8
L6D0
10
-706.002
20
-500.749
0
VERTEX
8
L6D0
10
-700.002
20
-500.749
0
VERTEX
8
L6D0
10
-700.002
20
499.251
0
VERTEX
8
L6D0
10
-698.002
20
499.251
0
VERTEX
8
L6D0
10
-698.002
20
-500.749
0
VERTEX
8
L6D0
10
-692.002
20
-500.749
0
VERTEX
8
L6D0
10
-692.002
20
499.251
0
VERTEX
8
L6D0
10
-690.002
20
499.251
0
VERTEX
8
L6D0
10
-690.002
20
-500.749
0
VERTEX
8
L6D0
10
-684.002
20
-500.749
0
VERTEX
8
L6D0
10
-684.002
20
499.251
0
VERTEX
8
L6D0
10
-682.002
20
499.251
0
VERTEX
8
L6D0
10
-682.002
20
-500.749
0
VERTEX
8
L6D0
10
-676.002
20
-500.749
0
VERTEX
8
L6D0
10
-676.002
20
499.251
0
VERTEX
8
L6D0
10
-674.002
20
499.251
0
VERTEX
8
L6D0
10
-674.002
20
-500.749
0
VERTEX
8
L6D0
10
-668.002
20
-500.749
0
VERTEX
8
L6D0
10
-668.002
20
499.251
0
VERTEX
8
L6D0
10
-666.002
20
499.251
0
VERTEX
8
L6D0
10
-666.002
20
-500.749
0
VERTEX
8
L6D0
10
-660.002
20
-500.749
0
VERTEX
8
L6D0
10
-660.002
20
499.251
0
VERTEX
8
L6D0
10
-658.002
20
499.251
0
VERTEX
8
L6D0
10
-658.002
20
-500.749
0
VERTEX
8
L6D0
10
-652.002
20
-500.749
0
VERTEX
8
L6D0
10
-652.002
20
499.251
0
VERTEX
8
L6D0
10
-650.002
20
499.251
0
VERTEX
8
L6D0
10
-650.002
20
-500.749
0
VERTEX
8
L6D0
10
-644.002
20
-500.749
0
VERTEX
8
L6D0
10
-644.002
20
499.251
0
VERTEX
8
L6D0
10
-642.002
20
499.251
0
VERTEX
8
L6D0
10
-642.002
20
-500.749
0
VERTEX
8
L6D0
10
-636.002
20
-500.749
0
VERTEX
8
L6D0
10
-636.002
20
499.251
0
VERTEX
8
L6D0
10
-634.002
20
499.251
0
VERTEX
8
L6D0
10
-634.002
20
-500.749
0
VERTEX
8
L6D0
10
-628.002
20
-500.749
0
VERTEX
8
L6D0
10
-628.002
20
499.251
0
VERTEX
8
L6D0
10
-626.002
20
499.251
0
VERTEX
8
L6D0
10
-626.002
20
-500.749
0
VERTEX
8
L6D0
10
-620.002
20
-500.749
0
VERTEX
8
L6D0
10
-620.002
20
499.251
0
VERTEX
8
L6D0
10
-618.002
20
499.251
0
VERTEX
8
L6D0
10
-618.002
20
-500.749
0
VERTEX
8
L6D0
10
-612.002
20
-500.749
0
VERTEX
8
L6D0
10
-612.002
20
499.251
0
VERTEX
8
L6D0
10
-610.002
20
499.251
0
VERTEX
8
L6D0
10
-610.002
20
-500.749
0
VERTEX
8
L6D0
10
-604.002
20
-500.749
0
VERTEX
8
L6D0
10
-604.002
20
499.251
0
VERTEX
8
L6D0
10
-602.002
20
499.251
0
VERTEX
8
L6D0
10
-602.002
20
-500.749
0
VERTEX
8
L6D0
10
-596.002
20
-500.749
0
VERTEX
8
L6D0
10
-596.002
20
499.251
0
VERTEX
8
L6D0
10
-594.002
20
499.251
0
VERTEX
8
L6D0
10
-594.002
20
-500.749
0
VERTEX
8
L6D0
10
-588.002
20
-500.749
0
VERTEX
8
L6D0
10
-588.002
20
499.251
0
VERTEX
8
L6D0
10
-586.002
20
499.251
0
VERTEX
8
L6D0
10
-586.002
20
-500.749
0
VERTEX
8
L6D0
10
-580.002
20
-500.749
0
VERTEX
8
L6D0
10
-580.002
20
499.251
0
VERTEX
8
L6D0
10
-578.002
20
499.251
0
VERTEX
8
L6D0
10
-578.002
20
-500.749
0
VERTEX
8
L6D0
10
-572.002
20
-500.749
0
VERTEX
8
L6D0
10
-572.002
20
499.251
0
VERTEX
8
L6D0
10
-570.002
20
499.251
0
VERTEX
8
L6D0
10
-570.002
20
-500.749
0
VERTEX
8
L6D0
10
-564.002
20
-500.749
0
VERTEX
8
L6D0
10
-564.002
20
499.251
0
VERTEX
8
L6D0
10
-562.002
20
499.251
0
VERTEX
8
L6D0
10
-562.002
20
-500.749
0
VERTEX
8
L6D0
10
-556.002
20
-500.749
0
VERTEX
8
L6D0
10
-556.002
20
499.251
0
VERTEX
8
L6D0
10
-554.002
20
499.251
0
VERTEX
8
L6D0
10
-554.002
20
-500.749
0
VERTEX
8
L6D0
10
-548.002
20
-500.749
0
VERTEX
8
L6D0
10
-548.002
20
499.251
0
VERTEX
8
L6D0
10
-546.002
20
499.251
0
VERTEX
8
L6D0
10
-546.002
20
-500.749
0
VERTEX
8
L6D0
10
-540.002
20
-500.749
0
VERTEX
8
L6D0
10
-540.002
20
499.251
0
VERTEX
8
L6D0
10
-538.002
20
499.251
0
VERTEX
8
L6D0
10
-538.002
20
-500.749
0
VERTEX
8
L6D0
10
-532.002
20
-500.749
0
VERTEX
8
L6D0
10
-532.002
20
499.251
0
VERTEX
8
L6D0
10
-530.002
20
499.251
0
VERTEX
8
L6D0
10
-530.002
20
-500.749
0
VERTEX
8
L6D0
10
-524.002
20
-500.749
0
VERTEX
8
L6D0
10
-524.002
20
499.251
0
VERTEX
8
L6D0
10
-522.002
20
499.251
0
VERTEX
8
L6D0
10
-522.002
20
-500.749
0
VERTEX
8
L6D0
10
-516.002
20
-500.749
0
VERTEX
8
L6D0
10
-516.002
20
499.251
0
VERTEX
8
L6D0
10
-514.002
20
499.251
0
VERTEX
8
L6D0
10
-514.002
20
-500.749
0
VERTEX
8
L6D0
10
-508.002
20
-500.749
0
VERTEX
8
L6D0
10
-508.002
20
499.251
0
VERTEX
8
L6D0
10
-506.002
20
499.251
0
VERTEX
8
L6D0
10
-506.002
20
-500.749
0
VERTEX
8
L6D0
10
-500.002
20
-500.749
0
VERTEX
8
L6D0
10
-500.002
20
499.251
0
VERTEX
8
L6D0
10
-498.002
20
499.251
0
VERTEX
8
L6D0
10
-498.002
20
-500.749
0
VERTEX
8
L6D0
10
-492.002
20
-500.749
0
VERTEX
8
L6D0
10
-492.002
20
499.251
0
VERTEX
8
L6D0
10
-490.002
20
499.251
0
VERTEX
8
L6D0
10
-490.002
20
-500.749
0
VERTEX
8
L6D0
10
-484.002
20
-500.749
0
VERTEX
8
L6D0
10
-484.002
20
499.251
0
VERTEX
8
L6D0
10
-482.002
20
499.251
0
VERTEX
8
L6D0
10
-482.002
20
-500.749
0
VERTEX
8
L6D0
10
-476.002
20
-500.749
0
VERTEX
8
L6D0
10
-476.002
20
499.251
0
VERTEX
8
L6D0
10
-474.002
20
499.251
0
VERTEX
8
L6D0
10
-474.002
20
-500.749
0
VERTEX
8
L6D0
10
-468.002
20
-500.749
0
VERTEX
8
L6D0
10
-468.002
20
499.251
0
VERTEX
8
L6D0
10
-466.002
20
499.251
0
VERTEX
8
L6D0
10
-466.002
20
-500.749
0
VERTEX
8
L6D0
10
-460.002
20
-500.749
0
VERTEX
8
L6D0
10
-460.002
20
499.251
0
VERTEX
8
L6D0
10
-458.002
20
499.251
0
VERTEX
8
L6D0
10
-458.002
20
-500.749
0
VERTEX
8
L6D0
10
-452.002
20
-500.749
0
VERTEX
8
L6D0
10
-452.002
20
499.251
0
VERTEX
8
L6D0
10
-450.002
20
499.251
0
VERTEX
8
L6D0
10
-450.002
20
-500.749
0
VERTEX
8
L6D0
10
-444.002
20
-500.749
0
VERTEX
8
L6D0
10
-444.002
20
499.251
0
VERTEX
8
L6D0
10
-442.002
20
499.251
0
VERTEX
8
L6D0
10
-442.002
20
-500.749
0
VERTEX
8
L6D0
10
-436.002
20
-500.749
0
VERTEX
8
L6D0
10
-436.002
20
499.251
0
VERTEX
8
L6D0
10
-434.002
20
499.251
0
VERTEX
8
L6D0
10
-434.002
20
-500.749
0
VERTEX
8
L6D0
10
-428.002
20
-500.749
0
VERTEX
8
L6D0
10
-428.002
20
499.251
0
VERTEX
8
L6D0
10
-426.002
20
499.251
0
VERTEX
8
L6D0
10
-426.002
20
-500.749
0
VERTEX
8
L6D0
10
-420.002
20
-500.749
0
VERTEX
8
L6D0
10
-420.002
20
499.251
0
VERTEX
8
L6D0
10
-418.002
20
499.251
0
VERTEX
8
L6D0
10
-418.002
20
-500.749
0
VERTEX
8
L6D0
10
-412.002
20
-500.749
0
VERTEX
8
L6D0
10
-412.002
20
499.251
0
VERTEX
8
L6D0
10
-410.002
20
499.251
0
VERTEX
8
L6D0
10
-410.002
20
-500.749
0
VERTEX
8
L6D0
10
-404.002
20
-500.749
0
VERTEX
8
L6D0
10
-404.002
20
499.251
0
VERTEX
8
L6D0
10
-402.002
20
499.251
0
VERTEX
8
L6D0
10
-402.002
20
-500.749
0
VERTEX
8
L6D0
10
-396.002
20
-500.749
0
VERTEX
8
L6D0
10
-396.002
20
499.251
0
VERTEX
8
L6D0
10
-394.002
20
499.251
0
VERTEX
8
L6D0
10
-394.002
20
-500.749
0
VERTEX
8
L6D0
10
-388.002
20
-500.749
0
VERTEX
8
L6D0
10
-388.002
20
499.251
0
VERTEX
8
L6D0
10
-386.002
20
499.251
0
VERTEX
8
L6D0
10
-386.002
20
-500.749
0
VERTEX
8
L6D0
10
-380.002
20
-500.749
0
VERTEX
8
L6D0
10
-380.002
20
499.251
0
VERTEX
8
L6D0
10
-378.002
20
499.251
0
VERTEX
8
L6D0
10
-378.002
20
-500.749
0
VERTEX
8
L6D0
10
-372.002
20
-500.749
0
VERTEX
8
L6D0
10
-372.002
20
499.251
0
VERTEX
8
L6D0
10
-370.002
20
499.251
0
VERTEX
8
L6D0
10
-370.002
20
-500.749
0
VERTEX
8
L6D0
10
-364.002
20
-500.749
0
VERTEX
8
L6D0
10
-364.002
20
499.251
0
VERTEX
8
L6D0
10
-362.002
20
499.251
0
VERTEX
8
L6D0
10
-362.002
20
-500.749
0
VERTEX
8
L6D0
10
-356.002
20
-500.749
0
VERTEX
8
L6D0
10
-356.002
20
499.251
0
VERTEX
8
L6D0
10
-354.002
20
499.251
0
VERTEX
8
L6D0
10
-354.002
20
-500.749
0
VERTEX
8
L6D0
10
-348.002
20
-500.749
0
VERTEX
8
L6D0
10
-348.002
20
499.251
0
VERTEX
8
L6D0
10
-346.002
20
499.251
0
VERTEX
8
L6D0
10
-346.002
20
-500.749
0
VERTEX
8
L6D0
10
-340.002
20
-500.749
0
VERTEX
8
L6D0
10
-340.002
20
499.251
0
VERTEX
8
L6D0
10
-338.002
20
499.251
0
VERTEX
8
L6D0
10
-338.002
20
-500.749
0
VERTEX
8
L6D0
10
-332.002
20
-500.749
0
VERTEX
8
L6D0
10
-332.002
20
499.251
0
VERTEX
8
L6D0
10
-330.002
20
499.251
0
VERTEX
8
L6D0
10
-330.002
20
-500.749
0
VERTEX
8
L6D0
10
-324.002
20
-500.749
0
VERTEX
8
L6D0
10
-324.002
20
499.251
0
VERTEX
8
L6D0
10
-322.002
20
499.251
0
VERTEX
8
L6D0
10
-322.002
20
-500.749
0
VERTEX
8
L6D0
10
-316.002
20
-500.749
0
VERTEX
8
L6D0
10
-316.002
20
499.251
0
VERTEX
8
L6D0
10
-314.002
20
499.251
0
VERTEX
8
L6D0
10
-314.002
20
-500.749
0
VERTEX
8
L6D0
10
-308.002
20
-500.749
0
VERTEX
8
L6D0
10
-308.002
20
499.251
0
VERTEX
8
L6D0
10
-306.002
20
499.251
0
VERTEX
8
L6D0
10
-306.002
20
-500.749
0
VERTEX
8
L6D0
10
-300.002
20
-500.749
0
VERTEX
8
L6D0
10
-300.002
20
499.251
0
VERTEX
8
L6D0
10
-298.002
20
499.251
0
VERTEX
8
L6D0
10
-298.002
20
-500.749
0
VERTEX
8
L6D0
10
-292.002
20
-500.749
0
VERTEX
8
L6D0
10
-292.002
20
499.251
0
VERTEX
8
L6D0
10
-290.002
20
499.251
0
VERTEX
8
L6D0
10
-290.002
20
-500.749
0
VERTEX
8
L6D0
10
-284.002
20
-500.749
0
VERTEX
8
L6D0
10
-284.002
20
499.251
0
VERTEX
8
L6D0
10
-282.002
20
499.251
0
VERTEX
8
L6D0
10
-282.002
20
-500.749
0
VERTEX
8
L6D0
10
-276.002
20
-500.749
0
VERTEX
8
L6D0
10
-276.002
20
499.251
0
VERTEX
8
L6D0
10
-274.002
20
499.251
0
VERTEX
8
L6D0
10
-274.002
20
-500.749
0
VERTEX
8
L6D0
10
-268.002
20
-500.749
0
VERTEX
8
L6D0
10
-268.002
20
499.251
0
VERTEX
8
L6D0
10
-266.002
20
499.251
0
VERTEX
8
L6D0
10
-266.002
20
-500.749
0
VERTEX
8
L6D0
10
-260.002
20
-500.749
0
VERTEX
8
L6D0
10
-260.002
20
499.251
0
VERTEX
8
L6D0
10
-258.002
20
499.251
0
VERTEX
8
L6D0
10
-258.002
20
-500.749
0
VERTEX
8
L6D0
10
-252.002
20
-500.749
0
VERTEX
8
L6D0
10
-252.002
20
499.251
0
VERTEX
8
L6D0
10
-250.002
20
499.251
0
VERTEX
8
L6D0
10
-250.002
20
-500.749
0
VERTEX
8
L6D0
10
-244.002
20
-500.749
0
VERTEX
8
L6D0
10
-244.002
20
499.251
0
VERTEX
8
L6D0
10
-242.002
20
499.251
0
VERTEX
8
L6D0
10
-242.002
20
-500.749
0
VERTEX
8
L6D0
10
-236.002
20
-500.749
0
VERTEX
8
L6D0
10
-236.002
20
499.251
0
VERTEX
8
L6D0
10
-234.002
20
499.251
0
VERTEX
8
L6D0
10
-234.002
20
-500.749
0
VERTEX
8
L6D0
10
-228.002
20
-500.749
0
VERTEX
8
L6D0
10
-228.002
20
499.251
0
VERTEX
8
L6D0
10
-226.002
20
499.251
0
VERTEX
8
L6D0
10
-226.002
20
-500.749
0
VERTEX
8
L6D0
10
-220.002
20
-500.749
0
VERTEX
8
L6D0
10
-220.002
20
499.251
0
VERTEX
8
L6D0
10
-218.002
20
499.251
0
VERTEX
8
L6D0
10
-218.002
20
-500.749
0
VERTEX
8
L6D0
10
-212.002
20
-500.749
0
VERTEX
8
L6D0
10
-212.002
20
499.251
0
VERTEX
8
L6D0
10
-210.002
20
499.251
0
VERTEX
8
L6D0
10
-210.002
20
-500.749
0
VERTEX
8
L6D0
10
-204.002
20
-500.749
0
VERTEX
8
L6D0
10
-204.002
20
499.251
0
VERTEX
8
L6D0
10
-202.002
20
499.251
0
VERTEX
8
L6D0
10
-202.002
20
-500.749
0
VERTEX
8
L6D0
10
-196.002
20
-500.749
0
VERTEX
8
L6D0
10
-196.002
20
499.251
0
VERTEX
8
L6D0
10
-194.002
20
499.251
0
VERTEX
8
L6D0
10
-194.002
20
-500.749
0
VERTEX
8
L6D0
10
-188.002
20
-500.749
0
VERTEX
8
L6D0
10
-188.002
20
499.251
0
VERTEX
8
L6D0
10
-186.002
20
499.251
0
VERTEX
8
L6D0
10
-186.002
20
-500.749
0
VERTEX
8
L6D0
10
-180.002
20
-500.749
0
VERTEX
8
L6D0
10
-180.002
20
499.251
0
VERTEX
8
L6D0
10
-178.002
20
499.251
0
VERTEX
8
L6D0
10
-178.002
20
-500.749
0
VERTEX
8
L6D0
10
-172.002
20
-500.749
0
VERTEX
8
L6D0
10
-172.002
20
499.251
0
VERTEX
8
L6D0
10
-170.002
20
499.251
0
VERTEX
8
L6D0
10
-170.002
20
-500.749
0
VERTEX
8
L6D0
10
-164.002
20
-500.749
0
VERTEX
8
L6D0
10
-164.002
20
499.251
0
VERTEX
8
L6D0
10
-162.002
20
499.251
0
VERTEX
8
L6D0
10
-162.002
20
-500.749
0
VERTEX
8
L6D0
10
-156.002
20
-500.749
0
VERTEX
8
L6D0
10
-156.002
20
499.251
0
VERTEX
8
L6D0
10
-154.002
20
499.251
0
VERTEX
8
L6D0
10
-154.002
20
-500.749
0
VERTEX
8
L6D0
10
-148.002
20
-500.749
0
VERTEX
8
L6D0
10
-148.002
20
499.251
0
VERTEX
8
L6D0
10
-146.002
20
499.251
0
VERTEX
8
L6D0
10
-146.002
20
-500.749
0
VERTEX
8
L6D0
10
-140.002
20
-500.749
0
VERTEX
8
L6D0
10
-140.002
20
499.251
0
VERTEX
8
L6D0
10
-138.002
20
499.251
0
VERTEX
8
L6D0
10
-138.002
20
-500.749
0
VERTEX
8
L6D0
10
-132.002
20
-500.749
0
VERTEX
8
L6D0
10
-132.002
20
499.251
0
VERTEX
8
L6D0
10
-130.002
20
499.251
0
VERTEX
8
L6D0
10
-130.002
20
-500.749
0
VERTEX
8
L6D0
10
-124.002
20
-500.749
0
VERTEX
8
L6D0
10
-124.002
20
499.251
0
VERTEX
8
L6D0
10
-122.002
20
499.251
0
VERTEX
8
L6D0
10
-122.002
20
-500.749
0
VERTEX
8
L6D0
10
-116.002
20
-500.749
0
VERTEX
8
L6D0
10
-116.002
20
499.251
0
VERTEX
8
L6D0
10
-114.002
20
499.251
0
VERTEX
8
L6D0
10
-114.002
20
-500.749
0
VERTEX
8
L6D0
10
-108.002
20
-500.749
0
VERTEX
8
L6D0
10
-108.002
20
499.251
0
VERTEX
8
L6D0
10
-106.002
20
499.251
0
VERTEX
8
L6D0
10
-106.002
20
-500.749
0
VERTEX
8
L6D0
10
-100.002
20
-500.749
0
VERTEX
8
L6D0
10
-100.002
20
499.251
0
VERTEX
8
L6D0
10
-98.002
20
499.251
0
VERTEX
8
L6D0
10
-98.002
20
-500.749
0
VERTEX
8
L6D0
10
-92.002
20
-500.749
0
VERTEX
8
L6D0
10
-92.002
20
499.251
0
VERTEX
8
L6D0
10
-90.002
20
499.251
0
VERTEX
8
L6D0
10
-90.002
20
-500.749
0
VERTEX
8
L6D0
10
-84.002
20
-500.749
0
VERTEX
8
L6D0
10
-84.002
20
499.251
0
VERTEX
8
L6D0
10
-82.002
20
499.251
0
VERTEX
8
L6D0
10
-82.002
20
-500.749
0
VERTEX
8
L6D0
10
-76.002
20
-500.749
0
VERTEX
8
L6D0
10
-76.002
20
499.251
0
VERTEX
8
L6D0
10
-74.002
20
499.251
0
VERTEX
8
L6D0
10
-74.002
20
-500.749
0
VERTEX
8
L6D0
10
-68.002
20
-500.749
0
VERTEX
8
L6D0
10
-68.002
20
499.251
0
VERTEX
8
L6D0
10
-66.002
20
499.251
0
VERTEX
8
L6D0
10
-66.002
20
-500.749
0
VERTEX
8
L6D0
10
-60.002
20
-500.749
0
VERTEX
8
L6D0
10
-60.002
20
499.251
0
VERTEX
8
L6D0
10
-58.002
20
499.251
0
VERTEX
8
L6D0
10
-58.002
20
-500.749
0
VERTEX
8
L6D0
10
-52.002
20
-500.749
0
VERTEX
8
L6D0
10
-52.002
20
499.251
0
VERTEX
8
L6D0
10
-50.002
20
499.251
0
VERTEX
8
L6D0
10
-50.002
20
-500.749
0
VERTEX
8
L6D0
10
-44.002
20
-500.749
0
VERTEX
8
L6D0
10
-44.002
20
499.251
0
VERTEX
8
L6D0
10
-42.002
20
499.251
0
VERTEX
8
L6D0
10
-42.002
20
-500.749
0
VERTEX
8
L6D0
10
-36.002
20
-500.749
0
VERTEX
8
L6D0
10
-36.002
20
499.251
0
VERTEX
8
L6D0
10
-34.002
20
499.251
0
VERTEX
8
L6D0
10
-34.002
20
-500.749
0
VERTEX
8
L6D0
10
-28.002
20
-500.749
0
VERTEX
8
L6D0
10
-28.002
20
499.251
0
VERTEX
8
L6D0
10
-26.002
20
499.251
0
VERTEX
8
L6D0
10
-26.002
20
-500.749
0
VERTEX
8
L6D0
10
-20.002
20
-500.749
0
VERTEX
8
L6D0
10
-20.002
20
499.251
0
VERTEX
8
L6D0
10
-18.002
20
499.251
0
VERTEX
8
L6D0
10
-18.002
20
-500.749
0
VERTEX
8
L6D0
10
-12.002
20
-500.749
0
VERTEX
8
L6D0
10
-12.002
20
499.251
0
VERTEX
8
L6D0
10
-10.002
20
499.251
0
VERTEX
8
L6D0
10
-10.002
20
-500.749
0
VERTEX
8
L6D0
10
-4.002
20
-500.749
0
VERTEX
8
L6D0
10
-4.002
20
499.251
0
VERTEX
8
L6D0
10
-2.002
20
499.251
0
VERTEX
8
L6D0
10
-2.002
20
-500.749
0
VERTEX
8
L6D0
10
3.998
20
-500.749
0
VERTEX
8
L6D0
10
3.998
20
499.251
0
VERTEX
8
L6D0
10
5.998
20
499.251
0
VERTEX
8
L6D0
10
5.998
20
-500.749
0
VERTEX
8
L6D0
10
11.998
20
-500.749
0
VERTEX
8
L6D0
10
11.998
20
499.251
0
VERTEX
8
L6D0
10
13.998
20
499.251
0
VERTEX
8
L6D0
10
13.998
20
-500.749
0
VERTEX
8
L6D0
10
19.998
20
-500.749
0
VERTEX
8
L6D0
10
19.998
20
499.251
0
VERTEX
8
L6D0
10
21.998
20
499.251
0
VERTEX
8
L6D0
10
21.998
20
-500.749
0
VERTEX
8
L6D0
10
27.998
20
-500.749
0
VERTEX
8
L6D0
10
27.998
20
499.251
0
VERTEX
8
L6D0
10
29.998
20
499.251
0
VERTEX
8
L6D0
10
29.998
20
-500.749
0
VERTEX
8
L6D0
10
35.998
20
-500.749
0
VERTEX
8
L6D0
10
35.998
20
499.251
0
VERTEX
8
L6D0
10
37.998
20
499.251
0
VERTEX
8
L6D0
10
37.998
20
-500.749
0
VERTEX
8
L6D0
10
43.998
20
-500.749
0
VERTEX
8
L6D0
10
43.998
20
499.251
0
VERTEX
8
L6D0
10
45.998
20
499.251
0
VERTEX
8
L6D0
10
45.998
20
-500.749
0
VERTEX
8
L6D0
10
51.998
20
-500.749
0
VERTEX
8
L6D0
10
51.998
20
499.251
0
VERTEX
8
L6D0
10
53.998
20
499.251
0
VERTEX
8
L6D0
10
53.998
20
-500.749
0
VERTEX
8
L6D0
10
59.998
20
-500.749
0
VERTEX
8
L6D0
10
59.998
20
499.251
0
VERTEX
8
L6D0
10
61.998
20
499.251
0
VERTEX
8
L6D0
10
61.998
20
-500.749
0
VERTEX
8
L6D0
10
67.998
20
-500.749
0
VERTEX
8
L6D0
10
67.998
20
499.251
0
VERTEX
8
L6D0
10
69.998
20
499.251
0
VERTEX
8
L6D0
10
69.998
20
-500.749
0
VERTEX
8
L6D0
10
75.998
20
-500.749
0
VERTEX
8
L6D0
10
75.998
20
499.251
0
VERTEX
8
L6D0
10
77.998
20
499.251
0
VERTEX
8
L6D0
10
77.998
20
-500.749
0
VERTEX
8
L6D0
10
83.998
20
-500.749
0
VERTEX
8
L6D0
10
83.998
20
499.251
0
VERTEX
8
L6D0
10
85.998
20
499.251
0
VERTEX
8
L6D0
10
85.998
20
-500.749
0
VERTEX
8
L6D0
10
91.998
20
-500.749
0
VERTEX
8
L6D0
10
91.998
20
499.251
0
VERTEX
8
L6D0
10
93.998
20
499.251
0
VERTEX
8
L6D0
10
93.998
20
-500.749
0
VERTEX
8
L6D0
10
99.998
20
-500.749
0
VERTEX
8
L6D0
10
99.998
20
499.251
0
VERTEX
8
L6D0
10
101.998
20
499.251
0
VERTEX
8
L6D0
10
101.998
20
-500.749
0
VERTEX
8
L6D0
10
107.998
20
-500.749
0
VERTEX
8
L6D0
10
107.998
20
499.251
0
VERTEX
8
L6D0
10
109.998
20
499.251
0
VERTEX
8
L6D0
10
109.998
20
-500.749
0
VERTEX
8
L6D0
10
115.998
20
-500.749
0
VERTEX
8
L6D0
10
115.998
20
499.251
0
VERTEX
8
L6D0
10
117.998
20
499.251
0
VERTEX
8
L6D0
10
117.998
20
-500.749
0
VERTEX
8
L6D0
10
123.998
20
-500.749
0
VERTEX
8
L6D0
10
123.998
20
499.251
0
VERTEX
8
L6D0
10
125.998
20
499.251
0
VERTEX
8
L6D0
10
125.998
20
-500.749
0
VERTEX
8
L6D0
10
131.998
20
-500.749
0
VERTEX
8
L6D0
10
131.998
20
499.251
0
VERTEX
8
L6D0
10
133.998
20
499.251
0
VERTEX
8
L6D0
10
133.998
20
-500.749
0
VERTEX
8
L6D0
10
139.998
20
-500.749
0
VERTEX
8
L6D0
10
139.998
20
499.251
0
VERTEX
8
L6D0
10
141.998
20
499.251
0
VERTEX
8
L6D0
10
141.998
20
-500.749
0
VERTEX
8
L6D0
10
147.998
20
-500.749
0
VERTEX
8
L6D0
10
147.998
20
499.251
0
VERTEX
8
L6D0
10
149.998
20
499.251
0
VERTEX
8
L6D0
10
149.998
20
-500.749
0
VERTEX
8
L6D0
10
155.998
20
-500.749
0
VERTEX
8
L6D0
10
155.998
20
499.251
0
VERTEX
8
L6D0
10
157.998
20
499.251
0
VERTEX
8
L6D0
10
157.998
20
-500.749
0
VERTEX
8
L6D0
10
163.998
20
-500.749
0
VERTEX
8
L6D0
10
163.998
20
499.251
0
VERTEX
8
L6D0
10
165.998
20
499.251
0
VERTEX
8
L6D0
10
165.998
20
-500.749
0
VERTEX
8
L6D0
10
171.998
20
-500.749
0
VERTEX
8
L6D0
10
171.998
20
499.251
0
VERTEX
8
L6D0
10
173.998
20
499.251
0
VERTEX
8
L6D0
10
173.998
20
-500.749
0
VERTEX
8
L6D0
10
179.998
20
-500.749
0
VERTEX
8
L6D0
10
179.998
20
499.251
0
VERTEX
8
L6D0
10
181.998
20
499.251
0
VERTEX
8
L6D0
10
181.998
20
-500.749
0
VERTEX
8
L6D0
10
187.998
20
-500.749
0
VERTEX
8
L6D0
10
187.998
20
499.251
0
VERTEX
8
L6D0
10
189.998
20
499.251
0
VERTEX
8
L6D0
10
189.998
20
-500.749
0
VERTEX
8
L6D0
10
195.998
20
-500.749
0
VERTEX
8
L6D0
10
195.998
20
499.251
0
VERTEX
8
L6D0
10
197.998
20
499.251
0
VERTEX
8
L6D0
10
197.998
20
-500.749
0
VERTEX
8
L6D0
10
203.998
20
-500.749
0
VERTEX
8
L6D0
10
203.998
20
499.251
0
VERTEX
8
L6D0
10
205.998
20
499.251
0
VERTEX
8
L6D0
10
205.998
20
-500.749
0
VERTEX
8
L6D0
10
211.998
20
-500.749
0
VERTEX
8
L6D0
10
211.998
20
499.251
0
VERTEX
8
L6D0
10
213.998
20
499.251
0
VERTEX
8
L6D0
10
213.998
20
-500.749
0
VERTEX
8
L6D0
10
219.998
20
-500.749
0
VERTEX
8
L6D0
10
219.998
20
499.251
0
VERTEX
8
L6D0
10
221.998
20
499.251
0
VERTEX
8
L6D0
10
221.998
20
-500.749
0
VERTEX
8
L6D0
10
227.998
20
-500.749
0
VERTEX
8
L6D0
10
227.998
20
499.251
0
VERTEX
8
L6D0
10
229.998
20
499.251
0
VERTEX
8
L6D0
10
229.998
20
-500.749
0
VERTEX
8
L6D0
10
235.998
20
-500.749
0
VERTEX
8
L6D0
10
235.998
20
499.251
0
VERTEX
8
L6D0
10
237.998
20
499.251
0
VERTEX
8
L6D0
10
237.998
20
-500.749
0
VERTEX
8
L6D0
10
243.998
20
-500.749
0
VERTEX
8
L6D0
10
243.998
20
499.251
0
VERTEX
8
L6D0
10
245.998
20
499.251
0
VERTEX
8
L6D0
10
245.998
20
-500.749
0
VERTEX
8
L6D0
10
251.998
20
-500.749
0
VERTEX
8
L6D0
10
251.998
20
499.251
0
VERTEX
8
L6D0
10
253.998
20
499.251
0
VERTEX
8
L6D0
10
253.998
20
-500.749
0
VERTEX
8
L6D0
10
259.998
20
-500.749
0
VERTEX
8
L6D0
10
259.998
20
499.251
0
VERTEX
8
L6D0
10
261.998
20
499.251
0
VERTEX
8
L6D0
10
261.998
20
-500.749
0
VERTEX
8
L6D0
10
267.998
20
-500.749
0
VERTEX
8
L6D0
10
267.998
20
499.251
0
VERTEX
8
L6D0
10
269.998
20
499.251
0
VERTEX
8
L6D0
10
269.998
20
-500.749
0
VERTEX
8
L6D0
10
275.998
20
-500.749
0
VERTEX
8
L6D0
10
275.998
20
499.251
0
VERTEX
8
L6D0
10
277.998
20
499.251
0
VERTEX
8
L6D0
10
277.998
20
-500.749
0
VERTEX
8
L6D0
10
283.998
20
-500.749
0
VERTEX
8
L6D0
10
283.998
20
499.251
0
VERTEX
8
L6D0
10
285.998
20
499.251
0
VERTEX
8
L6D0
10
285.998
20
-500.749
0
VERTEX
8
L6D0
10
291.998
20
-500.749
0
VERTEX
8
L6D0
10
291.998
20
499.251
0
VERTEX
8
L6D0
10
293.998
20
499.251
0
VERTEX
8
L6D0
10
293.998
20
-500.749
0
VERTEX
8
L6D0
10
299.998
20
-500.749
0
VERTEX
8
L6D0
10
299.998
20
499.251
0
VERTEX
8
L6D0
10
301.998
20
499.251
0
VERTEX
8
L6D0
10
301.998
20
-500.749
0
VERTEX
8
L6D0
10
307.998
20
-500.749
0
VERTEX
8
L6D0
10
307.998
20
499.251
0
VERTEX
8
L6D0
10
309.998
20
499.251
0
VERTEX
8
L6D0
10
309.998
20
-500.749
0
VERTEX
8
L6D0
10
315.998
20
-500.749
0
VERTEX
8
L6D0
10
315.998
20
499.251
0
VERTEX
8
L6D0
10
317.998
20
499.251
0
VERTEX
8
L6D0
10
317.998
20
-500.749
0
VERTEX
8
L6D0
10
323.998
20
-500.749
0
VERTEX
8
L6D0
10
323.998
20
499.251
0
VERTEX
8
L6D0
10
325.998
20
499.251
0
VERTEX
8
L6D0
10
325.998
20
-500.749
0
VERTEX
8
L6D0
10
331.998
20
-500.749
0
VERTEX
8
L6D0
10
331.998
20
499.251
0
VERTEX
8
L6D0
10
333.998
20
499.251
0
VERTEX
8
L6D0
10
333.998
20
-500.749
0
VERTEX
8
L6D0
10
339.998
20
-500.749
0
VERTEX
8
L6D0
10
339.998
20
499.251
0
VERTEX
8
L6D0
10
341.998
20
499.251
0
VERTEX
8
L6D0
10
341.998
20
-500.749
0
VERTEX
8
L6D0
10
347.998
20
-500.749
0
VERTEX
8
L6D0
10
347.998
20
499.251
0
VERTEX
8
L6D0
10
349.998
20
499.251
0
VERTEX
8
L6D0
10
349.998
20
-500.749
0
VERTEX
8
L6D0
10
355.998
20
-500.749
0
VERTEX
8
L6D0
10
355.998
20
499.251
0
VERTEX
8
L6D0
10
357.998
20
499.251
0
VERTEX
8
L6D0
10
357.998
20
-500.749
0
VERTEX
8
L6D0
10
363.998
20
-500.749
0
VERTEX
8
L6D0
10
363.998
20
499.251
0
VERTEX
8
L6D0
10
365.998
20
499.251
0
VERTEX
8
L6D0
10
365.998
20
-500.749
0
VERTEX
8
L6D0
10
371.998
20
-500.749
0
VERTEX
8
L6D0
10
371.998
20
499.251
0
VERTEX
8
L6D0
10
373.998
20
499.251
0
VERTEX
8
L6D0
10
373.998
20
-500.749
0
VERTEX
8
L6D0
10
379.998
20
-500.749
0
VERTEX
8
L6D0
10
379.998
20
499.251
0
VERTEX
8
L6D0
10
381.998
20
499.251
0
VERTEX
8
L6D0
10
381.998
20
-500.749
0
VERTEX
8
L6D0
10
387.998
20
-500.749
0
VERTEX
8
L6D0
10
387.998
20
499.251
0
VERTEX
8
L6D0
10
389.998
20
499.251
0
VERTEX
8
L6D0
10
389.998
20
-500.749
0
VERTEX
8
L6D0
10
395.998
20
-500.749
0
VERTEX
8
L6D0
10
395.998
20
499.251
0
VERTEX
8
L6D0
10
397.998
20
499.251
0
VERTEX
8
L6D0
10
397.998
20
-500.749
0
VERTEX
8
L6D0
10
403.998
20
-500.749
0
VERTEX
8
L6D0
10
403.998
20
499.251
0
VERTEX
8
L6D0
10
405.998
20
499.251
0
VERTEX
8
L6D0
10
405.998
20
-500.749
0
VERTEX
8
L6D0
10
411.998
20
-500.749
0
VERTEX
8
L6D0
10
411.998
20
499.251
0
VERTEX
8
L6D0
10
413.998
20
499.251
0
VERTEX
8
L6D0
10
413.998
20
-500.749
0
VERTEX
8
L6D0
10
419.998
20
-500.749
0
VERTEX
8
L6D0
10
419.998
20
499.251
0
VERTEX
8
L6D0
10
421.998
20
499.251
0
VERTEX
8
L6D0
10
421.998
20
-500.749
0
VERTEX
8
L6D0
10
427.998
20
-500.749
0
VERTEX
8
L6D0
10
427.998
20
499.251
0
VERTEX
8
L6D0
10
429.998
20
499.251
0
VERTEX
8
L6D0
10
429.998
20
-500.749
0
VERTEX
8
L6D0
10
435.998
20
-500.749
0
VERTEX
8
L6D0
10
435.998
20
499.251
0
VERTEX
8
L6D0
10
437.998
20
499.251
0
VERTEX
8
L6D0
10
437.998
20
-500.749
0
VERTEX
8
L6D0
10
443.998
20
-500.749
0
VERTEX
8
L6D0
10
443.998
20
499.251
0
VERTEX
8
L6D0
10
445.998
20
499.251
0
VERTEX
8
L6D0
10
445.998
20
-500.749
0
VERTEX
8
L6D0
10
451.998
20
-500.749
0
VERTEX
8
L6D0
10
451.998
20
499.251
0
VERTEX
8
L6D0
10
453.998
20
499.251
0
VERTEX
8
L6D0
10
453.998
20
-500.749
0
VERTEX
8
L6D0
10
459.998
20
-500.749
0
VERTEX
8
L6D0
10
459.998
20
499.251
0
VERTEX
8
L6D0
10
461.998
20
499.251
0
VERTEX
8
L6D0
10
461.998
20
-500.749
0
VERTEX
8
L6D0
10
467.998
20
-500.749
0
VERTEX
8
L6D0
10
467.998
20
499.251
0
VERTEX
8
L6D0
10
469.998
20
499.251
0
VERTEX
8
L6D0
10
469.998
20
-500.749
0
VERTEX
8
L6D0
10
475.998
20
-500.749
0
VERTEX
8
L6D0
10
475.998
20
499.251
0
VERTEX
8
L6D0
10
477.998
20
499.251
0
VERTEX
8
L6D0
10
477.998
20
-500.749
0
VERTEX
8
L6D0
10
483.998
20
-500.749
0
VERTEX
8
L6D0
10
483.998
20
499.251
0
VERTEX
8
L6D0
10
485.998
20
499.251
0
VERTEX
8
L6D0
10
485.998
20
-500.749
0
VERTEX
8
L6D0
10
491.998
20
-500.749
0
VERTEX
8
L6D0
10
491.998
20
499.251
0
VERTEX
8
L6D0
10
493.998
20
499.251
0
VERTEX
8
L6D0
10
493.998
20
-500.749
0
VERTEX
8
L6D0
10
499.998
20
-500.749
0
VERTEX
8
L6D0
10
499.998
20
499.251
0
VERTEX
8
L6D0
10
501.998
20
499.251
0
VERTEX
8
L6D0
10
501.998
20
-500.749
0
VERTEX
8
L6D0
10
507.998
20
-500.749
0
VERTEX
8
L6D0
10
507.998
20
499.251
0
VERTEX
8
L6D0
10
509.998
20
499.251
0
VERTEX
8
L6D0
10
509.998
20
-500.749
0
VERTEX
8
L6D0
10
515.998
20
-500.749
0
VERTEX
8
L6D0
10
515.998
20
499.251
0
VERTEX
8
L6D0
10
517.998
20
499.251
0
VERTEX
8
L6D0
10
517.998
20
-500.749
0
VERTEX
8
L6D0
10
523.998
20
-500.749
0
VERTEX
8
L6D0
10
523.998
20
499.251
0
VERTEX
8
L6D0
10
525.998
20
499.251
0
VERTEX
8
L6D0
10
525.998
20
-500.749
0
VERTEX
8
L6D0
10
531.998
20
-500.749
0
VERTEX
8
L6D0
10
531.998
20
499.251
0
VERTEX
8
L6D0
10
533.998
20
499.251
0
VERTEX
8
L6D0
10
533.998
20
-500.749
0
VERTEX
8
L6D0
10
539.998
20
-500.749
0
VERTEX
8
L6D0
10
539.998
20
499.251
0
VERTEX
8
L6D0
10
541.998
20
499.251
0
VERTEX
8
L6D0
10
541.998
20
-500.749
0
VERTEX
8
L6D0
10
547.998
20
-500.749
0
VERTEX
8
L6D0
10
547.998
20
499.251
0
VERTEX
8
L6D0
10
549.998
20
499.251
0
VERTEX
8
L6D0
10
549.998
20
-500.749
0
VERTEX
8
L6D0
10
555.998
20
-500.749
0
VERTEX
8
L6D0
10
555.998
20
499.251
0
VERTEX
8
L6D0
10
557.998
20
499.251
0
VERTEX
8
L6D0
10
557.998
20
-500.749
0
VERTEX
8
L6D0
10
563.998
20
-500.749
0
VERTEX
8
L6D0
10
563.998
20
499.251
0
VERTEX
8
L6D0
10
565.998
20
499.251
0
VERTEX
8
L6D0
10
565.998
20
-500.749
0
VERTEX
8
L6D0
10
571.998
20
-500.749
0
VERTEX
8
L6D0
10
571.998
20
499.251
0
VERTEX
8
L6D0
10
573.998
20
499.251
0
VERTEX
8
L6D0
10
573.998
20
-500.749
0
VERTEX
8
L6D0
10
579.998
20
-500.749
0
VERTEX
8
L6D0
10
579.998
20
499.251
0
VERTEX
8
L6D0
10
581.998
20
499.251
0
VERTEX
8
L6D0
10
581.998
20
-500.749
0
VERTEX
8
L6D0
10
587.998
20
-500.749
0
VERTEX
8
L6D0
10
587.998
20
499.251
0
VERTEX
8
L6D0
10
589.998
20
499.251
0
VERTEX
8
L6D0
10
589.998
20
-500.749
0
VERTEX
8
L6D0
10
595.998
20
-500.749
0
VERTEX
8
L6D0
10
595.998
20
499.251
0
VERTEX
8
L6D0
10
597.998
20
499.251
0
VERTEX
8
L6D0
10
597.998
20
-500.749
0
VERTEX
8
L6D0
10
603.998
20
-500.749
0
VERTEX
8
L6D0
10
603.998
20
499.251
0
VERTEX
8
L6D0
10
605.998
20
499.251
0
VERTEX
8
L6D0
10
605.998
20
-500.749
0
VERTEX
8
L6D0
10
611.998
20
-500.749
0
VERTEX
8
L6D0
10
611.998
20
499.251
0
VERTEX
8
L6D0
10
613.998
20
499.251
0
VERTEX
8
L6D0
10
613.998
20
-500.749
0
VERTEX
8
L6D0
10
619.998
20
-500.749
0
VERTEX
8
L6D0
10
619.998
20
499.251
0
VERTEX
8
L6D0
10
621.998
20
499.251
0
VERTEX
8
L6D0
10
621.998
20
-500.749
0
VERTEX
8
L6D0
10
627.998
20
-500.749
0
VERTEX
8
L6D0
10
627.998
20
499.251
0
VERTEX
8
L6D0
10
629.998
20
499.251
0
VERTEX
8
L6D0
10
629.998
20
-500.749
0
VERTEX
8
L6D0
10
635.998
20
-500.749
0
VERTEX
8
L6D0
10
635.998
20
499.251
0
VERTEX
8
L6D0
10
637.998
20
499.251
0
VERTEX
8
L6D0
10
637.998
20
-500.749
0
VERTEX
8
L6D0
10
643.998
20
-500.749
0
VERTEX
8
L6D0
10
643.998
20
499.251
0
VERTEX
8
L6D0
10
645.998
20
499.251
0
VERTEX
8
L6D0
10
645.998
20
-500.749
0
VERTEX
8
L6D0
10
651.998
20
-500.749
0
VERTEX
8
L6D0
10
651.998
20
499.251
0
VERTEX
8
L6D0
10
653.998
20
499.251
0
VERTEX
8
L6D0
10
653.998
20
-500.749
0
VERTEX
8
L6D0
10
659.998
20
-500.749
0
VERTEX
8
L6D0
10
659.998
20
499.251
0
VERTEX
8
L6D0
10
661.998
20
499.251
0
VERTEX
8
L6D0
10
661.998
20
-500.749
0
VERTEX
8
L6D0
10
667.998
20
-500.749
0
VERTEX
8
L6D0
10
667.998
20
499.251
0
VERTEX
8
L6D0
10
669.998
20
499.251
0
VERTEX
8
L6D0
10
669.998
20
-500.749
0
VERTEX
8
L6D0
10
675.998
20
-500.749
0
VERTEX
8
L6D0
10
675.998
20
499.251
0
VERTEX
8
L6D0
10
677.998
20
499.251
0
VERTEX
8
L6D0
10
677.998
20
-500.749
0
VERTEX
8
L6D0
10
683.998
20
-500.749
0
VERTEX
8
L6D0
10
683.998
20
499.251
0
VERTEX
8
L6D0
10
685.998
20
499.251
0
VERTEX
8
L6D0
10
685.998
20
-500.749
0
VERTEX
8
L6D0
10
691.998
20
-500.749
0
VERTEX
8
L6D0
10
691.998
20
499.251
0
VERTEX
8
L6D0
10
693.998
20
499.251
0
VERTEX
8
L6D0
10
693.998
20
-500.749
0
VERTEX
8
L6D0
10
699.998
20
-500.749
0
VERTEX
8
L6D0
10
699.998
20
499.251
0
VERTEX
8
L6D0
10
701.998
20
499.251
0
VERTEX
8
L6D0
10
701.998
20
-500.749
0
VERTEX
8
L6D0
10
707.998
20
-500.749
0
VERTEX
8
L6D0
10
707.998
20
499.251
0
VERTEX
8
L6D0
10
709.998
20
499.251
0
VERTEX
8
L6D0
10
709.998
20
-500.749
0
VERTEX
8
L6D0
10
715.998
20
-500.749
0
VERTEX
8
L6D0
10
715.998
20
499.251
0
VERTEX
8
L6D0
10
717.998
20
499.251
0
VERTEX
8
L6D0
10
717.998
20
-500.749
0
VERTEX
8
L6D0
10
723.998
20
-500.749
0
VERTEX
8
L6D0
10
723.998
20
499.251
0
VERTEX
8
L6D0
10
725.998
20
499.251
0
VERTEX
8
L6D0
10
725.998
20
-500.749
0
VERTEX
8
L6D0
10
731.998
20
-500.749
0
VERTEX
8
L6D0
10
731.998
20
499.251
0
VERTEX
8
L6D0
10
733.998
20
499.251
0
VERTEX
8
L6D0
10
733.998
20
-500.749
0
VERTEX
8
L6D0
10
739.998
20
-500.749
0
VERTEX
8
L6D0
10
739.998
20
499.251
0
VERTEX
8
L6D0
10
741.998
20
499.251
0
VERTEX
8
L6D0
10
741.998
20
-500.749
0
VERTEX
8
L6D0
10
747.998
20
-500.749
0
VERTEX
8
L6D0
10
747.998
20
499.251
0
VERTEX
8
L6D0
10
749.998
20
499.251
0
VERTEX
8
L6D0
10
749.998
20
-500.749
0
VERTEX
8
L6D0
10
755.998
20
-500.749
0
VERTEX
8
L6D0
10
755.998
20
499.251
0
VERTEX
8
L6D0
10
757.998
20
499.251
0
VERTEX
8
L6D0
10
757.998
20
-500.749
0
VERTEX
8
L6D0
10
763.998
20
-500.749
0
VERTEX
8
L6D0
10
763.998
20
499.251
0
VERTEX
8
L6D0
10
765.998
20
499.251
0
VERTEX
8
L6D0
10
765.998
20
-500.749
0
VERTEX
8
L6D0
10
771.998
20
-500.749
0
VERTEX
8
L6D0
10
771.998
20
499.251
0
VERTEX
8
L6D0
10
773.998
20
499.251
0
VERTEX
8
L6D0
10
773.998
20
-500.749
0
VERTEX
8
L6D0
10
779.998
20
-500.749
0
VERTEX
8
L6D0
10
779.998
20
499.251
0
VERTEX
8
L6D0
10
781.998
20
499.251
0
VERTEX
8
L6D0
10
781.998
20
-500.749
0
VERTEX
8
L6D0
10
787.998
20
-500.749
0
VERTEX
8
L6D0
10
787.998
20
499.251
0
VERTEX
8
L6D0
10
789.998
20
499.251
0
VERTEX
8
L6D0
10
789.998
20
-500.749
0
VERTEX
8
L6D0
10
795.998
20
-500.749
0
VERTEX
8
L6D0
10
795.998
20
499.251
0
VERTEX
8
L6D0
10
797.998
20
499.251
0
VERTEX
8
L6D0
10
797.998
20
-500.749
0
VERTEX
8
L6D0
10
803.998
20
-500.749
0
VERTEX
8
L6D0
10
803.998
20
499.251
0
VERTEX
8
L6D0
10
805.998
20
499.251
0
VERTEX
8
L6D0
10
805.998
20
-500.749
0
VERTEX
8
L6D0
10
811.998
20
-500.749
0
VERTEX
8
L6D0
10
811.998
20
499.251
0
VERTEX
8
L6D0
10
813.998
20
499.251
0
VERTEX
8
L6D0
10
813.998
20
-500.749
0
VERTEX
8
L6D0
10
819.998
20
-500.749
0
VERTEX
8
L6D0
10
819.998
20
499.251
0
VERTEX
8
L6D0
10
821.998
20
499.251
0
VERTEX
8
L6D0
10
821.998
20
-500.749
0
VERTEX
8
L6D0
10
827.998
20
-500.749
0
VERTEX
8
L6D0
10
827.998
20
499.251
0
VERTEX
8
L6D0
10
829.998
20
499.251
0
VERTEX
8
L6D0
10
829.998
20
-500.749
0
VERTEX
8
L6D0
10
835.998
20
-500.749
0
VERTEX
8
L6D0
10
835.998
20
499.251
0
VERTEX
8
L6D0
10
837.998
20
499.251
0
VERTEX
8
L6D0
10
837.998
20
-500.749
0
VERTEX
8
L6D0
10
843.998
20
-500.749
0
VERTEX
8
L6D0
10
843.998
20
499.251
0
VERTEX
8
L6D0
10
845.998
20
499.251
0
VERTEX
8
L6D0
10
845.998
20
-500.749
0
VERTEX
8
L6D0
10
851.998
20
-500.749
0
VERTEX
8
L6D0
10
851.998
20
499.251
0
VERTEX
8
L6D0
10
853.998
20
499.251
0
VERTEX
8
L6D0
10
853.998
20
-500.749
0
VERTEX
8
L6D0
10
859.998
20
-500.749
0
VERTEX
8
L6D0
10
859.998
20
499.251
0
VERTEX
8
L6D0
10
861.998
20
499.251
0
VERTEX
8
L6D0
10
861.998
20
-500.749
0
VERTEX
8
L6D0
10
867.998
20
-500.749
0
VERTEX
8
L6D0
10
867.998
20
499.251
0
VERTEX
8
L6D0
10
869.998
20
499.251
0
VERTEX
8
L6D0
10
869.998
20
-500.749
0
VERTEX
8
L6D0
10
875.998
20
-500.749
0
VERTEX
8
L6D0
10
875.998
20
499.251
0
VERTEX
8
L6D0
10
877.998
20
499.251
0
VERTEX
8
L6D0
10
877.998
20
-500.749
0
VERTEX
8
L6D0
10
883.998
20
-500.749
0
VERTEX
8
L6D0
10
883.998
20
499.251
0
VERTEX
8
L6D0
10
885.998
20
499.251
0
VERTEX
8
L6D0
10
885.998
20
-500.749
0
VERTEX
8
L6D0
10
891.998
20
-500.749
0
VERTEX
8
L6D0
10
891.998
20
499.251
0
VERTEX
8
L6D0
10
893.998
20
499.251
0
VERTEX
8
L6D0
10
893.998
20
-500.749
0
VERTEX
8
L6D0
10
899.998
20
-500.749
0
VERTEX
8
L6D0
10
899.998
20
499.251
0
VERTEX
8
L6D0
10
901.998
20
499.251
0
VERTEX
8
L6D0
10
901.998
20
-500.749
0
VERTEX
8
L6D0
10
907.998
20
-500.749
0
VERTEX
8
L6D0
10
907.998
20
499.251
0
VERTEX
8
L6D0
10
909.998
20
499.251
0
VERTEX
8
L6D0
10
909.998
20
-500.749
0
VERTEX
8
L6D0
10
915.998
20
-500.749
0
VERTEX
8
L6D0
10
915.998
20
499.251
0
VERTEX
8
L6D0
10
917.998
20
499.251
0
VERTEX
8
L6D0
10
917.998
20
-500.749
0
VERTEX
8
L6D0
10
923.998
20
-500.749
0
VERTEX
8
L6D0
10
923.998
20
499.251
0
VERTEX
8
L6D0
10
925.998
20
499.251
0
VERTEX
8
L6D0
10
925.998
20
-500.749
0
VERTEX
8
L6D0
10
931.998
20
-500.749
0
VERTEX
8
L6D0
10
931.998
20
499.251
0
VERTEX
8
L6D0
10
933.998
20
499.251
0
VERTEX
8
L6D0
10
933.998
20
-500.749
0
VERTEX
8
L6D0
10
939.998
20
-500.749
0
VERTEX
8
L6D0
10
939.998
20
499.251
0
VERTEX
8
L6D0
10
941.998
20
499.251
0
VERTEX
8
L6D0
10
941.998
20
-500.749
0
VERTEX
8
L6D0
10
947.998
20
-500.749
0
VERTEX
8
L6D0
10
947.998
20
499.251
0
VERTEX
8
L6D0
10
949.998
20
499.251
0
VERTEX
8
L6D0
10
949.998
20
-500.749
0
VERTEX
8
L6D0
10
955.998
20
-500.749
0
VERTEX
8
L6D0
10
955.998
20
499.251
0
VERTEX
8
L6D0
10
957.998
20
499.251
0
VERTEX
8
L6D0
10
957.998
20
-500.749
0
VERTEX
8
L6D0
10
963.998
20
-500.749
0
VERTEX
8
L6D0
10
963.998
20
499.251
0
VERTEX
8
L6D0
10
965.998
20
499.251
0
VERTEX
8
L6D0
10
965.998
20
-500.749
0
VERTEX
8
L6D0
10
971.998
20
-500.749
0
VERTEX
8
L6D0
10
971.998
20
499.251
0
VERTEX
8
L6D0
10
973.998
20
499.251
0
VERTEX
8
L6D0
10
973.998
20
-500.749
0
VERTEX
8
L6D0
10
979.998
20
-500.749
0
VERTEX
8
L6D0
10
979.998
20
499.251
0
VERTEX
8
L6D0
10
981.998
20
499.251
0
VERTEX
8
L6D0
10
981.998
20
-500.749
0
VERTEX
8
L6D0
10
994.498
20
-500.749
0
VERTEX
8
L6D0
10
994.498
20
-0.999
0
VERTEX
8
L6D0
10
1019.498
20
-0.999
0
VERTEX
8
L6D0
10
1019.498
20
-525.749
0
VERTEX
8
L6D0
10
189.998
20
-525.749
0
VERTEX
8
L6D0
10
189.998
20
-600.749
0
VERTEX
8
L6D0
10
187.998
20
-600.749
0
VERTEX
8
L6D0
10
187.998
20
-525.749
0
VERTEX
8
L6D0
10
181.998
20
-525.749
0
VERTEX
8
L6D0
10
181.998
20
-600.749
0
VERTEX
8
L6D0
10
179.998
20
-600.749
0
VERTEX
8
L6D0
10
179.998
20
-525.749
0
VERTEX
8
L6D0
10
173.998
20
-525.749
0
VERTEX
8
L6D0
10
173.998
20
-600.749
0
VERTEX
8
L6D0
10
171.998
20
-600.749
0
VERTEX
8
L6D0
10
171.998
20
-525.749
0
VERTEX
8
L6D0
10
165.998
20
-525.749
0
VERTEX
8
L6D0
10
165.998
20
-600.749
0
VERTEX
8
L6D0
10
163.998
20
-600.749
0
VERTEX
8
L6D0
10
163.998
20
-525.749
0
VERTEX
8
L6D0
10
157.998
20
-525.749
0
VERTEX
8
L6D0
10
157.998
20
-600.749
0
VERTEX
8
L6D0
10
155.998
20
-600.749
0
VERTEX
8
L6D0
10
155.998
20
-525.749
0
VERTEX
8
L6D0
10
149.998
20
-525.749
0
VERTEX
8
L6D0
10
149.998
20
-600.749
0
VERTEX
8
L6D0
10
147.998
20
-600.749
0
VERTEX
8
L6D0
10
147.998
20
-525.749
0
VERTEX
8
L6D0
10
141.998
20
-525.749
0
VERTEX
8
L6D0
10
141.998
20
-600.749
0
VERTEX
8
L6D0
10
139.998
20
-600.749
0
VERTEX
8
L6D0
10
139.998
20
-525.749
0
VERTEX
8
L6D0
10
133.998
20
-525.749
0
VERTEX
8
L6D0
10
133.998
20
-600.749
0
VERTEX
8
L6D0
10
131.998
20
-600.749
0
VERTEX
8
L6D0
10
131.998
20
-525.749
0
VERTEX
8
L6D0
10
125.998
20
-525.749
0
VERTEX
8
L6D0
10
125.998
20
-600.749
0
VERTEX
8
L6D0
10
123.998
20
-600.749
0
VERTEX
8
L6D0
10
123.998
20
-525.749
0
VERTEX
8
L6D0
10
117.998
20
-525.749
0
VERTEX
8
L6D0
10
117.998
20
-600.749
0
VERTEX
8
L6D0
10
115.998
20
-600.749
0
VERTEX
8
L6D0
10
115.998
20
-525.749
0
VERTEX
8
L6D0
10
109.998
20
-525.749
0
VERTEX
8
L6D0
10
109.998
20
-600.749
0
VERTEX
8
L6D0
10
107.998
20
-600.749
0
VERTEX
8
L6D0
10
107.998
20
-525.749
0
VERTEX
8
L6D0
10
101.998
20
-525.749
0
VERTEX
8
L6D0
10
101.998
20
-600.749
0
VERTEX
8
L6D0
10
99.998
20
-600.749
0
VERTEX
8
L6D0
10
99.998
20
-525.749
0
VERTEX
8
L6D0
10
93.998
20
-525.749
0
VERTEX
8
L6D0
10
93.998
20
-600.749
0
VERTEX
8
L6D0
10
91.998
20
-600.749
0
VERTEX
8
L6D0
10
91.998
20
-525.749
0
VERTEX
8
L6D0
10
85.998
20
-525.749
0
VERTEX
8
L6D0
10
85.998
20
-600.749
0
VERTEX
8
L6D0
10
83.998
20
-600.749
0
VERTEX
8
L6D0
10
83.998
20
-525.749
0
VERTEX
8
L6D0
10
77.998
20
-525.749
0
VERTEX
8
L6D0
10
77.998
20
-600.749
0
VERTEX
8
L6D0
10
75.998
20
-600.749
0
VERTEX
8
L6D0
10
75.998
20
-525.749
0
VERTEX
8
L6D0
10
69.998
20
-525.749
0
VERTEX
8
L6D0
10
69.998
20
-600.749
0
VERTEX
8
L6D0
10
67.998
20
-600.749
0
VERTEX
8
L6D0
10
67.998
20
-525.749
0
VERTEX
8
L6D0
10
61.998
20
-525.749
0
VERTEX
8
L6D0
10
61.998
20
-600.749
0
VERTEX
8
L6D0
10
59.998
20
-600.749
0
VERTEX
8
L6D0
10
59.998
20
-525.749
0
VERTEX
8
L6D0
10
53.998
20
-525.749
0
VERTEX
8
L6D0
10
53.998
20
-600.749
0
VERTEX
8
L6D0
10
51.998
20
-600.749
0
VERTEX
8
L6D0
10
51.998
20
-525.749
0
VERTEX
8
L6D0
10
45.998
20
-525.749
0
VERTEX
8
L6D0
10
45.998
20
-600.749
0
VERTEX
8
L6D0
10
43.998
20
-600.749
0
VERTEX
8
L6D0
10
43.998
20
-525.749
0
VERTEX
8
L6D0
10
37.998
20
-525.749
0
VERTEX
8
L6D0
10
37.998
20
-600.749
0
VERTEX
8
L6D0
10
35.998
20
-600.749
0
VERTEX
8
L6D0
10
35.998
20
-525.749
0
VERTEX
8
L6D0
10
29.998
20
-525.749
0
VERTEX
8
L6D0
10
29.998
20
-600.749
0
VERTEX
8
L6D0
10
27.998
20
-600.749
0
VERTEX
8
L6D0
10
27.998
20
-525.749
0
VERTEX
8
L6D0
10
21.998
20
-525.749
0
VERTEX
8
L6D0
10
21.998
20
-600.749
0
VERTEX
8
L6D0
10
19.998
20
-600.749
0
VERTEX
8
L6D0
10
19.998
20
-525.749
0
VERTEX
8
L6D0
10
13.998
20
-525.749
0
VERTEX
8
L6D0
10
13.998
20
-600.749
0
VERTEX
8
L6D0
10
11.998
20
-600.749
0
VERTEX
8
L6D0
10
11.998
20
-525.749
0
VERTEX
8
L6D0
10
5.998
20
-525.749
0
VERTEX
8
L6D0
10
5.998
20
-600.749
0
VERTEX
8
L6D0
10
3.998
20
-600.749
0
VERTEX
8
L6D0
10
3.998
20
-525.749
0
VERTEX
8
L6D0
10
-2.002
20
-525.749
0
VERTEX
8
L6D0
10
-2.002
20
-600.749
0
VERTEX
8
L6D0
10
-4.002
20
-600.749
0
VERTEX
8
L6D0
10
-4.002
20
-525.749
0
VERTEX
8
L6D0
10
-10.002
20
-525.749
0
VERTEX
8
L6D0
10
-10.002
20
-600.749
0
VERTEX
8
L6D0
10
-12.002
20
-600.749
0
VERTEX
8
L6D0
10
-12.002
20
-525.749
0
VERTEX
8
L6D0
10
-18.002
20
-525.749
0
VERTEX
8
L6D0
10
-18.002
20
-600.749
0
VERTEX
8
L6D0
10
-20.002
20
-600.749
0
VERTEX
8
L6D0
10
-20.002
20
-525.749
0
VERTEX
8
L6D0
10
-26.002
20
-525.749
0
VERTEX
8
L6D0
10
-26.002
20
-600.749
0
VERTEX
8
L6D0
10
-28.002
20
-600.749
0
VERTEX
8
L6D0
10
-28.002
20
-525.749
0
VERTEX
8
L6D0
10
-34.002
20
-525.749
0
VERTEX
8
L6D0
10
-34.002
20
-600.749
0
VERTEX
8
L6D0
10
-36.002
20
-600.749
0
VERTEX
8
L6D0
10
-36.002
20
-525.749
0
VERTEX
8
L6D0
10
-42.002
20
-525.749
0
VERTEX
8
L6D0
10
-42.002
20
-600.749
0
VERTEX
8
L6D0
10
-44.002
20
-600.749
0
VERTEX
8
L6D0
10
-44.002
20
-525.749
0
VERTEX
8
L6D0
10
-50.002
20
-525.749
0
VERTEX
8
L6D0
10
-50.002
20
-600.749
0
VERTEX
8
L6D0
10
-52.002
20
-600.749
0
VERTEX
8
L6D0
10
-52.002
20
-525.749
0
VERTEX
8
L6D0
10
-58.002
20
-525.749
0
VERTEX
8
L6D0
10
-58.002
20
-600.749
0
VERTEX
8
L6D0
10
-60.002
20
-600.749
0
VERTEX
8
L6D0
10
-60.002
20
-525.749
0
VERTEX
8
L6D0
10
-66.002
20
-525.749
0
VERTEX
8
L6D0
10
-66.002
20
-600.749
0
VERTEX
8
L6D0
10
-68.002
20
-600.749
0
VERTEX
8
L6D0
10
-68.002
20
-525.749
0
VERTEX
8
L6D0
10
-74.002
20
-525.749
0
VERTEX
8
L6D0
10
-74.002
20
-600.749
0
VERTEX
8
L6D0
10
-76.002
20
-600.749
0
VERTEX
8
L6D0
10
-76.002
20
-525.749
0
VERTEX
8
L6D0
10
-82.002
20
-525.749
0
VERTEX
8
L6D0
10
-82.002
20
-600.749
0
VERTEX
8
L6D0
10
-84.002
20
-600.749
0
VERTEX
8
L6D0
10
-84.002
20
-525.749
0
VERTEX
8
L6D0
10
-90.002
20
-525.749
0
VERTEX
8
L6D0
10
-90.002
20
-600.749
0
VERTEX
8
L6D0
10
-92.002
20
-600.749
0
VERTEX
8
L6D0
10
-92.002
20
-525.749
0
VERTEX
8
L6D0
10
-98.002
20
-525.749
0
VERTEX
8
L6D0
10
-98.002
20
-600.749
0
VERTEX
8
L6D0
10
-100.002
20
-600.749
0
VERTEX
8
L6D0
10
-100.002
20
-525.749
0
VERTEX
8
L6D0
10
-106.002
20
-525.749
0
VERTEX
8
L6D0
10
-106.002
20
-600.749
0
VERTEX
8
L6D0
10
-108.002
20
-600.749
0
VERTEX
8
L6D0
10
-108.002
20
-525.749
0
VERTEX
8
L6D0
10
-114.002
20
-525.749
0
VERTEX
8
L6D0
10
-114.002
20
-600.749
0
VERTEX
8
L6D0
10
-116.002
20
-600.749
0
VERTEX
8
L6D0
10
-116.002
20
-525.749
0
VERTEX
8
L6D0
10
-122.002
20
-525.749
0
VERTEX
8
L6D0
10
-122.002
20
-600.749
0
VERTEX
8
L6D0
10
-124.002
20
-600.749
0
VERTEX
8
L6D0
10
-124.002
20
-525.749
0
VERTEX
8
L6D0
10
-130.002
20
-525.749
0
VERTEX
8
L6D0
10
-130.002
20
-600.749
0
VERTEX
8
L6D0
10
-132.002
20
-600.749
0
VERTEX
8
L6D0
10
-132.002
20
-525.749
0
VERTEX
8
L6D0
10
-138.002
20
-525.749
0
VERTEX
8
L6D0
10
-138.002
20
-600.749
0
VERTEX
8
L6D0
10
-140.002
20
-600.749
0
VERTEX
8
L6D0
10
-140.002
20
-525.749
0
VERTEX
8
L6D0
10
-146.002
20
-525.749
0
VERTEX
8
L6D0
10
-146.002
20
-600.749
0
VERTEX
8
L6D0
10
-148.002
20
-600.749
0
VERTEX
8
L6D0
10
-148.002
20
-525.749
0
VERTEX
8
L6D0
10
-154.002
20
-525.749
0
VERTEX
8
L6D0
10
-154.002
20
-600.749
0
VERTEX
8
L6D0
10
-156.002
20
-600.749
0
VERTEX
8
L6D0
10
-156.002
20
-525.749
0
VERTEX
8
L6D0
10
-162.002
20
-525.749
0
VERTEX
8
L6D0
10
-162.002
20
-600.749
0
VERTEX
8
L6D0
10
-164.002
20
-600.749
0
VERTEX
8
L6D0
10
-164.002
20
-525.749
0
VERTEX
8
L6D0
10
-170.002
20
-525.749
0
VERTEX
8
L6D0
10
-170.002
20
-600.749
0
VERTEX
8
L6D0
10
-172.002
20
-600.749
0
VERTEX
8
L6D0
10
-172.002
20
-525.749
0
VERTEX
8
L6D0
10
-178.002
20
-525.749
0
VERTEX
8
L6D0
10
-178.002
20
-600.749
0
VERTEX
8
L6D0
10
-180.002
20
-600.749
0
VERTEX
8
L6D0
10
-180.002
20
-525.749
0
VERTEX
8
L6D0
10
-186.002
20
-525.749
0
VERTEX
8
L6D0
10
-186.002
20
-600.749
0
VERTEX
8
L6D0
10
-188.002
20
-600.749
0
VERTEX
8
L6D0
10
-188.002
20
-525.749
0
VERTEX
8
L6D0
10
-194.002
20
-525.749
0
VERTEX
8
L6D0
10
-194.002
20
-600.749
0
VERTEX
8
L6D0
10
-196.002
20
-600.749
0
VERTEX
8
L6D0
10
-196.002
20
-525.749
0
VERTEX
8
L6D0
10
-202.002
20
-525.749
0
VERTEX
8
L6D0
10
-202.002
20
-600.749
0
VERTEX
8
L6D0
10
-204.002
20
-600.749
0
VERTEX
8
L6D0
10
-204.002
20
-525.749
0
VERTEX
8
L6D0
10
-210.002
20
-525.749
0
VERTEX
8
L6D0
10
-210.002
20
-600.749
0
VERTEX
8
L6D0
10
-212.002
20
-600.749
0
VERTEX
8
L6D0
10
-212.002
20
-525.749
0
VERTEX
8
L6D0
10
-218.002
20
-525.749
0
VERTEX
8
L6D0
10
-218.002
20
-600.749
0
VERTEX
8
L6D0
10
-220.002
20
-600.749
0
VERTEX
8
L6D0
10
-220.002
20
-525.749
0
VERTEX
8
L6D0
10
-226.002
20
-525.749
0
VERTEX
8
L6D0
10
-226.002
20
-600.749
0
SEQEND
0
POLYLINE
8
L6D0
70
1
40
0
41
0
66
1
0
VERTEX
8
L6D0
10
-944.002
20
-499.249
0
VERTEX
8
L6D0
10
-944.002
20
500.751
0
VERTEX
8
L6D0
10
-950.002
20
500.751
0
VERTEX
8
L6D0
10
-950.002
20
489.553
0
VERTEX
8
L6D0
10
-952.002
20
489.553
0
VERTEX
8
L6D0
10
-952.002
20
500.751
0
VERTEX
8
L6D0
10
-1020.002
20
500.751
0
VERTEX
8
L6D0
10
-1020.002
20
525.751
0
VERTEX
8
L6D0
10
-228.002
20
525.751
0
VERTEX
8
L6D0
10
-228.002
20
600.751
0
VERTEX
8
L6D0
10
-226.002
20
600.751
0
VERTEX
8
L6D0
10
-226.002
20
525.751
0
VERTEX
8
L6D0
10
-220.002
20
525.751
0
VERTEX
8
L6D0
10
-220.002
20
600.751
0
VERTEX
8
L6D0
10
-218.002
20
600.751
0
VERTEX
8
L6D0
10
-218.002
20
525.751
0
VERTEX
8
L6D0
10
-212.002
20
525.751
0
VERTEX
8
L6D0
10
-212.002
20
600.751
0
VERTEX
8
L6D0
10
-210.002
20
600.751
0
VERTEX
8
L6D0
10
-210.002
20
525.751
0
VERTEX
8
L6D0
10
-204.002
20
525.751
0
VERTEX
8
L6D0
10
-204.002
20
600.751
0
VERTEX
8
L6D0
10
-202.002
20
600.751
0
VERTEX
8
L6D0
10
-202.002
20
525.751
0
VERTEX
8
L6D0
10
-196.002
20
525.751
0
VERTEX
8
L6D0
10
-196.002
20
600.751
0
VERTEX
8
L6D0
10
-194.002
20
600.751
0
VERTEX
8
L6D0
10
-194.002
20
525.751
0
VERTEX
8
L6D0
10
-188.002
20
525.751
0
VERTEX
8
L6D0
10
-188.002
20
600.751
0
VERTEX
8
L6D0
10
-186.002
20
600.751
0
VERTEX
8
L6D0
10
-186.002
20
525.751
0
VERTEX
8
L6D0
10
-180.002
20
525.751
0
VERTEX
8
L6D0
10
-180.002
20
600.751
0
VERTEX
8
L6D0
10
-178.002
20
600.751
0
VERTEX
8
L6D0
10
-178.002
20
525.751
0
VERTEX
8
L6D0
10
-172.002
20
525.751
0
VERTEX
8
L6D0
10
-172.002
20
600.751
0
VERTEX
8
L6D0
10
-170.002
20
600.751
0
VERTEX
8
L6D0
10
-170.002
20
525.751
0
VERTEX
8
L6D0
10
-164.002
20
525.751
0
VERTEX
8
L6D0
10
-164.002
20
600.751
0
VERTEX
8
L6D0
10
-162.002
20
600.751
0
VERTEX
8
L6D0
10
-162.002
20
525.751
0
VERTEX
8
L6D0
10
-156.002
20
525.751
0
VERTEX
8
L6D0
10
-156.002
20
600.751
0
VERTEX
8
L6D0
10
-154.002
20
600.751
0
VERTEX
8
L6D0
10
-154.002
20
525.751
0
VERTEX
8
L6D0
10
-148.002
20
525.751
0
VERTEX
8
L6D0
10
-148.002
20
600.751
0
VERTEX
8
L6D0
10
-146.002
20
600.751
0
VERTEX
8
L6D0
10
-146.002
20
525.751
0
VERTEX
8
L6D0
10
-140.002
20
525.751
0
VERTEX
8
L6D0
10
-140.002
20
600.751
0
VERTEX
8
L6D0
10
-138.002
20
600.751
0
VERTEX
8
L6D0
10
-138.002
20
525.751
0
VERTEX
8
L6D0
10
-132.002
20
525.751
0
VERTEX
8
L6D0
10
-132.002
20
600.751
0
VERTEX
8
L6D0
10
-130.002
20
600.751
0
VERTEX
8
L6D0
10
-130.002
20
525.751
0
VERTEX
8
L6D0
10
-124.002
20
525.751
0
VERTEX
8
L6D0
10
-124.002
20
600.751
0
VERTEX
8
L6D0
10
-122.002
20
600.751
0
VERTEX
8
L6D0
10
-122.002
20
525.751
0
VERTEX
8
L6D0
10
-116.002
20
525.751
0
VERTEX
8
L6D0
10
-116.002
20
600.751
0
VERTEX
8
L6D0
10
-114.002
20
600.751
0
VERTEX
8
L6D0
10
-114.002
20
525.751
0
VERTEX
8
L6D0
10
-108.002
20
525.751
0
VERTEX
8
L6D0
10
-108.002
20
600.751
0
VERTEX
8
L6D0
10
-106.002
20
600.751
0
VERTEX
8
L6D0
10
-106.002
20
525.751
0
VERTEX
8
L6D0
10
-100.002
20
525.751
0
VERTEX
8
L6D0
10
-100.002
20
600.751
0
VERTEX
8
L6D0
10
-98.002
20
600.751
0
VERTEX
8
L6D0
10
-98.002
20
525.751
0
VERTEX
8
L6D0
10
-92.002
20
525.751
0
VERTEX
8
L6D0
10
-92.002
20
600.751
0
VERTEX
8
L6D0
10
-90.002
20
600.751
0
VERTEX
8
L6D0
10
-90.002
20
525.751
0
VERTEX
8
L6D0
10
-84.002
20
525.751
0
VERTEX
8
L6D0
10
-84.002
20
600.751
0
VERTEX
8
L6D0
10
-82.002
20
600.751
0
VERTEX
8
L6D0
10
-82.002
20
525.751
0
VERTEX
8
L6D0
10
-76.002
20
525.751
0
VERTEX
8
L6D0
10
-76.002
20
600.751
0
VERTEX
8
L6D0
10
-74.002
20
600.751
0
VERTEX
8
L6D0
10
-74.002
20
525.751
0
VERTEX
8
L6D0
10
-68.002
20
525.751
0
VERTEX
8
L6D0
10
-68.002
20
600.751
0
VERTEX
8
L6D0
10
-66.002
20
600.751
0
VERTEX
8
L6D0
10
-66.002
20
525.751
0
VERTEX
8
L6D0
10
-60.002
20
525.751
0
VERTEX
8
L6D0
10
-60.002
20
600.751
0
VERTEX
8
L6D0
10
-58.002
20
600.751
0
VERTEX
8
L6D0
10
-58.002
20
525.751
0
VERTEX
8
L6D0
10
-52.002
20
525.751
0
VERTEX
8
L6D0
10
-52.002
20
600.751
0
VERTEX
8
L6D0
10
-50.002
20
600.751
0
VERTEX
8
L6D0
10
-50.002
20
525.751
0
VERTEX
8
L6D0
10
-44.002
20
525.751
0
VERTEX
8
L6D0
10
-44.002
20
600.751
0
VERTEX
8
L6D0
10
-42.002
20
600.751
0
VERTEX
8
L6D0
10
-42.002
20
525.751
0
VERTEX
8
L6D0
10
-36.002
20
525.751
0
VERTEX
8
L6D0
10
-36.002
20
600.751
0
VERTEX
8
L6D0
10
-34.002
20
600.751
0
VERTEX
8
L6D0
10
-34.002
20
525.751
0
VERTEX
8
L6D0
10
-28.002
20
525.751
0
VERTEX
8
L6D0
10
-28.002
20
600.751
0
VERTEX
8
L6D0
10
-26.002
20
600.751
0
VERTEX
8
L6D0
10
-26.002
20
525.751
0
VERTEX
8
L6D0
10
-20.002
20
525.751
0
VERTEX
8
L6D0
10
-20.002
20
600.751
0
VERTEX
8
L6D0
10
-18.002
20
600.751
0
VERTEX
8
L6D0
10
-18.002
20
525.751
0
VERTEX
8
L6D0
10
-12.002
20
525.751
0
VERTEX
8
L6D0
10
-12.002
20
600.751
0
VERTEX
8
L6D0
10
-10.002
20
600.751
0
VERTEX
8
L6D0
10
-10.002
20
525.751
0
VERTEX
8
L6D0
10
-4.002
20
525.751
0
VERTEX
8
L6D0
10
-4.002
20
600.751
0
VERTEX
8
L6D0
10
-2.002
20
600.751
0
VERTEX
8
L6D0
10
-2.002
20
525.751
0
VERTEX
8
L6D0
10
3.998
20
525.751
0
VERTEX
8
L6D0
10
3.998
20
600.751
0
VERTEX
8
L6D0
10
5.998
20
600.751
0
VERTEX
8
L6D0
10
5.998
20
525.751
0
VERTEX
8
L6D0
10
11.998
20
525.751
0
VERTEX
8
L6D0
10
11.998
20
600.751
0
VERTEX
8
L6D0
10
13.998
20
600.751
0
VERTEX
8
L6D0
10
13.998
20
525.751
0
VERTEX
8
L6D0
10
19.998
20
525.751
0
VERTEX
8
L6D0
10
19.998
20
600.751
0
VERTEX
8
L6D0
10
21.998
20
600.751
0
VERTEX
8
L6D0
10
21.998
20
525.751
0
VERTEX
8
L6D0
10
27.998
20
525.751
0
VERTEX
8
L6D0
10
27.998
20
600.751
0
VERTEX
8
L6D0
10
29.998
20
600.751
0
VERTEX
8
L6D0
10
29.998
20
525.751
0
VERTEX
8
L6D0
10
35.998
20
525.751
0
VERTEX
8
L6D0
10
35.998
20
600.751
0
VERTEX
8
L6D0
10
37.998
20
600.751
0
VERTEX
8
L6D0
10
37.998
20
525.751
0
VERTEX
8
L6D0
10
43.998
20
525.751
0
VERTEX
8
L6D0
10
43.998
20
600.751
0
VERTEX
8
L6D0
10
45.998
20
600.751
0
VERTEX
8
L6D0
10
45.998
20
525.751
0
VERTEX
8
L6D0
10
51.998
20
525.751
0
VERTEX
8
L6D0
10
51.998
20
600.751
0
VERTEX
8
L6D0
10
53.998
20
600.751
0
VERTEX
8
L6D0
10
53.998
20
525.751
0
VERTEX
8
L6D0
10
59.998
20
525.751
0
VERTEX
8
L6D0
10
59.998
20
600.751
0
VERTEX
8
L6D0
10
61.998
20
600.751
0
VERTEX
8
L6D0
10
61.998
20
525.751
0
VERTEX
8
L6D0
10
67.998
20
525.751
0
VERTEX
8
L6D0
10
67.998
20
600.751
0
VERTEX
8
L6D0
10
69.998
20
600.751
0
VERTEX
8
L6D0
10
69.998
20
525.751
0
VERTEX
8
L6D0
10
75.998
20
525.751
0
VERTEX
8
L6D0
10
75.998
20
600.751
0
VERTEX
8
L6D0
10
77.998
20
600.751
0
VERTEX
8
L6D0
10
77.998
20
525.751
0
VERTEX
8
L6D0
10
83.998
20
525.751
0
VERTEX
8
L6D0
10
83.998
20
600.751
0
VERTEX
8
L6D0
10
85.998
20
600.751
0
VERTEX
8
L6D0
10
85.998
20
525.751
0
VERTEX
8
L6D0
10
91.998
20
525.751
0
VERTEX
8
L6D0
10
91.998
20
600.751
0
VERTEX
8
L6D0
10
93.998
20
600.751
0
VERTEX
8
L6D0
10
93.998
20
525.751
0
VERTEX
8
L6D0
10
99.998
20
525.751
0
VERTEX
8
L6D0
10
99.998
20
600.751
0
VERTEX
8
L6D0
10
101.998
20
600.751
0
VERTEX
8
L6D0
10
101.998
20
525.751
0
VERTEX
8
L6D0
10
107.998
20
525.751
0
VERTEX
8
L6D0
10
107.998
20
600.751
0
VERTEX
8
L6D0
10
109.998
20
600.751
0
VERTEX
8
L6D0
10
109.998
20
525.751
0
VERTEX
8
L6D0
10
115.998
20
525.751
0
VERTEX
8
L6D0
10
115.998
20
600.751
0
VERTEX
8
L6D0
10
117.998
20
600.751
0
VERTEX
8
L6D0
10
117.998
20
525.751
0
VERTEX
8
L6D0
10
123.998
20
525.751
0
VERTEX
8
L6D0
10
123.998
20
600.751
0
VERTEX
8
L6D0
10
125.998
20
600.751
0
VERTEX
8
L6D0
10
125.998
20
525.751
0
VERTEX
8
L6D0
10
131.998
20
525.751
0
VERTEX
8
L6D0
10
131.998
20
600.751
0
VERTEX
8
L6D0
10
133.998
20
600.751
0
VERTEX
8
L6D0
10
133.998
20
525.751
0
VERTEX
8
L6D0
10
139.998
20
525.751
0
VERTEX
8
L6D0
10
139.998
20
600.751
0
VERTEX
8
L6D0
10
141.998
20
600.751
0
VERTEX
8
L6D0
10
141.998
20
525.751
0
VERTEX
8
L6D0
10
147.998
20
525.751
0
VERTEX
8
L6D0
10
147.998
20
600.751
0
VERTEX
8
L6D0
10
149.998
20
600.751
0
VERTEX
8
L6D0
10
149.998
20
525.751
0
VERTEX
8
L6D0
10
155.998
20
525.751
0
VERTEX
8
L6D0
10
155.998
20
600.751
0
VERTEX
8
L6D0
10
157.998
20
600.751
0
VERTEX
8
L6D0
10
157.998
20
525.751
0
VERTEX
8
L6D0
10
163.998
20
525.751
0
VERTEX
8
L6D0
10
163.998
20
600.751
0
VERTEX
8
L6D0
10
165.998
20
600.751
0
VERTEX
8
L6D0
10
165.998
20
525.751
0
VERTEX
8
L6D0
10
171.998
20
525.751
0
VERTEX
8
L6D0
10
171.998
20
600.751
0
VERTEX
8
L6D0
10
173.998
20
600.751
0
VERTEX
8
L6D0
10
173.998
20
525.751
0
VERTEX
8
L6D0
10
179.998
20
525.751
0
VERTEX
8
L6D0
10
179.998
20
600.751
0
VERTEX
8
L6D0
10
181.998
20
600.751
0
VERTEX
8
L6D0
10
181.998
20
525.751
0
VERTEX
8
L6D0
10
187.998
20
525.751
0
VERTEX
8
L6D0
10
187.998
20
600.751
0
VERTEX
8
L6D0
10
189.998
20
600.751
0
VERTEX
8
L6D0
10
189.998
20
525.751
0
VERTEX
8
L6D0
10
1019.498
20
525.751
0
VERTEX
8
L6D0
10
1019.498
20
1.001
0
VERTEX
8
L6D0
10
994.498
20
1.001
0
VERTEX
8
L6D0
10
994.498
20
500.751
0
VERTEX
8
L6D0
10
977.998
20
500.751
0
VERTEX
8
L6D0
10
977.998
20
-499.249
0
VERTEX
8
L6D0
10
975.998
20
-499.249
0
VERTEX
8
L6D0
10
975.998
20
500.751
0
VERTEX
8
L6D0
10
969.998
20
500.751
0
VERTEX
8
L6D0
10
969.998
20
-499.249
0
VERTEX
8
L6D0
10
967.998
20
-499.249
0
VERTEX
8
L6D0
10
967.998
20
500.751
0
VERTEX
8
L6D0
10
961.998
20
500.751
0
VERTEX
8
L6D0
10
961.998
20
-499.249
0
VERTEX
8
L6D0
10
959.998
20
-499.249
0
VERTEX
8
L6D0
10
959.998
20
500.751
0
VERTEX
8
L6D0
10
953.998
20
500.751
0
VERTEX
8
L6D0
10
953.998
20
-499.249
0
VERTEX
8
L6D0
10
951.998
20
-499.249
0
VERTEX
8
L6D0
10
951.998
20
500.751
0
VERTEX
8
L6D0
10
945.998
20
500.751
0
VERTEX
8
L6D0
10
945.998
20
-499.249
0
VERTEX
8
L6D0
10
943.998
20
-499.249
0
VERTEX
8
L6D0
10
943.998
20
500.751
0
VERTEX
8
L6D0
10
937.998
20
500.751
0
VERTEX
8
L6D0
10
937.998
20
-499.249
0
VERTEX
8
L6D0
10
935.998
20
-499.249
0
VERTEX
8
L6D0
10
935.998
20
500.751
0
VERTEX
8
L6D0
10
929.998
20
500.751
0
VERTEX
8
L6D0
10
929.998
20
-499.249
0
VERTEX
8
L6D0
10
927.998
20
-499.249
0
VERTEX
8
L6D0
10
927.998
20
500.751
0
VERTEX
8
L6D0
10
921.998
20
500.751
0
VERTEX
8
L6D0
10
921.998
20
-499.249
0
VERTEX
8
L6D0
10
919.998
20
-499.249
0
VERTEX
8
L6D0
10
919.998
20
500.751
0
VERTEX
8
L6D0
10
913.998
20
500.751
0
VERTEX
8
L6D0
10
913.998
20
-499.249
0
VERTEX
8
L6D0
10
911.998
20
-499.249
0
VERTEX
8
L6D0
10
911.998
20
500.751
0
VERTEX
8
L6D0
10
905.998
20
500.751
0
VERTEX
8
L6D0
10
905.998
20
-499.249
0
VERTEX
8
L6D0
10
903.998
20
-499.249
0
VERTEX
8
L6D0
10
903.998
20
500.751
0
VERTEX
8
L6D0
10
897.998
20
500.751
0
VERTEX
8
L6D0
10
897.998
20
-499.249
0
VERTEX
8
L6D0
10
895.998
20
-499.249
0
VERTEX
8
L6D0
10
895.998
20
500.751
0
VERTEX
8
L6D0
10
889.998
20
500.751
0
VERTEX
8
L6D0
10
889.998
20
-499.249
0
VERTEX
8
L6D0
10
887.998
20
-499.249
0
VERTEX
8
L6D0
10
887.998
20
500.751
0
VERTEX
8
L6D0
10
881.998
20
500.751
0
VERTEX
8
L6D0
10
881.998
20
-499.249
0
VERTEX
8
L6D0
10
879.998
20
-499.249
0
VERTEX
8
L6D0
10
879.998
20
500.751
0
VERTEX
8
L6D0
10
873.998
20
500.751
0
VERTEX
8
L6D0
10
873.998
20
-499.249
0
VERTEX
8
L6D0
10
871.998
20
-499.249
0
VERTEX
8
L6D0
10
871.998
20
500.751
0
VERTEX
8
L6D0
10
865.998
20
500.751
0
VERTEX
8
L6D0
10
865.998
20
-499.249
0
VERTEX
8
L6D0
10
863.998
20
-499.249
0
VERTEX
8
L6D0
10
863.998
20
500.751
0
VERTEX
8
L6D0
10
857.998
20
500.751
0
VERTEX
8
L6D0
10
857.998
20
-499.249
0
VERTEX
8
L6D0
10
855.998
20
-499.249
0
VERTEX
8
L6D0
10
855.998
20
500.751
0
VERTEX
8
L6D0
10
849.998
20
500.751
0
VERTEX
8
L6D0
10
849.998
20
-499.249
0
VERTEX
8
L6D0
10
847.998
20
-499.249
0
VERTEX
8
L6D0
10
847.998
20
500.751
0
VERTEX
8
L6D0
10
841.998
20
500.751
0
VERTEX
8
L6D0
10
841.998
20
-499.249
0
VERTEX
8
L6D0
10
839.998
20
-499.249
0
VERTEX
8
L6D0
10
839.998
20
500.751
0
VERTEX
8
L6D0
10
833.998
20
500.751
0
VERTEX
8
L6D0
10
833.998
20
-499.249
0
VERTEX
8
L6D0
10
831.998
20
-499.249
0
VERTEX
8
L6D0
10
831.998
20
500.751
0
VERTEX
8
L6D0
10
825.998
20
500.751
0
VERTEX
8
L6D0
10
825.998
20
-499.249
0
VERTEX
8
L6D0
10
823.998
20
-499.249
0
VERTEX
8
L6D0
10
823.998
20
500.751
0
VERTEX
8
L6D0
10
817.998
20
500.751
0
VERTEX
8
L6D0
10
817.998
20
-499.249
0
VERTEX
8
L6D0
10
815.998
20
-499.249
0
VERTEX
8
L6D0
10
815.998
20
500.751
0
VERTEX
8
L6D0
10
809.998
20
500.751
0
VERTEX
8
L6D0
10
809.998
20
-499.249
0
VERTEX
8
L6D0
10
807.998
20
-499.249
0
VERTEX
8
L6D0
10
807.998
20
500.751
0
VERTEX
8
L6D0
10
801.998
20
500.751
0
VERTEX
8
L6D0
10
801.998
20
-499.249
0
VERTEX
8
L6D0
10
799.998
20
-499.249
0
VERTEX
8
L6D0
10
799.998
20
500.751
0
VERTEX
8
L6D0
10
793.998
20
500.751
0
VERTEX
8
L6D0
10
793.998
20
-499.249
0
VERTEX
8
L6D0
10
791.998
20
-499.249
0
VERTEX
8
L6D0
10
791.998
20
500.751
0
VERTEX
8
L6D0
10
785.998
20
500.751
0
VERTEX
8
L6D0
10
785.998
20
-499.249
0
VERTEX
8
L6D0
10
783.998
20
-499.249
0
VERTEX
8
L6D0
10
783.998
20
500.751
0
VERTEX
8
L6D0
10
777.998
20
500.751
0
VERTEX
8
L6D0
10
777.998
20
-499.249
0
VERTEX
8
L6D0
10
775.998
20
-499.249
0
VERTEX
8
L6D0
10
775.998
20
500.751
0
VERTEX
8
L6D0
10
769.998
20
500.751
0
VERTEX
8
L6D0
10
769.998
20
-499.249
0
VERTEX
8
L6D0
10
767.998
20
-499.249
0
VERTEX
8
L6D0
10
767.998
20
500.751
0
VERTEX
8
L6D0
10
761.998
20
500.751
0
VERTEX
8
L6D0
10
761.998
20
-499.249
0
VERTEX
8
L6D0
10
759.998
20
-499.249
0
VERTEX
8
L6D0
10
759.998
20
500.751
0
VERTEX
8
L6D0
10
753.998
20
500.751
0
VERTEX
8
L6D0
10
753.998
20
-499.249
0
VERTEX
8
L6D0
10
751.998
20
-499.249
0
VERTEX
8
L6D0
10
751.998
20
500.751
0
VERTEX
8
L6D0
10
745.998
20
500.751
0
VERTEX
8
L6D0
10
745.998
20
-499.249
0
VERTEX
8
L6D0
10
743.998
20
-499.249
0
VERTEX
8
L6D0
10
743.998
20
500.751
0
VERTEX
8
L6D0
10
737.998
20
500.751
0
VERTEX
8
L6D0
10
737.998
20
-499.249
0
VERTEX
8
L6D0
10
735.998
20
-499.249
0
VERTEX
8
L6D0
10
735.998
20
500.751
0
VERTEX
8
L6D0
10
729.998
20
500.751
0
VERTEX
8
L6D0
10
729.998
20
-499.249
0
VERTEX
8
L6D0
10
727.998
20
-499.249
0
VERTEX
8
L6D0
10
727.998
20
500.751
0
VERTEX
8
L6D0
10
721.998
20
500.751
0
VERTEX
8
L6D0
10
721.998
20
-499.249
0
VERTEX
8
L6D0
10
719.998
20
-499.249
0
VERTEX
8
L6D0
10
719.998
20
500.751
0
VERTEX
8
L6D0
10
713.998
20
500.751
0
VERTEX
8
L6D0
10
713.998
20
-499.249
0
VERTEX
8
L6D0
10
711.998
20
-499.249
0
VERTEX
8
L6D0
10
711.998
20
500.751
0
VERTEX
8
L6D0
10
705.998
20
500.751
0
VERTEX
8
L6D0
10
705.998
20
-499.249
0
VERTEX
8
L6D0
10
703.998
20
-499.249
0
VERTEX
8
L6D0
10
703.998
20
500.751
0
VERTEX
8
L6D0
10
697.998
20
500.751
0
VERTEX
8
L6D0
10
697.998
20
-499.249
0
VERTEX
8
L6D0
10
695.998
20
-499.249
0
VERTEX
8
L6D0
10
695.998
20
500.751
0
VERTEX
8
L6D0
10
689.998
20
500.751
0
VERTEX
8
L6D0
10
689.998
20
-499.249
0
VERTEX
8
L6D0
10
687.998
20
-499.249
0
VERTEX
8
L6D0
10
687.998
20
500.751
0
VERTEX
8
L6D0
10
681.998
20
500.751
0
VERTEX
8
L6D0
10
681.998
20
-499.249
0
VERTEX
8
L6D0
10
679.998
20
-499.249
0
VERTEX
8
L6D0
10
679.998
20
500.751
0
VERTEX
8
L6D0
10
673.998
20
500.751
0
VERTEX
8
L6D0
10
673.998
20
-499.249
0
VERTEX
8
L6D0
10
671.998
20
-499.249
0
VERTEX
8
L6D0
10
671.998
20
500.751
0
VERTEX
8
L6D0
10
665.998
20
500.751
0
VERTEX
8
L6D0
10
665.998
20
-499.249
0
VERTEX
8
L6D0
10
663.998
20
-499.249
0
VERTEX
8
L6D0
10
663.998
20
500.751
0
VERTEX
8
L6D0
10
657.998
20
500.751
0
VERTEX
8
L6D0
10
657.998
20
-499.249
0
VERTEX
8
L6D0
10
655.998
20
-499.249
0
VERTEX
8
L6D0
10
655.998
20
500.751
0
VERTEX
8
L6D0
10
649.998
20
500.751
0
VERTEX
8
L6D0
10
649.998
20
-499.249
0
VERTEX
8
L6D0
10
647.998
20
-499.249
0
VERTEX
8
L6D0
10
647.998
20
500.751
0
VERTEX
8
L6D0
10
641.998
20
500.751
0
VERTEX
8
L6D0
10
641.998
20
-499.249
0
VERTEX
8
L6D0
10
639.998
20
-499.249
0
VERTEX
8
L6D0
10
639.998
20
500.751
0
VERTEX
8
L6D0
10
633.998
20
500.751
0
VERTEX
8
L6D0
10
633.998
20
-499.249
0
VERTEX
8
L6D0
10
631.998
20
-499.249
0
VERTEX
8
L6D0
10
631.998
20
500.751
0
VERTEX
8
L6D0
10
625.998
20
500.751
0
VERTEX
8
L6D0
10
625.998
20
-499.249
0
VERTEX
8
L6D0
10
623.998
20
-499.249
0
VERTEX
8
L6D0
10
623.998
20
500.751
0
VERTEX
8
L6D0
10
617.998
20
500.751
0
VERTEX
8
L6D0
10
617.998
20
-499.249
0
VERTEX
8
L6D0
10
615.998
20
-499.249
0
VERTEX
8
L6D0
10
615.998
20
500.751
0
VERTEX
8
L6D0
10
609.998
20
500.751
0
VERTEX
8
L6D0
10
609.998
20
-499.249
0
VERTEX
8
L6D0
10
607.998
20
-499.249
0
VERTEX
8
L6D0
10
607.998
20
500.751
0
VERTEX
8
L6D0
10
601.998
20
500.751
0
VERTEX
8
L6D0
10
601.998
20
-499.249
0
VERTEX
8
L6D0
10
599.998
20
-499.249
0
VERTEX
8
L6D0
10
599.998
20
500.751
0
VERTEX
8
L6D0
10
593.998
20
500.751
0
VERTEX
8
L6D0
10
593.998
20
-499.249
0
VERTEX
8
L6D0
10
591.998
20
-499.249
0
VERTEX
8
L6D0
10
591.998
20
500.751
0
VERTEX
8
L6D0
10
585.998
20
500.751
0
VERTEX
8
L6D0
10
585.998
20
-499.249
0
VERTEX
8
L6D0
10
583.998
20
-499.249
0
VERTEX
8
L6D0
10
583.998
20
500.751
0
VERTEX
8
L6D0
10
577.998
20
500.751
0
VERTEX
8
L6D0
10
577.998
20
-499.249
0
VERTEX
8
L6D0
10
575.998
20
-499.249
0
VERTEX
8
L6D0
10
575.998
20
500.751
0
VERTEX
8
L6D0
10
569.998
20
500.751
0
VERTEX
8
L6D0
10
569.998
20
-499.249
0
VERTEX
8
L6D0
10
567.998
20
-499.249
0
VERTEX
8
L6D0
10
567.998
20
500.751
0
VERTEX
8
L6D0
10
561.998
20
500.751
0
VERTEX
8
L6D0
10
561.998
20
-499.249
0
VERTEX
8
L6D0
10
559.998
20
-499.249
0
VERTEX
8
L6D0
10
559.998
20
500.751
0
VERTEX
8
L6D0
10
553.998
20
500.751
0
VERTEX
8
L6D0
10
553.998
20
-499.249
0
VERTEX
8
L6D0
10
551.998
20
-499.249
0
VERTEX
8
L6D0
10
551.998
20
500.751
0
VERTEX
8
L6D0
10
545.998
20
500.751
0
VERTEX
8
L6D0
10
545.998
20
-499.249
0
VERTEX
8
L6D0
10
543.998
20
-499.249
0
VERTEX
8
L6D0
10
543.998
20
500.751
0
VERTEX
8
L6D0
10
537.998
20
500.751
0
VERTEX
8
L6D0
10
537.998
20
-499.249
0
VERTEX
8
L6D0
10
535.998
20
-499.249
0
VERTEX
8
L6D0
10
535.998
20
500.751
0
VERTEX
8
L6D0
10
529.998
20
500.751
0
VERTEX
8
L6D0
10
529.998
20
-499.249
0
VERTEX
8
L6D0
10
527.998
20
-499.249
0
VERTEX
8
L6D0
10
527.998
20
500.751
0
VERTEX
8
L6D0
10
521.998
20
500.751
0
VERTEX
8
L6D0
10
521.998
20
-499.249
0
VERTEX
8
L6D0
10
519.998
20
-499.249
0
VERTEX
8
L6D0
10
519.998
20
500.751
0
VERTEX
8
L6D0
10
513.998
20
500.751
0
VERTEX
8
L6D0
10
513.998
20
-499.249
0
VERTEX
8
L6D0
10
511.998
20
-499.249
0
VERTEX
8
L6D0
10
511.998
20
500.751
0
VERTEX
8
L6D0
10
505.998
20
500.751
0
VERTEX
8
L6D0
10
505.998
20
-499.249
0
VERTEX
8
L6D0
10
503.998
20
-499.249
0
VERTEX
8
L6D0
10
503.998
20
500.751
0
VERTEX
8
L6D0
10
497.998
20
500.751
0
VERTEX
8
L6D0
10
497.998
20
-499.249
0
VERTEX
8
L6D0
10
495.998
20
-499.249
0
VERTEX
8
L6D0
10
495.998
20
500.751
0
VERTEX
8
L6D0
10
489.998
20
500.751
0
VERTEX
8
L6D0
10
489.998
20
-499.249
0
VERTEX
8
L6D0
10
487.998
20
-499.249
0
VERTEX
8
L6D0
10
487.998
20
500.751
0
VERTEX
8
L6D0
10
481.998
20
500.751
0
VERTEX
8
L6D0
10
481.998
20
-499.249
0
VERTEX
8
L6D0
10
479.998
20
-499.249
0
VERTEX
8
L6D0
10
479.998
20
500.751
0
VERTEX
8
L6D0
10
473.998
20
500.751
0
VERTEX
8
L6D0
10
473.998
20
-499.249
0
VERTEX
8
L6D0
10
471.998
20
-499.249
0
VERTEX
8
L6D0
10
471.998
20
500.751
0
VERTEX
8
L6D0
10
465.998
20
500.751
0
VERTEX
8
L6D0
10
465.998
20
-499.249
0
VERTEX
8
L6D0
10
463.998
20
-499.249
0
VERTEX
8
L6D0
10
463.998
20
500.751
0
VERTEX
8
L6D0
10
457.998
20
500.751
0
VERTEX
8
L6D0
10
457.998
20
-499.249
0
VERTEX
8
L6D0
10
455.998
20
-499.249
0
VERTEX
8
L6D0
10
455.998
20
500.751
0
VERTEX
8
L6D0
10
449.998
20
500.751
0
VERTEX
8
L6D0
10
449.998
20
-499.249
0
VERTEX
8
L6D0
10
447.998
20
-499.249
0
VERTEX
8
L6D0
10
447.998
20
500.751
0
VERTEX
8
L6D0
10
441.998
20
500.751
0
VERTEX
8
L6D0
10
441.998
20
-499.249
0
VERTEX
8
L6D0
10
439.998
20
-499.249
0
VERTEX
8
L6D0
10
439.998
20
500.751
0
VERTEX
8
L6D0
10
433.998
20
500.751
0
VERTEX
8
L6D0
10
433.998
20
-499.249
0
VERTEX
8
L6D0
10
431.998
20
-499.249
0
VERTEX
8
L6D0
10
431.998
20
500.751
0
VERTEX
8
L6D0
10
425.998
20
500.751
0
VERTEX
8
L6D0
10
425.998
20
-499.249
0
VERTEX
8
L6D0
10
423.998
20
-499.249
0
VERTEX
8
L6D0
10
423.998
20
500.751
0
VERTEX
8
L6D0
10
417.998
20
500.751
0
VERTEX
8
L6D0
10
417.998
20
-499.249
0
VERTEX
8
L6D0
10
415.998
20
-499.249
0
VERTEX
8
L6D0
10
415.998
20
500.751
0
VERTEX
8
L6D0
10
409.998
20
500.751
0
VERTEX
8
L6D0
10
409.998
20
-499.249
0
VERTEX
8
L6D0
10
407.998
20
-499.249
0
VERTEX
8
L6D0
10
407.998
20
500.751
0
VERTEX
8
L6D0
10
401.998
20
500.751
0
VERTEX
8
L6D0
10
401.998
20
-499.249
0
VERTEX
8
L6D0
10
399.998
20
-499.249
0
VERTEX
8
L6D0
10
399.998
20
500.751
0
VERTEX
8
L6D0
10
393.998
20
500.751
0
VERTEX
8
L6D0
10
393.998
20
-499.249
0
VERTEX
8
L6D0
10
391.998
20
-499.249
0
VERTEX
8
L6D0
10
391.998
20
500.751
0
VERTEX
8
L6D0
10
385.998
20
500.751
0
VERTEX
8
L6D0
10
385.998
20
-499.249
0
VERTEX
8
L6D0
10
383.998
20
-499.249
0
VERTEX
8
L6D0
10
383.998
20
500.751
0
VERTEX
8
L6D0
10
377.998
20
500.751
0
VERTEX
8
L6D0
10
377.998
20
-499.249
0
VERTEX
8
L6D0
10
375.998
20
-499.249
0
VERTEX
8
L6D0
10
375.998
20
500.751
0
VERTEX
8
L6D0
10
369.998
20
500.751
0
VERTEX
8
L6D0
10
369.998
20
-499.249
0
VERTEX
8
L6D0
10
367.998
20
-499.249
0
VERTEX
8
L6D0
10
367.998
20
500.751
0
VERTEX
8
L6D0
10
361.998
20
500.751
0
VERTEX
8
L6D0
10
361.998
20
-499.249
0
VERTEX
8
L6D0
10
359.998
20
-499.249
0
VERTEX
8
L6D0
10
359.998
20
500.751
0
VERTEX
8
L6D0
10
353.998
20
500.751
0
VERTEX
8
L6D0
10
353.998
20
-499.249
0
VERTEX
8
L6D0
10
351.998
20
-499.249
0
VERTEX
8
L6D0
10
351.998
20
500.751
0
VERTEX
8
L6D0
10
345.998
20
500.751
0
VERTEX
8
L6D0
10
345.998
20
-499.249
0
VERTEX
8
L6D0
10
343.998
20
-499.249
0
VERTEX
8
L6D0
10
343.998
20
500.751
0
VERTEX
8
L6D0
10
337.998
20
500.751
0
VERTEX
8
L6D0
10
337.998
20
-499.249
0
VERTEX
8
L6D0
10
335.998
20
-499.249
0
VERTEX
8
L6D0
10
335.998
20
500.751
0
VERTEX
8
L6D0
10
329.998
20
500.751
0
VERTEX
8
L6D0
10
329.998
20
-499.249
0
VERTEX
8
L6D0
10
327.998
20
-499.249
0
VERTEX
8
L6D0
10
327.998
20
500.751
0
VERTEX
8
L6D0
10
321.998
20
500.751
0
VERTEX
8
L6D0
10
321.998
20
-499.249
0
VERTEX
8
L6D0
10
319.998
20
-499.249
0
VERTEX
8
L6D0
10
319.998
20
500.751
0
VERTEX
8
L6D0
10
313.998
20
500.751
0
VERTEX
8
L6D0
10
313.998
20
-499.249
0
VERTEX
8
L6D0
10
311.998
20
-499.249
0
VERTEX
8
L6D0
10
311.998
20
500.751
0
VERTEX
8
L6D0
10
305.998
20
500.751
0
VERTEX
8
L6D0
10
305.998
20
-499.249
0
VERTEX
8
L6D0
10
303.998
20
-499.249
0
VERTEX
8
L6D0
10
303.998
20
500.751
0
VERTEX
8
L6D0
10
297.998
20
500.751
0
VERTEX
8
L6D0
10
297.998
20
-499.249
0
VERTEX
8
L6D0
10
295.998
20
-499.249
0
VERTEX
8
L6D0
10
295.998
20
500.751
0
VERTEX
8
L6D0
10
289.998
20
500.751
0
VERTEX
8
L6D0
10
289.998
20
-499.249
0
VERTEX
8
L6D0
10
287.998
20
-499.249
0
VERTEX
8
L6D0
10
287.998
20
500.751
0
VERTEX
8
L6D0
10
281.998
20
500.751
0
VERTEX
8
L6D0
10
281.998
20
-499.249
0
VERTEX
8
L6D0
10
279.998
20
-499.249
0
VERTEX
8
L6D0
10
279.998
20
500.751
0
VERTEX
8
L6D0
10
273.998
20
500.751
0
VERTEX
8
L6D0
10
273.998
20
-499.249
0
VERTEX
8
L6D0
10
271.998
20
-499.249
0
VERTEX
8
L6D0
10
271.998
20
500.751
0
VERTEX
8
L6D0
10
265.998
20
500.751
0
VERTEX
8
L6D0
10
265.998
20
-499.249
0
VERTEX
8
L6D0
10
263.998
20
-499.249
0
VERTEX
8
L6D0
10
263.998
20
500.751
0
VERTEX
8
L6D0
10
257.998
20
500.751
0
VERTEX
8
L6D0
10
257.998
20
-499.249
0
VERTEX
8
L6D0
10
255.998
20
-499.249
0
VERTEX
8
L6D0
10
255.998
20
500.751
0
VERTEX
8
L6D0
10
249.998
20
500.751
0
VERTEX
8
L6D0
10
249.998
20
-499.249
0
VERTEX
8
L6D0
10
247.998
20
-499.249
0
VERTEX
8
L6D0
10
247.998
20
500.751
0
VERTEX
8
L6D0
10
241.998
20
500.751
0
VERTEX
8
L6D0
10
241.998
20
-499.249
0
VERTEX
8
L6D0
10
239.998
20
-499.249
0
VERTEX
8
L6D0
10
239.998
20
500.751
0
VERTEX
8
L6D0
10
233.998
20
500.751
0
VERTEX
8
L6D0
10
233.998
20
-499.249
0
VERTEX
8
L6D0
10
231.998
20
-499.249
0
VERTEX
8
L6D0
10
231.998
20
500.751
0
VERTEX
8
L6D0
10
225.998
20
500.751
0
VERTEX
8
L6D0
10
225.998
20
-499.249
0
VERTEX
8
L6D0
10
223.998
20
-499.249
0
VERTEX
8
L6D0
10
223.998
20
500.751
0
VERTEX
8
L6D0
10
217.998
20
500.751
0
VERTEX
8
L6D0
10
217.998
20
-499.249
0
VERTEX
8
L6D0
10
215.998
20
-499.249
0
VERTEX
8
L6D0
10
215.998
20
500.751
0
VERTEX
8
L6D0
10
209.998
20
500.751
0
VERTEX
8
L6D0
10
209.998
20
-499.249
0
VERTEX
8
L6D0
10
207.998
20
-499.249
0
VERTEX
8
L6D0
10
207.998
20
500.751
0
VERTEX
8
L6D0
10
201.998
20
500.751
0
VERTEX
8
L6D0
10
201.998
20
-499.249
0
VERTEX
8
L6D0
10
199.998
20
-499.249
0
VERTEX
8
L6D0
10
199.998
20
500.751
0
VERTEX
8
L6D0
10
193.998
20
500.751
0
VERTEX
8
L6D0
10
193.998
20
-499.249
0
VERTEX
8
L6D0
10
191.998
20
-499.249
0
VERTEX
8
L6D0
10
191.998
20
500.751
0
VERTEX
8
L6D0
10
185.998
20
500.751
0
VERTEX
8
L6D0
10
185.998
20
-499.249
0
VERTEX
8
L6D0
10
183.998
20
-499.249
0
VERTEX
8
L6D0
10
183.998
20
500.751
0
VERTEX
8
L6D0
10
177.998
20
500.751
0
VERTEX
8
L6D0
10
177.998
20
-499.249
0
VERTEX
8
L6D0
10
175.998
20
-499.249
0
VERTEX
8
L6D0
10
175.998
20
500.751
0
VERTEX
8
L6D0
10
169.998
20
500.751
0
VERTEX
8
L6D0
10
169.998
20
-499.249
0
VERTEX
8
L6D0
10
167.998
20
-499.249
0
VERTEX
8
L6D0
10
167.998
20
500.751
0
VERTEX
8
L6D0
10
161.998
20
500.751
0
VERTEX
8
L6D0
10
161.998
20
-499.249
0
VERTEX
8
L6D0
10
159.998
20
-499.249
0
VERTEX
8
L6D0
10
159.998
20
500.751
0
VERTEX
8
L6D0
10
153.998
20
500.751
0
VERTEX
8
L6D0
10
153.998
20
-499.249
0
VERTEX
8
L6D0
10
151.998
20
-499.249
0
VERTEX
8
L6D0
10
151.998
20
500.751
0
VERTEX
8
L6D0
10
145.998
20
500.751
0
VERTEX
8
L6D0
10
145.998
20
-499.249
0
VERTEX
8
L6D0
10
143.998
20
-499.249
0
VERTEX
8
L6D0
10
143.998
20
500.751
0
VERTEX
8
L6D0
10
137.998
20
500.751
0
VERTEX
8
L6D0
10
137.998
20
-499.249
0
VERTEX
8
L6D0
10
135.998
20
-499.249
0
VERTEX
8
L6D0
10
135.998
20
500.751
0
VERTEX
8
L6D0
10
129.998
20
500.751
0
VERTEX
8
L6D0
10
129.998
20
-499.249
0
VERTEX
8
L6D0
10
127.998
20
-499.249
0
VERTEX
8
L6D0
10
127.998
20
500.751
0
VERTEX
8
L6D0
10
121.998
20
500.751
0
VERTEX
8
L6D0
10
121.998
20
-499.249
0
VERTEX
8
L6D0
10
119.998
20
-499.249
0
VERTEX
8
L6D0
10
119.998
20
500.751
0
VERTEX
8
L6D0
10
113.998
20
500.751
0
VERTEX
8
L6D0
10
113.998
20
-499.249
0
VERTEX
8
L6D0
10
111.998
20
-499.249
0
VERTEX
8
L6D0
10
111.998
20
500.751
0
VERTEX
8
L6D0
10
105.998
20
500.751
0
VERTEX
8
L6D0
10
105.998
20
-499.249
0
VERTEX
8
L6D0
10
103.998
20
-499.249
0
VERTEX
8
L6D0
10
103.998
20
500.751
0
VERTEX
8
L6D0
10
97.998
20
500.751
0
VERTEX
8
L6D0
10
97.998
20
-499.249
0
VERTEX
8
L6D0
10
95.998
20
-499.249
0
VERTEX
8
L6D0
10
95.998
20
500.751
0
VERTEX
8
L6D0
10
89.998
20
500.751
0
VERTEX
8
L6D0
10
89.998
20
-499.249
0
VERTEX
8
L6D0
10
87.998
20
-499.249
0
VERTEX
8
L6D0
10
87.998
20
500.751
0
VERTEX
8
L6D0
10
81.998
20
500.751
0
VERTEX
8
L6D0
10
81.998
20
-499.249
0
VERTEX
8
L6D0
10
79.998
20
-499.249
0
VERTEX
8
L6D0
10
79.998
20
500.751
0
VERTEX
8
L6D0
10
73.998
20
500.751
0
VERTEX
8
L6D0
10
73.998
20
-499.249
0
VERTEX
8
L6D0
10
71.998
20
-499.249
0
VERTEX
8
L6D0
10
71.998
20
500.751
0
VERTEX
8
L6D0
10
65.998
20
500.751
0
VERTEX
8
L6D0
10
65.998
20
-499.249
0
VERTEX
8
L6D0
10
63.998
20
-499.249
0
VERTEX
8
L6D0
10
63.998
20
500.751
0
VERTEX
8
L6D0
10
57.998
20
500.751
0
VERTEX
8
L6D0
10
57.998
20
-499.249
0
VERTEX
8
L6D0
10
55.998
20
-499.249
0
VERTEX
8
L6D0
10
55.998
20
500.751
0
VERTEX
8
L6D0
10
49.998
20
500.751
0
VERTEX
8
L6D0
10
49.998
20
-499.249
0
VERTEX
8
L6D0
10
47.998
20
-499.249
0
VERTEX
8
L6D0
10
47.998
20
500.751
0
VERTEX
8
L6D0
10
41.998
20
500.751
0
VERTEX
8
L6D0
10
41.998
20
-499.249
0
VERTEX
8
L6D0
10
39.998
20
-499.249
0
VERTEX
8
L6D0
10
39.998
20
500.751
0
VERTEX
8
L6D0
10
33.998
20
500.751
0
VERTEX
8
L6D0
10
33.998
20
-499.249
0
VERTEX
8
L6D0
10
31.998
20
-499.249
0
VERTEX
8
L6D0
10
31.998
20
500.751
0
VERTEX
8
L6D0
10
25.998
20
500.751
0
VERTEX
8
L6D0
10
25.998
20
-499.249
0
VERTEX
8
L6D0
10
23.998
20
-499.249
0
VERTEX
8
L6D0
10
23.998
20
500.751
0
VERTEX
8
L6D0
10
17.998
20
500.751
0
VERTEX
8
L6D0
10
17.998
20
-499.249
0
VERTEX
8
L6D0
10
15.998
20
-499.249
0
VERTEX
8
L6D0
10
15.998
20
500.751
0
VERTEX
8
L6D0
10
9.998
20
500.751
0
VERTEX
8
L6D0
10
9.998
20
-499.249
0
VERTEX
8
L6D0
10
7.998
20
-499.249
0
VERTEX
8
L6D0
10
7.998
20
500.751
0
VERTEX
8
L6D0
10
1.998
20
500.751
0
VERTEX
8
L6D0
10
1.998
20
-499.249
0
VERTEX
8
L6D0
10
-0.002
20
-499.249
0
VERTEX
8
L6D0
10
-0.002
20
500.751
0
VERTEX
8
L6D0
10
-6.002
20
500.751
0
VERTEX
8
L6D0
10
-6.002
20
-499.249
0
VERTEX
8
L6D0
10
-8.002
20
-499.249
0
VERTEX
8
L6D0
10
-8.002
20
500.751
0
VERTEX
8
L6D0
10
-14.002
20
500.751
0
VERTEX
8
L6D0
10
-14.002
20
-499.249
0
VERTEX
8
L6D0
10
-16.002
20
-499.249
0
VERTEX
8
L6D0
10
-16.002
20
500.751
0
VERTEX
8
L6D0
10
-22.002
20
500.751
0
VERTEX
8
L6D0
10
-22.002
20
-499.249
0
VERTEX
8
L6D0
10
-24.002
20
-499.249
0
VERTEX
8
L6D0
10
-24.002
20
500.751
0
VERTEX
8
L6D0
10
-30.002
20
500.751
0
VERTEX
8
L6D0
10
-30.002
20
-499.249
0
VERTEX
8
L6D0
10
-32.002
20
-499.249
0
VERTEX
8
L6D0
10
-32.002
20
500.751
0
VERTEX
8
L6D0
10
-38.002
20
500.751
0
VERTEX
8
L6D0
10
-38.002
20
-499.249
0
VERTEX
8
L6D0
10
-40.002
20
-499.249
0
VERTEX
8
L6D0
10
-40.002
20
500.751
0
VERTEX
8
L6D0
10
-46.002
20
500.751
0
VERTEX
8
L6D0
10
-46.002
20
-499.249
0
VERTEX
8
L6D0
10
-48.002
20
-499.249
0
VERTEX
8
L6D0
10
-48.002
20
500.751
0
VERTEX
8
L6D0
10
-54.002
20
500.751
0
VERTEX
8
L6D0
10
-54.002
20
-499.249
0
VERTEX
8
L6D0
10
-56.002
20
-499.249
0
VERTEX
8
L6D0
10
-56.002
20
500.751
0
VERTEX
8
L6D0
10
-62.002
20
500.751
0
VERTEX
8
L6D0
10
-62.002
20
-499.249
0
VERTEX
8
L6D0
10
-64.002
20
-499.249
0
VERTEX
8
L6D0
10
-64.002
20
500.751
0
VERTEX
8
L6D0
10
-70.002
20
500.751
0
VERTEX
8
L6D0
10
-70.002
20
-499.249
0
VERTEX
8
L6D0
10
-72.002
20
-499.249
0
VERTEX
8
L6D0
10
-72.002
20
500.751
0
VERTEX
8
L6D0
10
-78.002
20
500.751
0
VERTEX
8
L6D0
10
-78.002
20
-499.249
0
VERTEX
8
L6D0
10
-80.002
20
-499.249
0
VERTEX
8
L6D0
10
-80.002
20
500.751
0
VERTEX
8
L6D0
10
-86.002
20
500.751
0
VERTEX
8
L6D0
10
-86.002
20
-499.249
0
VERTEX
8
L6D0
10
-88.002
20
-499.249
0
VERTEX
8
L6D0
10
-88.002
20
500.751
0
VERTEX
8
L6D0
10
-94.002
20
500.751
0
VERTEX
8
L6D0
10
-94.002
20
-499.249
0
VERTEX
8
L6D0
10
-96.002
20
-499.249
0
VERTEX
8
L6D0
10
-96.002
20
500.751
0
VERTEX
8
L6D0
10
-102.002
20
500.751
0
VERTEX
8
L6D0
10
-102.002
20
-499.249
0
VERTEX
8
L6D0
10
-104.002
20
-499.249
0
VERTEX
8
L6D0
10
-104.002
20
500.751
0
VERTEX
8
L6D0
10
-110.002
20
500.751
0
VERTEX
8
L6D0
10
-110.002
20
-499.249
0
VERTEX
8
L6D0
10
-112.002
20
-499.249
0
VERTEX
8
L6D0
10
-112.002
20
500.751
0
VERTEX
8
L6D0
10
-118.002
20
500.751
0
VERTEX
8
L6D0
10
-118.002
20
-499.249
0
VERTEX
8
L6D0
10
-120.002
20
-499.249
0
VERTEX
8
L6D0
10
-120.002
20
500.751
0
VERTEX
8
L6D0
10
-126.002
20
500.751
0
VERTEX
8
L6D0
10
-126.002
20
-499.249
0
VERTEX
8
L6D0
10
-128.002
20
-499.249
0
VERTEX
8
L6D0
10
-128.002
20
500.751
0
VERTEX
8
L6D0
10
-134.002
20
500.751
0
VERTEX
8
L6D0
10
-134.002
20
-499.249
0
VERTEX
8
L6D0
10
-136.002
20
-499.249
0
VERTEX
8
L6D0
10
-136.002
20
500.751
0
VERTEX
8
L6D0
10
-142.002
20
500.751
0
VERTEX
8
L6D0
10
-142.002
20
-499.249
0
VERTEX
8
L6D0
10
-144.002
20
-499.249
0
VERTEX
8
L6D0
10
-144.002
20
500.751
0
VERTEX
8
L6D0
10
-150.002
20
500.751
0
VERTEX
8
L6D0
10
-150.002
20
-499.249
0
VERTEX
8
L6D0
10
-152.002
20
-499.249
0
VERTEX
8
L6D0
10
-152.002
20
500.751
0
VERTEX
8
L6D0
10
-158.002
20
500.751
0
VERTEX
8
L6D0
10
-158.002
20
-499.249
0
VERTEX
8
L6D0
10
-160.002
20
-499.249
0
VERTEX
8
L6D0
10
-160.002
20
500.751
0
VERTEX
8
L6D0
10
-166.002
20
500.751
0
VERTEX
8
L6D0
10
-166.002
20
-499.249
0
VERTEX
8
L6D0
10
-168.002
20
-499.249
0
VERTEX
8
L6D0
10
-168.002
20
500.751
0
VERTEX
8
L6D0
10
-174.002
20
500.751
0
VERTEX
8
L6D0
10
-174.002
20
-499.249
0
VERTEX
8
L6D0
10
-176.002
20
-499.249
0
VERTEX
8
L6D0
10
-176.002
20
500.751
0
VERTEX
8
L6D0
10
-182.002
20
500.751
0
VERTEX
8
L6D0
10
-182.002
20
-499.249
0
VERTEX
8
L6D0
10
-184.002
20
-499.249
0
VERTEX
8
L6D0
10
-184.002
20
500.751
0
VERTEX
8
L6D0
10
-190.002
20
500.751
0
VERTEX
8
L6D0
10
-190.002
20
-499.249
0
VERTEX
8
L6D0
10
-192.002
20
-499.249
0
VERTEX
8
L6D0
10
-192.002
20
500.751
0
VERTEX
8
L6D0
10
-198.002
20
500.751
0
VERTEX
8
L6D0
10
-198.002
20
-499.249
0
VERTEX
8
L6D0
10
-200.002
20
-499.249
0
VERTEX
8
L6D0
10
-200.002
20
500.751
0
VERTEX
8
L6D0
10
-206.002
20
500.751
0
VERTEX
8
L6D0
10
-206.002
20
-499.249
0
VERTEX
8
L6D0
10
-208.002
20
-499.249
0
VERTEX
8
L6D0
10
-208.002
20
500.751
0
VERTEX
8
L6D0
10
-214.002
20
500.751
0
VERTEX
8
L6D0
10
-214.002
20
-499.249
0
VERTEX
8
L6D0
10
-216.002
20
-499.249
0
VERTEX
8
L6D0
10
-216.002
20
500.751
0
VERTEX
8
L6D0
10
-222.002
20
500.751
0
VERTEX
8
L6D0
10
-222.002
20
-499.249
0
VERTEX
8
L6D0
10
-224.002
20
-499.249
0
VERTEX
8
L6D0
10
-224.002
20
500.751
0
VERTEX
8
L6D0
10
-230.002
20
500.751
0
VERTEX
8
L6D0
10
-230.002
20
-499.249
0
VERTEX
8
L6D0
10
-232.002
20
-499.249
0
VERTEX
8
L6D0
10
-232.002
20
500.751
0
VERTEX
8
L6D0
10
-238.002
20
500.751
0
VERTEX
8
L6D0
10
-238.002
20
-499.249
0
VERTEX
8
L6D0
10
-240.002
20
-499.249
0
VERTEX
8
L6D0
10
-240.002
20
500.751
0
VERTEX
8
L6D0
10
-246.002
20
500.751
0
VERTEX
8
L6D0
10
-246.002
20
-499.249
0
VERTEX
8
L6D0
10
-248.002
20
-499.249
0
VERTEX
8
L6D0
10
-248.002
20
500.751
0
VERTEX
8
L6D0
10
-254.002
20
500.751
0
VERTEX
8
L6D0
10
-254.002
20
-499.249
0
VERTEX
8
L6D0
10
-256.002
20
-499.249
0
VERTEX
8
L6D0
10
-256.002
20
500.751
0
VERTEX
8
L6D0
10
-262.002
20
500.751
0
VERTEX
8
L6D0
10
-262.002
20
-499.249
0
VERTEX
8
L6D0
10
-264.002
20
-499.249
0
VERTEX
8
L6D0
10
-264.002
20
500.751
0
VERTEX
8
L6D0
10
-270.002
20
500.751
0
VERTEX
8
L6D0
10
-270.002
20
-499.249
0
VERTEX
8
L6D0
10
-272.002
20
-499.249
0
VERTEX
8
L6D0
10
-272.002
20
500.751
0
VERTEX
8
L6D0
10
-278.002
20
500.751
0
VERTEX
8
L6D0
10
-278.002
20
-499.249
0
VERTEX
8
L6D0
10
-280.002
20
-499.249
0
VERTEX
8
L6D0
10
-280.002
20
500.751
0
VERTEX
8
L6D0
10
-286.002
20
500.751
0
VERTEX
8
L6D0
10
-286.002
20
-499.249
0
VERTEX
8
L6D0
10
-288.002
20
-499.249
0
VERTEX
8
L6D0
10
-288.002
20
500.751
0
VERTEX
8
L6D0
10
-294.002
20
500.751
0
VERTEX
8
L6D0
10
-294.002
20
-499.249
0
VERTEX
8
L6D0
10
-296.002
20
-499.249
0
VERTEX
8
L6D0
10
-296.002
20
500.751
0
VERTEX
8
L6D0
10
-302.002
20
500.751
0
VERTEX
8
L6D0
10
-302.002
20
-499.249
0
VERTEX
8
L6D0
10
-304.002
20
-499.249
0
VERTEX
8
L6D0
10
-304.002
20
500.751
0
VERTEX
8
L6D0
10
-310.002
20
500.751
0
VERTEX
8
L6D0
10
-310.002
20
-499.249
0
VERTEX
8
L6D0
10
-312.002
20
-499.249
0
VERTEX
8
L6D0
10
-312.002
20
500.751
0
VERTEX
8
L6D0
10
-318.002
20
500.751
0
VERTEX
8
L6D0
10
-318.002
20
-499.249
0
VERTEX
8
L6D0
10
-320.002
20
-499.249
0
VERTEX
8
L6D0
10
-320.002
20
500.751
0
VERTEX
8
L6D0
10
-326.002
20
500.751
0
VERTEX
8
L6D0
10
-326.002
20
-499.249
0
VERTEX
8
L6D0
10
-328.002
20
-499.249
0
VERTEX
8
L6D0
10
-328.002
20
500.751
0
VERTEX
8
L6D0
10
-334.002
20
500.751
0
VERTEX
8
L6D0
10
-334.002
20
-499.249
0
VERTEX
8
L6D0
10
-336.002
20
-499.249
0
VERTEX
8
L6D0
10
-336.002
20
500.751
0
VERTEX
8
L6D0
10
-342.002
20
500.751
0
VERTEX
8
L6D0
10
-342.002
20
-499.249
0
VERTEX
8
L6D0
10
-344.002
20
-499.249
0
VERTEX
8
L6D0
10
-344.002
20
500.751
0
VERTEX
8
L6D0
10
-350.002
20
500.751
0
VERTEX
8
L6D0
10
-350.002
20
-499.249
0
VERTEX
8
L6D0
10
-352.002
20
-499.249
0
VERTEX
8
L6D0
10
-352.002
20
500.751
0
VERTEX
8
L6D0
10
-358.002
20
500.751
0
VERTEX
8
L6D0
10
-358.002
20
-499.249
0
VERTEX
8
L6D0
10
-360.002
20
-499.249
0
VERTEX
8
L6D0
10
-360.002
20
500.751
0
VERTEX
8
L6D0
10
-366.002
20
500.751
0
VERTEX
8
L6D0
10
-366.002
20
-499.249
0
VERTEX
8
L6D0
10
-368.002
20
-499.249
0
VERTEX
8
L6D0
10
-368.002
20
500.751
0
VERTEX
8
L6D0
10
-374.002
20
500.751
0
VERTEX
8
L6D0
10
-374.002
20
-499.249
0
VERTEX
8
L6D0
10
-376.002
20
-499.249
0
VERTEX
8
L6D0
10
-376.002
20
500.751
0
VERTEX
8
L6D0
10
-382.002
20
500.751
0
VERTEX
8
L6D0
10
-382.002
20
-499.249
0
VERTEX
8
L6D0
10
-384.002
20
-499.249
0
VERTEX
8
L6D0
10
-384.002
20
500.751
0
VERTEX
8
L6D0
10
-390.002
20
500.751
0
VERTEX
8
L6D0
10
-390.002
20
-499.249
0
VERTEX
8
L6D0
10
-392.002
20
-499.249
0
VERTEX
8
L6D0
10
-392.002
20
500.751
0
VERTEX
8
L6D0
10
-398.002
20
500.751
0
VERTEX
8
L6D0
10
-398.002
20
-499.249
0
VERTEX
8
L6D0
10
-400.002
20
-499.249
0
VERTEX
8
L6D0
10
-400.002
20
500.751
0
VERTEX
8
L6D0
10
-406.002
20
500.751
0
VERTEX
8
L6D0
10
-406.002
20
-499.249
0
VERTEX
8
L6D0
10
-408.002
20
-499.249
0
VERTEX
8
L6D0
10
-408.002
20
500.751
0
VERTEX
8
L6D0
10
-414.002
20
500.751
0
VERTEX
8
L6D0
10
-414.002
20
-499.249
0
VERTEX
8
L6D0
10
-416.002
20
-499.249
0
VERTEX
8
L6D0
10
-416.002
20
500.751
0
VERTEX
8
L6D0
10
-422.002
20
500.751
0
VERTEX
8
L6D0
10
-422.002
20
-499.249
0
VERTEX
8
L6D0
10
-424.002
20
-499.249
0
VERTEX
8
L6D0
10
-424.002
20
500.751
0
VERTEX
8
L6D0
10
-430.002
20
500.751
0
VERTEX
8
L6D0
10
-430.002
20
-499.249
0
VERTEX
8
L6D0
10
-432.002
20
-499.249
0
VERTEX
8
L6D0
10
-432.002
20
500.751
0
VERTEX
8
L6D0
10
-438.002
20
500.751
0
VERTEX
8
L6D0
10
-438.002
20
-499.249
0
VERTEX
8
L6D0
10
-440.002
20
-499.249
0
VERTEX
8
L6D0
10
-440.002
20
500.751
0
VERTEX
8
L6D0
10
-446.002
20
500.751
0
VERTEX
8
L6D0
10
-446.002
20
-499.249
0
VERTEX
8
L6D0
10
-448.002
20
-499.249
0
VERTEX
8
L6D0
10
-448.002
20
500.751
0
VERTEX
8
L6D0
10
-454.002
20
500.751
0
VERTEX
8
L6D0
10
-454.002
20
-499.249
0
VERTEX
8
L6D0
10
-456.002
20
-499.249
0
VERTEX
8
L6D0
10
-456.002
20
500.751
0
VERTEX
8
L6D0
10
-462.002
20
500.751
0
VERTEX
8
L6D0
10
-462.002
20
-499.249
0
VERTEX
8
L6D0
10
-464.002
20
-499.249
0
VERTEX
8
L6D0
10
-464.002
20
500.751
0
VERTEX
8
L6D0
10
-470.002
20
500.751
0
VERTEX
8
L6D0
10
-470.002
20
-499.249
0
VERTEX
8
L6D0
10
-472.002
20
-499.249
0
VERTEX
8
L6D0
10
-472.002
20
500.751
0
VERTEX
8
L6D0
10
-478.002
20
500.751
0
VERTEX
8
L6D0
10
-478.002
20
-499.249
0
VERTEX
8
L6D0
10
-480.002
20
-499.249
0
VERTEX
8
L6D0
10
-480.002
20
500.751
0
VERTEX
8
L6D0
10
-486.002
20
500.751
0
VERTEX
8
L6D0
10
-486.002
20
-499.249
0
VERTEX
8
L6D0
10
-488.002
20
-499.249
0
VERTEX
8
L6D0
10
-488.002
20
500.751
0
VERTEX
8
L6D0
10
-494.002
20
500.751
0
VERTEX
8
L6D0
10
-494.002
20
-499.249
0
VERTEX
8
L6D0
10
-496.002
20
-499.249
0
VERTEX
8
L6D0
10
-496.002
20
500.751
0
VERTEX
8
L6D0
10
-502.002
20
500.751
0
VERTEX
8
L6D0
10
-502.002
20
-499.249
0
VERTEX
8
L6D0
10
-504.002
20
-499.249
0
VERTEX
8
L6D0
10
-504.002
20
500.751
0
VERTEX
8
L6D0
10
-510.002
20
500.751
0
VERTEX
8
L6D0
10
-510.002
20
-499.249
0
VERTEX
8
L6D0
10
-512.002
20
-499.249
0
VERTEX
8
L6D0
10
-512.002
20
500.751
0
VERTEX
8
L6D0
10
-518.002
20
500.751
0
VERTEX
8
L6D0
10
-518.002
20
-499.249
0
VERTEX
8
L6D0
10
-520.002
20
-499.249
0
VERTEX
8
L6D0
10
-520.002
20
500.751
0
VERTEX
8
L6D0
10
-526.002
20
500.751
0
VERTEX
8
L6D0
10
-526.002
20
-499.249
0
VERTEX
8
L6D0
10
-528.002
20
-499.249
0
VERTEX
8
L6D0
10
-528.002
20
500.751
0
VERTEX
8
L6D0
10
-534.002
20
500.751
0
VERTEX
8
L6D0
10
-534.002
20
-499.249
0
VERTEX
8
L6D0
10
-536.002
20
-499.249
0
VERTEX
8
L6D0
10
-536.002
20
500.751
0
VERTEX
8
L6D0
10
-542.002
20
500.751
0
VERTEX
8
L6D0
10
-542.002
20
-499.249
0
VERTEX
8
L6D0
10
-544.002
20
-499.249
0
VERTEX
8
L6D0
10
-544.002
20
500.751
0
VERTEX
8
L6D0
10
-550.002
20
500.751
0
VERTEX
8
L6D0
10
-550.002
20
-499.249
0
VERTEX
8
L6D0
10
-552.002
20
-499.249
0
VERTEX
8
L6D0
10
-552.002
20
500.751
0
VERTEX
8
L6D0
10
-558.002
20
500.751
0
VERTEX
8
L6D0
10
-558.002
20
-499.249
0
VERTEX
8
L6D0
10
-560.002
20
-499.249
0
VERTEX
8
L6D0
10
-560.002
20
500.751
0
VERTEX
8
L6D0
10
-566.002
20
500.751
0
VERTEX
8
L6D0
10
-566.002
20
-499.249
0
VERTEX
8
L6D0
10
-568.002
20
-499.249
0
VERTEX
8
L6D0
10
-568.002
20
500.751
0
VERTEX
8
L6D0
10
-574.002
20
500.751
0
VERTEX
8
L6D0
10
-574.002
20
-499.249
0
VERTEX
8
L6D0
10
-576.002
20
-499.249
0
VERTEX
8
L6D0
10
-576.002
20
500.751
0
VERTEX
8
L6D0
10
-582.002
20
500.751
0
VERTEX
8
L6D0
10
-582.002
20
-499.249
0
VERTEX
8
L6D0
10
-584.002
20
-499.249
0
VERTEX
8
L6D0
10
-584.002
20
500.751
0
VERTEX
8
L6D0
10
-590.002
20
500.751
0
VERTEX
8
L6D0
10
-590.002
20
-499.249
0
VERTEX
8
L6D0
10
-592.002
20
-499.249
0
VERTEX
8
L6D0
10
-592.002
20
500.751
0
VERTEX
8
L6D0
10
-598.002
20
500.751
0
VERTEX
8
L6D0
10
-598.002
20
-499.249
0
VERTEX
8
L6D0
10
-600.002
20
-499.249
0
VERTEX
8
L6D0
10
-600.002
20
500.751
0
VERTEX
8
L6D0
10
-606.002
20
500.751
0
VERTEX
8
L6D0
10
-606.002
20
-499.249
0
VERTEX
8
L6D0
10
-608.002
20
-499.249
0
VERTEX
8
L6D0
10
-608.002
20
500.751
0
VERTEX
8
L6D0
10
-614.002
20
500.751
0
VERTEX
8
L6D0
10
-614.002
20
-499.249
0
VERTEX
8
L6D0
10
-616.002
20
-499.249
0
VERTEX
8
L6D0
10
-616.002
20
500.751
0
VERTEX
8
L6D0
10
-622.002
20
500.751
0
VERTEX
8
L6D0
10
-622.002
20
-499.249
0
VERTEX
8
L6D0
10
-624.002
20
-499.249
0
VERTEX
8
L6D0
10
-624.002
20
500.751
0
VERTEX
8
L6D0
10
-630.002
20
500.751
0
VERTEX
8
L6D0
10
-630.002
20
-499.249
0
VERTEX
8
L6D0
10
-632.002
20
-499.249
0
VERTEX
8
L6D0
10
-632.002
20
500.751
0
VERTEX
8
L6D0
10
-638.002
20
500.751
0
VERTEX
8
L6D0
10
-638.002
20
-499.249
0
VERTEX
8
L6D0
10
-640.002
20
-499.249
0
VERTEX
8
L6D0
10
-640.002
20
500.751
0
VERTEX
8
L6D0
10
-646.002
20
500.751
0
VERTEX
8
L6D0
10
-646.002
20
-499.249
0
VERTEX
8
L6D0
10
-648.002
20
-499.249
0
VERTEX
8
L6D0
10
-648.002
20
500.751
0
VERTEX
8
L6D0
10
-654.002
20
500.751
0
VERTEX
8
L6D0
10
-654.002
20
-499.249
0
VERTEX
8
L6D0
10
-656.002
20
-499.249
0
VERTEX
8
L6D0
10
-656.002
20
500.751
0
VERTEX
8
L6D0
10
-662.002
20
500.751
0
VERTEX
8
L6D0
10
-662.002
20
-499.249
0
VERTEX
8
L6D0
10
-664.002
20
-499.249
0
VERTEX
8
L6D0
10
-664.002
20
500.751
0
VERTEX
8
L6D0
10
-670.002
20
500.751
0
VERTEX
8
L6D0
10
-670.002
20
-499.249
0
VERTEX
8
L6D0
10
-672.002
20
-499.249
0
VERTEX
8
L6D0
10
-672.002
20
500.751
0
VERTEX
8
L6D0
10
-678.002
20
500.751
0
VERTEX
8
L6D0
10
-678.002
20
-499.249
0
VERTEX
8
L6D0
10
-680.002
20
-499.249
0
VERTEX
8
L6D0
10
-680.002
20
500.751
0
VERTEX
8
L6D0
10
-686.002
20
500.751
0
VERTEX
8
L6D0
10
-686.002
20
-499.249
0
VERTEX
8
L6D0
10
-688.002
20
-499.249
0
VERTEX
8
L6D0
10
-688.002
20
500.751
0
VERTEX
8
L6D0
10
-694.002
20
500.751
0
VERTEX
8
L6D0
10
-694.002
20
-499.249
0
VERTEX
8
L6D0
10
-696.002
20
-499.249
0
VERTEX
8
L6D0
10
-696.002
20
500.751
0
VERTEX
8
L6D0
10
-702.002
20
500.751
0
VERTEX
8
L6D0
10
-702.002
20
-499.249
0
VERTEX
8
L6D0
10
-704.002
20
-499.249
0
VERTEX
8
L6D0
10
-704.002
20
500.751
0
VERTEX
8
L6D0
10
-710.002
20
500.751
0
VERTEX
8
L6D0
10
-710.002
20
-499.249
0
VERTEX
8
L6D0
10
-712.002
20
-499.249
0
VERTEX
8
L6D0
10
-712.002
20
500.751
0
VERTEX
8
L6D0
10
-718.002
20
500.751
0
VERTEX
8
L6D0
10
-718.002
20
-499.249
0
VERTEX
8
L6D0
10
-720.002
20
-499.249
0
VERTEX
8
L6D0
10
-720.002
20
500.751
0
VERTEX
8
L6D0
10
-726.002
20
500.751
0
VERTEX
8
L6D0
10
-726.002
20
-499.249
0
VERTEX
8
L6D0
10
-728.002
20
-499.249
0
VERTEX
8
L6D0
10
-728.002
20
500.751
0
VERTEX
8
L6D0
10
-734.002
20
500.751
0
VERTEX
8
L6D0
10
-734.002
20
-499.249
0
VERTEX
8
L6D0
10
-736.002
20
-499.249
0
VERTEX
8
L6D0
10
-736.002
20
500.751
0
VERTEX
8
L6D0
10
-742.002
20
500.751
0
VERTEX
8
L6D0
10
-742.002
20
-499.249
0
VERTEX
8
L6D0
10
-744.002
20
-499.249
0
VERTEX
8
L6D0
10
-744.002
20
500.751
0
VERTEX
8
L6D0
10
-750.002
20
500.751
0
VERTEX
8
L6D0
10
-750.002
20
-499.249
0
VERTEX
8
L6D0
10
-752.002
20
-499.249
0
VERTEX
8
L6D0
10
-752.002
20
500.751
0
VERTEX
8
L6D0
10
-758.002
20
500.751
0
VERTEX
8
L6D0
10
-758.002
20
-499.249
0
VERTEX
8
L6D0
10
-760.002
20
-499.249
0
VERTEX
8
L6D0
10
-760.002
20
500.751
0
VERTEX
8
L6D0
10
-766.002
20
500.751
0
VERTEX
8
L6D0
10
-766.002
20
-499.249
0
VERTEX
8
L6D0
10
-768.002
20
-499.249
0
VERTEX
8
L6D0
10
-768.002
20
500.751
0
VERTEX
8
L6D0
10
-774.002
20
500.751
0
VERTEX
8
L6D0
10
-774.002
20
-499.249
0
VERTEX
8
L6D0
10
-776.002
20
-499.249
0
VERTEX
8
L6D0
10
-776.002
20
500.751
0
VERTEX
8
L6D0
10
-782.002
20
500.751
0
VERTEX
8
L6D0
10
-782.002
20
-499.249
0
VERTEX
8
L6D0
10
-784.002
20
-499.249
0
VERTEX
8
L6D0
10
-784.002
20
500.751
0
VERTEX
8
L6D0
10
-790.002
20
500.751
0
VERTEX
8
L6D0
10
-790.002
20
-499.249
0
VERTEX
8
L6D0
10
-792.002
20
-499.249
0
VERTEX
8
L6D0
10
-792.002
20
500.751
0
VERTEX
8
L6D0
10
-798.002
20
500.751
0
VERTEX
8
L6D0
10
-798.002
20
-499.249
0
VERTEX
8
L6D0
10
-800.002
20
-499.249
0
VERTEX
8
L6D0
10
-800.002
20
500.751
0
VERTEX
8
L6D0
10
-806.002
20
500.751
0
VERTEX
8
L6D0
10
-806.002
20
-499.249
0
VERTEX
8
L6D0
10
-808.002
20
-499.249
0
VERTEX
8
L6D0
10
-808.002
20
500.751
0
VERTEX
8
L6D0
10
-814.002
20
500.751
0
VERTEX
8
L6D0
10
-814.002
20
-499.249
0
VERTEX
8
L6D0
10
-816.002
20
-499.249
0
VERTEX
8
L6D0
10
-816.002
20
500.751
0
VERTEX
8
L6D0
10
-822.002
20
500.751
0
VERTEX
8
L6D0
10
-822.002
20
-499.249
0
VERTEX
8
L6D0
10
-824.002
20
-499.249
0
VERTEX
8
L6D0
10
-824.002
20
500.751
0
VERTEX
8
L6D0
10
-830.002
20
500.751
0
VERTEX
8
L6D0
10
-830.002
20
-499.249
0
VERTEX
8
L6D0
10
-832.002
20
-499.249
0
VERTEX
8
L6D0
10
-832.002
20
500.751
0
VERTEX
8
L6D0
10
-838.002
20
500.751
0
VERTEX
8
L6D0
10
-838.002
20
-499.249
0
VERTEX
8
L6D0
10
-840.002
20
-499.249
0
VERTEX
8
L6D0
10
-840.002
20
500.751
0
VERTEX
8
L6D0
10
-846.002
20
500.751
0
VERTEX
8
L6D0
10
-846.002
20
-499.249
0
VERTEX
8
L6D0
10
-848.002
20
-499.249
0
VERTEX
8
L6D0
10
-848.002
20
500.751
0
VERTEX
8
L6D0
10
-854.002
20
500.751
0
VERTEX
8
L6D0
10
-854.002
20
-499.249
0
VERTEX
8
L6D0
10
-856.002
20
-499.249
0
VERTEX
8
L6D0
10
-856.002
20
500.751
0
VERTEX
8
L6D0
10
-862.002
20
500.751
0
VERTEX
8
L6D0
10
-862.002
20
-499.249
0
VERTEX
8
L6D0
10
-864.002
20
-499.249
0
VERTEX
8
L6D0
10
-864.002
20
500.751
0
VERTEX
8
L6D0
10
-870.002
20
500.751
0
VERTEX
8
L6D0
10
-870.002
20
-499.249
0
VERTEX
8
L6D0
10
-872.002
20
-499.249
0
VERTEX
8
L6D0
10
-872.002
20
500.751
0
VERTEX
8
L6D0
10
-878.002
20
500.751
0
VERTEX
8
L6D0
10
-878.002
20
-499.249
0
VERTEX
8
L6D0
10
-880.002
20
-499.249
0
VERTEX
8
L6D0
10
-880.002
20
500.751
0
VERTEX
8
L6D0
10
-886.002
20
500.751
0
VERTEX
8
L6D0
10
-886.002
20
-499.249
0
VERTEX
8
L6D0
10
-888.002
20
-499.249
0
VERTEX
8
L6D0
10
-888.002
20
500.751
0
VERTEX
8
L6D0
10
-894.002
20
500.751
0
VERTEX
8
L6D0
10
-894.002
20
-499.249
0
VERTEX
8
L6D0
10
-896.002
20
-499.249
0
VERTEX
8
L6D0
10
-896.002
20
500.751
0
VERTEX
8
L6D0
10
-902.002
20
500.751
0
VERTEX
8
L6D0
10
-902.002
20
-499.249
0
VERTEX
8
L6D0
10
-904.002
20
-499.249
0
VERTEX
8
L6D0
10
-904.002
20
500.751
0
VERTEX
8
L6D0
10
-910.002
20
500.751
0
VERTEX
8
L6D0
10
-910.002
20
-499.249
0
VERTEX
8
L6D0
10
-912.002
20
-499.249
0
VERTEX
8
L6D0
10
-912.002
20
500.751
0
VERTEX
8
L6D0
10
-918.002
20
500.751
0
VERTEX
8
L6D0
10
-918.002
20
-499.249
0
VERTEX
8
L6D0
10
-920.002
20
-499.249
0
VERTEX
8
L6D0
10
-920.002
20
500.751
0
VERTEX
8
L6D0
10
-926.002
20
500.751
0
VERTEX
8
L6D0
10
-926.002
20
-499.249
0
VERTEX
8
L6D0
10
-928.002
20
-499.249
0
VERTEX
8
L6D0
10
-928.002
20
500.751
0
VERTEX
8
L6D0
10
-934.002
20
500.751
0
VERTEX
8
L6D0
10
-934.002
20
-499.249
0
VERTEX
8
L6D0
10
-936.002
20
-499.249
0
VERTEX
8
L6D0
10
-936.002
20
500.751
0
VERTEX
8
L6D0
10
-942.002
20
500.751
0
VERTEX
8
L6D0
10
-942.002
20
-499.249
0
SEQEND
0
POLYLINE
8
L6D0
70
1
40
0
41
0
66
1
0
VERTEX
8
L6D0
10
-228.002
20
-627.249
0
VERTEX
8
L6D0
10
-228.002
20
-602.249
0
VERTEX
8
L6D0
10
-224.002
20
-602.249
0
VERTEX
8
L6D0
10
-224.002
20
-527.249
0
VERTEX
8
L6D0
10
-222.002
20
-527.249
0
VERTEX
8
L6D0
10
-222.002
20
-602.249
0
VERTEX
8
L6D0
10
-216.002
20
-602.249
0
VERTEX
8
L6D0
10
-216.002
20
-527.249
0
VERTEX
8
L6D0
10
-214.002
20
-527.249
0
VERTEX
8
L6D0
10
-214.002
20
-602.249
0
VERTEX
8
L6D0
10
-208.002
20
-602.249
0
VERTEX
8
L6D0
10
-208.002
20
-527.249
0
VERTEX
8
L6D0
10
-206.002
20
-527.249
0
VERTEX
8
L6D0
10
-206.002
20
-602.249
0
VERTEX
8
L6D0
10
-200.002
20
-602.249
0
VERTEX
8
L6D0
10
-200.002
20
-527.249
0
VERTEX
8
L6D0
10
-198.002
20
-527.249
0
VERTEX
8
L6D0
10
-198.002
20
-602.249
0
VERTEX
8
L6D0
10
-192.002
20
-602.249
0
VERTEX
8
L6D0
10
-192.002
20
-527.249
0
VERTEX
8
L6D0
10
-190.002
20
-527.249
0
VERTEX
8
L6D0
10
-190.002
20
-602.249
0
VERTEX
8
L6D0
10
-184.002
20
-602.249
0
VERTEX
8
L6D0
10
-184.002
20
-527.249
0
VERTEX
8
L6D0
10
-182.002
20
-527.249
0
VERTEX
8
L6D0
10
-182.002
20
-602.249
0
VERTEX
8
L6D0
10
-176.002
20
-602.249
0
VERTEX
8
L6D0
10
-176.002
20
-527.249
0
VERTEX
8
L6D0
10
-174.002
20
-527.249
0
VERTEX
8
L6D0
10
-174.002
20
-602.249
0
VERTEX
8
L6D0
10
-168.002
20
-602.249
0
VERTEX
8
L6D0
10
-168.002
20
-527.249
0
VERTEX
8
L6D0
10
-166.002
20
-527.249
0
VERTEX
8
L6D0
10
-166.002
20
-602.249
0
VERTEX
8
L6D0
10
-160.002
20
-602.249
0
VERTEX
8
L6D0
10
-160.002
20
-527.249
0
VERTEX
8
L6D0
10
-158.002
20
-527.249
0
VERTEX
8
L6D0
10
-158.002
20
-602.249
0
VERTEX
8
L6D0
10
-152.002
20
-602.249
0
VERTEX
8
L6D0
10
-152.002
20
-527.249
0
VERTEX
8
L6D0
10
-150.002
20
-527.249
0
VERTEX
8
L6D0
10
-150.002
20
-602.249
0
VERTEX
8
L6D0
10
-144.002
20
-602.249
0
VERTEX
8
L6D0
10
-144.002
20
-527.249
0
VERTEX
8
L6D0
10
-142.002
20
-527.249
0
VERTEX
8
L6D0
10
-142.002
20
-602.249
0
VERTEX
8
L6D0
10
-136.002
20
-602.249
0
VERTEX
8
L6D0
10
-136.002
20
-527.249
0
VERTEX
8
L6D0
10
-134.002
20
-527.249
0
VERTEX
8
L6D0
10
-134.002
20
-602.249
0
VERTEX
8
L6D0
10
-128.002
20
-602.249
0
VERTEX
8
L6D0
10
-128.002
20
-527.249
0
VERTEX
8
L6D0
10
-126.002
20
-527.249
0
VERTEX
8
L6D0
10
-126.002
20
-602.249
0
VERTEX
8
L6D0
10
-120.002
20
-602.249
0
VERTEX
8
L6D0
10
-120.002
20
-527.249
0
VERTEX
8
L6D0
10
-118.002
20
-527.249
0
VERTEX
8
L6D0
10
-118.002
20
-602.249
0
VERTEX
8
L6D0
10
-112.002
20
-602.249
0
VERTEX
8
L6D0
10
-112.002
20
-527.249
0
VERTEX
8
L6D0
10
-110.002
20
-527.249
0
VERTEX
8
L6D0
10
-110.002
20
-602.249
0
VERTEX
8
L6D0
10
-104.002
20
-602.249
0
VERTEX
8
L6D0
10
-104.002
20
-527.249
0
VERTEX
8
L6D0
10
-102.002
20
-527.249
0
VERTEX
8
L6D0
10
-102.002
20
-602.249
0
VERTEX
8
L6D0
10
-96.002
20
-602.249
0
VERTEX
8
L6D0
10
-96.002
20
-527.249
0
VERTEX
8
L6D0
10
-94.002
20
-527.249
0
VERTEX
8
L6D0
10
-94.002
20
-602.249
0
VERTEX
8
L6D0
10
-88.002
20
-602.249
0
VERTEX
8
L6D0
10
-88.002
20
-527.249
0
VERTEX
8
L6D0
10
-86.002
20
-527.249
0
VERTEX
8
L6D0
10
-86.002
20
-602.249
0
VERTEX
8
L6D0
10
-80.002
20
-602.249
0
VERTEX
8
L6D0
10
-80.002
20
-527.249
0
VERTEX
8
L6D0
10
-78.002
20
-527.249
0
VERTEX
8
L6D0
10
-78.002
20
-602.249
0
VERTEX
8
L6D0
10
-72.002
20
-602.249
0
VERTEX
8
L6D0
10
-72.002
20
-527.249
0
VERTEX
8
L6D0
10
-70.002
20
-527.249
0
VERTEX
8
L6D0
10
-70.002
20
-602.249
0
VERTEX
8
L6D0
10
-64.002
20
-602.249
0
VERTEX
8
L6D0
10
-64.002
20
-527.249
0
VERTEX
8
L6D0
10
-62.002
20
-527.249
0
VERTEX
8
L6D0
10
-62.002
20
-602.249
0
VERTEX
8
L6D0
10
-56.002
20
-602.249
0
VERTEX
8
L6D0
10
-56.002
20
-527.249
0
VERTEX
8
L6D0
10
-54.002
20
-527.249
0
VERTEX
8
L6D0
10
-54.002
20
-602.249
0
VERTEX
8
L6D0
10
-48.002
20
-602.249
0
VERTEX
8
L6D0
10
-48.002
20
-527.249
0
VERTEX
8
L6D0
10
-46.002
20
-527.249
0
VERTEX
8
L6D0
10
-46.002
20
-602.249
0
VERTEX
8
L6D0
10
-40.002
20
-602.249
0
VERTEX
8
L6D0
10
-40.002
20
-527.249
0
VERTEX
8
L6D0
10
-38.002
20
-527.249
0
VERTEX
8
L6D0
10
-38.002
20
-602.249
0
VERTEX
8
L6D0
10
-32.002
20
-602.249
0
VERTEX
8
L6D0
10
-32.002
20
-527.249
0
VERTEX
8
L6D0
10
-30.002
20
-527.249
0
VERTEX
8
L6D0
10
-30.002
20
-602.249
0
VERTEX
8
L6D0
10
-24.002
20
-602.249
0
VERTEX
8
L6D0
10
-24.002
20
-527.249
0
VERTEX
8
L6D0
10
-22.002
20
-527.249
0
VERTEX
8
L6D0
10
-22.002
20
-602.249
0
VERTEX
8
L6D0
10
-16.002
20
-602.249
0
VERTEX
8
L6D0
10
-16.002
20
-527.249
0
VERTEX
8
L6D0
10
-14.002
20
-527.249
0
VERTEX
8
L6D0
10
-14.002
20
-602.249
0
VERTEX
8
L6D0
10
-8.002
20
-602.249
0
VERTEX
8
L6D0
10
-8.002
20
-527.249
0
VERTEX
8
L6D0
10
-6.002
20
-527.249
0
VERTEX
8
L6D0
10
-6.002
20
-602.249
0
VERTEX
8
L6D0
10
-0.002
20
-602.249
0
VERTEX
8
L6D0
10
-0.002
20
-527.249
0
VERTEX
8
L6D0
10
1.998
20
-527.249
0
VERTEX
8
L6D0
10
1.998
20
-602.249
0
VERTEX
8
L6D0
10
7.998
20
-602.249
0
VERTEX
8
L6D0
10
7.998
20
-527.249
0
VERTEX
8
L6D0
10
9.998
20
-527.249
0
VERTEX
8
L6D0
10
9.998
20
-602.249
0
VERTEX
8
L6D0
10
15.998
20
-602.249
0
VERTEX
8
L6D0
10
15.998
20
-527.249
0
VERTEX
8
L6D0
10
17.998
20
-527.249
0
VERTEX
8
L6D0
10
17.998
20
-602.249
0
VERTEX
8
L6D0
10
23.998
20
-602.249
0
VERTEX
8
L6D0
10
23.998
20
-527.249
0
VERTEX
8
L6D0
10
25.998
20
-527.249
0
VERTEX
8
L6D0
10
25.998
20
-602.249
0
VERTEX
8
L6D0
10
31.998
20
-602.249
0
VERTEX
8
L6D0
10
31.998
20
-527.249
0
VERTEX
8
L6D0
10
33.998
20
-527.249
0
VERTEX
8
L6D0
10
33.998
20
-602.249
0
VERTEX
8
L6D0
10
39.998
20
-602.249
0
VERTEX
8
L6D0
10
39.998
20
-527.249
0
VERTEX
8
L6D0
10
41.998
20
-527.249
0
VERTEX
8
L6D0
10
41.998
20
-602.249
0
VERTEX
8
L6D0
10
47.998
20
-602.249
0
VERTEX
8
L6D0
10
47.998
20
-527.249
0
VERTEX
8
L6D0
10
49.998
20
-527.249
0
VERTEX
8
L6D0
10
49.998
20
-602.249
0
VERTEX
8
L6D0
10
55.998
20
-602.249
0
VERTEX
8
L6D0
10
55.998
20
-527.249
0
VERTEX
8
L6D0
10
57.998
20
-527.249
0
VERTEX
8
L6D0
10
57.998
20
-602.249
0
VERTEX
8
L6D0
10
63.998
20
-602.249
0
VERTEX
8
L6D0
10
63.998
20
-527.249
0
VERTEX
8
L6D0
10
65.998
20
-527.249
0
VERTEX
8
L6D0
10
65.998
20
-602.249
0
VERTEX
8
L6D0
10
71.998
20
-602.249
0
VERTEX
8
L6D0
10
71.998
20
-527.249
0
VERTEX
8
L6D0
10
73.998
20
-527.249
0
VERTEX
8
L6D0
10
73.998
20
-602.249
0
VERTEX
8
L6D0
10
79.998
20
-602.249
0
VERTEX
8
L6D0
10
79.998
20
-527.249
0
VERTEX
8
L6D0
10
81.998
20
-527.249
0
VERTEX
8
L6D0
10
81.998
20
-602.249
0
VERTEX
8
L6D0
10
87.998
20
-602.249
0
VERTEX
8
L6D0
10
87.998
20
-527.249
0
VERTEX
8
L6D0
10
89.998
20
-527.249
0
VERTEX
8
L6D0
10
89.998
20
-602.249
0
VERTEX
8
L6D0
10
95.998
20
-602.249
0
VERTEX
8
L6D0
10
95.998
20
-527.249
0
VERTEX
8
L6D0
10
97.998
20
-527.249
0
VERTEX
8
L6D0
10
97.998
20
-602.249
0
VERTEX
8
L6D0
10
103.998
20
-602.249
0
VERTEX
8
L6D0
10
103.998
20
-527.249
0
VERTEX
8
L6D0
10
105.998
20
-527.249
0
VERTEX
8
L6D0
10
105.998
20
-602.249
0
VERTEX
8
L6D0
10
111.998
20
-602.249
0
VERTEX
8
L6D0
10
111.998
20
-527.249
0
VERTEX
8
L6D0
10
113.998
20
-527.249
0
VERTEX
8
L6D0
10
113.998
20
-602.249
0
VERTEX
8
L6D0
10
119.998
20
-602.249
0
VERTEX
8
L6D0
10
119.998
20
-527.249
0
VERTEX
8
L6D0
10
121.998
20
-527.249
0
VERTEX
8
L6D0
10
121.998
20
-602.249
0
VERTEX
8
L6D0
10
127.998
20
-602.249
0
VERTEX
8
L6D0
10
127.998
20
-527.249
0
VERTEX
8
L6D0
10
129.998
20
-527.249
0
VERTEX
8
L6D0
10
129.998
20
-602.249
0
VERTEX
8
L6D0
10
135.998
20
-602.249
0
VERTEX
8
L6D0
10
135.998
20
-527.249
0
VERTEX
8
L6D0
10
137.998
20
-527.249
0
VERTEX
8
L6D0
10
137.998
20
-602.249
0
VERTEX
8
L6D0
10
143.998
20
-602.249
0
VERTEX
8
L6D0
10
143.998
20
-527.249
0
VERTEX
8
L6D0
10
145.998
20
-527.249
0
VERTEX
8
L6D0
10
145.998
20
-602.249
0
VERTEX
8
L6D0
10
151.998
20
-602.249
0
VERTEX
8
L6D0
10
151.998
20
-527.249
0
VERTEX
8
L6D0
10
153.998
20
-527.249
0
VERTEX
8
L6D0
10
153.998
20
-602.249
0
VERTEX
8
L6D0
10
159.998
20
-602.249
0
VERTEX
8
L6D0
10
159.998
20
-527.249
0
VERTEX
8
L6D0
10
161.998
20
-527.249
0
VERTEX
8
L6D0
10
161.998
20
-602.249
0
VERTEX
8
L6D0
10
167.998
20
-602.249
0
VERTEX
8
L6D0
10
167.998
20
-527.249
0
VERTEX
8
L6D0
10
169.998
20
-527.249
0
VERTEX
8
L6D0
10
169.998
20
-602.249
0
VERTEX
8
L6D0
10
175.998
20
-602.249
0
VERTEX
8
L6D0
10
175.998
20
-527.249
0
VERTEX
8
L6D0
10
177.998
20
-527.249
0
VERTEX
8
L6D0
10
177.998
20
-602.249
0
VERTEX
8
L6D0
10
183.998
20
-602.249
0
VERTEX
8
L6D0
10
183.998
20
-527.249
0
VERTEX
8
L6D0
10
185.998
20
-527.249
0
VERTEX
8
L6D0
10
185.998
20
-602.249
0
VERTEX
8
L6D0
10
189.998
20
-602.249
0
VERTEX
8
L6D0
10
189.998
20
-627.249
0
SEQEND
0
POLYLINE
8
L6D0
70
1
40
0
41
0
66
1
0
VERTEX
8
L6D0
10
-224.002
20
527.251
0
VERTEX
8
L6D0
10
-224.002
20
602.251
0
VERTEX
8
L6D0
10
-228.002
20
602.251
0
VERTEX
8
L6D0
10
-228.002
20
627.251
0
VERTEX
8
L6D0
10
189.998
20
627.251
0
VERTEX
8
L6D0
10
189.998
20
602.251
0
VERTEX
8
L6D0
10
185.998
20
602.251
0
VERTEX
8
L6D0
10
185.998
20
527.251
0
VERTEX
8
L6D0
10
183.998
20
527.251
0
VERTEX
8
L6D0
10
183.998
20
602.251
0
VERTEX
8
L6D0
10
177.998
20
602.251
0
VERTEX
8
L6D0
10
177.998
20
527.251
0
VERTEX
8
L6D0
10
175.998
20
527.251
0
VERTEX
8
L6D0
10
175.998
20
602.251
0
VERTEX
8
L6D0
10
169.998
20
602.251
0
VERTEX
8
L6D0
10
169.998
20
527.251
0
VERTEX
8
L6D0
10
167.998
20
527.251
0
VERTEX
8
L6D0
10
167.998
20
602.251
0
VERTEX
8
L6D0
10
161.998
20
602.251
0
VERTEX
8
L6D0
10
161.998
20
527.251
0
VERTEX
8
L6D0
10
159.998
20
527.251
0
VERTEX
8
L6D0
10
159.998
20
602.251
0
VERTEX
8
L6D0
10
153.998
20
602.251
0
VERTEX
8
L6D0
10
153.998
20
527.251
0
VERTEX
8
L6D0
10
151.998
20
527.251
0
VERTEX
8
L6D0
10
151.998
20
602.251
0
VERTEX
8
L6D0
10
145.998
20
602.251
0
VERTEX
8
L6D0
10
145.998
20
527.251
0
VERTEX
8
L6D0
10
143.998
20
527.251
0
VERTEX
8
L6D0
10
143.998
20
602.251
0
VERTEX
8
L6D0
10
137.998
20
602.251
0
VERTEX
8
L6D0
10
137.998
20
527.251
0
VERTEX
8
L6D0
10
135.998
20
527.251
0
VERTEX
8
L6D0
10
135.998
20
602.251
0
VERTEX
8
L6D0
10
129.998
20
602.251
0
VERTEX
8
L6D0
10
129.998
20
527.251
0
VERTEX
8
L6D0
10
127.998
20
527.251
0
VERTEX
8
L6D0
10
127.998
20
602.251
0
VERTEX
8
L6D0
10
121.998
20
602.251
0
VERTEX
8
L6D0
10
121.998
20
527.251
0
VERTEX
8
L6D0
10
119.998
20
527.251
0
VERTEX
8
L6D0
10
119.998
20
602.251
0
VERTEX
8
L6D0
10
113.998
20
602.251
0
VERTEX
8
L6D0
10
113.998
20
527.251
0
VERTEX
8
L6D0
10
111.998
20
527.251
0
VERTEX
8
L6D0
10
111.998
20
602.251
0
VERTEX
8
L6D0
10
105.998
20
602.251
0
VERTEX
8
L6D0
10
105.998
20
527.251
0
VERTEX
8
L6D0
10
103.998
20
527.251
0
VERTEX
8
L6D0
10
103.998
20
602.251
0
VERTEX
8
L6D0
10
97.998
20
602.251
0
VERTEX
8
L6D0
10
97.998
20
527.251
0
VERTEX
8
L6D0
10
95.998
20
527.251
0
VERTEX
8
L6D0
10
95.998
20
602.251
0
VERTEX
8
L6D0
10
89.998
20
602.251
0
VERTEX
8
L6D0
10
89.998
20
527.251
0
VERTEX
8
L6D0
10
87.998
20
527.251
0
VERTEX
8
L6D0
10
87.998
20
602.251
0
VERTEX
8
L6D0
10
81.998
20
602.251
0
VERTEX
8
L6D0
10
81.998
20
527.251
0
VERTEX
8
L6D0
10
79.998
20
527.251
0
VERTEX
8
L6D0
10
79.998
20
602.251
0
VERTEX
8
L6D0
10
73.998
20
602.251
0
VERTEX
8
L6D0
10
73.998
20
527.251
0
VERTEX
8
L6D0
10
71.998
20
527.251
0
VERTEX
8
L6D0
10
71.998
20
602.251
0
VERTEX
8
L6D0
10
65.998
20
602.251
0
VERTEX
8
L6D0
10
65.998
20
527.251
0
VERTEX
8
L6D0
10
63.998
20
527.251
0
VERTEX
8
L6D0
10
63.998
20
602.251
0
VERTEX
8
L6D0
10
57.998
20
602.251
0
VERTEX
8
L6D0
10
57.998
20
527.251
0
VERTEX
8
L6D0
10
55.998
20
527.251
0
VERTEX
8
L6D0
10
55.998
20
602.251
0
VERTEX
8
L6D0
10
49.998
20
602.251
0
VERTEX
8
L6D0
10
49.998
20
527.251
0
VERTEX
8
L6D0
10
47.998
20
527.251
0
VERTEX
8
L6D0
10
47.998
20
602.251
0
VERTEX
8
L6D0
10
41.998
20
602.251
0
VERTEX
8
L6D0
10
41.998
20
527.251
0
VERTEX
8
L6D0
10
39.998
20
527.251
0
VERTEX
8
L6D0
10
39.998
20
602.251
0
VERTEX
8
L6D0
10
33.998
20
602.251
0
VERTEX
8
L6D0
10
33.998
20
527.251
0
VERTEX
8
L6D0
10
31.998
20
527.251
0
VERTEX
8
L6D0
10
31.998
20
602.251
0
VERTEX
8
L6D0
10
25.998
20
602.251
0
VERTEX
8
L6D0
10
25.998
20
527.251
0
VERTEX
8
L6D0
10
23.998
20
527.251
0
VERTEX
8
L6D0
10
23.998
20
602.251
0
VERTEX
8
L6D0
10
17.998
20
602.251
0
VERTEX
8
L6D0
10
17.998
20
527.251
0
VERTEX
8
L6D0
10
15.998
20
527.251
0
VERTEX
8
L6D0
10
15.998
20
602.251
0
VERTEX
8
L6D0
10
9.998
20
602.251
0
VERTEX
8
L6D0
10
9.998
20
527.251
0
VERTEX
8
L6D0
10
7.998
20
527.251
0
VERTEX
8
L6D0
10
7.998
20
602.251
0
VERTEX
8
L6D0
10
1.998
20
602.251
0
VERTEX
8
L6D0
10
1.998
20
527.251
0
VERTEX
8
L6D0
10
-0.002
20
527.251
0
VERTEX
8
L6D0
10
-0.002
20
602.251
0
VERTEX
8
L6D0
10
-6.002
20
602.251
0
VERTEX
8
L6D0
10
-6.002
20
527.251
0
VERTEX
8
L6D0
10
-8.002
20
527.251
0
VERTEX
8
L6D0
10
-8.002
20
602.251
0
VERTEX
8
L6D0
10
-14.002
20
602.251
0
VERTEX
8
L6D0
10
-14.002
20
527.251
0
VERTEX
8
L6D0
10
-16.002
20
527.251
0
VERTEX
8
L6D0
10
-16.002
20
602.251
0
VERTEX
8
L6D0
10
-22.002
20
602.251
0
VERTEX
8
L6D0
10
-22.002
20
527.251
0
VERTEX
8
L6D0
10
-24.002
20
527.251
0
VERTEX
8
L6D0
10
-24.002
20
602.251
0
VERTEX
8
L6D0
10
-30.002
20
602.251
0
VERTEX
8
L6D0
10
-30.002
20
527.251
0
VERTEX
8
L6D0
10
-32.002
20
527.251
0
VERTEX
8
L6D0
10
-32.002
20
602.251
0
VERTEX
8
L6D0
10
-38.002
20
602.251
0
VERTEX
8
L6D0
10
-38.002
20
527.251
0
VERTEX
8
L6D0
10
-40.002
20
527.251
0
VERTEX
8
L6D0
10
-40.002
20
602.251
0
VERTEX
8
L6D0
10
-46.002
20
602.251
0
VERTEX
8
L6D0
10
-46.002
20
527.251
0
VERTEX
8
L6D0
10
-48.002
20
527.251
0
VERTEX
8
L6D0
10
-48.002
20
602.251
0
VERTEX
8
L6D0
10
-54.002
20
602.251
0
VERTEX
8
L6D0
10
-54.002
20
527.251
0
VERTEX
8
L6D0
10
-56.002
20
527.251
0
VERTEX
8
L6D0
10
-56.002
20
602.251
0
VERTEX
8
L6D0
10
-62.002
20
602.251
0
VERTEX
8
L6D0
10
-62.002
20
527.251
0
VERTEX
8
L6D0
10
-64.002
20
527.251
0
VERTEX
8
L6D0
10
-64.002
20
602.251
0
VERTEX
8
L6D0
10
-70.002
20
602.251
0
VERTEX
8
L6D0
10
-70.002
20
527.251
0
VERTEX
8
L6D0
10
-72.002
20
527.251
0
VERTEX
8
L6D0
10
-72.002
20
602.251
0
VERTEX
8
L6D0
10
-78.002
20
602.251
0
VERTEX
8
L6D0
10
-78.002
20
527.251
0
VERTEX
8
L6D0
10
-80.002
20
527.251
0
VERTEX
8
L6D0
10
-80.002
20
602.251
0
VERTEX
8
L6D0
10
-86.002
20
602.251
0
VERTEX
8
L6D0
10
-86.002
20
527.251
0
VERTEX
8
L6D0
10
-88.002
20
527.251
0
VERTEX
8
L6D0
10
-88.002
20
602.251
0
VERTEX
8
L6D0
10
-94.002
20
602.251
0
VERTEX
8
L6D0
10
-94.002
20
527.251
0
VERTEX
8
L6D0
10
-96.002
20
527.251
0
VERTEX
8
L6D0
10
-96.002
20
602.251
0
VERTEX
8
L6D0
10
-102.002
20
602.251
0
VERTEX
8
L6D0
10
-102.002
20
527.251
0
VERTEX
8
L6D0
10
-104.002
20
527.251
0
VERTEX
8
L6D0
10
-104.002
20
602.251
0
VERTEX
8
L6D0
10
-110.002
20
602.251
0
VERTEX
8
L6D0
10
-110.002
20
527.251
0
VERTEX
8
L6D0
10
-112.002
20
527.251
0
VERTEX
8
L6D0
10
-112.002
20
602.251
0
VERTEX
8
L6D0
10
-118.002
20
602.251
0
VERTEX
8
L6D0
10
-118.002
20
527.251
0
VERTEX
8
L6D0
10
-120.002
20
527.251
0
VERTEX
8
L6D0
10
-120.002
20
602.251
0
VERTEX
8
L6D0
10
-126.002
20
602.251
0
VERTEX
8
L6D0
10
-126.002
20
527.251
0
VERTEX
8
L6D0
10
-128.002
20
527.251
0
VERTEX
8
L6D0
10
-128.002
20
602.251
0
VERTEX
8
L6D0
10
-134.002
20
602.251
0
VERTEX
8
L6D0
10
-134.002
20
527.251
0
VERTEX
8
L6D0
10
-136.002
20
527.251
0
VERTEX
8
L6D0
10
-136.002
20
602.251
0
VERTEX
8
L6D0
10
-142.002
20
602.251
0
VERTEX
8
L6D0
10
-142.002
20
527.251
0
VERTEX
8
L6D0
10
-144.002
20
527.251
0
VERTEX
8
L6D0
10
-144.002
20
602.251
0
VERTEX
8
L6D0
10
-150.002
20
602.251
0
VERTEX
8
L6D0
10
-150.002
20
527.251
0
VERTEX
8
L6D0
10
-152.002
20
527.251
0
VERTEX
8
L6D0
10
-152.002
20
602.251
0
VERTEX
8
L6D0
10
-158.002
20
602.251
0
VERTEX
8
L6D0
10
-158.002
20
527.251
0
VERTEX
8
L6D0
10
-160.002
20
527.251
0
VERTEX
8
L6D0
10
-160.002
20
602.251
0
VERTEX
8
L6D0
10
-166.002
20
602.251
0
VERTEX
8
L6D0
10
-166.002
20
527.251
0
VERTEX
8
L6D0
10
-168.002
20
527.251
0
VERTEX
8
L6D0
10
-168.002
20
602.251
0
VERTEX
8
L6D0
10
-174.002
20
602.251
0
VERTEX
8
L6D0
10
-174.002
20
527.251
0
VERTEX
8
L6D0
10
-176.002
20
527.251
0
VERTEX
8
L6D0
10
-176.002
20
602.251
0
VERTEX
8
L6D0
10
-182.002
20
602.251
0
VERTEX
8
L6D0
10
-182.002
20
527.251
0
VERTEX
8
L6D0
10
-184.002
20
527.251
0
VERTEX
8
L6D0
10
-184.002
20
602.251
0
VERTEX
8
L6D0
10
-190.002
20
602.251
0
VERTEX
8
L6D0
10
-190.002
20
527.251
0
VERTEX
8
L6D0
10
-192.002
20
527.251
0
VERTEX
8
L6D0
10
-192.002
20
602.251
0
VERTEX
8
L6D0
10
-198.002
20
602.251
0
VERTEX
8
L6D0
10
-198.002
20
527.251
0
VERTEX
8
L6D0
10
-200.002
20
527.251
0
VERTEX
8
L6D0
10
-200.002
20
602.251
0
VERTEX
8
L6D0
10
-206.002
20
602.251
0
VERTEX
8
L6D0
10
-206.002
20
527.251
0
VERTEX
8
L6D0
10
-208.002
20
527.251
0
VERTEX
8
L6D0
10
-208.002
20
602.251
0
VERTEX
8
L6D0
10
-214.002
20
602.251
0
VERTEX
8
L6D0
10
-214.002
20
527.251
0
VERTEX
8
L6D0
10
-216.002
20
527.251
0
VERTEX
8
L6D0
10
-216.002
20
602.251
0
VERTEX
8
L6D0
10
-222.002
20
602.251
0
VERTEX
8
L6D0
10
-222.002
20
527.251
0
SEQEND
0
ENDSEC
0
EOF
