0
SECTION
2
HEADER
9
$ACADVER
1
AC1006
0
ENDSEC
0
SECTION
2
TABLES
0
TABLE
2
LAYER
70
2
0
LAYER
70
0
62
1
6
CONTINUOUS
2
L3D0
0
LAYER
70
0
62
2
6
CONTINUOUS
2
L6D0
0
ENDTAB
0
ENDSEC
0
SECTION
2
BLOCKS
0
BLOCK
2
LSN_Cap_cutout_r
70
0
10
0
20
0
0
ENDBLK
0
BLOCK
2
500um_GP_bondpads
70
0
10
0
20
0
0
ENDBLK
0
ENDSEC
0
SECTION
2
ENTITIES
0
INSERT
8
0
2
500um_GP_bondpads
10
4900
20
-8000
41
1
42
1
50
0
0
INSERT
8
0
2
LSN_Cap_cutout_r
10
3258
20
-7950
41
1
42
1
50
0
0
POLYLINE
8
L3D0
70
0
40
1
41
1
66
1
0
VERTEX
8
L3D0
10
4770.5
20
-7989.5
0
VERTEX
8
L3D0
10
5071
20
-7989.5
0
VERTEX
8
L3D0
10
5071
20
-7987.5
0
VERTEX
8
L3D0
10
4771
20
-7987.5
0
VERTEX
8
L3D0
10
4771
20
-7985.5
0
VERTEX
8
L3D0
10
5071
20
-7985.5
0
VERTEX
8
L3D0
10
5071
20
-7983.5
0
VERTEX
8
L3D0
10
4771
20
-7983.5
0
VERTEX
8
L3D0
10
4771
20
-7981.5
0
VERTEX
8
L3D0
10
5071
20
-7981.5
0
VERTEX
8
L3D0
10
5071
20
-7979.5
0
VERTEX
8
L3D0
10
4771
20
-7979.5
0
VERTEX
8
L3D0
10
4771
20
-7977.5
0
VERTEX
8
L3D0
10
5071
20
-7977.5
0
VERTEX
8
L3D0
10
5071
20
-7975.5
0
VERTEX
8
L3D0
10
4771
20
-7975.5
0
VERTEX
8
L3D0
10
4771
20
-7973.5
0
VERTEX
8
L3D0
10
5071
20
-7973.5
0
VERTEX
8
L3D0
10
5071
20
-7971.5
0
VERTEX
8
L3D0
10
4771
20
-7971.5
0
VERTEX
8
L3D0
10
4771
20
-7969.5
0
VERTEX
8
L3D0
10
5071
20
-7969.5
0
VERTEX
8
L3D0
10
5071
20
-7967.5
0
VERTEX
8
L3D0
10
4771
20
-7967.5
0
VERTEX
8
L3D0
10
4771
20
-7965.5
0
VERTEX
8
L3D0
10
5071
20
-7965.5
0
VERTEX
8
L3D0
10
5071
20
-7963.5
0
VERTEX
8
L3D0
10
4771
20
-7963.5
0
VERTEX
8
L3D0
10
4771
20
-7961.5
0
VERTEX
8
L3D0
10
5071
20
-7961.5
0
VERTEX
8
L3D0
10
5071
20
-7959.5
0
VERTEX
8
L3D0
10
4771
20
-7959.5
0
VERTEX
8
L3D0
10
4771
20
-7957.5
0
VERTEX
8
L3D0
10
5071
20
-7957.5
0
VERTEX
8
L3D0
10
5071
20
-7955.5
0
VERTEX
8
L3D0
10
4771
20
-7955.5
0
VERTEX
8
L3D0
10
4771
20
-7953.5
0
VERTEX
8
L3D0
10
5071
20
-7953.5
0
VERTEX
8
L3D0
10
5071
20
-7951.5
0
VERTEX
8
L3D0
10
4771
20
-7951.5
0
VERTEX
8
L3D0
10
4771
20
-7949.5
0
VERTEX
8
L3D0
10
5071
20
-7949.5
0
VERTEX
8
L3D0
10
5071
20
-7947.5
0
VERTEX
8
L3D0
10
4771
20
-7947.5
0
VERTEX
8
L3D0
10
4771
20
-7945.5
0
VERTEX
8
L3D0
10
5071
20
-7945.5
0
VERTEX
8
L3D0
10
5071
20
-7943.5
0
VERTEX
8
L3D0
10
4771
20
-7943.5
0
VERTEX
8
L3D0
10
4771
20
-7941.5
0
VERTEX
8
L3D0
10
5071
20
-7941.5
0
VERTEX
8
L3D0
10
5071
20
-7939.5
0
VERTEX
8
L3D0
10
4771
20
-7939.5
0
VERTEX
8
L3D0
10
4771
20
-7937.5
0
VERTEX
8
L3D0
10
5071
20
-7937.5
0
VERTEX
8
L3D0
10
5071
20
-7935.5
0
VERTEX
8
L3D0
10
4770.5
20
-7935.5
0
SEQEND
0
POLYLINE
8
L3D0
70
0
40
1
41
1
66
1
0
VERTEX
8
L3D0
10
4770.5
20
-8010.5
0
VERTEX
8
L3D0
10
5071
20
-8010.5
0
VERTEX
8
L3D0
10
5071
20
-8012.5
0
VERTEX
8
L3D0
10
4771
20
-8012.5
0
VERTEX
8
L3D0
10
4771
20
-8014.5
0
VERTEX
8
L3D0
10
5071
20
-8014.5
0
VERTEX
8
L3D0
10
5071
20
-8016.5
0
VERTEX
8
L3D0
10
4771
20
-8016.5
0
VERTEX
8
L3D0
10
4771
20
-8018.5
0
VERTEX
8
L3D0
10
5071
20
-8018.5
0
VERTEX
8
L3D0
10
5071
20
-8020.5
0
VERTEX
8
L3D0
10
4771
20
-8020.5
0
VERTEX
8
L3D0
10
4771
20
-8022.5
0
VERTEX
8
L3D0
10
5071
20
-8022.5
0
VERTEX
8
L3D0
10
5071
20
-8024.5
0
VERTEX
8
L3D0
10
4771
20
-8024.5
0
VERTEX
8
L3D0
10
4771
20
-8026.5
0
VERTEX
8
L3D0
10
5071
20
-8026.5
0
VERTEX
8
L3D0
10
5071
20
-8028.5
0
VERTEX
8
L3D0
10
4771
20
-8028.5
0
VERTEX
8
L3D0
10
4771
20
-8030.5
0
VERTEX
8
L3D0
10
5071
20
-8030.5
0
VERTEX
8
L3D0
10
5071
20
-8032.5
0
VERTEX
8
L3D0
10
4771
20
-8032.5
0
VERTEX
8
L3D0
10
4771
20
-8034.5
0
VERTEX
8
L3D0
10
5071
20
-8034.5
0
VERTEX
8
L3D0
10
5071
20
-8036.5
0
VERTEX
8
L3D0
10
4771
20
-8036.5
0
VERTEX
8
L3D0
10
4771
20
-8038.5
0
VERTEX
8
L3D0
10
5071
20
-8038.5
0
VERTEX
8
L3D0
10
5071
20
-8040.5
0
VERTEX
8
L3D0
10
4771
20
-8040.5
0
VERTEX
8
L3D0
10
4771
20
-8042.5
0
VERTEX
8
L3D0
10
5071
20
-8042.5
0
VERTEX
8
L3D0
10
5071
20
-8044.5
0
VERTEX
8
L3D0
10
4771
20
-8044.5
0
VERTEX
8
L3D0
10
4771
20
-8046.5
0
VERTEX
8
L3D0
10
5071
20
-8046.5
0
VERTEX
8
L3D0
10
5071
20
-8048.5
0
VERTEX
8
L3D0
10
4771
20
-8048.5
0
VERTEX
8
L3D0
10
4771
20
-8050.5
0
VERTEX
8
L3D0
10
5071
20
-8050.5
0
VERTEX
8
L3D0
10
5071
20
-8052.5
0
VERTEX
8
L3D0
10
4771
20
-8052.5
0
VERTEX
8
L3D0
10
4771
20
-8054.5
0
VERTEX
8
L3D0
10
5071
20
-8054.5
0
VERTEX
8
L3D0
10
5071
20
-8056.5
0
VERTEX
8
L3D0
10
4771
20
-8056.5
0
VERTEX
8
L3D0
10
4771
20
-8058.5
0
VERTEX
8
L3D0
10
5071
20
-8058.5
0
VERTEX
8
L3D0
10
5071
20
-8060.5
0
VERTEX
8
L3D0
10
4771
20
-8060.5
0
VERTEX
8
L3D0
10
4771
20
-8062.5
0
VERTEX
8
L3D0
10
5071
20
-8062.5
0
VERTEX
8
L3D0
10
5071
20
-8064.5
0
VERTEX
8
L3D0
10
4770.5
20
-8064.5
0
SEQEND
0
POLYLINE
8
L3D0
70
0
40
1
41
1
66
1
0
VERTEX
8
L3D0
10
4771
20
-7989
0
VERTEX
8
L3D0
10
4771
20
-8011
0
SEQEND
0
POLYLINE
8
L3D0
70
0
40
1
41
1
66
1
0
VERTEX
8
L3D0
10
4771.5
20
-7935.5
0
VERTEX
8
L3D0
10
4764.5
20
-7935.5
0
SEQEND
0
POLYLINE
8
L3D0
70
0
40
1
41
1
66
1
0
VERTEX
8
L3D0
10
4771.5
20
-8064.5
0
VERTEX
8
L3D0
10
4764.5
20
-8064.5
0
SEQEND
0
POLYLINE
8
L3D0
70
1
40
0
41
0
66
1
0
VERTEX
8
L3D0
10
4764.5
20
-7985.5
0
VERTEX
8
L3D0
10
4764.5
20
-7935.5
0
VERTEX
8
L3D0
10
4767.5
20
-7935.5
0
VERTEX
8
L3D0
10
4767.5
20
-7985.5
0
SEQEND
0
POLYLINE
8
L3D0
70
1
40
0
41
0
66
1
0
VERTEX
8
L3D0
10
4764.5
20
-8064.5
0
VERTEX
8
L3D0
10
4764.5
20
-8014.5
0
VERTEX
8
L3D0
10
4767.5
20
-8014.5
0
VERTEX
8
L3D0
10
4767.5
20
-8064.5
0
SEQEND
0
POLYLINE
8
L6D0
70
0
40
20
41
20
66
1
0
VERTEX
8
L6D0
10
0
20
-7385.25
0
VERTEX
8
L6D0
10
3258
20
-7385.25
0
SEQEND
0
POLYLINE
8
L6D0
70
0
40
2
41
2
66
1
0
VERTEX
8
L6D0
10
4766
20
-7985.5
0
VERTEX
8
L6D0
10
4766
20
-7998
0
VERTEX
8
L6D0
10
4283
20
-7998
0
SEQEND
0
POLYLINE
8
L6D0
70
0
40
2
41
2
66
1
0
VERTEX
8
L6D0
10
4766
20
-8014.5
0
VERTEX
8
L6D0
10
4766
20
-8002
0
VERTEX
8
L6D0
10
4283
20
-8002
0
SEQEND
0
POLYLINE
8
L6D0
70
0
40
25
41
25
66
1
0
VERTEX
8
L6D0
10
4246.5
20
-8513.25
0
VERTEX
8
L6D0
10
4284
20
-8513.25
0
VERTEX
8
L6D0
10
4284
20
-8001
0
SEQEND
0
POLYLINE
8
L6D0
70
0
40
25
41
25
66
1
0
VERTEX
8
L6D0
10
4246.5
20
-7486.75
0
VERTEX
8
L6D0
10
4284
20
-7486.75
0
VERTEX
8
L6D0
10
4284
20
-7999
0
SEQEND
0
POLYLINE
8
L6D0
70
1
40
0
41
0
66
1
0
VERTEX
8
L6D0
10
-50
20
-10000
0
VERTEX
8
L6D0
10
-50
20
-5000
0
VERTEX
8
L6D0
10
50
20
-5000
0
VERTEX
8
L6D0
10
50
20
-10000
0
SEQEND
0
POLYLINE
8
L6D0
70
1
40
0
41
0
66
1
0
VERTEX
8
L6D0
10
2257
20
-8525.75
0
VERTEX
8
L6D0
10
2257
20
-8500.75
0
VERTEX
8
L6D0
10
4259
20
-8500.75
0
VERTEX
8
L6D0
10
4259
20
-8525.75
0
SEQEND
0
POLYLINE
8
L6D0
70
1
40
0
41
0
66
1
0
VERTEX
8
L6D0
10
2257
20
-7499.25
0
VERTEX
8
L6D0
10
2257
20
-7474.25
0
VERTEX
8
L6D0
10
4259
20
-7474.25
0
VERTEX
8
L6D0
10
4259
20
-7499.25
0
SEQEND
0
POLYLINE
8
L6D0
70
1
40
0
41
0
66
1
0
VERTEX
8
L6D0
10
3325
20
-8499.25
0
VERTEX
8
L6D0
10
3325
20
-7499.25
0
VERTEX
8
L6D0
10
3327
20
-7499.25
0
VERTEX
8
L6D0
10
3327
20
-8499.25
0
SEQEND
0
POLYLINE
8
L6D0
70
1
40
0
41
0
66
1
0
VERTEX
8
L6D0
10
3061
20
-8499.25
0
VERTEX
8
L6D0
10
3061
20
-7499.25
0
VERTEX
8
L6D0
10
3063
20
-7499.25
0
VERTEX
8
L6D0
10
3063
20
-8499.25
0
SEQEND
0
POLYLINE
8
L6D0
70
1
40
0
41
0
66
1
0
VERTEX
8
L6D0
10
2957
20
-8499.25
0
VERTEX
8
L6D0
10
2957
20
-7499.25
0
VERTEX
8
L6D0
10
2959
20
-7499.25
0
VERTEX
8
L6D0
10
2959
20
-8499.25
0
SEQEND
0
POLYLINE
8
L6D0
70
1
40
0
41
0
66
1
0
VERTEX
8
L6D0
10
2429
20
-8499.25
0
VERTEX
8
L6D0
10
2429
20
-7499.25
0
VERTEX
8
L6D0
10
2431
20
-7499.25
0
VERTEX
8
L6D0
10
2431
20
-8499.25
0
SEQEND
0
POLYLINE
8
L6D0
70
1
40
0
41
0
66
1
0
VERTEX
8
L6D0
10
2645
20
-8499.25
0
VERTEX
8
L6D0
10
2645
20
-7499.25
0
VERTEX
8
L6D0
10
2647
20
-7499.25
0
VERTEX
8
L6D0
10
2647
20
-8499.25
0
SEQEND
0
POLYLINE
8
L6D0
70
1
40
0
41
0
66
1
0
VERTEX
8
L6D0
10
3389
20
-8499.25
0
VERTEX
8
L6D0
10
3389
20
-7499.25
0
VERTEX
8
L6D0
10
3391
20
-7499.25
0
VERTEX
8
L6D0
10
3391
20
-8499.25
0
SEQEND
0
POLYLINE
8
L6D0
70
1
40
0
41
0
66
1
0
VERTEX
8
L6D0
10
2365
20
-8499.25
0
VERTEX
8
L6D0
10
2365
20
-7499.25
0
VERTEX
8
L6D0
10
2367
20
-7499.25
0
VERTEX
8
L6D0
10
2367
20
-8499.25
0
SEQEND
0
POLYLINE
8
L6D0
70
1
40
0
41
0
66
1
0
VERTEX
8
L6D0
10
2949
20
-8499.25
0
VERTEX
8
L6D0
10
2949
20
-7499.25
0
VERTEX
8
L6D0
10
2951
20
-7499.25
0
VERTEX
8
L6D0
10
2951
20
-8499.25
0
SEQEND
0
POLYLINE
8
L6D0
70
1
40
0
41
0
66
1
0
VERTEX
8
L6D0
10
3053
20
-8499.25
0
VERTEX
8
L6D0
10
3053
20
-7499.25
0
VERTEX
8
L6D0
10
3055
20
-7499.25
0
VERTEX
8
L6D0
10
3055
20
-8499.25
0
SEQEND
0
POLYLINE
8
L6D0
70
1
40
0
41
0
66
1
0
VERTEX
8
L6D0
10
3317
20
-8499.25
0
VERTEX
8
L6D0
10
3317
20
-7499.25
0
VERTEX
8
L6D0
10
3319
20
-7499.25
0
VERTEX
8
L6D0
10
3319
20
-8499.25
0
SEQEND
0
POLYLINE
8
L6D0
70
1
40
0
41
0
66
1
0
VERTEX
8
L6D0
10
3429
20
-8499.25
0
VERTEX
8
L6D0
10
3429
20
-7499.25
0
VERTEX
8
L6D0
10
3431
20
-7499.25
0
VERTEX
8
L6D0
10
3431
20
-8499.25
0
SEQEND
0
POLYLINE
8
L6D0
70
1
40
0
41
0
66
1
0
VERTEX
8
L6D0
10
2405
20
-8499.25
0
VERTEX
8
L6D0
10
2405
20
-7499.25
0
VERTEX
8
L6D0
10
2407
20
-7499.25
0
VERTEX
8
L6D0
10
2407
20
-8499.25
0
SEQEND
0
POLYLINE
8
L6D0
70
1
40
0
41
0
66
1
0
VERTEX
8
L6D0
10
2509
20
-8499.25
0
VERTEX
8
L6D0
10
2509
20
-7499.25
0
VERTEX
8
L6D0
10
2511
20
-7499.25
0
VERTEX
8
L6D0
10
2511
20
-8499.25
0
SEQEND
0
POLYLINE
8
L6D0
70
1
40
0
41
0
66
1
0
VERTEX
8
L6D0
10
3117
20
-8499.25
0
VERTEX
8
L6D0
10
3117
20
-7499.25
0
VERTEX
8
L6D0
10
3119
20
-7499.25
0
VERTEX
8
L6D0
10
3119
20
-8499.25
0
SEQEND
0
POLYLINE
8
L6D0
70
1
40
0
41
0
66
1
0
VERTEX
8
L6D0
10
2941
20
-8499.25
0
VERTEX
8
L6D0
10
2941
20
-7499.25
0
VERTEX
8
L6D0
10
2943
20
-7499.25
0
VERTEX
8
L6D0
10
2943
20
-8499.25
0
SEQEND
0
POLYLINE
8
L6D0
70
1
40
0
41
0
66
1
0
VERTEX
8
L6D0
10
2733
20
-8499.25
0
VERTEX
8
L6D0
10
2733
20
-7499.25
0
VERTEX
8
L6D0
10
2735
20
-7499.25
0
VERTEX
8
L6D0
10
2735
20
-8499.25
0
SEQEND
0
POLYLINE
8
L6D0
70
1
40
0
41
0
66
1
0
VERTEX
8
L6D0
10
2565
20
-8499.25
0
VERTEX
8
L6D0
10
2565
20
-7499.25
0
VERTEX
8
L6D0
10
2567
20
-7499.25
0
VERTEX
8
L6D0
10
2567
20
-8499.25
0
SEQEND
0
POLYLINE
8
L6D0
70
1
40
0
41
0
66
1
0
VERTEX
8
L6D0
10
2621
20
-8499.25
0
VERTEX
8
L6D0
10
2621
20
-7499.25
0
VERTEX
8
L6D0
10
2623
20
-7499.25
0
VERTEX
8
L6D0
10
2623
20
-8499.25
0
SEQEND
0
POLYLINE
8
L6D0
70
1
40
0
41
0
66
1
0
VERTEX
8
L6D0
10
3157
20
-8499.25
0
VERTEX
8
L6D0
10
3157
20
-7499.25
0
VERTEX
8
L6D0
10
3159
20
-7499.25
0
VERTEX
8
L6D0
10
3159
20
-8499.25
0
SEQEND
0
POLYLINE
8
L6D0
70
1
40
0
41
0
66
1
0
VERTEX
8
L6D0
10
3309
20
-8499.25
0
VERTEX
8
L6D0
10
3309
20
-7499.25
0
VERTEX
8
L6D0
10
3311
20
-7499.25
0
VERTEX
8
L6D0
10
3311
20
-8499.25
0
SEQEND
0
POLYLINE
8
L6D0
70
1
40
0
41
0
66
1
0
VERTEX
8
L6D0
10
3045
20
-8499.25
0
VERTEX
8
L6D0
10
3045
20
-7499.25
0
VERTEX
8
L6D0
10
3047
20
-7499.25
0
VERTEX
8
L6D0
10
3047
20
-8499.25
0
SEQEND
0
POLYLINE
8
L6D0
70
1
40
0
41
0
66
1
0
VERTEX
8
L6D0
10
2933
20
-8499.25
0
VERTEX
8
L6D0
10
2933
20
-7499.25
0
VERTEX
8
L6D0
10
2935
20
-7499.25
0
VERTEX
8
L6D0
10
2935
20
-8499.25
0
SEQEND
0
POLYLINE
8
L6D0
70
1
40
0
41
0
66
1
0
VERTEX
8
L6D0
10
3381
20
-8499.25
0
VERTEX
8
L6D0
10
3381
20
-7499.25
0
VERTEX
8
L6D0
10
3383
20
-7499.25
0
VERTEX
8
L6D0
10
3383
20
-8499.25
0
SEQEND
0
POLYLINE
8
L6D0
70
1
40
0
41
0
66
1
0
VERTEX
8
L6D0
10
2357
20
-8499.25
0
VERTEX
8
L6D0
10
2357
20
-7499.25
0
VERTEX
8
L6D0
10
2359
20
-7499.25
0
VERTEX
8
L6D0
10
2359
20
-8499.25
0
SEQEND
0
POLYLINE
8
L6D0
70
1
40
0
41
0
66
1
0
VERTEX
8
L6D0
10
3197
20
-8499.25
0
VERTEX
8
L6D0
10
3197
20
-7499.25
0
VERTEX
8
L6D0
10
3199
20
-7499.25
0
VERTEX
8
L6D0
10
3199
20
-8499.25
0
SEQEND
0
POLYLINE
8
L6D0
70
1
40
0
41
0
66
1
0
VERTEX
8
L6D0
10
2541
20
-8499.25
0
VERTEX
8
L6D0
10
2541
20
-7499.25
0
VERTEX
8
L6D0
10
2543
20
-7499.25
0
VERTEX
8
L6D0
10
2543
20
-8499.25
0
SEQEND
0
POLYLINE
8
L6D0
70
1
40
0
41
0
66
1
0
VERTEX
8
L6D0
10
2757
20
-8499.25
0
VERTEX
8
L6D0
10
2757
20
-7499.25
0
VERTEX
8
L6D0
10
2759
20
-7499.25
0
VERTEX
8
L6D0
10
2759
20
-8499.25
0
SEQEND
0
POLYLINE
8
L6D0
70
1
40
0
41
0
66
1
0
VERTEX
8
L6D0
10
2925
20
-8499.25
0
VERTEX
8
L6D0
10
2925
20
-7499.25
0
VERTEX
8
L6D0
10
2927
20
-7499.25
0
VERTEX
8
L6D0
10
2927
20
-8499.25
0
SEQEND
0
POLYLINE
8
L6D0
70
1
40
0
41
0
66
1
0
VERTEX
8
L6D0
10
3181
20
-8499.25
0
VERTEX
8
L6D0
10
3181
20
-7499.25
0
VERTEX
8
L6D0
10
3183
20
-7499.25
0
VERTEX
8
L6D0
10
3183
20
-8499.25
0
SEQEND
0
POLYLINE
8
L6D0
70
1
40
0
41
0
66
1
0
VERTEX
8
L6D0
10
3109
20
-8499.25
0
VERTEX
8
L6D0
10
3109
20
-7499.25
0
VERTEX
8
L6D0
10
3111
20
-7499.25
0
VERTEX
8
L6D0
10
3111
20
-8499.25
0
SEQEND
0
POLYLINE
8
L6D0
70
1
40
0
41
0
66
1
0
VERTEX
8
L6D0
10
2501
20
-8499.25
0
VERTEX
8
L6D0
10
2501
20
-7499.25
0
VERTEX
8
L6D0
10
2503
20
-7499.25
0
VERTEX
8
L6D0
10
2503
20
-8499.25
0
SEQEND
0
POLYLINE
8
L6D0
70
1
40
0
41
0
66
1
0
VERTEX
8
L6D0
10
3301
20
-8499.25
0
VERTEX
8
L6D0
10
3301
20
-7499.25
0
VERTEX
8
L6D0
10
3303
20
-7499.25
0
VERTEX
8
L6D0
10
3303
20
-8499.25
0
SEQEND
0
POLYLINE
8
L6D0
70
1
40
0
41
0
66
1
0
VERTEX
8
L6D0
10
3037
20
-8499.25
0
VERTEX
8
L6D0
10
3037
20
-7499.25
0
VERTEX
8
L6D0
10
3039
20
-7499.25
0
VERTEX
8
L6D0
10
3039
20
-8499.25
0
SEQEND
0
POLYLINE
8
L6D0
70
1
40
0
41
0
66
1
0
VERTEX
8
L6D0
10
2917
20
-8499.25
0
VERTEX
8
L6D0
10
2917
20
-7499.25
0
VERTEX
8
L6D0
10
2919
20
-7499.25
0
VERTEX
8
L6D0
10
2919
20
-8499.25
0
SEQEND
0
POLYLINE
8
L6D0
70
1
40
0
41
0
66
1
0
VERTEX
8
L6D0
10
3421
20
-8499.25
0
VERTEX
8
L6D0
10
3421
20
-7499.25
0
VERTEX
8
L6D0
10
3423
20
-7499.25
0
VERTEX
8
L6D0
10
3423
20
-8499.25
0
SEQEND
0
POLYLINE
8
L6D0
70
1
40
0
41
0
66
1
0
VERTEX
8
L6D0
10
2453
20
-8499.25
0
VERTEX
8
L6D0
10
2453
20
-7499.25
0
VERTEX
8
L6D0
10
2455
20
-7499.25
0
VERTEX
8
L6D0
10
2455
20
-8499.25
0
SEQEND
0
POLYLINE
8
L6D0
70
1
40
0
41
0
66
1
0
VERTEX
8
L6D0
10
2749
20
-8499.25
0
VERTEX
8
L6D0
10
2749
20
-7499.25
0
VERTEX
8
L6D0
10
2751
20
-7499.25
0
VERTEX
8
L6D0
10
2751
20
-8499.25
0
SEQEND
0
POLYLINE
8
L6D0
70
1
40
0
41
0
66
1
0
VERTEX
8
L6D0
10
3373
20
-8499.25
0
VERTEX
8
L6D0
10
3373
20
-7499.25
0
VERTEX
8
L6D0
10
3375
20
-7499.25
0
VERTEX
8
L6D0
10
3375
20
-8499.25
0
SEQEND
0
POLYLINE
8
L6D0
70
1
40
0
41
0
66
1
0
VERTEX
8
L6D0
10
2349
20
-8499.25
0
VERTEX
8
L6D0
10
2349
20
-7499.25
0
VERTEX
8
L6D0
10
2351
20
-7499.25
0
VERTEX
8
L6D0
10
2351
20
-8499.25
0
SEQEND
0
POLYLINE
8
L6D0
70
1
40
0
41
0
66
1
0
VERTEX
8
L6D0
10
3293
20
-8499.25
0
VERTEX
8
L6D0
10
3293
20
-7499.25
0
VERTEX
8
L6D0
10
3295
20
-7499.25
0
VERTEX
8
L6D0
10
3295
20
-8499.25
0
SEQEND
0
POLYLINE
8
L6D0
70
1
40
0
41
0
66
1
0
VERTEX
8
L6D0
10
3205
20
-8499.25
0
VERTEX
8
L6D0
10
3205
20
-7499.25
0
VERTEX
8
L6D0
10
3207
20
-7499.25
0
VERTEX
8
L6D0
10
3207
20
-8499.25
0
SEQEND
0
POLYLINE
8
L6D0
70
1
40
0
41
0
66
1
0
VERTEX
8
L6D0
10
2397
20
-8499.25
0
VERTEX
8
L6D0
10
2397
20
-7499.25
0
VERTEX
8
L6D0
10
2399
20
-7499.25
0
VERTEX
8
L6D0
10
2399
20
-8499.25
0
SEQEND
0
POLYLINE
8
L6D0
70
1
40
0
41
0
66
1
0
VERTEX
8
L6D0
10
2909
20
-8499.25
0
VERTEX
8
L6D0
10
2909
20
-7499.25
0
VERTEX
8
L6D0
10
2911
20
-7499.25
0
VERTEX
8
L6D0
10
2911
20
-8499.25
0
SEQEND
0
POLYLINE
8
L6D0
70
1
40
0
41
0
66
1
0
VERTEX
8
L6D0
10
3029
20
-8499.25
0
VERTEX
8
L6D0
10
3029
20
-7499.25
0
VERTEX
8
L6D0
10
3031
20
-7499.25
0
VERTEX
8
L6D0
10
3031
20
-8499.25
0
SEQEND
0
POLYLINE
8
L6D0
70
1
40
0
41
0
66
1
0
VERTEX
8
L6D0
10
3149
20
-8499.25
0
VERTEX
8
L6D0
10
3149
20
-7499.25
0
VERTEX
8
L6D0
10
3151
20
-7499.25
0
VERTEX
8
L6D0
10
3151
20
-8499.25
0
SEQEND
0
POLYLINE
8
L6D0
70
1
40
0
41
0
66
1
0
VERTEX
8
L6D0
10
3101
20
-8499.25
0
VERTEX
8
L6D0
10
3101
20
-7499.25
0
VERTEX
8
L6D0
10
3103
20
-7499.25
0
VERTEX
8
L6D0
10
3103
20
-8499.25
0
SEQEND
0
POLYLINE
8
L6D0
70
1
40
0
41
0
66
1
0
VERTEX
8
L6D0
10
2781
20
-8499.25
0
VERTEX
8
L6D0
10
2781
20
-7499.25
0
VERTEX
8
L6D0
10
2783
20
-7499.25
0
VERTEX
8
L6D0
10
2783
20
-8499.25
0
SEQEND
0
POLYLINE
8
L6D0
70
1
40
0
41
0
66
1
0
VERTEX
8
L6D0
10
2901
20
-8499.25
0
VERTEX
8
L6D0
10
2901
20
-7499.25
0
VERTEX
8
L6D0
10
2903
20
-7499.25
0
VERTEX
8
L6D0
10
2903
20
-8499.25
0
SEQEND
0
POLYLINE
8
L6D0
70
1
40
0
41
0
66
1
0
VERTEX
8
L6D0
10
2493
20
-8499.25
0
VERTEX
8
L6D0
10
2493
20
-7499.25
0
VERTEX
8
L6D0
10
2495
20
-7499.25
0
VERTEX
8
L6D0
10
2495
20
-8499.25
0
SEQEND
0
POLYLINE
8
L6D0
70
1
40
0
41
0
66
1
0
VERTEX
8
L6D0
10
3285
20
-8499.25
0
VERTEX
8
L6D0
10
3285
20
-7499.25
0
VERTEX
8
L6D0
10
3287
20
-7499.25
0
VERTEX
8
L6D0
10
3287
20
-8499.25
0
SEQEND
0
POLYLINE
8
L6D0
70
1
40
0
41
0
66
1
0
VERTEX
8
L6D0
10
3445
20
-8499.25
0
VERTEX
8
L6D0
10
3445
20
-7499.25
0
VERTEX
8
L6D0
10
3447
20
-7499.25
0
VERTEX
8
L6D0
10
3447
20
-8499.25
0
SEQEND
0
POLYLINE
8
L6D0
70
1
40
0
41
0
66
1
0
VERTEX
8
L6D0
10
2701
20
-8499.25
0
VERTEX
8
L6D0
10
2701
20
-7499.25
0
VERTEX
8
L6D0
10
2703
20
-7499.25
0
VERTEX
8
L6D0
10
2703
20
-8499.25
0
SEQEND
0
POLYLINE
8
L6D0
70
1
40
0
41
0
66
1
0
VERTEX
8
L6D0
10
2421
20
-8499.25
0
VERTEX
8
L6D0
10
2421
20
-7499.25
0
VERTEX
8
L6D0
10
2423
20
-7499.25
0
VERTEX
8
L6D0
10
2423
20
-8499.25
0
SEQEND
0
POLYLINE
8
L6D0
70
1
40
0
41
0
66
1
0
VERTEX
8
L6D0
10
3021
20
-8499.25
0
VERTEX
8
L6D0
10
3021
20
-7499.25
0
VERTEX
8
L6D0
10
3023
20
-7499.25
0
VERTEX
8
L6D0
10
3023
20
-8499.25
0
SEQEND
0
POLYLINE
8
L6D0
70
1
40
0
41
0
66
1
0
VERTEX
8
L6D0
10
2613
20
-8499.25
0
VERTEX
8
L6D0
10
2613
20
-7499.25
0
VERTEX
8
L6D0
10
2615
20
-7499.25
0
VERTEX
8
L6D0
10
2615
20
-8499.25
0
SEQEND
0
POLYLINE
8
L6D0
70
1
40
0
41
0
66
1
0
VERTEX
8
L6D0
10
2893
20
-8499.25
0
VERTEX
8
L6D0
10
2893
20
-7499.25
0
VERTEX
8
L6D0
10
2895
20
-7499.25
0
VERTEX
8
L6D0
10
2895
20
-8499.25
0
SEQEND
0
POLYLINE
8
L6D0
70
1
40
0
41
0
66
1
0
VERTEX
8
L6D0
10
3365
20
-8499.25
0
VERTEX
8
L6D0
10
3365
20
-7499.25
0
VERTEX
8
L6D0
10
3367
20
-7499.25
0
VERTEX
8
L6D0
10
3367
20
-8499.25
0
SEQEND
0
POLYLINE
8
L6D0
70
1
40
0
41
0
66
1
0
VERTEX
8
L6D0
10
2341
20
-8499.25
0
VERTEX
8
L6D0
10
2341
20
-7499.25
0
VERTEX
8
L6D0
10
2343
20
-7499.25
0
VERTEX
8
L6D0
10
2343
20
-8499.25
0
SEQEND
0
POLYLINE
8
L6D0
70
1
40
0
41
0
66
1
0
VERTEX
8
L6D0
10
2685
20
-8499.25
0
VERTEX
8
L6D0
10
2685
20
-7499.25
0
VERTEX
8
L6D0
10
2687
20
-7499.25
0
VERTEX
8
L6D0
10
2687
20
-8499.25
0
SEQEND
0
POLYLINE
8
L6D0
70
1
40
0
41
0
66
1
0
VERTEX
8
L6D0
10
2533
20
-8499.25
0
VERTEX
8
L6D0
10
2533
20
-7499.25
0
VERTEX
8
L6D0
10
2535
20
-7499.25
0
VERTEX
8
L6D0
10
2535
20
-8499.25
0
SEQEND
0
POLYLINE
8
L6D0
70
1
40
0
41
0
66
1
0
VERTEX
8
L6D0
10
3277
20
-8499.25
0
VERTEX
8
L6D0
10
3277
20
-7499.25
0
VERTEX
8
L6D0
10
3279
20
-7499.25
0
VERTEX
8
L6D0
10
3279
20
-8499.25
0
SEQEND
0
POLYLINE
8
L6D0
70
1
40
0
41
0
66
1
0
VERTEX
8
L6D0
10
2885
20
-8499.25
0
VERTEX
8
L6D0
10
2885
20
-7499.25
0
VERTEX
8
L6D0
10
2887
20
-7499.25
0
VERTEX
8
L6D0
10
2887
20
-8499.25
0
SEQEND
0
POLYLINE
8
L6D0
70
1
40
0
41
0
66
1
0
VERTEX
8
L6D0
10
2653
20
-8499.25
0
VERTEX
8
L6D0
10
2653
20
-7499.25
0
VERTEX
8
L6D0
10
2655
20
-7499.25
0
VERTEX
8
L6D0
10
2655
20
-8499.25
0
SEQEND
0
POLYLINE
8
L6D0
70
1
40
0
41
0
66
1
0
VERTEX
8
L6D0
10
2637
20
-8499.25
0
VERTEX
8
L6D0
10
2637
20
-7499.25
0
VERTEX
8
L6D0
10
2639
20
-7499.25
0
VERTEX
8
L6D0
10
2639
20
-8499.25
0
SEQEND
0
POLYLINE
8
L6D0
70
1
40
0
41
0
66
1
0
VERTEX
8
L6D0
10
2437
20
-8499.25
0
VERTEX
8
L6D0
10
2437
20
-7499.25
0
VERTEX
8
L6D0
10
2439
20
-7499.25
0
VERTEX
8
L6D0
10
2439
20
-8499.25
0
SEQEND
0
POLYLINE
8
L6D0
70
1
40
0
41
0
66
1
0
VERTEX
8
L6D0
10
3013
20
-8499.25
0
VERTEX
8
L6D0
10
3013
20
-7499.25
0
VERTEX
8
L6D0
10
3015
20
-7499.25
0
VERTEX
8
L6D0
10
3015
20
-8499.25
0
SEQEND
0
POLYLINE
8
L6D0
70
1
40
0
41
0
66
1
0
VERTEX
8
L6D0
10
2573
20
-8499.25
0
VERTEX
8
L6D0
10
2573
20
-7499.25
0
VERTEX
8
L6D0
10
2575
20
-7499.25
0
VERTEX
8
L6D0
10
2575
20
-8499.25
0
SEQEND
0
POLYLINE
8
L6D0
70
1
40
0
41
0
66
1
0
VERTEX
8
L6D0
10
3093
20
-8499.25
0
VERTEX
8
L6D0
10
3093
20
-7499.25
0
VERTEX
8
L6D0
10
3095
20
-7499.25
0
VERTEX
8
L6D0
10
3095
20
-8499.25
0
SEQEND
0
POLYLINE
8
L6D0
70
1
40
0
41
0
66
1
0
VERTEX
8
L6D0
10
3413
20
-8499.25
0
VERTEX
8
L6D0
10
3413
20
-7499.25
0
VERTEX
8
L6D0
10
3415
20
-7499.25
0
VERTEX
8
L6D0
10
3415
20
-8499.25
0
SEQEND
0
POLYLINE
8
L6D0
70
1
40
0
41
0
66
1
0
VERTEX
8
L6D0
10
2877
20
-8499.25
0
VERTEX
8
L6D0
10
2877
20
-7499.25
0
VERTEX
8
L6D0
10
2879
20
-7499.25
0
VERTEX
8
L6D0
10
2879
20
-8499.25
0
SEQEND
0
POLYLINE
8
L6D0
70
1
40
0
41
0
66
1
0
VERTEX
8
L6D0
10
2389
20
-8499.25
0
VERTEX
8
L6D0
10
2389
20
-7499.25
0
VERTEX
8
L6D0
10
2391
20
-7499.25
0
VERTEX
8
L6D0
10
2391
20
-8499.25
0
SEQEND
0
POLYLINE
8
L6D0
70
1
40
0
41
0
66
1
0
VERTEX
8
L6D0
10
2661
20
-8499.25
0
VERTEX
8
L6D0
10
2661
20
-7499.25
0
VERTEX
8
L6D0
10
2663
20
-7499.25
0
VERTEX
8
L6D0
10
2663
20
-8499.25
0
SEQEND
0
POLYLINE
8
L6D0
70
1
40
0
41
0
66
1
0
VERTEX
8
L6D0
10
2485
20
-8499.25
0
VERTEX
8
L6D0
10
2485
20
-7499.25
0
VERTEX
8
L6D0
10
2487
20
-7499.25
0
VERTEX
8
L6D0
10
2487
20
-8499.25
0
SEQEND
0
POLYLINE
8
L6D0
70
1
40
0
41
0
66
1
0
VERTEX
8
L6D0
10
3269
20
-8499.25
0
VERTEX
8
L6D0
10
3269
20
-7499.25
0
VERTEX
8
L6D0
10
3271
20
-7499.25
0
VERTEX
8
L6D0
10
3271
20
-8499.25
0
SEQEND
0
POLYLINE
8
L6D0
70
1
40
0
41
0
66
1
0
VERTEX
8
L6D0
10
3141
20
-8499.25
0
VERTEX
8
L6D0
10
3141
20
-7499.25
0
VERTEX
8
L6D0
10
3143
20
-7499.25
0
VERTEX
8
L6D0
10
3143
20
-8499.25
0
SEQEND
0
POLYLINE
8
L6D0
70
1
40
0
41
0
66
1
0
VERTEX
8
L6D0
10
2557
20
-8499.25
0
VERTEX
8
L6D0
10
2557
20
-7499.25
0
VERTEX
8
L6D0
10
2559
20
-7499.25
0
VERTEX
8
L6D0
10
2559
20
-8499.25
0
SEQEND
0
POLYLINE
8
L6D0
70
1
40
0
41
0
66
1
0
VERTEX
8
L6D0
10
3357
20
-8499.25
0
VERTEX
8
L6D0
10
3357
20
-7499.25
0
VERTEX
8
L6D0
10
3359
20
-7499.25
0
VERTEX
8
L6D0
10
3359
20
-8499.25
0
SEQEND
0
POLYLINE
8
L6D0
70
1
40
0
41
0
66
1
0
VERTEX
8
L6D0
10
2333
20
-8499.25
0
VERTEX
8
L6D0
10
2333
20
-7499.25
0
VERTEX
8
L6D0
10
2335
20
-7499.25
0
VERTEX
8
L6D0
10
2335
20
-8499.25
0
SEQEND
0
POLYLINE
8
L6D0
70
1
40
0
41
0
66
1
0
VERTEX
8
L6D0
10
2581
20
-8499.25
0
VERTEX
8
L6D0
10
2581
20
-7499.25
0
VERTEX
8
L6D0
10
2583
20
-7499.25
0
VERTEX
8
L6D0
10
2583
20
-8499.25
0
SEQEND
0
POLYLINE
8
L6D0
70
1
40
0
41
0
66
1
0
VERTEX
8
L6D0
10
2869
20
-8499.25
0
VERTEX
8
L6D0
10
2869
20
-7499.25
0
VERTEX
8
L6D0
10
2871
20
-7499.25
0
VERTEX
8
L6D0
10
2871
20
-8499.25
0
SEQEND
0
POLYLINE
8
L6D0
70
1
40
0
41
0
66
1
0
VERTEX
8
L6D0
10
3005
20
-8499.25
0
VERTEX
8
L6D0
10
3005
20
-7499.25
0
VERTEX
8
L6D0
10
3007
20
-7499.25
0
VERTEX
8
L6D0
10
3007
20
-8499.25
0
SEQEND
0
POLYLINE
8
L6D0
70
1
40
0
41
0
66
1
0
VERTEX
8
L6D0
10
3173
20
-8499.25
0
VERTEX
8
L6D0
10
3173
20
-7499.25
0
VERTEX
8
L6D0
10
3175
20
-7499.25
0
VERTEX
8
L6D0
10
3175
20
-8499.25
0
SEQEND
0
POLYLINE
8
L6D0
70
1
40
0
41
0
66
1
0
VERTEX
8
L6D0
10
2709
20
-8499.25
0
VERTEX
8
L6D0
10
2709
20
-7499.25
0
VERTEX
8
L6D0
10
2711
20
-7499.25
0
VERTEX
8
L6D0
10
2711
20
-8499.25
0
SEQEND
0
POLYLINE
8
L6D0
70
1
40
0
41
0
66
1
0
VERTEX
8
L6D0
10
2789
20
-8499.25
0
VERTEX
8
L6D0
10
2789
20
-7499.25
0
VERTEX
8
L6D0
10
2791
20
-7499.25
0
VERTEX
8
L6D0
10
2791
20
-8499.25
0
SEQEND
0
POLYLINE
8
L6D0
70
1
40
0
41
0
66
1
0
VERTEX
8
L6D0
10
3261
20
-8499.25
0
VERTEX
8
L6D0
10
3261
20
-7499.25
0
VERTEX
8
L6D0
10
3263
20
-7499.25
0
VERTEX
8
L6D0
10
3263
20
-8499.25
0
SEQEND
0
POLYLINE
8
L6D0
70
1
40
0
41
0
66
1
0
VERTEX
8
L6D0
10
2861
20
-8499.25
0
VERTEX
8
L6D0
10
2861
20
-7499.25
0
VERTEX
8
L6D0
10
2863
20
-7499.25
0
VERTEX
8
L6D0
10
2863
20
-8499.25
0
SEQEND
0
POLYLINE
8
L6D0
70
1
40
0
41
0
66
1
0
VERTEX
8
L6D0
10
3085
20
-8499.25
0
VERTEX
8
L6D0
10
3085
20
-7499.25
0
VERTEX
8
L6D0
10
3087
20
-7499.25
0
VERTEX
8
L6D0
10
3087
20
-8499.25
0
SEQEND
0
POLYLINE
8
L6D0
70
1
40
0
41
0
66
1
0
VERTEX
8
L6D0
10
2997
20
-8499.25
0
VERTEX
8
L6D0
10
2997
20
-7499.25
0
VERTEX
8
L6D0
10
2999
20
-7499.25
0
VERTEX
8
L6D0
10
2999
20
-8499.25
0
SEQEND
0
POLYLINE
8
L6D0
70
1
40
0
41
0
66
1
0
VERTEX
8
L6D0
10
2605
20
-8499.25
0
VERTEX
8
L6D0
10
2605
20
-7499.25
0
VERTEX
8
L6D0
10
2607
20
-7499.25
0
VERTEX
8
L6D0
10
2607
20
-8499.25
0
SEQEND
0
POLYLINE
8
L6D0
70
1
40
0
41
0
66
1
0
VERTEX
8
L6D0
10
3349
20
-8499.25
0
VERTEX
8
L6D0
10
3349
20
-7499.25
0
VERTEX
8
L6D0
10
3351
20
-7499.25
0
VERTEX
8
L6D0
10
3351
20
-8499.25
0
SEQEND
0
POLYLINE
8
L6D0
70
1
40
0
41
0
66
1
0
VERTEX
8
L6D0
10
2853
20
-8499.25
0
VERTEX
8
L6D0
10
2853
20
-7499.25
0
VERTEX
8
L6D0
10
2855
20
-7499.25
0
VERTEX
8
L6D0
10
2855
20
-8499.25
0
SEQEND
0
POLYLINE
8
L6D0
70
1
40
0
41
0
66
1
0
VERTEX
8
L6D0
10
2477
20
-8499.25
0
VERTEX
8
L6D0
10
2477
20
-7499.25
0
VERTEX
8
L6D0
10
2479
20
-7499.25
0
VERTEX
8
L6D0
10
2479
20
-8499.25
0
SEQEND
0
POLYLINE
8
L6D0
70
1
40
0
41
0
66
1
0
VERTEX
8
L6D0
10
3253
20
-8499.25
0
VERTEX
8
L6D0
10
3253
20
-7499.25
0
VERTEX
8
L6D0
10
3255
20
-7499.25
0
VERTEX
8
L6D0
10
3255
20
-8499.25
0
SEQEND
0
POLYLINE
8
L6D0
70
1
40
0
41
0
66
1
0
VERTEX
8
L6D0
10
2669
20
-8499.25
0
VERTEX
8
L6D0
10
2669
20
-7499.25
0
VERTEX
8
L6D0
10
2671
20
-7499.25
0
VERTEX
8
L6D0
10
2671
20
-8499.25
0
SEQEND
0
POLYLINE
8
L6D0
70
1
40
0
41
0
66
1
0
VERTEX
8
L6D0
10
2525
20
-8499.25
0
VERTEX
8
L6D0
10
2525
20
-7499.25
0
VERTEX
8
L6D0
10
2527
20
-7499.25
0
VERTEX
8
L6D0
10
2527
20
-8499.25
0
SEQEND
0
POLYLINE
8
L6D0
70
1
40
0
41
0
66
1
0
VERTEX
8
L6D0
10
2445
20
-8499.25
0
VERTEX
8
L6D0
10
2445
20
-7499.25
0
VERTEX
8
L6D0
10
2447
20
-7499.25
0
VERTEX
8
L6D0
10
2447
20
-8499.25
0
SEQEND
0
POLYLINE
8
L6D0
70
1
40
0
41
0
66
1
0
VERTEX
8
L6D0
10
2717
20
-8499.25
0
VERTEX
8
L6D0
10
2717
20
-7499.25
0
VERTEX
8
L6D0
10
2719
20
-7499.25
0
VERTEX
8
L6D0
10
2719
20
-8499.25
0
SEQEND
0
POLYLINE
8
L6D0
70
1
40
0
41
0
66
1
0
VERTEX
8
L6D0
10
2765
20
-8499.25
0
VERTEX
8
L6D0
10
2765
20
-7499.25
0
VERTEX
8
L6D0
10
2767
20
-7499.25
0
VERTEX
8
L6D0
10
2767
20
-8499.25
0
SEQEND
0
POLYLINE
8
L6D0
70
1
40
0
41
0
66
1
0
VERTEX
8
L6D0
10
3405
20
-8499.25
0
VERTEX
8
L6D0
10
3405
20
-7499.25
0
VERTEX
8
L6D0
10
3407
20
-7499.25
0
VERTEX
8
L6D0
10
3407
20
-8499.25
0
SEQEND
0
POLYLINE
8
L6D0
70
1
40
0
41
0
66
1
0
VERTEX
8
L6D0
10
2845
20
-8499.25
0
VERTEX
8
L6D0
10
2845
20
-7499.25
0
VERTEX
8
L6D0
10
2847
20
-7499.25
0
VERTEX
8
L6D0
10
2847
20
-8499.25
0
SEQEND
0
POLYLINE
8
L6D0
70
1
40
0
41
0
66
1
0
VERTEX
8
L6D0
10
2381
20
-8499.25
0
VERTEX
8
L6D0
10
2381
20
-7499.25
0
VERTEX
8
L6D0
10
2383
20
-7499.25
0
VERTEX
8
L6D0
10
2383
20
-8499.25
0
SEQEND
0
POLYLINE
8
L6D0
70
1
40
0
41
0
66
1
0
VERTEX
8
L6D0
10
3437
20
-8499.25
0
VERTEX
8
L6D0
10
3437
20
-7499.25
0
VERTEX
8
L6D0
10
3439
20
-7499.25
0
VERTEX
8
L6D0
10
3439
20
-8499.25
0
SEQEND
0
POLYLINE
8
L6D0
70
1
40
0
41
0
66
1
0
VERTEX
8
L6D0
10
2725
20
-8499.25
0
VERTEX
8
L6D0
10
2725
20
-7499.25
0
VERTEX
8
L6D0
10
2727
20
-7499.25
0
VERTEX
8
L6D0
10
2727
20
-8499.25
0
SEQEND
0
POLYLINE
8
L6D0
70
1
40
0
41
0
66
1
0
VERTEX
8
L6D0
10
2989
20
-8499.25
0
VERTEX
8
L6D0
10
2989
20
-7499.25
0
VERTEX
8
L6D0
10
2991
20
-7499.25
0
VERTEX
8
L6D0
10
2991
20
-8499.25
0
SEQEND
0
POLYLINE
8
L6D0
70
1
40
0
41
0
66
1
0
VERTEX
8
L6D0
10
3133
20
-8499.25
0
VERTEX
8
L6D0
10
3133
20
-7499.25
0
VERTEX
8
L6D0
10
3135
20
-7499.25
0
VERTEX
8
L6D0
10
3135
20
-8499.25
0
SEQEND
0
POLYLINE
8
L6D0
70
1
40
0
41
0
66
1
0
VERTEX
8
L6D0
10
3245
20
-8499.25
0
VERTEX
8
L6D0
10
3245
20
-7499.25
0
VERTEX
8
L6D0
10
3247
20
-7499.25
0
VERTEX
8
L6D0
10
3247
20
-8499.25
0
SEQEND
0
POLYLINE
8
L6D0
70
1
40
0
41
0
66
1
0
VERTEX
8
L6D0
10
2837
20
-8499.25
0
VERTEX
8
L6D0
10
2837
20
-7499.25
0
VERTEX
8
L6D0
10
2839
20
-7499.25
0
VERTEX
8
L6D0
10
2839
20
-8499.25
0
SEQEND
0
POLYLINE
8
L6D0
70
1
40
0
41
0
66
1
0
VERTEX
8
L6D0
10
3077
20
-8499.25
0
VERTEX
8
L6D0
10
3077
20
-7499.25
0
VERTEX
8
L6D0
10
3079
20
-7499.25
0
VERTEX
8
L6D0
10
3079
20
-8499.25
0
SEQEND
0
POLYLINE
8
L6D0
70
1
40
0
41
0
66
1
0
VERTEX
8
L6D0
10
2413
20
-8499.25
0
VERTEX
8
L6D0
10
2413
20
-7499.25
0
VERTEX
8
L6D0
10
2415
20
-7499.25
0
VERTEX
8
L6D0
10
2415
20
-8499.25
0
SEQEND
0
POLYLINE
8
L6D0
70
1
40
0
41
0
66
1
0
VERTEX
8
L6D0
10
3341
20
-8499.25
0
VERTEX
8
L6D0
10
3341
20
-7499.25
0
VERTEX
8
L6D0
10
3343
20
-7499.25
0
VERTEX
8
L6D0
10
3343
20
-8499.25
0
SEQEND
0
POLYLINE
8
L6D0
70
1
40
0
41
0
66
1
0
VERTEX
8
L6D0
10
2829
20
-8499.25
0
VERTEX
8
L6D0
10
2829
20
-7499.25
0
VERTEX
8
L6D0
10
2831
20
-7499.25
0
VERTEX
8
L6D0
10
2831
20
-8499.25
0
SEQEND
0
POLYLINE
8
L6D0
70
1
40
0
41
0
66
1
0
VERTEX
8
L6D0
10
2981
20
-8499.25
0
VERTEX
8
L6D0
10
2981
20
-7499.25
0
VERTEX
8
L6D0
10
2983
20
-7499.25
0
VERTEX
8
L6D0
10
2983
20
-8499.25
0
SEQEND
0
POLYLINE
8
L6D0
70
1
40
0
41
0
66
1
0
VERTEX
8
L6D0
10
3213
20
-8499.25
0
VERTEX
8
L6D0
10
3213
20
-7499.25
0
VERTEX
8
L6D0
10
3215
20
-7499.25
0
VERTEX
8
L6D0
10
3215
20
-8499.25
0
SEQEND
0
POLYLINE
8
L6D0
70
1
40
0
41
0
66
1
0
VERTEX
8
L6D0
10
2469
20
-8499.25
0
VERTEX
8
L6D0
10
2469
20
-7499.25
0
VERTEX
8
L6D0
10
2471
20
-7499.25
0
VERTEX
8
L6D0
10
2471
20
-8499.25
0
SEQEND
0
POLYLINE
8
L6D0
70
1
40
0
41
0
66
1
0
VERTEX
8
L6D0
10
3237
20
-8499.25
0
VERTEX
8
L6D0
10
3237
20
-7499.25
0
VERTEX
8
L6D0
10
3239
20
-7499.25
0
VERTEX
8
L6D0
10
3239
20
-8499.25
0
SEQEND
0
POLYLINE
8
L6D0
70
1
40
0
41
0
66
1
0
VERTEX
8
L6D0
10
3189
20
-8499.25
0
VERTEX
8
L6D0
10
3189
20
-7499.25
0
VERTEX
8
L6D0
10
3191
20
-7499.25
0
VERTEX
8
L6D0
10
3191
20
-8499.25
0
SEQEND
0
POLYLINE
8
L6D0
70
1
40
0
41
0
66
1
0
VERTEX
8
L6D0
10
2677
20
-8499.25
0
VERTEX
8
L6D0
10
2677
20
-7499.25
0
VERTEX
8
L6D0
10
2679
20
-7499.25
0
VERTEX
8
L6D0
10
2679
20
-8499.25
0
SEQEND
0
POLYLINE
8
L6D0
70
1
40
0
41
0
66
1
0
VERTEX
8
L6D0
10
2821
20
-8499.25
0
VERTEX
8
L6D0
10
2821
20
-7499.25
0
VERTEX
8
L6D0
10
2823
20
-7499.25
0
VERTEX
8
L6D0
10
2823
20
-8499.25
0
SEQEND
0
POLYLINE
8
L6D0
70
1
40
0
41
0
66
1
0
VERTEX
8
L6D0
10
2589
20
-8499.25
0
VERTEX
8
L6D0
10
2589
20
-7499.25
0
VERTEX
8
L6D0
10
2591
20
-7499.25
0
VERTEX
8
L6D0
10
2591
20
-8499.25
0
SEQEND
0
POLYLINE
8
L6D0
70
1
40
0
41
0
66
1
0
VERTEX
8
L6D0
10
2629
20
-8499.25
0
VERTEX
8
L6D0
10
2629
20
-7499.25
0
VERTEX
8
L6D0
10
2631
20
-7499.25
0
VERTEX
8
L6D0
10
2631
20
-8499.25
0
SEQEND
0
POLYLINE
8
L6D0
70
1
40
0
41
0
66
1
0
VERTEX
8
L6D0
10
3069
20
-8499.25
0
VERTEX
8
L6D0
10
3069
20
-7499.25
0
VERTEX
8
L6D0
10
3071
20
-7499.25
0
VERTEX
8
L6D0
10
3071
20
-8499.25
0
SEQEND
0
POLYLINE
8
L6D0
70
1
40
0
41
0
66
1
0
VERTEX
8
L6D0
10
2597
20
-8499.25
0
VERTEX
8
L6D0
10
2597
20
-7499.25
0
VERTEX
8
L6D0
10
2599
20
-7499.25
0
VERTEX
8
L6D0
10
2599
20
-8499.25
0
SEQEND
0
POLYLINE
8
L6D0
70
1
40
0
41
0
66
1
0
VERTEX
8
L6D0
10
2813
20
-8499.25
0
VERTEX
8
L6D0
10
2813
20
-7499.25
0
VERTEX
8
L6D0
10
2815
20
-7499.25
0
VERTEX
8
L6D0
10
2815
20
-8499.25
0
SEQEND
0
POLYLINE
8
L6D0
70
1
40
0
41
0
66
1
0
VERTEX
8
L6D0
10
2973
20
-8499.25
0
VERTEX
8
L6D0
10
2973
20
-7499.25
0
VERTEX
8
L6D0
10
2975
20
-7499.25
0
VERTEX
8
L6D0
10
2975
20
-8499.25
0
SEQEND
0
POLYLINE
8
L6D0
70
1
40
0
41
0
66
1
0
VERTEX
8
L6D0
10
3165
20
-8499.25
0
VERTEX
8
L6D0
10
3165
20
-7499.25
0
VERTEX
8
L6D0
10
3167
20
-7499.25
0
VERTEX
8
L6D0
10
3167
20
-8499.25
0
SEQEND
0
POLYLINE
8
L6D0
70
1
40
0
41
0
66
1
0
VERTEX
8
L6D0
10
3229
20
-8499.25
0
VERTEX
8
L6D0
10
3229
20
-7499.25
0
VERTEX
8
L6D0
10
3231
20
-7499.25
0
VERTEX
8
L6D0
10
3231
20
-8499.25
0
SEQEND
0
POLYLINE
8
L6D0
70
1
40
0
41
0
66
1
0
VERTEX
8
L6D0
10
3333
20
-8499.25
0
VERTEX
8
L6D0
10
3333
20
-7499.25
0
VERTEX
8
L6D0
10
3335
20
-7499.25
0
VERTEX
8
L6D0
10
3335
20
-8499.25
0
SEQEND
0
POLYLINE
8
L6D0
70
1
40
0
41
0
66
1
0
VERTEX
8
L6D0
10
3397
20
-8499.25
0
VERTEX
8
L6D0
10
3397
20
-7499.25
0
VERTEX
8
L6D0
10
3399
20
-7499.25
0
VERTEX
8
L6D0
10
3399
20
-8499.25
0
SEQEND
0
POLYLINE
8
L6D0
70
1
40
0
41
0
66
1
0
VERTEX
8
L6D0
10
2373
20
-8499.25
0
VERTEX
8
L6D0
10
2373
20
-7499.25
0
VERTEX
8
L6D0
10
2375
20
-7499.25
0
VERTEX
8
L6D0
10
2375
20
-8499.25
0
SEQEND
0
POLYLINE
8
L6D0
70
1
40
0
41
0
66
1
0
VERTEX
8
L6D0
10
2517
20
-8499.25
0
VERTEX
8
L6D0
10
2517
20
-7499.25
0
VERTEX
8
L6D0
10
2519
20
-7499.25
0
VERTEX
8
L6D0
10
2519
20
-8499.25
0
SEQEND
0
POLYLINE
8
L6D0
70
1
40
0
41
0
66
1
0
VERTEX
8
L6D0
10
2805
20
-8499.25
0
VERTEX
8
L6D0
10
2805
20
-7499.25
0
VERTEX
8
L6D0
10
2807
20
-7499.25
0
VERTEX
8
L6D0
10
2807
20
-8499.25
0
SEQEND
0
POLYLINE
8
L6D0
70
1
40
0
41
0
66
1
0
VERTEX
8
L6D0
10
2549
20
-8499.25
0
VERTEX
8
L6D0
10
2549
20
-7499.25
0
VERTEX
8
L6D0
10
2551
20
-7499.25
0
VERTEX
8
L6D0
10
2551
20
-8499.25
0
SEQEND
0
POLYLINE
8
L6D0
70
1
40
0
41
0
66
1
0
VERTEX
8
L6D0
10
3125
20
-8499.25
0
VERTEX
8
L6D0
10
3125
20
-7499.25
0
VERTEX
8
L6D0
10
3127
20
-7499.25
0
VERTEX
8
L6D0
10
3127
20
-8499.25
0
SEQEND
0
POLYLINE
8
L6D0
70
1
40
0
41
0
66
1
0
VERTEX
8
L6D0
10
2965
20
-8499.25
0
VERTEX
8
L6D0
10
2965
20
-7499.25
0
VERTEX
8
L6D0
10
2967
20
-7499.25
0
VERTEX
8
L6D0
10
2967
20
-8499.25
0
SEQEND
0
POLYLINE
8
L6D0
70
1
40
0
41
0
66
1
0
VERTEX
8
L6D0
10
2461
20
-8499.25
0
VERTEX
8
L6D0
10
2461
20
-7499.25
0
VERTEX
8
L6D0
10
2463
20
-7499.25
0
VERTEX
8
L6D0
10
2463
20
-8499.25
0
SEQEND
0
POLYLINE
8
L6D0
70
1
40
0
41
0
66
1
0
VERTEX
8
L6D0
10
3221
20
-8499.25
0
VERTEX
8
L6D0
10
3221
20
-7499.25
0
VERTEX
8
L6D0
10
3223
20
-7499.25
0
VERTEX
8
L6D0
10
3223
20
-8499.25
0
SEQEND
0
POLYLINE
8
L6D0
70
1
40
0
41
0
66
1
0
VERTEX
8
L6D0
10
2797
20
-8499.25
0
VERTEX
8
L6D0
10
2797
20
-7499.25
0
VERTEX
8
L6D0
10
2799
20
-7499.25
0
VERTEX
8
L6D0
10
2799
20
-8499.25
0
SEQEND
0
POLYLINE
8
L6D0
70
1
40
0
41
0
66
1
0
VERTEX
8
L6D0
10
2773
20
-8499.25
0
VERTEX
8
L6D0
10
2773
20
-7499.25
0
VERTEX
8
L6D0
10
2775
20
-7499.25
0
VERTEX
8
L6D0
10
2775
20
-8499.25
0
SEQEND
0
POLYLINE
8
L6D0
70
1
40
0
41
0
66
1
0
VERTEX
8
L6D0
10
2741
20
-8499.25
0
VERTEX
8
L6D0
10
2741
20
-7499.25
0
VERTEX
8
L6D0
10
2743
20
-7499.25
0
VERTEX
8
L6D0
10
2743
20
-8499.25
0
SEQEND
0
POLYLINE
8
L6D0
70
1
40
0
41
0
66
1
0
VERTEX
8
L6D0
10
2693
20
-8499.25
0
VERTEX
8
L6D0
10
2693
20
-7499.25
0
VERTEX
8
L6D0
10
2695
20
-7499.25
0
VERTEX
8
L6D0
10
2695
20
-8499.25
0
SEQEND
0
POLYLINE
8
L6D0
70
1
40
0
41
0
66
1
0
VERTEX
8
L6D0
10
3741
20
-8499.25
0
VERTEX
8
L6D0
10
3741
20
-7499.25
0
VERTEX
8
L6D0
10
3743
20
-7499.25
0
VERTEX
8
L6D0
10
3743
20
-8499.25
0
SEQEND
0
POLYLINE
8
L6D0
70
1
40
0
41
0
66
1
0
VERTEX
8
L6D0
10
3645
20
-8499.25
0
VERTEX
8
L6D0
10
3645
20
-7499.25
0
VERTEX
8
L6D0
10
3647
20
-7499.25
0
VERTEX
8
L6D0
10
3647
20
-8499.25
0
SEQEND
0
POLYLINE
8
L6D0
70
1
40
0
41
0
66
1
0
VERTEX
8
L6D0
10
3477
20
-8499.25
0
VERTEX
8
L6D0
10
3477
20
-7499.25
0
VERTEX
8
L6D0
10
3479
20
-7499.25
0
VERTEX
8
L6D0
10
3479
20
-8499.25
0
SEQEND
0
POLYLINE
8
L6D0
70
1
40
0
41
0
66
1
0
VERTEX
8
L6D0
10
4013
20
-8499.25
0
VERTEX
8
L6D0
10
4013
20
-7499.25
0
VERTEX
8
L6D0
10
4015
20
-7499.25
0
VERTEX
8
L6D0
10
4015
20
-8499.25
0
SEQEND
0
POLYLINE
8
L6D0
70
1
40
0
41
0
66
1
0
VERTEX
8
L6D0
10
3677
20
-8499.25
0
VERTEX
8
L6D0
10
3677
20
-7499.25
0
VERTEX
8
L6D0
10
3679
20
-7499.25
0
VERTEX
8
L6D0
10
3679
20
-8499.25
0
SEQEND
0
POLYLINE
8
L6D0
70
1
40
0
41
0
66
1
0
VERTEX
8
L6D0
10
3589
20
-8499.25
0
VERTEX
8
L6D0
10
3589
20
-7499.25
0
VERTEX
8
L6D0
10
3591
20
-7499.25
0
VERTEX
8
L6D0
10
3591
20
-8499.25
0
SEQEND
0
POLYLINE
8
L6D0
70
1
40
0
41
0
66
1
0
VERTEX
8
L6D0
10
4237
20
-8499.25
0
VERTEX
8
L6D0
10
4237
20
-7499.25
0
VERTEX
8
L6D0
10
4239
20
-7499.25
0
VERTEX
8
L6D0
10
4239
20
-8499.25
0
SEQEND
0
POLYLINE
8
L6D0
70
1
40
0
41
0
66
1
0
VERTEX
8
L6D0
10
3893
20
-8499.25
0
VERTEX
8
L6D0
10
3893
20
-7499.25
0
VERTEX
8
L6D0
10
3895
20
-7499.25
0
VERTEX
8
L6D0
10
3895
20
-8499.25
0
SEQEND
0
POLYLINE
8
L6D0
70
1
40
0
41
0
66
1
0
VERTEX
8
L6D0
10
3957
20
-8499.25
0
VERTEX
8
L6D0
10
3957
20
-7499.25
0
VERTEX
8
L6D0
10
3959
20
-7499.25
0
VERTEX
8
L6D0
10
3959
20
-8499.25
0
SEQEND
0
POLYLINE
8
L6D0
70
1
40
0
41
0
66
1
0
VERTEX
8
L6D0
10
4053
20
-8499.25
0
VERTEX
8
L6D0
10
4053
20
-7499.25
0
VERTEX
8
L6D0
10
4055
20
-7499.25
0
VERTEX
8
L6D0
10
4055
20
-8499.25
0
SEQEND
0
POLYLINE
8
L6D0
70
1
40
0
41
0
66
1
0
VERTEX
8
L6D0
10
3581
20
-8499.25
0
VERTEX
8
L6D0
10
3581
20
-7499.25
0
VERTEX
8
L6D0
10
3583
20
-7499.25
0
VERTEX
8
L6D0
10
3583
20
-8499.25
0
SEQEND
0
POLYLINE
8
L6D0
70
1
40
0
41
0
66
1
0
VERTEX
8
L6D0
10
3813
20
-8499.25
0
VERTEX
8
L6D0
10
3813
20
-7499.25
0
VERTEX
8
L6D0
10
3815
20
-7499.25
0
VERTEX
8
L6D0
10
3815
20
-8499.25
0
SEQEND
0
POLYLINE
8
L6D0
70
1
40
0
41
0
66
1
0
VERTEX
8
L6D0
10
4117
20
-8499.25
0
VERTEX
8
L6D0
10
4117
20
-7499.25
0
VERTEX
8
L6D0
10
4119
20
-7499.25
0
VERTEX
8
L6D0
10
4119
20
-8499.25
0
SEQEND
0
POLYLINE
8
L6D0
70
1
40
0
41
0
66
1
0
VERTEX
8
L6D0
10
3773
20
-8499.25
0
VERTEX
8
L6D0
10
3773
20
-7499.25
0
VERTEX
8
L6D0
10
3775
20
-7499.25
0
VERTEX
8
L6D0
10
3775
20
-8499.25
0
SEQEND
0
POLYLINE
8
L6D0
70
1
40
0
41
0
66
1
0
VERTEX
8
L6D0
10
3765
20
-8499.25
0
VERTEX
8
L6D0
10
3765
20
-7499.25
0
VERTEX
8
L6D0
10
3767
20
-7499.25
0
VERTEX
8
L6D0
10
3767
20
-8499.25
0
SEQEND
0
POLYLINE
8
L6D0
70
1
40
0
41
0
66
1
0
VERTEX
8
L6D0
10
4141
20
-8499.25
0
VERTEX
8
L6D0
10
4141
20
-7499.25
0
VERTEX
8
L6D0
10
4143
20
-7499.25
0
VERTEX
8
L6D0
10
4143
20
-8499.25
0
SEQEND
0
POLYLINE
8
L6D0
70
1
40
0
41
0
66
1
0
VERTEX
8
L6D0
10
3613
20
-8499.25
0
VERTEX
8
L6D0
10
3613
20
-7499.25
0
VERTEX
8
L6D0
10
3615
20
-7499.25
0
VERTEX
8
L6D0
10
3615
20
-8499.25
0
SEQEND
0
POLYLINE
8
L6D0
70
1
40
0
41
0
66
1
0
VERTEX
8
L6D0
10
3885
20
-8499.25
0
VERTEX
8
L6D0
10
3885
20
-7499.25
0
VERTEX
8
L6D0
10
3887
20
-7499.25
0
VERTEX
8
L6D0
10
3887
20
-8499.25
0
SEQEND
0
POLYLINE
8
L6D0
70
1
40
0
41
0
66
1
0
VERTEX
8
L6D0
10
3693
20
-8499.25
0
VERTEX
8
L6D0
10
3693
20
-7499.25
0
VERTEX
8
L6D0
10
3695
20
-7499.25
0
VERTEX
8
L6D0
10
3695
20
-8499.25
0
SEQEND
0
POLYLINE
8
L6D0
70
1
40
0
41
0
66
1
0
VERTEX
8
L6D0
10
4005
20
-8499.25
0
VERTEX
8
L6D0
10
4005
20
-7499.25
0
VERTEX
8
L6D0
10
4007
20
-7499.25
0
VERTEX
8
L6D0
10
4007
20
-8499.25
0
SEQEND
0
POLYLINE
8
L6D0
70
1
40
0
41
0
66
1
0
VERTEX
8
L6D0
10
3781
20
-8499.25
0
VERTEX
8
L6D0
10
3781
20
-7499.25
0
VERTEX
8
L6D0
10
3783
20
-7499.25
0
VERTEX
8
L6D0
10
3783
20
-8499.25
0
SEQEND
0
POLYLINE
8
L6D0
70
1
40
0
41
0
66
1
0
VERTEX
8
L6D0
10
4085
20
-8499.25
0
VERTEX
8
L6D0
10
4085
20
-7499.25
0
VERTEX
8
L6D0
10
4087
20
-7499.25
0
VERTEX
8
L6D0
10
4087
20
-8499.25
0
SEQEND
0
POLYLINE
8
L6D0
70
1
40
0
41
0
66
1
0
VERTEX
8
L6D0
10
3629
20
-8499.25
0
VERTEX
8
L6D0
10
3629
20
-7499.25
0
VERTEX
8
L6D0
10
3631
20
-7499.25
0
VERTEX
8
L6D0
10
3631
20
-8499.25
0
SEQEND
0
POLYLINE
8
L6D0
70
1
40
0
41
0
66
1
0
VERTEX
8
L6D0
10
3949
20
-8499.25
0
VERTEX
8
L6D0
10
3949
20
-7499.25
0
VERTEX
8
L6D0
10
3951
20
-7499.25
0
VERTEX
8
L6D0
10
3951
20
-8499.25
0
SEQEND
0
POLYLINE
8
L6D0
70
1
40
0
41
0
66
1
0
VERTEX
8
L6D0
10
3605
20
-8499.25
0
VERTEX
8
L6D0
10
3605
20
-7499.25
0
VERTEX
8
L6D0
10
3607
20
-7499.25
0
VERTEX
8
L6D0
10
3607
20
-8499.25
0
SEQEND
0
POLYLINE
8
L6D0
70
1
40
0
41
0
66
1
0
VERTEX
8
L6D0
10
3525
20
-8499.25
0
VERTEX
8
L6D0
10
3525
20
-7499.25
0
VERTEX
8
L6D0
10
3527
20
-7499.25
0
VERTEX
8
L6D0
10
3527
20
-8499.25
0
SEQEND
0
POLYLINE
8
L6D0
70
1
40
0
41
0
66
1
0
VERTEX
8
L6D0
10
3725
20
-8499.25
0
VERTEX
8
L6D0
10
3725
20
-7499.25
0
VERTEX
8
L6D0
10
3727
20
-7499.25
0
VERTEX
8
L6D0
10
3727
20
-8499.25
0
SEQEND
0
POLYLINE
8
L6D0
70
1
40
0
41
0
66
1
0
VERTEX
8
L6D0
10
3877
20
-8499.25
0
VERTEX
8
L6D0
10
3877
20
-7499.25
0
VERTEX
8
L6D0
10
3879
20
-7499.25
0
VERTEX
8
L6D0
10
3879
20
-8499.25
0
SEQEND
0
POLYLINE
8
L6D0
70
1
40
0
41
0
66
1
0
VERTEX
8
L6D0
10
3557
20
-8499.25
0
VERTEX
8
L6D0
10
3557
20
-7499.25
0
VERTEX
8
L6D0
10
3559
20
-7499.25
0
VERTEX
8
L6D0
10
3559
20
-8499.25
0
SEQEND
0
POLYLINE
8
L6D0
70
1
40
0
41
0
66
1
0
VERTEX
8
L6D0
10
3501
20
-8499.25
0
VERTEX
8
L6D0
10
3501
20
-7499.25
0
VERTEX
8
L6D0
10
3503
20
-7499.25
0
VERTEX
8
L6D0
10
3503
20
-8499.25
0
SEQEND
0
POLYLINE
8
L6D0
70
1
40
0
41
0
66
1
0
VERTEX
8
L6D0
10
4045
20
-8499.25
0
VERTEX
8
L6D0
10
4045
20
-7499.25
0
VERTEX
8
L6D0
10
4047
20
-7499.25
0
VERTEX
8
L6D0
10
4047
20
-8499.25
0
SEQEND
0
POLYLINE
8
L6D0
70
1
40
0
41
0
66
1
0
VERTEX
8
L6D0
10
3669
20
-8499.25
0
VERTEX
8
L6D0
10
3669
20
-7499.25
0
VERTEX
8
L6D0
10
3671
20
-7499.25
0
VERTEX
8
L6D0
10
3671
20
-8499.25
0
SEQEND
0
POLYLINE
8
L6D0
70
1
40
0
41
0
66
1
0
VERTEX
8
L6D0
10
3789
20
-8499.25
0
VERTEX
8
L6D0
10
3789
20
-7499.25
0
VERTEX
8
L6D0
10
3791
20
-7499.25
0
VERTEX
8
L6D0
10
3791
20
-8499.25
0
SEQEND
0
POLYLINE
8
L6D0
70
1
40
0
41
0
66
1
0
VERTEX
8
L6D0
10
3653
20
-8499.25
0
VERTEX
8
L6D0
10
3653
20
-7499.25
0
VERTEX
8
L6D0
10
3655
20
-7499.25
0
VERTEX
8
L6D0
10
3655
20
-8499.25
0
SEQEND
0
POLYLINE
8
L6D0
70
1
40
0
41
0
66
1
0
VERTEX
8
L6D0
10
3941
20
-8499.25
0
VERTEX
8
L6D0
10
3941
20
-7499.25
0
VERTEX
8
L6D0
10
3943
20
-7499.25
0
VERTEX
8
L6D0
10
3943
20
-8499.25
0
SEQEND
0
POLYLINE
8
L6D0
70
1
40
0
41
0
66
1
0
VERTEX
8
L6D0
10
3997
20
-8499.25
0
VERTEX
8
L6D0
10
3997
20
-7499.25
0
VERTEX
8
L6D0
10
3999
20
-7499.25
0
VERTEX
8
L6D0
10
3999
20
-8499.25
0
SEQEND
0
POLYLINE
8
L6D0
70
1
40
0
41
0
66
1
0
VERTEX
8
L6D0
10
3733
20
-8499.25
0
VERTEX
8
L6D0
10
3733
20
-7499.25
0
VERTEX
8
L6D0
10
3735
20
-7499.25
0
VERTEX
8
L6D0
10
3735
20
-8499.25
0
SEQEND
0
POLYLINE
8
L6D0
70
1
40
0
41
0
66
1
0
VERTEX
8
L6D0
10
3869
20
-8499.25
0
VERTEX
8
L6D0
10
3869
20
-7499.25
0
VERTEX
8
L6D0
10
3871
20
-7499.25
0
VERTEX
8
L6D0
10
3871
20
-8499.25
0
SEQEND
0
POLYLINE
8
L6D0
70
1
40
0
41
0
66
1
0
VERTEX
8
L6D0
10
4189
20
-8499.25
0
VERTEX
8
L6D0
10
4189
20
-7499.25
0
VERTEX
8
L6D0
10
4191
20
-7499.25
0
VERTEX
8
L6D0
10
4191
20
-8499.25
0
SEQEND
0
POLYLINE
8
L6D0
70
1
40
0
41
0
66
1
0
VERTEX
8
L6D0
10
4157
20
-8499.25
0
VERTEX
8
L6D0
10
4157
20
-7499.25
0
VERTEX
8
L6D0
10
4159
20
-7499.25
0
VERTEX
8
L6D0
10
4159
20
-8499.25
0
SEQEND
0
POLYLINE
8
L6D0
70
1
40
0
41
0
66
1
0
VERTEX
8
L6D0
10
4229
20
-8499.25
0
VERTEX
8
L6D0
10
4229
20
-7499.25
0
VERTEX
8
L6D0
10
4231
20
-7499.25
0
VERTEX
8
L6D0
10
4231
20
-8499.25
0
SEQEND
0
POLYLINE
8
L6D0
70
1
40
0
41
0
66
1
0
VERTEX
8
L6D0
10
3541
20
-8499.25
0
VERTEX
8
L6D0
10
3541
20
-7499.25
0
VERTEX
8
L6D0
10
3543
20
-7499.25
0
VERTEX
8
L6D0
10
3543
20
-8499.25
0
SEQEND
0
POLYLINE
8
L6D0
70
1
40
0
41
0
66
1
0
VERTEX
8
L6D0
10
3749
20
-8499.25
0
VERTEX
8
L6D0
10
3749
20
-7499.25
0
VERTEX
8
L6D0
10
3751
20
-7499.25
0
VERTEX
8
L6D0
10
3751
20
-8499.25
0
SEQEND
0
POLYLINE
8
L6D0
70
1
40
0
41
0
66
1
0
VERTEX
8
L6D0
10
4109
20
-8499.25
0
VERTEX
8
L6D0
10
4109
20
-7499.25
0
VERTEX
8
L6D0
10
4111
20
-7499.25
0
VERTEX
8
L6D0
10
4111
20
-8499.25
0
SEQEND
0
POLYLINE
8
L6D0
70
1
40
0
41
0
66
1
0
VERTEX
8
L6D0
10
3661
20
-8499.25
0
VERTEX
8
L6D0
10
3661
20
-7499.25
0
VERTEX
8
L6D0
10
3663
20
-7499.25
0
VERTEX
8
L6D0
10
3663
20
-8499.25
0
SEQEND
0
POLYLINE
8
L6D0
70
1
40
0
41
0
66
1
0
VERTEX
8
L6D0
10
4077
20
-8499.25
0
VERTEX
8
L6D0
10
4077
20
-7499.25
0
VERTEX
8
L6D0
10
4079
20
-7499.25
0
VERTEX
8
L6D0
10
4079
20
-8499.25
0
SEQEND
0
POLYLINE
8
L6D0
70
1
40
0
41
0
66
1
0
VERTEX
8
L6D0
10
3933
20
-8499.25
0
VERTEX
8
L6D0
10
3933
20
-7499.25
0
VERTEX
8
L6D0
10
3935
20
-7499.25
0
VERTEX
8
L6D0
10
3935
20
-8499.25
0
SEQEND
0
POLYLINE
8
L6D0
70
1
40
0
41
0
66
1
0
VERTEX
8
L6D0
10
3797
20
-8499.25
0
VERTEX
8
L6D0
10
3797
20
-7499.25
0
VERTEX
8
L6D0
10
3799
20
-7499.25
0
VERTEX
8
L6D0
10
3799
20
-8499.25
0
SEQEND
0
POLYLINE
8
L6D0
70
1
40
0
41
0
66
1
0
VERTEX
8
L6D0
10
3861
20
-8499.25
0
VERTEX
8
L6D0
10
3861
20
-7499.25
0
VERTEX
8
L6D0
10
3863
20
-7499.25
0
VERTEX
8
L6D0
10
3863
20
-8499.25
0
SEQEND
0
POLYLINE
8
L6D0
70
1
40
0
41
0
66
1
0
VERTEX
8
L6D0
10
4173
20
-8499.25
0
VERTEX
8
L6D0
10
4173
20
-7499.25
0
VERTEX
8
L6D0
10
4175
20
-7499.25
0
VERTEX
8
L6D0
10
4175
20
-8499.25
0
SEQEND
0
POLYLINE
8
L6D0
70
1
40
0
41
0
66
1
0
VERTEX
8
L6D0
10
4037
20
-8499.25
0
VERTEX
8
L6D0
10
4037
20
-7499.25
0
VERTEX
8
L6D0
10
4039
20
-7499.25
0
VERTEX
8
L6D0
10
4039
20
-8499.25
0
SEQEND
0
POLYLINE
8
L6D0
70
1
40
0
41
0
66
1
0
VERTEX
8
L6D0
10
3989
20
-8499.25
0
VERTEX
8
L6D0
10
3989
20
-7499.25
0
VERTEX
8
L6D0
10
3991
20
-7499.25
0
VERTEX
8
L6D0
10
3991
20
-8499.25
0
SEQEND
0
POLYLINE
8
L6D0
70
1
40
0
41
0
66
1
0
VERTEX
8
L6D0
10
4133
20
-8499.25
0
VERTEX
8
L6D0
10
4133
20
-7499.25
0
VERTEX
8
L6D0
10
4135
20
-7499.25
0
VERTEX
8
L6D0
10
4135
20
-8499.25
0
SEQEND
0
POLYLINE
8
L6D0
70
1
40
0
41
0
66
1
0
VERTEX
8
L6D0
10
3461
20
-8499.25
0
VERTEX
8
L6D0
10
3461
20
-7499.25
0
VERTEX
8
L6D0
10
3463
20
-7499.25
0
VERTEX
8
L6D0
10
3463
20
-8499.25
0
SEQEND
0
POLYLINE
8
L6D0
70
1
40
0
41
0
66
1
0
VERTEX
8
L6D0
10
3805
20
-8499.25
0
VERTEX
8
L6D0
10
3805
20
-7499.25
0
VERTEX
8
L6D0
10
3807
20
-7499.25
0
VERTEX
8
L6D0
10
3807
20
-8499.25
0
SEQEND
0
POLYLINE
8
L6D0
70
1
40
0
41
0
66
1
0
VERTEX
8
L6D0
10
4221
20
-8499.25
0
VERTEX
8
L6D0
10
4221
20
-7499.25
0
VERTEX
8
L6D0
10
4223
20
-7499.25
0
VERTEX
8
L6D0
10
4223
20
-8499.25
0
SEQEND
0
POLYLINE
8
L6D0
70
1
40
0
41
0
66
1
0
VERTEX
8
L6D0
10
3717
20
-8499.25
0
VERTEX
8
L6D0
10
3717
20
-7499.25
0
VERTEX
8
L6D0
10
3719
20
-7499.25
0
VERTEX
8
L6D0
10
3719
20
-8499.25
0
SEQEND
0
POLYLINE
8
L6D0
70
1
40
0
41
0
66
1
0
VERTEX
8
L6D0
10
3853
20
-8499.25
0
VERTEX
8
L6D0
10
3853
20
-7499.25
0
VERTEX
8
L6D0
10
3855
20
-7499.25
0
VERTEX
8
L6D0
10
3855
20
-8499.25
0
SEQEND
0
POLYLINE
8
L6D0
70
1
40
0
41
0
66
1
0
VERTEX
8
L6D0
10
3925
20
-8499.25
0
VERTEX
8
L6D0
10
3925
20
-7499.25
0
VERTEX
8
L6D0
10
3927
20
-7499.25
0
VERTEX
8
L6D0
10
3927
20
-8499.25
0
SEQEND
0
POLYLINE
8
L6D0
70
1
40
0
41
0
66
1
0
VERTEX
8
L6D0
10
3493
20
-8499.25
0
VERTEX
8
L6D0
10
3493
20
-7499.25
0
VERTEX
8
L6D0
10
3495
20
-7499.25
0
VERTEX
8
L6D0
10
3495
20
-8499.25
0
SEQEND
0
POLYLINE
8
L6D0
70
1
40
0
41
0
66
1
0
VERTEX
8
L6D0
10
3597
20
-8499.25
0
VERTEX
8
L6D0
10
3597
20
-7499.25
0
VERTEX
8
L6D0
10
3599
20
-7499.25
0
VERTEX
8
L6D0
10
3599
20
-8499.25
0
SEQEND
0
POLYLINE
8
L6D0
70
1
40
0
41
0
66
1
0
VERTEX
8
L6D0
10
3517
20
-8499.25
0
VERTEX
8
L6D0
10
3517
20
-7499.25
0
VERTEX
8
L6D0
10
3519
20
-7499.25
0
VERTEX
8
L6D0
10
3519
20
-8499.25
0
SEQEND
0
POLYLINE
8
L6D0
70
1
40
0
41
0
66
1
0
VERTEX
8
L6D0
10
3453
20
-8499.25
0
VERTEX
8
L6D0
10
3453
20
-7499.25
0
VERTEX
8
L6D0
10
3455
20
-7499.25
0
VERTEX
8
L6D0
10
3455
20
-8499.25
0
SEQEND
0
POLYLINE
8
L6D0
70
1
40
0
41
0
66
1
0
VERTEX
8
L6D0
10
3981
20
-8499.25
0
VERTEX
8
L6D0
10
3981
20
-7499.25
0
VERTEX
8
L6D0
10
3983
20
-7499.25
0
VERTEX
8
L6D0
10
3983
20
-8499.25
0
SEQEND
0
POLYLINE
8
L6D0
70
1
40
0
41
0
66
1
0
VERTEX
8
L6D0
10
3701
20
-8499.25
0
VERTEX
8
L6D0
10
3701
20
-7499.25
0
VERTEX
8
L6D0
10
3703
20
-7499.25
0
VERTEX
8
L6D0
10
3703
20
-8499.25
0
SEQEND
0
POLYLINE
8
L6D0
70
1
40
0
41
0
66
1
0
VERTEX
8
L6D0
10
3565
20
-8499.25
0
VERTEX
8
L6D0
10
3565
20
-7499.25
0
VERTEX
8
L6D0
10
3567
20
-7499.25
0
VERTEX
8
L6D0
10
3567
20
-8499.25
0
SEQEND
0
POLYLINE
8
L6D0
70
1
40
0
41
0
66
1
0
VERTEX
8
L6D0
10
3845
20
-8499.25
0
VERTEX
8
L6D0
10
3845
20
-7499.25
0
VERTEX
8
L6D0
10
3847
20
-7499.25
0
VERTEX
8
L6D0
10
3847
20
-8499.25
0
SEQEND
0
POLYLINE
8
L6D0
70
1
40
0
41
0
66
1
0
VERTEX
8
L6D0
10
4069
20
-8499.25
0
VERTEX
8
L6D0
10
4069
20
-7499.25
0
VERTEX
8
L6D0
10
4071
20
-7499.25
0
VERTEX
8
L6D0
10
4071
20
-8499.25
0
SEQEND
0
POLYLINE
8
L6D0
70
1
40
0
41
0
66
1
0
VERTEX
8
L6D0
10
4029
20
-8499.25
0
VERTEX
8
L6D0
10
4029
20
-7499.25
0
VERTEX
8
L6D0
10
4031
20
-7499.25
0
VERTEX
8
L6D0
10
4031
20
-8499.25
0
SEQEND
0
POLYLINE
8
L6D0
70
1
40
0
41
0
66
1
0
VERTEX
8
L6D0
10
3637
20
-8499.25
0
VERTEX
8
L6D0
10
3637
20
-7499.25
0
VERTEX
8
L6D0
10
3639
20
-7499.25
0
VERTEX
8
L6D0
10
3639
20
-8499.25
0
SEQEND
0
POLYLINE
8
L6D0
70
1
40
0
41
0
66
1
0
VERTEX
8
L6D0
10
4101
20
-8499.25
0
VERTEX
8
L6D0
10
4101
20
-7499.25
0
VERTEX
8
L6D0
10
4103
20
-7499.25
0
VERTEX
8
L6D0
10
4103
20
-8499.25
0
SEQEND
0
POLYLINE
8
L6D0
70
1
40
0
41
0
66
1
0
VERTEX
8
L6D0
10
3917
20
-8499.25
0
VERTEX
8
L6D0
10
3917
20
-7499.25
0
VERTEX
8
L6D0
10
3919
20
-7499.25
0
VERTEX
8
L6D0
10
3919
20
-8499.25
0
SEQEND
0
POLYLINE
8
L6D0
70
1
40
0
41
0
66
1
0
VERTEX
8
L6D0
10
3621
20
-8499.25
0
VERTEX
8
L6D0
10
3621
20
-7499.25
0
VERTEX
8
L6D0
10
3623
20
-7499.25
0
VERTEX
8
L6D0
10
3623
20
-8499.25
0
SEQEND
0
POLYLINE
8
L6D0
70
1
40
0
41
0
66
1
0
VERTEX
8
L6D0
10
3469
20
-8499.25
0
VERTEX
8
L6D0
10
3469
20
-7499.25
0
VERTEX
8
L6D0
10
3471
20
-7499.25
0
VERTEX
8
L6D0
10
3471
20
-8499.25
0
SEQEND
0
POLYLINE
8
L6D0
70
1
40
0
41
0
66
1
0
VERTEX
8
L6D0
10
4197
20
-8499.25
0
VERTEX
8
L6D0
10
4197
20
-7499.25
0
VERTEX
8
L6D0
10
4199
20
-7499.25
0
VERTEX
8
L6D0
10
4199
20
-8499.25
0
SEQEND
0
POLYLINE
8
L6D0
70
1
40
0
41
0
66
1
0
VERTEX
8
L6D0
10
4253
20
-8499.25
0
VERTEX
8
L6D0
10
4253
20
-7499.25
0
VERTEX
8
L6D0
10
4255
20
-7499.25
0
VERTEX
8
L6D0
10
4255
20
-8499.25
0
SEQEND
0
POLYLINE
8
L6D0
70
1
40
0
41
0
66
1
0
VERTEX
8
L6D0
10
3837
20
-8499.25
0
VERTEX
8
L6D0
10
3837
20
-7499.25
0
VERTEX
8
L6D0
10
3839
20
-7499.25
0
VERTEX
8
L6D0
10
3839
20
-8499.25
0
SEQEND
0
POLYLINE
8
L6D0
70
1
40
0
41
0
66
1
0
VERTEX
8
L6D0
10
3709
20
-8499.25
0
VERTEX
8
L6D0
10
3709
20
-7499.25
0
VERTEX
8
L6D0
10
3711
20
-7499.25
0
VERTEX
8
L6D0
10
3711
20
-8499.25
0
SEQEND
0
POLYLINE
8
L6D0
70
1
40
0
41
0
66
1
0
VERTEX
8
L6D0
10
4149
20
-8499.25
0
VERTEX
8
L6D0
10
4149
20
-7499.25
0
VERTEX
8
L6D0
10
4151
20
-7499.25
0
VERTEX
8
L6D0
10
4151
20
-8499.25
0
SEQEND
0
POLYLINE
8
L6D0
70
1
40
0
41
0
66
1
0
VERTEX
8
L6D0
10
3973
20
-8499.25
0
VERTEX
8
L6D0
10
3973
20
-7499.25
0
VERTEX
8
L6D0
10
3975
20
-7499.25
0
VERTEX
8
L6D0
10
3975
20
-8499.25
0
SEQEND
0
POLYLINE
8
L6D0
70
1
40
0
41
0
66
1
0
VERTEX
8
L6D0
10
4125
20
-8499.25
0
VERTEX
8
L6D0
10
4125
20
-7499.25
0
VERTEX
8
L6D0
10
4127
20
-7499.25
0
VERTEX
8
L6D0
10
4127
20
-8499.25
0
SEQEND
0
POLYLINE
8
L6D0
70
1
40
0
41
0
66
1
0
VERTEX
8
L6D0
10
3909
20
-8499.25
0
VERTEX
8
L6D0
10
3909
20
-7499.25
0
VERTEX
8
L6D0
10
3911
20
-7499.25
0
VERTEX
8
L6D0
10
3911
20
-8499.25
0
SEQEND
0
POLYLINE
8
L6D0
70
1
40
0
41
0
66
1
0
VERTEX
8
L6D0
10
3549
20
-8499.25
0
VERTEX
8
L6D0
10
3549
20
-7499.25
0
VERTEX
8
L6D0
10
3551
20
-7499.25
0
VERTEX
8
L6D0
10
3551
20
-8499.25
0
SEQEND
0
POLYLINE
8
L6D0
70
1
40
0
41
0
66
1
0
VERTEX
8
L6D0
10
4021
20
-8499.25
0
VERTEX
8
L6D0
10
4021
20
-7499.25
0
VERTEX
8
L6D0
10
4023
20
-7499.25
0
VERTEX
8
L6D0
10
4023
20
-8499.25
0
SEQEND
0
POLYLINE
8
L6D0
70
1
40
0
41
0
66
1
0
VERTEX
8
L6D0
10
3829
20
-8499.25
0
VERTEX
8
L6D0
10
3829
20
-7499.25
0
VERTEX
8
L6D0
10
3831
20
-7499.25
0
VERTEX
8
L6D0
10
3831
20
-8499.25
0
SEQEND
0
POLYLINE
8
L6D0
70
1
40
0
41
0
66
1
0
VERTEX
8
L6D0
10
4213
20
-8499.25
0
VERTEX
8
L6D0
10
4213
20
-7499.25
0
VERTEX
8
L6D0
10
4215
20
-7499.25
0
VERTEX
8
L6D0
10
4215
20
-8499.25
0
SEQEND
0
POLYLINE
8
L6D0
70
1
40
0
41
0
66
1
0
VERTEX
8
L6D0
10
3533
20
-8499.25
0
VERTEX
8
L6D0
10
3533
20
-7499.25
0
VERTEX
8
L6D0
10
3535
20
-7499.25
0
VERTEX
8
L6D0
10
3535
20
-8499.25
0
SEQEND
0
POLYLINE
8
L6D0
70
1
40
0
41
0
66
1
0
VERTEX
8
L6D0
10
4205
20
-8499.25
0
VERTEX
8
L6D0
10
4205
20
-7499.25
0
VERTEX
8
L6D0
10
4207
20
-7499.25
0
VERTEX
8
L6D0
10
4207
20
-8499.25
0
SEQEND
0
POLYLINE
8
L6D0
70
1
40
0
41
0
66
1
0
VERTEX
8
L6D0
10
3685
20
-8499.25
0
VERTEX
8
L6D0
10
3685
20
-7499.25
0
VERTEX
8
L6D0
10
3687
20
-7499.25
0
VERTEX
8
L6D0
10
3687
20
-8499.25
0
SEQEND
0
POLYLINE
8
L6D0
70
1
40
0
41
0
66
1
0
VERTEX
8
L6D0
10
3485
20
-8499.25
0
VERTEX
8
L6D0
10
3485
20
-7499.25
0
VERTEX
8
L6D0
10
3487
20
-7499.25
0
VERTEX
8
L6D0
10
3487
20
-8499.25
0
SEQEND
0
POLYLINE
8
L6D0
70
1
40
0
41
0
66
1
0
VERTEX
8
L6D0
10
4061
20
-8499.25
0
VERTEX
8
L6D0
10
4061
20
-7499.25
0
VERTEX
8
L6D0
10
4063
20
-7499.25
0
VERTEX
8
L6D0
10
4063
20
-8499.25
0
SEQEND
0
POLYLINE
8
L6D0
70
1
40
0
41
0
66
1
0
VERTEX
8
L6D0
10
4165
20
-8499.25
0
VERTEX
8
L6D0
10
4165
20
-7499.25
0
VERTEX
8
L6D0
10
4167
20
-7499.25
0
VERTEX
8
L6D0
10
4167
20
-8499.25
0
SEQEND
0
POLYLINE
8
L6D0
70
1
40
0
41
0
66
1
0
VERTEX
8
L6D0
10
3757
20
-8499.25
0
VERTEX
8
L6D0
10
3757
20
-7499.25
0
VERTEX
8
L6D0
10
3759
20
-7499.25
0
VERTEX
8
L6D0
10
3759
20
-8499.25
0
SEQEND
0
POLYLINE
8
L6D0
70
1
40
0
41
0
66
1
0
VERTEX
8
L6D0
10
4245
20
-8499.25
0
VERTEX
8
L6D0
10
4245
20
-7499.25
0
VERTEX
8
L6D0
10
4247
20
-7499.25
0
VERTEX
8
L6D0
10
4247
20
-8499.25
0
SEQEND
0
POLYLINE
8
L6D0
70
1
40
0
41
0
66
1
0
VERTEX
8
L6D0
10
3573
20
-8499.25
0
VERTEX
8
L6D0
10
3573
20
-7499.25
0
VERTEX
8
L6D0
10
3575
20
-7499.25
0
VERTEX
8
L6D0
10
3575
20
-8499.25
0
SEQEND
0
POLYLINE
8
L6D0
70
1
40
0
41
0
66
1
0
VERTEX
8
L6D0
10
3821
20
-8499.25
0
VERTEX
8
L6D0
10
3821
20
-7499.25
0
VERTEX
8
L6D0
10
3823
20
-7499.25
0
VERTEX
8
L6D0
10
3823
20
-8499.25
0
SEQEND
0
POLYLINE
8
L6D0
70
1
40
0
41
0
66
1
0
VERTEX
8
L6D0
10
3965
20
-8499.25
0
VERTEX
8
L6D0
10
3965
20
-7499.25
0
VERTEX
8
L6D0
10
3967
20
-7499.25
0
VERTEX
8
L6D0
10
3967
20
-8499.25
0
SEQEND
0
POLYLINE
8
L6D0
70
1
40
0
41
0
66
1
0
VERTEX
8
L6D0
10
3901
20
-8499.25
0
VERTEX
8
L6D0
10
3901
20
-7499.25
0
VERTEX
8
L6D0
10
3903
20
-7499.25
0
VERTEX
8
L6D0
10
3903
20
-8499.25
0
SEQEND
0
POLYLINE
8
L6D0
70
1
40
0
41
0
66
1
0
VERTEX
8
L6D0
10
4093
20
-8499.25
0
VERTEX
8
L6D0
10
4093
20
-7499.25
0
VERTEX
8
L6D0
10
4095
20
-7499.25
0
VERTEX
8
L6D0
10
4095
20
-8499.25
0
SEQEND
0
POLYLINE
8
L6D0
70
1
40
0
41
0
66
1
0
VERTEX
8
L6D0
10
4181
20
-8499.25
0
VERTEX
8
L6D0
10
4181
20
-7499.25
0
VERTEX
8
L6D0
10
4183
20
-7499.25
0
VERTEX
8
L6D0
10
4183
20
-8499.25
0
SEQEND
0
POLYLINE
8
L6D0
70
1
40
0
41
0
66
1
0
VERTEX
8
L6D0
10
3509
20
-8499.25
0
VERTEX
8
L6D0
10
3509
20
-7499.25
0
VERTEX
8
L6D0
10
3511
20
-7499.25
0
VERTEX
8
L6D0
10
3511
20
-8499.25
0
SEQEND
0
POLYLINE
8
L6D0
70
1
40
0
41
0
66
1
0
VERTEX
8
L6D0
10
2325
20
-7510.448
0
VERTEX
8
L6D0
10
2325
20
-7499.25
0
VERTEX
8
L6D0
10
2327
20
-7499.25
0
VERTEX
8
L6D0
10
2327
20
-7510.448
0
SEQEND
0
POLYLINE
8
L6D0
70
1
40
0
41
0
66
1
0
VERTEX
8
L6D0
10
3189
20
-7472.75
0
VERTEX
8
L6D0
10
3189
20
-7397.75
0
VERTEX
8
L6D0
10
3191
20
-7397.75
0
VERTEX
8
L6D0
10
3191
20
-7472.75
0
SEQEND
0
POLYLINE
8
L6D0
70
1
40
0
41
0
66
1
0
VERTEX
8
L6D0
10
3177
20
-7474.25
0
VERTEX
8
L6D0
10
3177
20
-7399.25
0
VERTEX
8
L6D0
10
3179
20
-7399.25
0
VERTEX
8
L6D0
10
3179
20
-7474.25
0
SEQEND
0
POLYLINE
8
L6D0
70
1
40
0
41
0
66
1
0
VERTEX
8
L6D0
10
3201
20
-7474.25
0
VERTEX
8
L6D0
10
3201
20
-7399.25
0
VERTEX
8
L6D0
10
3203
20
-7399.25
0
VERTEX
8
L6D0
10
3203
20
-7474.25
0
SEQEND
0
POLYLINE
8
L6D0
70
1
40
0
41
0
66
1
0
VERTEX
8
L6D0
10
3221
20
-7472.75
0
VERTEX
8
L6D0
10
3221
20
-7397.75
0
VERTEX
8
L6D0
10
3223
20
-7397.75
0
VERTEX
8
L6D0
10
3223
20
-7472.75
0
SEQEND
0
POLYLINE
8
L6D0
70
1
40
0
41
0
66
1
0
VERTEX
8
L6D0
10
3197
20
-7472.75
0
VERTEX
8
L6D0
10
3197
20
-7397.75
0
VERTEX
8
L6D0
10
3199
20
-7397.75
0
VERTEX
8
L6D0
10
3199
20
-7472.75
0
SEQEND
0
POLYLINE
8
L6D0
70
1
40
0
41
0
66
1
0
VERTEX
8
L6D0
10
3257
20
-7474.25
0
VERTEX
8
L6D0
10
3257
20
-7399.25
0
VERTEX
8
L6D0
10
3259
20
-7399.25
0
VERTEX
8
L6D0
10
3259
20
-7474.25
0
SEQEND
0
POLYLINE
8
L6D0
70
1
40
0
41
0
66
1
0
VERTEX
8
L6D0
10
3293
20
-7472.75
0
VERTEX
8
L6D0
10
3293
20
-7397.75
0
VERTEX
8
L6D0
10
3295
20
-7397.75
0
VERTEX
8
L6D0
10
3295
20
-7472.75
0
SEQEND
0
POLYLINE
8
L6D0
70
1
40
0
41
0
66
1
0
VERTEX
8
L6D0
10
3217
20
-7474.25
0
VERTEX
8
L6D0
10
3217
20
-7399.25
0
VERTEX
8
L6D0
10
3219
20
-7399.25
0
VERTEX
8
L6D0
10
3219
20
-7474.25
0
SEQEND
0
POLYLINE
8
L6D0
70
1
40
0
41
0
66
1
0
VERTEX
8
L6D0
10
3225
20
-7474.25
0
VERTEX
8
L6D0
10
3225
20
-7399.25
0
VERTEX
8
L6D0
10
3227
20
-7399.25
0
VERTEX
8
L6D0
10
3227
20
-7474.25
0
SEQEND
0
POLYLINE
8
L6D0
70
1
40
0
41
0
66
1
0
VERTEX
8
L6D0
10
3281
20
-7474.25
0
VERTEX
8
L6D0
10
3281
20
-7399.25
0
VERTEX
8
L6D0
10
3283
20
-7399.25
0
VERTEX
8
L6D0
10
3283
20
-7474.25
0
SEQEND
0
POLYLINE
8
L6D0
70
1
40
0
41
0
66
1
0
VERTEX
8
L6D0
10
3269
20
-7472.75
0
VERTEX
8
L6D0
10
3269
20
-7397.75
0
VERTEX
8
L6D0
10
3271
20
-7397.75
0
VERTEX
8
L6D0
10
3271
20
-7472.75
0
SEQEND
0
POLYLINE
8
L6D0
70
1
40
0
41
0
66
1
0
VERTEX
8
L6D0
10
3317
20
-7472.75
0
VERTEX
8
L6D0
10
3317
20
-7397.75
0
VERTEX
8
L6D0
10
3319
20
-7397.75
0
VERTEX
8
L6D0
10
3319
20
-7472.75
0
SEQEND
0
POLYLINE
8
L6D0
70
1
40
0
41
0
66
1
0
VERTEX
8
L6D0
10
3177
20
-7397.75
0
VERTEX
8
L6D0
10
3177
20
-7372.75
0
VERTEX
8
L6D0
10
3339
20
-7372.75
0
VERTEX
8
L6D0
10
3339
20
-7397.75
0
SEQEND
0
POLYLINE
8
L6D0
70
1
40
0
41
0
66
1
0
VERTEX
8
L6D0
10
3241
20
-7474.25
0
VERTEX
8
L6D0
10
3241
20
-7399.25
0
VERTEX
8
L6D0
10
3243
20
-7399.25
0
VERTEX
8
L6D0
10
3243
20
-7474.25
0
SEQEND
0
POLYLINE
8
L6D0
70
1
40
0
41
0
66
1
0
VERTEX
8
L6D0
10
3253
20
-7472.75
0
VERTEX
8
L6D0
10
3253
20
-7397.75
0
VERTEX
8
L6D0
10
3255
20
-7397.75
0
VERTEX
8
L6D0
10
3255
20
-7472.75
0
SEQEND
0
POLYLINE
8
L6D0
70
1
40
0
41
0
66
1
0
VERTEX
8
L6D0
10
3193
20
-7474.25
0
VERTEX
8
L6D0
10
3193
20
-7399.25
0
VERTEX
8
L6D0
10
3195
20
-7399.25
0
VERTEX
8
L6D0
10
3195
20
-7474.25
0
SEQEND
0
POLYLINE
8
L6D0
70
1
40
0
41
0
66
1
0
VERTEX
8
L6D0
10
3233
20
-7474.25
0
VERTEX
8
L6D0
10
3233
20
-7399.25
0
VERTEX
8
L6D0
10
3235
20
-7399.25
0
VERTEX
8
L6D0
10
3235
20
-7474.25
0
SEQEND
0
POLYLINE
8
L6D0
70
1
40
0
41
0
66
1
0
VERTEX
8
L6D0
10
3301
20
-7472.75
0
VERTEX
8
L6D0
10
3301
20
-7397.75
0
VERTEX
8
L6D0
10
3303
20
-7397.75
0
VERTEX
8
L6D0
10
3303
20
-7472.75
0
SEQEND
0
POLYLINE
8
L6D0
70
1
40
0
41
0
66
1
0
VERTEX
8
L6D0
10
3205
20
-7472.75
0
VERTEX
8
L6D0
10
3205
20
-7397.75
0
VERTEX
8
L6D0
10
3207
20
-7397.75
0
VERTEX
8
L6D0
10
3207
20
-7472.75
0
SEQEND
0
POLYLINE
8
L6D0
70
1
40
0
41
0
66
1
0
VERTEX
8
L6D0
10
3177
20
-7499.25
0
VERTEX
8
L6D0
10
3177
20
-7474.25
0
VERTEX
8
L6D0
10
3339
20
-7474.25
0
VERTEX
8
L6D0
10
3339
20
-7499.25
0
SEQEND
0
POLYLINE
8
L6D0
70
1
40
0
41
0
66
1
0
VERTEX
8
L6D0
10
3309
20
-7472.75
0
VERTEX
8
L6D0
10
3309
20
-7397.75
0
VERTEX
8
L6D0
10
3311
20
-7397.75
0
VERTEX
8
L6D0
10
3311
20
-7472.75
0
SEQEND
0
POLYLINE
8
L6D0
70
1
40
0
41
0
66
1
0
VERTEX
8
L6D0
10
3337
20
-7474.25
0
VERTEX
8
L6D0
10
3337
20
-7399.25
0
VERTEX
8
L6D0
10
3339
20
-7399.25
0
VERTEX
8
L6D0
10
3339
20
-7474.25
0
SEQEND
0
POLYLINE
8
L6D0
70
1
40
0
41
0
66
1
0
VERTEX
8
L6D0
10
3289
20
-7474.25
0
VERTEX
8
L6D0
10
3289
20
-7399.25
0
VERTEX
8
L6D0
10
3291
20
-7399.25
0
VERTEX
8
L6D0
10
3291
20
-7474.25
0
SEQEND
0
POLYLINE
8
L6D0
70
1
40
0
41
0
66
1
0
VERTEX
8
L6D0
10
3229
20
-7472.75
0
VERTEX
8
L6D0
10
3229
20
-7397.75
0
VERTEX
8
L6D0
10
3231
20
-7397.75
0
VERTEX
8
L6D0
10
3231
20
-7472.75
0
SEQEND
0
POLYLINE
8
L6D0
70
1
40
0
41
0
66
1
0
VERTEX
8
L6D0
10
3265
20
-7474.25
0
VERTEX
8
L6D0
10
3265
20
-7399.25
0
VERTEX
8
L6D0
10
3267
20
-7399.25
0
VERTEX
8
L6D0
10
3267
20
-7474.25
0
SEQEND
0
POLYLINE
8
L6D0
70
1
40
0
41
0
66
1
0
VERTEX
8
L6D0
10
3321
20
-7474.25
0
VERTEX
8
L6D0
10
3321
20
-7399.25
0
VERTEX
8
L6D0
10
3323
20
-7399.25
0
VERTEX
8
L6D0
10
3323
20
-7474.25
0
SEQEND
0
POLYLINE
8
L6D0
70
1
40
0
41
0
66
1
0
VERTEX
8
L6D0
10
3277
20
-7472.75
0
VERTEX
8
L6D0
10
3277
20
-7397.75
0
VERTEX
8
L6D0
10
3279
20
-7397.75
0
VERTEX
8
L6D0
10
3279
20
-7472.75
0
SEQEND
0
POLYLINE
8
L6D0
70
1
40
0
41
0
66
1
0
VERTEX
8
L6D0
10
3185
20
-7474.25
0
VERTEX
8
L6D0
10
3185
20
-7399.25
0
VERTEX
8
L6D0
10
3187
20
-7399.25
0
VERTEX
8
L6D0
10
3187
20
-7474.25
0
SEQEND
0
POLYLINE
8
L6D0
70
1
40
0
41
0
66
1
0
VERTEX
8
L6D0
10
3237
20
-7472.75
0
VERTEX
8
L6D0
10
3237
20
-7397.75
0
VERTEX
8
L6D0
10
3239
20
-7397.75
0
VERTEX
8
L6D0
10
3239
20
-7472.75
0
SEQEND
0
POLYLINE
8
L6D0
70
1
40
0
41
0
66
1
0
VERTEX
8
L6D0
10
3245
20
-7472.75
0
VERTEX
8
L6D0
10
3245
20
-7397.75
0
VERTEX
8
L6D0
10
3247
20
-7397.75
0
VERTEX
8
L6D0
10
3247
20
-7472.75
0
SEQEND
0
POLYLINE
8
L6D0
70
1
40
0
41
0
66
1
0
VERTEX
8
L6D0
10
3249
20
-7474.25
0
VERTEX
8
L6D0
10
3249
20
-7399.25
0
VERTEX
8
L6D0
10
3251
20
-7399.25
0
VERTEX
8
L6D0
10
3251
20
-7474.25
0
SEQEND
0
POLYLINE
8
L6D0
70
1
40
0
41
0
66
1
0
VERTEX
8
L6D0
10
3313
20
-7474.25
0
VERTEX
8
L6D0
10
3313
20
-7399.25
0
VERTEX
8
L6D0
10
3315
20
-7399.25
0
VERTEX
8
L6D0
10
3315
20
-7474.25
0
SEQEND
0
POLYLINE
8
L6D0
70
1
40
0
41
0
66
1
0
VERTEX
8
L6D0
10
3297
20
-7474.25
0
VERTEX
8
L6D0
10
3297
20
-7399.25
0
VERTEX
8
L6D0
10
3299
20
-7399.25
0
VERTEX
8
L6D0
10
3299
20
-7474.25
0
SEQEND
0
POLYLINE
8
L6D0
70
1
40
0
41
0
66
1
0
VERTEX
8
L6D0
10
3329
20
-7474.25
0
VERTEX
8
L6D0
10
3329
20
-7399.25
0
VERTEX
8
L6D0
10
3331
20
-7399.25
0
VERTEX
8
L6D0
10
3331
20
-7474.25
0
SEQEND
0
POLYLINE
8
L6D0
70
1
40
0
41
0
66
1
0
VERTEX
8
L6D0
10
3305
20
-7474.25
0
VERTEX
8
L6D0
10
3305
20
-7399.25
0
VERTEX
8
L6D0
10
3307
20
-7399.25
0
VERTEX
8
L6D0
10
3307
20
-7474.25
0
SEQEND
0
POLYLINE
8
L6D0
70
1
40
0
41
0
66
1
0
VERTEX
8
L6D0
10
3181
20
-7472.75
0
VERTEX
8
L6D0
10
3181
20
-7397.75
0
VERTEX
8
L6D0
10
3183
20
-7397.75
0
VERTEX
8
L6D0
10
3183
20
-7472.75
0
SEQEND
0
POLYLINE
8
L6D0
70
1
40
0
41
0
66
1
0
VERTEX
8
L6D0
10
3261
20
-7472.75
0
VERTEX
8
L6D0
10
3261
20
-7397.75
0
VERTEX
8
L6D0
10
3263
20
-7397.75
0
VERTEX
8
L6D0
10
3263
20
-7472.75
0
SEQEND
0
POLYLINE
8
L6D0
70
1
40
0
41
0
66
1
0
VERTEX
8
L6D0
10
3213
20
-7472.75
0
VERTEX
8
L6D0
10
3213
20
-7397.75
0
VERTEX
8
L6D0
10
3215
20
-7397.75
0
VERTEX
8
L6D0
10
3215
20
-7472.75
0
SEQEND
0
POLYLINE
8
L6D0
70
1
40
0
41
0
66
1
0
VERTEX
8
L6D0
10
3273
20
-7474.25
0
VERTEX
8
L6D0
10
3273
20
-7399.25
0
VERTEX
8
L6D0
10
3275
20
-7399.25
0
VERTEX
8
L6D0
10
3275
20
-7474.25
0
SEQEND
0
POLYLINE
8
L6D0
70
1
40
0
41
0
66
1
0
VERTEX
8
L6D0
10
3325
20
-7472.75
0
VERTEX
8
L6D0
10
3325
20
-7397.75
0
VERTEX
8
L6D0
10
3327
20
-7397.75
0
VERTEX
8
L6D0
10
3327
20
-7472.75
0
SEQEND
0
POLYLINE
8
L6D0
70
1
40
0
41
0
66
1
0
VERTEX
8
L6D0
10
3285
20
-7472.75
0
VERTEX
8
L6D0
10
3285
20
-7397.75
0
VERTEX
8
L6D0
10
3287
20
-7397.75
0
VERTEX
8
L6D0
10
3287
20
-7472.75
0
SEQEND
0
POLYLINE
8
L6D0
70
1
40
0
41
0
66
1
0
VERTEX
8
L6D0
10
3333
20
-7472.75
0
VERTEX
8
L6D0
10
3333
20
-7397.75
0
VERTEX
8
L6D0
10
3335
20
-7397.75
0
VERTEX
8
L6D0
10
3335
20
-7472.75
0
SEQEND
0
POLYLINE
8
L6D0
70
1
40
0
41
0
66
1
0
VERTEX
8
L6D0
10
3209
20
-7474.25
0
VERTEX
8
L6D0
10
3209
20
-7399.25
0
VERTEX
8
L6D0
10
3211
20
-7399.25
0
VERTEX
8
L6D0
10
3211
20
-7474.25
0
SEQEND
0
POLYLINE
8
L6D0
70
1
40
0
41
0
66
1
0
VERTEX
8
L6D0
10
2313
20
-8500.75
0
VERTEX
8
L6D0
10
2313
20
-7500.75
0
VERTEX
8
L6D0
10
2315
20
-7500.75
0
VERTEX
8
L6D0
10
2315
20
-8500.75
0
SEQEND
0
POLYLINE
8
L6D0
70
1
40
0
41
0
66
1
0
VERTEX
8
L6D0
10
2353
20
-8500.75
0
VERTEX
8
L6D0
10
2353
20
-7500.75
0
VERTEX
8
L6D0
10
2355
20
-7500.75
0
VERTEX
8
L6D0
10
2355
20
-8500.75
0
SEQEND
0
POLYLINE
8
L6D0
70
1
40
0
41
0
66
1
0
VERTEX
8
L6D0
10
2273
20
-8500.75
0
VERTEX
8
L6D0
10
2273
20
-7500.75
0
VERTEX
8
L6D0
10
2275
20
-7500.75
0
VERTEX
8
L6D0
10
2275
20
-8500.75
0
SEQEND
0
POLYLINE
8
L6D0
70
1
40
0
41
0
66
1
0
VERTEX
8
L6D0
10
2289
20
-8500.75
0
VERTEX
8
L6D0
10
2289
20
-7500.75
0
VERTEX
8
L6D0
10
2291
20
-7500.75
0
VERTEX
8
L6D0
10
2291
20
-8500.75
0
SEQEND
0
POLYLINE
8
L6D0
70
1
40
0
41
0
66
1
0
VERTEX
8
L6D0
10
2257
20
-8500.75
0
VERTEX
8
L6D0
10
2257
20
-7500.75
0
VERTEX
8
L6D0
10
2259
20
-7500.75
0
VERTEX
8
L6D0
10
2259
20
-8500.75
0
SEQEND
0
POLYLINE
8
L6D0
70
1
40
0
41
0
66
1
0
VERTEX
8
L6D0
10
2281
20
-8500.75
0
VERTEX
8
L6D0
10
2281
20
-7500.75
0
VERTEX
8
L6D0
10
2283
20
-7500.75
0
VERTEX
8
L6D0
10
2283
20
-8500.75
0
SEQEND
0
POLYLINE
8
L6D0
70
1
40
0
41
0
66
1
0
VERTEX
8
L6D0
10
2345
20
-8500.75
0
VERTEX
8
L6D0
10
2345
20
-7500.75
0
VERTEX
8
L6D0
10
2347
20
-7500.75
0
VERTEX
8
L6D0
10
2347
20
-8500.75
0
SEQEND
0
POLYLINE
8
L6D0
70
1
40
0
41
0
66
1
0
VERTEX
8
L6D0
10
2265
20
-8500.75
0
VERTEX
8
L6D0
10
2265
20
-7500.75
0
VERTEX
8
L6D0
10
2267
20
-7500.75
0
VERTEX
8
L6D0
10
2267
20
-8500.75
0
SEQEND
0
POLYLINE
8
L6D0
70
1
40
0
41
0
66
1
0
VERTEX
8
L6D0
10
2305
20
-8500.75
0
VERTEX
8
L6D0
10
2305
20
-7500.75
0
VERTEX
8
L6D0
10
2307
20
-7500.75
0
VERTEX
8
L6D0
10
2307
20
-8500.75
0
SEQEND
0
POLYLINE
8
L6D0
70
1
40
0
41
0
66
1
0
VERTEX
8
L6D0
10
2297
20
-8500.75
0
VERTEX
8
L6D0
10
2297
20
-7500.75
0
VERTEX
8
L6D0
10
2299
20
-7500.75
0
VERTEX
8
L6D0
10
2299
20
-8500.75
0
SEQEND
0
POLYLINE
8
L6D0
70
1
40
0
41
0
66
1
0
VERTEX
8
L6D0
10
2329
20
-8500.75
0
VERTEX
8
L6D0
10
2329
20
-7500.75
0
VERTEX
8
L6D0
10
2331
20
-7500.75
0
VERTEX
8
L6D0
10
2331
20
-8500.75
0
SEQEND
0
POLYLINE
8
L6D0
70
1
40
0
41
0
66
1
0
VERTEX
8
L6D0
10
2337
20
-8500.75
0
VERTEX
8
L6D0
10
2337
20
-7500.75
0
VERTEX
8
L6D0
10
2339
20
-7500.75
0
VERTEX
8
L6D0
10
2339
20
-8500.75
0
SEQEND
0
POLYLINE
8
L6D0
70
1
40
0
41
0
66
1
0
VERTEX
8
L6D0
10
2321
20
-8500.75
0
VERTEX
8
L6D0
10
2321
20
-7500.75
0
VERTEX
8
L6D0
10
2323
20
-7500.75
0
VERTEX
8
L6D0
10
2323
20
-8500.75
0
SEQEND
0
POLYLINE
8
L6D0
70
1
40
0
41
0
66
1
0
VERTEX
8
L6D0
10
4193
20
-8500.75
0
VERTEX
8
L6D0
10
4193
20
-7500.75
0
VERTEX
8
L6D0
10
4195
20
-7500.75
0
VERTEX
8
L6D0
10
4195
20
-8500.75
0
SEQEND
0
POLYLINE
8
L6D0
70
1
40
0
41
0
66
1
0
VERTEX
8
L6D0
10
3721
20
-8500.75
0
VERTEX
8
L6D0
10
3721
20
-7500.75
0
VERTEX
8
L6D0
10
3723
20
-7500.75
0
VERTEX
8
L6D0
10
3723
20
-8500.75
0
SEQEND
0
POLYLINE
8
L6D0
70
1
40
0
41
0
66
1
0
VERTEX
8
L6D0
10
4089
20
-8500.75
0
VERTEX
8
L6D0
10
4089
20
-7500.75
0
VERTEX
8
L6D0
10
4091
20
-7500.75
0
VERTEX
8
L6D0
10
4091
20
-8500.75
0
SEQEND
0
POLYLINE
8
L6D0
70
1
40
0
41
0
66
1
0
VERTEX
8
L6D0
10
3809
20
-8500.75
0
VERTEX
8
L6D0
10
3809
20
-7500.75
0
VERTEX
8
L6D0
10
3811
20
-7500.75
0
VERTEX
8
L6D0
10
3811
20
-8500.75
0
SEQEND
0
POLYLINE
8
L6D0
70
1
40
0
41
0
66
1
0
VERTEX
8
L6D0
10
4009
20
-8500.75
0
VERTEX
8
L6D0
10
4009
20
-7500.75
0
VERTEX
8
L6D0
10
4011
20
-7500.75
0
VERTEX
8
L6D0
10
4011
20
-8500.75
0
SEQEND
0
POLYLINE
8
L6D0
70
1
40
0
41
0
66
1
0
VERTEX
8
L6D0
10
3889
20
-8500.75
0
VERTEX
8
L6D0
10
3889
20
-7500.75
0
VERTEX
8
L6D0
10
3891
20
-7500.75
0
VERTEX
8
L6D0
10
3891
20
-8500.75
0
SEQEND
0
POLYLINE
8
L6D0
70
1
40
0
41
0
66
1
0
VERTEX
8
L6D0
10
3785
20
-8500.75
0
VERTEX
8
L6D0
10
3785
20
-7500.75
0
VERTEX
8
L6D0
10
3787
20
-7500.75
0
VERTEX
8
L6D0
10
3787
20
-8500.75
0
SEQEND
0
POLYLINE
8
L6D0
70
1
40
0
41
0
66
1
0
VERTEX
8
L6D0
10
3953
20
-8500.75
0
VERTEX
8
L6D0
10
3953
20
-7500.75
0
VERTEX
8
L6D0
10
3955
20
-7500.75
0
VERTEX
8
L6D0
10
3955
20
-8500.75
0
SEQEND
0
POLYLINE
8
L6D0
70
1
40
0
41
0
66
1
0
VERTEX
8
L6D0
10
4161
20
-8500.75
0
VERTEX
8
L6D0
10
4161
20
-7500.75
0
VERTEX
8
L6D0
10
4163
20
-7500.75
0
VERTEX
8
L6D0
10
4163
20
-8500.75
0
SEQEND
0
POLYLINE
8
L6D0
70
1
40
0
41
0
66
1
0
VERTEX
8
L6D0
10
4049
20
-8500.75
0
VERTEX
8
L6D0
10
4049
20
-7500.75
0
VERTEX
8
L6D0
10
4051
20
-7500.75
0
VERTEX
8
L6D0
10
4051
20
-8500.75
0
SEQEND
0
POLYLINE
8
L6D0
70
1
40
0
41
0
66
1
0
VERTEX
8
L6D0
10
3713
20
-8500.75
0
VERTEX
8
L6D0
10
3713
20
-7500.75
0
VERTEX
8
L6D0
10
3715
20
-7500.75
0
VERTEX
8
L6D0
10
3715
20
-8500.75
0
SEQEND
0
POLYLINE
8
L6D0
70
1
40
0
41
0
66
1
0
VERTEX
8
L6D0
10
3705
20
-8500.75
0
VERTEX
8
L6D0
10
3705
20
-7500.75
0
VERTEX
8
L6D0
10
3707
20
-7500.75
0
VERTEX
8
L6D0
10
3707
20
-8500.75
0
SEQEND
0
POLYLINE
8
L6D0
70
1
40
0
41
0
66
1
0
VERTEX
8
L6D0
10
3881
20
-8500.75
0
VERTEX
8
L6D0
10
3881
20
-7500.75
0
VERTEX
8
L6D0
10
3883
20
-7500.75
0
VERTEX
8
L6D0
10
3883
20
-8500.75
0
SEQEND
0
POLYLINE
8
L6D0
70
1
40
0
41
0
66
1
0
VERTEX
8
L6D0
10
4177
20
-8500.75
0
VERTEX
8
L6D0
10
4177
20
-7500.75
0
VERTEX
8
L6D0
10
4179
20
-7500.75
0
VERTEX
8
L6D0
10
4179
20
-8500.75
0
SEQEND
0
POLYLINE
8
L6D0
70
1
40
0
41
0
66
1
0
VERTEX
8
L6D0
10
4217
20
-8500.75
0
VERTEX
8
L6D0
10
4217
20
-7500.75
0
VERTEX
8
L6D0
10
4219
20
-7500.75
0
VERTEX
8
L6D0
10
4219
20
-8500.75
0
SEQEND
0
POLYLINE
8
L6D0
70
1
40
0
41
0
66
1
0
VERTEX
8
L6D0
10
3817
20
-8500.75
0
VERTEX
8
L6D0
10
3817
20
-7500.75
0
VERTEX
8
L6D0
10
3819
20
-7500.75
0
VERTEX
8
L6D0
10
3819
20
-8500.75
0
SEQEND
0
POLYLINE
8
L6D0
70
1
40
0
41
0
66
1
0
VERTEX
8
L6D0
10
3689
20
-8500.75
0
VERTEX
8
L6D0
10
3689
20
-7500.75
0
VERTEX
8
L6D0
10
3691
20
-7500.75
0
VERTEX
8
L6D0
10
3691
20
-8500.75
0
SEQEND
0
POLYLINE
8
L6D0
70
1
40
0
41
0
66
1
0
VERTEX
8
L6D0
10
3729
20
-8500.75
0
VERTEX
8
L6D0
10
3729
20
-7500.75
0
VERTEX
8
L6D0
10
3731
20
-7500.75
0
VERTEX
8
L6D0
10
3731
20
-8500.75
0
SEQEND
0
POLYLINE
8
L6D0
70
1
40
0
41
0
66
1
0
VERTEX
8
L6D0
10
4001
20
-8500.75
0
VERTEX
8
L6D0
10
4001
20
-7500.75
0
VERTEX
8
L6D0
10
4003
20
-7500.75
0
VERTEX
8
L6D0
10
4003
20
-8500.75
0
SEQEND
0
POLYLINE
8
L6D0
70
1
40
0
41
0
66
1
0
VERTEX
8
L6D0
10
3945
20
-8500.75
0
VERTEX
8
L6D0
10
3945
20
-7500.75
0
VERTEX
8
L6D0
10
3947
20
-7500.75
0
VERTEX
8
L6D0
10
3947
20
-8500.75
0
SEQEND
0
POLYLINE
8
L6D0
70
1
40
0
41
0
66
1
0
VERTEX
8
L6D0
10
4113
20
-8500.75
0
VERTEX
8
L6D0
10
4113
20
-7500.75
0
VERTEX
8
L6D0
10
4115
20
-7500.75
0
VERTEX
8
L6D0
10
4115
20
-8500.75
0
SEQEND
0
POLYLINE
8
L6D0
70
1
40
0
41
0
66
1
0
VERTEX
8
L6D0
10
3569
20
-8500.75
0
VERTEX
8
L6D0
10
3569
20
-7500.75
0
VERTEX
8
L6D0
10
3571
20
-7500.75
0
VERTEX
8
L6D0
10
3571
20
-8500.75
0
SEQEND
0
POLYLINE
8
L6D0
70
1
40
0
41
0
66
1
0
VERTEX
8
L6D0
10
3873
20
-8500.75
0
VERTEX
8
L6D0
10
3873
20
-7500.75
0
VERTEX
8
L6D0
10
3875
20
-7500.75
0
VERTEX
8
L6D0
10
3875
20
-8500.75
0
SEQEND
0
POLYLINE
8
L6D0
70
1
40
0
41
0
66
1
0
VERTEX
8
L6D0
10
3641
20
-8500.75
0
VERTEX
8
L6D0
10
3641
20
-7500.75
0
VERTEX
8
L6D0
10
3643
20
-7500.75
0
VERTEX
8
L6D0
10
3643
20
-8500.75
0
SEQEND
0
POLYLINE
8
L6D0
70
1
40
0
41
0
66
1
0
VERTEX
8
L6D0
10
4081
20
-8500.75
0
VERTEX
8
L6D0
10
4081
20
-7500.75
0
VERTEX
8
L6D0
10
4083
20
-7500.75
0
VERTEX
8
L6D0
10
4083
20
-8500.75
0
SEQEND
0
POLYLINE
8
L6D0
70
1
40
0
41
0
66
1
0
VERTEX
8
L6D0
10
4201
20
-8500.75
0
VERTEX
8
L6D0
10
4201
20
-7500.75
0
VERTEX
8
L6D0
10
4203
20
-7500.75
0
VERTEX
8
L6D0
10
4203
20
-8500.75
0
SEQEND
0
POLYLINE
8
L6D0
70
1
40
0
41
0
66
1
0
VERTEX
8
L6D0
10
4137
20
-8500.75
0
VERTEX
8
L6D0
10
4137
20
-7500.75
0
VERTEX
8
L6D0
10
4139
20
-7500.75
0
VERTEX
8
L6D0
10
4139
20
-8500.75
0
SEQEND
0
POLYLINE
8
L6D0
70
1
40
0
41
0
66
1
0
VERTEX
8
L6D0
10
3593
20
-8500.75
0
VERTEX
8
L6D0
10
3593
20
-7500.75
0
VERTEX
8
L6D0
10
3595
20
-7500.75
0
VERTEX
8
L6D0
10
3595
20
-8500.75
0
SEQEND
0
POLYLINE
8
L6D0
70
1
40
0
41
0
66
1
0
VERTEX
8
L6D0
10
3777
20
-8500.75
0
VERTEX
8
L6D0
10
3777
20
-7500.75
0
VERTEX
8
L6D0
10
3779
20
-7500.75
0
VERTEX
8
L6D0
10
3779
20
-8500.75
0
SEQEND
0
POLYLINE
8
L6D0
70
1
40
0
41
0
66
1
0
VERTEX
8
L6D0
10
4041
20
-8500.75
0
VERTEX
8
L6D0
10
4041
20
-7500.75
0
VERTEX
8
L6D0
10
4043
20
-7500.75
0
VERTEX
8
L6D0
10
4043
20
-8500.75
0
SEQEND
0
POLYLINE
8
L6D0
70
1
40
0
41
0
66
1
0
VERTEX
8
L6D0
10
3937
20
-8500.75
0
VERTEX
8
L6D0
10
3937
20
-7500.75
0
VERTEX
8
L6D0
10
3939
20
-7500.75
0
VERTEX
8
L6D0
10
3939
20
-8500.75
0
SEQEND
0
POLYLINE
8
L6D0
70
1
40
0
41
0
66
1
0
VERTEX
8
L6D0
10
3993
20
-8500.75
0
VERTEX
8
L6D0
10
3993
20
-7500.75
0
VERTEX
8
L6D0
10
3995
20
-7500.75
0
VERTEX
8
L6D0
10
3995
20
-8500.75
0
SEQEND
0
POLYLINE
8
L6D0
70
1
40
0
41
0
66
1
0
VERTEX
8
L6D0
10
3865
20
-8500.75
0
VERTEX
8
L6D0
10
3865
20
-7500.75
0
VERTEX
8
L6D0
10
3867
20
-7500.75
0
VERTEX
8
L6D0
10
3867
20
-8500.75
0
SEQEND
0
POLYLINE
8
L6D0
70
1
40
0
41
0
66
1
0
VERTEX
8
L6D0
10
3801
20
-8500.75
0
VERTEX
8
L6D0
10
3801
20
-7500.75
0
VERTEX
8
L6D0
10
3803
20
-7500.75
0
VERTEX
8
L6D0
10
3803
20
-8500.75
0
SEQEND
0
POLYLINE
8
L6D0
70
1
40
0
41
0
66
1
0
VERTEX
8
L6D0
10
4209
20
-8500.75
0
VERTEX
8
L6D0
10
4209
20
-7500.75
0
VERTEX
8
L6D0
10
4211
20
-7500.75
0
VERTEX
8
L6D0
10
4211
20
-8500.75
0
SEQEND
0
POLYLINE
8
L6D0
70
1
40
0
41
0
66
1
0
VERTEX
8
L6D0
10
4233
20
-8500.75
0
VERTEX
8
L6D0
10
4233
20
-7500.75
0
VERTEX
8
L6D0
10
4235
20
-7500.75
0
VERTEX
8
L6D0
10
4235
20
-8500.75
0
SEQEND
0
POLYLINE
8
L6D0
70
1
40
0
41
0
66
1
0
VERTEX
8
L6D0
10
3625
20
-8500.75
0
VERTEX
8
L6D0
10
3625
20
-7500.75
0
VERTEX
8
L6D0
10
3627
20
-7500.75
0
VERTEX
8
L6D0
10
3627
20
-8500.75
0
SEQEND
0
POLYLINE
8
L6D0
70
1
40
0
41
0
66
1
0
VERTEX
8
L6D0
10
3857
20
-8500.75
0
VERTEX
8
L6D0
10
3857
20
-7500.75
0
VERTEX
8
L6D0
10
3859
20
-7500.75
0
VERTEX
8
L6D0
10
3859
20
-8500.75
0
SEQEND
0
POLYLINE
8
L6D0
70
1
40
0
41
0
66
1
0
VERTEX
8
L6D0
10
3929
20
-8500.75
0
VERTEX
8
L6D0
10
3929
20
-7500.75
0
VERTEX
8
L6D0
10
3931
20
-7500.75
0
VERTEX
8
L6D0
10
3931
20
-8500.75
0
SEQEND
0
POLYLINE
8
L6D0
70
1
40
0
41
0
66
1
0
VERTEX
8
L6D0
10
3601
20
-8500.75
0
VERTEX
8
L6D0
10
3601
20
-7500.75
0
VERTEX
8
L6D0
10
3603
20
-7500.75
0
VERTEX
8
L6D0
10
3603
20
-8500.75
0
SEQEND
0
POLYLINE
8
L6D0
70
1
40
0
41
0
66
1
0
VERTEX
8
L6D0
10
3577
20
-8500.75
0
VERTEX
8
L6D0
10
3577
20
-7500.75
0
VERTEX
8
L6D0
10
3579
20
-7500.75
0
VERTEX
8
L6D0
10
3579
20
-8500.75
0
SEQEND
0
POLYLINE
8
L6D0
70
1
40
0
41
0
66
1
0
VERTEX
8
L6D0
10
4073
20
-8500.75
0
VERTEX
8
L6D0
10
4073
20
-7500.75
0
VERTEX
8
L6D0
10
4075
20
-7500.75
0
VERTEX
8
L6D0
10
4075
20
-8500.75
0
SEQEND
0
POLYLINE
8
L6D0
70
1
40
0
41
0
66
1
0
VERTEX
8
L6D0
10
4105
20
-8500.75
0
VERTEX
8
L6D0
10
4105
20
-7500.75
0
VERTEX
8
L6D0
10
4107
20
-7500.75
0
VERTEX
8
L6D0
10
4107
20
-8500.75
0
SEQEND
0
POLYLINE
8
L6D0
70
1
40
0
41
0
66
1
0
VERTEX
8
L6D0
10
3985
20
-8500.75
0
VERTEX
8
L6D0
10
3985
20
-7500.75
0
VERTEX
8
L6D0
10
3987
20
-7500.75
0
VERTEX
8
L6D0
10
3987
20
-8500.75
0
SEQEND
0
POLYLINE
8
L6D0
70
1
40
0
41
0
66
1
0
VERTEX
8
L6D0
10
3753
20
-8500.75
0
VERTEX
8
L6D0
10
3753
20
-7500.75
0
VERTEX
8
L6D0
10
3755
20
-7500.75
0
VERTEX
8
L6D0
10
3755
20
-8500.75
0
SEQEND
0
POLYLINE
8
L6D0
70
1
40
0
41
0
66
1
0
VERTEX
8
L6D0
10
4033
20
-8500.75
0
VERTEX
8
L6D0
10
4033
20
-7500.75
0
VERTEX
8
L6D0
10
4035
20
-7500.75
0
VERTEX
8
L6D0
10
4035
20
-8500.75
0
SEQEND
0
POLYLINE
8
L6D0
70
1
40
0
41
0
66
1
0
VERTEX
8
L6D0
10
3769
20
-8500.75
0
VERTEX
8
L6D0
10
3769
20
-7500.75
0
VERTEX
8
L6D0
10
3771
20
-7500.75
0
VERTEX
8
L6D0
10
3771
20
-8500.75
0
SEQEND
0
POLYLINE
8
L6D0
70
1
40
0
41
0
66
1
0
VERTEX
8
L6D0
10
4153
20
-8500.75
0
VERTEX
8
L6D0
10
4153
20
-7500.75
0
VERTEX
8
L6D0
10
4155
20
-7500.75
0
VERTEX
8
L6D0
10
4155
20
-8500.75
0
SEQEND
0
POLYLINE
8
L6D0
70
1
40
0
41
0
66
1
0
VERTEX
8
L6D0
10
3849
20
-8500.75
0
VERTEX
8
L6D0
10
3849
20
-7500.75
0
VERTEX
8
L6D0
10
3851
20
-7500.75
0
VERTEX
8
L6D0
10
3851
20
-8500.75
0
SEQEND
0
POLYLINE
8
L6D0
70
1
40
0
41
0
66
1
0
VERTEX
8
L6D0
10
3585
20
-8500.75
0
VERTEX
8
L6D0
10
3585
20
-7500.75
0
VERTEX
8
L6D0
10
3587
20
-7500.75
0
VERTEX
8
L6D0
10
3587
20
-8500.75
0
SEQEND
0
POLYLINE
8
L6D0
70
1
40
0
41
0
66
1
0
VERTEX
8
L6D0
10
4225
20
-8500.75
0
VERTEX
8
L6D0
10
4225
20
-7500.75
0
VERTEX
8
L6D0
10
4227
20
-7500.75
0
VERTEX
8
L6D0
10
4227
20
-8500.75
0
SEQEND
0
POLYLINE
8
L6D0
70
1
40
0
41
0
66
1
0
VERTEX
8
L6D0
10
4129
20
-8500.75
0
VERTEX
8
L6D0
10
4129
20
-7500.75
0
VERTEX
8
L6D0
10
4131
20
-7500.75
0
VERTEX
8
L6D0
10
4131
20
-8500.75
0
SEQEND
0
POLYLINE
8
L6D0
70
1
40
0
41
0
66
1
0
VERTEX
8
L6D0
10
3921
20
-8500.75
0
VERTEX
8
L6D0
10
3921
20
-7500.75
0
VERTEX
8
L6D0
10
3923
20
-7500.75
0
VERTEX
8
L6D0
10
3923
20
-8500.75
0
SEQEND
0
POLYLINE
8
L6D0
70
1
40
0
41
0
66
1
0
VERTEX
8
L6D0
10
4185
20
-8500.75
0
VERTEX
8
L6D0
10
4185
20
-7500.75
0
VERTEX
8
L6D0
10
4187
20
-7500.75
0
VERTEX
8
L6D0
10
4187
20
-8500.75
0
SEQEND
0
POLYLINE
8
L6D0
70
1
40
0
41
0
66
1
0
VERTEX
8
L6D0
10
4257
20
-8500.75
0
VERTEX
8
L6D0
10
4257
20
-7500.75
0
VERTEX
8
L6D0
10
4259
20
-7500.75
0
VERTEX
8
L6D0
10
4259
20
-8500.75
0
SEQEND
0
POLYLINE
8
L6D0
70
1
40
0
41
0
66
1
0
VERTEX
8
L6D0
10
3609
20
-8500.75
0
VERTEX
8
L6D0
10
3609
20
-7500.75
0
VERTEX
8
L6D0
10
3611
20
-7500.75
0
VERTEX
8
L6D0
10
3611
20
-8500.75
0
SEQEND
0
POLYLINE
8
L6D0
70
1
40
0
41
0
66
1
0
VERTEX
8
L6D0
10
3649
20
-8500.75
0
VERTEX
8
L6D0
10
3649
20
-7500.75
0
VERTEX
8
L6D0
10
3651
20
-7500.75
0
VERTEX
8
L6D0
10
3651
20
-8500.75
0
SEQEND
0
POLYLINE
8
L6D0
70
1
40
0
41
0
66
1
0
VERTEX
8
L6D0
10
3841
20
-8500.75
0
VERTEX
8
L6D0
10
3841
20
-7500.75
0
VERTEX
8
L6D0
10
3843
20
-7500.75
0
VERTEX
8
L6D0
10
3843
20
-8500.75
0
SEQEND
0
POLYLINE
8
L6D0
70
1
40
0
41
0
66
1
0
VERTEX
8
L6D0
10
3737
20
-8500.75
0
VERTEX
8
L6D0
10
3737
20
-7500.75
0
VERTEX
8
L6D0
10
3739
20
-7500.75
0
VERTEX
8
L6D0
10
3739
20
-8500.75
0
SEQEND
0
POLYLINE
8
L6D0
70
1
40
0
41
0
66
1
0
VERTEX
8
L6D0
10
3761
20
-8500.75
0
VERTEX
8
L6D0
10
3761
20
-7500.75
0
VERTEX
8
L6D0
10
3763
20
-7500.75
0
VERTEX
8
L6D0
10
3763
20
-8500.75
0
SEQEND
0
POLYLINE
8
L6D0
70
1
40
0
41
0
66
1
0
VERTEX
8
L6D0
10
3977
20
-8500.75
0
VERTEX
8
L6D0
10
3977
20
-7500.75
0
VERTEX
8
L6D0
10
3979
20
-7500.75
0
VERTEX
8
L6D0
10
3979
20
-8500.75
0
SEQEND
0
POLYLINE
8
L6D0
70
1
40
0
41
0
66
1
0
VERTEX
8
L6D0
10
4169
20
-8500.75
0
VERTEX
8
L6D0
10
4169
20
-7500.75
0
VERTEX
8
L6D0
10
4171
20
-7500.75
0
VERTEX
8
L6D0
10
4171
20
-8500.75
0
SEQEND
0
POLYLINE
8
L6D0
70
1
40
0
41
0
66
1
0
VERTEX
8
L6D0
10
3673
20
-8500.75
0
VERTEX
8
L6D0
10
3673
20
-7500.75
0
VERTEX
8
L6D0
10
3675
20
-7500.75
0
VERTEX
8
L6D0
10
3675
20
-8500.75
0
SEQEND
0
POLYLINE
8
L6D0
70
1
40
0
41
0
66
1
0
VERTEX
8
L6D0
10
4025
20
-8500.75
0
VERTEX
8
L6D0
10
4025
20
-7500.75
0
VERTEX
8
L6D0
10
4027
20
-7500.75
0
VERTEX
8
L6D0
10
4027
20
-8500.75
0
SEQEND
0
POLYLINE
8
L6D0
70
1
40
0
41
0
66
1
0
VERTEX
8
L6D0
10
3913
20
-8500.75
0
VERTEX
8
L6D0
10
3913
20
-7500.75
0
VERTEX
8
L6D0
10
3915
20
-7500.75
0
VERTEX
8
L6D0
10
3915
20
-8500.75
0
SEQEND
0
POLYLINE
8
L6D0
70
1
40
0
41
0
66
1
0
VERTEX
8
L6D0
10
4065
20
-8500.75
0
VERTEX
8
L6D0
10
4065
20
-7500.75
0
VERTEX
8
L6D0
10
4067
20
-7500.75
0
VERTEX
8
L6D0
10
4067
20
-8500.75
0
SEQEND
0
POLYLINE
8
L6D0
70
1
40
0
41
0
66
1
0
VERTEX
8
L6D0
10
3697
20
-8500.75
0
VERTEX
8
L6D0
10
3697
20
-7500.75
0
VERTEX
8
L6D0
10
3699
20
-7500.75
0
VERTEX
8
L6D0
10
3699
20
-8500.75
0
SEQEND
0
POLYLINE
8
L6D0
70
1
40
0
41
0
66
1
0
VERTEX
8
L6D0
10
3833
20
-8500.75
0
VERTEX
8
L6D0
10
3833
20
-7500.75
0
VERTEX
8
L6D0
10
3835
20
-7500.75
0
VERTEX
8
L6D0
10
3835
20
-8500.75
0
SEQEND
0
POLYLINE
8
L6D0
70
1
40
0
41
0
66
1
0
VERTEX
8
L6D0
10
4097
20
-8500.75
0
VERTEX
8
L6D0
10
4097
20
-7500.75
0
VERTEX
8
L6D0
10
4099
20
-7500.75
0
VERTEX
8
L6D0
10
4099
20
-8500.75
0
SEQEND
0
POLYLINE
8
L6D0
70
1
40
0
41
0
66
1
0
VERTEX
8
L6D0
10
3657
20
-8500.75
0
VERTEX
8
L6D0
10
3657
20
-7500.75
0
VERTEX
8
L6D0
10
3659
20
-7500.75
0
VERTEX
8
L6D0
10
3659
20
-8500.75
0
SEQEND
0
POLYLINE
8
L6D0
70
1
40
0
41
0
66
1
0
VERTEX
8
L6D0
10
3745
20
-8500.75
0
VERTEX
8
L6D0
10
3745
20
-7500.75
0
VERTEX
8
L6D0
10
3747
20
-7500.75
0
VERTEX
8
L6D0
10
3747
20
-8500.75
0
SEQEND
0
POLYLINE
8
L6D0
70
1
40
0
41
0
66
1
0
VERTEX
8
L6D0
10
4249
20
-8500.75
0
VERTEX
8
L6D0
10
4249
20
-7500.75
0
VERTEX
8
L6D0
10
4251
20
-7500.75
0
VERTEX
8
L6D0
10
4251
20
-8500.75
0
SEQEND
0
POLYLINE
8
L6D0
70
1
40
0
41
0
66
1
0
VERTEX
8
L6D0
10
3969
20
-8500.75
0
VERTEX
8
L6D0
10
3969
20
-7500.75
0
VERTEX
8
L6D0
10
3971
20
-7500.75
0
VERTEX
8
L6D0
10
3971
20
-8500.75
0
SEQEND
0
POLYLINE
8
L6D0
70
1
40
0
41
0
66
1
0
VERTEX
8
L6D0
10
3793
20
-8500.75
0
VERTEX
8
L6D0
10
3793
20
-7500.75
0
VERTEX
8
L6D0
10
3795
20
-7500.75
0
VERTEX
8
L6D0
10
3795
20
-8500.75
0
SEQEND
0
POLYLINE
8
L6D0
70
1
40
0
41
0
66
1
0
VERTEX
8
L6D0
10
3905
20
-8500.75
0
VERTEX
8
L6D0
10
3905
20
-7500.75
0
VERTEX
8
L6D0
10
3907
20
-7500.75
0
VERTEX
8
L6D0
10
3907
20
-8500.75
0
SEQEND
0
POLYLINE
8
L6D0
70
1
40
0
41
0
66
1
0
VERTEX
8
L6D0
10
3825
20
-8500.75
0
VERTEX
8
L6D0
10
3825
20
-7500.75
0
VERTEX
8
L6D0
10
3827
20
-7500.75
0
VERTEX
8
L6D0
10
3827
20
-8500.75
0
SEQEND
0
POLYLINE
8
L6D0
70
1
40
0
41
0
66
1
0
VERTEX
8
L6D0
10
3681
20
-8500.75
0
VERTEX
8
L6D0
10
3681
20
-7500.75
0
VERTEX
8
L6D0
10
3683
20
-7500.75
0
VERTEX
8
L6D0
10
3683
20
-8500.75
0
SEQEND
0
POLYLINE
8
L6D0
70
1
40
0
41
0
66
1
0
VERTEX
8
L6D0
10
4145
20
-8500.75
0
VERTEX
8
L6D0
10
4145
20
-7500.75
0
VERTEX
8
L6D0
10
4147
20
-7500.75
0
VERTEX
8
L6D0
10
4147
20
-8500.75
0
SEQEND
0
POLYLINE
8
L6D0
70
1
40
0
41
0
66
1
0
VERTEX
8
L6D0
10
4017
20
-8500.75
0
VERTEX
8
L6D0
10
4017
20
-7500.75
0
VERTEX
8
L6D0
10
4019
20
-7500.75
0
VERTEX
8
L6D0
10
4019
20
-8500.75
0
SEQEND
0
POLYLINE
8
L6D0
70
1
40
0
41
0
66
1
0
VERTEX
8
L6D0
10
3633
20
-8500.75
0
VERTEX
8
L6D0
10
3633
20
-7500.75
0
VERTEX
8
L6D0
10
3635
20
-7500.75
0
VERTEX
8
L6D0
10
3635
20
-8500.75
0
SEQEND
0
POLYLINE
8
L6D0
70
1
40
0
41
0
66
1
0
VERTEX
8
L6D0
10
3665
20
-8500.75
0
VERTEX
8
L6D0
10
3665
20
-7500.75
0
VERTEX
8
L6D0
10
3667
20
-7500.75
0
VERTEX
8
L6D0
10
3667
20
-8500.75
0
SEQEND
0
POLYLINE
8
L6D0
70
1
40
0
41
0
66
1
0
VERTEX
8
L6D0
10
4121
20
-8500.75
0
VERTEX
8
L6D0
10
4121
20
-7500.75
0
VERTEX
8
L6D0
10
4123
20
-7500.75
0
VERTEX
8
L6D0
10
4123
20
-8500.75
0
SEQEND
0
POLYLINE
8
L6D0
70
1
40
0
41
0
66
1
0
VERTEX
8
L6D0
10
3617
20
-8500.75
0
VERTEX
8
L6D0
10
3617
20
-7500.75
0
VERTEX
8
L6D0
10
3619
20
-7500.75
0
VERTEX
8
L6D0
10
3619
20
-8500.75
0
SEQEND
0
POLYLINE
8
L6D0
70
1
40
0
41
0
66
1
0
VERTEX
8
L6D0
10
4241
20
-8500.75
0
VERTEX
8
L6D0
10
4241
20
-7500.75
0
VERTEX
8
L6D0
10
4243
20
-7500.75
0
VERTEX
8
L6D0
10
4243
20
-8500.75
0
SEQEND
0
POLYLINE
8
L6D0
70
1
40
0
41
0
66
1
0
VERTEX
8
L6D0
10
4763.5
20
-7986.5
0
VERTEX
8
L6D0
10
4763.5
20
-7935.5
0
VERTEX
8
L6D0
10
4768.5
20
-7935.5
0
VERTEX
8
L6D0
10
4768.5
20
-7986.5
0
SEQEND
0
POLYLINE
8
L6D0
70
1
40
0
41
0
66
1
0
VERTEX
8
L6D0
10
4057
20
-8500.75
0
VERTEX
8
L6D0
10
4057
20
-7500.75
0
VERTEX
8
L6D0
10
4059
20
-7500.75
0
VERTEX
8
L6D0
10
4059
20
-8500.75
0
SEQEND
0
POLYLINE
8
L6D0
70
1
40
0
41
0
66
1
0
VERTEX
8
L6D0
10
3897
20
-8500.75
0
VERTEX
8
L6D0
10
3897
20
-7500.75
0
VERTEX
8
L6D0
10
3899
20
-7500.75
0
VERTEX
8
L6D0
10
3899
20
-8500.75
0
SEQEND
0
POLYLINE
8
L6D0
70
1
40
0
41
0
66
1
0
VERTEX
8
L6D0
10
3961
20
-8500.75
0
VERTEX
8
L6D0
10
3961
20
-7500.75
0
VERTEX
8
L6D0
10
3963
20
-7500.75
0
VERTEX
8
L6D0
10
3963
20
-8500.75
0
SEQEND
0
POLYLINE
8
L6D0
70
1
40
0
41
0
66
1
0
VERTEX
8
L6D0
10
4763.5
20
-8064.5
0
VERTEX
8
L6D0
10
4763.5
20
-8013.5
0
VERTEX
8
L6D0
10
4768.5
20
-8013.5
0
VERTEX
8
L6D0
10
4768.5
20
-8064.5
0
SEQEND
0
POLYLINE
8
L6D0
70
1
40
0
41
0
66
1
0
VERTEX
8
L6D0
10
2385
20
-8500.75
0
VERTEX
8
L6D0
10
2385
20
-7500.75
0
VERTEX
8
L6D0
10
2387
20
-7500.75
0
VERTEX
8
L6D0
10
2387
20
-8500.75
0
SEQEND
0
POLYLINE
8
L6D0
70
1
40
0
41
0
66
1
0
VERTEX
8
L6D0
10
3345
20
-8500.75
0
VERTEX
8
L6D0
10
3345
20
-7500.75
0
VERTEX
8
L6D0
10
3347
20
-7500.75
0
VERTEX
8
L6D0
10
3347
20
-8500.75
0
SEQEND
0
POLYLINE
8
L6D0
70
1
40
0
41
0
66
1
0
VERTEX
8
L6D0
10
3449
20
-8500.75
0
VERTEX
8
L6D0
10
3449
20
-7500.75
0
VERTEX
8
L6D0
10
3451
20
-7500.75
0
VERTEX
8
L6D0
10
3451
20
-8500.75
0
SEQEND
0
POLYLINE
8
L6D0
70
1
40
0
41
0
66
1
0
VERTEX
8
L6D0
10
2497
20
-8500.75
0
VERTEX
8
L6D0
10
2497
20
-7500.75
0
VERTEX
8
L6D0
10
2499
20
-7500.75
0
VERTEX
8
L6D0
10
2499
20
-8500.75
0
SEQEND
0
POLYLINE
8
L6D0
70
1
40
0
41
0
66
1
0
VERTEX
8
L6D0
10
3177
20
-8500.75
0
VERTEX
8
L6D0
10
3177
20
-7500.75
0
VERTEX
8
L6D0
10
3179
20
-7500.75
0
VERTEX
8
L6D0
10
3179
20
-8500.75
0
SEQEND
0
POLYLINE
8
L6D0
70
1
40
0
41
0
66
1
0
VERTEX
8
L6D0
10
2753
20
-8500.75
0
VERTEX
8
L6D0
10
2753
20
-7500.75
0
VERTEX
8
L6D0
10
2755
20
-7500.75
0
VERTEX
8
L6D0
10
2755
20
-8500.75
0
SEQEND
0
POLYLINE
8
L6D0
70
1
40
0
41
0
66
1
0
VERTEX
8
L6D0
10
2913
20
-8500.75
0
VERTEX
8
L6D0
10
2913
20
-7500.75
0
VERTEX
8
L6D0
10
2915
20
-7500.75
0
VERTEX
8
L6D0
10
2915
20
-8500.75
0
SEQEND
0
POLYLINE
8
L6D0
70
1
40
0
41
0
66
1
0
VERTEX
8
L6D0
10
3305
20
-8500.75
0
VERTEX
8
L6D0
10
3305
20
-7500.75
0
VERTEX
8
L6D0
10
3307
20
-7500.75
0
VERTEX
8
L6D0
10
3307
20
-8500.75
0
SEQEND
0
POLYLINE
8
L6D0
70
1
40
0
41
0
66
1
0
VERTEX
8
L6D0
10
3441
20
-8500.75
0
VERTEX
8
L6D0
10
3441
20
-7500.75
0
VERTEX
8
L6D0
10
3443
20
-7500.75
0
VERTEX
8
L6D0
10
3443
20
-8500.75
0
SEQEND
0
POLYLINE
8
L6D0
70
1
40
0
41
0
66
1
0
VERTEX
8
L6D0
10
2417
20
-8500.75
0
VERTEX
8
L6D0
10
2417
20
-7500.75
0
VERTEX
8
L6D0
10
2419
20
-7500.75
0
VERTEX
8
L6D0
10
2419
20
-8500.75
0
SEQEND
0
POLYLINE
8
L6D0
70
1
40
0
41
0
66
1
0
VERTEX
8
L6D0
10
2777
20
-8500.75
0
VERTEX
8
L6D0
10
2777
20
-7500.75
0
VERTEX
8
L6D0
10
2779
20
-7500.75
0
VERTEX
8
L6D0
10
2779
20
-8500.75
0
SEQEND
0
POLYLINE
8
L6D0
70
1
40
0
41
0
66
1
0
VERTEX
8
L6D0
10
3057
20
-8500.75
0
VERTEX
8
L6D0
10
3057
20
-7500.75
0
VERTEX
8
L6D0
10
3059
20
-7500.75
0
VERTEX
8
L6D0
10
3059
20
-8500.75
0
SEQEND
0
POLYLINE
8
L6D0
70
1
40
0
41
0
66
1
0
VERTEX
8
L6D0
10
2681
20
-8500.75
0
VERTEX
8
L6D0
10
2681
20
-7500.75
0
VERTEX
8
L6D0
10
2683
20
-7500.75
0
VERTEX
8
L6D0
10
2683
20
-8500.75
0
SEQEND
0
POLYLINE
8
L6D0
70
1
40
0
41
0
66
1
0
VERTEX
8
L6D0
10
2841
20
-8500.75
0
VERTEX
8
L6D0
10
2841
20
-7500.75
0
VERTEX
8
L6D0
10
2843
20
-7500.75
0
VERTEX
8
L6D0
10
2843
20
-8500.75
0
SEQEND
0
POLYLINE
8
L6D0
70
1
40
0
41
0
66
1
0
VERTEX
8
L6D0
10
3553
20
-8500.75
0
VERTEX
8
L6D0
10
3553
20
-7500.75
0
VERTEX
8
L6D0
10
3555
20
-7500.75
0
VERTEX
8
L6D0
10
3555
20
-8500.75
0
SEQEND
0
POLYLINE
8
L6D0
70
1
40
0
41
0
66
1
0
VERTEX
8
L6D0
10
3321
20
-8500.75
0
VERTEX
8
L6D0
10
3321
20
-7500.75
0
VERTEX
8
L6D0
10
3323
20
-7500.75
0
VERTEX
8
L6D0
10
3323
20
-8500.75
0
SEQEND
0
POLYLINE
8
L6D0
70
1
40
0
41
0
66
1
0
VERTEX
8
L6D0
10
2897
20
-8500.75
0
VERTEX
8
L6D0
10
2897
20
-7500.75
0
VERTEX
8
L6D0
10
2899
20
-7500.75
0
VERTEX
8
L6D0
10
2899
20
-8500.75
0
SEQEND
0
POLYLINE
8
L6D0
70
1
40
0
41
0
66
1
0
VERTEX
8
L6D0
10
2737
20
-8500.75
0
VERTEX
8
L6D0
10
2737
20
-7500.75
0
VERTEX
8
L6D0
10
2739
20
-7500.75
0
VERTEX
8
L6D0
10
2739
20
-8500.75
0
SEQEND
0
POLYLINE
8
L6D0
70
1
40
0
41
0
66
1
0
VERTEX
8
L6D0
10
2721
20
-8500.75
0
VERTEX
8
L6D0
10
2721
20
-7500.75
0
VERTEX
8
L6D0
10
2723
20
-7500.75
0
VERTEX
8
L6D0
10
2723
20
-8500.75
0
SEQEND
0
POLYLINE
8
L6D0
70
1
40
0
41
0
66
1
0
VERTEX
8
L6D0
10
2625
20
-8500.75
0
VERTEX
8
L6D0
10
2625
20
-7500.75
0
VERTEX
8
L6D0
10
2627
20
-7500.75
0
VERTEX
8
L6D0
10
2627
20
-8500.75
0
SEQEND
0
POLYLINE
8
L6D0
70
1
40
0
41
0
66
1
0
VERTEX
8
L6D0
10
3257
20
-8500.75
0
VERTEX
8
L6D0
10
3257
20
-7500.75
0
VERTEX
8
L6D0
10
3259
20
-7500.75
0
VERTEX
8
L6D0
10
3259
20
-8500.75
0
SEQEND
0
POLYLINE
8
L6D0
70
1
40
0
41
0
66
1
0
VERTEX
8
L6D0
10
2473
20
-8500.75
0
VERTEX
8
L6D0
10
2473
20
-7500.75
0
VERTEX
8
L6D0
10
2475
20
-7500.75
0
VERTEX
8
L6D0
10
2475
20
-8500.75
0
SEQEND
0
POLYLINE
8
L6D0
70
1
40
0
41
0
66
1
0
VERTEX
8
L6D0
10
3265
20
-8500.75
0
VERTEX
8
L6D0
10
3265
20
-7500.75
0
VERTEX
8
L6D0
10
3267
20
-7500.75
0
VERTEX
8
L6D0
10
3267
20
-8500.75
0
SEQEND
0
POLYLINE
8
L6D0
70
1
40
0
41
0
66
1
0
VERTEX
8
L6D0
10
2929
20
-8500.75
0
VERTEX
8
L6D0
10
2929
20
-7500.75
0
VERTEX
8
L6D0
10
2931
20
-7500.75
0
VERTEX
8
L6D0
10
2931
20
-8500.75
0
SEQEND
0
POLYLINE
8
L6D0
70
1
40
0
41
0
66
1
0
VERTEX
8
L6D0
10
2553
20
-8500.75
0
VERTEX
8
L6D0
10
2553
20
-7500.75
0
VERTEX
8
L6D0
10
2555
20
-7500.75
0
VERTEX
8
L6D0
10
2555
20
-8500.75
0
SEQEND
0
POLYLINE
8
L6D0
70
1
40
0
41
0
66
1
0
VERTEX
8
L6D0
10
3505
20
-8500.75
0
VERTEX
8
L6D0
10
3505
20
-7500.75
0
VERTEX
8
L6D0
10
3507
20
-7500.75
0
VERTEX
8
L6D0
10
3507
20
-8500.75
0
SEQEND
0
POLYLINE
8
L6D0
70
1
40
0
41
0
66
1
0
VERTEX
8
L6D0
10
3425
20
-8500.75
0
VERTEX
8
L6D0
10
3425
20
-7500.75
0
VERTEX
8
L6D0
10
3427
20
-7500.75
0
VERTEX
8
L6D0
10
3427
20
-8500.75
0
SEQEND
0
POLYLINE
8
L6D0
70
1
40
0
41
0
66
1
0
VERTEX
8
L6D0
10
2857
20
-8500.75
0
VERTEX
8
L6D0
10
2857
20
-7500.75
0
VERTEX
8
L6D0
10
2859
20
-7500.75
0
VERTEX
8
L6D0
10
2859
20
-8500.75
0
SEQEND
0
POLYLINE
8
L6D0
70
1
40
0
41
0
66
1
0
VERTEX
8
L6D0
10
2457
20
-8500.75
0
VERTEX
8
L6D0
10
2457
20
-7500.75
0
VERTEX
8
L6D0
10
2459
20
-7500.75
0
VERTEX
8
L6D0
10
2459
20
-8500.75
0
SEQEND
0
POLYLINE
8
L6D0
70
1
40
0
41
0
66
1
0
VERTEX
8
L6D0
10
3537
20
-8500.75
0
VERTEX
8
L6D0
10
3537
20
-7500.75
0
VERTEX
8
L6D0
10
3539
20
-7500.75
0
VERTEX
8
L6D0
10
3539
20
-8500.75
0
SEQEND
0
POLYLINE
8
L6D0
70
1
40
0
41
0
66
1
0
VERTEX
8
L6D0
10
2633
20
-8500.75
0
VERTEX
8
L6D0
10
2633
20
-7500.75
0
VERTEX
8
L6D0
10
2635
20
-7500.75
0
VERTEX
8
L6D0
10
2635
20
-8500.75
0
SEQEND
0
POLYLINE
8
L6D0
70
1
40
0
41
0
66
1
0
VERTEX
8
L6D0
10
2505
20
-8500.75
0
VERTEX
8
L6D0
10
2505
20
-7500.75
0
VERTEX
8
L6D0
10
2507
20
-7500.75
0
VERTEX
8
L6D0
10
2507
20
-8500.75
0
SEQEND
0
POLYLINE
8
L6D0
70
1
40
0
41
0
66
1
0
VERTEX
8
L6D0
10
3041
20
-8500.75
0
VERTEX
8
L6D0
10
3041
20
-7500.75
0
VERTEX
8
L6D0
10
3043
20
-7500.75
0
VERTEX
8
L6D0
10
3043
20
-8500.75
0
SEQEND
0
POLYLINE
8
L6D0
70
1
40
0
41
0
66
1
0
VERTEX
8
L6D0
10
2697
20
-8500.75
0
VERTEX
8
L6D0
10
2697
20
-7500.75
0
VERTEX
8
L6D0
10
2699
20
-7500.75
0
VERTEX
8
L6D0
10
2699
20
-8500.75
0
SEQEND
0
POLYLINE
8
L6D0
70
1
40
0
41
0
66
1
0
VERTEX
8
L6D0
10
3169
20
-8500.75
0
VERTEX
8
L6D0
10
3169
20
-7500.75
0
VERTEX
8
L6D0
10
3171
20
-7500.75
0
VERTEX
8
L6D0
10
3171
20
-8500.75
0
SEQEND
0
POLYLINE
8
L6D0
70
1
40
0
41
0
66
1
0
VERTEX
8
L6D0
10
2601
20
-8500.75
0
VERTEX
8
L6D0
10
2601
20
-7500.75
0
VERTEX
8
L6D0
10
2603
20
-7500.75
0
VERTEX
8
L6D0
10
2603
20
-8500.75
0
SEQEND
0
POLYLINE
8
L6D0
70
1
40
0
41
0
66
1
0
VERTEX
8
L6D0
10
2985
20
-8500.75
0
VERTEX
8
L6D0
10
2985
20
-7500.75
0
VERTEX
8
L6D0
10
2987
20
-7500.75
0
VERTEX
8
L6D0
10
2987
20
-8500.75
0
SEQEND
0
POLYLINE
8
L6D0
70
1
40
0
41
0
66
1
0
VERTEX
8
L6D0
10
2833
20
-8500.75
0
VERTEX
8
L6D0
10
2833
20
-7500.75
0
VERTEX
8
L6D0
10
2835
20
-7500.75
0
VERTEX
8
L6D0
10
2835
20
-8500.75
0
SEQEND
0
POLYLINE
8
L6D0
70
1
40
0
41
0
66
1
0
VERTEX
8
L6D0
10
2673
20
-8500.75
0
VERTEX
8
L6D0
10
2673
20
-7500.75
0
VERTEX
8
L6D0
10
2675
20
-7500.75
0
VERTEX
8
L6D0
10
2675
20
-8500.75
0
SEQEND
0
POLYLINE
8
L6D0
70
1
40
0
41
0
66
1
0
VERTEX
8
L6D0
10
3417
20
-8500.75
0
VERTEX
8
L6D0
10
3417
20
-7500.75
0
VERTEX
8
L6D0
10
3419
20
-7500.75
0
VERTEX
8
L6D0
10
3419
20
-8500.75
0
SEQEND
0
POLYLINE
8
L6D0
70
1
40
0
41
0
66
1
0
VERTEX
8
L6D0
10
3121
20
-8500.75
0
VERTEX
8
L6D0
10
3121
20
-7500.75
0
VERTEX
8
L6D0
10
3123
20
-7500.75
0
VERTEX
8
L6D0
10
3123
20
-8500.75
0
SEQEND
0
POLYLINE
8
L6D0
70
1
40
0
41
0
66
1
0
VERTEX
8
L6D0
10
2865
20
-8500.75
0
VERTEX
8
L6D0
10
2865
20
-7500.75
0
VERTEX
8
L6D0
10
2867
20
-7500.75
0
VERTEX
8
L6D0
10
2867
20
-8500.75
0
SEQEND
0
POLYLINE
8
L6D0
70
1
40
0
41
0
66
1
0
VERTEX
8
L6D0
10
3529
20
-8500.75
0
VERTEX
8
L6D0
10
3529
20
-7500.75
0
VERTEX
8
L6D0
10
3531
20
-7500.75
0
VERTEX
8
L6D0
10
3531
20
-8500.75
0
SEQEND
0
POLYLINE
8
L6D0
70
1
40
0
41
0
66
1
0
VERTEX
8
L6D0
10
2649
20
-8500.75
0
VERTEX
8
L6D0
10
2649
20
-7500.75
0
VERTEX
8
L6D0
10
2651
20
-7500.75
0
VERTEX
8
L6D0
10
2651
20
-8500.75
0
SEQEND
0
POLYLINE
8
L6D0
70
1
40
0
41
0
66
1
0
VERTEX
8
L6D0
10
3241
20
-8500.75
0
VERTEX
8
L6D0
10
3241
20
-7500.75
0
VERTEX
8
L6D0
10
3243
20
-7500.75
0
VERTEX
8
L6D0
10
3243
20
-8500.75
0
SEQEND
0
POLYLINE
8
L6D0
70
1
40
0
41
0
66
1
0
VERTEX
8
L6D0
10
3353
20
-8500.75
0
VERTEX
8
L6D0
10
3353
20
-7500.75
0
VERTEX
8
L6D0
10
3355
20
-7500.75
0
VERTEX
8
L6D0
10
3355
20
-8500.75
0
SEQEND
0
POLYLINE
8
L6D0
70
1
40
0
41
0
66
1
0
VERTEX
8
L6D0
10
3089
20
-8500.75
0
VERTEX
8
L6D0
10
3089
20
-7500.75
0
VERTEX
8
L6D0
10
3091
20
-7500.75
0
VERTEX
8
L6D0
10
3091
20
-8500.75
0
SEQEND
0
POLYLINE
8
L6D0
70
1
40
0
41
0
66
1
0
VERTEX
8
L6D0
10
3137
20
-8500.75
0
VERTEX
8
L6D0
10
3137
20
-7500.75
0
VERTEX
8
L6D0
10
3139
20
-7500.75
0
VERTEX
8
L6D0
10
3139
20
-8500.75
0
SEQEND
0
POLYLINE
8
L6D0
70
1
40
0
41
0
66
1
0
VERTEX
8
L6D0
10
3545
20
-8500.75
0
VERTEX
8
L6D0
10
3545
20
-7500.75
0
VERTEX
8
L6D0
10
3547
20
-7500.75
0
VERTEX
8
L6D0
10
3547
20
-8500.75
0
SEQEND
0
POLYLINE
8
L6D0
70
1
40
0
41
0
66
1
0
VERTEX
8
L6D0
10
2561
20
-8500.75
0
VERTEX
8
L6D0
10
2561
20
-7500.75
0
VERTEX
8
L6D0
10
2563
20
-7500.75
0
VERTEX
8
L6D0
10
2563
20
-8500.75
0
SEQEND
0
POLYLINE
8
L6D0
70
1
40
0
41
0
66
1
0
VERTEX
8
L6D0
10
3281
20
-8500.75
0
VERTEX
8
L6D0
10
3281
20
-7500.75
0
VERTEX
8
L6D0
10
3283
20
-7500.75
0
VERTEX
8
L6D0
10
3283
20
-8500.75
0
SEQEND
0
POLYLINE
8
L6D0
70
1
40
0
41
0
66
1
0
VERTEX
8
L6D0
10
2401
20
-8500.75
0
VERTEX
8
L6D0
10
2401
20
-7500.75
0
VERTEX
8
L6D0
10
2403
20
-7500.75
0
VERTEX
8
L6D0
10
2403
20
-8500.75
0
SEQEND
0
POLYLINE
8
L6D0
70
1
40
0
41
0
66
1
0
VERTEX
8
L6D0
10
3489
20
-8500.75
0
VERTEX
8
L6D0
10
3489
20
-7500.75
0
VERTEX
8
L6D0
10
3491
20
-7500.75
0
VERTEX
8
L6D0
10
3491
20
-8500.75
0
SEQEND
0
POLYLINE
8
L6D0
70
1
40
0
41
0
66
1
0
VERTEX
8
L6D0
10
3401
20
-8500.75
0
VERTEX
8
L6D0
10
3401
20
-7500.75
0
VERTEX
8
L6D0
10
3403
20
-7500.75
0
VERTEX
8
L6D0
10
3403
20
-8500.75
0
SEQEND
0
POLYLINE
8
L6D0
70
1
40
0
41
0
66
1
0
VERTEX
8
L6D0
10
2377
20
-8500.75
0
VERTEX
8
L6D0
10
2377
20
-7500.75
0
VERTEX
8
L6D0
10
2379
20
-7500.75
0
VERTEX
8
L6D0
10
2379
20
-8500.75
0
SEQEND
0
POLYLINE
8
L6D0
70
1
40
0
41
0
66
1
0
VERTEX
8
L6D0
10
2393
20
-8500.75
0
VERTEX
8
L6D0
10
2393
20
-7500.75
0
VERTEX
8
L6D0
10
2395
20
-7500.75
0
VERTEX
8
L6D0
10
2395
20
-8500.75
0
SEQEND
0
POLYLINE
8
L6D0
70
1
40
0
41
0
66
1
0
VERTEX
8
L6D0
10
3113
20
-8500.75
0
VERTEX
8
L6D0
10
3113
20
-7500.75
0
VERTEX
8
L6D0
10
3115
20
-7500.75
0
VERTEX
8
L6D0
10
3115
20
-8500.75
0
SEQEND
0
POLYLINE
8
L6D0
70
1
40
0
41
0
66
1
0
VERTEX
8
L6D0
10
2521
20
-8500.75
0
VERTEX
8
L6D0
10
2521
20
-7500.75
0
VERTEX
8
L6D0
10
2523
20
-7500.75
0
VERTEX
8
L6D0
10
2523
20
-8500.75
0
SEQEND
0
POLYLINE
8
L6D0
70
1
40
0
41
0
66
1
0
VERTEX
8
L6D0
10
2481
20
-8500.75
0
VERTEX
8
L6D0
10
2481
20
-7500.75
0
VERTEX
8
L6D0
10
2483
20
-7500.75
0
VERTEX
8
L6D0
10
2483
20
-8500.75
0
SEQEND
0
POLYLINE
8
L6D0
70
1
40
0
41
0
66
1
0
VERTEX
8
L6D0
10
2953
20
-8500.75
0
VERTEX
8
L6D0
10
2953
20
-7500.75
0
VERTEX
8
L6D0
10
2955
20
-7500.75
0
VERTEX
8
L6D0
10
2955
20
-8500.75
0
SEQEND
0
POLYLINE
8
L6D0
70
1
40
0
41
0
66
1
0
VERTEX
8
L6D0
10
2425
20
-8500.75
0
VERTEX
8
L6D0
10
2425
20
-7500.75
0
VERTEX
8
L6D0
10
2427
20
-7500.75
0
VERTEX
8
L6D0
10
2427
20
-8500.75
0
SEQEND
0
POLYLINE
8
L6D0
70
1
40
0
41
0
66
1
0
VERTEX
8
L6D0
10
3289
20
-8500.75
0
VERTEX
8
L6D0
10
3289
20
-7500.75
0
VERTEX
8
L6D0
10
3291
20
-7500.75
0
VERTEX
8
L6D0
10
3291
20
-8500.75
0
SEQEND
0
POLYLINE
8
L6D0
70
1
40
0
41
0
66
1
0
VERTEX
8
L6D0
10
3465
20
-8500.75
0
VERTEX
8
L6D0
10
3465
20
-7500.75
0
VERTEX
8
L6D0
10
3467
20
-7500.75
0
VERTEX
8
L6D0
10
3467
20
-8500.75
0
SEQEND
0
POLYLINE
8
L6D0
70
1
40
0
41
0
66
1
0
VERTEX
8
L6D0
10
3513
20
-8500.75
0
VERTEX
8
L6D0
10
3513
20
-7500.75
0
VERTEX
8
L6D0
10
3515
20
-7500.75
0
VERTEX
8
L6D0
10
3515
20
-8500.75
0
SEQEND
0
POLYLINE
8
L6D0
70
1
40
0
41
0
66
1
0
VERTEX
8
L6D0
10
2905
20
-8500.75
0
VERTEX
8
L6D0
10
2905
20
-7500.75
0
VERTEX
8
L6D0
10
2907
20
-7500.75
0
VERTEX
8
L6D0
10
2907
20
-8500.75
0
SEQEND
0
POLYLINE
8
L6D0
70
1
40
0
41
0
66
1
0
VERTEX
8
L6D0
10
2761
20
-8500.75
0
VERTEX
8
L6D0
10
2761
20
-7500.75
0
VERTEX
8
L6D0
10
2763
20
-7500.75
0
VERTEX
8
L6D0
10
2763
20
-8500.75
0
SEQEND
0
POLYLINE
8
L6D0
70
1
40
0
41
0
66
1
0
VERTEX
8
L6D0
10
3385
20
-8500.75
0
VERTEX
8
L6D0
10
3385
20
-7500.75
0
VERTEX
8
L6D0
10
3387
20
-7500.75
0
VERTEX
8
L6D0
10
3387
20
-8500.75
0
SEQEND
0
POLYLINE
8
L6D0
70
1
40
0
41
0
66
1
0
VERTEX
8
L6D0
10
3097
20
-8500.75
0
VERTEX
8
L6D0
10
3097
20
-7500.75
0
VERTEX
8
L6D0
10
3099
20
-7500.75
0
VERTEX
8
L6D0
10
3099
20
-8500.75
0
SEQEND
0
POLYLINE
8
L6D0
70
1
40
0
41
0
66
1
0
VERTEX
8
L6D0
10
3409
20
-8500.75
0
VERTEX
8
L6D0
10
3409
20
-7500.75
0
VERTEX
8
L6D0
10
3411
20
-7500.75
0
VERTEX
8
L6D0
10
3411
20
-8500.75
0
SEQEND
0
POLYLINE
8
L6D0
70
1
40
0
41
0
66
1
0
VERTEX
8
L6D0
10
3369
20
-8500.75
0
VERTEX
8
L6D0
10
3369
20
-7500.75
0
VERTEX
8
L6D0
10
3371
20
-7500.75
0
VERTEX
8
L6D0
10
3371
20
-8500.75
0
SEQEND
0
POLYLINE
8
L6D0
70
1
40
0
41
0
66
1
0
VERTEX
8
L6D0
10
2689
20
-8500.75
0
VERTEX
8
L6D0
10
2689
20
-7500.75
0
VERTEX
8
L6D0
10
2691
20
-7500.75
0
VERTEX
8
L6D0
10
2691
20
-8500.75
0
SEQEND
0
POLYLINE
8
L6D0
70
1
40
0
41
0
66
1
0
VERTEX
8
L6D0
10
2441
20
-8500.75
0
VERTEX
8
L6D0
10
2441
20
-7500.75
0
VERTEX
8
L6D0
10
2443
20
-7500.75
0
VERTEX
8
L6D0
10
2443
20
-8500.75
0
SEQEND
0
POLYLINE
8
L6D0
70
1
40
0
41
0
66
1
0
VERTEX
8
L6D0
10
2937
20
-8500.75
0
VERTEX
8
L6D0
10
2937
20
-7500.75
0
VERTEX
8
L6D0
10
2939
20
-7500.75
0
VERTEX
8
L6D0
10
2939
20
-8500.75
0
SEQEND
0
POLYLINE
8
L6D0
70
1
40
0
41
0
66
1
0
VERTEX
8
L6D0
10
2825
20
-8500.75
0
VERTEX
8
L6D0
10
2825
20
-7500.75
0
VERTEX
8
L6D0
10
2827
20
-7500.75
0
VERTEX
8
L6D0
10
2827
20
-8500.75
0
SEQEND
0
POLYLINE
8
L6D0
70
1
40
0
41
0
66
1
0
VERTEX
8
L6D0
10
3073
20
-8500.75
0
VERTEX
8
L6D0
10
3073
20
-7500.75
0
VERTEX
8
L6D0
10
3075
20
-7500.75
0
VERTEX
8
L6D0
10
3075
20
-8500.75
0
SEQEND
0
POLYLINE
8
L6D0
70
1
40
0
41
0
66
1
0
VERTEX
8
L6D0
10
2889
20
-8500.75
0
VERTEX
8
L6D0
10
2889
20
-7500.75
0
VERTEX
8
L6D0
10
2891
20
-7500.75
0
VERTEX
8
L6D0
10
2891
20
-8500.75
0
SEQEND
0
POLYLINE
8
L6D0
70
1
40
0
41
0
66
1
0
VERTEX
8
L6D0
10
2569
20
-8500.75
0
VERTEX
8
L6D0
10
2569
20
-7500.75
0
VERTEX
8
L6D0
10
2571
20
-7500.75
0
VERTEX
8
L6D0
10
2571
20
-8500.75
0
SEQEND
0
POLYLINE
8
L6D0
70
1
40
0
41
0
66
1
0
VERTEX
8
L6D0
10
3337
20
-8500.75
0
VERTEX
8
L6D0
10
3337
20
-7500.75
0
VERTEX
8
L6D0
10
3339
20
-7500.75
0
VERTEX
8
L6D0
10
3339
20
-8500.75
0
SEQEND
0
POLYLINE
8
L6D0
70
1
40
0
41
0
66
1
0
VERTEX
8
L6D0
10
3313
20
-8500.75
0
VERTEX
8
L6D0
10
3313
20
-7500.75
0
VERTEX
8
L6D0
10
3315
20
-7500.75
0
VERTEX
8
L6D0
10
3315
20
-8500.75
0
SEQEND
0
POLYLINE
8
L6D0
70
1
40
0
41
0
66
1
0
VERTEX
8
L6D0
10
2849
20
-8500.75
0
VERTEX
8
L6D0
10
2849
20
-7500.75
0
VERTEX
8
L6D0
10
2851
20
-7500.75
0
VERTEX
8
L6D0
10
2851
20
-8500.75
0
SEQEND
0
POLYLINE
8
L6D0
70
1
40
0
41
0
66
1
0
VERTEX
8
L6D0
10
2433
20
-8500.75
0
VERTEX
8
L6D0
10
2433
20
-7500.75
0
VERTEX
8
L6D0
10
2435
20
-7500.75
0
VERTEX
8
L6D0
10
2435
20
-8500.75
0
SEQEND
0
POLYLINE
8
L6D0
70
1
40
0
41
0
66
1
0
VERTEX
8
L6D0
10
3481
20
-8500.75
0
VERTEX
8
L6D0
10
3481
20
-7500.75
0
VERTEX
8
L6D0
10
3483
20
-7500.75
0
VERTEX
8
L6D0
10
3483
20
-8500.75
0
SEQEND
0
POLYLINE
8
L6D0
70
1
40
0
41
0
66
1
0
VERTEX
8
L6D0
10
3473
20
-8500.75
0
VERTEX
8
L6D0
10
3473
20
-7500.75
0
VERTEX
8
L6D0
10
3475
20
-7500.75
0
VERTEX
8
L6D0
10
3475
20
-8500.75
0
SEQEND
0
POLYLINE
8
L6D0
70
1
40
0
41
0
66
1
0
VERTEX
8
L6D0
10
2449
20
-8500.75
0
VERTEX
8
L6D0
10
2449
20
-7500.75
0
VERTEX
8
L6D0
10
2451
20
-7500.75
0
VERTEX
8
L6D0
10
2451
20
-8500.75
0
SEQEND
0
POLYLINE
8
L6D0
70
1
40
0
41
0
66
1
0
VERTEX
8
L6D0
10
3145
20
-8500.75
0
VERTEX
8
L6D0
10
3145
20
-7500.75
0
VERTEX
8
L6D0
10
3147
20
-7500.75
0
VERTEX
8
L6D0
10
3147
20
-8500.75
0
SEQEND
0
POLYLINE
8
L6D0
70
1
40
0
41
0
66
1
0
VERTEX
8
L6D0
10
2529
20
-8500.75
0
VERTEX
8
L6D0
10
2529
20
-7500.75
0
VERTEX
8
L6D0
10
2531
20
-7500.75
0
VERTEX
8
L6D0
10
2531
20
-8500.75
0
SEQEND
0
POLYLINE
8
L6D0
70
1
40
0
41
0
66
1
0
VERTEX
8
L6D0
10
2489
20
-8500.75
0
VERTEX
8
L6D0
10
2489
20
-7500.75
0
VERTEX
8
L6D0
10
2491
20
-7500.75
0
VERTEX
8
L6D0
10
2491
20
-8500.75
0
SEQEND
0
POLYLINE
8
L6D0
70
1
40
0
41
0
66
1
0
VERTEX
8
L6D0
10
2977
20
-8500.75
0
VERTEX
8
L6D0
10
2977
20
-7500.75
0
VERTEX
8
L6D0
10
2979
20
-7500.75
0
VERTEX
8
L6D0
10
2979
20
-8500.75
0
SEQEND
0
POLYLINE
8
L6D0
70
1
40
0
41
0
66
1
0
VERTEX
8
L6D0
10
2513
20
-8500.75
0
VERTEX
8
L6D0
10
2513
20
-7500.75
0
VERTEX
8
L6D0
10
2515
20
-7500.75
0
VERTEX
8
L6D0
10
2515
20
-8500.75
0
SEQEND
0
POLYLINE
8
L6D0
70
1
40
0
41
0
66
1
0
VERTEX
8
L6D0
10
3129
20
-8500.75
0
VERTEX
8
L6D0
10
3129
20
-7500.75
0
VERTEX
8
L6D0
10
3131
20
-7500.75
0
VERTEX
8
L6D0
10
3131
20
-8500.75
0
SEQEND
0
POLYLINE
8
L6D0
70
1
40
0
41
0
66
1
0
VERTEX
8
L6D0
10
3233
20
-8500.75
0
VERTEX
8
L6D0
10
3233
20
-7500.75
0
VERTEX
8
L6D0
10
3235
20
-7500.75
0
VERTEX
8
L6D0
10
3235
20
-8500.75
0
SEQEND
0
POLYLINE
8
L6D0
70
1
40
0
41
0
66
1
0
VERTEX
8
L6D0
10
3521
20
-8500.75
0
VERTEX
8
L6D0
10
3521
20
-7500.75
0
VERTEX
8
L6D0
10
3523
20
-7500.75
0
VERTEX
8
L6D0
10
3523
20
-8500.75
0
SEQEND
0
POLYLINE
8
L6D0
70
1
40
0
41
0
66
1
0
VERTEX
8
L6D0
10
2705
20
-8500.75
0
VERTEX
8
L6D0
10
2705
20
-7500.75
0
VERTEX
8
L6D0
10
2707
20
-7500.75
0
VERTEX
8
L6D0
10
2707
20
-8500.75
0
SEQEND
0
POLYLINE
8
L6D0
70
1
40
0
41
0
66
1
0
VERTEX
8
L6D0
10
2993
20
-8500.75
0
VERTEX
8
L6D0
10
2993
20
-7500.75
0
VERTEX
8
L6D0
10
2995
20
-7500.75
0
VERTEX
8
L6D0
10
2995
20
-8500.75
0
SEQEND
0
POLYLINE
8
L6D0
70
1
40
0
41
0
66
1
0
VERTEX
8
L6D0
10
3081
20
-8500.75
0
VERTEX
8
L6D0
10
3081
20
-7500.75
0
VERTEX
8
L6D0
10
3083
20
-7500.75
0
VERTEX
8
L6D0
10
3083
20
-8500.75
0
SEQEND
0
POLYLINE
8
L6D0
70
1
40
0
41
0
66
1
0
VERTEX
8
L6D0
10
2793
20
-8500.75
0
VERTEX
8
L6D0
10
2793
20
-7500.75
0
VERTEX
8
L6D0
10
2795
20
-7500.75
0
VERTEX
8
L6D0
10
2795
20
-8500.75
0
SEQEND
0
POLYLINE
8
L6D0
70
1
40
0
41
0
66
1
0
VERTEX
8
L6D0
10
2817
20
-8500.75
0
VERTEX
8
L6D0
10
2817
20
-7500.75
0
VERTEX
8
L6D0
10
2819
20
-7500.75
0
VERTEX
8
L6D0
10
2819
20
-8500.75
0
SEQEND
0
POLYLINE
8
L6D0
70
1
40
0
41
0
66
1
0
VERTEX
8
L6D0
10
3017
20
-8500.75
0
VERTEX
8
L6D0
10
3017
20
-7500.75
0
VERTEX
8
L6D0
10
3019
20
-7500.75
0
VERTEX
8
L6D0
10
3019
20
-8500.75
0
SEQEND
0
POLYLINE
8
L6D0
70
1
40
0
41
0
66
1
0
VERTEX
8
L6D0
10
3497
20
-8500.75
0
VERTEX
8
L6D0
10
3497
20
-7500.75
0
VERTEX
8
L6D0
10
3499
20
-7500.75
0
VERTEX
8
L6D0
10
3499
20
-8500.75
0
SEQEND
0
POLYLINE
8
L6D0
70
1
40
0
41
0
66
1
0
VERTEX
8
L6D0
10
2665
20
-8500.75
0
VERTEX
8
L6D0
10
2665
20
-7500.75
0
VERTEX
8
L6D0
10
2667
20
-7500.75
0
VERTEX
8
L6D0
10
2667
20
-8500.75
0
SEQEND
0
POLYLINE
8
L6D0
70
1
40
0
41
0
66
1
0
VERTEX
8
L6D0
10
2361
20
-8500.75
0
VERTEX
8
L6D0
10
2361
20
-7500.75
0
VERTEX
8
L6D0
10
2363
20
-7500.75
0
VERTEX
8
L6D0
10
2363
20
-8500.75
0
SEQEND
0
POLYLINE
8
L6D0
70
1
40
0
41
0
66
1
0
VERTEX
8
L6D0
10
2785
20
-8500.75
0
VERTEX
8
L6D0
10
2785
20
-7500.75
0
VERTEX
8
L6D0
10
2787
20
-7500.75
0
VERTEX
8
L6D0
10
2787
20
-8500.75
0
SEQEND
0
POLYLINE
8
L6D0
70
1
40
0
41
0
66
1
0
VERTEX
8
L6D0
10
3161
20
-8500.75
0
VERTEX
8
L6D0
10
3161
20
-7500.75
0
VERTEX
8
L6D0
10
3163
20
-7500.75
0
VERTEX
8
L6D0
10
3163
20
-8500.75
0
SEQEND
0
POLYLINE
8
L6D0
70
1
40
0
41
0
66
1
0
VERTEX
8
L6D0
10
3001
20
-8500.75
0
VERTEX
8
L6D0
10
3001
20
-7500.75
0
VERTEX
8
L6D0
10
3003
20
-7500.75
0
VERTEX
8
L6D0
10
3003
20
-8500.75
0
SEQEND
0
POLYLINE
8
L6D0
70
1
40
0
41
0
66
1
0
VERTEX
8
L6D0
10
2537
20
-8500.75
0
VERTEX
8
L6D0
10
2537
20
-7500.75
0
VERTEX
8
L6D0
10
2539
20
-7500.75
0
VERTEX
8
L6D0
10
2539
20
-8500.75
0
SEQEND
0
POLYLINE
8
L6D0
70
1
40
0
41
0
66
1
0
VERTEX
8
L6D0
10
2729
20
-8500.75
0
VERTEX
8
L6D0
10
2729
20
-7500.75
0
VERTEX
8
L6D0
10
2731
20
-7500.75
0
VERTEX
8
L6D0
10
2731
20
-8500.75
0
SEQEND
0
POLYLINE
8
L6D0
70
1
40
0
41
0
66
1
0
VERTEX
8
L6D0
10
2465
20
-8500.75
0
VERTEX
8
L6D0
10
2465
20
-7500.75
0
VERTEX
8
L6D0
10
2467
20
-7500.75
0
VERTEX
8
L6D0
10
2467
20
-8500.75
0
SEQEND
0
POLYLINE
8
L6D0
70
1
40
0
41
0
66
1
0
VERTEX
8
L6D0
10
2545
20
-8500.75
0
VERTEX
8
L6D0
10
2545
20
-7500.75
0
VERTEX
8
L6D0
10
2547
20
-7500.75
0
VERTEX
8
L6D0
10
2547
20
-8500.75
0
SEQEND
0
POLYLINE
8
L6D0
70
1
40
0
41
0
66
1
0
VERTEX
8
L6D0
10
2577
20
-8500.75
0
VERTEX
8
L6D0
10
2577
20
-7500.75
0
VERTEX
8
L6D0
10
2579
20
-7500.75
0
VERTEX
8
L6D0
10
2579
20
-8500.75
0
SEQEND
0
POLYLINE
8
L6D0
70
1
40
0
41
0
66
1
0
VERTEX
8
L6D0
10
3361
20
-8500.75
0
VERTEX
8
L6D0
10
3361
20
-7500.75
0
VERTEX
8
L6D0
10
3363
20
-7500.75
0
VERTEX
8
L6D0
10
3363
20
-8500.75
0
SEQEND
0
POLYLINE
8
L6D0
70
1
40
0
41
0
66
1
0
VERTEX
8
L6D0
10
3153
20
-8500.75
0
VERTEX
8
L6D0
10
3153
20
-7500.75
0
VERTEX
8
L6D0
10
3155
20
-7500.75
0
VERTEX
8
L6D0
10
3155
20
-8500.75
0
SEQEND
0
POLYLINE
8
L6D0
70
1
40
0
41
0
66
1
0
VERTEX
8
L6D0
10
2713
20
-8500.75
0
VERTEX
8
L6D0
10
2713
20
-7500.75
0
VERTEX
8
L6D0
10
2715
20
-7500.75
0
VERTEX
8
L6D0
10
2715
20
-8500.75
0
SEQEND
0
POLYLINE
8
L6D0
70
1
40
0
41
0
66
1
0
VERTEX
8
L6D0
10
3377
20
-8500.75
0
VERTEX
8
L6D0
10
3377
20
-7500.75
0
VERTEX
8
L6D0
10
3379
20
-7500.75
0
VERTEX
8
L6D0
10
3379
20
-8500.75
0
SEQEND
0
POLYLINE
8
L6D0
70
1
40
0
41
0
66
1
0
VERTEX
8
L6D0
10
2921
20
-8500.75
0
VERTEX
8
L6D0
10
2921
20
-7500.75
0
VERTEX
8
L6D0
10
2923
20
-7500.75
0
VERTEX
8
L6D0
10
2923
20
-8500.75
0
SEQEND
0
POLYLINE
8
L6D0
70
1
40
0
41
0
66
1
0
VERTEX
8
L6D0
10
3273
20
-8500.75
0
VERTEX
8
L6D0
10
3273
20
-7500.75
0
VERTEX
8
L6D0
10
3275
20
-7500.75
0
VERTEX
8
L6D0
10
3275
20
-8500.75
0
SEQEND
0
POLYLINE
8
L6D0
70
1
40
0
41
0
66
1
0
VERTEX
8
L6D0
10
2809
20
-8500.75
0
VERTEX
8
L6D0
10
2809
20
-7500.75
0
VERTEX
8
L6D0
10
2811
20
-7500.75
0
VERTEX
8
L6D0
10
2811
20
-8500.75
0
SEQEND
0
POLYLINE
8
L6D0
70
1
40
0
41
0
66
1
0
VERTEX
8
L6D0
10
2881
20
-8500.75
0
VERTEX
8
L6D0
10
2881
20
-7500.75
0
VERTEX
8
L6D0
10
2883
20
-7500.75
0
VERTEX
8
L6D0
10
2883
20
-8500.75
0
SEQEND
0
POLYLINE
8
L6D0
70
1
40
0
41
0
66
1
0
VERTEX
8
L6D0
10
3049
20
-8500.75
0
VERTEX
8
L6D0
10
3049
20
-7500.75
0
VERTEX
8
L6D0
10
3051
20
-7500.75
0
VERTEX
8
L6D0
10
3051
20
-8500.75
0
SEQEND
0
POLYLINE
8
L6D0
70
1
40
0
41
0
66
1
0
VERTEX
8
L6D0
10
2969
20
-8500.75
0
VERTEX
8
L6D0
10
2969
20
-7500.75
0
VERTEX
8
L6D0
10
2971
20
-7500.75
0
VERTEX
8
L6D0
10
2971
20
-8500.75
0
SEQEND
0
POLYLINE
8
L6D0
70
1
40
0
41
0
66
1
0
VERTEX
8
L6D0
10
3433
20
-8500.75
0
VERTEX
8
L6D0
10
3433
20
-7500.75
0
VERTEX
8
L6D0
10
3435
20
-7500.75
0
VERTEX
8
L6D0
10
3435
20
-8500.75
0
SEQEND
0
POLYLINE
8
L6D0
70
1
40
0
41
0
66
1
0
VERTEX
8
L6D0
10
2409
20
-8500.75
0
VERTEX
8
L6D0
10
2409
20
-7500.75
0
VERTEX
8
L6D0
10
2411
20
-7500.75
0
VERTEX
8
L6D0
10
2411
20
-8500.75
0
SEQEND
0
POLYLINE
8
L6D0
70
1
40
0
41
0
66
1
0
VERTEX
8
L6D0
10
3225
20
-8500.75
0
VERTEX
8
L6D0
10
3225
20
-7500.75
0
VERTEX
8
L6D0
10
3227
20
-7500.75
0
VERTEX
8
L6D0
10
3227
20
-8500.75
0
SEQEND
0
POLYLINE
8
L6D0
70
1
40
0
41
0
66
1
0
VERTEX
8
L6D0
10
2593
20
-8500.75
0
VERTEX
8
L6D0
10
2593
20
-7500.75
0
VERTEX
8
L6D0
10
2595
20
-7500.75
0
VERTEX
8
L6D0
10
2595
20
-8500.75
0
SEQEND
0
POLYLINE
8
L6D0
70
1
40
0
41
0
66
1
0
VERTEX
8
L6D0
10
3193
20
-8500.75
0
VERTEX
8
L6D0
10
3193
20
-7500.75
0
VERTEX
8
L6D0
10
3195
20
-7500.75
0
VERTEX
8
L6D0
10
3195
20
-8500.75
0
SEQEND
0
POLYLINE
8
L6D0
70
1
40
0
41
0
66
1
0
VERTEX
8
L6D0
10
2745
20
-8500.75
0
VERTEX
8
L6D0
10
2745
20
-7500.75
0
VERTEX
8
L6D0
10
2747
20
-7500.75
0
VERTEX
8
L6D0
10
2747
20
-8500.75
0
SEQEND
0
POLYLINE
8
L6D0
70
1
40
0
41
0
66
1
0
VERTEX
8
L6D0
10
3329
20
-8500.75
0
VERTEX
8
L6D0
10
3329
20
-7500.75
0
VERTEX
8
L6D0
10
3331
20
-7500.75
0
VERTEX
8
L6D0
10
3331
20
-8500.75
0
SEQEND
0
POLYLINE
8
L6D0
70
1
40
0
41
0
66
1
0
VERTEX
8
L6D0
10
2609
20
-8500.75
0
VERTEX
8
L6D0
10
2609
20
-7500.75
0
VERTEX
8
L6D0
10
2611
20
-7500.75
0
VERTEX
8
L6D0
10
2611
20
-8500.75
0
SEQEND
0
POLYLINE
8
L6D0
70
1
40
0
41
0
66
1
0
VERTEX
8
L6D0
10
3065
20
-8500.75
0
VERTEX
8
L6D0
10
3065
20
-7500.75
0
VERTEX
8
L6D0
10
3067
20
-7500.75
0
VERTEX
8
L6D0
10
3067
20
-8500.75
0
SEQEND
0
POLYLINE
8
L6D0
70
1
40
0
41
0
66
1
0
VERTEX
8
L6D0
10
2769
20
-8500.75
0
VERTEX
8
L6D0
10
2769
20
-7500.75
0
VERTEX
8
L6D0
10
2771
20
-7500.75
0
VERTEX
8
L6D0
10
2771
20
-8500.75
0
SEQEND
0
POLYLINE
8
L6D0
70
1
40
0
41
0
66
1
0
VERTEX
8
L6D0
10
2801
20
-8500.75
0
VERTEX
8
L6D0
10
2801
20
-7500.75
0
VERTEX
8
L6D0
10
2803
20
-7500.75
0
VERTEX
8
L6D0
10
2803
20
-8500.75
0
SEQEND
0
POLYLINE
8
L6D0
70
1
40
0
41
0
66
1
0
VERTEX
8
L6D0
10
3297
20
-8500.75
0
VERTEX
8
L6D0
10
3297
20
-7500.75
0
VERTEX
8
L6D0
10
3299
20
-7500.75
0
VERTEX
8
L6D0
10
3299
20
-8500.75
0
SEQEND
0
POLYLINE
8
L6D0
70
1
40
0
41
0
66
1
0
VERTEX
8
L6D0
10
2585
20
-8500.75
0
VERTEX
8
L6D0
10
2585
20
-7500.75
0
VERTEX
8
L6D0
10
2587
20
-7500.75
0
VERTEX
8
L6D0
10
2587
20
-8500.75
0
SEQEND
0
POLYLINE
8
L6D0
70
1
40
0
41
0
66
1
0
VERTEX
8
L6D0
10
2641
20
-8500.75
0
VERTEX
8
L6D0
10
2641
20
-7500.75
0
VERTEX
8
L6D0
10
2643
20
-7500.75
0
VERTEX
8
L6D0
10
2643
20
-8500.75
0
SEQEND
0
POLYLINE
8
L6D0
70
1
40
0
41
0
66
1
0
VERTEX
8
L6D0
10
3209
20
-8500.75
0
VERTEX
8
L6D0
10
3209
20
-7500.75
0
VERTEX
8
L6D0
10
3211
20
-7500.75
0
VERTEX
8
L6D0
10
3211
20
-8500.75
0
SEQEND
0
POLYLINE
8
L6D0
70
1
40
0
41
0
66
1
0
VERTEX
8
L6D0
10
3201
20
-8500.75
0
VERTEX
8
L6D0
10
3201
20
-7500.75
0
VERTEX
8
L6D0
10
3203
20
-7500.75
0
VERTEX
8
L6D0
10
3203
20
-8500.75
0
SEQEND
0
POLYLINE
8
L6D0
70
1
40
0
41
0
66
1
0
VERTEX
8
L6D0
10
3217
20
-8500.75
0
VERTEX
8
L6D0
10
3217
20
-7500.75
0
VERTEX
8
L6D0
10
3219
20
-7500.75
0
VERTEX
8
L6D0
10
3219
20
-8500.75
0
SEQEND
0
POLYLINE
8
L6D0
70
1
40
0
41
0
66
1
0
VERTEX
8
L6D0
10
3105
20
-8500.75
0
VERTEX
8
L6D0
10
3105
20
-7500.75
0
VERTEX
8
L6D0
10
3107
20
-7500.75
0
VERTEX
8
L6D0
10
3107
20
-8500.75
0
SEQEND
0
POLYLINE
8
L6D0
70
1
40
0
41
0
66
1
0
VERTEX
8
L6D0
10
3009
20
-8500.75
0
VERTEX
8
L6D0
10
3009
20
-7500.75
0
VERTEX
8
L6D0
10
3011
20
-7500.75
0
VERTEX
8
L6D0
10
3011
20
-8500.75
0
SEQEND
0
POLYLINE
8
L6D0
70
1
40
0
41
0
66
1
0
VERTEX
8
L6D0
10
3393
20
-8500.75
0
VERTEX
8
L6D0
10
3393
20
-7500.75
0
VERTEX
8
L6D0
10
3395
20
-7500.75
0
VERTEX
8
L6D0
10
3395
20
-8500.75
0
SEQEND
0
POLYLINE
8
L6D0
70
1
40
0
41
0
66
1
0
VERTEX
8
L6D0
10
3033
20
-8500.75
0
VERTEX
8
L6D0
10
3033
20
-7500.75
0
VERTEX
8
L6D0
10
3035
20
-7500.75
0
VERTEX
8
L6D0
10
3035
20
-8500.75
0
SEQEND
0
POLYLINE
8
L6D0
70
1
40
0
41
0
66
1
0
VERTEX
8
L6D0
10
2961
20
-8500.75
0
VERTEX
8
L6D0
10
2961
20
-7500.75
0
VERTEX
8
L6D0
10
2963
20
-7500.75
0
VERTEX
8
L6D0
10
2963
20
-8500.75
0
SEQEND
0
POLYLINE
8
L6D0
70
1
40
0
41
0
66
1
0
VERTEX
8
L6D0
10
2369
20
-8500.75
0
VERTEX
8
L6D0
10
2369
20
-7500.75
0
VERTEX
8
L6D0
10
2371
20
-7500.75
0
VERTEX
8
L6D0
10
2371
20
-8500.75
0
SEQEND
0
POLYLINE
8
L6D0
70
1
40
0
41
0
66
1
0
VERTEX
8
L6D0
10
3561
20
-8500.75
0
VERTEX
8
L6D0
10
3561
20
-7500.75
0
VERTEX
8
L6D0
10
3563
20
-7500.75
0
VERTEX
8
L6D0
10
3563
20
-8500.75
0
SEQEND
0
POLYLINE
8
L6D0
70
1
40
0
41
0
66
1
0
VERTEX
8
L6D0
10
2945
20
-8500.75
0
VERTEX
8
L6D0
10
2945
20
-7500.75
0
VERTEX
8
L6D0
10
2947
20
-7500.75
0
VERTEX
8
L6D0
10
2947
20
-8500.75
0
SEQEND
0
POLYLINE
8
L6D0
70
1
40
0
41
0
66
1
0
VERTEX
8
L6D0
10
2873
20
-8500.75
0
VERTEX
8
L6D0
10
2873
20
-7500.75
0
VERTEX
8
L6D0
10
2875
20
-7500.75
0
VERTEX
8
L6D0
10
2875
20
-8500.75
0
SEQEND
0
POLYLINE
8
L6D0
70
1
40
0
41
0
66
1
0
VERTEX
8
L6D0
10
2617
20
-8500.75
0
VERTEX
8
L6D0
10
2617
20
-7500.75
0
VERTEX
8
L6D0
10
2619
20
-7500.75
0
VERTEX
8
L6D0
10
2619
20
-8500.75
0
SEQEND
0
POLYLINE
8
L6D0
70
1
40
0
41
0
66
1
0
VERTEX
8
L6D0
10
3249
20
-8500.75
0
VERTEX
8
L6D0
10
3249
20
-7500.75
0
VERTEX
8
L6D0
10
3251
20
-7500.75
0
VERTEX
8
L6D0
10
3251
20
-8500.75
0
SEQEND
0
POLYLINE
8
L6D0
70
1
40
0
41
0
66
1
0
VERTEX
8
L6D0
10
2657
20
-8500.75
0
VERTEX
8
L6D0
10
2657
20
-7500.75
0
VERTEX
8
L6D0
10
2659
20
-7500.75
0
VERTEX
8
L6D0
10
2659
20
-8500.75
0
SEQEND
0
POLYLINE
8
L6D0
70
1
40
0
41
0
66
1
0
VERTEX
8
L6D0
10
3025
20
-8500.75
0
VERTEX
8
L6D0
10
3025
20
-7500.75
0
VERTEX
8
L6D0
10
3027
20
-7500.75
0
VERTEX
8
L6D0
10
3027
20
-8500.75
0
SEQEND
0
POLYLINE
8
L6D0
70
1
40
0
41
0
66
1
0
VERTEX
8
L6D0
10
3457
20
-8500.75
0
VERTEX
8
L6D0
10
3457
20
-7500.75
0
VERTEX
8
L6D0
10
3459
20
-7500.75
0
VERTEX
8
L6D0
10
3459
20
-8500.75
0
SEQEND
0
POLYLINE
8
L6D0
70
1
40
0
41
0
66
1
0
VERTEX
8
L6D0
10
3185
20
-8500.75
0
VERTEX
8
L6D0
10
3185
20
-7500.75
0
VERTEX
8
L6D0
10
3187
20
-7500.75
0
VERTEX
8
L6D0
10
3187
20
-8500.75
0
SEQEND
0
ENDSEC
0
EOF
